<?xml version="1.0" encoding="UTF-8"?>
<svg id="Capa_2" data-name="Capa 2" xmlns="http://www.w3.org/2000/svg" viewBox="0 0 118.51 118.51">
  <defs>
    <style>
      .cls-1 {
        fill: #fff;
        stroke: #fff;
        stroke-miterlimit: 10;
        stroke-width: .34px;
      }
    </style>
  </defs>
  <g id="Capa_1-2" data-name="Capa 1">
    <g>
      <g>
        <circle class="cls-1" cx="54.4" cy="100.06" r="1.62"/>
        <path class="cls-1" d="m54.4,101.74c-.92,0-1.68-.75-1.68-1.68s.75-1.68,1.68-1.68,1.68.75,1.68,1.68-.75,1.68-1.68,1.68Zm0-3.23c-.86,0-1.56.7-1.56,1.56s.7,1.56,1.56,1.56,1.56-.7,1.56-1.56-.7-1.56-1.56-1.56Z"/>
      </g>
      <g>
        <circle class="cls-1" cx="44.7" cy="93.6" r="1.62"/>
        <path class="cls-1" d="m44.7,95.27c-.92,0-1.68-.75-1.68-1.68s.75-1.68,1.68-1.68,1.68.75,1.68,1.68-.75,1.68-1.68,1.68Zm0-3.23c-.86,0-1.56.7-1.56,1.56s.7,1.56,1.56,1.56,1.56-.7,1.56-1.56-.7-1.56-1.56-1.56Z"/>
      </g>
      <g>
        <circle class="cls-1" cx="96.52" cy="57.95" r="1.62"/>
        <path class="cls-1" d="m96.52,59.63c-.92,0-1.68-.75-1.68-1.68s.75-1.68,1.68-1.68,1.68.75,1.68,1.68-.75,1.68-1.68,1.68Zm0-3.23c-.86,0-1.56.7-1.56,1.56s.7,1.56,1.56,1.56,1.56-.7,1.56-1.56-.7-1.56-1.56-1.56Z"/>
      </g>
      <g>
        <circle class="cls-1" cx="86.81" cy="51.48" r="1.62"/>
        <path class="cls-1" d="m86.81,53.16c-.92,0-1.68-.75-1.68-1.68s.75-1.68,1.68-1.68,1.68.75,1.68,1.68-.75,1.68-1.68,1.68Zm0-3.23c-.86,0-1.56.7-1.56,1.56s.7,1.56,1.56,1.56,1.56-.7,1.56-1.56-.7-1.56-1.56-1.56Z"/>
      </g>
      <g>
        <circle class="cls-1" cx="23.85" cy="62.8" r="1.62"/>
        <path class="cls-1" d="m23.85,64.48c-.92,0-1.68-.75-1.68-1.68s.75-1.68,1.68-1.68,1.68.75,1.68,1.68-.75,1.68-1.68,1.68Zm0-3.23c-.86,0-1.56.7-1.56,1.56s.7,1.56,1.56,1.56,1.56-.7,1.56-1.56-.7-1.56-1.56-1.56Z"/>
      </g>
      <g>
        <circle class="cls-1" cx="22.23" cy="46.63" r="1.62"/>
        <path class="cls-1" d="m22.23,48.31c-.92,0-1.68-.75-1.68-1.68s.75-1.68,1.68-1.68,1.68.75,1.68,1.68-.75,1.68-1.68,1.68Zm0-3.23c-.86,0-1.56.7-1.56,1.56s.7,1.56,1.56,1.56,1.56-.7,1.56-1.56-.7-1.56-1.56-1.56Z"/>
      </g>
      <g>
        <circle class="cls-1" cx="85.2" cy="80.5" r="1.62"/>
        <path class="cls-1" d="m85.2,82.18c-.92,0-1.68-.75-1.68-1.68s.75-1.68,1.68-1.68,1.68.75,1.68,1.68-.75,1.68-1.68,1.68Zm0-3.23c-.86,0-1.56.7-1.56,1.56s.7,1.56,1.56,1.56,1.56-.7,1.56-1.56-.7-1.56-1.56-1.56Z"/>
      </g>
      <g>
        <path class="cls-1" d="m107.28,73.31c.32.32.73.47,1.14.47s.83-.16,1.14-.47c.63-.63.63-1.65,0-2.29l-1.14-1.14,1.14-1.14c.63-.63.63-1.65,0-2.29-.63-.63-1.65-.63-2.29,0l-1.14,1.14-1.14-1.14c-.63-.63-1.65-.63-2.29,0-.63.63-.63,1.65,0,2.29l1.14,1.14-1.14,1.14c-.63.63-.63,1.65,0,2.29.32.32.73.47,1.14.47s.83-.16,1.14-.47l1.14-1.14,1.14,1.14h0Z"/>
        <path class="cls-1" d="m108.43,73.82c-.44,0-.86-.17-1.17-.48l-1.12-1.12-1.12,1.12c-.31.31-.73.48-1.17.48s-.86-.17-1.17-.48c-.31-.31-.48-.73-.48-1.17s.17-.86.48-1.17l1.12-1.12-1.12-1.12c-.31-.31-.48-.73-.48-1.17s.17-.86.48-1.17c.31-.31.73-.48,1.17-.48s.86.17,1.17.48l1.12,1.12,1.12-1.12c.31-.31.73-.48,1.17-.48s.86.17,1.17.48c.31.31.48.73.48,1.17s-.17.86-.48,1.17l-1.12,1.12,1.12,1.12c.65.65.65,1.7,0,2.34-.31.31-.73.48-1.17.48h0Zm-1.12-.54c.3.3.69.46,1.12.46s.82-.16,1.12-.46c.61-.61.61-1.62,0-2.23l-1.17-1.17,1.17-1.17c.61-.61.61-1.62,0-2.23-.3-.3-.69-.46-1.12-.46s-.82.16-1.12.46l-1.17,1.17-1.17-1.17c-.3-.3-.69-.46-1.12-.46s-.82.16-1.12.46-.46.69-.46,1.12.16.82.46,1.12l1.17,1.17-1.17,1.17c-.61.61-.61,1.62,0,2.23.3.3.69.46,1.12.46s.82-.16,1.12-.46l1.17-1.17,1.17,1.17h0Z"/>
      </g>
      <g>
        <path class="cls-1" d="m22.7,78.15c.32.32.73.47,1.14.47s.83-.16,1.14-.47l1.14-1.14,1.14,1.14c.32.32.73.47,1.14.47s.83-.16,1.14-.47c.63-.63.63-1.65,0-2.29l-1.14-1.14,1.14-1.14c.63-.63.63-1.65,0-2.29-.63-.63-1.65-.63-2.29,0l-1.14,1.14-1.14-1.14c-.63-.63-1.65-.63-2.29,0-.63.63-.63,1.65,0,2.29l1.14,1.14-1.14,1.14c-.63.63-.63,1.65,0,2.29h0Z"/>
        <path class="cls-1" d="m28.42,78.67c-.44,0-.86-.17-1.17-.48l-1.12-1.12-1.12,1.12c-.31.31-.73.48-1.17.48s-.86-.17-1.17-.48h0c-.31-.31-.48-.73-.48-1.17s.17-.86.48-1.17l1.12-1.12-1.12-1.12c-.65-.65-.65-1.7,0-2.34.31-.31.73-.48,1.17-.48s.86.17,1.17.48l1.12,1.12,1.12-1.12c.65-.65,1.7-.65,2.34,0,.65.65.65,1.7,0,2.34l-1.12,1.12,1.12,1.12c.65.65.65,1.7,0,2.34-.31.31-.73.48-1.17.48h0Zm-2.29-1.71l1.17,1.17c.3.3.69.46,1.12.46s.82-.16,1.12-.46c.61-.61.61-1.62,0-2.23l-1.17-1.17,1.17-1.17c.61-.61.61-1.62,0-2.23s-1.62-.61-2.23,0l-1.17,1.17-1.17-1.17c-.61-.61-1.62-.61-2.23,0-.61.61-.61,1.62,0,2.23l1.17,1.17-1.17,1.17c-.3.3-.46.69-.46,1.12s.16.82.46,1.12h0c.3.3.69.46,1.12.46s.82-.16,1.12-.46l1.17-1.17h0Z"/>
      </g>
      <g>
        <path class="cls-1" d="m27.89,88.56c-2.67,0-4.85,2.18-4.85,4.85s2.18,4.85,4.85,4.85,4.85-2.18,4.85-4.85-2.18-4.85-4.85-4.85Zm0,6.47c-.89,0-1.62-.73-1.62-1.62s.73-1.62,1.62-1.62,1.62.73,1.62,1.62-.73,1.62-1.62,1.62Z"/>
        <path class="cls-1" d="m27.89,98.31c-2.7,0-4.89-2.19-4.89-4.89s2.19-4.89,4.89-4.89,4.89,2.19,4.89,4.89-2.19,4.89-4.89,4.89Zm0-9.7c-2.65,0-4.81,2.16-4.81,4.81s2.16,4.81,4.81,4.81,4.81-2.16,4.81-4.81-2.16-4.81-4.81-4.81Zm0,6.47c-.91,0-1.66-.74-1.66-1.66s.74-1.66,1.66-1.66,1.66.74,1.66,1.66-.74,1.66-1.66,1.66Zm0-3.23c-.87,0-1.58.71-1.58,1.58s.71,1.58,1.58,1.58,1.58-.71,1.58-1.58-.71-1.58-1.58-1.58h0Z"/>
      </g>
      <g>
        <path class="cls-1" d="m47.93,8.88c-2.67,0-4.85,2.18-4.85,4.85s2.18,4.85,4.85,4.85,4.85-2.18,4.85-4.85-2.18-4.85-4.85-4.85Zm0,6.47c-.89,0-1.62-.73-1.62-1.62s.73-1.62,1.62-1.62,1.62.73,1.62,1.62-.73,1.62-1.62,1.62Z"/>
        <path class="cls-1" d="m47.93,18.62c-2.7,0-4.89-2.19-4.89-4.89s2.19-4.89,4.89-4.89,4.89,2.19,4.89,4.89-2.19,4.89-4.89,4.89Zm0-9.7c-2.65,0-4.81,2.16-4.81,4.81s2.16,4.81,4.81,4.81,4.81-2.16,4.81-4.81-2.16-4.81-4.81-4.81Zm0,6.47c-.91,0-1.66-.74-1.66-1.66s.74-1.66,1.66-1.66,1.66.74,1.66,1.66-.74,1.66-1.66,1.66Zm0-3.23c-.87,0-1.58.71-1.58,1.58s.71,1.58,1.58,1.58,1.58-.71,1.58-1.58-.71-1.58-1.58-1.58Z"/>
      </g>
      <g>
        <path class="cls-1" d="m59.25,118.27C26.71,118.27.23,91.8.23,59.25S26.71.23,59.25.23s59.02,26.48,59.02,59.02-26.48,59.02-59.02,59.02Zm0-114.73c-30.72,0-55.71,24.99-55.71,55.71s24.99,55.71,55.71,55.71,55.71-24.99,55.71-55.71S89.97,3.55,59.25,3.55Z"/>
        <path class="cls-1" d="m59.25,118.33C26.68,118.33.17,91.83.17,59.25S26.68.17,59.25.17s59.08,26.5,59.08,59.08-26.5,59.08-59.08,59.08ZM59.25.29C26.74.29.29,26.74.29,59.25s26.45,58.96,58.96,58.96,58.96-26.45,58.96-58.96S91.77.29,59.25.29Zm0,114.73c-30.75,0-55.76-25.02-55.76-55.76S28.5,3.49,59.25,3.49s55.76,25.02,55.76,55.76-25.02,55.76-55.76,55.76h0Zm0-111.41c-30.68,0-55.65,24.96-55.65,55.65s24.96,55.65,55.65,55.65,55.65-24.96,55.65-55.65S89.94,3.61,59.25,3.61h0Z"/>
      </g>
      <g>
        <path class="cls-1" d="m59.25,109.69c-7.76,0-15.2-1.72-22.12-5.1-.82-.4-1.16-1.4-.76-2.22.4-.82,1.4-1.16,2.22-.76,6.46,3.16,13.42,4.76,20.66,4.76,17.95,0,34.6-10.44,42.43-26.6.4-.82,1.39-1.17,2.22-.77.82.4,1.17,1.39.77,2.22-8.38,17.29-26.21,28.47-45.42,28.47h0Z"/>
        <path class="cls-1" d="m59.25,109.75c-7.77,0-15.22-1.72-22.15-5.1-.85-.42-1.2-1.45-.79-2.3.42-.85,1.45-1.2,2.3-.79,6.45,3.15,13.4,4.75,20.64,4.75,17.92,0,34.56-10.43,42.38-26.57.2-.41.55-.72.98-.87s.9-.12,1.31.08c.41.2.72.55.87.98.15.43.12.9-.08,1.31-8.39,17.31-26.24,28.5-45.47,28.5h0Zm-21.39-8.24c-.59,0-1.16.33-1.44.9-.39.79-.06,1.75.73,2.14,6.91,3.38,14.35,5.09,22.1,5.09,19.19,0,36.99-11.16,45.36-28.44.19-.38.21-.82.07-1.22s-.43-.73-.81-.91c-.38-.19-.82-.21-1.22-.07s-.73.43-.91.81c-7.84,16.18-24.52,26.63-42.49,26.63-7.26,0-14.22-1.6-20.69-4.77-.23-.11-.46-.16-.7-.16h0Z"/>
      </g>
      <g>
        <path class="cls-1" d="m108.04,60.91c-.92,0-1.66-.74-1.66-1.66,0-25.98-21.14-47.12-47.12-47.12-.92,0-1.66-.74-1.66-1.66s.74-1.66,1.66-1.66c27.81,0,50.44,22.63,50.44,50.44,0,.92-.74,1.66-1.66,1.66h0Z"/>
        <path class="cls-1" d="m108.04,60.97c-.95,0-1.72-.77-1.72-1.72,0-25.95-21.11-47.06-47.06-47.06-.95,0-1.72-.77-1.72-1.72s.77-1.72,1.72-1.72c27.85,0,50.5,22.65,50.5,50.5,0,.95-.77,1.72-1.72,1.72h0ZM59.25,8.87c-.88,0-1.6.72-1.6,1.6s.72,1.6,1.6,1.6c26.02,0,47.18,21.17,47.18,47.18,0,.88.72,1.6,1.6,1.6s1.6-.72,1.6-1.6c0-27.78-22.6-50.38-50.38-50.38h0Z"/>
      </g>
      <g>
        <path class="cls-1" d="m17.88,86.77c-.55,0-1.09-.28-1.41-.78-5.01-8-7.66-17.25-7.66-26.74,0-18.32,9.96-35.22,25.98-44.13.8-.45,1.81-.16,2.25.64.44.8.16,1.81-.64,2.25-14.98,8.32-24.28,24.11-24.28,41.23,0,8.87,2.47,17.5,7.16,24.98.49.78.25,1.8-.53,2.28-.27.17-.58.25-.88.25h0Z"/>
        <path class="cls-1" d="m17.88,86.83c-.6,0-1.14-.3-1.46-.81-5.02-8.01-7.67-17.27-7.67-26.77,0-18.34,9.97-35.26,26.02-44.18.83-.46,1.88-.16,2.34.67.46.83.16,1.88-.67,2.34-14.96,8.31-24.25,24.08-24.25,41.18,0,8.86,2.47,17.48,7.15,24.95.24.39.32.85.22,1.3-.1.45-.37.83-.76,1.07-.27.17-.59.26-.91.26h0ZM35.6,14.98c-.26,0-.53.06-.77.2-16.01,8.89-25.95,25.78-25.95,44.07,0,9.48,2.65,18.71,7.65,26.71.29.47.8.75,1.36.75.3,0,.59-.09.85-.24.36-.23.61-.58.71-1s.02-.84-.2-1.21c-4.69-7.48-7.17-16.13-7.17-25.01,0-17.13,9.31-32.95,24.31-41.28.77-.43,1.05-1.4.62-2.17-.29-.53-.84-.82-1.4-.82h0Z"/>
      </g>
      <g>
        <path class="cls-1" d="m86.81,62.8c.89,0,1.62-.72,1.62-1.62v-4.85c0-.89-.72-1.62-1.62-1.62s-1.62.72-1.62,1.62v4.85c0,.89.72,1.62,1.62,1.62Z"/>
        <path class="cls-1" d="m86.81,62.84c-.91,0-1.66-.74-1.66-1.66v-4.85c0-.91.74-1.66,1.66-1.66s1.66.74,1.66,1.66v4.85c0,.91-.74,1.66-1.66,1.66Zm0-8.09c-.87,0-1.58.71-1.58,1.58v4.85c0,.87.71,1.58,1.58,1.58s1.58-.71,1.58-1.58v-4.85c0-.87-.71-1.58-1.58-1.58Z"/>
      </g>
      <g>
        <path class="cls-1" d="m86.81,66.03c-.89,0-1.62.72-1.62,1.62v4.85c0,.89.72,1.62,1.62,1.62s1.62-.72,1.62-1.62v-4.85c0-.89-.72-1.62-1.62-1.62Z"/>
        <path class="cls-1" d="m86.81,74.16c-.91,0-1.66-.74-1.66-1.66v-4.85c0-.91.74-1.66,1.66-1.66s1.66.74,1.66,1.66v4.85c0,.91-.74,1.66-1.66,1.66Zm0-8.09c-.87,0-1.58.71-1.58,1.58v4.85c0,.87.71,1.58,1.58,1.58s1.58-.71,1.58-1.58v-4.85c0-.87-.71-1.58-1.58-1.58Z"/>
      </g>
      <g>
        <path class="cls-1" d="m78.73,66.03h4.85c.89,0,1.62-.72,1.62-1.62s-.72-1.62-1.62-1.62h-4.85c-.89,0-1.62.72-1.62,1.62s.72,1.62,1.62,1.62Z"/>
        <path class="cls-1" d="m83.58,66.07h-4.85c-.91,0-1.66-.74-1.66-1.66s.74-1.66,1.66-1.66h4.85c.91,0,1.66.74,1.66,1.66s-.74,1.66-1.66,1.66Zm-4.85-3.23c-.87,0-1.58.71-1.58,1.58s.71,1.58,1.58,1.58h4.85c.87,0,1.58-.71,1.58-1.58s-.71-1.58-1.58-1.58h-4.85Z"/>
      </g>
      <g>
        <path class="cls-1" d="m90.05,66.03h4.85c.89,0,1.62-.72,1.62-1.62s-.72-1.62-1.62-1.62h-4.85c-.89,0-1.62.72-1.62,1.62s.72,1.62,1.62,1.62Z"/>
        <path class="cls-1" d="m94.9,66.07h-4.85c-.91,0-1.66-.74-1.66-1.66s.74-1.66,1.66-1.66h4.85c.91,0,1.66.74,1.66,1.66s-.74,1.66-1.66,1.66Zm-4.85-3.23c-.87,0-1.58.71-1.58,1.58s.71,1.58,1.58,1.58h4.85c.87,0,1.58-.71,1.58-1.58s-.71-1.58-1.58-1.58h-4.85Z"/>
      </g>
      <g>
        <path class="cls-1" d="m76,83.12c-.51,0-.92.41-.92.92v2.45c0,.51.41.92.92.92s.92-.41.92-.92v-2.45c0-.51-.41-.92-.92-.92Z"/>
        <path class="cls-1" d="m76,87.48c-.54,0-.98-.44-.98-.98v-2.45c0-.54.44-.98.98-.98s.98.44.98.98v2.45c0,.54-.44.98-.98.98Zm0-4.3c-.48,0-.86.39-.86.86v2.45c0,.48.39.86.86.86s.86-.39.86-.86v-2.45c0-.48-.39-.86-.86-.86Z"/>
      </g>
      <g>
        <path class="cls-1" d="m76,89.71c-.51,0-.92.41-.92.92v2.45c0,.51.41.92.92.92s.92-.41.92-.92v-2.45c0-.51-.41-.92-.92-.92Z"/>
        <path class="cls-1" d="m76,94.07c-.54,0-.98-.44-.98-.98v-2.45c0-.54.44-.98.98-.98s.98.44.98.98v2.45c0,.54-.44.98-.98.98Zm0-4.3c-.48,0-.86.39-.86.86v2.45c0,.48.39.86.86.86s.86-.39.86-.86v-2.45c0-.48-.39-.86-.86-.86Z"/>
      </g>
      <g>
        <path class="cls-1" d="m80.52,87.64h-2.45c-.51,0-.92.41-.92.92s.41.92.92.92h2.45c.51,0,.92-.41.92-.92s-.41-.92-.92-.92Z"/>
        <path class="cls-1" d="m80.52,89.55h-2.45c-.54,0-.98-.44-.98-.98s.44-.98.98-.98h2.45c.54,0,.98.44.98.98s-.44.98-.98.98Zm-2.45-1.85c-.48,0-.86.39-.86.86s.39.86.86.86h2.45c.48,0,.86-.39.86-.86s-.39-.86-.86-.86h-2.45Z"/>
      </g>
      <g>
        <path class="cls-1" d="m73.93,87.64h-2.45c-.51,0-.92.41-.92.92s.41.92.92.92h2.45c.51,0,.92-.41.92-.92s-.41-.92-.92-.92Z"/>
        <path class="cls-1" d="m73.93,89.55h-2.45c-.54,0-.98-.44-.98-.98s.44-.98.98-.98h2.45c.54,0,.98.44.98.98s-.44.98-.98.98Zm-2.45-1.85c-.48,0-.86.39-.86.86s.39.86.86.86h2.45c.48,0,.86-.39.86-.86s-.39-.86-.86-.86h-2.45Z"/>
      </g>
      <g>
        <g>
          <path class="cls-1" d="m73.41,53.8c-.51-.1-1,.22-1.11.73-.35,1.69-1.48,2.98-3.58,4.05-.73.38-1.56.71-2.45,1.01.33-.59.58-1.28.74-2.08.42-2.06.02-3.72-1.2-4.91-1.51-1.47-4.2-2.12-7.99-1.92-2.59.13-4.78.62-5.05.68-2.99.53-5.55.76-7.75.76-8.93,0-11.89-3.69-12.82-5.57-.84-1.7-1-3.68-.45-5.72.54-2.02,1.77-3.98,3.46-5.52.38-.35.41-.94.06-1.32-.35-.38-.94-.41-1.32-.06-1.95,1.78-3.37,4.06-4,6.41-.67,2.49-.47,4.92.58,7.04,1.31,2.66,3.88,4.62,7.42,5.68,3.97,1.18,9.08,1.23,15.18.15.02,0,.03,0,.05,0,2.37-.55,9.04-1.48,11.33.75.75.73.97,1.77.68,3.19-.61,2.94-2.71,4.09-7.75,4.22-.52.01-.92.44-.91.96.01.51.43.91.93.91h.03c1.51-.04,3-.16,4.34-.5,5.78-1.28,11.32-3.03,12.31-7.82.1-.51-.22-1-.73-1.11h0Z"/>
          <path class="cls-1" d="m57.47,63.38c-.6,0-1.08-.47-1.09-1.06,0-.29.1-.57.3-.78s.47-.33.76-.34c4.96-.13,7.02-1.24,7.6-4.09.28-1.36.07-2.36-.63-3.05-2.24-2.19-8.83-1.26-11.19-.71-.02,0-.04,0-.06.01-6.12,1.09-11.26,1.04-15.25-.15-3.59-1.07-6.19-3.06-7.52-5.76-1.06-2.15-1.27-4.62-.59-7.15.64-2.38,2.08-4.69,4.05-6.49.21-.2.5-.3.79-.29.29.01.56.14.76.35s.3.49.29.79-.14.56-.35.76c-1.66,1.52-2.87,3.46-3.41,5.45-.54,2-.39,3.94.44,5.61.81,1.65,3.68,5.48,12.68,5.48,2.32,0,4.91-.25,7.72-.75.24-.05,2.46-.55,5.07-.68,3.84-.2,6.56.46,8.11,1.96,1.26,1.23,1.68,2.93,1.25,5.05-.13.64-.33,1.23-.58,1.77.79-.28,1.46-.57,2.05-.87,2.05-1.05,3.16-2.3,3.49-3.94.06-.29.23-.53.47-.69s.54-.22.82-.16c.59.12.97.7.85,1.29-1.03,5.01-6.96,6.73-12.43,7.94-1.16.29-2.55.45-4.37.5h-.03Zm1.62-11.02c2.22,0,4.41.35,5.55,1.46.79.77,1.02,1.86.72,3.34-.62,3.03-2.77,4.21-7.91,4.35-.21,0-.4.09-.54.24-.14.15-.22.35-.21.56.01.42.35.76.78.76h.02c1.79-.05,3.16-.2,4.3-.49,5.38-1.2,11.2-2.87,12.19-7.7.09-.42-.19-.83-.61-.92h0c-.2-.04-.41,0-.58.11-.17.11-.29.29-.33.49-.36,1.74-1.52,3.07-3.66,4.16-.7.36-1.5.69-2.47,1.02l-.39.13.2-.36c.33-.6.57-1.28.73-2.04.41-2.01.02-3.61-1.16-4.76-1.48-1.44-4.12-2.07-7.87-1.88-2.58.13-4.78.62-5.02.67-2.84.5-5.45.76-7.79.76-8.85,0-11.92-3.54-12.96-5.66-.86-1.74-1.02-3.76-.46-5.83.55-2.05,1.8-4.03,3.5-5.6.15-.14.24-.33.25-.54,0-.21-.06-.41-.2-.56-.14-.15-.33-.24-.54-.25-.21,0-.41.06-.56.2-1.92,1.76-3.33,4.01-3.95,6.34-.66,2.45-.46,4.84.56,6.92,1.29,2.62,3.83,4.55,7.33,5.59,3.95,1.18,9.03,1.23,15.11.14.01,0,.03,0,.04,0,1.23-.28,3.6-.67,5.93-.67h0Z"/>
        </g>
        <g>
          <path class="cls-1" d="m74.65,42.53c-2.47-.32-5.23-.48-8.2-.48-2.69,0-5.37.2-7.96.39-3.47.26-7.02.52-8.99.05-.06-.02-.11-.03-.17-.04-.52-.14-.91-.35-1.15-.62-.1-.12-.4-.48-.12-1.52.88-3.33,5.25-4.89,8.76-5.61,4-.82,7.83-.76,7.87-.76.45,0,.84-.3.93-.74s-.14-.88-.56-1.06c-.16-.07-4-1.63-9.31-2.51-4.94-.82-12.13-1.15-18.28,1.91-.46.23-.65.79-.42,1.25s.79.65,1.25.42c5.69-2.83,12.44-2.51,17.1-1.75,1.54.25,2.97.57,4.21.89-4.99.59-12,2.33-13.36,7.48-.18.68-.22,1.3-.12,1.85-1.67-.74-3.02-2.14-3.02-4.92,0-.52-.42-.94-.94-.94s-.94.42-.94.94c0,5.5,4.25,7.14,7.82,7.55.98.24,2.17.33,3.52.33,1.77,0,3.82-.15,6.06-.32,2.56-.19,5.21-.39,7.83-.39,2.89,0,5.57.16,7.96.47.51.06.98-.3,1.05-.81s-.3-.98-.81-1.05h0Z"/>
          <path class="cls-1" d="m52.57,44.79c-1.47,0-2.63-.11-3.55-.33-3.63-.41-7.95-2.09-7.95-7.7,0-.6.49-1.09,1.09-1.09s1.09.49,1.09,1.09c0,2.24.88,3.76,2.67,4.66-.04-.5.01-1.04.17-1.63,1.29-4.86,7.42-6.76,12.66-7.49-1.13-.27-2.26-.5-3.38-.69-4.64-.76-11.35-1.08-17.01,1.73-.26.13-.56.15-.83.06s-.5-.29-.63-.55c-.27-.54-.05-1.2.49-1.47,6.19-3.08,13.41-2.75,18.38-1.93,5.34.88,9.18,2.46,9.35,2.52.48.2.76.72.65,1.23-.11.51-.56.88-1.09.87-.41,0-4.03-.02-7.83.76-3.47.71-7.78,2.24-8.64,5.5-.26.96,0,1.28.09,1.38.2.24.55.43,1.06.57.06.01.12.03.18.05,1.95.46,5.5.2,8.93-.06,2.6-.19,5.28-.39,7.98-.39,2.98,0,5.75.16,8.22.48.29.04.55.19.73.42.18.23.26.52.22.81-.08.6-.63,1.02-1.23.94-2.38-.31-5.05-.46-7.94-.46-2.61,0-5.25.2-7.81.39-2.22.16-4.3.32-6.08.32h0Zm-10.41-8.81c-.43,0-.78.35-.78.78,0,5.39,4.18,6.99,7.68,7.39h.02c.89.22,2.03.33,3.48.33,1.77,0,3.84-.16,6.05-.32,2.57-.19,5.22-.39,7.84-.39,2.9,0,5.59.16,7.98.47.42.05.82-.25.87-.67.03-.21-.03-.41-.16-.57s-.31-.27-.52-.3h0c-2.46-.32-5.21-.48-8.18-.48-2.68,0-5.36.2-7.95.39-3.47.26-7.05.52-9.04.05h-.02s-.09-.03-.14-.04h-.02c-.58-.16-.98-.39-1.23-.68-.11-.13-.45-.54-.15-1.66.9-3.41,5.33-5,8.88-5.73,3.84-.79,7.49-.77,7.9-.76.38.01.71-.25.78-.62.08-.37-.12-.73-.46-.88-.16-.07-3.98-1.63-9.28-2.5-4.92-.81-12.07-1.14-18.19,1.9-.38.19-.54.66-.35,1.04.09.19.25.32.45.39.2.07.41.05.59-.04,5.73-2.85,12.51-2.53,17.2-1.76,1.39.23,2.81.53,4.22.9l.82.21-.84.1c-5.31.62-11.91,2.41-13.23,7.36-.17.65-.21,1.25-.12,1.78l.05.29-.27-.12c-2.07-.92-3.12-2.62-3.12-5.07,0-.43-.35-.78-.78-.78h0Z"/>
        </g>
        <g>
          <path class="cls-1" d="m81.33,70.2c-.12-.5-.62-.81-1.13-.7-1.2.28-2.47.43-3.77.43-4.7,0-8.93,0-11.7,1.3-2.96.99-6.46,3.18-7.49,6.41-.16.49.11,1.02.61,1.18.09.03.19.04.29.04.4,0,.76-.25.89-.65.32-1.01,1.15-2.22,2.59-3.31-.31,1.37-.16,3.02.46,5.01.61,1.96.48,3.72-.4,5.26-1.37,2.39-4.24,3.79-6.05,4.46.68-2.95.27-5.65-1.2-7.74-1.8-2.57-5.06-3.99-9.18-3.99-2.13,0-3.99-.56-5.37-1.62-1.22-.93-2.05-2.25-2.34-3.71-.3-1.49-.03-3.06.76-4.43.88-1.54,2.37-2.78,4.31-3.58,1.41-.58,3.05-.96,5.01-1.16.51-.05.89-.51.84-1.03-.05-.51-.51-.89-1.03-.84-2.15.22-3.96.64-5.54,1.3-5.23,2.17-6.88,6.63-6.19,10.1.38,1.91,1.46,3.62,3.04,4.83,1.71,1.31,3.96,2,6.51,2,3.49,0,6.2,1.13,7.65,3.19,1.39,1.98,1.55,4.74.45,7.77-.12.32-.05.68.18.94.18.2.43.31.7.31.07,0,.14,0,.21-.02.26-.06,6.37-1.52,8.85-5.86,1.15-2,1.34-4.28.56-6.75-.75-2.39-.71-4.1.11-5.22.36-.5.89-.88,1.54-1.19,0,0,0,0,0,0,2.41-1.13,6.57-1.13,10.92-1.13,1.45,0,2.86-.16,4.2-.48.5-.12.81-.62.7-1.13h0Z"/>
          <path class="cls-1" d="m54.23,92.14c-.31,0-.61-.13-.82-.37-.27-.3-.35-.72-.21-1.1,1.08-2.98.92-5.69-.43-7.62-1.41-2.01-4.08-3.12-7.52-3.12-2.58,0-4.86-.7-6.6-2.03-1.61-1.23-2.71-2.98-3.09-4.92-.7-3.53.97-8.08,6.28-10.28,1.6-.66,3.42-1.09,5.58-1.31.6-.06,1.14.38,1.2.98.03.29-.06.58-.24.8s-.45.37-.74.4c-1.95.2-3.57.57-4.97,1.15-1.9.79-3.37,2-4.23,3.51-.77,1.34-1.03,2.87-.74,4.32.28,1.42,1.09,2.71,2.28,3.61,1.35,1.04,3.18,1.58,5.27,1.58,4.17,0,7.48,1.44,9.31,4.05,1.44,2.06,1.89,4.67,1.28,7.58,1.68-.66,4.4-2.02,5.7-4.29.85-1.49.98-3.22.38-5.13-.57-1.82-.75-3.36-.54-4.67-1.47,1.21-2,2.36-2.2,2.97-.15.46-.56.76-1.04.76-.11,0-.23-.02-.33-.05-.28-.09-.51-.28-.64-.54-.13-.26-.16-.56-.07-.83,1.05-3.28,4.6-5.51,7.58-6.51,2.81-1.31,6.96-1.31,11.76-1.31,1.29,0,2.55-.14,3.74-.42.28-.07.58-.02.83.13.25.15.42.39.49.68.07.28.02.58-.13.83-.15.25-.39.42-.68.49-1.35.32-2.78.48-4.24.48-4.36,0-8.47,0-10.85,1.11-.67.31-1.16.69-1.49,1.15-.79,1.08-.82,2.74-.09,5.08.79,2.52.6,4.83-.57,6.88-2.52,4.4-8.69,5.87-8.96,5.93-.08.02-.16.03-.25.03h0Zm-6.7-30.45s-.05,0-.08,0c-2.13.22-3.93.64-5.49,1.28-5.15,2.13-6.77,6.52-6.09,9.92.37,1.87,1.43,3.55,2.98,4.73,1.68,1.29,3.9,1.97,6.41,1.97,3.54,0,6.3,1.16,7.78,3.26,1.42,2.02,1.59,4.83.47,7.91-.1.27-.04.57.15.78.19.21.48.31.76.24.26-.06,6.3-1.5,8.75-5.78,1.12-1.96,1.31-4.19.55-6.62-.77-2.44-.72-4.2.13-5.36.37-.5.89-.91,1.6-1.24,2.45-1.15,6.6-1.15,10.99-1.15,1.43,0,2.84-.16,4.17-.47.2-.05.37-.17.48-.35s.14-.38.09-.59h0c-.05-.2-.17-.37-.35-.48s-.38-.14-.59-.09c-1.21.29-2.5.43-3.81.43-4.77,0-8.89,0-11.64,1.28h-.02c-2.91.98-6.37,3.15-7.39,6.32-.06.2-.05.41.05.59.09.19.26.32.45.38.08.02.16.04.24.04.34,0,.64-.22.74-.54.38-1.18,1.32-2.39,2.64-3.39l.35-.26-.1.42c-.31,1.35-.16,2.96.46,4.93.63,2,.49,3.81-.41,5.38-1.42,2.49-4.45,3.91-6.13,4.53l-.28.1.07-.29c.67-2.93.27-5.57-1.17-7.61-1.77-2.53-4.99-3.92-9.05-3.92-2.16,0-4.05-.57-5.46-1.65-1.25-.95-2.1-2.3-2.4-3.8-.3-1.52-.03-3.14.78-4.54.9-1.57,2.42-2.83,4.39-3.65,1.43-.59,3.08-.97,5.06-1.17.21-.02.39-.12.52-.28s.19-.36.17-.57c-.04-.4-.38-.7-.77-.7h0Z"/>
        </g>
        <g>
          <path class="cls-1" d="m88.49,37.44l-2.23-.45c-1.83-.37-3.25-1.79-3.62-3.62l-.45-2.23c-.18-.91-.96-1.54-1.88-1.54s-1.7.63-1.88,1.54l-.45,2.23c-.37,1.83-1.79,3.25-3.62,3.62l-2.23.45c-.91.18-1.54.96-1.54,1.88s.63,1.7,1.54,1.88l2.23.45c1.83.37,3.25,1.79,3.62,3.62l.45,2.23c.18.91.96,1.54,1.88,1.54s1.7-.63,1.88-1.54l.45-2.23c.37-1.83,1.79-3.25,3.62-3.62l2.23-.45c.91-.18,1.54-.96,1.54-1.88s-.63-1.7-1.54-1.88Zm-.34,1.92s-.01,0-.03.01l-2.23.45c-2.57.52-4.57,2.52-5.09,5.09l-.45,2.23s0,.03,0,.03c-.02.01-.06.01-.08,0,0,0,0-.01-.01-.03l-.45-2.23c-.52-2.57-2.52-4.57-5.09-5.09l-2.23-.45s-.03,0-.03,0h0s-.01-.06,0-.08c0,0,.01,0,.03-.01l2.23-.45c2.57-.52,4.57-2.52,5.09-5.09l.45-2.23s0-.03,0-.03c.02-.01.06-.01.08,0,0,0,0,.01.01.03l.45,2.23c.52,2.57,2.52,4.57,5.09,5.09l2.23.45s.03,0,.03,0c.01.02.01.06,0,.08h0Z"/>
          <path class="cls-1" d="m80.31,49.12c-.96,0-1.77-.66-1.96-1.6l-.45-2.23c-.36-1.8-1.76-3.2-3.56-3.56l-2.23-.45c-.94-.19-1.6-1-1.6-1.96s.66-1.77,1.6-1.96l2.23-.45c1.8-.36,3.2-1.76,3.56-3.56l.45-2.23c.19-.94,1-1.6,1.96-1.6s1.77.66,1.96,1.6l.45,2.23c.36,1.8,1.76,3.2,3.56,3.56l2.23.45c.94.19,1.6,1,1.6,1.96s-.66,1.77-1.6,1.96l-2.23.45c-1.8.36-3.2,1.76-3.56,3.56l-.45,2.23c-.19.94-1,1.6-1.96,1.6Zm0-19.45c-.89,0-1.63.61-1.8,1.48l-.45,2.23c-.38,1.86-1.82,3.31-3.69,3.69l-2.23.45c-.87.18-1.48.92-1.48,1.8s.61,1.63,1.48,1.8l2.23.45c1.86.38,3.31,1.82,3.69,3.69l.45,2.23c.18.87.92,1.48,1.8,1.48s1.63-.61,1.8-1.48l.45-2.23c.38-1.86,1.83-3.31,3.69-3.69l2.23-.45c.87-.18,1.48-.92,1.48-1.8s-.61-1.63-1.48-1.8l-2.23-.45c-1.86-.38-3.31-1.83-3.69-3.69l-.45-2.23c-.18-.87-.92-1.48-1.8-1.48h0Zm0,17.58s-.06,0-.08-.02l-.02-.02s-.02-.04-.02-.06l-.45-2.23c-.51-2.54-2.49-4.51-5.02-5.02l-2.23-.45s-.02,0-.03,0h-.03l-.02-.03s-.03-.12,0-.17l.02-.02s.04-.02.06-.02l2.23-.45c2.54-.51,4.51-2.49,5.02-5.02l.45-2.23s.01-.04.01-.04v-.02s.03-.02.03-.02c.04-.03.12-.03.16,0l.02.02s.02.05.02.06l.45,2.23c.51,2.54,2.49,4.51,5.02,5.02l2.23.45h0l.03-.02.04.06s.03.12,0,.16l-.02.02s-.05.02-.06.02l-2.23.45c-2.54.51-4.51,2.49-5.02,5.02l-.45,2.22.03.04-.07.05s-.06.02-.09.02h0Zm-7.65-7.93l2.08.42c2.6.53,4.62,2.55,5.15,5.15l.42,2.08.42-2.08c.53-2.6,2.55-4.62,5.15-5.15l2.08-.42-2.08-.42c-2.6-.53-4.62-2.55-5.15-5.15l-.42-2.08-.42,2.08c-.53,2.6-2.55,4.62-5.15,5.15l-2.08.42h0Z"/>
        </g>
        <g>
          <path class="cls-1" d="m60.54,65.27l-2.23-.45c-1.83-.37-3.25-1.79-3.62-3.62l-.45-2.23c-.18-.91-.96-1.54-1.88-1.54s-1.7.63-1.88,1.54l-.45,2.23c-.37,1.83-1.79,3.25-3.62,3.62l-2.23.45c-.91.18-1.54.96-1.54,1.88s.63,1.7,1.54,1.88l2.23.45c1.83.37,3.25,1.79,3.62,3.62l.45,2.23c.18.91.96,1.54,1.88,1.54s1.7-.63,1.88-1.54l.45-2.23c.37-1.83,1.79-3.25,3.62-3.62l2.23-.45c.91-.18,1.54-.96,1.54-1.88s-.63-1.7-1.54-1.88h0Zm-.34,1.92s-.01,0-.03.01l-2.23.45c-2.57.52-4.57,2.52-5.09,5.09l-.45,2.23s0,.03,0,.03c-.02.01-.06.01-.08,0,0,0,0-.01-.01-.03l-.45-2.23c-.52-2.57-2.52-4.57-5.09-5.09l-2.23-.45s-.03,0-.03,0h0s-.01-.06,0-.08c0,0,.01,0,.03-.01l2.23-.45c2.57-.52,4.57-2.52,5.09-5.09l.45-2.23s0-.03,0-.03c.02-.01.06-.01.08,0,0,0,0,.01.01.03l.45,2.23c.52,2.57,2.52,4.57,5.09,5.09l2.23.45s.03,0,.03,0c.01.02.01.06,0,.08h0Z"/>
          <path class="cls-1" d="m52.36,77.03c-1,0-1.84-.68-2.04-1.67l-.45-2.23c-.36-1.77-1.73-3.14-3.5-3.5l-2.23-.45c-.98-.2-1.67-1.04-1.67-2.04s.68-1.84,1.67-2.04l2.23-.45c1.77-.36,3.14-1.73,3.5-3.5l.45-2.23c.2-.98,1.04-1.67,2.04-1.67s1.84.68,2.04,1.67l.45,2.23c.36,1.77,1.73,3.14,3.5,3.5l2.23.45c.98.2,1.67,1.04,1.67,2.04s-.68,1.84-1.67,2.04l-2.23.45c-1.77.36-3.14,1.73-3.5,3.5l-.45,2.23c-.2.98-1.04,1.67-2.04,1.67Zm0-19.45c-.85,0-1.56.58-1.73,1.41l-.45,2.23c-.38,1.89-1.85,3.36-3.75,3.75l-2.23.45c-.83.17-1.41.88-1.41,1.73s.58,1.56,1.41,1.73l2.23.45c1.89.38,3.36,1.85,3.75,3.75l.45,2.23c.17.83.88,1.41,1.73,1.41s1.56-.58,1.73-1.41l.45-2.23c.38-1.89,1.85-3.36,3.75-3.75l2.23-.45c.83-.17,1.41-.88,1.41-1.73s-.58-1.56-1.41-1.73l-2.23-.45c-1.89-.38-3.36-1.85-3.75-3.75l-.45-2.23c-.17-.83-.88-1.41-1.73-1.41Zm0,17.58s-.09-.01-.12-.03l-.03-.02-.02-.02s-.03-.05-.04-.09l-.45-2.23c-.51-2.51-2.46-4.45-4.96-4.96l-2.23-.45s-.01,0-.02,0h-.06l-.05-.07c-.05-.07-.05-.19,0-.26l.02-.03.03-.02s.05-.03.09-.03l2.23-.45c2.51-.51,4.45-2.46,4.96-4.96l.44-2.19-.05-.07.13-.09c.07-.05.19-.05.25,0l.03.02.02.03s.03.05.04.09l.45,2.23c.51,2.51,2.46,4.45,4.96,4.96l2.16.44.07-.09.12.18c.05.07.05.18,0,.25l-.02.03-.03.02s-.06.03-.09.04l-2.23.45c-2.51.51-4.45,2.46-4.96,4.96l-.44,2.19.05.07-.13.09s-.09.04-.14.04h0Zm-7.25-8.01l1.7.34c2.63.53,4.68,2.58,5.21,5.21l.34,1.7.34-1.7c.53-2.63,2.58-4.68,5.21-5.21l1.7-.34-1.7-.34c-2.63-.53-4.68-2.58-5.21-5.21l-.34-1.7-.34,1.7c-.53,2.63-2.58,4.68-5.21,5.21l-1.7.34Z"/>
        </g>
      </g>
    </g>
  </g>
</svg>