<?xml version="1.0" encoding="UTF-8"?>
<svg id="Capa_2" data-name="Capa 2" xmlns="http://www.w3.org/2000/svg" xmlns:xlink="http://www.w3.org/1999/xlink" viewBox="0 0 162.08 137.15">
  <defs>
    <style>
      .cls-1 {
        fill: url(#Degradado_sin_nombre_336);
        stroke-width: 0px;
      }
    </style>
    <linearGradient id="Degradado_sin_nombre_336" data-name="Degradado sin nombre 336" x1="0" y1="68.57" x2="162.08" y2="68.57" gradientUnits="userSpaceOnUse">
      <stop offset="0" stop-color="#dc1a4d"/>
      <stop offset=".42" stop-color="#8e2867"/>
      <stop offset=".82" stop-color="#4c347d"/>
      <stop offset="1" stop-color="#333986"/>
    </linearGradient>
  </defs>
  <g id="Capa_1-2" data-name="Capa 1">
    <path class="cls-1" d="m162.02,59.46c0-.05.01-.1,0-.15-.32-6.75-5.56-13.38-9.39-18.23-.93-1.18-1.82-2.3-2.49-3.24-4.42-23.67-25.15-25.73-31.99-26.41-.28-.03-.54-.05-.77-.08C110.74.12,92.24-.21,88.52.05c-5.23.38-12.6,4.19-11.47,4.11-3.12-1.58-11.81-5.26-20.86-2.7-6.22,1.76-11.38,6.05-15.32,12.75-13.41,1.99-27.7,7.57-33.89,31.86-1.63,1.56-6.03,6.29-6.84,12.7-.06.46-.25,3.33-.03,5.09,1.52,19.46,14.25,30.31,35.89,30.62,10.21,11.58,23.11,15.16,38.36,10.65,2.75,4.64,7.33,6.56,9.3,7.19.32.1.65.15.98.15.13,0,.27-.01.4-.03.37.5.91.86,1.57.98,4.37.8,22.16,6.86,29.23,21.87.54,1.15,1.66,1.84,2.89,1.84.17,0,.35-.01.52-.04,1.43-.23,2.51-1.35,2.69-2.78.6-4.82,1.34-13.4.15-19.9.27-.02.55-.05.81-.07,7.31-.6,24.43-2,28.28-25.28.03-.16.04-.33.04-.48,0-.48,1.01-1.47,1.98-2.44,3.38-3.36,9.03-8.98,8.83-23.76v-.25c.05-.89.09-1.83-.02-2.68ZM88.78,5.09c2.58-.04,19.77,0,24.6,9.42.47.92,1.36,1.56,2.37,1.72.48.07,1.12.14,1.91.22,7.18.71,24,2.38,27.6,22.68.08.45.25.88.51,1.26.79,1.14,1.82,2.45,2.91,3.83,2.99,3.78,6.95,8.8,8.04,13.43h-27.65c-1.1,0-2.11.55-2.71,1.48-.59.92-.68,2.07-.22,3.07,1.69,3.72,2.95,8.55,1.39,10.98-.85,1.32-2.71,1.99-5.53,1.99-2.05,0-3.81-.89-4.83-2.45-1.55-2.37-1.39-6.03.47-10.29.44-1,.34-2.14-.26-3.06-.59-.91-1.6-1.45-2.69-1.46-7.33-.01-20.93-.16-26.84-.23v-13.34c4.13,1.44,9.8,2.56,13.75-.04,2.63-1.73,3.96-4.68,3.96-8.77,0-4.93-1.49-8.41-4.44-10.35-3.78-2.48-8.94-1.67-13.27-.16V5.33c.36-.11.71-.2.92-.24ZM10.75,49.45c.49-.43.83-1,.99-1.63,5.51-22.31,18.01-27,30.71-28.74,1-.14,1.88-.74,2.37-1.62,3.32-5.95,7.61-9.7,12.74-11.15,8.26-2.33,16.38,1.86,17.92,2.72.97.54,2.13.55,3.1.03l4.24-2.28v20.9c0,1.09.54,2.1,1.45,2.69.91.6,2.05.69,3.04.26,4.96-2.14,8.98-2.6,11.04-1.24,1.44.95,2.17,3.01,2.17,6.14,0,2.29-.57,3.82-1.69,4.56-2.43,1.6-7.73.26-11.53-1.37-1-.43-2.13-.33-3.04.27-.91.6-1.45,1.6-1.45,2.69v18.66h-25.89c1.79-4.05,3.29-9.58.83-13.73-1.87-3.15-5.53-4.75-10.87-4.75-4.81,0-7.21,2.08-8.38,3.83-2.73,4.1-1.5,10.23.02,14.64H5.07c.02-.43.04-.79.06-.94.69-5.44,5.12-9.51,5.62-9.96Zm72.07,57.04c-1.63-.92-3.52-2.44-4.63-4.87-.54-1.18-1.7-1.89-2.93-1.89-.33,0-.67.05-1,.16-5.24,1.71-21.17,6.92-34.98-9.29-.61-.72-1.5-1.13-2.44-1.14-18.96-.03-29.56-8.13-31.52-24.08h35.85c1.08,0,2.08-.54,2.68-1.43s.71-2.03.29-3.03c-1.72-4.14-3.14-9.88-1.44-12.43.26-.39,1.06-1.59,4.19-1.59,3.44,0,5.64.77,6.54,2.28,1.53,2.57-.16,7.6-2.25,11.44-.55,1.01-.52,2.2.06,3.18.58.97,1.64,1.57,2.77,1.57h28.81v41.11Zm66.83-23.91c-1.72,1.71-3.35,3.33-3.46,5.78-3.25,19.31-16.55,20.4-23.71,20.98-1.57.13-2.7.22-3.59.51-1.63.53-2.56,2.25-2.11,3.91,1.08,4,1.01,9.75.7,14.33-8.72-12.76-23.95-18.39-29.63-19.53v-45.83c5.31.07,16.62.19,24.2.22-1.55,4.87-1.26,9.25.89,12.53,1.97,3,5.27,4.73,9.04,4.73,4.64,0,7.92-1.45,9.76-4.31,2.52-3.92,1.44-9.29.01-13.22h25.22c.11,12.48-4.19,16.77-7.34,19.9Z"/>
  </g>
</svg>