<?xml version="1.0" encoding="UTF-8"?>
<svg id="Capa_2" data-name="Capa 2" xmlns="http://www.w3.org/2000/svg" viewBox="0 0 96.6 67.94">
  <defs>
    <style>
      .cls-1 {
        fill: #fff;
        stroke-width: 0px;
      }
    </style>
  </defs>
  <g id="Capa_1-2" data-name="Capa 1">
    <path class="cls-1" d="m0,6.98c.5-1.12.86-2.33,1.53-3.33C2.86,1.7,4.68.38,7.13.19,8.27.11,9.42,0,10.57,0,36.2,0,61.83,0,87.46,0c2.4,0,4.65.59,6.41,2.29,1.44,1.39,2.54,3.05,2.55,5.16.08,17.22.15,34.44.18,51.66,0,2.31-.67,4.46-2.33,6.14-1.57,1.59-3.48,2.67-5.78,2.68-26.95.02-53.9.02-80.85,0-1.74,0-3.28-.81-4.62-1.94-1.59-1.33-2.48-3.07-3.03-5.02C0,42.97,0,24.98,0,6.98Zm86.69-1.27H9.89l-.14.19c.14.07.3.11.4.21,11.84,11.89,23.68,23.78,35.49,35.7,1.36,1.37,3.81,1.36,5.19-.05,7.22-7.35,14.48-14.66,21.75-21.96,4.65-4.67,9.33-9.32,14.11-14.09Zm-.2,56.56l.15-.2c-.13-.08-.28-.13-.39-.24-5.1-5.16-10.2-10.32-15.31-15.47-2.57-2.59-5.16-5.16-7.71-7.76-.51-.52-.82-.57-1.35-.02-2.51,2.56-5.04,5.1-7.59,7.61-2.73,2.68-7.36,3.36-10.69,1.11-.64-.43-1.25-.91-1.8-1.45-2.61-2.58-5.19-5.18-7.68-7.67-8.08,8.1-16.1,16.13-24.04,24.09h76.42Zm4.42-52.44c-8.07,8.09-16.15,16.19-24.07,24.13,7.99,8.01,16.05,16.1,24.07,24.15V9.83ZM5.69,58.38c8.14-8.22,16.15-16.32,24.16-24.41C21.8,25.84,13.8,17.75,5.69,9.56v48.82Z"/>
  </g>
</svg>