<?xml version="1.0" encoding="UTF-8"?>
<svg id="Capa_2" data-name="Capa 2" xmlns="http://www.w3.org/2000/svg" viewBox="0 0 42.06 79.98">
  <defs>
    <style>
      .cls-1 {
        fill: #fff;
        stroke-width: 0px;
      }
    </style>
  </defs>
  <g id="Capa_1-2" data-name="Capa 1">
    <path class="cls-1" d="m31.55,0c2.14,0,4.29.12,6.42.21,1.39.06,2.78.26,4.09.4l-.1,12.88h-1.02c-1.41,0-2.83-.02-4.24-.02-1.06,0-2.12.01-3.18.05-3.41.11-5.92,1.39-6.1,5.66-.11,3.07-.19,9.85-.19,10.21.18,0,3.55.01,6.94.01,1.7,0,3.36,0,4.51-.01h2.76c-.69,4.95-1.32,9.69-2.02,14.47h-12.2l-.28,36.13h-14.98l.28-36.19H0l.11-14.38h12.31v-1.08c.03-2.9,0-5.8.1-8.7.04-1.82.14-3.7.47-5.51.83-4.41,2.88-8.1,6.56-10.75C22.78,1.06,26.46.1,30.35.01c.4,0,.79-.01,1.19-.01Z"/>
  </g>
</svg>