<?xml version="1.0" encoding="UTF-8"?>
<svg id="Capa_2" data-name="Capa 2" xmlns="http://www.w3.org/2000/svg" viewBox="0 0 84.35 84.31">
  <defs>
    <style>
      .cls-1 {
        fill: #fff;
        stroke-width: 0px;
      }
    </style>
  </defs>
  <g id="Capa_1-2" data-name="Capa 1">
    <g>
      <path class="cls-1" d="m64.82,14.66s.04,0,.06,0c2.78,0,5.03,2.27,5.01,5.08-.02,2.78-2.31,5.05-5.12,5.05-2.81-.03-5.03-2.3-5.01-5.08.02-2.79,2.27-5.05,5.06-5.05Z"/>
      <path class="cls-1" d="m83.83,21.17c.63,6.64,1.03,38-.92,45.34-2.61,9.62-8.89,15.31-18.62,16.86-3.64.59-13.46.94-23.26.94s-20.06-.37-23.43-1.24c-9.56-2.47-15.27-8.7-16.79-18.39C-.32,57.57-.44,24.52,1.61,17.34,4.29,7.99,10.53,2.51,19.99.95c4.29-.7,12.67-.95,21.13-.95,7.87,0,15.81.21,20.59.47,5.79.3,11.09,2.17,15.39,6.3,4.1,3.93,6.2,8.84,6.73,14.39Zm-8.11,42.13c1.21-7.42,1.21-34.47.52-41.42-.76-7.42-5.29-12.29-12.63-13.44-3.63-.55-12.38-.8-21.08-.8s-16.75.23-20.43.63c-7.35.85-12.3,5.38-13.47,12.7-1.21,7.75-1.19,36.74-.29,42.57.94,6.06,4.36,10.23,10.41,11.92,3.27.92,13.07,1.25,22.68,1.25,8.85,0,17.53-.28,20.8-.64,7.42-.81,12.33-5.38,13.51-12.77"/>
      <path class="cls-1" d="m42.36,20.56c11.92,0,21.53,9.69,21.44,21.64-.09,11.92-9.85,21.6-21.8,21.6s-21.53-9.68-21.44-21.64c.09-11.95,9.85-21.64,21.8-21.61Zm-.32,35.59c7.66,0,13.98-6.17,14.1-13.85.13-7.76-6.02-14.05-13.74-14.12-.04,0-.08,0-.13,0-7.66,0-13.98,6.17-14.1,13.85-.13,7.72,6.02,14.05,13.74,14.12.04,0,.08,0,.13,0"/>
    </g>
  </g>
</svg>