<?xml version="1.0" encoding="UTF-8"?>
<svg id="Capa_2" data-name="Capa 2" xmlns="http://www.w3.org/2000/svg" viewBox="0 0 81.42 81.55">
  <defs>
    <style>
      .cls-1 {
        fill: none;
        stroke: #fff;
        stroke-miterlimit: 10;
        stroke-width: 4.47px;
      }
    </style>
  </defs>
  <g id="Capa_1-2" data-name="Capa 1">
    <g>
      <path class="cls-1" d="m11.59,2.24c5.15,0,9.25,4.17,9.21,9.28-.04,5.11-4.2,9.28-9.35,9.28S2.2,16.63,2.24,11.52c.04-5.11,4.24-9.28,9.35-9.28Z"/>
      <polygon class="cls-1" points="19.42 27.8 19.02 79.31 3.01 79.31 3.4 27.8 19.42 27.8"/>
      <path class="cls-1" d="m60.17,26.55c16.22,0,19.12,10.63,19.01,24.52l-.22,28.24h-15.98l.19-25.03c.05-5.99-.03-13.68-8.23-13.68s-9.63,6.5-9.68,13.24l-.19,25.47h-16.02l.39-51.51h15.34l-.05,7.04h.24c2.16-4.03,7.41-8.3,15.2-8.3Z"/>
    </g>
  </g>
</svg>