<?xml version="1.0" encoding="UTF-8"?>
<svg id="Capa_2" data-name="Capa 2" xmlns="http://www.w3.org/2000/svg" viewBox="0 0 202.69 73.1">
  <defs>
    <style>
      .cls-1 {
        fill: #069dc1;
      }

      .cls-1, .cls-2 {
        stroke-width: 0px;
      }

      .cls-2 {
        fill: #e2e3e7;
      }
    </style>
  </defs>
  <g id="Capa_1-2" data-name="Capa 1">
    <g>
      <path class="cls-2" d="m64.14,69c0,1.82-.69,3.24-2.42,3.74-2.27.65-3.71-.54-4.6-2.56-2.42-5.51-5.01-10.96-7.22-16.56-1.14-2.9-2.66-4.05-5.87-3.95-8.16.25-16.33.18-24.49.03-2.7-.05-4.14.8-5.15,3.36-2.14,5.42-4.63,10.7-6.93,16.07-1.06,2.46-2.39,4.77-5.47,3.4-2.79-1.24-2.12-3.59-1.11-5.91C10.07,45.51,19.21,24.38,28.38,3.26c.71-1.63,1.36-3.19,3.69-3.16,1.94.02,2.87.93,3.56,2.54,9.31,21.64,18.64,43.27,27.96,64.91.21.48.37.99.55,1.45ZM31.99,13.1c-4.59,10.41-8.73,19.78-13.06,29.61,8.16,0,15.43-.02,22.7.02,1.89.01,3.26-.17,2.18-2.61-3.82-8.68-7.6-17.38-11.82-27.02Z"/>
      <path class="cls-1" d="m99.53.06c13.49.05,21.79,3.57,28.86,10.07,1.8,1.65,4.08,3.68,1.82,6.29-2.19,2.53-4.55.85-6.52-.76-10-8.19-20.91-11.25-33.07-5.38-10.99,5.31-16.35,14.61-16.36,26.54,0,11.56,5.38,20.63,15.84,25.78,10.91,5.38,21.65,4.48,31.55-3,.85-.64,1.63-1.37,2.41-2.09,1.72-1.59,3.64-3.64,5.88-1.35,2.44,2.5.79,4.92-1.21,6.93-13.37,13.41-36.31,13.34-50.63-.15-13.92-13.11-14.95-36.02-2.34-50.09C83.13,4.6,92.16.07,99.53.06Z"/>
      <path class="cls-2" d="m141.88,36.15c0-10.12.15-20.25-.07-30.37-.1-4.4,1.39-5.9,5.87-5.77,10.47.29,20.95.12,31.43.07,2.27-.01,4.56-.01,4.59,2.97.03,2.99-2.07,3.73-4.71,3.72-8.7-.04-17.4.11-26.1-.08-3.04-.07-4,.86-3.89,3.89.21,6.03.24,12.08,0,18.11-.13,3.21,1.16,3.81,4,3.71,5.14-.19,10.3,0,15.45-.05,2.6-.02,4.92.73,4.96,3.57.03,2.83-2.21,3.67-4.86,3.64-5.33-.07-10.66.05-15.98-.05-2.26-.04-3.63.22-3.55,3.07.18,6.74.16,13.5.01,20.24-.05,2.6.88,3.3,3.4,3.26,8.7-.14,17.4-.03,26.1-.07,2.7-.01,5.33.28,5.17,3.72-.14,3.02-2.59,3.33-5.09,3.32-10.48-.04-20.95-.09-31.43.02-3.92.04-5.36-1.68-5.32-5.48.11-10.48.04-20.96.04-31.44Z"/>
      <path class="cls-2" d="m202.68,36.62c0,10.1,0,20.2,0,30.3,0,2.71.17,5.88-3.53,5.94-3.72.07-3.7-3.08-3.7-5.81,0-20.37-.03-40.75.03-61.12,0-2.54-.55-5.74,3.55-5.8,4.11-.06,3.63,3.08,3.64,5.67.05,10.28.02,20.55.02,30.83Z"/>
    </g>
  </g>
</svg>