<?xml version="1.0" encoding="UTF-8"?>
<svg id="Capa_2" data-name="Capa 2" xmlns="http://www.w3.org/2000/svg" xmlns:xlink="http://www.w3.org/1999/xlink" viewBox="0 0 167.29 142.66">
  <defs>
    <style>
      .cls-1 {
        fill: url(#Degradado_sin_nombre_336);
      }

      .cls-1, .cls-2, .cls-3, .cls-4, .cls-5 {
        stroke: #eef0f6;
        stroke-miterlimit: 10;
        stroke-width: 4px;
      }

      .cls-2 {
        fill: url(#Degradado_sin_nombre_336-4);
      }

      .cls-3 {
        fill: url(#Degradado_sin_nombre_336-3);
      }

      .cls-4 {
        fill: url(#Degradado_sin_nombre_336-5);
      }

      .cls-5 {
        fill: url(#Degradado_sin_nombre_336-2);
      }
    </style>
    <linearGradient id="Degradado_sin_nombre_336" data-name="Degradado sin nombre 336" x1="2" y1="84.38" x2="165.29" y2="84.38" gradientUnits="userSpaceOnUse">
      <stop offset="0" stop-color="#dc1a4d"/>
      <stop offset=".42" stop-color="#8e2867"/>
      <stop offset=".82" stop-color="#4c347d"/>
      <stop offset="1" stop-color="#333986"/>
    </linearGradient>
    <linearGradient id="Degradado_sin_nombre_336-2" data-name="Degradado sin nombre 336" x1="52.35" y1="109.31" x2="114.95" y2="109.31" xlink:href="#Degradado_sin_nombre_336"/>
    <linearGradient id="Degradado_sin_nombre_336-3" data-name="Degradado sin nombre 336" x1="2.36" y1="48.13" x2="29.37" y2="48.13" xlink:href="#Degradado_sin_nombre_336"/>
    <linearGradient id="Degradado_sin_nombre_336-4" data-name="Degradado sin nombre 336" x1="137.92" y1="48.14" x2="164.94" y2="48.14" xlink:href="#Degradado_sin_nombre_336"/>
    <linearGradient id="Degradado_sin_nombre_336-5" data-name="Degradado sin nombre 336" x1="77.27" y1="17.94" x2="90.04" y2="17.94" xlink:href="#Degradado_sin_nombre_336"/>
  </defs>
  <g id="Capa_1-2" data-name="Capa 1">
    <g>
      <path class="cls-1" d="m83.66,53.1c18.28.08,34.54,6.16,49.16,16.85,13.19,9.64,23.78,21.6,31.54,36.02,1.24,2.3,1.3,4.59-.13,6.79-1.35,2.09-3.36,3.06-5.84,2.87-2.49-.19-4.18-1.56-5.34-3.75-5.77-10.83-13.55-20.04-22.95-27.87-10.51-8.74-22.27-14.94-35.88-17.26-12.32-2.1-24.26-.6-35.72,4.24-19.43,8.21-33.84,21.99-43.94,40.37-1.26,2.29-2.83,3.99-5.53,4.25-2.47.23-4.5-.71-5.89-2.78-1.42-2.12-1.48-4.37-.3-6.64,3.38-6.54,7.44-12.62,12.18-18.24,11.48-13.62,25.29-24.01,42.13-30.14,8.56-3.12,17.39-4.74,26.52-4.73Z"/>
      <path class="cls-5" d="m83.57,140.66c-17.36-.06-31.32-14.17-31.22-31.56.1-17.32,14.12-31.21,31.45-31.14,17.29.07,31.2,14.12,31.14,31.46-.06,17.31-14.11,31.3-31.38,31.24Zm18.62-31.37c0-10.27-8.25-18.55-18.51-18.57-10.25-.02-18.54,8.25-18.57,18.51-.03,10.33,8.3,18.7,18.59,18.67,10.24-.03,18.49-8.33,18.49-18.6Z"/>
      <path class="cls-3" d="m22.71,60.91c-1.35.04-2.8-.54-4.03-1.65-4.73-4.26-9.49-8.49-14.18-12.8-2.7-2.49-2.82-6.37-.43-8.99,2.34-2.57,6.18-2.88,8.87-.51,4.86,4.28,9.66,8.63,14.42,13.01,2.03,1.87,2.52,4.55,1.51,7.01-.99,2.41-3.22,3.92-6.16,3.94Z"/>
      <path class="cls-2" d="m144.59,60.91c-2.93-.02-5.16-1.51-6.15-3.92-1.04-2.52-.5-5.18,1.6-7.12,3.82-3.52,7.71-6.98,11.57-10.46.91-.82,1.78-1.67,2.72-2.45,2.77-2.29,6.52-2.07,8.88.5,2.35,2.56,2.32,6.44-.3,8.88-4.78,4.44-9.67,8.77-14.53,13.12-1.15,1.03-2.55,1.49-3.8,1.45Z"/>
      <path class="cls-4" d="m77.27,17.9c0-3.08-.02-6.16,0-9.24.03-3.86,2.75-6.68,6.4-6.66,3.65.02,6.33,2.83,6.35,6.72.02,6.16.02,12.32,0,18.47-.01,3.84-2.79,6.7-6.41,6.68-3.63-.02-6.32-2.87-6.34-6.74-.02-3.08,0-6.16,0-9.24Z"/>
    </g>
  </g>
</svg>