<?xml version="1.0" encoding="utf-8"?>
<!-- Generator: Adobe Illustrator 26.5.0, SVG Export Plug-In . SVG Version: 6.00 Build 0)  -->
<svg version="1.1" baseProfile="basic" id="Capa_1" xmlns="http://www.w3.org/2000/svg" xmlns:xlink="http://www.w3.org/1999/xlink"
	 x="0px" y="0px" viewBox="0 0 460 460" xml:space="preserve">
<style type="text/css">
	.st0{fill:#F2F3F4;}
	.st1{fill:#808080;}
	.st2{fill:#F07E20;}
	.st3{fill:#E54F16;}
	.st4{fill:#FFFFFF;}
</style>
<g>
	<path class="st4" d="M230.31,423.1c-49.12,0-98.23,0-147.35,0c-14.63,0-22.26-7.26-21.96-21.81c0.96-46.73,34.02-84.73,75.08-94.4
		c7.34-1.73,15.04-2.58,22.58-2.62c47.99-0.23,95.99-0.13,143.99-0.11c41.73,0.01,81.74,30.83,92.2,71.33
		c2.9,11.21,6.01,22.56,2.82,34.35c-2.13,7.86-7.41,12.02-15.31,12.96c-2.66,0.32-5.37,0.25-8.06,0.25
		c-48,0.01-95.99,0.01-143.99,0.01C230.31,423.08,230.31,423.09,230.31,423.1z"/>
	<path class="st4" d="M168.11,254.01c-10.94-7.68-17.91-17.01-23.16-27.31c-25.76-50.6-5.46-112.92,48.12-134.14
		c51.19-20.28,105.57,2.78,126.39,52.92c7.47,17.99,7.92,36.87,5.67,55.55c-2.17,18.05-21,30.68-39.03,28.07
		c-1.47-0.21-3.11-1.53-4.03-2.8c-9.76-13.37-22.8-20.86-39.38-20.89c-12.48-0.02-25.16-0.05-37.39,2.05
		c-17.74,3.04-32.95,20.75-35.56,38.72C169.42,248.36,168.85,250.49,168.11,254.01z"/>
	<path class="st4" d="M254.2,277.64c-13.22,0-26.53,0.95-39.64-0.26c-14.16-1.31-20.79-11.03-19.94-25.96
		c0.67-11.69,10.23-20.46,23.11-20.87c7.62-0.24,15.26-0.13,22.89-0.03c13.76,0.17,21.64,6.64,24.96,19.91
		c0.44,1.75,2.3,4.47,3.55,4.5c17.25,0.41,34.69,1.45,50.62-7.18c20.05-10.85,30.43-28.23,31.8-50.55
		c1.84-30.25-3.27-59.11-21.27-84.41c-22.66-31.86-53.51-49.91-92.67-52.38c-58.12-3.68-108.61,32.5-124.07,86.96
		c-4.15,14.63-4.12,30.5-5.56,45.84c-0.77,8.19-5.14,12.59-12.98,11.6c-6.42-0.81-9.34-4.87-9.65-10.99
		c-3.19-63.55,28.13-121.17,89.28-145.93c75.56-30.59,162.16,4.41,191.13,83.69c10.08,27.58,12.57,56.52,5.57,85.37
		c-7.98,32.89-38.87,58.21-72.77,60.15c-14.74,0.84-29.57,0.14-44.36,0.14C254.21,277.37,254.21,277.51,254.2,277.64z"/>
</g>
</svg>
