<?xml version="1.0" encoding="UTF-8"?>
<svg id="Capa_2" data-name="Capa 2" xmlns="http://www.w3.org/2000/svg" viewBox="0 0 75.43 75.51">
  <defs>
    <style>
      .cls-1 {
        fill: #fff;
        stroke-width: 0px;
      }
    </style>
  </defs>
  <g id="Capa_1-2" data-name="Capa 1">
    <g>
      <path class="cls-1" d="m25.29,20.17c.72,0,1.45.13,2.16.25.43.06.82.68,1.04,1.14,1.03,2.42,2.07,4.83,2.96,7.31.5,1.31-.42,2.56-2.34,4.72-.6.68-.72,1.34-.27,2.13,3.03,5.2,7.29,8.95,12.94,11.17.26.1.49.14.71.14.48,0,.88-.23,1.26-.69,2.41-2.91,3.1-4.18,4.07-4.18.24,0,.51.08.82.23,7.53,3.61,8.13,3.75,8.15,4.61.2,6.05-5.08,8.43-8.65,8.43-.19,0-.37,0-.54-.02-7.3-.26-18.92-6.03-26.8-19.9-2.78-4.92-2.34-10.52,1.84-14.38.8-.74,1.71-.96,2.65-.96Z"/>
      <path class="cls-1" d="m74.85,30.51c3.59,20.7-10.09,40.31-30.64,43.92-2.21.38-4.4.57-6.56.57-5.79,0-11.4-1.35-16.78-3.98-.45-.23-1.02-.34-1.55-.34-.27,0-.52.03-.75.09-9.94,2.5-16.55,4.35-18.57,4.75.44-1.62.82-3.04,1.2-4.46,1.29-4.55,2.6-9.07,3.8-13.62.18-.68.13-1.56-.18-2.19C-6.56,33.3,5.56,6.72,29.76,1.03c2.99-.7,5.94-1.03,8.8-1.03,18.24,0,33.3,13.39,36.29,30.51Zm-32.19,37.89c17.02-2.73,28.77-18.62,26.31-35.56-2.28-15.63-15.5-26.67-30.66-26.67-1.88,0-3.78.17-5.7.52C11.55,10.55.2,34.01,10.52,52.6c1.15,2.05,1.45,3.75.64,5.94-.93,2.64-1.52,5.37-2.37,8.36,3.73-.97,7.18-1.82,10.6-2.79.32-.08.61-.13.89-.13.57,0,1.09.17,1.66.49,4.92,2.85,10.13,4.34,15.62,4.34,1.67,0,3.37-.14,5.1-.42"/>
    </g>
  </g>
</svg>