<?xml version="1.0" encoding="UTF-8"?>
<svg id="Capa_2" data-name="Capa 2" xmlns="http://www.w3.org/2000/svg" xmlns:xlink="http://www.w3.org/1999/xlink" viewBox="0 0 405 477">
  <defs>
    <style>
      .cls-1 {
        font-size: 37px;
      }

      .cls-2 {
        font-family: Transducer-Bold, Transducer;
        font-weight: 700;
      }

      .cls-3 {
        letter-spacing: -.12em;
      }

      .cls-4 {
        font-family: Transducer-Regular, Transducer;
        font-size: 24px;
      }

      .cls-5 {
        font-size: 34px;
      }

      .cls-6 {
        fill: #eef0f6;
        filter: url(#drop-shadow-1);
        stroke-width: 0px;
      }

      .cls-7 {
        fill: #606060;
      }

      .cls-8 {
        fill: url(#Degradado_sin_nombre_107);
        fill-rule: evenodd;
      }
    </style>
    <filter id="drop-shadow-1" filterUnits="userSpaceOnUse">
      <feOffset dx="0" dy="0"/>
      <feGaussianBlur result="blur" stdDeviation="5"/>
      <feFlood flood-color="#000" flood-opacity=".2"/>
      <feComposite in2="blur" operator="in"/>
      <feComposite in="SourceGraphic"/>
    </filter>
    <linearGradient id="Degradado_sin_nombre_107" data-name="Degradado sin nombre 107" x1="193.41" y1="227.58" x2="318.51" y2="227.58" gradientTransform="translate(-139.18 100.15) rotate(.73)" gradientUnits="userSpaceOnUse">
      <stop offset="0" stop-color="#e38520"/>
      <stop offset=".11" stop-color="#e27825"/>
      <stop offset="1" stop-color="#dc1a4d"/>
    </linearGradient>
  </defs>
  <g id="Capa_1-2" data-name="Capa 1">
    <g>
      <path class="cls-6" d="m389.43,126.96C279.91,59.21,168,18.62,15.6,15.58v407.57c48.04,2.3,93.21,16.63,132.93,38.62,50.13-68.75,218.96-304.55,240.91-334.81Z"/>
      <path class="cls-8" d="m114.46,284.51c-.98-.01-1.74-.86-1.73-1.84l.13-9.87c.01-1.02.79-1.8,1.78-1.79s1.74.82,1.73,1.84l-.13,9.87c-.01.97-.84,1.8-1.78,1.79h0Zm54.84,49.6l-9.49-.12c-.98-.01-1.79-.82-1.77-1.84s.84-1.8,1.82-1.79l9.49.12c.98.01,1.79.82,1.77,1.84s-.84,1.8-1.82,1.79h0Zm-101.99-1.31l-9.54-.12c-.94-.01-1.74-.82-1.73-1.84s.79-1.8,1.78-1.79l9.54.12c.98.01,1.74.82,1.73,1.84s-.79,1.8-1.78,1.79h0Zm-3.39-5.88h-.21c-.94-.1-1.65-1.04-1.51-2.01,1.16-10.65,5.35-20.6,12.09-28.78.61-.74,1.72-.86,2.48-.19.72.63.83,1.78.18,2.52-6.3,7.66-10.18,16.91-11.25,26.85-.14.93-.92,1.63-1.77,1.61h0Zm19.96-35.81c-.56,0-1.07-.28-1.4-.77-.59-.8-.4-1.91.37-2.52,7.6-5.88,16.59-9.48,26.01-10.38.94-.12,1.83.6,1.9,1.62.12.97-.62,1.89-1.57,1.97-8.78.86-17.16,4.25-24.25,9.69-.35.26-.73.39-1.07.38h0Zm61.07.83c-.38,0-.77-.14-1.06-.37-7.03-5.71-15.36-9.31-24.2-10.4-.98-.15-1.65-1.04-1.56-2.01.14-1.02,1.01-1.71,1.99-1.61,9.44,1.18,18.41,5.01,25.95,11.13.76.63.88,1.78.27,2.57-.35.48-.86.7-1.38.69h0Zm18.95,36.48c-.9-.01-1.62-.73-1.69-1.66-.81-10.1-4.54-19.62-10.73-27.48-.63-.76-.53-1.91.25-2.56.73-.61,1.85-.51,2.48.25,6.65,8.45,10.62,18.68,11.47,29.48.12,1.02-.62,1.89-1.61,1.97h-.17Zm-10.78,36.77c-.34,0-.73-.14-1.06-.41-.76-.58-.88-1.74-.27-2.53,5.44-7.1,8.97-15.55,10.11-24.52.14-.97,1.05-1.67,1.99-1.57.98.15,1.65,1.08,1.51,2.05-1.23,9.59-5.03,18.7-10.86,26.28-.35.48-.86.7-1.42.69h0Zm-34.38,19.38c-.86-.01-1.62-.73-1.69-1.66-.12-.97.58-1.9,1.57-1.97,9.29-.94,18.07-4.64,25.37-10.65.78-.61,1.89-.51,2.48.3s.49,1.95-.29,2.56c-7.87,6.45-17.28,10.4-27.22,11.42h-.21Zm-11.08-.14h-.17c-9.99-1.28-19.39-5.47-27.09-12.21-.76-.63-.83-1.78-.22-2.53.65-.79,1.72-.86,2.48-.23,7.19,6.24,15.95,10.16,25.26,11.34.94.14,1.65,1.04,1.51,2.01-.1.97-.88,1.63-1.77,1.61h0Zm-34.17-20.57c-.56,0-1.07-.23-1.4-.73-5.46-7.64-8.9-16.62-9.93-26.06-.12-.97.58-1.9,1.57-1.97.94-.12,1.83.6,1.9,1.57.96,8.77,4.19,17.18,9.27,24.28.59.8.45,1.95-.33,2.56-.34.22-.73.34-1.07.34h0Zm73.02-11.01c-.3-.31-.72-.45-1.15-.37-11.28,2.33-18.4,7.55-22.39,11.53-3.81,3.8-5.57,7.19-5.96,8.07-.39.39-1.43,1.57-2.52,2.89l.19-14.64c.74-.96,2.7-3.64,3.55-6.81,2.35,3.22,5.88,5.12,6.09,5.26.17.09.38.14.55.14s.3-.04.47-.08c.34-.13.56-.39.69-.74.09-.26,1.34-4.19.92-8.13,3.31,1.99,7.33,2.39,7.58,2.4h.09c.3,0,.6-.12.86-.34.22-.26.35-.61.35-.97,0-.27-.29-4.38-2.17-7.86.64.05,1.28.1,1.88.11,3.12.04,5.83-.81,6-.9.34-.08.65-.35.78-.7.13-.31.14-.71-.03-1.02-.13-.22-1.87-3.96-4.92-6.44,3.73-1.01,6.8-3.63,7.02-3.8.26-.26.44-.57.44-.97,0-.35-.16-.71-.42-.93-.21-.18-3.21-2.87-6.92-3.98,3.07-2.39,4.95-6.09,5.09-6.31.13-.31.18-.71.01-1.06-.12-.31-.38-.58-.72-.72-.21-.05-4.05-1.38-7.86-.94,1.97-3.43,2.32-7.54,2.37-7.8,0-.4-.12-.75-.37-.98-.21-.27-.55-.41-.94-.41-.21.04-4.24.3-7.6,2.25.52-3.93-.63-7.93-.71-8.15-.12-.36-.38-.62-.67-.76-.34-.18-.68-.14-1.03-.01-.22.13-3.83,1.99-6.22,5.1-.93-3.86-3.5-7.04-3.67-7.26-.21-.27-.55-.45-.89-.45-.38,0-.69.17-.95.43-.17.22-2.78,3.33-3.86,7.16-2.31-3.17-5.88-5.12-6.09-5.26-.3-.14-.68-.19-.98-.01-.34.13-.6.39-.69.74-.09.22-1.38,4.19-.96,8.13-3.31-2.03-7.28-2.39-7.54-2.44-.34,0-.69.12-.95.39-.26.22-.39.57-.4.97.04.27.29,4.38,2.17,7.86-3.8-.54-7.62.7-7.88.74-.34.13-.6.39-.74.7-.13.35-.14.75.03,1.06.08.22,1.87,3.96,4.88,6.43-3.73.97-6.8,3.63-7.02,3.8-.26.22-.39.57-.4.92,0,.4.12.71.37.98.21.18,3.21,2.87,6.92,3.98-3.07,2.39-4.95,6.09-5.04,6.31-.18.31-.18.71-.06,1.02.12.36.38.62.72.72.21.09,2.9,1.01,5.97,1.05.64,0,1.24.02,1.88-.06-1.97,3.43-2.32,7.54-2.37,7.8,0,.35.12.71.37.98.21.27.51.36.85.36h.09c.21,0,4.24-.3,7.6-2.2-.52,3.93.63,7.88.71,8.15.12.36.38.62.67.76.17.05.3.09.47.09.21,0,.39-.04.56-.13.22-.13,3.83-1.94,6.22-5.1.77,3.2,2.66,5.92,3.38,6.9l-.19,14.64c-1.01-1.34-2.06-2.55-2.4-2.95-.42-.89-2.08-4.32-5.8-8.22-3.88-4.08-10.87-9.48-22.09-12.1-.43-.09-.86.03-1.16.34-.26.35-.4.79-.27,1.24.04.18,1.27,4.35,5.4,8.96,3.67,4.21,10.53,9.6,22.26,11.61.76.94,2.99,3.58,4,5.27l-.03,2.17c0,.66.54,1.25,1.18,1.25.68,0,1.25-.56,1.26-1.22l.03-2.17c1.05-1.67,3.35-4.25,4.13-5.17,11.74-1.71,18.74-6.93,22.55-11.04,4.21-4.5,5.54-8.65,5.63-8.82.13-.44.05-.88-.24-1.24h0Zm-58.91,7.79c-1.98-2.28-3.28-4.42-4.03-5.94,9.25,2.64,15.09,7.23,18.47,10.72,2.07,2.11,3.45,4.12,4.29,5.54-9.68-2.16-15.48-6.75-18.73-10.33h0Zm36.55-4.93c-.64-.41-1.44-.99-2.2-1.75-1.39-1.3-3.04-3.27-3.27-5.53,1.63-.42,3.14-1.07,4.56-1.89,1.98,2.64,1.41,6.92.91,9.17h0Zm6.37-6.82c-1.79-.64-4-1.87-5.04-3.87,1.3-1,2.47-2.18,3.51-3.54,2.8,1.63,3.86,5.85,4.22,8.15-.73-.14-1.71-.38-2.69-.74h0Zm8.83-8.52c-.73.17-1.72.33-2.79.41-1.88.11-4.36-.1-6.05-1.58.83-1.45,1.45-2.99,1.94-4.62,3.2.4,5.73,3.83,6.9,5.8h0Zm2.24-10.95c-.6.43-1.47.95-2.41,1.43-1.68.86-4.08,1.67-6.17.98.1-.84.15-1.68.16-2.52s-.02-1.73-.1-2.52c3.09-.89,6.7,1.28,8.52,2.63h0Zm-1.96-11c-.44.66-1,1.49-1.7,2.28-1.26,1.44-3.16,3.15-5.35,3.34-.41-1.64-1.03-3.2-1.82-4.67,2.51-2.09,6.69-1.46,8.87-.95h0Zm-5.91-9.41c-.14.79-.37,1.81-.72,2.87-.62,1.81-1.76,4.09-3.7,5.17-1.01-1.34-2.15-2.55-3.42-3.63,1.58-2.9,5.65-4,7.84-4.41h0Zm-8.9-6.31c.44,2.26.9,6.6-1.14,9.15-1.4-.86-2.89-1.54-4.51-2,.38-3.31,3.75-5.93,5.65-7.14h0Zm-10.58-2.35c1.26,1.96,3.26,5.75,2.32,8.92-.81-.1-1.62-.2-2.44-.21-.86-.01-1.67.07-2.48.15-.86-3.2,1.29-6.93,2.59-8.86h0Zm-10.68,2.08c1.91,1.26,5.17,3.96,5.47,7.28-1.59.42-3.14,1.07-4.56,1.89-1.98-2.59-1.41-6.92-.91-9.17h0Zm-6.29,6.87c1.75.64,3.95,1.82,4.96,3.82-1.3,1.05-2.47,2.23-3.47,3.54-2.84-1.63-3.9-5.85-4.26-8.15.77.19,1.75.42,2.77.79h0Zm-8.92,8.47c.77-.17,1.72-.33,2.78-.36,1.88-.11,4.4.1,6.1,1.54-.83,1.45-1.49,2.99-1.94,4.67-3.2-.4-5.72-3.88-6.94-5.84h0Zm-2.24,10.95c1.86-1.3,5.52-3.38,8.63-2.41-.14.84-.19,1.68-.2,2.52s.02,1.73.14,2.52c-3.13.93-6.74-1.28-8.56-2.63h0Zm1.96,11c.44-.66,1-1.45,1.74-2.28,1.26-1.44,3.16-3.15,5.35-3.34.41,1.64,1.03,3.24,1.82,4.71-2.55,2.05-6.69,1.46-8.91.9h0Zm5.91,9.41c.14-.79.36-1.77.72-2.82.62-1.81,1.76-4.14,3.75-5.22.97,1.38,2.11,2.59,3.38,3.63-1.53,2.95-5.61,4-7.84,4.41h0Zm8.9,6.35c-.44-2.31-.9-6.6,1.14-9.19,1.4.86,2.93,1.54,4.51,2-.38,3.31-3.71,5.93-5.65,7.18h0Zm-5.9-26.63c.12-9.64,7.79-17.38,17.12-17.26,9.32.12,16.79,8.05,16.67,17.69-.12,9.64-7.79,17.38-17.12,17.26-9.32-.12-16.79-8.05-16.67-17.69h0Zm16.52,28.93c-.42-.67-.96-1.52-1.42-2.5-.79-1.78-1.57-4.22-.9-6.43.77.14,1.58.2,2.44.21s1.63-.02,2.44-.15c.86,3.24-1.24,6.98-2.55,8.86h0Zm25.79,3.52c-3.3,3.5-9.21,7.94-18.99,9.85,2.53-3.91,9.27-12.09,23.17-15.68-.79,1.49-2.1,3.6-4.18,5.83h0Zm-13.52-40.13c-.38-.58-1.15-.77-1.71-.38-.56.35-.7,1.14-.36,1.72,3.02,4.82,2.29,11.22-1.65,15.25-3.99,4.02-10.2,4.56-14.77,1.36-.55-.41-1.32-.24-1.72.33-.35.57-.23,1.37.32,1.73,2.37,1.67,5.06,2.5,7.75,2.53,3.68.05,7.33-1.37,10.1-4.16,4.77-4.85,5.64-12.58,2.03-18.38h0Zm-3.97-4.21c-5.51-3.88-13-3.22-17.81,1.63-4.81,4.85-5.68,12.58-2.03,18.43.21.36.59.54.98.54.26,0,.47-.04.69-.21.56-.35.74-1.14.36-1.72-3.02-4.82-2.29-11.22,1.69-15.24,3.99-4.02,10.2-4.56,14.77-1.36.55.41,1.28.24,1.67-.33s.23-1.32-.32-1.73h0Zm-8.79,78.74c-34.51-.44-62.19-29.82-61.74-65.48.46-35.7,28.88-64.37,63.39-63.93s62.15,29.82,61.69,65.53c-.46,35.66-28.88,64.32-63.35,63.88h0Zm1.61-125.78c-32.54-.42-59.41,26.67-59.84,60.34-.43,33.67,25.73,61.39,58.28,61.81,32.54.42,59.37-26.63,59.8-60.3.43-33.67-25.69-61.44-58.23-61.86h0Zm26.06,79.54c-.01.97-.79,1.76-1.73,1.75s-1.7-.82-1.69-1.79.79-1.8,1.73-1.79,1.7.82,1.69,1.84h0Zm10.4-6.99c-.01.97-.79,1.76-1.78,1.75s-1.7-.82-1.69-1.79.79-1.76,1.73-1.75,1.74.82,1.73,1.79h0Zm-60.18,6.35c-.01.97-.79,1.76-1.73,1.75s-1.7-.82-1.69-1.79.79-1.8,1.73-1.79,1.7.82,1.69,1.84h0Zm-10.17-7.25c-.01.97-.79,1.76-1.78,1.75s-1.7-.82-1.69-1.79.79-1.76,1.73-1.75,1.74.82,1.73,1.79h0Zm-1.43,25.03c-.01,1.02-.79,1.76-1.73,1.75s-1.7-.77-1.69-1.79.79-1.76,1.73-1.75,1.7.82,1.69,1.79h0Zm72.61,1.68c-.01.97-.79,1.76-1.73,1.75s-1.7-.82-1.69-1.79.79-1.76,1.73-1.75,1.7.82,1.69,1.79h0Zm-.21-73.94c-.01,1.02-.79,1.8-1.78,1.79s-1.7-.82-1.69-1.84.79-1.76,1.73-1.75,1.74.82,1.73,1.79h0Zm-70.34-1.83c-.01.97-.79,1.76-1.78,1.75s-1.7-.82-1.69-1.79.79-1.76,1.73-1.75,1.74.82,1.73,1.79h0Zm10.15,8.98c-.01.97-.79,1.76-1.73,1.75s-1.7-.82-1.69-1.79c.01-1.02.79-1.8,1.73-1.79s1.7.82,1.69,1.84h0Zm-10.35,6.95c-.01.97-.79,1.76-1.78,1.75s-1.7-.82-1.69-1.79.79-1.76,1.73-1.75,1.74.82,1.73,1.79h0Zm60.13-6.31c-.01.97-.79,1.76-1.73,1.75s-1.7-.82-1.69-1.79.79-1.8,1.73-1.79,1.7.82,1.69,1.84h0Zm10.22,7.21c-.01.97-.79,1.76-1.78,1.75s-1.7-.82-1.69-1.79.79-1.76,1.73-1.75,1.74.82,1.73,1.79h0Z"/>
      <text class="cls-7" transform="translate(38.82 119.29)"><tspan class="cls-2"><tspan class="cls-5" x="0" y="0">Inocente</tspan><tspan class="cls-1" x="159.32" y="0"> </tspan></tspan><tspan class="cls-4"><tspan x="0" y="30">“Espera por que </tspan></tspan><tspan class="cls-4"><tspan x="0" y="60">algo grandioso está </tspan></tspan><tspan class="cls-4"><tspan x="0" y="90">a punto de sucede</tspan><tspan class="cls-3" x="232.62" y="90">r</tspan><tspan x="242.91" y="90">.”</tspan></tspan></text>
    </g>
  </g>
</svg>