<?xml version="1.0" encoding="UTF-8"?>
<svg id="Capa_2" data-name="Capa 2" xmlns="http://www.w3.org/2000/svg" xmlns:xlink="http://www.w3.org/1999/xlink" viewBox="0 0 410 468">
  <defs>
    <style>
      .cls-1 {
        font-family: Transducer-Bold, Transducer;
        font-size: 34px;
        font-weight: 700;
      }

      .cls-2 {
        font-family: Transducer-Regular, Transducer;
        font-size: 24px;
      }

      .cls-3 {
        fill: #eef0f6;
        filter: url(#drop-shadow-1);
        stroke-width: 0px;
      }

      .cls-4 {
        fill: #606060;
      }

      .cls-5 {
        letter-spacing: 0em;
      }

      .cls-6 {
        fill: url(#Degradado_sin_nombre_107);
        fill-rule: evenodd;
      }
    </style>
    <filter id="drop-shadow-1" filterUnits="userSpaceOnUse">
      <feOffset dx="0" dy="0"/>
      <feGaussianBlur result="blur" stdDeviation="5"/>
      <feFlood flood-color="#000" flood-opacity=".2"/>
      <feComposite in2="blur" operator="in"/>
      <feComposite in="SourceGraphic"/>
    </filter>
    <linearGradient id="Degradado_sin_nombre_107" data-name="Degradado sin nombre 107" x1="321.69" y1="92.19" x2="257.31" y2="203.7" gradientUnits="userSpaceOnUse">
      <stop offset="0" stop-color="#e38520"/>
      <stop offset=".11" stop-color="#e27825"/>
      <stop offset="1" stop-color="#dc1a4d"/>
    </linearGradient>
  </defs>
  <g id="Capa_1-2" data-name="Capa 1">
    <g>
      <path class="cls-3" d="m15.91,351.55c120.74,77.94,235.53,99.34,378.17,101.38V52.95c-48.04-2.3-93.17-15.7-132.89-37.68C210.81,84.09,37.5,321.4,15.91,351.55Z"/>
      <path class="cls-6" d="m301.05,194.67c0,.58-.47,1.02-.98,1.02-.56,0-1.03-.44-1.03-1.02s.47-1.02,1.03-1.02c.51,0,.98.44.98,1.02h0Zm0-10.18c0,.58-.47,1.02-.98,1.02-.56,0-1.03-.44-1.03-1.02s.47-1.02,1.03-1.02c.51,0,.98.44.98,1.02h0Zm-10.57,10.18c0,.58-.43,1.02-.98,1.02s-.98-.44-.98-1.02.43-1.02.98-1.02.98.44.98,1.02h0Zm0-10.18c0,.58-.43,1.02-.98,1.02s-.98-.44-.98-1.02.43-1.02.98-1.02.98.44.98,1.02h0Zm-10.57,10.18c0,.58-.43,1.02-.98,1.02s-.98-.44-.98-1.02.43-1.02.98-1.02.98.44.98,1.02h0Zm0-10.18c0,.58-.43,1.02-.98,1.02s-.98-.44-.98-1.02.43-1.02.98-1.02.98.44.98,1.02h0Zm25.93,4.49c1.11,0,2.01-.93,2.01-2.05v-4.89c0-1.11-.9-2.05-2.01-2.05h-.98v-3.51c0-.27-.13-.58-.3-.8l-3.59-4.36c-.17-.27-.51-.4-.81-.44-.34,0-.64.09-.9.31-.04.04-.09.09-.13.13l-3.59,4.36c-.17.22-.3.53-.3.84v3.47h-.94v-3.47c0-.31-.09-.62-.3-.84l-3.55-4.36c-.21-.27-.51-.4-.86-.44-.34,0-.64.09-.9.31-.04.04-.09.09-.13.13l-3.55,4.36c-.21.22-.3.53-.3.84v3.47h-.94v-3.47c0-.31-.13-.62-.3-.84l-3.59-4.36c-.21-.27-.51-.4-.86-.44-.3,0-.64.09-.86.31-.09.04-.13.09-.17.13l-3.55,4.36c-.21.22-.3.53-.3.84v3.47h-.98c-1.11,0-2.01.93-2.01,2.05v4.89c0,1.11.9,2.05,2.01,2.05h.98v1.2h-.98c-1.11,0-2.01.93-2.01,2.09v4.85c0,1.16.9,2.05,2.01,2.05h.98v2.93c0,.71.56,1.24,1.24,1.24h7.1c.68,0,1.24-.53,1.24-1.24v-2.93h.94v2.93c0,.67.56,1.24,1.24,1.24h7.14c.68,0,1.24-.58,1.24-1.24v-2.93h.94v2.93c0,.67.56,1.24,1.24,1.24h7.14c.68,0,1.24-.58,1.24-1.24v-2.93h.98c1.11,0,2.01-.89,2.01-2.05v-4.85c0-1.16-.9-2.09-2.01-2.09h-.98v-1.2h.98Zm-3.47,10.18v1.65h-4.66v-1.65h4.66Zm-10.52,1.65h-4.71v-1.65h4.66l.04,1.65h0Zm-10.57,0h-4.71v-1.65h4.71v1.65h0Zm-7.66-4.18v-3.87h31.75v3.87h-31.75Zm2.95-16.63l.04-3.02,2.31-2.85,2.35,2.85v3.02h-4.71Zm10.57,0v-3.02l2.35-2.85,2.35,2.85v3.02h-4.71Zm10.57,0v-3.02l2.35-2.85,2.35,2.85v3.02h-4.71Zm7.66,2.53l-.04,3.87h-31.7v-3.87h31.75Zm-3.04,6.45v1.2h-4.66v-1.2h4.66Zm-7.14,0v1.2h-.94v-1.2h.94Zm-3.38,0v1.2h-4.66v-1.2h4.66Zm-7.14,0v1.2h-.94v-1.2h.94Zm-3.38,0v1.2h-4.71v-1.2h4.71Zm8.21-106.03c-34.48,0-62.55,29.17-62.55,65s28.07,65,62.55,65,62.55-29.17,62.55-65-28.07-65-62.55-65h0Zm0,3.65c32.56,0,59.04,27.52,59.04,61.35,0,5.47-.73,10.8-2.01,15.87h-114.06c-1.33-5.07-2.01-10.4-2.01-15.87,0-33.83,26.48-61.35,59.04-61.35h0Zm0,122.71c-26.14,0-48.39-17.78-56.13-42.33h31.57l-14.38,14.94c-.6.62-.6,1.64,0,2.27.3.31.68.49,1.11.49.39,0,.77-.18,1.07-.49l16.51-17.16h40.43l16.56,17.16c.3.31.68.49,1.07.49s.81-.18,1.07-.49c.6-.62.6-1.64,0-2.27l-14.33-14.94h31.53c-7.7,24.54-29.95,42.33-56.09,42.33h0Zm20.84-114.39c-2.7,0-5.05,1.47-6.37,3.65-4.66-1.47-9.5-2.22-14.46-2.22-15.44,0-29.73,7.29-39.23,19.96-.6.8-.47,1.96.3,2.58.34.27.68.4,1.07.4.56,0,1.07-.27,1.41-.71,8.81-11.78,22.12-18.54,36.45-18.54,4.54,0,8.98.67,13.26,2,0,.27-.04.53-.04.8,0,4.36,3.42,7.91,7.62,7.91s7.62-3.56,7.62-7.91-3.42-7.91-7.62-7.91h0Zm0,12.98c-2.61,0-4.79-2.22-4.83-4.93,1.37.53,2.74,1.16,4.06,1.82.9.44,1.93.04,2.35-.84.43-.93.04-2-.81-2.45-1.45-.76-2.95-1.38-4.45-1.96.9-1.07,2.22-1.78,3.68-1.78,2.7,0,4.88,2.27,4.88,5.07s-2.18,5.07-4.88,5.07h0Zm22.55,20.81c-.64,0-1.28-.4-1.58-1.07-.34-.8-.73-1.6-1.16-2.36-1.33-2.58-2.91-5.07-4.71-7.38-1.07-1.42-2.27-2.8-3.55-4.09-.68-.71-.68-1.87,0-2.58.68-.71,1.8-.71,2.48,0,1.37,1.38,2.65,2.85,3.81,4.4,1.93,2.45,3.64,5.11,5.09,7.91.43.84.81,1.69,1.2,2.53.43.93.04,2-.81,2.45-.26.09-.51.18-.77.18h0Zm-51.08,26.54h-10.31c-.64,0-1.16-.53-1.16-1.24,0-.67.51-1.2,1.16-1.2h.56v-9.47c0-.67.51-1.24,1.16-1.24h6.89c.64,0,1.16.58,1.16,1.24v9.47h.56c.64,0,1.16.53,1.16,1.2,0,.71-.51,1.24-1.16,1.24h0Zm-10.31-1.78c-.26,0-.51.27-.51.53,0,.31.21.58.51.58h10.31c.26,0,.51-.27.51-.58,0-.27-.21-.53-.51-.53h-1.2v-10.14c0-.31-.26-.53-.51-.53h-6.89c-.26,0-.51.22-.51.53v10.14h-1.2Zm8.04,0h-5.78v-4.22h5.78v4.22h0Zm-5.13-.67h4.49v-2.89h-4.49v2.89h0Zm5.13-4.67h-5.78v-4.27h5.78v4.27h0Zm-5.13-.71h4.49v-2.85h-4.49v2.85h0Zm5.69-4.98h-6.89c-.47,0-.86.4-.86.89v9.78h-.86c-.47,0-.86.4-.86.89s.39.89.86.89h10.31c.47,0,.86-.4.86-.89s-.39-.89-.86-.89h-.86v-9.78c-.04-.49-.39-.89-.86-.89h0Zm-.86,10.67h-5.18v-3.56h5.18v3.56h0Zm0-5.34h-5.18v-3.56h5.18v3.56h0Zm2.57,18.14c-.68,0-1.2-.53-1.2-1.2v-3.56c0-.71.51-1.24,1.2-1.24h2.22v-16.58c0-.67.51-1.24,1.2-1.24h8.56c.64,0,1.2.58,1.2,1.24v16.58h2.22c.68,0,1.2.53,1.2,1.24,0,.67-.51,1.2-1.2,1.2h-14.25v2.36c0,.67-.51,1.2-1.16,1.2h0Zm0-5.34c-.3,0-.56.27-.56.58v3.56c0,.31.26.53.56.53s.51-.22.51-.53v-3.02h14.89c.3,0,.51-.22.51-.53s-.21-.58-.51-.58h-2.87v-17.25c0-.31-.26-.53-.56-.53h-8.56c-.3,0-.56.22-.56.53v17.25h-2.87Zm11.47,0h-7.53v-16.72h7.53v7.82h-1.2c-.3,0-.51.22-.51.53s.21.58.51.58h1.2v7.78h0Zm-6.85-.67h6.16v-6.45h-.51c-.64,0-1.2-.53-1.2-1.24,0-.67.56-1.24,1.2-1.24h.51v-6.4h-6.16v15.34h0Zm11.64,1.24c0-.49-.39-.89-.86-.89h-2.57v-16.94c0-.49-.39-.89-.86-.89h-8.56c-.47,0-.86.4-.86.89v16.94h-2.57c-.47,0-.86.4-.86.89v3.56c0,.49.39.89.86.89s.86-.4.86-.89v-2.67h14.55c.47,0,.86-.4.86-.89h0Zm-5.13-9.83h-.86c-.47,0-.86.4-.86.89s.39.89.86.89h.86v7.11h-6.85v-16.01h6.85v7.11h0Zm14.59,3.91h-10.31c-.64,0-1.2-.53-1.2-1.24,0-.67.56-1.2,1.2-1.2h.51v-9.47c0-.67.56-1.24,1.2-1.24h6.85c.68,0,1.2.58,1.2,1.24v9.47h.56c.64,0,1.16.53,1.16,1.2,0,.71-.51,1.24-1.16,1.24h0Zm-10.31-1.78c-.3,0-.51.27-.51.53,0,.31.21.58.51.58h10.31c.26,0,.51-.27.51-.58,0-.27-.26-.53-.51-.53h-1.2v-10.14c0-.31-.26-.53-.56-.53h-6.85c-.3,0-.51.22-.51.53v10.14h-1.2Zm8.04,0h-5.78v-4.22h5.78v4.22h0Zm-5.13-.67h4.49v-2.89h-4.49v2.89h0Zm5.13-4.67h-5.78v-4.27h5.78v4.27h0Zm-5.13-.71h4.49v-2.85h-4.49v2.85h0Zm5.69-4.98h-6.89c-.47,0-.86.4-.86.89v9.78h-.86c-.47,0-.86.4-.86.89s.39.89.86.89h10.31c.47,0,.86-.4.86-.89s-.39-.89-.86-.89h-.86v-9.78c0-.49-.39-.89-.86-.89h0Zm-.86,10.67h-5.18v-3.56h5.18v3.56h0Zm0-5.34h-5.18v-3.56h5.18v3.56h0Zm-15.44-13.92c-2.05,0-3.76-1.73-3.76-3.91s1.67-3.87,3.76-3.87,3.76,1.73,3.76,3.87-1.71,3.91-3.76,3.91h0Zm0-7.11c-1.71,0-3.08,1.47-3.08,3.2s1.37,3.25,3.08,3.25,3.08-1.47,3.08-3.25-1.37-3.2-3.08-3.2h0Zm0,5.34c-1.11,0-2.05-.93-2.05-2.09s.94-2.13,2.05-2.13,2.05.93,2.05,2.13-.94,2.09-2.05,2.09h0Zm0-3.56c-.77,0-1.37.67-1.37,1.47,0,.76.6,1.42,1.37,1.42s1.37-.67,1.37-1.42c0-.8-.6-1.47-1.37-1.47h0Zm3.42,1.42c0-1.96-1.54-3.56-3.42-3.56s-3.42,1.6-3.42,3.56,1.54,3.6,3.42,3.6,3.42-1.6,3.42-3.6h0Zm-5.13,0c0-.98.77-1.78,1.71-1.78s1.71.8,1.71,1.78-.77,1.82-1.71,1.82-1.71-.8-1.71-1.82h0Zm24,35.97h-26.57c-.64,0-1.2-.53-1.2-1.2,0-.71.51-1.24,1.2-1.24h14.29c-.04-.18-.04-.36-.04-.53,0-1.24.73-2.36,1.8-2.8.47-2.22,2.31-3.78,4.49-3.78,1.67,0,3.17.89,3.98,2.31v-14.45c0-.67.51-1.24,1.2-1.24.64,0,1.2.58,1.2,1.24v13.92c1.88.18,3.42,1.87,3.42,3.91-.04,2.13-1.71,3.87-3.76,3.87h0Zm-26.57-1.78c-.3,0-.56.27-.56.58s.26.53.56.53h26.57c1.71,0,3.08-1.42,3.08-3.2s-1.37-3.25-3.08-3.25h-.34v-14.58c0-.31-.21-.53-.51-.53s-.56.22-.56.53v14.89l-.17.09c-.13.09-.26.18-.39.27l-.3.22-.17-.36c-.68-1.42-2.05-2.31-3.55-2.31-1.97,0-3.59,1.42-3.94,3.42v.18l-.21.09c-.9.31-1.54,1.2-1.54,2.22,0,.22.04.49.13.76l.17.44h-15.19Zm26.57,0h-9.46c-.64,0-1.16-.53-1.16-1.2,0-.71.51-1.24,1.16-1.24.3,0,.56-.27.56-.53,0-1.69,1.28-3.02,2.91-3.02s2.87,1.33,2.87,3.02c0,.27.21.49.43.53.26.04.51-.13.6-.36.3-.84,1.16-1.42,2.1-1.42,1.11,0,2.01.93,2.01,2.13s-.9,2.09-2.01,2.09h0Zm-5.99-5.34c-1.24,0-2.27,1.07-2.27,2.36,0,.67-.51,1.2-1.2,1.2-.26,0-.51.27-.51.58,0,.27.26.53.51.53h9.46c.77,0,1.37-.62,1.37-1.42s-.6-1.47-1.37-1.47c-.68,0-1.24.4-1.45.98-.21.58-.77.89-1.33.8-.6-.09-.98-.62-.98-1.2,0-1.29-1.03-2.36-2.22-2.36h0Zm5.99-.36v-14.23c0-.49-.39-.89-.86-.89s-.86.4-.86.89v14.67c-.17.09-.3.18-.43.31-.73-1.51-2.18-2.53-3.85-2.53-2.14,0-3.89,1.6-4.24,3.69-1.03.36-1.8,1.38-1.8,2.58,0,.31.09.58.17.89h-14.72c-.47,0-.86.4-.86.89s.39.89.86.89h26.57c1.88,0,3.42-1.6,3.42-3.6s-1.54-3.56-3.42-3.56h0Zm0,5.38h-9.46c-.47,0-.86-.4-.86-.89s.39-.89.86-.89.86-.4.86-.89c0-1.47,1.16-2.67,2.61-2.67s2.57,1.2,2.57,2.67c0,.4.3.8.68.84.43.09.81-.13.98-.53.26-.71.94-1.2,1.75-1.2.94,0,1.71.8,1.71,1.78s-.77,1.78-1.71,1.78h0Zm2.57-20.14c-.34,0-.64-.13-.86-.36l-24-24.99-24,24.99c-.34.31-.86.44-1.28.27-.47-.22-.77-.67-.77-1.16v-22.27c0-.31.13-.62.34-.84.26-.27.56-.4.86-.4h9.11v-1.07h-.56c-.64,0-1.16-.58-1.16-1.24v-3.56c0-.67.51-1.24,1.16-1.24h6.89c.64,0,1.16.58,1.16,1.24v3.56c0,.67-.51,1.24-1.16,1.24h-.56v1.07h1.41c.64,0,1.16.58,1.16,1.24,0,.71-.51,1.24-1.16,1.24h-2.61c-.64,0-1.16-.58-1.16-1.24v-3.56c0-.67.51-1.24,1.16-1.24h.56v-1.07h-4.49v1.07h.51c.68,0,1.2.58,1.2,1.24v3.56c0,.67-.51,1.24-1.2,1.24h-9.07v18.05l22.8-23.7c.47-.49,1.24-.49,1.67,0l22.85,23.7v-18.05h-15.1c-.64,0-1.2-.53-1.2-1.24,0-.67.56-1.2,1.2-1.2h16.3c.64,0,1.2.53,1.2,1.2v22.27c0,.49-.3.93-.77,1.16-.13.04-.3.09-.43.09h0Zm-24.86-26.32l24.47,25.48c.17.13.39.18.6.09.17-.09.3-.27.3-.49v-22.27c0-.31-.21-.53-.51-.53h-16.3c-.26,0-.51.22-.51.53s.26.58.51.58h15.79v20.36l-23.96-24.9c-.21-.18-.56-.18-.77,0l-23.96,24.9v-20.36h9.75c.3,0,.56-.27.56-.58v-3.56c0-.31-.26-.53-.56-.53h-1.16v-2.49h5.78v2.49h-1.2c-.26,0-.51.22-.51.53v3.56c0,.31.26.58.51.58h2.61c.26,0,.51-.27.51-.58s-.26-.53-.51-.53h-2.05v-2.49h1.2c.26,0,.51-.22.51-.53v-3.56c0-.31-.26-.53-.51-.53h-6.89c-.26,0-.51.22-.51.53v3.56c0,.31.21.53.51.53h1.2v2.49h-9.75c-.13,0-.26.04-.39.18-.09.09-.13.22-.13.36v22.27c0,.22.13.44.3.49.21.09.43.04.6-.09l24.47-25.48h0Zm24.86,1.91h-16.3c-.47,0-.86.4-.86.89s.39.89.86.89h15.44v19.21l-23.4-24.27c-.17-.18-.39-.27-.6-.27s-.43.09-.6.27l-23.4,24.27v-19.21h9.41c.47,0,.86-.4.86-.89v-3.56c0-.49-.39-.89-.86-.89h-.86v-1.78h5.13v1.78h-.86c-.47,0-.86.4-.86.89v3.56c0,.49.39.89.86.89h2.61c.47,0,.86-.4.86-.89s-.39-.89-.86-.89h-1.75v-1.78h.86c.47,0,.86-.4.86-.89v-3.56c0-.49-.39-.89-.86-.89h-6.85c-.47,0-.86.4-.86.89v3.56c0,.49.39.89.86.89h.86v1.78h-9.41c-.21,0-.47.09-.6.27-.17.18-.26.4-.26.62v22.27c0,.36.21.67.51.8.13.04.21.09.34.09.21,0,.43-.09.6-.27l24.26-25.21,24.22,25.21c.17.18.39.27.64.27.09,0,.21-.04.3-.09.34-.13.56-.44.56-.8v-22.27c0-.49-.39-.89-.86-.89h0Zm-37.73,46.64h-9.41c-2.05,0-3.76-1.73-3.76-3.87s1.5-3.73,3.42-3.91v-13.92c0-.67.56-1.24,1.2-1.24s1.2.58,1.2,1.24v14.45c.81-1.42,2.31-2.31,3.94-2.31,2.18,0,4.06,1.56,4.54,3.78,1.07.44,1.8,1.56,1.8,2.8,0,1.65-1.28,2.98-2.91,2.98h0Zm-9.41-7.11c-1.71,0-3.08,1.47-3.08,3.25s1.37,3.2,3.08,3.2h9.46c1.2,0,2.22-1.07,2.22-2.31,0-1.02-.64-1.91-1.54-2.22l-.21-.09v-.18c-.34-2-1.97-3.42-3.94-3.42-1.5,0-2.87.89-3.55,2.31l-.17.36-.3-.22c-.13-.09-.26-.18-.39-.27l-.17-.09v-14.89c0-.31-.26-.53-.56-.53s-.51.22-.51.53v14.58h-.34Zm9.41,5.34h-9.41c-1.11,0-2.05-.93-2.05-2.09s.94-2.13,2.05-2.13c.94,0,1.75.58,2.1,1.42.09.27.3.4.56.36.26-.04.43-.27.43-.53,0-1.69,1.33-3.02,2.91-3.02s2.91,1.33,2.91,3.02c0,.27.21.53.51.53.68,0,1.2.58,1.2,1.24s-.51,1.2-1.2,1.2h0Zm-9.41-3.56c-.77,0-1.37.67-1.37,1.47s.6,1.42,1.37,1.42h9.46c.26,0,.51-.22.51-.53s-.26-.58-.56-.58c-.64,0-1.16-.53-1.16-1.2,0-1.29-1.03-2.36-2.27-2.36s-2.22,1.07-2.22,2.36c0,.58-.43,1.07-.98,1.2-.56.09-1.11-.22-1.33-.8-.21-.58-.77-.98-1.45-.98h0Zm10.23-.22c-.34-2.09-2.1-3.69-4.24-3.69-1.67,0-3.12,1.02-3.85,2.53-.13-.13-.26-.22-.43-.31v-14.67c0-.49-.39-.89-.86-.89s-.86.4-.86.89v14.23c-1.88,0-3.42,1.6-3.42,3.6s1.54,3.56,3.42,3.56h9.41c1.45,0,2.61-1.2,2.61-2.67,0-1.2-.77-2.22-1.8-2.58h0Zm-.81,3.47h-9.41c-.94,0-1.71-.8-1.71-1.78s.77-1.78,1.71-1.78c.81,0,1.5.44,1.75,1.2.17.4.56.62.98.53.39-.04.68-.44.68-.84,0-1.51,1.16-2.71,2.57-2.71s2.61,1.2,2.61,2.71c0,.49.39.89.86.89s.86.4.86.89-.39.89-.9.89h0Z"/>
      <text class="cls-4" transform="translate(118.2 276.13) rotate(-.53)"><tspan class="cls-1"><tspan class="cls-5" x="0" y="0">P</tspan><tspan x="25.33" y="0">ersona </tspan></tspan><tspan class="cls-1"><tspan x="-.32" y="36">común </tspan></tspan><tspan class="cls-2"><tspan x="-.65" y="66">“Eres como yo y yo </tspan></tspan><tspan class="cls-2"><tspan x="-.92" y="96">soy como tú.”</tspan></tspan></text>
    </g>
  </g>
</svg>