<?xml version="1.0" encoding="UTF-8"?>
<svg id="Capa_2" data-name="Capa 2" xmlns="http://www.w3.org/2000/svg" xmlns:xlink="http://www.w3.org/1999/xlink" viewBox="0 0 520 476">
  <defs>
    <style>
      .cls-1 {
        font-family: Transducer-Bold, Transducer;
        font-size: 34px;
        font-weight: 700;
      }

      .cls-2 {
        font-family: Transducer-Regular, Transducer;
        font-size: 24px;
      }

      .cls-3 {
        letter-spacing: -.05em;
      }

      .cls-4 {
        fill: #eef0f6;
        filter: url(#drop-shadow-1);
        stroke-width: 0px;
      }

      .cls-5 {
        fill: #606060;
      }

      .cls-6 {
        letter-spacing: 0em;
      }

      .cls-7 {
        fill: url(#Degradado_sin_nombre_107);
        fill-rule: evenodd;
      }

      .cls-8 {
        letter-spacing: -.02em;
      }
    </style>
    <filter id="drop-shadow-1" filterUnits="userSpaceOnUse">
      <feOffset dx="0" dy="0"/>
      <feGaussianBlur result="blur" stdDeviation="5"/>
      <feFlood flood-color="#000" flood-opacity=".2"/>
      <feComposite in2="blur" operator="in"/>
      <feComposite in="SourceGraphic"/>
    </filter>
    <linearGradient id="Degradado_sin_nombre_107" data-name="Degradado sin nombre 107" x1="276.55" y1="382.66" x2="276.55" y2="252.36" gradientUnits="userSpaceOnUse">
      <stop offset="0" stop-color="#e38520"/>
      <stop offset=".11" stop-color="#e27825"/>
      <stop offset="1" stop-color="#dc1a4d"/>
    </linearGradient>
  </defs>
  <g id="Capa_1-2" data-name="Capa 1">
    <g>
      <path class="cls-4" d="m505,194.83c-46.28,87.61-165.83,212.55-249.21,265.32C237.14,434.98,53.32,183.11,15.62,132.63c49.41-27.36,90.43-68.02,118.25-117.14,3.22,1.77,356.34,172.84,371.13,179.34Z"/>
      <path class="cls-7" d="m277.94,324.15l-2.4-.49c-1.93-.4-3.42-1.96-3.81-4.01l-.47-2.45c-.21-.98-1.03-1.69-2.01-1.69s-1.8.71-2.01,1.69l-.47,2.45c-.39,2.05-1.88,3.61-3.85,4.01l-2.35.49c-.94.22-1.63,1.07-1.63,2.1s.68,1.87,1.63,2.05l2.35.49c1.97.45,3.47,2.01,3.85,4.01l.47,2.45c.21,1.03,1.03,1.69,2.01,1.69s1.8-.67,2.01-1.69l.47-2.45c.39-2.01,1.88-3.57,3.81-4.01l2.35-.49c.98-.18,1.67-1.03,1.67-2.05-.04-1.03-.68-1.87-1.63-2.1h0Zm-.39,2.1s0,.04-.04.04l-2.35.49c-2.74.58-4.84,2.76-5.39,5.62l-.47,2.45v.04h-.09v-.04l-.47-2.45c-.56-2.85-2.7-5.04-5.39-5.62l-2.35-.49s-.04-.04-.04-.04h0v-.04s0-.04.04-.04l2.35-.49c2.7-.58,4.84-2.76,5.39-5.62l.47-2.45v-.04h.09v.04l.47,2.45c.56,2.85,2.7,5.04,5.39,5.62l2.35.49.04.04v.04h0Zm29.96-32.82l-2.35-.49c-1.93-.4-3.42-1.96-3.81-4.01l-.51-2.45c-.17-.98-.98-1.69-1.97-1.69s-1.8.71-2.01,1.69l-.47,2.45c-.39,2.05-1.88,3.61-3.85,4.01l-2.35.49c-.94.18-1.63,1.07-1.63,2.1s.68,1.87,1.63,2.05l2.35.49c1.97.45,3.47,2.01,3.85,4.01l.47,2.45c.21,1.03,1.03,1.69,2.01,1.69s1.8-.67,1.97-1.69l.51-2.45c.39-2.01,1.88-3.57,3.81-4.01l2.35-.49c.98-.18,1.67-1.03,1.67-2.05s-.68-1.92-1.67-2.1h0Zm-.34,2.1s0,.04-.04.04l-2.35.49c-2.74.58-4.84,2.76-5.39,5.62l-.47,2.45v.04h-.09v-.04l-.47-2.45c-.56-2.85-2.7-5.04-5.39-5.62l-2.35-.49s-.04-.04-.04-.04h0v-.04s0-.04.04-.04l2.35-.49c2.7-.58,4.84-2.76,5.39-5.62l.47-2.45v-.04h.09v.04l.47,2.45c.56,2.85,2.65,5.04,5.39,5.62l2.35.49s.04.04.04.04v.04h0Zm-7.23,34.07c-.13-.54-.64-.89-1.2-.76-1.28.31-2.61.45-3.98.45-5.01,0-9.46,0-12.41,1.47-3.12,1.07-6.85,3.48-7.92,7.05-.17.54.13,1.16.64,1.29.09.04.21.09.3.09.43,0,.81-.31.94-.76.34-1.11,1.2-2.45,2.74-3.61-.34,1.47-.17,3.3.47,5.53.64,2.14.51,4.1-.43,5.8-1.41,2.63-4.45,4.15-6.38,4.91.73-3.26.26-6.24-1.28-8.56-1.93-2.81-5.35-4.37-9.72-4.37-2.27,0-4.24-.62-5.69-1.78-1.28-1.03-2.18-2.5-2.48-4.1-.3-1.65,0-3.39.81-4.91.94-1.69,2.53-3.03,4.58-3.92,1.46-.67,3.21-1.07,5.31-1.29.51-.04.94-.58.86-1.11-.04-.58-.51-.98-1.07-.94-2.27.22-4.19.71-5.86,1.43-5.56,2.41-7.28,7.31-6.55,11.15.39,2.1,1.54,4.01,3.21,5.35,1.8,1.43,4.19,2.19,6.89,2.19,3.68,0,6.55,1.25,8.09,3.52,1.5,2.19,1.67,5.22.47,8.61-.09.36-.04.71.21,1.03.17.22.47.36.73.36.09,0,.17-.04.26-.04.26-.09,6.72-1.69,9.37-6.47,1.2-2.23,1.41-4.73.6-7.45-.81-2.63-.77-4.55.09-5.75.39-.58.94-.98,1.67-1.34h0c2.57-1.25,6.98-1.25,11.56-1.25,1.54,0,3.04-.18,4.45-.54.51-.13.86-.67.73-1.25h0Zm-7.06-30.55c-2.61-.36-5.56-.54-8.69-.54-2.87,0-5.69.22-8.47.45-3.64.27-7.4.58-9.5.04-.09,0-.13-.04-.17-.04-.56-.13-.98-.4-1.24-.67-.09-.13-.43-.54-.13-1.69.94-3.66,5.56-5.4,9.29-6.2,4.24-.89,8.3-.85,8.35-.85.47,0,.9-.31.98-.8.09-.49-.13-.98-.6-1.16-.17-.09-4.24-1.83-9.84-2.81-5.26-.89-12.88-1.25-19.39,2.14-.47.22-.68.85-.43,1.38.21.49.81.71,1.33.45,6.03-3.12,13.18-2.76,18.1-1.92,1.63.27,3.17.62,4.45.98-5.26.62-12.71,2.59-14.17,8.25-.17.76-.21,1.43-.13,2.05-1.75-.8-3.21-2.36-3.21-5.44,0-.58-.43-1.03-.98-1.03-.51,0-.98.45-.98,1.03,0,6.06,4.49,7.89,8.3,8.34,1.03.27,2.27.36,3.72.36,1.88,0,4.07-.18,6.42-.36,2.7-.22,5.52-.45,8.3-.45,3.04,0,5.91.18,8.43.54.51.09,1.03-.31,1.11-.89.04-.58-.34-1.07-.86-1.16h0Zm-1.33,12.44c-.51-.09-1.07.27-1.16.8-.39,1.87-1.58,3.3-3.81,4.5-.77.4-1.67.76-2.57,1.11.34-.67.6-1.43.77-2.32.47-2.27.04-4.1-1.28-5.4-1.58-1.65-4.45-2.36-8.43-2.14-2.74.13-5.09.67-5.35.76-3.17.58-5.91.85-8.22.85-9.46,0-12.63-4.1-13.61-6.15-.9-1.87-1.03-4.06-.47-6.33.6-2.23,1.88-4.37,3.68-6.11.39-.36.43-1.03.04-1.43-.34-.45-.98-.45-1.37-.09-2.1,1.96-3.6,4.5-4.24,7.09-.73,2.72-.51,5.44.6,7.76,1.37,2.94,4.11,5.08,7.87,6.29,4.19,1.29,9.59,1.34,16.05.13h.09c2.48-.62,9.54-1.65,11.98.85.81.8,1.03,1.92.73,3.52-.64,3.21-2.87,4.5-8.22,4.64-.56,0-.98.49-.98,1.07.04.54.47.98.98.98h.04c1.58-.04,3.17-.18,4.62-.54,6.12-1.43,11.98-3.34,13.01-8.65.13-.54-.21-1.07-.77-1.2h0Zm.56,37.37h-2.61c-.51,0-.98.45-.98,1.03,0,.54.47,1.03.98,1.03h2.61c.51,0,.98-.49.98-1.03,0-.58-.47-1.03-.98-1.03h0Zm6.98,0h-2.61c-.51,0-.94.45-.94,1.03,0,.54.43,1.03.94,1.03h2.61c.56,0,.98-.49.98-1.03,0-.58-.43-1.03-.98-1.03h0Zm-4.79,2.27c-.51,0-.98.45-.98,1.03v2.72c0,.54.47,1.03.98,1.03.56,0,.98-.49.98-1.03v-2.72c0-.58-.43-1.03-.98-1.03h0Zm0-7.27c-.51,0-.98.45-.98,1.03v2.72c0,.54.47.98.98.98.56,0,.98-.45.98-.98v-2.72c0-.58-.43-1.03-.98-1.03h0Zm14.89-18.86h5.14c.94,0,1.71-.8,1.71-1.78s-.77-1.78-1.71-1.78h-5.14c-.94,0-1.71.8-1.71,1.78s.77,1.78,1.71,1.78h0Zm-11.98,0h5.14c.94,0,1.71-.8,1.71-1.78s-.77-1.78-1.71-1.78h-5.14c-.94,0-1.71.8-1.71,1.78s.77,1.78,1.71,1.78h0Zm8.56,0c-.94,0-1.71.8-1.71,1.78v5.35c0,.98.77,1.78,1.71,1.78s1.71-.8,1.71-1.78v-5.35c0-.98-.77-1.78-1.71-1.78h0Zm0-3.57c.94,0,1.71-.8,1.71-1.78v-5.35c0-.98-.77-1.78-1.71-1.78s-1.71.8-1.71,1.78v5.35c0,.98.77,1.78,1.71,1.78h0Zm-73.06,26.44c-.56,0-1.16-.31-1.5-.85-5.31-8.83-8.09-19.04-8.09-29.52,0-20.2,10.53-38.88,27.52-48.69.86-.49,1.93-.18,2.4.71s.17,2.01-.68,2.5c-15.88,9.19-25.72,26.62-25.72,45.48,0,9.81,2.61,19.35,7.58,27.6.51.85.26,1.96-.56,2.5-.3.18-.6.27-.94.27h0Zm95.52-28.54c-.94,0-1.75-.8-1.75-1.83,0-28.67-22.38-51.99-49.9-51.99-.98,0-1.75-.85-1.75-1.83s.77-1.83,1.75-1.83c29.44,0,53.41,24.97,53.41,55.65,0,1.03-.77,1.83-1.75,1.83h0Zm-51.66,53.87c-8.26,0-16.13-1.92-23.45-5.62-.86-.45-1.24-1.56-.81-2.45.43-.94,1.5-1.29,2.35-.85,6.85,3.48,14.21,5.26,21.91,5.26,19,0,36.64-11.55,44.94-29.39.43-.89,1.5-1.29,2.35-.85.86.45,1.24,1.56.81,2.45-8.9,19.09-27.78,31.44-48.1,31.44h0Zm0,9.45c-34.5,0-62.57-29.21-62.57-65.15s28.08-65.15,62.57-65.15,62.53,29.21,62.53,65.15-28.08,65.15-62.53,65.15h0Zm0-126.64c-32.57,0-59.06,27.6-59.06,61.49s26.49,61.49,59.06,61.49,59.02-27.56,59.02-61.49-26.49-61.49-59.02-61.49h0Zm-12.03,5.89c-2.82,0-5.14,2.41-5.14,5.35s2.31,5.35,5.14,5.35,5.14-2.41,5.14-5.35-2.27-5.35-5.14-5.35h0Zm0,7.13c-.94,0-1.71-.8-1.71-1.78s.77-1.78,1.71-1.78,1.71.8,1.71,1.78-.77,1.78-1.71,1.78h0Zm-21.23,80.85c-2.82,0-5.14,2.41-5.14,5.35s2.31,5.35,5.14,5.35,5.14-2.41,5.14-5.35-2.31-5.35-5.14-5.35h0Zm0,7.13c-.94,0-1.71-.8-1.71-1.78s.77-1.78,1.71-1.78,1.71.8,1.71,1.78-.77,1.78-1.71,1.78h0Zm-5.48-18.64c.34.36.77.54,1.2.54s.86-.18,1.2-.54l1.2-1.25,1.24,1.25c.34.36.77.54,1.2.54s.86-.18,1.2-.54c.68-.71.68-1.83,0-2.54l-1.2-1.25,1.2-1.25c.68-.71.68-1.83,0-2.54-.64-.67-1.75-.67-2.4,0l-1.24,1.29-1.2-1.29c-.68-.67-1.75-.67-2.44,0-.64.71-.64,1.83,0,2.54l1.24,1.25-1.24,1.25c-.64.71-.64,1.83.04,2.54h0Zm89.62-5.35c.34.36.77.54,1.2.54s.86-.18,1.2-.54c.68-.71.68-1.83,0-2.54l-1.2-1.25,1.2-1.25c.68-.71.68-1.83,0-2.54-.64-.67-1.75-.67-2.4,0l-1.24,1.29-1.2-1.29c-.68-.67-1.75-.67-2.44,0-.64.71-.64,1.83,0,2.54l1.24,1.25-1.24,1.25c-.64.71-.64,1.83,0,2.54.34.36.77.54,1.24.54.43,0,.86-.18,1.2-.54l1.2-1.25,1.24,1.25h0Zm-21.7,7.94c0,.98-.77,1.78-1.71,1.78s-1.71-.8-1.71-1.78.77-1.78,1.71-1.78,1.71.8,1.71,1.78h0Zm-66.72-37.37c0,.98-.77,1.78-1.71,1.78s-1.71-.8-1.71-1.78.77-1.78,1.71-1.78,1.71.76,1.71,1.78h0Zm1.71,17.84c0,.98-.77,1.78-1.71,1.78s-1.71-.8-1.71-1.78.77-1.78,1.71-1.78,1.71.8,1.71,1.78h0Zm66.72-12.49c0,.98-.77,1.78-1.71,1.78s-1.71-.8-1.71-1.78.77-1.78,1.71-1.78,1.71.8,1.71,1.78h0Zm10.27,7.13c0,.98-.77,1.78-1.71,1.78s-1.71-.8-1.71-1.78.77-1.78,1.71-1.78,1.71.8,1.71,1.78h0Zm-54.91,39.33c0,.98-.77,1.78-1.71,1.78s-1.71-.8-1.71-1.78.77-1.78,1.71-1.78,1.71.8,1.71,1.78h0Zm10.27,7.13c0,.98-.77,1.78-1.71,1.78s-1.71-.8-1.71-1.78.77-1.78,1.71-1.78,1.71.8,1.71,1.78h0Z"/>
      <text class="cls-5" transform="translate(122.63 142.14)"><tspan class="cls-1"><tspan x="0" y="0">Mago</tspan></tspan><tspan class="cls-2"><tspan x="0" y="30">“</tspan><tspan class="cls-3" x="10.79" y="30">V</tspan><tspan x="27.21" y="30">er lo que es </tspan></tspan><tspan class="cls-2"><tspan x="0" y="60">i</tspan><tspan class="cls-8" x="6.62" y="60">n</tspan><tspan x="22.41" y="60">visible para otro</tspan><tspan class="cls-6" x="229.84" y="60">s</tspan><tspan x="243.88" y="60">.”</tspan></tspan></text>
    </g>
  </g>
</svg>