<?xml version="1.0" encoding="UTF-8"?>
<svg id="Capa_2" data-name="Capa 2" xmlns="http://www.w3.org/2000/svg" viewBox="0 0 892.53 892.53">
  <defs>
    <style>
      .cls-1 {
        letter-spacing: -.01em;
      }

      .cls-2 {
        fill: #313235;
        font-size: 78px;
      }

      .cls-2, .cls-3, .cls-4, .cls-5 {
        font-family: BebasNeueBold, 'Bebas Neue';
      }

      .cls-3 {
        font-size: 28.74px;
      }

      .cls-4 {
        font-size: 28.74px;
      }

      .cls-6 {
        fill: #eef0f6;
        stroke-width: 0px;
      }

      .cls-5 {
        font-size: 28.74px;
      }
    </style>
  </defs>
  <g id="Capa_1-2" data-name="Capa 1">
    <g>
      <circle class="cls-6" cx="446.26" cy="446.26" r="446.26"/>
      <g>
        <text class="cls-5" transform="translate(593.8 699.25) rotate(-32.34)"><tspan x="0" y="0">R</tspan></text>
        <text class="cls-5" transform="translate(603.87 692.81) rotate(-34.2)"><tspan x="0" y="0">i</tspan></text>
        <text class="cls-5" transform="translate(608.72 689.56) rotate(-36)"><tspan x="0" y="0">e</tspan></text>
        <text class="cls-5" transform="translate(617.67 683.04) rotate(-38.44)"><tspan x="0" y="0">s</tspan></text>
        <text class="cls-5" transform="translate(626.51 676.02) rotate(-41.03)"><tspan x="0" y="0">g</tspan></text>
        <text class="cls-5" transform="translate(635.4 668.27) rotate(-43.74)"><tspan x="0" y="0">o</tspan></text>
        <text class="cls-5" transform="translate(644.03 659.98) rotate(-46.48)"><tspan x="0" y="0">/</tspan></text>
        <text class="cls-5" transform="translate(651.96 651.62) rotate(-49.2)"><tspan x="0" y="0">c</tspan></text>
        <text class="cls-5" transform="translate(659.6 642.75) rotate(-52.03)"><tspan x="0" y="0">a</tspan></text>
        <text class="cls-5" transform="translate(667.26 633) rotate(-55.41)"><tspan x="0" y="0">m</tspan></text>
        <text class="cls-5" transform="translate(676.43 619.56) rotate(-58.76)"><tspan x="0" y="0">b</tspan></text>
        <text class="cls-5" transform="translate(682.66 609.17) rotate(-60.83)"><tspan x="0" y="0">i</tspan></text>
        <text class="cls-5" transform="translate(685.57 604.05) rotate(-62.84)"><tspan x="0" y="0">o</tspan></text>
        <g>
          <text class="cls-5" transform="translate(593.8 699.25) rotate(-32.34)"><tspan x="0" y="0">R</tspan></text>
          <text class="cls-5" transform="translate(603.87 692.81) rotate(-34.2)"><tspan x="0" y="0">i</tspan></text>
          <text class="cls-5" transform="translate(608.72 689.56) rotate(-36)"><tspan x="0" y="0">e</tspan></text>
          <text class="cls-5" transform="translate(617.67 683.04) rotate(-38.44)"><tspan x="0" y="0">s</tspan></text>
          <text class="cls-5" transform="translate(626.51 676.02) rotate(-41.03)"><tspan x="0" y="0">g</tspan></text>
          <text class="cls-5" transform="translate(635.4 668.27) rotate(-43.74)"><tspan x="0" y="0">o</tspan></text>
          <text class="cls-5" transform="translate(644.03 659.98) rotate(-46.48)"><tspan x="0" y="0">/</tspan></text>
          <text class="cls-5" transform="translate(651.96 651.62) rotate(-49.2)"><tspan x="0" y="0">c</tspan></text>
          <text class="cls-5" transform="translate(659.6 642.75) rotate(-52.03)"><tspan x="0" y="0">a</tspan></text>
          <text class="cls-5" transform="translate(667.26 633) rotate(-55.41)"><tspan x="0" y="0">m</tspan></text>
          <text class="cls-5" transform="translate(676.43 619.56) rotate(-58.76)"><tspan x="0" y="0">b</tspan></text>
          <text class="cls-5" transform="translate(682.66 609.17) rotate(-60.83)"><tspan x="0" y="0">i</tspan></text>
          <text class="cls-5" transform="translate(685.57 604.05) rotate(-62.84)"><tspan x="0" y="0">o</tspan></text>
        </g>
      </g>
      <g>
        <text class="cls-3" transform="translate(192.05 562.36) rotate(67.37)"><tspan x="0" y="0"> </tspan></text>
        <text class="cls-3" transform="translate(193.86 566.8) rotate(65.77)"><tspan x="0" y="0">p</tspan></text>
        <text class="cls-3" transform="translate(198.51 577.11) rotate(63.57)"><tspan x="0" y="0">e</tspan></text>
        <text class="cls-3" transform="translate(203.43 587.01) rotate(61.33)"><tspan x="0" y="0">r</tspan></text>
        <text class="cls-3" transform="translate(209.21 597.54) rotate(59.14)"><tspan x="0" y="0">t</tspan></text>
        <text class="cls-3" transform="translate(214.7 606.7) rotate(57.07)"><tspan x="0" y="0">e</tspan></text>
        <text class="cls-3" transform="translate(220.69 615.97) rotate(54.81)"><tspan x="0" y="0">n</tspan></text>
        <text class="cls-3" transform="translate(228.07 626.39) rotate(52.55)"><tspan x="0" y="0">e</tspan></text>
        <text class="cls-3" transform="translate(234.78 635.16) rotate(50.29)"><tspan x="0" y="0">n</tspan></text>
        <text class="cls-3" transform="translate(242.95 644.97) rotate(47.97)"><tspan x="0" y="0">c</tspan></text>
        <text class="cls-3" transform="translate(250.64 653.42) rotate(46.33)"><tspan x="0" y="0">i</tspan></text>
        <text class="cls-3" transform="translate(254.63 657.66) rotate(44.62)"><tspan x="0" y="0">a</tspan></text>
        <text class="cls-3" transform="translate(263.3 666.2) rotate(42.35)"><tspan x="0" y="0">/</tspan></text>
        <text class="cls-3" transform="translate(271.75 673.89) rotate(40.16)"><tspan x="0" y="0">p</tspan></text>
        <text class="cls-3" transform="translate(280.4 681.17) rotate(38)"><tspan x="0" y="0">e</tspan></text>
        <text class="cls-3" transform="translate(289.1 687.97) rotate(35.76)"><tspan x="0" y="0">r</tspan></text>
        <text class="cls-3" transform="translate(298.88 694.99) rotate(33.49)"><tspan x="0" y="0">s</tspan></text>
        <text class="cls-3" transform="translate(308.24 701.18) rotate(31.24)"><tspan x="0" y="0">o</tspan></text>
        <text class="cls-3" transform="translate(318.41 707.34) rotate(28.83)"><tspan x="0" y="0">n</tspan></text>
        <text class="cls-3" transform="translate(329.63 713.5) rotate(26.39)"><tspan x="0" y="0">a</tspan></text>
        <text class="cls-3" transform="translate(340.55 718.9) rotate(24.11)"><tspan x="0" y="0">s</tspan></text>
      </g>
      <g>
        <text class="cls-4" transform="translate(199.57 373.6) rotate(-71.51)"><tspan x="0" y="0"> </tspan></text>
        <text class="cls-4" transform="translate(200.97 369.41) rotate(-70.83)"><tspan x="0" y="0"> </tspan></text>
        <text class="cls-4" transform="translate(202.4 365.28) rotate(-70.16)"><tspan x="0" y="0"> </tspan></text>
        <text class="cls-4" transform="translate(203.9 361.14) rotate(-69.48)"><tspan x="0" y="0"> </tspan></text>
        <text class="cls-4" transform="translate(205.44 357.02) rotate(-68.81)"><tspan x="0" y="0"> </tspan></text>
        <text class="cls-4" transform="translate(206.99 352.93) rotate(-67.66)"><tspan x="0" y="0">E</tspan></text>
        <text class="cls-4" transform="translate(210.95 343.28) rotate(-66.02)"><tspan x="0" y="0">S</tspan></text>
        <text class="cls-4" transform="translate(215.26 333.59) rotate(-64.39)"><tspan x="0" y="0">T</tspan></text>
        <text class="cls-4" transform="translate(219.13 325.45) rotate(-62.83)"><tspan x="0" y="0">A</tspan></text>
        <text class="cls-4" transform="translate(224.41 315.17) rotate(-60.94)"><tspan x="0" y="0">B</tspan></text>
        <text class="cls-4" transform="translate(230.05 305.1) rotate(-59.52)"><tspan x="0" y="0">I</tspan></text>
        <text class="cls-4" transform="translate(232.75 300.46) rotate(-58.23)"><tspan x="0" y="0">L</tspan></text>
        <text class="cls-4" transform="translate(237.83 292.31) rotate(-56.91)"><tspan x="0" y="0">I</tspan></text>
        <text class="cls-4" transform="translate(240.7 287.81) rotate(-55.39)"><tspan x="0" y="0">D</tspan></text>
        <text class="cls-4" transform="translate(247.25 278.32) rotate(-53.23)"><tspan x="0" y="0">A</tspan></text>
        <text class="cls-4" transform="translate(254.12 269.11) rotate(-50.99)"><tspan x="0" y="0">D</tspan></text>
        <text class="cls-4" transform="translate(261.46 260.13) rotate(-49.37)"><tspan x="0" y="0"> </tspan></text>
        <text class="cls-4" transform="translate(264.24 256.81) rotate(-47.78)"><tspan x="0" y="0">/</tspan></text>
        <text class="cls-4" transform="translate(271.54 248.84) rotate(-46.15)"><tspan x="0" y="0"> </tspan></text>
        <text class="cls-4" transform="translate(274.5 245.68) rotate(-44.44)"><tspan x="0" y="0">C</tspan></text>
        <text class="cls-4" transform="translate(282.26 238.06) rotate(-41.88)"><tspan x="0" y="0">O</tspan></text>
        <text class="cls-4" transform="translate(290.55 230.6) rotate(-39.05)"><tspan x="0" y="0">N</tspan></text>
        <text class="cls-4" transform="translate(299.89 223.04) rotate(-36.23)"><tspan x="0" y="0">T</tspan></text>
        <text class="cls-4" transform="translate(307.95 217.11) rotate(-33.38)"><tspan x="0" y="0">R</tspan></text>
        <text class="cls-4" transform="translate(317.38 210.89) rotate(-30.26)"><tspan x="0" y="0">O</tspan></text>
        <text class="cls-4" transform="translate(326.99 205.3) rotate(-27.29)"><tspan x="0" y="0">L</tspan></text>
      </g>
      <text class="cls-4" transform="translate(468.35 175.47) rotate(-2.08)"><tspan x="0" y="0">i</tspan></text>
      <text class="cls-4" transform="translate(473.51 175.17) rotate(1.63)"><tspan x="0" y="0">n</tspan></text>
      <text class="cls-4" transform="translate(485.39 175.51) rotate(6.21)"><tspan x="0" y="0">d</tspan></text>
      <text class="cls-4" transform="translate(496.71 176.76) rotate(10.09)"><tspan x="0" y="0">e</tspan></text>
      <text class="cls-4" transform="translate(506.86 178.55) rotate(13.54)"><tspan x="0" y="0">p</tspan></text>
      <text class="cls-4" transform="translate(517.14 181.03) rotate(16.73)"><tspan x="0" y="0">e</tspan></text>
      <text class="cls-4" transform="translate(527 183.97) rotate(19.9)"><tspan x="0" y="0">n</tspan></text>
      <text class="cls-4" transform="translate(538.31 188.06) rotate(23.03)"><tspan x="0" y="0">d</tspan></text>
      <text class="cls-4" transform="translate(548.9 192.58) rotate(25.77)"><tspan x="0" y="0">e</tspan></text>
      <text class="cls-4" transform="translate(558.22 197.05) rotate(28.43)"><tspan x="0" y="0">n</tspan></text>
      <text class="cls-4" transform="translate(568.82 202.8) rotate(31.05)"><tspan x="0" y="0">c</tspan></text>
      <text class="cls-4" transform="translate(578.17 208.48) rotate(32.85)"><tspan x="0" y="0">i</tspan></text>
      <text class="cls-4" transform="translate(582.67 211.32) rotate(34.67)"><tspan x="0" y="0">a</tspan></text>
      <text class="cls-4" transform="translate(592.12 217.87) rotate(37.02)"><tspan x="0" y="0">/</tspan></text>
      <text class="cls-4" transform="translate(600.71 224.33) rotate(39.33)"><tspan x="0" y="0">a</tspan></text>
      <text class="cls-4" transform="translate(609.59 231.6) rotate(41.6)"><tspan x="0" y="0">c</tspan></text>
      <text class="cls-4" transform="translate(617.75 238.86) rotate(43.72)"><tspan x="0" y="0">t</tspan></text>
      <text class="cls-4" transform="translate(625.03 245.81) rotate(45.86)"><tspan x="0" y="0">u</tspan></text>
      <text class="cls-4" transform="translate(632.86 253.87) rotate(48.14)"><tspan x="0" y="0">a</tspan></text>
      <text class="cls-4" transform="translate(640.54 262.45) rotate(50.25)"><tspan x="0" y="0">l</tspan></text>
      <text class="cls-4" transform="translate(646.67 269.88) rotate(51.76)"><tspan x="0" y="0">i</tspan></text>
      <text class="cls-4" transform="translate(650 274.03) rotate(53.36)"><tspan x="0" y="0">z</tspan></text>
      <text class="cls-4" transform="translate(656.25 282.41) rotate(55.59)"><tspan x="0" y="0">a</tspan></text>
      <text class="cls-4" transform="translate(662.73 291.87) rotate(57.88)"><tspan x="0" y="0">c</tspan></text>
      <text class="cls-4" transform="translate(668.52 301.16) rotate(59.56)"><tspan x="0" y="0">i</tspan></text>
      <text class="cls-4" transform="translate(671.25 305.73) rotate(61.29)"><tspan x="0" y="0">ó</tspan></text>
      <text class="cls-4" transform="translate(676.63 315.52) rotate(63.74)"><tspan x="0" y="0">n</tspan></text>
      <text class="cls-4" transform="translate(681.95 326.43) rotate(65.49)"><tspan x="0" y="0"> </tspan></text>
      <text class="cls-4" transform="translate(683.79 330.34) rotate(67.21)"><tspan x="0" y="0">d</tspan></text>
      <text class="cls-4" transform="translate(688.25 340.97) rotate(69.58)"><tspan x="0" y="0">e</tspan></text>
      <text class="cls-4" transform="translate(691.87 350.7) rotate(71.77)"><tspan x="0" y="0">l</tspan></text>
      <text class="cls-4" transform="translate(694.85 359.85) rotate(73.31)"><tspan x="0" y="0"> </tspan></text>
      <text class="cls-4" transform="translate(696.13 363.96) rotate(74.97)"><tspan x="0" y="0">s</tspan></text>
      <text class="cls-4" transform="translate(698.84 374.2) rotate(76.74)"><tspan x="0" y="0">í</tspan></text>
      <text class="cls-4" transform="translate(700.07 379.43) rotate(77.84)"><tspan x="0" y="0"> </tspan></text>
      <text class="cls-4" transform="translate(701.08 383.6) rotate(80.05)"><tspan x="0" y="0">m</tspan></text>
      <text class="cls-4" transform="translate(703.64 398.74) rotate(82.37)"><tspan x="0" y="0">i</tspan></text>
      <text class="cls-4" transform="translate(704.38 403.99) rotate(84.16)"><tspan x="0" y="0">s</tspan></text>
      <text class="cls-4" transform="translate(705.52 414.45) rotate(87.07)"><tspan x="0" y="0">m</tspan></text>
      <text class="cls-4" transform="translate(706.26 429.71) rotate(90.02)"><tspan x="0" y="0">o</tspan></text>
      <g>
        <text class="cls-2" transform="translate(350.79 426.7)"><tspan x="0" y="0">Modelo </tspan><tspan x="-53.23" y="75.05">arqueti</tspan><tspan class="cls-1" x="143.09" y="75.05">p</tspan><tspan x="171.48" y="75.05">al:</tspan></text>
        <text class="cls-2" transform="translate(350.79 426.7)"><tspan x="0" y="0">Modelo </tspan><tspan x="-53.23" y="75.05">arqueti</tspan><tspan class="cls-1" x="143.09" y="75.05">p</tspan><tspan x="171.48" y="75.05">al:</tspan></text>
      </g>
    </g>
  </g>
</svg>