<?xml version="1.0" encoding="UTF-8"?>
<svg id="Capa_2" data-name="Capa 2" xmlns="http://www.w3.org/2000/svg" xmlns:xlink="http://www.w3.org/1999/xlink" viewBox="0 0 386 352">
  <defs>
    <style>
      .cls-1 {
        letter-spacing: -.05em;
      }

      .cls-2 {
        fill: url(#Degradado_sin_nombre_4);
        filter: url(#drop-shadow-1);
        stroke-width: 0px;
      }

      .cls-3 {
        letter-spacing: 0em;
      }

      .cls-4 {
        fill: #fff;
      }

      .cls-4, .cls-5 {
        font-family: BebasNeueBold, 'Bebas Neue';
        font-size: 41px;
      }
    </style>
    <linearGradient id="Degradado_sin_nombre_4" data-name="Degradado sin nombre 4" x1="41.58" y1="-437.8" x2="257.46" y2="556.98" gradientUnits="userSpaceOnUse">
      <stop offset="0" stop-color="#e38520"/>
      <stop offset=".03" stop-color="#e27d23"/>
      <stop offset=".23" stop-color="#e05932"/>
      <stop offset=".42" stop-color="#de3d3d"/>
      <stop offset=".61" stop-color="#dd2946"/>
      <stop offset=".81" stop-color="#dc1d4b"/>
      <stop offset="1" stop-color="#dc1a4d"/>
    </linearGradient>
    <filter id="drop-shadow-1" filterUnits="userSpaceOnUse">
      <feOffset dx="0" dy="0"/>
      <feGaussianBlur result="blur" stdDeviation="6"/>
      <feFlood flood-color="#5e5e5e" flood-opacity=".5"/>
      <feComposite in2="blur" operator="in"/>
      <feComposite in="SourceGraphic"/>
    </filter>
  </defs>
  <g id="Capa_1-2" data-name="Capa 1">
    <g>
      <path class="cls-2" d="m197.72,18.45c-44.24,52.29-107.49,87.98-179.09,96.41v218.18c66.63,0,131.28-13.06,192.17-38.81,41.72-17.65,80.41-40.7,115.56-68.79,14.38-11.5,28.18-23.83,41.34-36.99,0,0,0,0,0,0L197.72,18.45Z"/>
      <g>
        <text class="cls-5" transform="translate(61.57 183.11)"><tspan x="0" y="0">cu</tspan><tspan class="cls-1" x="32.14" y="0">l</tspan><tspan x="43.99" y="0">tura y </tspan><tspan x="0" y="38.47">transform</tspan><tspan class="cls-3" x="149.61" y="38.47">a</tspan><tspan x="166.25" y="38.47">ción </tspan></text>
        <text class="cls-4" transform="translate(61.57 183.11)"><tspan x="0" y="0">cu</tspan><tspan class="cls-1" x="32.14" y="0">l</tspan><tspan x="43.99" y="0">tura y </tspan><tspan x="0" y="38.47">transform</tspan><tspan class="cls-3" x="149.61" y="38.47">a</tspan><tspan x="166.25" y="38.47">ción </tspan></text>
      </g>
    </g>
  </g>
</svg>