<?xml version="1.0" encoding="UTF-8"?>
<svg id="Capa_2" data-name="Capa 2" xmlns="http://www.w3.org/2000/svg" xmlns:xlink="http://www.w3.org/1999/xlink" viewBox="0 0 461 419">
  <defs>
    <style>
      .cls-1 {
        letter-spacing: -.05em;
      }

      .cls-2 {
        fill: url(#Degradado_sin_nombre_4);
        filter: url(#drop-shadow-1);
        stroke-width: 0px;
      }

      .cls-3 {
        font-family: Transducer-Regular, Transducer;
        font-size: 20px;
      }

      .cls-3, .cls-4 {
        fill: #fff;
      }

      .cls-5 {
        letter-spacing: -.12em;
      }

      .cls-6 {
        letter-spacing: 0em;
      }

      .cls-4, .cls-7 {
        font-family: BebasNeueBold, 'Bebas Neue';
        font-size: 41px;
      }

      .cls-8 {
        letter-spacing: 0em;
      }
    </style>
    <linearGradient id="Degradado_sin_nombre_4" data-name="Degradado sin nombre 4" x1="46.13" y1="-535.42" x2="308.2" y2="672.22" gradientUnits="userSpaceOnUse">
      <stop offset="0" stop-color="#e38520"/>
      <stop offset=".03" stop-color="#e27d23"/>
      <stop offset=".23" stop-color="#e05932"/>
      <stop offset=".42" stop-color="#de3d3d"/>
      <stop offset=".61" stop-color="#dd2946"/>
      <stop offset=".81" stop-color="#dc1d4b"/>
      <stop offset="1" stop-color="#dc1a4d"/>
    </linearGradient>
    <filter id="drop-shadow-1" filterUnits="userSpaceOnUse">
      <feOffset dx="0" dy="0"/>
      <feGaussianBlur result="blur" stdDeviation="6"/>
      <feFlood flood-color="#5e5e5e" flood-opacity=".5"/>
      <feComposite in2="blur" operator="in"/>
      <feComposite in="SourceGraphic"/>
    </filter>
  </defs>
  <g id="Capa_1-2" data-name="Capa 1">
    <g>
      <path class="cls-2" d="m235.68,18.45C181.97,81.93,87.49,120.51,18.27,115.53v284.83c80.88,0,159.37-15.85,233.29-47.12,50.65-21.42,97.62-49.4,140.29-83.51,17.46-13.96,34.21-28.92,50.19-44.9,0,0,0,0,0,0L235.68,18.45Z"/>
      <g>
        <text class="cls-7" transform="translate(103.65 151.53)"><tspan x="0" y="0">cu</tspan><tspan class="cls-1" x="32.14" y="0">l</tspan><tspan x="43.99" y="0">tura y </tspan><tspan x="0" y="38.47">transform</tspan><tspan class="cls-6" x="149.61" y="38.47">a</tspan><tspan x="166.25" y="38.47">ci贸n </tspan></text>
        <text class="cls-4" transform="translate(103.65 151.53)"><tspan x="0" y="0">cu</tspan><tspan class="cls-1" x="32.14" y="0">l</tspan><tspan x="43.99" y="0">tura y </tspan><tspan x="0" y="38.47">transform</tspan><tspan class="cls-6" x="149.61" y="38.47">a</tspan><tspan x="166.25" y="38.47">ci贸n </tspan></text>
      </g>
      <text class="cls-3" transform="translate(62.09 229.12)"><tspan x="0" y="0" xml:space="preserve">Apropiaci贸n de  cultura y </tspan><tspan x=".02" y="23" xml:space="preserve">definici贸n de estrategias  </tspan><tspan x=".03" y="46">para acti</tspan><tspan class="cls-8" x="95.76" y="46">v</tspan><tspan x="107.12" y="46" xml:space="preserve">ar  el camino  </tspan><tspan x=".05" y="69" xml:space="preserve">a los resultados con  </tspan><tspan class="cls-8" x=".06" y="92">v</tspan><tspan x="11.42" y="92">alor pasando del </tspan><tspan x=".08" y="115">saber al hace</tspan><tspan class="cls-5" x="143.88" y="115">r</tspan><tspan x="152.45" y="115">.</tspan></text>
    </g>
  </g>
</svg>