<?xml version="1.0" encoding="UTF-8"?>
<svg id="Capa_2" data-name="Capa 2" xmlns="http://www.w3.org/2000/svg" xmlns:xlink="http://www.w3.org/1999/xlink" viewBox="0 0 385 367">
  <defs>
    <style>
      .cls-1 {
        fill: url(#Degradado_sin_nombre_51-5);
      }

      .cls-1, .cls-2, .cls-3, .cls-4, .cls-5, .cls-6, .cls-7 {
        stroke-width: 0px;
      }

      .cls-2 {
        fill: url(#Degradado_sin_nombre_51-2);
      }

      .cls-8 {
        fill: #404242;
        font-family: Transducer-Regular, Transducer;
        font-size: 22.18px;
      }

      .cls-9 {
        letter-spacing: 0em;
      }

      .cls-3 {
        fill: url(#Degradado_sin_nombre_51);
      }

      .cls-4 {
        fill: url(#Degradado_sin_nombre_9);
      }

      .cls-5 {
        fill: url(#Degradado_sin_nombre_51-3);
      }

      .cls-6 {
        fill: #eef0f6;
        filter: url(#drop-shadow-1);
      }

      .cls-7 {
        fill: url(#Degradado_sin_nombre_51-4);
      }
    </style>
    <filter id="drop-shadow-1" filterUnits="userSpaceOnUse">
      <feOffset dx="9.58" dy="9.58"/>
      <feGaussianBlur result="blur" stdDeviation="7.18"/>
      <feFlood flood-color="#000" flood-opacity=".15"/>
      <feComposite in2="blur" operator="in"/>
      <feComposite in="SourceGraphic"/>
    </filter>
    <linearGradient id="Degradado_sin_nombre_9" data-name="Degradado sin nombre 9" x1="82.4" y1="93.65" x2="27.82" y2="39.08" gradientUnits="userSpaceOnUse">
      <stop offset="0" stop-color="#e38520"/>
      <stop offset=".26" stop-color="#e28221"/>
      <stop offset=".44" stop-color="#e27825"/>
      <stop offset=".6" stop-color="#e1692b"/>
      <stop offset=".75" stop-color="#df5334"/>
      <stop offset=".89" stop-color="#dd3640"/>
      <stop offset="1" stop-color="#dc1a4d"/>
    </linearGradient>
    <linearGradient id="Degradado_sin_nombre_51" data-name="Degradado sin nombre 51" x1="247.84" y1="165.16" x2="161.07" y2="224.72" gradientUnits="userSpaceOnUse">
      <stop offset="0" stop-color="#dc1a4d"/>
      <stop offset=".2" stop-color="#dc1d4b"/>
      <stop offset=".39" stop-color="#dd2946"/>
      <stop offset=".58" stop-color="#de3c3e"/>
      <stop offset=".76" stop-color="#e05633"/>
      <stop offset=".94" stop-color="#e27824"/>
      <stop offset=".98" stop-color="#e38221"/>
    </linearGradient>
    <linearGradient id="Degradado_sin_nombre_51-2" data-name="Degradado sin nombre 51" x1="2544.94" y1="2089.34" x2="2458.17" y2="2148.9" gradientTransform="translate(-1365.55 -2719.69) rotate(21.45)" xlink:href="#Degradado_sin_nombre_51"/>
    <linearGradient id="Degradado_sin_nombre_51-3" data-name="Degradado sin nombre 51" x1="-1530.39" y1="-4132.95" x2="-1617.17" y2="-4073.39" gradientTransform="translate(3766.14 2774.53) rotate(-33.02)" xlink:href="#Degradado_sin_nombre_51"/>
    <linearGradient id="Degradado_sin_nombre_51-4" data-name="Degradado sin nombre 51" x1="2536.49" y1="2077.03" x2="2449.72" y2="2136.59" gradientTransform="translate(-1365.55 -2719.69) rotate(21.45)" xlink:href="#Degradado_sin_nombre_51"/>
    <linearGradient id="Degradado_sin_nombre_51-5" data-name="Degradado sin nombre 51" x1="-1540.28" y1="-4147.35" x2="-1627.05" y2="-4087.79" gradientTransform="translate(3766.14 2774.53) rotate(-33.02)" xlink:href="#Degradado_sin_nombre_51"/>
  </defs>
  <g id="Capa_1-2" data-name="Capa 1">
    <g>
      <g>
        <path class="cls-6" d="m285.31,12.92L47.59,34.99c-26.87-1.75-44.08,28.06-29.13,50.45l99.75,216.9c29.35,43.95,94.64,41.82,121.06-3.94l103.15-178.66c26.43-45.77-4.38-103.38-57.12-106.82Z"/>
        <path class="cls-4" d="m101.17,30c-10.55,40.24-31.58,76.2-59.98,104.87l-22.74-49.43c-14.93-22.39,2.27-52.19,29.15-50.46l53.57-4.98Z"/>
      </g>
      <text class="cls-8" transform="translate(115.59 78.37)"><tspan x="0" y="0">SCP (Solución </tspan><tspan x="0" y="26.61">creati</tspan><tspan class="cls-9" x="69.63" y="26.61">v</tspan><tspan x="82.22" y="26.61">a de </tspan><tspan x="0" y="53.22">problemas)</tspan></text>
      <g>
        <path class="cls-3" d="m176.35,216.08c-.37.81-.61,1.49-.97,2.1-1.69,2.88-4.23,4.42-7.56,4.59-.66.03-.91.25-1.11.84-1.15,3.39-2.36,6.77-3.53,10.15-.41,1.18-.36,2.34.13,3.5,1.95,4.54,3.88,9.08,5.82,13.62.63,1.46.68,3,.59,4.55-.05.83-.72,1.41-1.51,1.4-.79,0-1.55-.6-1.46-1.42.24-2.3-.81-4.22-1.65-6.21-1.53-3.62-3.08-7.23-4.61-10.85-.78-1.85-.81-3.72-.14-5.62,1.16-3.29,2.3-6.59,3.45-9.88.16-.45.23-.72-.34-1.02-3.44-1.83-5.22-4.74-4.99-8.62.24-3.96,2.41-6.65,6.12-8.07.14-.05.27-.11.63-.25-.55-.49-1.01-.87-1.43-1.28-2.23-2.22-4.46-4.45-6.68-6.68-1.01-1.02-1.02-1.72-.01-2.73,2.4-2.41,4.81-4.81,7.21-7.22.24-.24.54-.42.65-.77-5.26-2.76-7.18-5.9-6.39-10.48.64-3.7,3.77-6.76,7.47-7.31,4.51-.66,7.79,1.4,10.3,6.56,1.17-1.19,2.32-2.35,3.47-3.5,1.49-1.5,2.98-2.99,4.48-4.48,1-.99,1.74-1,2.75,0,3.01,3,6.01,6.02,9.03,9.01.53.52.89,1.08.65,1.84-.23.72-.83.96-1.52,1.11-2.97.66-4.9,3.04-4.87,5.99.03,2.88,2.05,5.28,4.94,5.87,3.12.63,6.27-1.45,6.98-4.62.12-.52.18-1.07.65-1.42.67-.49,1.39-.5,1.98.09,3.22,3.19,6.43,6.39,9.62,9.62.73.74.62,1.56-.22,2.4-2.42,2.44-4.85,4.86-7.28,7.29-.24.24-.47.49-.76.8,2.84.92,4.87,2.64,5.98,5.33,1.99,4.82-.47,10.24-5.42,11.97-.62.22-.8.48-.79,1.12.04,2.42.02,4.85.01,7.27,0,3.45-2.37,5.45-5.8,4.96-2.27-.33-4.26-1.24-6.12-2.91.07,1.44.54,2.54,1.08,3.62.72,1.44,1.35,2.91,1.61,4.51.48,2.88.14,5.64-1.11,8.28-.19.4-.36.81-.59,1.18-.88,1.46-1.41,3.01-1.17,4.75.01.09,0,.19,0,.28-.07.9-.68,1.51-1.5,1.51-.82,0-1.46-.6-1.51-1.5-.1-1.93,0-3.8,1.05-5.56.92-1.53,1.7-3.17,1.93-4.98.3-2.31-.03-4.53-1.15-6.59-1.34-2.47-1.88-5.09-1.86-7.9.06-5.73.03-11.46.01-17.2-.01-3.19-2.9-5.35-5.87-4.45-1.94.59-3.19,2.34-3.19,4.52,0,5.89,0,11.78,0,17.67,0,.94,0,1.89,0,2.83,0,1.27-.55,1.98-1.51,1.98-.97,0-1.51-.7-1.51-1.98,0-4.69-.01-9.39.01-14.08,0-.68-.14-1.19-.67-1.65-.63-.56-1.17-1.21-1.81-1.88Zm16.08-39.48c-2.07-2.06-4.1-4.04-6.08-6.07-.49-.5-.76-.58-1.3-.03-2.82,2.88-5.69,5.71-8.54,8.56-.24.24-.49.5-.78.67-.97.57-2.13-.05-2.22-1.17-.02-.31.02-.63.02-.94.08-3.53-2.54-6.22-6.05-6.22-3.44,0-6.15,2.79-6.02,6.17.14,3.44,3.02,6.03,6.49,5.79.85-.06,1.59.02,1.99.88.41.89-.1,1.49-.68,2.07-2.88,2.87-5.74,5.75-8.64,8.6-.49.48-.54.74-.02,1.24,2.7,2.64,5.35,5.33,8.02,8.01.36.36.73.7,1.06,1.08.4.46.52,1,.25,1.58-.28.6-.75.91-1.42.89-.35,0-.69-.03-1.04-.03-4.12,0-7.02,4.04-5.71,7.94.95,2.82,3.83,4.57,6.67,4.06,3.18-.57,5.22-3.12,5.08-6.39-.03-.82-.05-1.6.84-2.01.94-.43,1.54.12,2.13.73.71.74,1.43,1.46,2.22,2.27.58-4.17.74-4.76,1.75-6.01,1.37-1.7,3.16-2.67,5.34-2.84,1.86-.15,3.55.34,5.06,1.45,1.96,1.45,2.9,3.46,3.26,5.94.36-.26.58-.61.85-.91.53-.6,1.15-1.02,1.99-.63.86.39.96,1.12.89,1.98-.28,3.19,1.97,5.96,5.21,6.46,3,.47,6.01-1.64,6.7-4.69.69-3.06-1.17-6.22-4.19-7.11-.86-.25-1.73-.25-2.62-.21-.94.05-1.56-.49-1.65-1.31-.07-.67.29-1.12.73-1.56,2.92-2.92,5.83-5.83,8.73-8.77.21-.21.76-.37.27-.87-2.14-2.12-4.26-4.26-6.42-6.41-2.36,3.93-5.7,5.81-10.19,4.86-3.76-.79-6.17-3.25-6.9-7.04-.85-4.43,1.02-7.7,4.92-10.03Zm2.61,39.43c-.43.7-1.13.9-1.12,1.74.04,2.51-.02,5.03.03,7.54.08,3.82,3.13,7,6.94,7.31,1.48.12,2.11-.45,2.11-1.92,0-1.92,0-3.84,0-5.75,0-.69.18-1.49-.11-2.04-.26-.5-1.16-.27-1.73-.52-.06-.02-.12-.05-.18-.07-2.97-1.03-4.88-3.1-5.95-6.29Z"/>
        <path class="cls-2" d="m141.61,176.82c1.31.52,2.63,1.03,3.94,1.55,1.03.41,1.44,1.2,1.11,2.05-.33.85-1.18,1.16-2.2.76-2.66-1.03-5.32-2.08-7.98-3.13-1.01-.4-1.41-1.24-1.05-2.08.35-.81,1.16-1.11,2.14-.74,1.35.51,2.69,1.05,4.03,1.58Z"/>
        <path class="cls-5" d="m217.7,177.75c-1.21.79-2.42,1.58-3.63,2.36-.91.58-1.83.42-2.3-.36-.46-.76-.22-1.59.66-2.17,2.42-1.58,4.84-3.16,7.27-4.72.87-.56,1.75-.4,2.23.34.48.74.26,1.61-.59,2.18-1.2.8-2.42,1.58-3.63,2.37Z"/>
        <path class="cls-7" d="m154.54,164.89c-.46,1.07-1.82,1.24-2.63.27-1.3-1.57-2.55-3.18-3.82-4.78-.57-.71-1.15-1.41-1.7-2.14-.6-.79-.53-1.63.13-2.18.69-.57,1.59-.47,2.23.32,1.84,2.27,3.64,4.56,5.47,6.84.4.5.53,1.05.31,1.67Z"/>
        <path class="cls-1" d="m203.04,166.54c-.63.36-1.25.36-1.82-.13-.61-.53-.66-1.19-.32-1.88.71-1.43,1.44-2.86,2.17-4.28.61-1.2,1.21-2.41,1.85-3.6.48-.89,1.34-1.17,2.12-.75.75.41,1.01,1.22.56,2.11-1.32,2.64-2.67,5.26-4.01,7.88-.13.25-.28.5-.54.64Z"/>
      </g>
    </g>
  </g>
</svg>