<?xml version="1.0" encoding="UTF-8"?>
<svg id="Capa_2" data-name="Capa 2" xmlns="http://www.w3.org/2000/svg" xmlns:xlink="http://www.w3.org/1999/xlink" viewBox="0 0 394 361">
  <defs>
    <style>
      .cls-1 {
        fill: url(#Degradado_sin_nombre_113);
      }

      .cls-1, .cls-2, .cls-3, .cls-4, .cls-5, .cls-6 {
        stroke-width: 0px;
      }

      .cls-7 {
        fill: #404242;
        font-family: Transducer-Regular, Transducer;
        font-size: 22.18px;
      }

      .cls-2 {
        fill: url(#Degradado_sin_nombre_9);
      }

      .cls-3 {
        fill: url(#Degradado_sin_nombre_9-4);
      }

      .cls-4 {
        fill: url(#Degradado_sin_nombre_9-3);
      }

      .cls-5 {
        fill: #eef0f6;
        filter: url(#drop-shadow-1);
      }

      .cls-6 {
        fill: url(#Degradado_sin_nombre_9-2);
      }
    </style>
    <filter id="drop-shadow-1" filterUnits="userSpaceOnUse">
      <feOffset dx="9.58" dy="9.58"/>
      <feGaussianBlur result="blur" stdDeviation="7.18"/>
      <feFlood flood-color="#000" flood-opacity=".15"/>
      <feComposite in2="blur" operator="in"/>
      <feComposite in="SourceGraphic"/>
    </filter>
    <linearGradient id="Degradado_sin_nombre_9" data-name="Degradado sin nombre 9" x1="187.32" y1="83.18" x2="187.32" y2="12.31" gradientUnits="userSpaceOnUse">
      <stop offset="0" stop-color="#e38520"/>
      <stop offset=".26" stop-color="#e28221"/>
      <stop offset=".44" stop-color="#e27825"/>
      <stop offset=".6" stop-color="#e1692b"/>
      <stop offset=".75" stop-color="#df5334"/>
      <stop offset=".89" stop-color="#dd3640"/>
      <stop offset="1" stop-color="#dc1a4d"/>
    </linearGradient>
    <linearGradient id="Degradado_sin_nombre_9-2" data-name="Degradado sin nombre 9" x1="141.35" y1="303.78" x2="224.1" y2="239.2" xlink:href="#Degradado_sin_nombre_9"/>
    <linearGradient id="Degradado_sin_nombre_9-3" data-name="Degradado sin nombre 9" x1="141.21" y1="303.6" x2="223.96" y2="239.02" xlink:href="#Degradado_sin_nombre_9"/>
    <linearGradient id="Degradado_sin_nombre_9-4" data-name="Degradado sin nombre 9" x1="134.76" y1="295.33" x2="217.51" y2="230.75" xlink:href="#Degradado_sin_nombre_9"/>
    <linearGradient id="Degradado_sin_nombre_113" data-name="Degradado sin nombre 113" x1="153.96" y1="299.09" x2="159.05" y2="295.12" gradientUnits="userSpaceOnUse">
      <stop offset="0" stop-color="#e38520"/>
      <stop offset=".26" stop-color="#e38221"/>
      <stop offset=".35" stop-color="#e37f23"/>
    </linearGradient>
  </defs>
  <g id="Capa_1-2" data-name="Capa 1">
    <g>
      <g>
        <path class="cls-5" d="m354.43,225.25L216.46,30.41c-11.92-24.14-46.34-24.14-58.26,0L20.24,225.25c-23.39,47.39,11.1,102.87,63.95,102.87h206.29c52.85,0,87.34-55.48,63.95-102.87Z"/>
        <path class="cls-2" d="m216.47,30.42l31.67,44.73c-19.39,5.25-39.78,8.03-60.84,8.03s-41.4-2.79-60.79-8l31.69-44.75c11.93-24.15,46.35-24.15,58.27,0Z"/>
      </g>
      <text class="cls-7" transform="translate(112.88 151.96)"><tspan x="0" y="0">6 Sombreros</tspan><tspan x="0" y="26.61">de creatividad</tspan></text>
      <g>
        <g>
          <path class="cls-6" d="m181.86,224.86c-1.82,1.14-2.97,2.6-3.83,4.32-1.39,2.79-2.02,5.83-2.92,8.78-.16.54-.28,1.1-.47,1.63-.31.86-1.11,1.25-1.91.99-.74-.24-1.2-1.02-.95-1.84.99-3.34,1.75-6.76,3.13-9.98,1.19-2.76,2.95-5.08,5.56-6.61,2.22-1.3,3.65-3.1,4.68-5.48,1.99-4.64,4.6-8.93,8.27-12.48,1.57-1.52,3.32-2.76,5.53-3.21,3.94-.8,6.57,1.42,6.37,5.43-.13,2.71-.98,5.29-1.58,7.91-.43,1.88-.86,3.76-.89,5.7-.02,1.16.22,2.23.74,3.27.49.98.9,2,1.33,3.01,1.43,3.39,1.35,6.77-.67,9.84-1.46,2.22-1.19,4.19-.13,6.35,1.22,2.48,2.66,4.83,4.15,7.16,3.16,4.96,6.46,9.85,9.11,15.12.27.54.73.63,1.19.78,4.29,1.39,8.41,3.13,12.12,5.73,1.48,1.03,2.84,2.2,4.01,3.58,4.02,4.77,3.95,10.24-.22,14.88-3.19,3.55-7.28,5.77-11.61,7.55-6.66,2.73-13.64,4.2-20.77,5.04-8.5,1-17,1.04-25.5.16-5.77-.6-11.45-1.65-16.99-3.37-1.15-.36-1.64-1.06-1.38-1.94.28-.94,1.08-1.28,2.26-.93,10.96,3.27,22.18,4.23,33.56,3.71,8.11-.37,16.08-1.52,23.82-4.04,4.45-1.45,8.71-3.29,12.39-6.26,1.22-.99,2.31-2.11,3.15-3.45,1.67-2.69,1.68-5.39-.02-8.08-1.33-2.1-3.21-3.63-5.25-4.97-2.52-1.65-5.25-2.86-8.05-3.92-.18-.07-.37-.09-.69-.17.81,2.21,1.43,4.33,1.96,6.48.66,2.68-.01,4.93-1.76,6.94-1.62,1.87-3.69,3.13-5.9,4.19-.83.4-1.67.09-2.04-.66-.38-.75-.13-1.56.72-2.02,1.2-.65,2.41-1.27,3.5-2.11.87-.68,1.64-1.45,2.21-2.42.63-1.08.64-2.21.31-3.37-.09-.32-.22-.45-.56-.27-1.34.73-2.66.46-3.91-.2-1.09-.57-2.11-.58-3.2,0-.82.44-1.71.72-2.69.58-1.82-.27-3.32-1.74-3.11-3.55.24-2.1-.3-3.69-1.69-5.3-1.63-1.89-.59-4.98,1.85-5.49,2.04-.43,3.36-1.37,4.33-3.17.37-.69.46-1.04.04-1.69-2.56-4.01-5.28-7.91-7.49-12.14-.82-1.56-1.52-3.18-1.8-4.94-.21-1.33-.04-2.58.68-3.74.21-.34.39-.7.6-1.03,1.68-2.67,1.78-5.41.51-8.28-.69-1.54-1.6-2.99-1.91-4.7-.51-2.83.11-5.56.71-8.29.53-2.4,1.26-4.75,1.56-7.21.37-3-1.39-3.17-3.4-2.58-1.27.37-2.29,1.2-3.25,2.08-1.71,1.56-3.07,3.41-4.33,5.33-.16.24-.39.47,0,.74.85.59,1.29,1.52,1.77,2.38.38.68.89,1.02,1.63,1.15.59.11,1.17.25,1.74.44,2.33.77,3.4,3.63,1.83,5.5-1.35,1.61-1.93,3.15-1.73,5.29.24,2.53-2.45,4.38-4.8,3.36-1.81-.78-3.35-.79-5.17,0-2.43,1.05-4.93-.87-4.88-3.54.01-.6.09-1.19.15-1.99Zm2.87,1.76c-.04.94.31,1.19,1.22.85.47-.17.94-.34,1.39-.56,1.22-.59,2.43-.59,3.65,0,.48.23.98.42,1.48.6.83.29,1.19.02,1.15-.87-.02-.4-.06-.8-.11-1.19-.23-1.59.18-2.96,1.33-4.1.33-.33.61-.7.89-1.07.42-.56.3-.99-.37-1.22-.25-.08-.51-.17-.77-.2-2.08-.21-3.49-1.32-4.36-3.19-.07-.15-.18-.28-.26-.42-.28-.54-.53-.63-.82,0-.5,1.09-1.06,2.14-1.53,3.24-.65,1.51-1.37,2.96-2.62,4.08-.18.16-.36.32-.28.59.37,1.15.1,2.31.03,3.47Zm26.92,34.04c-.33.52-.59.87-.79,1.25-.68,1.29-1.71,2.09-3.16,2.34-.42.07-.84.21-1.26.32-1.09.28-1.21.64-.52,1.51.27.34.53.68.84.99,1.11,1.14,1.4,2.49,1.21,4.04-.3,2.42-.15,2.55,2.11,1.55,1.55-.69,2.99-.76,4.49.03.41.21.86.37,1.3.5.54.16.88-.1.87-.64-.02-.79.05-1.65-.22-2.37-1.27-3.29-2.95-6.37-4.86-9.51Z"/>
          <path class="cls-4" d="m158.36,268.84c-4.93,1.83-9.5,3.78-13.02,7.53-3.59,3.82-3.53,7.96.09,11.77,2.33,2.46,5.23,4.08,8.24,5.52.33.16.68.28.99.46.72.42,1.02,1.04.74,1.85-.26.75-1.11,1.22-1.87.89-4.89-2.16-9.51-4.72-12.39-9.49-2.36-3.91-1.87-8.37,1.19-12.16,2.51-3.1,5.81-5.13,9.33-6.86,2.39-1.18,4.88-2.12,7.42-2.9.56-.17.88-.46,1.11-1,2.88-6.83,6.38-13.38,9.56-20.07.44-.93,1.23-1.27,2.03-.92.82.35,1.14,1.23.68,2.19-1.72,3.56-3.45,7.12-5.23,10.65-.37.73-.54,1.2.34,1.73.83.5,1.2,1.49,1.68,2.32.33.57.76.88,1.39,1,.62.12,1.24.26,1.84.46,2.4.79,3.48,3.65,1.85,5.55-1.39,1.62-1.87,3.2-1.71,5.3.19,2.48-2.43,4.34-4.74,3.35-1.86-.8-3.47-.96-5.27.02-.91.49-1.96.32-2.88-.19-.46-.26-.56-.14-.73.32-.58,1.59-.18,2.94.85,4.17,1.82,2.15,4.26,3.37,6.8,4.4,4.54,1.83,9.29,2.75,14.15,3.21.32.03.8.32.97-.15.15-.42.2-.92-.14-1.33-.45-.54-.9-1.07-1.34-1.61-1.88-2.35-.89-5.35,2.01-6.09.16-.04.32-.1.48-.11,1.5-.1,2.3-1.03,3-2.26,1.1-1.93,2.71-2.59,4.49-2.02,1.04.34,1.78,1.06,2.24,2.01.64,1.32,1.61,1.99,3.08,2.32,3.55.8,4.42,3.72,2.08,6.53-.32.38-.63.77-.96,1.15-.35.4-.38.9-.2,1.32.21.49.7.18,1.06.14,3.01-.34,5.98-.9,8.91-1.69,1.06-.29,1.85.11,2.1.95.26.88-.26,1.66-1.36,1.96-6.08,1.65-12.28,2.32-18.56,2.3-7.53-.02-14.94-.88-22.07-3.43-2.93-1.05-5.7-2.4-8.01-4.55-1.37-1.27-2.38-2.76-2.76-4.63-.2-.98-.05-1.92.18-2.86.57-2.33,1.42-4.56,2.35-7.04Zm30.71,19.46s0-.03,0-.04c1.23,0,2.46,0,3.69,0,.35,0,.8.02.71-.56-.29-1.83.75-3.07,1.84-4.32,1.03-1.18.93-1.57-.63-1.83-2.1-.35-3.63-1.35-4.52-3.31-.08-.18-.2-.35-.31-.51-.49-.7-.99-.76-1.34,0-1.09,2.34-2.86,3.66-5.42,3.95-.07,0-.13.03-.19.06-.59.22-.65.62-.33,1.1.14.22.32.42.51.62,1.13,1.22,2.09,2.52,1.79,4.33-.08.49.26.53.62.53,1.2,0,2.39,0,3.59,0Zm-28.18-16.79c-.02.29-.04.49-.05.69-.04.98.27,1.21,1.2.87.5-.18.99-.38,1.48-.6,1.16-.53,2.31-.53,3.47,0,.42.19.86.35,1.29.52,1.17.46,1.46.27,1.41-.96,0-.23,0-.47-.05-.7-.37-1.78.14-3.25,1.4-4.55,1.61-1.67,1.38-2.04-.84-2.43-1.66-.29-2.88-1.12-3.63-2.65-.14-.3-.33-.57-.52-.85-.14-.21-.23-.55-.53-.54-.31.01-.32.38-.42.6-1.34,2.86-2.6,5.75-3.78,8.67-.26.65-.49,1.31-.42,1.93Z"/>
          <path class="cls-3" d="m181.72,256.79c.66-1.61-.29-2.94-1.47-4.34-1.84-2.17-.84-5.23,1.93-5.85,1.79-.4,2.95-1.21,3.88-2.82,1.45-2.52,4.74-2.53,6.2-.02.92,1.6,2.08,2.43,3.87,2.83,2.79.62,3.72,3.6,2,5.87-.04.05-.07.11-.12.16-1.35,1.17-1.63,2.58-1.43,4.36.33,2.92-2.38,4.94-5.04,3.73-1.71-.77-3.13-.67-4.79.04-2.59,1.11-5.13-.83-5.02-3.95Zm3.02.11c-.07,1.07.28,1.32,1.3.93.43-.16.88-.31,1.3-.51,1.26-.62,2.5-.58,3.74.02.36.17.74.3,1.11.45,1.19.47,1.61.21,1.38-1.05-.38-2.17.11-3.96,1.69-5.55,1.16-1.17,1.02-1.63-.6-1.89-2.13-.34-3.55-1.42-4.53-3.31-.74-1.42-1.14-1.41-1.91-.03-.91,1.64-2.04,2.91-4.03,3.22-2.45.39-2.19.95-.75,2.45,1.2,1.25,1.65,2.69,1.39,4.38-.05.3-.06.6-.09.89Z"/>
        </g>
        <polygon class="cls-1" points="154.67 294.13 160.47 296.25 159.59 299.11 153.54 296.87 154.67 294.13"/>
      </g>
    </g>
  </g>
</svg>