<?xml version="1.0" encoding="UTF-8" standalone="no"?>
<svg
   xmlns:dc="http://purl.org/dc/elements/1.1/"
   xmlns:cc="http://creativecommons.org/ns#"
   xmlns:rdf="http://www.w3.org/1999/02/22-rdf-syntax-ns#"
   xmlns:svg="http://www.w3.org/2000/svg"
   xmlns="http://www.w3.org/2000/svg"
   xmlns:xlink="http://www.w3.org/1999/xlink"
   xmlns:sodipodi="http://sodipodi.sourceforge.net/DTD/sodipodi-0.dtd"
   xmlns:inkscape="http://www.inkscape.org/namespaces/inkscape"
   width="1820"
   height="180"
   viewBox="0 0 1365 135"
   version="1.1"
   id="svg39"
   sodipodi:docname="fondo_footer_chk.svg"
   inkscape:version="0.92.3 (2405546, 2018-03-11)">
  <metadata
     id="metadata43">
    <rdf:RDF>
      <cc:Work
         rdf:about="">
        <dc:format>image/svg+xml</dc:format>
        <dc:type
           rdf:resource="http://purl.org/dc/dcmitype/StillImage" />
      </cc:Work>
    </rdf:RDF>
  </metadata>
  <sodipodi:namedview
     pagecolor="#ffffff"
     bordercolor="#666666"
     borderopacity="1"
     objecttolerance="10"
     gridtolerance="10"
     guidetolerance="10"
     inkscape:pageopacity="0"
     inkscape:pageshadow="2"
     inkscape:window-width="1920"
     inkscape:window-height="1030"
     id="namedview41"
     showgrid="false"
     inkscape:zoom="0.47258483"
     inkscape:cx="1001"
     inkscape:cy="-111.54839"
     inkscape:window-x="1366"
     inkscape:window-y="0"
     inkscape:window-maximized="1"
     inkscape:current-layer="svg39" />
  <defs
     id="defs29">
    <clipPath
       id="c">
      <path
         d="M.68.89h7.597v18.227H.68zm0 0"
         id="path2" />
    </clipPath>
    <clipPath
       id="b">
      <path
         d="M0 0h9v20H0z"
         id="path5" />
    </clipPath>
    <clipPath
       id="e">
      <path
         d="M.895.75h21.07v8.93H.895zm0 0"
         id="path8" />
    </clipPath>
    <clipPath
       id="d">
      <path
         d="M0 0h22v10H0z"
         id="path11" />
    </clipPath>
    <clipPath
       id="g">
      <path
         d="M.414.602h19.043v8.136H.414zm0 0"
         id="path14" />
    </clipPath>
    <clipPath
       id="f">
      <path
         d="M0 0h20v9H0z"
         id="path17" />
    </clipPath>
    <clipPath
       id="i">
      <path
         d="M.238.535h10.828V25.45H.238zm0 0"
         id="path20" />
    </clipPath>
    <clipPath
       id="h">
      <path
         d="M0 0h12v26H0z"
         id="path23" />
    </clipPath>
    <filter
       id="a"
       filterUnits="objectBoundingBox"
       x="0"
       y="0"
       width="1"
       height="1">
      <feColorMatrix
         in="SourceGraphic"
         values="0 0 0 0 1 0 0 0 0 1 0 0 0 0 1 0 0 0 1 0"
         id="feColorMatrix26" />
    </filter>
  </defs>
  <use
     height="100%"
     width="100%"
     y="473.63599"
     x="333.23999"
     xlink:href="#j"
     transform="rotate(180,0,1034.5)"
     id="use31"
     style="fill:#3578c5" />
  <use
     height="100%"
     width="100%"
     y="473.63901"
     x="706.237"
     xlink:href="#j"
     transform="rotate(180,0,1034.5)"
     id="use33"
     style="fill:#3578c5" />
  <use
     height="100%"
     width="100%"
     y="1262.793"
     x="495.086"
     xlink:href="#k"
     transform="rotate(180,0,1034.5)"
     id="use35"
     style="fill:#707070" />
  <path
     d="M -0.484,135.657 C 52.926,81.04 416.279,38.763 749.788,38.763 h 616 V 0.55 L 744.503,7.435 C 411.512,18.7 50.728,73.541 -0.484,130.375 Z"
     id="path37"
     inkscape:connector-curvature="0"
     style="fill:#3578c5" />
</svg>
