
<svg xmlns="http://www.w3.org/2000/svg" xmlns:xlink="http://www.w3.org/1999/xlink" width="1820" height="180" viewBox="0 0 1365 135"><defs><clipPath id="c"><path d="M.68.89h7.597v18.227H.68zm0 0"/></clipPath><clipPath id="b"><path d="M0 0h9v20H0z"/></clipPath><clipPath id="e"><path d="M.895.75h21.07v8.93H.895zm0 0"/></clipPath><clipPath id="d"><path d="M0 0h22v10H0z"/></clipPath><clipPath id="g"><path d="M.414.602h19.043v8.136H.414zm0 0"/></clipPath><clipPath id="f"><path d="M0 0h20v9H0z"/></clipPath><clipPath id="i"><path d="M.238.535h10.828V25.45H.238zm0 0"/></clipPath><clipPath id="h"><path d="M0 0h12v26H0z"/></clipPath><filter id="a" filterUnits="objectBoundingBox" x="0" y="0" width="1" height="1"><feColorMatrix in="SourceGraphic" values="0 0 0 0 1 0 0 0 0 1 0 0 0 0 1 0 0 0 1 0"/></filter></defs><use height="100%" width="100%" y="473.636" x="333.24" xlink:href="#j" transform="translate(0 -1799)" fill="#3578c5"/><use height="100%" width="100%" y="473.639" x="706.237" xlink:href="#j" transform="translate(0 -1799)" fill="#3578c5"/><use height="100%" width="100%" y="1262.793" x="495.086" xlink:href="#k" transform="translate(0 -1799)" fill="#707070"/><path d="M1365.788.55c-53.41 54.617-416.763 96.894-750.272 96.894h-616v38.213l621.285-6.885c332.991-11.265 693.775-66.106 744.987-122.94z" fill="#3578c5"/></svg>
