<?xml version="1.0" encoding="UTF-8" standalone="no"?>
<!-- Created with Inkscape (http://www.inkscape.org/) -->

<svg
   xmlns:dc="http://purl.org/dc/elements/1.1/"
   xmlns:cc="http://creativecommons.org/ns#"
   xmlns:rdf="http://www.w3.org/1999/02/22-rdf-syntax-ns#"
   xmlns:svg="http://www.w3.org/2000/svg"
   xmlns="http://www.w3.org/2000/svg"
   xmlns:sodipodi="http://sodipodi.sourceforge.net/DTD/sodipodi-0.dtd"
   xmlns:inkscape="http://www.inkscape.org/namespaces/inkscape"
   width="1.4122604in"
   height="0.85877764in"
   viewBox="0 0 35.871414 21.812952"
   version="1.1"
   id="svg1020"
   inkscape:version="0.92.3 (2405546, 2018-03-11)"
   sodipodi:docname="logoike.svg">
  <defs
     id="defs1014" />
  <sodipodi:namedview
     id="base"
     pagecolor="#ffffff"
     bordercolor="#666666"
     borderopacity="1.0"
     inkscape:pageopacity="0.0"
     inkscape:pageshadow="2"
     inkscape:zoom="0.35"
     inkscape:cx="-506.49722"
     inkscape:cy="141.22131"
     inkscape:document-units="mm"
     inkscape:current-layer="layer1"
     showgrid="false"
     units="in"
     fit-margin-top="0"
     fit-margin-left="0"
     fit-margin-right="0"
     fit-margin-bottom="0"
     inkscape:window-width="1920"
     inkscape:window-height="1056"
     inkscape:window-x="1366"
     inkscape:window-y="0"
     inkscape:window-maximized="1" />
  <metadata
     id="metadata1017">
    <rdf:RDF>
      <cc:Work
         rdf:about="">
        <dc:format>image/svg+xml</dc:format>
        <dc:type
           rdf:resource="http://purl.org/dc/dcmitype/StillImage" />
        <dc:title></dc:title>
      </cc:Work>
    </rdf:RDF>
  </metadata>
  <g
     inkscape:label="Layer 1"
     inkscape:groupmode="layer"
     id="layer1"
     transform="translate(-87.897626,-164.38519)">
    <g
       transform="matrix(0.26458333,0,0,0.26458333,74.121037,144.41523)"
       id="g14">
      <path
         style="fill:none"
         inkscape:connector-curvature="0"
         d="m 158.016,112.053 c -5.512,0 -10.439,2.91 -12.305,7.978 -0.295,0.804 0.289,1.662 1.146,1.662 h 22.317 c 0.857,0 1.44,-0.858 1.145,-1.662 -1.864,-5.068 -6.793,-7.978 -12.303,-7.978 z"
         id="path2" />
      <path
         style="fill:#17427a"
         inkscape:connector-curvature="0"
         d="m 56.447,103.341 c -1.459,0 -2.642,1.182 -2.642,2.641 v 47.468 c 0,1.459 1.183,2.643 2.642,2.643 h 11.56 c 1.459,0 2.642,-1.184 2.642,-2.643 v -47.468 c 0,-1.459 -1.183,-2.641 -2.642,-2.641 z"
         id="path4" />
      <path
         style="fill:#17427a"
         inkscape:connector-curvature="0"
         d="M 96.764,75.477 H 86.479 c -3.051,0 -5.525,2.474 -5.525,5.527 v 74.056 c 0,0.57 0.462,1.032 1.033,1.032 h 14.777 c 0.571,0 1.034,-0.462 1.034,-1.032 V 129 H 98 l 15.632,26.583 c 0.186,0.316 0.524,0.509 0.891,0.509 h 16.579 c 0.819,0 1.313,-0.91 0.863,-1.597 l -19.132,-29.313 c -0.251,-0.384 -0.218,-0.888 0.081,-1.236 l 19.242,-22.466 c 0.574,-0.67 0.098,-1.705 -0.784,-1.705 h -17.235 c -0.322,0 -0.625,0.15 -0.82,0.406 L 98,120.172 H 97.798 V 76.51 c 0,-0.57 -0.463,-1.033 -1.034,-1.033 z"
         id="path6" />
      <path
         style="fill:#387bb5"
         inkscape:connector-curvature="0"
         d="m 157.914,97.848 c -17.315,0 -30.738,15.235 -29.441,32.551 1.193,15.938 15.121,28.228 31.089,27.489 11.378,-0.527 20.412,-7.727 25.336,-17.682 0.401,-0.813 -0.192,-1.771 -1.099,-1.771 h -14.758 c -0.363,0 -0.707,0.17 -0.939,0.45 -2.639,3.158 -5.52,4.828 -9.883,4.828 -6.081,0 -11.301,-3.365 -12.872,-9.139 -0.208,-0.766 0.396,-1.517 1.188,-1.517 h 39.672 c 0.614,0 1.127,-0.457 1.215,-1.065 0.164,-1.135 0.224,-2.238 0.224,-3.4 0,-16.945 -12.482,-30.744 -29.732,-30.744 z m 11.26,23.845 h -22.317 c -0.856,0 -1.44,-0.858 -1.146,-1.662 1.865,-5.068 6.793,-7.978 12.305,-7.978 5.511,0 10.439,2.91 12.303,7.978 0.295,0.804 -0.288,1.662 -1.145,1.662 z"
         id="path8" />
      <path
         style="fill:#387bb5"
         inkscape:connector-curvature="0"
         d="m 179.383,102.754 c 0.726,0.618 1.742,0.758 2.614,0.372 l 1.081,-0.479 c 3.2,-1.418 4.635,-5.167 3.202,-8.36 -1.501,-3.343 -5.522,-4.709 -8.75,-2.975 l -4.854,2.61 c -1.772,0.953 -1.763,3.523 0.037,4.421 2.405,1.2 4.642,2.685 6.67,4.411 z"
         id="path10" />
      <path
         style="fill:#ea9532"
         inkscape:connector-curvature="0"
         d="m 72.121,87.935 c 0.002,-0.009 0.009,-0.039 0.012,-0.048 0.002,-0.01 0.004,-0.021 0.006,-0.031 0.164,-0.733 0.246,-1.48 0.246,-2.221 0,-5.601 -4.556,-10.158 -10.158,-10.158 -5.602,0 -10.158,4.557 -10.158,10.158 0,5.311 4.096,9.683 9.295,10.123 v 4.552 c 0,0.34 0.201,0.648 0.512,0.788 0.112,0.05 0.232,0.075 0.351,0.075 0.209,0 0.415,-0.076 0.576,-0.221 0.319,-0.286 7.818,-7.07 9.241,-12.703 0.028,-0.104 0.053,-0.208 0.077,-0.314 z"
         id="path12" />
    </g>
  </g>
</svg>
