<?xml version="1.0" encoding="UTF-8" standalone="no"?>
<svg
   xmlns:dc="http://purl.org/dc/elements/1.1/"
   xmlns:cc="http://creativecommons.org/ns#"
   xmlns:rdf="http://www.w3.org/1999/02/22-rdf-syntax-ns#"
   xmlns:svg="http://www.w3.org/2000/svg"
   xmlns="http://www.w3.org/2000/svg"
   xmlns:xlink="http://www.w3.org/1999/xlink"
   xmlns:sodipodi="http://sodipodi.sourceforge.net/DTD/sodipodi-0.dtd"
   xmlns:inkscape="http://www.inkscape.org/namespaces/inkscape"
   width="70"
   height="70"
   version="1.1"
   viewBox="0 0 52.5 52.5"
   id="svg69"
   sodipodi:docname="paso2.svg"
   inkscape:version="0.92.3 (2405546, 2018-03-11)">
  <sodipodi:namedview
     pagecolor="#ffffff"
     bordercolor="#666666"
     borderopacity="1"
     objecttolerance="10"
     gridtolerance="10"
     guidetolerance="10"
     inkscape:pageopacity="0"
     inkscape:pageshadow="2"
     inkscape:window-width="1920"
     inkscape:window-height="1030"
     id="namedview71"
     showgrid="false"
     inkscape:zoom="7.8172932"
     inkscape:cx="52.169376"
     inkscape:cy="24.189189"
     inkscape:window-x="1366"
     inkscape:window-y="0"
     inkscape:window-maximized="1"
     inkscape:current-layer="svg69" />
  <metadata
     id="metadata2">
    <rdf:RDF>
      <cc:Work
         rdf:about="">
        <dc:format>image/svg+xml</dc:format>
        <dc:type
           rdf:resource="http://purl.org/dc/dcmitype/StillImage" />
        <dc:title></dc:title>
      </cc:Work>
    </rdf:RDF>
  </metadata>
  <defs
     id="defs43">
    <symbol
       id="b"
       overflow="visible"
       style="overflow:visible" />
    <symbol
       id="a"
       overflow="visible"
       style="overflow:visible" />
    <symbol
       id="c"
       overflow="visible"
       style="overflow:visible" />
    <clipPath
       id="clipPath9">
      <path
         d="m 0.97656,0.89844 h 8.6797 v 20.82 h -8.6797 z"
         id="path7"
         inkscape:connector-curvature="0" />
    </clipPath>
    <clipPath
       id="g">
      <rect
         width="10"
         height="22"
         id="rect11"
         x="0"
         y="0" />
    </clipPath>
    <g
       clip-path="url(#g)"
       id="g14" />
    <clipPath
       id="clipPath18">
      <path
         d="m 0.078125,0.59375 h 24.074 v 10.207 h -24.074 z"
         id="path16"
         inkscape:connector-curvature="0" />
    </clipPath>
    <clipPath
       id="f">
      <rect
         width="25"
         height="11"
         id="rect20"
         x="0"
         y="0" />
    </clipPath>
    <g
       clip-path="url(#f)"
       id="g23" />
    <clipPath
       id="clipPath27">
      <path
         d="m 0.52734,0.42188 h 21.762 v 9.293 h -21.762 z"
         id="path25"
         inkscape:connector-curvature="0" />
    </clipPath>
    <clipPath
       id="e">
      <rect
         width="23"
         height="10"
         id="rect29"
         x="0"
         y="0" />
    </clipPath>
    <g
       clip-path="url(#e)"
       id="g32" />
    <clipPath
       id="clipPath36">
      <path
         d="m 0.89453,0.35156 h 12.375 v 28.469 h -12.375 z"
         id="path34"
         inkscape:connector-curvature="0" />
    </clipPath>
    <clipPath
       id="d">
      <rect
         width="14"
         height="29"
         id="rect38"
         x="0"
         y="0" />
    </clipPath>
    <g
       clip-path="url(#d)"
       id="g41" />
  </defs>
  <g
     transform="translate(0,-1668.5)"
     id="g47"
     style="fill:#707070">
    <use
       x="480.6124"
       y="1197.4561"
       width="100%"
       height="100%"
       xlink:href="#b"
       id="use45" />
  </g>
  <g
     transform="translate(0,-1668.5)"
     id="g51"
     style="fill:#002b73">
    <use
       x="473.0795"
       y="1292.4561"
       width="100%"
       height="100%"
       xlink:href="#a"
       id="use49" />
  </g>
  <g
     transform="translate(0,-1668.5)"
     id="g55"
     style="fill:#3578c5">
    <use
       x="333.24368"
       y="550.63702"
       width="100%"
       height="100%"
       xlink:href="#c"
       id="use53" />
  </g>
  <g
     transform="matrix(0.97222222,0,0,0.97222222,-639.975,-462.27064)"
     id="g67"
     style="fill:#3578c5;stroke-width:1.02857137">
    <path
       d="m 669.52,495.73 h 32.641 c 0.24609,-1.8828 -0.67188,-2.9727 -2.5039,-2.9766 -9.2148,-0.004 -18.43,-0.004 -27.648,0 -1.8281,0.004 -2.7617,1.1211 -2.4883,2.9766 m -0.0156,4.4688 h 32.641 v -2.9375 h -32.641 z m 32.715,1.543 h -32.762 v 0.60547 c 0,2.9375 0.0391,5.875 -0.0195,8.8125 -0.0273,1.4531 0.95703,2.5078 2.5078,2.5078 9.2617,0 18.52,0.004 27.781,-0.004 1.6055,0 2.4844,-0.91015 2.4883,-2.5 0.008,-2.4922 0.004,-4.9805 0.004,-7.4726 z m -16.449,13.379 c -4.5352,0 -9.0703,-0.0742 -13.602,0.0274 -2.6797,0.0586 -4.293,-1.875 -4.2539,-4.2266 0.0859,-5.2383 0.0234,-10.477 0.0274,-15.715 0.004,-1.9102 1.0469,-3.3242 2.8047,-3.7852 0.40625,-0.10546 0.83985,-0.11718 1.2656,-0.11718 9.2188,-0.008 18.438,0.0273 27.656,-0.0234 2.4961,-0.0156 4.1211,1.8633 4.0898,4.125 -0.0742,5.2148 -0.0703,10.43 -0.004,15.645 0.0312,2.2188 -1.5859,4.125 -4.0586,4.0898 -4.6406,-0.0664 -9.2812,-0.0195 -13.926,-0.0195"
       id="path57"
       inkscape:connector-curvature="0"
       style="stroke-width:1.02857137" />
    <path
       d="m 697.74,507.68 c 0,-0.14843 0.004,-0.30078 0,-0.44922 -0.0117,-0.82031 -0.2461,-1.0508 -1.0742,-1.0625 -1.8672,-0.0234 -1.8945,0.004 -1.8828,1.8633 v 0.1289 c -0.0117,0.49219 0.125,0.98047 0.67187,0.98438 0.74219,0.008 1.5938,0.38672 2.1914,-0.39844 0.082,-0.10156 0.0781,-0.28125 0.0898,-0.42969 0.0156,-0.21094 0.004,-0.42578 0.004,-0.63672 m -1.4961,2.9805 c -0.42187,-0.0195 -0.85156,-0.0117 -1.2695,-0.0742 -0.22265,-0.0351 -0.4414,-0.16015 -0.63281,-0.28515 -1.4492,-0.95313 -1.5469,-4.1211 -0.13281,-5.1289 0.34375,-0.24219 0.80468,-0.375 1.2305,-0.42969 0.54296,-0.0742 1.1016,-0.0351 1.6562,-0.0156 1.1953,0.0391 2.1172,0.96484 2.1562,2.1641 0.0156,0.42578 0.008,0.85156 0.004,1.2773 -0.008,1.5625 -0.89062,2.457 -2.4336,2.4766 h -0.57422 c 0,0.004 -0.004,0.0117 -0.004,0.0156"
       id="path59"
       inkscape:connector-curvature="0"
       style="stroke-width:1.02857137" />
    <path
       d="m 677.63,506.18 h 4.2188 c 0.48828,0 0.90235,0.1289 0.98438,0.6875 0.0664,0.49218 -0.32032,0.8164 -0.98047,0.8164 -2.5977,0.004 -5.1953,0.004 -7.7969,0.004 -0.2539,0 -0.51172,0 -0.76562,-0.004 -0.49219,-0.008 -0.85156,-0.22656 -0.85547,-0.74218 -0.004,-0.51954 0.37109,-0.7461 0.84766,-0.75782 0.875,-0.0195 1.75,-0.004 2.6211,-0.004 h 1.7266"
       id="path61"
       inkscape:connector-curvature="0"
       style="stroke-width:1.02857137" />
    <path
       d="m 677.59,509.18 c 1.4258,0 2.8516,-0.004 4.2773,0.004 0.64063,0.004 1.0195,0.28906 0.97266,0.75391 -0.0586,0.55078 -0.4375,0.71875 -0.94922,0.71875 -2.832,-0.008 -5.6641,0 -8.4961,-0.004 -0.64844,-0.004 -1.0156,-0.28516 -0.97266,-0.75391 0.0547,-0.5625 0.44141,-0.72265 0.94922,-0.71875 1.4062,0.004 2.8125,0 4.2188,0"
       id="path63"
       inkscape:connector-curvature="0"
       style="stroke-width:1.02857137" />
    <path
       d="m 685.26,478.5 c -13.234,0 -24,10.766 -24,24 0,13.234 10.766,24 24,24 13.234,0 24,-10.766 24,-24 0,-13.234 -10.766,-24 -24,-24 m 0,51 c -14.891,0 -27,-12.113 -27,-27 0,-14.887 12.109,-27 27,-27 14.887,0 27,12.113 27,27 0,14.887 -12.113,27 -27,27"
       id="path65"
       inkscape:connector-curvature="0"
       style="stroke-width:1.02857137" />
  </g>
</svg>
