<?xml version="1.0" encoding="UTF-8" standalone="no"?>
<svg
   xmlns:dc="http://purl.org/dc/elements/1.1/"
   xmlns:cc="http://creativecommons.org/ns#"
   xmlns:rdf="http://www.w3.org/1999/02/22-rdf-syntax-ns#"
   xmlns:svg="http://www.w3.org/2000/svg"
   xmlns="http://www.w3.org/2000/svg"
   xmlns:xlink="http://www.w3.org/1999/xlink"
   xmlns:sodipodi="http://sodipodi.sourceforge.net/DTD/sodipodi-0.dtd"
   xmlns:inkscape="http://www.inkscape.org/namespaces/inkscape"
   width="70"
   height="70"
   version="1.1"
   viewBox="0 0 52.5 52.5"
   id="svg63"
   sodipodi:docname="paso1.svg"
   inkscape:version="0.92.3 (2405546, 2018-03-11)">
  <sodipodi:namedview
     pagecolor="#ffffff"
     bordercolor="#666666"
     borderopacity="1"
     objecttolerance="10"
     gridtolerance="10"
     guidetolerance="10"
     inkscape:pageopacity="0"
     inkscape:pageshadow="2"
     inkscape:window-width="1920"
     inkscape:window-height="1030"
     id="namedview65"
     showgrid="true"
     showguides="true"
     inkscape:guide-bbox="true"
     inkscape:zoom="8.992"
     inkscape:cx="43.63879"
     inkscape:cy="26.339286"
     inkscape:window-x="1366"
     inkscape:window-y="0"
     inkscape:window-maximized="1"
     inkscape:current-layer="svg63">
    <sodipodi:guide
       position="-10.423729,56.440678"
       orientation="0,1"
       id="guide872"
       inkscape:locked="false" />
    <sodipodi:guide
       position="6.6101695,3.3050847"
       orientation="0,1"
       id="guide874"
       inkscape:locked="false" />
    <sodipodi:guide
       position="4.0677966,26.186441"
       orientation="1,0"
       id="guide876"
       inkscape:locked="false" />
  </sodipodi:namedview>
  <metadata
     id="metadata2">
    <rdf:RDF>
      <cc:Work
         rdf:about="">
        <dc:format>image/svg+xml</dc:format>
        <dc:type
           rdf:resource="http://purl.org/dc/dcmitype/StillImage" />
        <dc:title></dc:title>
      </cc:Work>
    </rdf:RDF>
  </metadata>
  <defs
     id="defs43">
    <symbol
       id="b"
       overflow="visible"
       style="overflow:visible" />
    <symbol
       id="a"
       overflow="visible"
       style="overflow:visible" />
    <symbol
       id="c"
       overflow="visible"
       style="overflow:visible" />
    <clipPath
       id="clipPath9">
      <path
         d="m 0.97656,0.89844 h 8.6797 v 20.82 h -8.6797 z"
         id="path7"
         inkscape:connector-curvature="0" />
    </clipPath>
    <clipPath
       id="g">
      <rect
         width="10"
         height="22"
         id="rect11"
         x="0"
         y="0" />
    </clipPath>
    <g
       clip-path="url(#g)"
       id="g14" />
    <clipPath
       id="clipPath18">
      <path
         d="m 0.078125,0.59375 h 24.074 v 10.207 h -24.074 z"
         id="path16"
         inkscape:connector-curvature="0" />
    </clipPath>
    <clipPath
       id="f">
      <rect
         width="25"
         height="11"
         id="rect20"
         x="0"
         y="0" />
    </clipPath>
    <g
       clip-path="url(#f)"
       id="g23" />
    <clipPath
       id="clipPath27">
      <path
         d="m 0.52734,0.42188 h 21.762 v 9.293 h -21.762 z"
         id="path25"
         inkscape:connector-curvature="0" />
    </clipPath>
    <clipPath
       id="e">
      <rect
         width="23"
         height="10"
         id="rect29"
         x="0"
         y="0" />
    </clipPath>
    <g
       clip-path="url(#e)"
       id="g32" />
    <clipPath
       id="clipPath36">
      <path
         d="m 0.89453,0.35156 h 12.375 v 28.469 h -12.375 z"
         id="path34"
         inkscape:connector-curvature="0" />
    </clipPath>
    <clipPath
       id="d">
      <rect
         width="14"
         height="29"
         id="rect38"
         x="0"
         y="0" />
    </clipPath>
    <g
       clip-path="url(#d)"
       id="g41" />
  </defs>
  <g
     transform="translate(0,-1668.5)"
     id="g47"
     style="fill:#707070">
    <use
       x="480.6124"
       y="1197.4561"
       width="100%"
       height="100%"
       xlink:href="#b"
       id="use45" />
  </g>
  <g
     transform="translate(0,-1668.5)"
     id="g51"
     style="fill:#002b73">
    <use
       x="473.0795"
       y="1292.4561"
       width="100%"
       height="100%"
       xlink:href="#a"
       id="use49" />
  </g>
  <g
     transform="matrix(1.1230902,0,0,1.1227048,-325.70811,-533.35886)"
     id="g57"
     style="fill:#3578c5;stroke-width:0.89057541">
    <path
       d="m 312.94,519.09 c 4.5547,0.008 8.793,-1.3398 12.18,-3.6562 0.69532,-0.47657 0.85938,-0.86719 0.50391,-1.6797 -2.1328,-4.9023 -6.8945,-8.1328 -12.324,-8.0273 -5.6484,0.10937 -9.6641,2.875 -12.121,7.957 -0.38282,0.78906 -0.29688,1.2422 0.47265,1.7539 3.5508,2.3711 7.4375,3.5859 11.289,3.6524 m 15.266,-6.4258 c 4.4844,-4.2656 7.8164,-12.883 4.3984,-21.699 -3.1914,-8.2305 -11.539,-13.652 -20.25,-13.137 -9.1133,0.54297 -16.656,6.7539 -18.949,15.492 -2.0938,7.9883 1.2812,15.898 5.1797,19.289 3.0664,-6.0781 7.8906,-9.6211 14.797,-9.6172 6.9024,0 11.73,3.5234 14.824,9.6719 m -14.77,-37.598 c 12.902,0.0156 23.328,10.484 23.32,23.414 -0.0117,12.945 -10.492,23.375 -23.469,23.348 -12.883,-0.0273 -23.293,-10.52 -23.277,-23.457 0.0195,-12.898 10.496,-23.32 23.426,-23.305"
       id="path53"
       inkscape:connector-curvature="0"
       style="stroke-width:0.89057541" />
    <path
       d="m 319.36,491.06 c -0.0312,-3.2539 -2.75,-5.9414 -5.9922,-5.9297 -3.2422,0.0156 -5.9492,2.7344 -5.9492,5.9766 0.004,3.2891 2.7578,6.0156 6.0312,5.9609 3.2734,-0.0547 5.9375,-2.7617 5.9102,-6.0078 m -5.9961,8.75 c -4.7812,0.004 -8.6875,-3.9219 -8.6836,-8.7266 0,-4.7773 3.9492,-8.7031 8.7305,-8.6875 4.7656,0.0156 8.668,3.9062 8.6797,8.6484 0.0156,4.8633 -3.8672,8.7617 -8.7266,8.7656"
       id="path55"
       inkscape:connector-curvature="0"
       style="stroke-width:0.89057541" />
  </g>
  <g
     transform="translate(0,-1668.5)"
     id="g61"
     style="fill:#3578c5">
    <use
       x="333.24368"
       y="550.63702"
       width="100%"
       height="100%"
       xlink:href="#c"
       id="use59" />
  </g>
</svg>
