<?xml version="1.0" encoding="UTF-8" standalone="no"?>
<svg
   xmlns:dc="http://purl.org/dc/elements/1.1/"
   xmlns:cc="http://creativecommons.org/ns#"
   xmlns:rdf="http://www.w3.org/1999/02/22-rdf-syntax-ns#"
   xmlns:svg="http://www.w3.org/2000/svg"
   xmlns="http://www.w3.org/2000/svg"
   xmlns:xlink="http://www.w3.org/1999/xlink"
   xmlns:sodipodi="http://sodipodi.sourceforge.net/DTD/sodipodi-0.dtd"
   xmlns:inkscape="http://www.inkscape.org/namespaces/inkscape"
   width="70"
   height="70"
   version="1.1"
   viewBox="0 0 52.5 52.5"
   id="svg63"
   sodipodi:docname="paso3.svg"
   inkscape:version="0.92.3 (2405546, 2018-03-11)">
  <sodipodi:namedview
     pagecolor="#ffffff"
     bordercolor="#666666"
     borderopacity="1"
     objecttolerance="10"
     gridtolerance="10"
     guidetolerance="10"
     inkscape:pageopacity="0"
     inkscape:pageshadow="2"
     inkscape:window-width="1920"
     inkscape:window-height="1030"
     id="namedview65"
     showgrid="false"
     inkscape:zoom="2.95"
     inkscape:cx="3.220339"
     inkscape:cy="40"
     inkscape:window-x="1366"
     inkscape:window-y="0"
     inkscape:window-maximized="1"
     inkscape:current-layer="svg63" />
  <metadata
     id="metadata2">
    <rdf:RDF>
      <cc:Work
         rdf:about="">
        <dc:format>image/svg+xml</dc:format>
        <dc:type
           rdf:resource="http://purl.org/dc/dcmitype/StillImage" />
        <dc:title></dc:title>
      </cc:Work>
    </rdf:RDF>
  </metadata>
  <defs
     id="defs43">
    <symbol
       id="b"
       overflow="visible"
       style="overflow:visible" />
    <symbol
       id="a"
       overflow="visible"
       style="overflow:visible" />
    <symbol
       id="c"
       overflow="visible"
       style="overflow:visible" />
    <clipPath
       id="clipPath9">
      <path
         d="m 0.97656,0.89844 h 8.6797 v 20.82 h -8.6797 z"
         id="path7"
         inkscape:connector-curvature="0" />
    </clipPath>
    <clipPath
       id="g">
      <rect
         width="10"
         height="22"
         id="rect11"
         x="0"
         y="0" />
    </clipPath>
    <g
       clip-path="url(#g)"
       id="g14" />
    <clipPath
       id="clipPath18">
      <path
         d="m 0.078125,0.59375 h 24.074 v 10.207 h -24.074 z"
         id="path16"
         inkscape:connector-curvature="0" />
    </clipPath>
    <clipPath
       id="f">
      <rect
         width="25"
         height="11"
         id="rect20"
         x="0"
         y="0" />
    </clipPath>
    <g
       clip-path="url(#f)"
       id="g23" />
    <clipPath
       id="clipPath27">
      <path
         d="m 0.52734,0.42188 h 21.762 v 9.293 h -21.762 z"
         id="path25"
         inkscape:connector-curvature="0" />
    </clipPath>
    <clipPath
       id="e">
      <rect
         width="23"
         height="10"
         id="rect29"
         x="0"
         y="0" />
    </clipPath>
    <g
       clip-path="url(#e)"
       id="g32" />
    <clipPath
       id="clipPath36">
      <path
         d="m 0.89453,0.35156 h 12.375 v 28.469 h -12.375 z"
         id="path34"
         inkscape:connector-curvature="0" />
    </clipPath>
    <clipPath
       id="d">
      <rect
         width="14"
         height="29"
         id="rect38"
         x="0"
         y="0" />
    </clipPath>
    <g
       clip-path="url(#d)"
       id="g41" />
  </defs>
  <g
     transform="translate(0,-1668.5)"
     id="g47"
     style="fill:#707070">
    <use
       x="480.6124"
       y="1197.4561"
       width="100%"
       height="100%"
       xlink:href="#b"
       id="use45" />
  </g>
  <g
     transform="translate(0,-1668.5)"
     id="g51"
     style="fill:#002b73">
    <use
       x="473.0795"
       y="1292.4561"
       width="100%"
       height="100%"
       xlink:href="#a"
       id="use49" />
  </g>
  <g
     transform="translate(0,-1668.5)"
     id="g55"
     style="fill:#3578c5">
    <use
       x="333.24368"
       y="550.63702"
       width="100%"
       height="100%"
       xlink:href="#c"
       id="use53" />
  </g>
  <g
     transform="matrix(0.98102955,0,0,0.97870069,-1010.7023,-462.14065)"
     id="g61"
     style="fill:#3578c5;stroke-width:1.0205493">
    <path
       d="m 1057.2,525.84 c -8.832,-0.38672 -15.398,-3.4688 -20.488,-9.418 -5.2109,-6.0898 -7.3437,-13.219 -6.1367,-21.164 1.4805,-9.7812 6.875,-16.852 15.894,-20.73 9.1368,-3.9297 18.008,-2.8398 26.207,2.9023 1.0898,0.76172 2.0976,1.6602 3.0781,2.5664 1.1094,1.0234 1.1523,2.2656 0.2227,3.293 -0.8555,0.94922 -2.1329,1 -3.2071,-0.0312 -2.9375,-2.8203 -6.3242,-4.8633 -10.293,-5.7969 -7.5625,-1.7852 -14.379,-0.17578 -20.238,4.9375 -5.0196,4.3711 -7.5391,10.043 -7.5274,16.645 0.02,11.566 8.5274,20.508 19.027,22.047 10.656,1.5625 21.129,-4.6406 24.523,-15.41 0.6719,-2.1289 0.7656,-4.4453 1.0742,-6.6797 0.1875,-1.3398 1.0313,-2.2305 2.1993,-2.1797 1.2968,0.0547 2.2421,1.0469 2.2265,2.3984 -0.1367,12.836 -9.1875,23.594 -21.57,26.062 -1.957,0.39062 -3.9805,0.45312 -4.9922,0.55859"
       id="path57"
       inkscape:connector-curvature="0"
       style="stroke-width:1.0205493" />
    <path
       d="m 1055.8,501.42 c 3.2071,-3.1641 6.25,-6.2031 9.3477,-9.1875 0.4922,-0.46875 1.2187,-0.83984 1.8867,-0.95312 0.8633,-0.14063 1.5938,0.32422 2.0156,1.1602 0.4102,0.8164 0.3516,1.6016 -0.1757,2.3398 -0.168,0.23047 -0.379,0.42969 -0.5782,0.63281 -3.4414,3.4609 -6.875,6.9219 -10.32,10.375 -1.4492,1.4531 -2.6367,1.4492 -4.0898,0 -1.6914,-1.6875 -3.3985,-3.3672 -5.0664,-5.0781 -1.0703,-1.0977 -0.9844,-2.5391 0.1484,-3.4258 0.9375,-0.73047 2.0781,-0.66016 3.0195,0.26953 1.2891,1.2695 2.543,2.5781 3.8125,3.8672"
       id="path59"
       inkscape:connector-curvature="0"
       style="stroke-width:1.0205493" />
  </g>
</svg>
