<?xml version="1.0" encoding="UTF-8" standalone="no"?>
<!-- Svg Vector Icons : http://www.onlinewebfonts.com/icon -->

<svg
   xmlns:dc="http://purl.org/dc/elements/1.1/"
   xmlns:cc="http://creativecommons.org/ns#"
   xmlns:rdf="http://www.w3.org/1999/02/22-rdf-syntax-ns#"
   xmlns:svg="http://www.w3.org/2000/svg"
   xmlns="http://www.w3.org/2000/svg"
   xmlns:sodipodi="http://sodipodi.sourceforge.net/DTD/sodipodi-0.dtd"
   xmlns:inkscape="http://www.inkscape.org/namespaces/inkscape"
   version="1.1"
   x="0px"
   y="0px"
   viewBox="0 0 180 180"
   enable-background="new 0 0 1000 1000"
   xml:space="preserve"
   id="svg8"
   sodipodi:docname="shopping_cart_sm.svg"
   width="180"
   height="180"
   inkscape:version="0.92.3 (2405546, 2018-03-11)"><defs
   id="defs12" /><sodipodi:namedview
   pagecolor="#ffffff"
   bordercolor="#666666"
   borderopacity="1"
   objecttolerance="10"
   gridtolerance="10"
   guidetolerance="10"
   inkscape:pageopacity="0"
   inkscape:pageshadow="2"
   inkscape:window-width="1366"
   inkscape:window-height="718"
   id="namedview10"
   showgrid="false"
   inkscape:zoom="2.4053931"
   inkscape:cx="28.425022"
   inkscape:cy="85.476781"
   inkscape:window-x="0"
   inkscape:window-y="0"
   inkscape:window-maximized="1"
   inkscape:current-layer="svg8" />
<metadata
   id="metadata2"> Svg Vector Icons : http://www.onlinewebfonts.com/icon <rdf:RDF><cc:Work
     rdf:about=""><dc:format>image/svg+xml</dc:format><dc:type
       rdf:resource="http://purl.org/dc/dcmitype/StillImage" /><dc:title></dc:title></cc:Work></rdf:RDF></metadata>
<path
   style="fill:#ffffff;stroke-width:1"
   inkscape:connector-curvature="0"
   id="path4"
   d="m 68.900322,109.34904 h 70.467588 c 1.88767,0 3.45539,-1.01575 4.07928,-2.60563 l 24.79563,-60.518171 c 0.46392,-1.295451 0.31995,-2.605623 -0.46392,-3.753864 -0.78386,-1.148241 -2.19161,-1.737082 -3.61536,-1.737082 L 123.5147,40.587082 c -0.46392,-0.14721 -0.78386,-0.14721 -1.24778,-0.14721 -0.46392,0 -0.78386,0 -1.24778,0.14721 L 47.40011,40.160172 41.753105,26.145747 C 41.289186,25.129996 40.505324,24.261455 39.241547,23.834545 L 17.741334,15.885186 c -2.191613,-0.868541 -4.863143,0.14721 -5.647005,2.311202 -0.943834,2.016782 0.159972,4.475195 2.511558,5.196526 l 19.772517,7.228028 5.966949,14.882966 c 0,0 0,0.14721 0.159971,0.14721 l 21.660185,53.584568 -9.566315,23.538934 c -0.463918,1.29545 -0.319944,2.60562 0.463918,3.75386 0.783862,1.14825 2.191614,1.73709 3.615363,1.73709 h 2.67153 c -3.135448,2.73811 -5.183087,6.63918 -5.183087,10.98189 0,8.37627 7.374701,15.16267 16.477097,15.16267 9.102397,0 16.477098,-6.7864 16.477098,-15.16267 0,-4.32799 -2.04764,-8.22906 -5.183087,-10.98189 h 34.681894 c -3.13545,2.73811 -5.18309,6.63918 -5.18309,10.98189 0,8.37627 7.3747,15.16267 16.4771,15.16267 9.10239,0 16.47709,-6.7864 16.47709,-15.16267 0,-4.32799 -2.04763,-8.22906 -5.18308,-10.98189 h 4.55919 c 2.35159,0 4.39923,-1.8843 4.39923,-4.04829 0,-2.16399 -2.04764,-4.04828 -4.39923,-4.04828 H 63.253317 l 4.559197,-11.11438 c -0.016,0.14721 0.463918,0.29442 1.087808,0.29442 z m 1.247781,36.68482 c -4.239254,0 -7.694645,-3.17975 -7.694645,-7.08082 0,-3.90108 3.455391,-7.08082 7.694645,-7.08082 4.239253,0 7.694644,3.17974 7.694644,7.08082 0,3.90107 -3.455391,7.08082 -7.694644,7.08082 z m 57.141937,0 c -4.23926,0 -7.69465,-3.17975 -7.69465,-7.08082 0,-3.90108 3.45539,-7.08082 7.69465,-7.08082 4.23925,0 7.69464,3.17974 7.69464,7.08082 -0.016,3.90107 -3.45539,7.08082 -7.69464,7.08082 z M 117.8677,68.041813 V 81.334907 H 92.128231 V 68.041813 Z M 92.128231,59.945243 V 48.389231 l 25.739469,0.14721 V 59.945243 Z M 144.39102,81.187697 H 126.50617 V 67.894602 h 23.22791 z M 117.8677,89.269545 V 101.11998 H 92.128231 V 89.269545 Z M 83.329781,81.187697 H 64.037179 L 58.69412,67.894602 H 83.329781 Z M 67.172627,89.269545 H 83.345778 V 101.11998 H 72.051767 Z m 69.219803,11.982925 h -9.72628 V 89.416755 h 14.58943 z M 153.18947,59.945243 H 126.65015 V 48.536441 l 31.08252,0.147211 z M 83.329781,48.256742 V 59.812754 H 55.398701 L 50.695529,47.962321 Z" />
</svg>
