<?xml version="1.0" encoding="UTF-8"?>
<svg id="Capa_2" data-name="Capa 2" xmlns="http://www.w3.org/2000/svg" xmlns:xlink="http://www.w3.org/1999/xlink" viewBox="0 0 125.1 130">
  <defs>
    <style>
      .cls-1 {
        fill: url(#Degradado_sin_nombre_107);
        fill-rule: evenodd;
      }
    </style>
    <linearGradient id="Degradado_sin_nombre_107" data-name="Degradado sin nombre 107" x1="30.36" y1="9.23" x2="94.74" y2="120.75" gradientUnits="userSpaceOnUse">
      <stop offset="0" stop-color="#e38520"/>
      <stop offset=".11" stop-color="#e27825"/>
      <stop offset="1" stop-color="#dc1a4d"/>
    </linearGradient>
  </defs>
  <g id="Capa_1-2" data-name="Capa 1">
    <path class="cls-1" d="m96.61,23.24c-1.45,0-2.87.49-4.06,1.33-1.2-.84-2.61-1.33-4.06-1.33-4.02,0-7.27,3.51-7.27,7.82,0,6.44,9.45,12,10.52,12.62.26.13.51.22.81.22s.56-.09.81-.22c1.11-.62,10.52-6.18,10.52-12.62,0-4.31-3.25-7.82-7.27-7.82h0Zm-4.06,16.8c-3.34-2.09-7.91-5.96-7.91-8.98,0-2.36,1.71-4.27,3.85-4.27,1.07,0,2.05.49,2.78,1.33.34.36.81.58,1.28.58s.94-.22,1.28-.58c.73-.84,1.71-1.33,2.78-1.33,2.1,0,3.85,1.91,3.85,4.27,0,3.02-4.53,6.89-7.91,8.98h0Zm-.21,50.04c-1.45,0-2.87.44-4.06,1.29-1.2-.84-2.61-1.29-4.06-1.29-4.02,0-7.27,3.47-7.27,7.78,0,6.49,9.45,12.04,10.52,12.62.26.18.56.22.81.22.3,0,.56-.04.81-.22,1.11-.58,10.56-6.13,10.56-12.62-.04-4.31-3.29-7.78-7.31-7.78h0Zm-4.06,16.8c-3.34-2.09-7.91-5.96-7.91-9.02,0-2.31,1.75-4.22,3.85-4.22,1.07,0,2.05.44,2.82,1.29.3.4.77.58,1.24.58s.94-.18,1.28-.58c.73-.84,1.71-1.29,2.78-1.29,2.14,0,3.85,1.91,3.85,4.22,0,3.07-4.53,6.93-7.91,9.02h0ZM34.04,33.11c-1.41,0-2.82.49-4.02,1.33-1.2-.84-2.61-1.33-4.06-1.33-4.02,0-7.31,3.51-7.31,7.82,0,6.49,9.45,12,10.52,12.62.26.13.56.22.86.22.26,0,.56-.09.81-.22,1.07-.62,10.52-6.13,10.52-12.62,0-4.31-3.29-7.82-7.31-7.82h0Zm-4.02,16.84c-3.38-2.09-7.91-6-7.91-9.02,0-2.31,1.71-4.22,3.85-4.22,1.07,0,2.05.44,2.78,1.29.34.36.77.58,1.28.58.47,0,.94-.22,1.24-.58.77-.84,1.75-1.29,2.78-1.29,2.14,0,3.89,1.91,3.89,4.22,0,3.07-4.58,6.93-7.91,9.02h0Zm69.54,34.93c-.81-.49-1.88-.27-2.4.58h0c-.51.84-.26,1.96.56,2.49.26.18.6.27.9.27.56,0,1.11-.31,1.45-.84h0c.51-.84.26-1.96-.51-2.49h0Zm3.51-37.82c-.38-.93-1.37-1.33-2.27-.93-.86.36-1.28,1.42-.9,2.31,2.05,5.02,3.08,10.31,3.08,15.78,0,5.87-1.15,11.51-3.51,16.8-.38.89,0,1.96.86,2.36.21.13.47.18.73.18.64,0,1.24-.4,1.54-1.07,2.57-5.73,3.85-11.87,3.85-18.27,0-5.96-1.15-11.73-3.38-17.16h0Zm-30.54-25.73c-2.69-.58-5.43-.84-8.21-.84-7.23,0-14.33,1.91-20.61,5.56-.81.49-1.11,1.6-.64,2.44.3.58.9.93,1.5.93.3,0,.56-.09.86-.27,5.73-3.33,12.27-5.11,18.9-5.11,2.52,0,5.09.27,7.53.76.94.22,1.84-.4,2.05-1.38.17-.98-.43-1.91-1.37-2.09h0Zm4.83,1.2c-.94-.18-1.84.49-1.97,1.47l-.04.04c-.13.93.47,1.87,1.41,2.04.09,0,.21.04.3.04.81,0,1.54-.62,1.71-1.51h0c.13-.98-.47-1.91-1.41-2.09h0ZM24.76,55.55c-.94-.18-1.8.44-1.97,1.42v.04c-.17.98.47,1.91,1.37,2.04.13.04.21.04.3.04.81,0,1.54-.62,1.71-1.47v-.04c.17-.98-.47-1.91-1.41-2.04h0Zm48.67,49.64c-.17-.98-1.07-1.6-1.97-1.42-2.35.44-4.75.67-7.14.67-21.34,0-38.66-18.04-38.66-40.22v-.89c0-.98-.73-1.82-1.67-1.82-.98-.04-1.75.76-1.75,1.73,0,.31-.04.67-.04.98,0,11.69,4.41,22.71,12.36,30.98,7.95,8.27,18.52,12.8,29.77,12.8,2.61,0,5.22-.27,7.74-.76.94-.18,1.54-1.11,1.37-2.04h0Zm-2.35-55.02c-2.44,0-4.83.89-6.76,2.49-1.92-1.6-4.32-2.49-6.76-2.49-6.07,0-11.03,5.29-11.03,11.82,0,4.44,2.91,9.2,8.64,14.13,4.11,3.51,8.17,5.82,8.34,5.91.26.13.51.22.81.22s.56-.09.81-.22c.17-.09,4.23-2.4,8.3-5.91,5.77-4.93,8.68-9.69,8.68-14.13,0-6.53-4.96-11.82-11.03-11.82h0Zm-6.76,28.27c-4.66-2.84-14.37-10.04-14.37-16.44,0-4.58,3.42-8.27,7.61-8.27,2.1,0,4.02.89,5.47,2.58.34.36.81.58,1.28.58s.94-.22,1.28-.58c1.41-1.69,3.38-2.58,5.47-2.58,4.19,0,7.61,3.69,7.61,8.27,0,6.4-9.71,13.6-14.37,16.44h0Zm0-41.96c-14.76,0-26.73,12.44-26.73,27.73s12.02,27.78,26.73,27.78,26.73-12.44,26.73-27.78-11.98-27.73-26.73-27.73h0Zm0,51.95c-12.83,0-23.31-10.84-23.31-24.18s10.48-24.22,23.31-24.22,23.31,10.84,23.31,24.22-10.48,24.18-23.31,24.18h0Zm-1.8,41.56C28.06,130,0,100.84,0,64.98S28.06,0,62.53,0s62.57,29.16,62.57,64.98-28.06,65.02-62.57,65.02h0Zm0-126.35C29.98,3.64,3.51,31.16,3.51,64.98s26.47,61.38,59.02,61.38,59.06-27.56,59.06-61.38S95.12,3.64,62.53,3.64h0Zm16.72,113.11h3.51c.64,0,1.2-.53,1.2-1.2s-.56-1.2-1.2-1.2h-3.51c-.64,0-1.15.53-1.15,1.2s.51,1.2,1.15,1.2h0Zm-8.17,0h3.51c.64,0,1.2-.53,1.2-1.2s-.56-1.2-1.2-1.2h-3.51c-.64,0-1.15.53-1.15,1.2s.51,1.2,1.15,1.2h0Zm5.86,0c-.64,0-1.15.53-1.15,1.2v3.64c0,.67.51,1.24,1.15,1.24s1.15-.58,1.15-1.24v-3.64c0-.67-.51-1.2-1.15-1.2h0Zm0-2.44c.64,0,1.15-.53,1.15-1.2v-3.64c0-.67-.51-1.2-1.15-1.2s-1.15.53-1.15,1.2v3.64c0,.67.51,1.2,1.15,1.2h0ZM37.47,23.69h3.51c.64,0,1.2-.53,1.2-1.2s-.56-1.2-1.2-1.2h-3.51c-.64,0-1.15.53-1.15,1.2s.51,1.2,1.15,1.2h0Zm-8.17,0h3.51c.64,0,1.2-.53,1.2-1.2s-.56-1.2-1.2-1.2h-3.51c-.64,0-1.15.53-1.15,1.2s.51,1.2,1.15,1.2h0Zm5.86,0c-.64,0-1.15.58-1.15,1.24v3.64c0,.67.51,1.2,1.15,1.2s1.15-.53,1.15-1.2v-3.64c0-.67-.51-1.24-1.15-1.24h0Zm0-2.4c.64,0,1.15-.53,1.15-1.2v-3.64c0-.67-.51-1.24-1.15-1.24s-1.15.58-1.15,1.24v3.64c0,.67.51,1.2,1.15,1.2h0Zm-19.42,44c.34.36.77.53,1.2.53.47,0,.9-.18,1.24-.53.64-.71.64-1.82,0-2.53l-1.24-1.24,1.24-1.24c.64-.71.64-1.82,0-2.53-.68-.71-1.75-.71-2.44,0l-1.2,1.24-1.24-1.24c-.64-.71-1.75-.71-2.4,0-.68.71-.68,1.82,0,2.53l1.2,1.24-1.2,1.24c-.68.71-.68,1.82,0,2.53.3.36.77.53,1.2.53s.86-.18,1.2-.53l1.24-1.24,1.2,1.24h0ZM82.42,18.58c.34.36.77.53,1.2.53.47,0,.9-.18,1.24-.53.64-.71.64-1.82,0-2.53l-1.24-1.24,1.24-1.24c.64-.71.64-1.82,0-2.53-.68-.71-1.75-.71-2.44,0l-1.2,1.24-1.24-1.24c-.64-.71-1.75-.71-2.4,0-.68.71-.68,1.82,0,2.53l1.2,1.24-1.2,1.24c-.68.71-.68,1.82,0,2.53.34.36.77.53,1.2.53s.9-.18,1.2-.53l1.24-1.24,1.2,1.24h0Zm-48.97,86.22c0,.98-.77,1.78-1.71,1.78s-1.71-.8-1.71-1.78.73-1.78,1.71-1.78,1.71.8,1.71,1.78h0Zm82.46-38.04c0,1.02-.77,1.78-1.71,1.78s-1.71-.76-1.71-1.78.77-1.78,1.71-1.78,1.71.8,1.71,1.78h0Z"/>
  </g>
</svg>