<?xml version="1.0" encoding="UTF-8"?>
<svg id="Capa_2" data-name="Capa 2" xmlns="http://www.w3.org/2000/svg" viewBox="0 0 246.24 247.03">
  <defs>
    <style>
      .cls-1 {
        fill: #7e828c;
        stroke: #fff;
        stroke-miterlimit: 10;
        stroke-width: 2.15px;
      }
    </style>
  </defs>
  <g id="Capa_1-2" data-name="Capa 1">
    <g>
      <path class="cls-1" d="m146.07,1.44c12.86,0,25.73-.04,38.59.01,9.48.04,18.75,1.46,27.57,5.02,17.98,7.25,27.7,21.15,31.2,39.73,1.03,5.46,1.55,11.08,1.61,16.64.2,16.68.15,33.36.02,50.03-.08,10.1-1.78,19.96-6.03,29.21-7.58,16.51-21.07,25.27-38.42,28.74-1.7.34-2.54.88-2.89,2.72-4.49,23.8-19.96,39.08-43.9,43-6.27,1.03-12.69,1.22-19.06,1.52-1.99.1-3.2.66-4.37,2.24-4.23,5.7-8.51,11.36-12.96,16.88-9.37,11.64-24.72,11.7-34.1.08-4.51-5.58-8.72-11.41-12.96-17.21-1.07-1.46-2.25-1.86-3.99-1.98-9.01-.61-18.13-.69-26.98-2.25-20.16-3.56-31.95-16.2-35.9-36.05-1.31-6.57-2.11-13.35-2.22-20.04-.3-17.91-.19-35.84-.07-53.76.07-10.02,1.86-19.77,6.11-28.92,7.62-16.39,21.12-25,38.34-28.48,1.83-.37,2.41-1.04,2.75-2.76,2.69-13.6,8.74-25.24,20.28-33.48,8.66-6.19,18.5-9.64,28.99-10.17,16.11-.81,32.26-.77,48.4-1.09,0,.12,0,.23,0,.35Zm-45.38,62.4c-11.8,0-23.6-.1-35.4.05-4.86.06-9.77.33-14.57,1.09-15.85,2.49-26.71,10.95-30.58,26.99-1.07,4.45-1.76,9.1-1.81,13.67-.21,17.92-.17,35.84-.05,53.77.03,4.68.47,9.39,1.13,14.03,2.26,15.85,9.71,23.77,25.5,26.2,7.5,1.15,15.19,1.18,22.8,1.41,6.48.2,11.66,2.63,15.55,7.8,4.05,5.39,8.07,10.8,12.1,16.2,3.77,5.05,6.19,5.04,10.02-.06,3.78-5.03,7.7-9.98,11.3-15.14,4.34-6.22,10.08-8.92,17.67-8.86,5.91.05,11.91-.41,17.71-1.49,14.9-2.76,24.69-11.46,28.33-26.39,1-4.11,1.74-8.39,1.79-12.6.23-17.83.24-35.67.15-53.5-.02-4.05-.47-8.15-1.18-12.14-2.64-14.76-10.8-24.96-25.62-28.62-6.29-1.55-12.93-2.11-19.44-2.31-11.79-.36-23.6-.1-35.4-.1Zm-35.14-17.05c1.37,0,2.34,0,3.31,0,23.16,0,46.32-.15,69.48.1,6.41.07,12.94.77,19.2,2.15,18.55,4.12,31.57,14.95,37.98,33.13,3.16,8.95,4.19,18.26,4.24,27.68.07,13.49.02,26.97.02,40.46,0,.96,0,1.93,0,2.98.68-.04,1.13.01,1.54-.11,9.86-2.85,17.48-8.43,21.9-17.93,3.83-8.23,4.75-17.02,4.78-25.94.05-15.08.09-30.17-.04-45.25-.04-4.42-.37-8.88-1.06-13.24-2.49-15.76-10.89-26.53-26.84-30.38-4.2-1.01-8.57-1.78-12.87-1.8-27.51-.16-55.01-.2-82.52.01-4.9.04-9.91.96-14.66,2.27-13.1,3.61-21.09,12.35-24.48,25.86Z"/>
      <path class="cls-1" d="m125.31,137.07c-.04-6.2,5.03-11.37,11.22-11.45,6.28-.08,11.59,5.16,11.54,11.42-.04,6.14-5.25,11.33-11.39,11.34-6.18,0-11.33-5.11-11.37-11.31Z"/>
      <path class="cls-1" d="m52.8,136.88c.04-6.23,5.13-11.29,11.34-11.26,6.21.02,11.26,5.11,11.27,11.35,0,6.35-5.23,11.54-11.49,11.41-6.27-.13-11.15-5.18-11.11-11.49Z"/>
      <path class="cls-1" d="m111.65,136.99c0,6.26-5.01,11.33-11.25,11.38-6.34.05-11.42-5.09-11.38-11.51.04-6.23,5.15-11.28,11.36-11.25,6.21.03,11.26,5.14,11.26,11.37Z"/>
    </g>
  </g>
</svg>