<?xml version="1.0" encoding="UTF-8"?>
<svg id="Capa_2" data-name="Capa 2" xmlns="http://www.w3.org/2000/svg" viewBox="0 0 633.44 534.04">
  <defs>
    <style>
      .cls-1 {
        fill: #464646;
        stroke-width: 0px;
      }
    </style>
  </defs>
  <g id="Capa_1-2" data-name="Capa 1">
    <path class="cls-1" d="m316.73,71.73c5.7-6.39,10.88-12.68,16.59-18.5,26.9-27.42,59.04-46.48,98.7-51.33,61.88-7.57,114.95,10.11,155.32,55.52,44.44,50.01,54.84,108.3,39.38,171.11-7.51,30.49-23.57,57.31-43.2,82.2-30.28,38.42-67.09,70.89-105.08,102.2-44.78,36.91-89.8,73.57-134.8,110.25-17.21,14.03-35.85,14.6-52.5.92-58.54-48.1-117.23-96.06-175.07-144.92-29.73-25.11-56.44-53.11-78.21-84.99C-1.18,237.05-10.83,176.17,12.67,111.39,38.19,41.05,109.53-4.28,187.57.32c45.05,2.65,81.9,21.71,112.31,52.64,5.75,5.84,10.95,12.17,16.84,18.77Zm-.17,426.81c1.49-1.13,2.47-1.82,3.39-2.57,46.66-38.13,93.48-76.1,139.92-114.47,33.27-27.49,65.35-56.19,92.17-89.64,21.19-26.43,37.68-55.04,42.26-88.54,6.21-45.4-3.52-87-34.69-122.93-45.49-52.43-138.41-66.3-197.44-4.49-9.76,10.22-17.79,21.92-26.63,32.93-9.84,12.25-27.74,12.31-37.53.05-2.48-3.11-4.62-6.46-6.89-9.71-10.91-15.6-24.08-29.22-39.83-40.52C191.62,15.82,99.64,32.27,59.74,99.44c-31.66,53.3-30.22,107.82.36,161.5,16.8,29.51,39.48,54.97,65.23,77.57,41.1,36.08,83.3,71.05,125.28,106.24,21.59,18.1,43.7,35.67,65.96,53.79Z"/>
  </g>
</svg>