<?xml version="1.0" encoding="UTF-8"?>
<svg id="Capa_2" data-name="Capa 2" xmlns="http://www.w3.org/2000/svg" viewBox="0 0 244.5 217.54">
  <defs>
    <style>
      .cls-1 {
        fill: #7e828c;
        stroke-width: 0px;
      }
    </style>
  </defs>
  <g id="Capa_1-2" data-name="Capa 1">
    <path class="cls-1" d="m122.25,29.22c2.2-2.6,4.2-5.16,6.4-7.54,10.38-11.17,22.79-18.93,38.1-20.91,23.89-3.09,44.37,4.12,59.95,22.62,17.15,20.37,21.17,44.12,15.2,69.7-2.9,12.42-9.1,23.35-16.67,33.49-11.69,15.65-25.9,28.88-40.56,41.63-17.29,15.04-34.66,29.97-52.03,44.91-6.64,5.71-13.84,5.95-20.27.37-22.6-19.6-45.25-39.13-67.57-59.03-11.47-10.23-21.79-21.64-30.19-34.62C-.46,96.56-4.18,71.77,4.89,45.38,14.74,16.72,42.28-1.74,72.4.13c17.39,1.08,31.61,8.84,43.35,21.44,2.22,2.38,4.22,4.96,6.5,7.65Zm-.06,173.86c.57-.46.95-.74,1.31-1.05,18.01-15.53,36.08-31,54.01-46.63,12.84-11.2,25.22-22.89,35.58-36.52,8.18-10.77,14.54-22.42,16.31-36.07,2.4-18.49-1.36-35.44-13.39-50.08-17.56-21.36-53.43-27.01-76.21-1.83-3.77,4.16-6.87,8.93-10.28,13.41-3.8,4.99-10.71,5.01-14.49.02-.96-1.27-1.78-2.63-2.66-3.96-4.21-6.35-9.3-11.9-15.37-16.51C73.96,6.44,38.46,13.15,23.06,40.51c-12.22,21.71-11.66,43.92.14,65.79,6.49,12.02,15.24,22.39,25.18,31.6,15.87,14.7,32.15,28.94,48.35,43.28,8.34,7.37,16.87,14.53,25.46,21.91Z"/>
  </g>
</svg>