<?xml version="1.0" encoding="UTF-8"?>
<svg id="Capa_2" data-name="Capa 2" xmlns="http://www.w3.org/2000/svg" xmlns:xlink="http://www.w3.org/1999/xlink" viewBox="0 0 384 366">
  <defs>
    <style>
      .cls-1 {
        fill: url(#Degradado_sin_nombre_35);
        stroke: #eef0f6;
        stroke-miterlimit: 10;
        stroke-width: .88px;
      }

      .cls-2 {
        fill: url(#Degradado_sin_nombre_73);
      }

      .cls-2, .cls-3 {
        stroke-width: 0px;
      }

      .cls-4 {
        fill: #404242;
        font-family: Transducer-Regular, Transducer;
        font-size: 22.18px;
      }

      .cls-5 {
        letter-spacing: 0em;
      }

      .cls-3 {
        fill: #eef0f6;
        filter: url(#drop-shadow-1);
      }
    </style>
    <filter id="drop-shadow-1" filterUnits="userSpaceOnUse">
      <feOffset dx="9.58" dy="9.58"/>
      <feGaussianBlur result="blur" stdDeviation="7.18"/>
      <feFlood flood-color="#000" flood-opacity=".15"/>
      <feComposite in2="blur" operator="in"/>
      <feComposite in="SourceGraphic"/>
    </filter>
    <linearGradient id="Degradado_sin_nombre_73" data-name="Degradado sin nombre 73" x1="290.13" y1="85.12" x2="342.49" y2="46.65" gradientUnits="userSpaceOnUse">
      <stop offset="0" stop-color="#e38520"/>
      <stop offset=".21" stop-color="#e28121"/>
      <stop offset=".4" stop-color="#e27626"/>
      <stop offset=".58" stop-color="#e0632e"/>
      <stop offset=".76" stop-color="#df4939"/>
      <stop offset=".94" stop-color="#dc2747"/>
      <stop offset="1" stop-color="#dc1a4d"/>
    </linearGradient>
    <linearGradient id="Degradado_sin_nombre_35" data-name="Degradado sin nombre 35" x1="143.07" y1="196.74" x2="226.32" y2="196.74" gradientUnits="userSpaceOnUse">
      <stop offset="0" stop-color="#e38221"/>
      <stop offset=".16" stop-color="#e27924"/>
      <stop offset=".42" stop-color="#e0622e"/>
      <stop offset=".75" stop-color="#de3c3e"/>
      <stop offset="1" stop-color="#dc1a4d"/>
    </linearGradient>
  </defs>
  <g id="Capa_1-2" data-name="Capa 1">
    <g>
      <g>
        <path class="cls-3" d="m245.94,301.72l99.75-216.9c14.95-22.39-2.26-52.2-29.13-50.45L78.85,12.31C26.11,15.75-4.69,73.35,21.73,119.12l103.15,178.66c26.43,45.77,91.71,47.9,121.06,3.94Z"/>
        <path class="cls-2" d="m348.5,84l-22.77,49.49c-28.45-28.66-49.51-64.66-60.06-104.92l53.7,4.98c26.85-1.73,44.08,28.07,29.12,50.46Z"/>
      </g>
      <text class="cls-4" transform="translate(93.25 114.43)"><tspan class="cls-5" x="0" y="0">R</tspan><tspan x="16.23" y="0">astreo </tspan><tspan x="0" y="26.61">de tendencias</tspan></text>
      <path class="cls-1" d="m223.18,175.43c-4.1-.14-8.22-.11-12.32.01-1.57.05-2.81,1.17-2.83,2.71-.02,1.42.66,2.85,2.5,3.03,1.66.16,3.31.32,4.87.47-5.54,5.53-11.1,11.07-16.72,16.68-2.23-2.92-4.53-5.9-6.8-8.91-1.32-1.75-3.81-1.98-5.15-.36-4.18,5.04-8.34,10.11-12.72,15.43-.47-.61-.81-1.04-1.14-1.48-1.91-2.5-3.79-5.01-5.73-7.48-1.16-1.47-3.25-2.01-4.43-.85-6.41,6.28-12.74,12.65-19,19.07-1,1.02-.8,2.6.22,3.62,1.09,1.09,2.53.94,3.83.22.37-.21.63-.63.94-.94,4.58-4.58,9.17-9.17,13.75-13.75,1.87-1.87,1.83-1.84,3.42.34,1.93,2.63,3.87,5.26,5.94,7.78,1.14,1.39,2.86,1.36,4.08,0,2.02-2.26,3.92-4.63,5.88-6.95,2.45-2.89,4.92-5.78,7.4-8.69,2.22,2.98,4.33,5.86,6.49,8.7.97,1.27,2.2,2.26,3.9,1.58.84-.34,1.57-1.05,2.24-1.7,4.02-3.97,8-7.98,11.99-11.97,2.06-2.06,4.11-4.13,6.46-6.49,0,1.76-.02,3.08,0,4.4.04,2.23,1.07,3.52,2.77,3.54,1.85.02,3.16-1.25,3.21-3.43.09-3.72.08-7.44,0-11.17-.04-2.08-1.07-3.34-3.08-3.4Z"/>
    </g>
  </g>
</svg>