<?xml version="1.0" encoding="UTF-8"?>
<svg id="Capa_2" data-name="Capa 2" xmlns="http://www.w3.org/2000/svg" xmlns:xlink="http://www.w3.org/1999/xlink" viewBox="0 0 384 366">
  <defs>
    <style>
      .cls-1 {
        fill: url(#Degradado_sin_nombre_54);
      }

      .cls-1, .cls-2, .cls-3 {
        stroke: #eef0f6;
        stroke-miterlimit: 10;
        stroke-width: 2.36px;
      }

      .cls-2 {
        fill: url(#Degradado_sin_nombre_54-2);
      }

      .cls-4 {
        letter-spacing: -.02em;
      }

      .cls-5 {
        fill: url(#Degradado_sin_nombre_93);
      }

      .cls-5, .cls-6 {
        stroke-width: 0px;
      }

      .cls-3 {
        fill: url(#Degradado_sin_nombre_54-3);
      }

      .cls-7 {
        fill: #404242;
        font-family: Transducer-Regular, Transducer;
        font-size: 22.18px;
      }

      .cls-8 {
        letter-spacing: 0em;
      }

      .cls-6 {
        fill: #eef0f6;
        filter: url(#drop-shadow-1);
      }
    </style>
    <filter id="drop-shadow-1" filterUnits="userSpaceOnUse">
      <feOffset dx="9.58" dy="9.58"/>
      <feGaussianBlur result="blur" stdDeviation="7.18"/>
      <feFlood flood-color="#000" flood-opacity=".15"/>
      <feComposite in2="blur" operator="in"/>
      <feComposite in="SourceGraphic"/>
    </filter>
    <linearGradient id="Degradado_sin_nombre_93" data-name="Degradado sin nombre 93" x1="248.2" y1="237.46" x2="352.37" y2="299.96" gradientUnits="userSpaceOnUse">
      <stop offset=".55" stop-color="#e37e23"/>
      <stop offset=".62" stop-color="#e27725"/>
      <stop offset=".73" stop-color="#e1642d"/>
      <stop offset=".86" stop-color="#de443b"/>
      <stop offset="1" stop-color="#dc1a4d"/>
    </linearGradient>
    <linearGradient id="Degradado_sin_nombre_54" data-name="Degradado sin nombre 54" x1="230.42" y1="200.49" x2="102.24" y2="267.57" gradientUnits="userSpaceOnUse">
      <stop offset="0" stop-color="#dc1a4d"/>
      <stop offset=".29" stop-color="#de423c"/>
      <stop offset=".59" stop-color="#e1662c"/>
      <stop offset=".84" stop-color="#e27c23"/>
      <stop offset="1" stop-color="#e38520"/>
    </linearGradient>
    <linearGradient id="Degradado_sin_nombre_54-2" data-name="Degradado sin nombre 54" x1="225.01" y1="190.16" x2="96.84" y2="257.24" xlink:href="#Degradado_sin_nombre_54"/>
    <linearGradient id="Degradado_sin_nombre_54-3" data-name="Degradado sin nombre 54" x1="234.24" y1="207.8" x2="106.07" y2="274.88" xlink:href="#Degradado_sin_nombre_54"/>
  </defs>
  <g id="Capa_1-2" data-name="Capa 1">
    <g>
      <g>
        <path class="cls-6" d="m79.23,333.65l237.72-22.06c26.87,1.75,44.08-28.06,29.13-50.45L246.33,44.24C216.98.28,151.69,2.41,125.27,48.18L22.12,226.84c-26.42,45.77,4.38,103.38,57.12,106.82Z"/>
        <path class="cls-5" d="m346.09,261.14c14.95,22.39-2.27,52.19-29.12,50.46l-53,4.92c10.87-39.59,31.94-74.93,60.17-103.11l21.96,47.73Z"/>
      </g>
      <text class="cls-7" transform="translate(119.69 143.09)"><tspan class="cls-8" x="0" y="0">R</tspan><tspan x="16.23" y="0">ealidad </tspan><tspan class="cls-4" x="0" y="26.61">V</tspan><tspan x="15.83" y="26.61">irtual</tspan></text>
      <g>
        <path class="cls-1" d="m158.32,204.86c14.33,0,28.65,0,42.98,0,2.01,0,3.98.32,5.76,1.31,3.15,1.73,5.19,4.33,5.97,7.85.15.67.24,1.36.24,2.04.03,14.47.05,28.95.07,43.42,0,2.49-.8,4.73-2.2,6.76-1.82,2.63-4.34,4.16-7.45,4.73-.79.15-1.6.18-2.4.18-6.24.01-12.49.01-18.73,0-.94,0-1.88-.01-2.81-.13-1.73-.23-3.42-.7-4.99-1.46-1.58-.76-3.1-1.63-4.63-2.48-1.99-1.11-3.95-2.28-5.96-3.37-1.18-.64-2.46-1.06-3.8-1.23-1.12-.14-2.24-.14-3.38,0-1.93.23-3.6,1.08-5.25,2.05-2.54,1.49-5.09,2.95-7.66,4.39-1.57.88-3.28,1.45-5.04,1.8-.84.17-1.7.29-2.56.37-.7.07-1.42.07-2.12.07-6.24,0-12.49.01-18.73,0-2.64,0-4.99-.88-7.07-2.5-2.23-1.74-3.64-4-4.26-6.76-.2-.89-.3-1.78-.3-2.69,0-14.12,0-28.24,0-42.36,0-.87.01-1.74.2-2.58.48-2.18,1.4-4.14,3-5.73.82-.82,1.7-1.57,2.72-2.15,1.2-.68,2.5-1.1,3.85-1.37.83-.16,1.66-.19,2.5-.19,14.01,0,28.02,0,42.04,0Zm.31,7.8c-13.44,0-26.89,0-40.33,0-.97,0-1.94.03-2.92.06-.71.02-1.35.28-1.91.7-1.14.86-1.65,2.02-1.65,3.44,0,14.01,0,28.02,0,42.03,0,.34.02.69.06,1.03.2,1.9,1.89,3.43,3.83,3.44,6.4.02,12.79.01,19.19,0,.77,0,1.56-.06,2.32-.19,1.17-.21,2.28-.65,3.32-1.23,2.14-1.2,4.26-2.45,6.39-3.66,1.62-.93,3.21-1.9,4.99-2.51,1.94-.66,3.91-1.1,5.95-1.17,1.01-.03,2.02.04,3.02.12.74.06,1.48.16,2.2.32,1.75.4,3.43,1,4.99,1.88,2.8,1.59,5.58,3.19,8.36,4.81,1.73,1.01,3.59,1.6,5.59,1.61,6.53.03,13.06.02,19.58.01.27,0,.54-.04.8-.09,1.86-.4,3.12-2,3.12-3.97,0-14.12,0-28.24,0-42.36,0-.52-.05-1.06-.22-1.54-.62-1.79-2.03-2.73-3.98-2.73-14.24,0-28.47,0-42.71,0Z"/>
        <path class="cls-2" d="m137.18,251.67c-.94,0-1.87.04-2.81,0-1.63-.08-3.21-.42-4.72-1.05-4.26-1.75-7.27-4.76-9-9.01-.57-1.39-.85-2.88-.95-4.38-.04-.57-.09-1.14-.06-1.7.14-2.31.65-4.53,1.76-6.58,2.28-4.23,5.75-6.94,10.43-8.06,1.14-.27,2.29-.42,3.46-.41,1.26,0,2.52-.01,3.78,0,3.53.04,6.72,1.1,9.56,3.22,3,2.25,4.85,5.22,5.71,8.84.27,1.14.47,2.29.43,3.46-.03.71-.12,1.41-.17,2.12-.19,2.43-1.12,4.62-2.44,6.61-2.4,3.63-5.8,5.88-10.09,6.7-.87.17-1.77.2-2.66.25-.74.04-1.48,0-2.23,0Zm.17-7.75s0-.03,0-.05c.42,0,.83,0,1.25,0,.92,0,1.83-.08,2.73-.33,3.08-.86,5.79-4.07,5.6-7.59-.1-1.85-.66-3.48-1.84-4.88-1.51-1.81-3.51-2.69-5.83-2.78-1.52-.06-3.05,0-4.57.05-1.46.06-2.79.55-3.95,1.43-2.37,1.77-3.46,4.15-3.23,7.1.1,1.18.49,2.28,1.13,3.28,1.3,2.04,3.14,3.29,5.56,3.6,1.04.13,2.11.12,3.16.17Z"/>
        <path class="cls-3" d="m180.11,251.67c-.94,0-1.87.04-2.81,0-1.63-.08-3.2-.43-4.72-1.06-4.25-1.75-7.24-4.76-8.97-9-.57-1.39-.85-2.88-.95-4.38-.04-.58-.09-1.16-.06-1.73.14-2.3.66-4.51,1.76-6.55,2.28-4.23,5.75-6.94,10.43-8.07,1.15-.28,2.31-.42,3.49-.41,1.23,0,2.46,0,3.69,0,3.55.04,6.76,1.08,9.61,3.22,3,2.25,4.85,5.22,5.72,8.83.27,1.15.47,2.31.43,3.49-.03.7-.13,1.39-.17,2.09-.14,2.19-1.03,4.14-2.06,6.02-.84,1.54-2.02,2.82-3.36,3.95-1.86,1.56-3.97,2.63-6.33,3.19-1.12.27-2.25.42-3.41.41-.76,0-1.53,0-2.29,0Zm.19-7.75s0-.07,0-.1c.82,0,1.64.03,2.46,0,1.29-.06,2.47-.51,3.56-1.21,1.5-.97,2.55-2.3,3.17-3.97.31-.85.46-1.73.38-2.64-.06-.62-.07-1.26-.23-1.86-.95-3.59-4.02-5.81-7.67-5.86-1.15-.02-2.3,0-3.45,0-1.06,0-2.1.17-3.1.56-3.07,1.2-5.02,4.06-4.99,7.36.02,1.93.72,3.65,2.03,5.09,1.27,1.39,2.84,2.27,4.72,2.48,1.04.11,2.09.12,3.13.17Z"/>
      </g>
    </g>
  </g>
</svg>