<?xml version="1.0" encoding="UTF-8"?>
<svg id="Capa_2" data-name="Capa 2" xmlns="http://www.w3.org/2000/svg" xmlns:xlink="http://www.w3.org/1999/xlink" viewBox="0 0 384 366">
  <defs>
    <style>
      .cls-1 {
        fill: #404242;
        font-family: Transducer-Regular, Transducer;
        font-size: 22.18px;
      }

      .cls-2 {
        fill: url(#Degradado_sin_nombre_9);
      }

      .cls-2, .cls-3, .cls-4 {
        stroke-width: 0px;
      }

      .cls-3 {
        fill: #eef0f6;
        filter: url(#drop-shadow-1);
      }

      .cls-4 {
        fill: url(#Degradado_sin_nombre_22);
      }
    </style>
    <filter id="drop-shadow-1" filterUnits="userSpaceOnUse">
      <feOffset dx="9.58" dy="9.58"/>
      <feGaussianBlur result="blur" stdDeviation="7.18"/>
      <feFlood flood-color="#000" flood-opacity=".15"/>
      <feComposite in2="blur" operator="in"/>
      <feComposite in="SourceGraphic"/>
    </filter>
    <linearGradient id="Degradado_sin_nombre_9" data-name="Degradado sin nombre 9" x1="76.45" y1="260.57" x2="16.75" y2="295.05" gradientUnits="userSpaceOnUse">
      <stop offset="0" stop-color="#e38520"/>
      <stop offset=".26" stop-color="#e28221"/>
      <stop offset=".44" stop-color="#e27825"/>
      <stop offset=".6" stop-color="#e1692b"/>
      <stop offset=".75" stop-color="#df5334"/>
      <stop offset=".89" stop-color="#dd3640"/>
      <stop offset="1" stop-color="#dc1a4d"/>
    </linearGradient>
    <linearGradient id="Degradado_sin_nombre_22" data-name="Degradado sin nombre 22" x1="168.87" y1="243.15" x2="257.59" y2="243.15" gradientUnits="userSpaceOnUse">
      <stop offset="0" stop-color="#dc1a4d"/>
      <stop offset="1" stop-color="#e38221"/>
    </linearGradient>
  </defs>
  <g id="Capa_1-2" data-name="Capa 1">
    <g>
      <g>
        <path class="cls-3" d="m117.52,43.71L17.77,260.61c-14.95,22.39,2.26,52.2,29.13,50.45l237.72,22.06c52.74-3.44,83.54-61.05,57.12-106.82L238.59,47.65C212.16,1.88,146.87-.24,117.52,43.71Z"/>
        <path class="cls-2" d="m17.76,260.61l21.93-47.67c28.18,28.15,49.22,63.49,60.09,103.03l-52.87-4.89c-26.88,1.73-44.08-28.07-29.15-50.46Z"/>
      </g>
      <text class="cls-1" transform="translate(118.45 140.4)"><tspan x="0" y="0">Social</tspan><tspan x="0" y="26.61">Listening</tspan></text>
      <path class="cls-4" d="m243.42,210.4c.51-.55.99-1.09,1.5-1.61.89-.92,2.13-1.02,2.91-.27.76.74.73,1.94-.14,2.85-1.26,1.32-2.58,2.59-3.87,3.89-7.35,7.35-14.7,14.72-22.08,22.05-.58.57-.6.99-.26,1.67,2.44,4.81.14,11-5.42,12.85-5.8,1.94-11.08-2.64-11.86-7.27-.79-4.74,2.57-9.63,7.26-10.5,2.07-.38,4.19-.17,6.09.89.59.33.95.29,1.43-.21,1.38-1.45,2.82-2.85,4.25-4.27-5.36-4.66-15.57-5.2-21.8,1.69-6.17,6.83-5.82,17.25,1.95,23.62,1.08-.8,2.28-1.25,3.7-1.2,2.06.06,4.22,1.53,4.88,3.48.44,1.3.71,1.48,2.06,1.26,2.12-.34,4.21-.72,6.18-1.67,3.46-1.68,6.07-4.2,7.69-7.68,1-2.16,1.54-4.44,1.54-6.85,0-1.03.94-2.02,1.82-1.92,1.46.16,2.01.9,1.97,2.01-.28,7.9-3.84,13.77-10.8,17.54-2.39,1.3-4.96,2.01-7.67,2.17-.95.06-1.91-.01-2.86.02-.28.01-.62.13-.8.33-1.68,1.86-3.91,2.53-6.03,1.72-2.03-.77-3.58-2.7-3.65-5.38,0-.28-.17-.65-.39-.83-3.97-3.29-6.55-7.39-7.35-12.54-1.18-7.62,1.45-13.79,7.23-18.7,2.84-2.42,6.18-3.73,9.92-4.18,5.41-.64,10.24.69,14.59,3.88.46.34.71.36,1.1-.03,1.64-1.66,3.3-3.29,5.03-5.02-1.41-1.44-3.07-2.47-4.76-3.44-2.78-1.58-5.78-2.64-8.92-3.06-3.99-.52-7.99-.52-11.93.6-5.36,1.52-9.85,4.38-13.55,8.52-.35.39-.35.62-.14,1.11,1.23,2.9.56,6.78-3.49,7.64-1.6.34-2.11,1.23-2.42,2.6-.67,3.01-1.03,6.06-.76,9.12.35,3.87,1.43,7.56,3.34,10.99,3.26,5.86,7.98,10.03,14.17,12.61,4,1.67,8.17,2.33,12.42,1.93,5.46-.52,10.47-2.4,14.86-5.86,5.39-4.24,8.73-9.71,10.16-16.36.31-1.45.29-2.97.44-4.46.05-.55.1-1.12.24-1.65.2-.8,1.19-1.41,1.96-1.29,1.1.17,1.54.74,1.59,1.82.19,3.76-.52,7.39-1.78,10.89-1.82,5.04-4.8,9.35-8.84,12.88-3.95,3.46-8.49,5.78-13.6,7.01-3.17.76-6.39,1.13-9.61.83-8.72-.81-16-4.58-21.7-11.2-3.68-4.28-6.08-9.29-7.01-14.87-.43-2.57-.57-5.26-.37-7.86.19-2.5.96-4.96,1.5-7.43.13-.59.28-1.03-.2-1.67-2.22-2.95-.7-7.29,2.75-8.23.74-.2,1.55-.08,2.32-.18.32-.04.72-.19.92-.43,4.58-5.22,10.16-8.77,16.96-10.4,3.4-.81,6.86-.9,10.28-.63,5.08.4,9.85,2,14.13,4.86,1.29.86,2.51,1.84,3.71,2.72,2.1-2.09,4.2-4.18,6.33-6.29-2.26-2.06-4.76-3.88-7.48-5.4-3.5-1.95-7.23-3.25-11.13-4.13-3.67-.84-7.37-1.05-11.09-.86-5.27.27-10.32,1.55-15.07,3.87-3.18,1.55-6.11,3.5-8.82,5.8-4.14,3.53-7.39,7.75-9.86,12.56-1.72,3.36-3.06,6.91-3.61,10.66-.43,2.92-.8,5.89-.74,8.83.12,5.16,1.29,10.13,3.39,14.88,2.12,4.82,5.05,9.08,8.78,12.76,2.75,2.71,5.83,5.01,9.27,6.82,4.07,2.14,8.33,3.75,12.91,4.32,2.47.31,4.98.66,7.45.55,5.7-.25,11.18-1.58,16.35-4.09,3.28-1.59,6.3-3.57,9.04-5.96,3.42-2.99,6.28-6.46,8.57-10.4,2.14-3.68,3.66-7.61,4.45-11.77.51-2.65.64-5.37.84-8.07.12-1.59,1.29-2.55,2.68-2.03.77.29,1.19.83,1.11,1.66-.23,2.67-.4,5.35-.76,8-.57,4.26-1.99,8.29-3.95,12.1-4.04,7.84-9.85,13.99-17.52,18.42-4.34,2.5-8.97,4.14-13.83,5.17-1.7.36-3.46.45-5.19.6-1.4.12-2.82.28-4.22.19-5.06-.31-10.02-1.1-14.76-3.03-3.64-1.48-7.09-3.29-10.25-5.62-2.66-1.96-5.05-4.2-7.23-6.68-2.43-2.77-4.46-5.81-6.13-9.09-1.78-3.51-3.13-7.17-3.89-11.03-.66-3.34-1.12-6.72-.94-10.13.29-5.71,1.37-11.26,3.72-16.53,1.67-3.74,3.75-7.22,6.33-10.37,2.49-3.03,5.35-5.71,8.56-8.01,3.94-2.82,8.18-5.02,12.85-6.3,2.39-.65,4.85-1.1,7.3-1.48,1.72-.27,3.48-.35,5.23-.39,5.06-.12,9.97.7,14.76,2.32,5.66,1.91,10.7,4.85,15.13,8.85.15.14.35.24.62.42Zm-24.79,32.66c.41-2.77-2.64-5.27-4.92-5.36-3.9-.15-5.9,3.03-5.82,5.34.1,3.21,2.37,5.35,5.38,5.47,3.03.13,5.37-2.37,5.37-5.45Zm-11.74,15.3c-.83,0-1.71.84-1.68,1.58.03.65,1,1.64,1.61,1.65.85,0,1.64-.84,1.63-1.73-.02-.91-.64-1.51-1.56-1.5Zm-17.95-29.88c.02-1.09-.32-1.47-1.32-1.49-1.05-.02-1.67.5-1.71,1.42-.04.91.65,1.61,1.58,1.61.97,0,1.43-.48,1.44-1.55Z"/>
    </g>
  </g>
</svg>