<?xml version="1.0" encoding="UTF-8"?>
<svg id="Capa_2" data-name="Capa 2" xmlns="http://www.w3.org/2000/svg" xmlns:xlink="http://www.w3.org/1999/xlink" viewBox="0 0 384 361">
  <defs>
    <style>
      .cls-1 {
        fill: #eef0f6;
        filter: url(#drop-shadow-1);
        stroke-width: 0px;
      }

      .cls-2 {
        fill: url(#Degradado_sin_nombre_107);
        fill-rule: evenodd;
      }
    </style>
    <filter id="drop-shadow-1" filterUnits="userSpaceOnUse">
      <feOffset dx="0" dy="0"/>
      <feGaussianBlur result="blur" stdDeviation="5"/>
      <feFlood flood-color="#000" flood-opacity=".2"/>
      <feComposite in2="blur" operator="in"/>
      <feComposite in="SourceGraphic"/>
    </filter>
    <linearGradient id="Degradado_sin_nombre_107" data-name="Degradado sin nombre 107" x1="156.26" y1="184.68" x2="300.06" y2="184.68" gradientTransform="translate(-39.46 -4.87) rotate(.05)" gradientUnits="userSpaceOnUse">
      <stop offset="0" stop-color="#e38520"/>
      <stop offset=".11" stop-color="#e27825"/>
      <stop offset="1" stop-color="#dc1a4d"/>
    </linearGradient>
  </defs>
  <g id="Capa_1-2" data-name="Capa 1">
    <g>
      <path class="cls-1" d="m368.55,233.23c-46.28-87.61-116.83-164.47-200.21-217.25C149.69,41.15,52.25,177.53,15.19,228.71c49.41,27.36,90.43,68.02,118.25,117.14,3.22-1.77,220.32-106.12,235.11-112.62Z"/>
      <path class="cls-2" d="m193.25,217c-.49,0-.98-.15-1.43-.51l-3.1-2.3c-.15-.1-.3-.1-.44,0l-3.1,2.3c-.89.66-1.97.66-2.85,0-.84-.61-1.18-1.74-.83-2.76l1.18-3.78c.05-.15,0-.36-.15-.46l-3.1-2.36c-.88-.61-1.18-1.74-.88-2.76.35-1.07,1.23-1.74,2.31-1.74h3.79c.2,0,.34-.1.39-.25l1.18-3.78c.3-1.07,1.23-1.74,2.26-1.74s1.97.67,2.31,1.74h0l1.18,3.79c.05.15.2.26.34.26h3.84c1.08,0,1.97.67,2.26,1.74.34,1.02,0,2.15-.84,2.76l-3.1,2.35c-.15.1-.2.26-.15.46l1.18,3.79c.34,1.02,0,2.15-.89,2.76-.39.36-.89.51-1.38.51h0Zm-4.77-5.02c.49,0,.98.15,1.43.46l3.1,2.36c.2.15.34.05.44,0s.25-.2.15-.46l-1.18-3.79c-.34-1.02.05-2.15.89-2.76l3.1-2.35c.2-.15.15-.36.15-.46-.05-.1-.15-.26-.39-.26h-3.84c-1.03,0-1.92-.72-2.26-1.74l-1.18-3.79c-.1-.2-.25-.26-.39-.26-.1,0-.25.05-.34.26l-1.18,3.78c-.35,1.07-1.23,1.74-2.31,1.74h-3.79c-.25,0-.34.15-.39.25,0,.1-.05.31.15.46l3.1,2.36c.84.61,1.23,1.74.88,2.76l-1.18,3.78c-.1.26.05.41.15.46s.25.15.44,0l3.1-2.35c.39-.31.89-.46,1.38-.46h0Zm.08-88.16c-2.75,0-4.97,2.35-4.97,5.21s2.21,5.22,4.96,5.22,5.02-2.35,5.02-5.21c0-2.86-2.26-5.22-5.01-5.22h0Zm2.45,5.22c0,1.38-1.08,2.5-2.46,2.5s-2.41-1.13-2.41-2.51,1.08-2.5,2.41-2.5,2.46,1.13,2.46,2.51h0Zm-14.81,7.66c-1.53,0-2.75-1.28-2.75-2.87s1.23-2.91,2.76-2.91,2.8,1.33,2.8,2.92-1.23,2.86-2.81,2.86h0Zm0-4.09c-.64,0-1.18.51-1.18,1.23,0,.66.54,1.23,1.18,1.23.69,0,1.23-.56,1.23-1.23,0-.72-.54-1.23-1.23-1.23h0Zm24.69,4.11c-1.53,0-2.75-1.28-2.75-2.87s1.23-2.91,2.76-2.91,2.8,1.33,2.8,2.92-1.28,2.86-2.81,2.86h0Zm0-4.09c-.64,0-1.18.51-1.18,1.23,0,.66.54,1.23,1.18,1.23.69,0,1.18-.56,1.18-1.23,0-.72-.54-1.23-1.18-1.23h0Zm-12.45,111.88c-34.19-.03-62.01-29-61.97-64.54.03-35.54,27.9-64.46,62.09-64.43,34.24.03,62.01,29,61.97,64.54-.03,35.54-27.86,64.46-62.09,64.43h0Zm.12-124.78c-31.98-.03-57.98,27-58.01,60.24-.03,33.24,25.92,60.32,57.9,60.35,31.98.03,58.03-27,58.06-60.24.03-33.24-25.97-60.32-57.94-60.35h0Zm17.81,46.35c-.79,0-1.43.66-1.43,1.48v2.86c0,.82.64,1.53,1.42,1.54.84,0,1.48-.71,1.48-1.53v-2.86c0-.82-.64-1.48-1.47-1.48h0Zm-35.72-.03c-.79,0-1.43.66-1.43,1.48v2.86c0,.82.64,1.53,1.42,1.54.84,0,1.48-.71,1.48-1.53v-2.86c0-.82-.64-1.48-1.47-1.48h0Zm35.72-5.69c-3.79,0-6.94,3.27-6.94,7.2v2.86c0,3.99,3.14,7.21,6.93,7.22s6.99-3.22,6.99-7.2v-2.86c0-1.89-.73-3.73-2.06-5.06-1.28-1.38-3.05-2.15-4.92-2.15h0Zm4.08,7.21v2.86c0,2.35-1.83,4.24-4.09,4.24s-4.03-1.9-4.03-4.25v-2.86c0-2.3,1.83-4.19,4.04-4.19s4.08,1.9,4.08,4.2h0Zm-39.79-7.25c-3.79,0-6.94,3.27-6.94,7.2v2.86c0,3.99,3.14,7.21,6.93,7.22,3.84,0,6.94-3.22,6.94-7.2v-2.86c0-3.94-3.09-7.21-6.93-7.22h0Zm4.08,7.21v2.86c0,2.35-1.83,4.24-4.09,4.24-2.21,0-4.03-1.9-4.03-4.25v-2.86c0-2.3,1.83-4.19,4.04-4.19,2.26,0,4.08,1.9,4.08,4.2h0Zm53.62-.36h0c-.44-5.47-2.7-10.59-6.43-14.43,1.92-1.12,3.54-2.55,4.82-4.19,3.05-3.93,3.06-7.92,3.06-8.08,0-.51-.25-1.02-.69-1.28-.39-.26-.93-.31-1.38-.05-3.4,1.74-7.92,2.04-12.74,2.39-3.1.2-6.25.4-9.35,1.01-5.41-2.41-11.16-3.64-17.12-3.65s-11.66,1.22-17.12,3.61c-3.1-.62-6.25-.82-9.3-1.03-4.82-.36-9.4-.67-12.74-2.42-.44-.26-.98-.21-1.43.05-.44.26-.69.77-.69,1.28,0,.15.05,4.14,3.04,8.08,1.28,1.64,2.9,3.07,4.82,4.2-3.69,3.83-6.01,8.94-6.41,14.31l-.05.05c-.15.61-4.2,14.52-4.2,20.45,0,.82.64,1.53,1.47,1.54h2.66s0,2.76,0,2.76c0,.72.44,1.28,1.08,1.48.2.05,1.92.46,4.57.72.83,8.64,4.71,16.73,10.85,22.66,2.31,2.2,4.92,4.1,7.72,5.58l-8.76.76c-1.67.1-3.1,1.28-3.64,2.96l-.79,2.45c-.15.41-.1.82.05,1.18.2.36.49.61.84.77.74.26,1.62-.2,1.87-.97l.79-2.51c.15-.51.59-.87,1.13-.92l.74-.05v3.02c0,.82.64,1.48,1.42,1.48.84,0,1.48-.66,1.48-1.48v-3.27s1.43-.1,1.43-.1l1.23,3.84c.25.77,1.08,1.23,1.82.97.39-.15.69-.41.84-.77.2-.36.25-.77.1-1.18l-1.03-3.12,6.54-.56c6.25,1.85,13.13,1.85,19.14.02h.1s6.49.57,6.49.57l-1.04,3.12c-.1.41-.05.82.1,1.18.2.36.49.61.84.77.74.26,1.57-.2,1.82-.97l1.23-3.83,1.48.1v3.27c0,.82.64,1.48,1.42,1.48.79,0,1.43-.66,1.43-1.48v-3.02s.79.05.79.05c.49.05.93.41,1.13.92l.78,2.51c.2.61.74,1.02,1.38,1.02.15,0,.3,0,.44-.05.39-.15.69-.41.84-.77.2-.36.2-.77.1-1.18l-.83-2.51c-.49-1.64-1.92-2.81-3.59-2.97l-8.76-.72c2.81-1.48,5.37-3.37,7.68-5.62,6.2-5.93,10.05-13.95,10.89-22.59,2.71-.25,4.38-.71,4.58-.76.64-.15,1.08-.77,1.08-1.43v-2.76s2.71,0,2.71,0c.79,0,1.43-.71,1.43-1.53,0-5.88-3.97-19.79-4.16-20.41h0Zm-23.17,49.23c4.24-6.08,6.61-14.06,6.76-22.55,2.56.36,5.16.57,7.87.47-.89,7.72-4.39,14.88-9.91,20.19-2.26,2.15-4.82,3.98-7.58,5.36,1.03-1.02,1.97-2.2,2.86-3.47h0Zm24.38-30.3h-2.61c-.79,0-1.43.66-1.43,1.48v3.07c-1.38.25-3.99.66-7.28.66-1.82,0-3.64-.16-5.36-.36,7.04-2.29,12.6-8.12,14.67-15.48.78,3.32,1.71,7.67,2.01,10.64h0Zm-58.93-4.35c-6.74,0-12.24-5.74-12.24-12.8s5.52-12.73,12.26-12.72c6.79,0,12.29,5.74,12.29,12.75,0,7.06-5.52,12.78-12.31,12.77h0Zm16.97-1.11c.49-.51,1.33-.51,1.82,0l1.52,1.59-2.47,6.75-2.4-6.75,1.53-1.58h0Zm18.77-27.39c-8.36,0-15.16,7.04-15.17,15.74s6.77,15.81,15.14,15.82c8.36,0,15.21-7.04,15.22-15.79,0-2.4-.49-4.71-1.52-6.85-.34-.72-1.23-1.08-1.92-.72-.34.15-.64.51-.74.87-.15.36-.1.77.05,1.13.83,1.79,1.23,3.63,1.22,5.63,0,7.01-5.52,12.73-12.31,12.72-6.74,0-12.24-5.74-12.24-12.75,0-7.06,5.52-12.78,12.26-12.77,2.71,0,5.26.87,7.38,2.56.34.2.74.31,1.08.26.39-.05.74-.25.98-.56.2-.31.3-.72.25-1.12s-.25-.77-.54-.97c-.39-.31-.84-.61-1.23-.87,1.72-.36,3.35-.82,4.82-1.43,4.08,3.79,6.44,9.21,6.43,14.89-.01,10.99-8.63,19.94-19.16,19.93-4.82,0-9.35-1.85-12.88-5.23l.49-1.33c.2-.56.05-1.18-.34-1.59l-2.16-2.25c-.79-.82-1.87-1.28-2.95-1.28s-2.21.46-3,1.28l-2.17,2.25c-.39.41-.54,1.02-.35,1.58l.49,1.33c-3.55,3.37-8.07,5.21-12.84,5.2-10.58,0-19.18-8.97-19.17-19.96,0-5.68,2.37-11.1,6.46-14.88,1.48.62,3.1,1.08,4.82,1.44-4.48,2.86-7.29,7.97-7.29,13.44,0,8.74,6.77,15.81,15.19,15.82s15.16-7.04,15.17-15.79c0-8.69-6.77-15.76-15.14-15.77s-14.71-2.26-18-6.46c-.93-1.18-1.67-2.51-2.11-3.94,3.39,1.13,7.23,1.39,11.31,1.65,9.89.73,20.12,1.45,25.27,14.44.29.77,1.23,1.13,1.92.82.34-.15.64-.41.79-.82,5.18-12.98,15.41-13.69,25.3-14.4,4.08-.25,7.92-.5,11.27-1.63-.44,1.43-1.13,2.76-2.07,3.94-3.3,4.19-9.55,6.43-18.01,6.43h0Zm-41.31,40.57c0,.82.05,1.59.1,2.4.05.77.69,1.38,1.52,1.38h0c.39,0,.74-.2.98-.51.3-.31.39-.66.39-1.07-.05-.87-.1-1.84-.1-2.76h0c1.57-.41,3.05-.87,4.53-1.43,4.48-.35,8.66-2.14,12.11-5.1l2.55,7.11c.2.56.74.97,1.33.97s1.18-.41,1.38-.97l2.56-7.11c3.44,2.97,7.62,4.76,12.1,5.13,1.48.56,2.95,1.03,4.52,1.44h0c-.02,16.52-9.28,29.91-20.59,29.9-4.48,0-8.71-2.1-12.29-5.99-3.59-3.94-6.19-9.47-7.41-15.66-.1-.41-.29-.72-.64-.97-.2-.15-.49-.26-.79-.26-.1,0-.2.05-.3.05-.39.05-.69.31-.89.61-.25.36-.3.77-.25,1.18,1.32,6.7,4.22,12.79,8.15,17.09.2.2.39.41.59.61-2.75-1.38-5.31-3.23-7.57-5.38-5.5-5.32-9.04-12.49-9.87-20.26,2.66.1,5.31-.05,7.87-.4h0Zm34.53-49.47c-4.82,2.09-8.47,5.52-11.08,10.47-2.55-4.96-6.19-8.39-11.01-10.49-.39-.15-.79-.31-1.18-.46,7.87-2.55,16.58-2.54,24.45.02-.44.15-.84.31-1.18.46h0Zm-49.58,41.68h-2.56c.25-2.97,1.19-7.31,2.03-10.64,2.06,7.37,7.56,13.2,14.65,15.51-1.72.2-3.54.35-5.36.35-3.3,0-5.95-.41-7.28-.67v-3.07c0-.82-.64-1.48-1.47-1.48h0Zm38.41,68.72c-39.6-.04-71.84-33.56-71.8-74.78.04-41.22,32.34-74.68,71.94-74.65,39.65.04,71.89,33.56,71.85,74.78-.04,41.22-32.34,74.68-71.99,74.65h0Zm.14-145.24c-37.39-.03-67.87,31.59-67.91,70.46-.04,38.92,30.39,70.55,67.77,70.58,37.44.03,67.87-31.54,67.91-70.46.04-38.87-30.34-70.55-67.77-70.58h0Zm1.88,98.09c0,1.13-.89,2.04-1.97,2.04s-1.97-.92-1.97-2.05.89-2.04,1.97-2.04,1.97.92,1.97,2.05h0Z"/>
    </g>
  </g>
</svg>