<?xml version="1.0" encoding="UTF-8"?>
<svg id="Capa_2" data-name="Capa 2" xmlns="http://www.w3.org/2000/svg" xmlns:xlink="http://www.w3.org/1999/xlink" viewBox="0 0 318 328">
  <defs>
    <style>
      .cls-1 {
        fill: #eef0f6;
        filter: url(#drop-shadow-1);
        stroke-width: 0px;
      }

      .cls-2 {
        fill: url(#Degradado_sin_nombre_107);
        fill-rule: evenodd;
      }
    </style>
    <filter id="drop-shadow-1" filterUnits="userSpaceOnUse">
      <feOffset dx="0" dy="0"/>
      <feGaussianBlur result="blur" stdDeviation="5"/>
      <feFlood flood-color="#000" flood-opacity=".2"/>
      <feComposite in2="blur" operator="in"/>
      <feComposite in="SourceGraphic"/>
    </filter>
    <linearGradient id="Degradado_sin_nombre_107" data-name="Degradado sin nombre 107" x1="153.07" y1="81.97" x2="227.15" y2="210.28" gradientUnits="userSpaceOnUse">
      <stop offset="0" stop-color="#e38520"/>
      <stop offset=".11" stop-color="#e27825"/>
      <stop offset="1" stop-color="#dc1a4d"/>
    </linearGradient>
  </defs>
  <g id="Capa_1-2" data-name="Capa 1">
    <g>
      <path class="cls-1" d="m15.01,102.11C98.45,49.3,196.66,17.74,302.06,15.02v260.01c-48.04,2.3-93.17,15.7-132.89,37.68C118.79,243.88,36.6,132.26,15.01,102.11Z"/>
      <path class="cls-2" d="m253.13,127.13c-.3-1.02-1.28-1.58-2.27-1.28-.99.31-1.53,1.38-1.23,2.35,0,.05.05.1.05.15,3.75,11.4,3.15,23.87-1.68,34.81-.44.97-.05,2.1.89,2.5.94.46,1.97.05,2.42-.92h0c5.23-11.86,5.87-25.3,1.82-37.62h0Zm-42.64,25.35l-1.92,1.99c-.39.41-.39,1.07,0,1.48.2.2.44.31.69.31s.49-.1.69-.31l1.92-1.99c.39-.41.39-1.07,0-1.48s-1.04-.41-1.38,0h0Zm25.98-26.94l-1.92,1.99c-.39.41-.39,1.07,0,1.48.2.2.44.31.69.31s.54-.1.74-.31l1.87-1.99c.39-.41.39-1.07,0-1.48-.39-.41-1.04-.41-1.38,0h0Zm-25.98,3.48c.2.2.44.31.69.31s.49-.1.69-.31c.39-.41.39-1.07,0-1.48l-1.92-1.99c-.35-.41-.99-.41-1.38,0-.39.41-.39,1.07,0,1.48l1.92,1.99h0Zm25.49,23.46c-.39-.41-1.04-.41-1.43,0s-.39,1.07,0,1.48l1.92,1.99c.15.2.44.31.69.31s.49-.1.69-.31c.39-.41.39-1.07,0-1.48l-1.87-1.99h0Zm-29.77-12.78h-2.71c-.54,0-.99.46-.99,1.02,0,.61.44,1.07.99,1.07h2.71c.54,0,.99-.46.99-1.07,0-.56-.44-1.02-.99-1.02h0Zm36.72,0h-2.71c-.54,0-.99.46-.99,1.02,0,.61.44,1.07.99,1.07h2.71c.54,0,.99-.46.99-1.07,0-.56-.44-1.02-.99-1.02h0Zm-19.72-15.59c.54,0,.99-.46.99-1.02v-2.81c0-.56-.44-1.02-.99-1.02s-.99.46-.99,1.02v2.81c0,.56.44,1.02.99,1.02h0Zm4.58,8.18c-.44-.31-1.08-.1-1.33.41-.3.46-.1,1.12.39,1.38,2.32,1.38,3.75,3.88,3.75,6.64,0,.61.44,1.07.99,1.07.59,0,1.04-.46,1.04-1.07,0-3.48-1.87-6.75-4.83-8.43h0Zm-4.39-1.23h0c-.54,0-.99.46-1.04,1.02,0,.56.44,1.02.99,1.02h.05c.54,0,.99-.41.99-.97,0-.61-.44-1.07-.99-1.07h0Zm9.91-.66c-2.66-2.76-6.16-4.34-9.91-4.4-3.8-.05-7.39,1.48-10.15,4.24-2.71,2.81-4.24,6.49-4.24,10.48,0,4.24,1.77,8.33,4.88,11.14,2.22,1.99,3.5,4.91,3.5,7.92v7.41c0,2.86,2.27,5.16,4.98,5.16h1.68c2.71,0,4.98-2.3,4.98-5.16v-7.31c0-3.12,1.23-6.03,3.45-7.97,3.15-2.81,4.93-6.9,4.93-11.14,0-3.94-1.43-7.62-4.09-10.38h0Zm-10.11,17.79h-.69c-.35,0-.64-.31-.64-.66s.3-.66.64-.66c.39,0,.69.31.69.66v.66h0Zm0,6.18c.54,0,.99.46.99,1.02v3.53h-1.97v-3.53c0-.56.44-1.02.99-1.02h0Zm3.8,6.64v1.53h-7.59v-1.53h7.59Zm-7.59,3.58h7.59v1.53h-7.59v-1.53h0Zm4.63,5.67h-1.68c-1.28,0-2.42-.87-2.81-2.04h7.3c-.39,1.18-1.53,2.04-2.81,2.04h0Zm7.15-19.93c-2.46,2.15-3.89,5.26-4.14,8.59h-.84v-3.53c0-.92-.39-1.74-1.04-2.3h0v-3.42c.84-.61,1.38-1.58,1.38-2.71v-1.64c0-2.2-1.73-3.99-3.89-3.99h-1.77c-.59,0-1.04.46-1.04,1.02,0,.61.49,1.07,1.04,1.07h1.77c1.04,0,1.87.87,1.87,1.89v.41c-.49-.56-1.18-.97-2.02-.97-1.43,0-2.61,1.28-2.61,2.76s1.18,2.76,2.61,2.76h.69v2.04c-1.68,0-3.01,1.38-3.01,3.07v3.53h-.79c-.25-3.27-1.73-6.39-4.24-8.64-2.66-2.4-4.19-5.88-4.14-9.56,0-3.37,1.28-6.59,3.65-9,2.32-2.35,5.42-3.68,8.68-3.63,6.65.1,12.08,5.78,12.08,12.68,0,3.68-1.58,7.16-4.24,9.56h0Zm-59.01-55.56c0,1.07-.84,1.89-1.82,1.89-1.04,0-1.82-.82-1.82-1.89s.79-1.89,1.82-1.89,1.82.87,1.82,1.89h0Zm36.43,88.83c0,1.07-.79,1.89-1.82,1.89s-1.82-.82-1.82-1.89.84-1.89,1.82-1.89c1.04,0,1.82.87,1.82,1.89h0Zm16.42-79.38c0,1.02-.84,1.89-1.82,1.89s-1.82-.87-1.82-1.89.84-1.89,1.82-1.89,1.82.87,1.82,1.89h0Zm-71.08,24.58c0,1.02-.84,1.89-1.82,1.89-1.04,0-1.82-.87-1.82-1.89,0-1.07.79-1.89,1.82-1.89s1.82.82,1.82,1.89h0Zm5.47,51.01c0,1.07-.84,1.89-1.82,1.89-1.04,0-1.82-.82-1.82-1.89s.79-1.89,1.82-1.89,1.82.87,1.82,1.89h0Zm31.01-79.38c0,1.07-.84,1.89-1.87,1.89s-1.82-.82-1.82-1.89.84-1.89,1.82-1.89c1.04,0,1.87.87,1.87,1.89h0Zm3.6,92.61c0,1.02-.79,1.89-1.82,1.89s-1.82-.87-1.82-1.89.84-1.89,1.82-1.89c1.04,0,1.82.87,1.82,1.89h0Zm-43.72-77.49c5.03,0,9.12-4.24,9.12-9.46s-4.09-9.46-9.12-9.46-9.12,4.24-9.12,9.46,4.09,9.46,9.12,9.46h0Zm0-15.13c3.01,0,5.47,2.56,5.47,5.67s-2.46,5.67-5.47,5.67-5.47-2.56-5.47-5.67,2.46-5.67,5.47-5.67h0Zm-7.3,45.39c0-8.48,1.28-16.92,3.84-24.99.35-1.02-.15-2.1-1.13-2.4-.94-.36-1.97.15-2.32,1.12v.1c-9.02,28.52-2.71,59.85,16.61,82.24.69.77,1.82.82,2.56.15.79-.72.84-1.89.2-2.66,0,0,0-.05-.05-.05-12.72-14.72-19.72-33.78-19.72-53.51h0Zm15.97-49.94c.54,0,1.08-.26,1.43-.72l.35-.46c.64-.82,1.33-1.69,2.02-2.45.64-.77.59-1.99-.2-2.66-.74-.72-1.87-.61-2.56.15-.69.82-1.38,1.74-2.12,2.61l-.35.46c-.59.82-.49,1.99.3,2.66.3.26.74.41,1.13.41h0Zm7.15,74.83c-.39-.97-1.48-1.43-2.42-1.02-.94.41-1.33,1.53-.94,2.5h0c4.93,12.16,13.16,22.59,23.71,30,.79.56,1.92.36,2.51-.51.59-.82.39-1.99-.44-2.61l-.05-.05c-9.96-6.95-17.75-16.82-22.38-28.32h0Zm-6.51-30.56h.2c.94,0,1.73-.72,1.82-1.69,2.07-18.66,11.88-35.42,26.87-45.9.84-.56,1.08-1.74.54-2.61-.59-.87-1.73-1.12-2.56-.56l-.05.05c-15.87,11.09-26.22,28.88-28.39,48.61-.15,1.02.59,1.99,1.58,2.1h0Zm18.04-15.13c-4.04,0-7.3,3.37-7.3,7.56s3.25,7.56,7.3,7.56,7.25-3.42,7.25-7.56-3.25-7.56-7.25-7.56h0Zm0,11.35c-2.02,0-3.65-1.69-3.65-3.78s1.63-3.78,3.65-3.78,3.65,1.69,3.65,3.78c-.05,2.1-1.63,3.78-3.65,3.78h0Zm68.32,50.35c-21.79,13.03-49.64,5.32-62.21-17.28-3.99-7.16-6.11-15.33-6.11-23.61v-.15c0-1.02-.79-1.89-1.82-1.89s-1.77.82-1.82,1.84v.2c-.05,28.16,21.99,51.01,49.2,51.01,8.63,0,17.11-2.35,24.6-6.85.89-.56,1.13-1.69.59-2.61-.49-.82-1.53-1.12-2.42-.66h0Zm-64.87-67.26c-.54.87-.35,2.04.54,2.61.84.56,1.97.31,2.51-.56,0-.05.05-.05.05-.1,6.01-10.32,15.58-17.89,26.82-21.11.94-.31,1.53-1.33,1.23-2.35-.25-.97-1.23-1.58-2.22-1.28h0c-12.13,3.48-22.48,11.6-28.94,22.8h0Zm36.77-20.55c9.76-1.23,19.62.87,28.1,5.98.89.51,2.02.15,2.46-.77.49-.87.2-1.94-.64-2.5-9.17-5.52-19.82-7.77-30.32-6.49-.99.15-1.73,1.07-1.63,2.1.15,1.07,1.04,1.79,2.02,1.69h0Zm27.7,69.1c-11.78,12.83-31.35,13.29-43.72,1.07-3.55-3.53-6.26-7.87-7.89-12.73-.35-.97-1.38-1.48-2.32-1.12-.94.36-1.43,1.38-1.13,2.35,6.26,18.71,25.93,28.62,43.97,22.18,5.23-1.89,9.91-5.01,13.75-9.15.69-.77.64-1.94-.1-2.66-.69-.77-1.87-.72-2.56.05h0Zm-22.38-58.11c-14.74,0-27.85,9.71-32.68,24.12-.35.97.15,2.04,1.08,2.4.94.41,1.97-.1,2.37-1.07v-.1c5.57-16.71,23.17-25.61,39.34-19.83,4.63,1.69,8.87,4.5,12.27,8.23.69.72,1.82.77,2.56.05.74-.72.79-1.94.05-2.66-6.51-7.16-15.53-11.14-24.99-11.14h0Zm-58.32,55.2c5.23-3.12,7.05-10.07,3.99-15.49-3.01-5.42-9.66-7.31-14.94-4.19-5.23,3.12-7,10.07-3.99,15.49,1.92,3.53,5.57,5.67,9.46,5.67,1.92,0,3.8-.51,5.47-1.48h0Zm-5.47-17.38c3.99-.05,7.25,3.32,7.3,7.46,0,2.3-.99,4.45-2.71,5.88l-.05-1.43c-.2-3.12-2.56-5.62-5.57-5.83-.99-.05-1.82-.77-2.12-1.74l-.49-1.84c-.1-.41-.3-.82-.49-1.18.2-.1.3-.26.49-.36,1.08-.66,2.37-.97,3.65-.97h0Zm-6.31,11.3c-1.08-1.94-1.28-4.34-.49-6.44l.2.56c.69,2.5,2.81,4.29,5.32,4.45,1.18.1,2.07,1.07,2.17,2.25l.1,1.58c0,.46.1.87.2,1.28-2.96.51-5.96-.92-7.49-3.68h0Zm37.32-7.51c3.01,0,5.42-2.56,5.42-5.67s-2.42-5.67-5.42-5.67-5.52,2.5-5.52,5.67,2.46,5.67,5.52,5.67h0Zm0-7.56c.99,0,1.82.82,1.82,1.89s-.84,1.89-1.82,1.89c-1.04,0-1.87-.87-1.87-1.89,0-1.07.84-1.89,1.87-1.89h0Zm-.3,76.92c-39.78,0-72.12-33.53-72.12-74.73s32.34-74.78,72.12-74.78,72.07,33.53,72.07,74.78-32.34,74.73-72.07,74.73h0Zm0-145.26c-37.56,0-68.08,31.64-68.08,70.53s30.51,70.53,68.08,70.53,68.03-31.64,68.03-70.53-30.51-70.53-68.03-70.53h0Zm-15.03,129.77h4.29c.84,0,1.48-.66,1.48-1.48,0-.87-.64-1.53-1.48-1.53h-4.29c-.79,0-1.43.66-1.43,1.53,0,.82.64,1.48,1.43,1.48h0Zm-10.01,0h4.29c.79,0,1.43-.66,1.43-1.48,0-.87-.64-1.53-1.43-1.53h-4.29c-.79,0-1.43.66-1.43,1.53,0,.82.64,1.48,1.43,1.48h0Zm7.15,0c-.79,0-1.43.66-1.43,1.48v4.45c0,.82.64,1.48,1.43,1.48s1.43-.66,1.43-1.48v-4.45c0-.82-.64-1.48-1.43-1.48h0Zm0-3.02c.79,0,1.43-.66,1.43-1.48v-4.45c0-.82-.64-1.48-1.43-1.48s-1.43.66-1.43,1.48v4.45c0,.82.64,1.48,1.43,1.48h0Zm31.7-114.29h4.29c.79,0,1.43-.66,1.43-1.48s-.64-1.48-1.43-1.48h-4.29c-.79,0-1.43.66-1.43,1.48s.64,1.48,1.43,1.48h0Zm-10.06,0h4.29c.84,0,1.48-.66,1.48-1.48s-.64-1.48-1.48-1.48h-4.29c-.79,0-1.43.66-1.43,1.48s.64,1.48,1.43,1.48h0Zm7.2,0c-.79,0-1.43.66-1.43,1.48v4.45c0,.82.64,1.48,1.43,1.48s1.43-.66,1.43-1.48v-4.45c0-.82-.64-1.48-1.43-1.48h0Zm0-2.96c.79,0,1.43-.66,1.43-1.48v-4.5c0-.82-.64-1.48-1.43-1.48s-1.43.66-1.43,1.48v4.5c0,.82.64,1.48,1.43,1.48h0Z"/>
    </g>
  </g>
</svg>