<?xml version="1.0" encoding="UTF-8"?>
<svg id="Capa_2" data-name="Capa 2" xmlns="http://www.w3.org/2000/svg" xmlns:xlink="http://www.w3.org/1999/xlink" viewBox="0 0 383 359">
  <defs>
    <style>
      .cls-1 {
        fill: #eef0f6;
        filter: url(#drop-shadow-1);
        stroke-width: 0px;
      }

      .cls-2 {
        fill: url(#Degradado_sin_nombre_107);
        fill-rule: evenodd;
      }
    </style>
    <filter id="drop-shadow-1" filterUnits="userSpaceOnUse">
      <feOffset dx="0" dy="0"/>
      <feGaussianBlur result="blur" stdDeviation="5"/>
      <feFlood flood-color="#000" flood-opacity=".2"/>
      <feComposite in2="blur" operator="in"/>
      <feComposite in="SourceGraphic"/>
    </filter>
    <linearGradient id="Degradado_sin_nombre_107" data-name="Degradado sin nombre 107" x1="184.45" y1="245.4" x2="184.45" y2="96.44" gradientUnits="userSpaceOnUse">
      <stop offset="0" stop-color="#e38520"/>
      <stop offset=".11" stop-color="#e27825"/>
      <stop offset="1" stop-color="#dc1a4d"/>
    </linearGradient>
  </defs>
  <g id="Capa_1-2" data-name="Capa 1">
    <g>
      <path class="cls-1" d="m367.62,129.33c-46.28,87.61-114.89,161.61-198.27,214.38-18.65-25.17-116.46-160.11-154.16-210.6,49.41-27.36,90.43-68.02,118.25-117.14,3.22,1.77,219.39,106.85,234.18,113.36Z"/>
      <path class="cls-2" d="m186.04,178.52l-2.74-.56c-2.2-.46-3.91-2.24-4.35-4.59l-.54-2.8c-.24-1.12-1.17-1.94-2.3-1.94s-2.05.82-2.3,1.94l-.54,2.8c-.44,2.34-2.15,4.13-4.4,4.59l-2.69.56c-1.08.25-1.86,1.22-1.86,2.4s.78,2.14,1.86,2.34l2.69.56c2.25.51,3.96,2.29,4.4,4.59l.54,2.8c.24,1.17,1.17,1.94,2.3,1.94s2.05-.76,2.3-1.94l.54-2.8c.44-2.29,2.15-4.08,4.35-4.59l2.69-.56c1.13-.2,1.91-1.17,1.91-2.34-.05-1.17-.78-2.14-1.86-2.4h0Zm-.44,2.4s0,.05-.05.05l-2.69.56c-3.13.66-5.53,3.16-6.16,6.42l-.54,2.8v.05h-.1v-.05l-.54-2.8c-.64-3.26-3.08-5.76-6.16-6.42l-2.69-.56s-.05-.05-.05-.05h0v-.05s0-.05.05-.05l2.69-.56c3.08-.66,5.53-3.16,6.16-6.42l.54-2.8v-.05h.1v.05l.54,2.8c.64,3.26,3.08,5.76,6.16,6.42l2.69.56.05.05v.05h0Zm34.25-37.52l-2.69-.56c-2.2-.46-3.91-2.24-4.35-4.59l-.59-2.8c-.2-1.12-1.13-1.94-2.25-1.94s-2.05.82-2.3,1.94l-.54,2.8c-.44,2.34-2.15,4.13-4.4,4.59l-2.69.56c-1.08.2-1.86,1.22-1.86,2.4s.78,2.14,1.86,2.34l2.69.56c2.25.51,3.96,2.29,4.4,4.59l.54,2.8c.24,1.17,1.17,1.94,2.3,1.94s2.05-.76,2.25-1.94l.59-2.8c.44-2.29,2.15-4.08,4.35-4.59l2.69-.56c1.13-.2,1.91-1.17,1.91-2.34s-.78-2.19-1.91-2.4h0Zm-.39,2.4s0,.05-.05.05l-2.69.56c-3.13.66-5.53,3.16-6.16,6.42l-.54,2.8v.05h-.1v-.05l-.54-2.8c-.64-3.26-3.08-5.76-6.16-6.42l-2.69-.56s-.05-.05-.05-.05h0v-.05s0-.05.05-.05l2.69-.56c3.08-.66,5.53-3.16,6.16-6.42l.54-2.8v-.05h.1v.05l.54,2.8c.64,3.26,3.03,5.76,6.16,6.42l2.69.56s.05.05.05.05v.05h0Zm-8.27,38.95c-.15-.61-.73-1.02-1.37-.87-1.47.36-2.98.51-4.55.51-5.72,0-10.81,0-14.19,1.68-3.57,1.22-7.83,3.98-9.05,8.05-.2.61.15,1.33.73,1.48.1.05.24.1.34.1.49,0,.93-.36,1.08-.87.39-1.27,1.37-2.8,3.13-4.13-.39,1.68-.2,3.77.54,6.32.73,2.45.59,4.69-.49,6.63-1.61,3.01-5.09,4.74-7.29,5.61.83-3.72.29-7.14-1.47-9.79-2.2-3.21-6.12-5-11.11-5-2.59,0-4.84-.71-6.51-2.04-1.47-1.17-2.5-2.85-2.84-4.69-.34-1.89,0-3.87.93-5.61,1.08-1.94,2.89-3.47,5.24-4.49,1.66-.76,3.67-1.22,6.07-1.48.59-.05,1.08-.66.98-1.27-.05-.66-.59-1.12-1.22-1.07-2.59.25-4.79.82-6.7,1.63-6.36,2.75-8.32,8.36-7.49,12.74.44,2.4,1.76,4.59,3.67,6.12,2.05,1.63,4.79,2.5,7.88,2.5,4.21,0,7.49,1.43,9.25,4.03,1.71,2.5,1.91,5.96.54,9.84-.1.41-.05.82.24,1.17.2.25.54.41.83.41.1,0,.2-.05.29-.05.29-.1,7.68-1.94,10.71-7.39,1.37-2.55,1.61-5.4.68-8.51-.93-3.01-.88-5.2.1-6.58.44-.66,1.08-1.12,1.91-1.53h0c2.94-1.43,7.97-1.43,13.21-1.43,1.76,0,3.47-.2,5.09-.61.59-.15.98-.76.83-1.43h0Zm-8.07-34.92c-2.98-.41-6.36-.61-9.93-.61-3.28,0-6.51.25-9.69.51-4.16.31-8.46.66-10.86.05-.1,0-.15-.05-.2-.05-.64-.15-1.13-.46-1.42-.76-.1-.15-.49-.61-.15-1.94,1.08-4.18,6.36-6.17,10.62-7.09,4.84-1.02,9.49-.97,9.54-.97.54,0,1.03-.36,1.13-.92.1-.56-.15-1.12-.68-1.33-.2-.1-4.84-2.09-11.25-3.21-6.02-1.02-14.73-1.43-22.16,2.45-.54.25-.78.97-.49,1.58.24.56.93.82,1.52.51,6.9-3.57,15.07-3.16,20.7-2.19,1.86.31,3.62.71,5.09,1.12-6.02.71-14.53,2.96-16.19,9.43-.2.87-.24,1.63-.15,2.34-2.01-.92-3.67-2.7-3.67-6.22,0-.66-.49-1.17-1.13-1.17-.59,0-1.13.51-1.13,1.17,0,6.93,5.14,9.02,9.49,9.53,1.17.31,2.59.41,4.26.41,2.15,0,4.65-.2,7.34-.41,3.08-.25,6.31-.51,9.49-.51,3.47,0,6.75.2,9.64.61.59.1,1.17-.36,1.27-1.02.05-.66-.39-1.22-.98-1.33h0Zm-1.52,14.22c-.59-.1-1.22.31-1.32.92-.44,2.14-1.81,3.77-4.35,5.15-.88.46-1.91.87-2.94,1.27.39-.76.68-1.63.88-2.65.54-2.6.05-4.69-1.47-6.17-1.81-1.89-5.09-2.7-9.64-2.45-3.13.15-5.82.76-6.12.87-3.62.66-6.75.97-9.39.97-10.81,0-14.43-4.69-15.56-7.03-1.03-2.14-1.17-4.64-.54-7.24.68-2.55,2.15-5,4.21-6.98.44-.41.49-1.17.05-1.63-.39-.51-1.13-.51-1.57-.1-2.4,2.24-4.11,5.15-4.84,8.11-.83,3.11-.59,6.22.68,8.87,1.57,3.36,4.7,5.81,9,7.19,4.79,1.48,10.96,1.53,18.35.15h.1c2.84-.71,10.91-1.89,13.7.97.93.92,1.17,2.19.83,4.03-.73,3.67-3.28,5.15-9.39,5.3-.64,0-1.13.56-1.13,1.22.05.61.54,1.12,1.13,1.12h.05c1.81-.05,3.62-.2,5.28-.61,7-1.63,13.7-3.82,14.87-9.89.15-.61-.24-1.22-.88-1.38h0Zm.64,42.72h-2.98c-.59,0-1.13.51-1.13,1.17,0,.61.54,1.17,1.13,1.17h2.98c.59,0,1.13-.56,1.13-1.17,0-.66-.54-1.17-1.13-1.17h0Zm7.97,0h-2.98c-.59,0-1.08.51-1.08,1.17,0,.61.49,1.17,1.08,1.17h2.98c.64,0,1.13-.56,1.13-1.17,0-.66-.49-1.17-1.13-1.17h0Zm-5.48,2.6c-.59,0-1.13.51-1.13,1.17v3.11c0,.61.54,1.17,1.13,1.17.64,0,1.13-.56,1.13-1.17v-3.11c0-.66-.49-1.17-1.13-1.17h0Zm0-8.31c-.59,0-1.13.51-1.13,1.17v3.11c0,.61.54,1.12,1.13,1.12.64,0,1.13-.51,1.13-1.12v-3.11c0-.66-.49-1.17-1.13-1.17h0Zm17.03-21.56h5.87c1.08,0,1.96-.92,1.96-2.04s-.88-2.04-1.96-2.04h-5.87c-1.08,0-1.96.92-1.96,2.04s.88,2.04,1.96,2.04h0Zm-13.7,0h5.87c1.08,0,1.96-.92,1.96-2.04s-.88-2.04-1.96-2.04h-5.87c-1.08,0-1.96.92-1.96,2.04s.88,2.04,1.96,2.04h0Zm9.79,0c-1.08,0-1.96.92-1.96,2.04v6.12c0,1.12.88,2.04,1.96,2.04s1.96-.92,1.96-2.04v-6.12c0-1.12-.88-2.04-1.96-2.04h0Zm0-4.08c1.08,0,1.96-.92,1.96-2.04v-6.12c0-1.12-.88-2.04-1.96-2.04s-1.96.92-1.96,2.04v6.12c0,1.12.88,2.04,1.96,2.04h0Zm-83.52,30.23c-.64,0-1.32-.36-1.71-.97-6.07-10.09-9.25-21.77-9.25-33.75,0-23.09,12.04-44.45,31.46-55.67.98-.56,2.2-.2,2.74.82.54,1.02.2,2.29-.78,2.85-18.15,10.5-29.4,30.43-29.4,52,0,11.21,2.98,22.12,8.66,31.55.59.97.29,2.24-.64,2.85-.34.2-.68.31-1.08.31h0Zm109.2-32.63c-1.08,0-2.01-.92-2.01-2.09,0-32.78-25.59-59.44-57.05-59.44-1.13,0-2.01-.97-2.01-2.09s.88-2.09,2.01-2.09c33.66,0,61.06,28.55,61.06,63.62,0,1.17-.88,2.09-2.01,2.09h0Zm-59.05,61.58c-9.44,0-18.44-2.19-26.81-6.42-.98-.51-1.42-1.78-.93-2.8.49-1.07,1.71-1.48,2.69-.97,7.83,3.98,16.24,6.02,25.05,6.02,21.72,0,41.88-13.2,51.37-33.59.49-1.02,1.71-1.48,2.69-.97.98.51,1.42,1.78.93,2.8-10.18,21.82-31.75,35.94-54.99,35.94h0Zm0,10.81c-39.43,0-71.53-33.39-71.53-74.48s32.1-74.48,71.53-74.48,71.48,33.39,71.48,74.48-32.1,74.48-71.48,74.48h0Zm0-144.77c-37.23,0-67.52,31.55-67.52,70.3s30.28,70.3,67.52,70.3,67.47-31.5,67.47-70.3-30.28-70.3-67.47-70.3h0Zm-13.75,6.73c-3.23,0-5.87,2.75-5.87,6.12s2.64,6.12,5.87,6.12,5.87-2.75,5.87-6.12-2.59-6.12-5.87-6.12h0Zm0,8.16c-1.08,0-1.96-.92-1.96-2.04s.88-2.04,1.96-2.04,1.96.92,1.96,2.04-.88,2.04-1.96,2.04h0Zm-24.27,92.42c-3.23,0-5.87,2.75-5.87,6.12s2.64,6.12,5.87,6.12,5.87-2.75,5.87-6.12-2.64-6.12-5.87-6.12h0Zm0,8.16c-1.08,0-1.96-.92-1.96-2.04s.88-2.04,1.96-2.04,1.96.92,1.96,2.04-.88,2.04-1.96,2.04h0Zm-6.26-21.31c.39.41.88.61,1.37.61s.98-.2,1.37-.61l1.37-1.43,1.42,1.43c.39.41.88.61,1.37.61s.98-.2,1.37-.61c.78-.82.78-2.09,0-2.91l-1.37-1.43,1.37-1.43c.78-.82.78-2.09,0-2.91-.73-.76-2.01-.76-2.74,0l-1.42,1.48-1.37-1.48c-.78-.76-2.01-.76-2.79,0-.73.82-.73,2.09,0,2.91l1.42,1.43-1.42,1.43c-.73.82-.73,2.09.05,2.91h0Zm102.45-6.12c.39.41.88.61,1.37.61s.98-.2,1.37-.61c.78-.82.78-2.09,0-2.91l-1.37-1.43,1.37-1.43c.78-.82.78-2.09,0-2.91-.73-.76-2.01-.76-2.74,0l-1.42,1.48-1.37-1.48c-.78-.76-2.01-.76-2.79,0-.73.82-.73,2.09,0,2.91l1.42,1.43-1.42,1.43c-.73.82-.73,2.09,0,2.91.39.41.88.61,1.42.61.49,0,.98-.2,1.37-.61l1.37-1.43,1.42,1.43h0Zm-24.81,9.07c0,1.12-.88,2.04-1.96,2.04s-1.96-.92-1.96-2.04.88-2.04,1.96-2.04,1.96.92,1.96,2.04h0Zm-76.27-42.72c0,1.12-.88,2.04-1.96,2.04s-1.96-.92-1.96-2.04.88-2.04,1.96-2.04,1.96.87,1.96,2.04h0Zm1.96,20.39c0,1.12-.88,2.04-1.96,2.04s-1.96-.92-1.96-2.04.88-2.04,1.96-2.04,1.96.92,1.96,2.04h0Zm76.27-14.27c0,1.12-.88,2.04-1.96,2.04s-1.96-.92-1.96-2.04.88-2.04,1.96-2.04,1.96.92,1.96,2.04h0Zm11.74,8.16c0,1.12-.88,2.04-1.96,2.04s-1.96-.92-1.96-2.04.88-2.04,1.96-2.04,1.96.92,1.96,2.04h0Zm-62.77,44.96c0,1.12-.88,2.04-1.96,2.04s-1.96-.92-1.96-2.04.88-2.04,1.96-2.04,1.96.92,1.96,2.04h0Zm11.74,8.16c0,1.12-.88,2.04-1.96,2.04s-1.96-.92-1.96-2.04.88-2.04,1.96-2.04,1.96.92,1.96,2.04h0Z"/>
    </g>
  </g>
</svg>