<?xml version="1.0" encoding="UTF-8"?>
<svg id="Capa_2" data-name="Capa 2" xmlns="http://www.w3.org/2000/svg" xmlns:xlink="http://www.w3.org/1999/xlink" viewBox="0 0 384 359">
  <defs>
    <style>
      .cls-1 {
        fill: #eef0f6;
        filter: url(#drop-shadow-1);
        stroke-width: 0px;
      }

      .cls-2 {
        fill: url(#Degradado_sin_nombre_107);
        fill-rule: evenodd;
      }
    </style>
    <filter id="drop-shadow-1" filterUnits="userSpaceOnUse">
      <feOffset dx="0" dy="0"/>
      <feGaussianBlur result="blur" stdDeviation="5"/>
      <feFlood flood-color="#000" flood-opacity=".2"/>
      <feComposite in2="blur" operator="in"/>
      <feComposite in="SourceGraphic"/>
    </filter>
    <linearGradient id="Degradado_sin_nombre_107" data-name="Degradado sin nombre 107" x1="151.66" y1="235.05" x2="225.7" y2="106.8" gradientUnits="userSpaceOnUse">
      <stop offset="0" stop-color="#e38520"/>
      <stop offset=".11" stop-color="#e27825"/>
      <stop offset="1" stop-color="#dc1a4d"/>
    </linearGradient>
  </defs>
  <g id="Capa_1-2" data-name="Capa 1">
    <g>
      <path class="cls-1" d="m15.74,129.33c46.28,87.61,114.89,161.61,198.27,214.38,18.65-25.17,116.46-160.11,154.16-210.6-49.41-27.36-90.43-68.02-118.25-117.14-3.22,1.77-219.39,106.85-234.18,113.36Z"/>
      <path class="cls-2" d="m242.16,182.84c-5.61,0-10.19-4.81-10.19-10.64s4.58-10.64,10.19-10.64,10.24,4.76,10.24,10.64-4.58,10.64-10.24,10.64h0Zm0-18.11c-3.94,0-7.19,3.33-7.19,7.47s3.25,7.47,7.19,7.47,7.24-3.38,7.24-7.47-3.25-7.47-7.24-7.47h0Zm-55.13,69.79c-4.28,0-7.73-3.63-7.73-8.03s3.45-8.03,7.73-8.03,7.68,3.58,7.68,8.03-3.45,8.03-7.68,8.03h0Zm0-12.89c-2.61,0-4.73,2.15-4.73,4.86s2.12,4.86,4.73,4.86,4.68-2.15,4.68-4.86-2.12-4.86-4.68-4.86h0Zm-52.17-47.22c-1.92,0-3.49-1.64-3.49-3.68s1.58-3.63,3.49-3.63,3.49,1.64,3.49,3.63-1.58,3.68-3.49,3.68h0Zm0-5.22c-.84,0-1.48.72-1.48,1.53,0,.87.69,1.53,1.48,1.53.84,0,1.48-.67,1.48-1.53,0-.82-.64-1.53-1.48-1.53h0Zm63.98,58.99c-.94,0-1.77-.67-1.97-1.69-.2-1.13.54-2.25,1.62-2.46,18.95-3.79,34.26-18.06,39.92-37.25.3-1.13,1.43-1.74,2.51-1.38,1.08.31,1.67,1.48,1.33,2.61-6.1,20.72-22.59,36.07-43.02,40.16h-.39Zm-23.18-.61c-.15,0-.34-.05-.49-.1-8.12-2.05-15.8-6.14-22.25-11.67-.89-.77-.98-2.1-.3-2.97.74-.92,2.02-1.02,2.85-.26,6,5.17,13.14,8.9,20.67,10.85,1.08.26,1.72,1.38,1.48,2.51-.25.97-1.08,1.64-1.97,1.64h0Zm-33.03-25.12c-.69,0-1.33-.36-1.72-1.02-3.79-6.34-6.3-13.3-7.48-20.67-.2-1.18.54-2.25,1.62-2.46,1.13-.15,2.17.61,2.36,1.74,1.08,6.8,3.45,13.3,6.94,19.19.59.97.3,2.3-.69,2.92-.3.2-.69.31-1.03.31h0Zm-7.24-38.88h-.34c-1.08-.2-1.82-1.28-1.62-2.46,1.72-10.54,6.2-20.41,13.04-28.5.74-.92,2.02-.97,2.85-.2.84.77.94,2.1.2,2.97-6.35,7.52-10.53,16.63-12.11,26.45-.2,1.02-1.03,1.74-2.02,1.74h0Zm19.44-34.28c-.59,0-1.18-.31-1.58-.82-.74-.87-.59-2.2.3-2.92,6.84-5.73,14.96-9.72,23.48-11.61,1.08-.26,2.17.51,2.41,1.64.2,1.13-.49,2.25-1.58,2.46-7.92,1.74-15.45,5.47-21.8,10.8-.34.31-.79.46-1.23.46h0Zm86.33,30.39c-.94,0-1.77-.67-1.97-1.64-4.97-21.13-22.25-37.45-42.92-40.57-1.13-.2-1.87-1.23-1.72-2.4.15-1.13,1.18-1.94,2.31-1.74,22.3,3.38,40.9,20.98,46.22,43.75.3,1.13-.39,2.25-1.48,2.56-.15,0-.3.05-.44.05h0Zm-80.42,10.74c1.48,0,2.76-.72,3.54-1.84,1.87,1.43,6.3,5.99,6.2,15.04l.1,2.87c-3.1.56-5.46,3.38-5.46,6.7,0,2.56,1.33,4.76,3.3,5.94v5.47h39.47v-5.47c1.97-1.18,3.25-3.38,3.25-5.94,0-3.38-2.36-6.14-5.46-6.7v-1.23c0-7.42,1.38-12.02,4.04-13.35,2.17-1.13,4.87.15,6.35,1.02-.34.61-.54,1.33-.54,2.05,0,2.51,1.97,4.55,4.38,4.55s4.38-2.05,4.38-4.55c0-2.25-1.57-4.14-3.69-4.5-4.82-8.54-11.42-13-18.46-12.54-2.71-9.47-10.34-20.31-30.86-20.52-.89-2.05-2.81-3.43-5.02-3.43-3.05,0-5.51,2.56-5.51,5.68s2.46,5.68,5.51,5.68c1.13,0,2.17-.36,3.05-.97,4.43,3.84,5.56,6.86,4.68,18.01-2.76-.31-5.86,0-9.55,1.07-.79-1.28-2.12-2.15-3.69-2.15-2.41,0-4.38,2.05-4.38,4.55s1.97,4.55,4.38,4.55h0Zm5.51-3.12c11.27,2,14.27,11.41,16.29,17.75l.05.15-5.41-.05,2.51,1.94c-1.03.56-1.87,1.38-2.51,2.35-.98-1.59-2.56-2.66-4.43-2.97l-.1-2.92c.15-9.11-3.99-14.12-6.4-16.27h0Zm25.2,17.91c0-1.23.98-2.25,2.17-2.25s2.17,1.02,2.21,2.25h-4.38Zm-1.87,2.3h2.95l-2.36,1.84.89,3.43-2.9-2.1-2.9,2.1.89-3.43-2.36-1.84h2.9l1.48-3.79,1.43,3.79h0Zm4.53,10.23h-11.91l5.96-4.3,5.96,4.3h0Zm-22.39-9.11c2.41,0,4.38,2.05,4.38,4.55h2.21c0-2.15,1.48-3.99,3.45-4.45l1.87,1.48-1.92,7.52h-9.99c-2.41,0-4.38-2.05-4.38-4.55s1.97-4.55,4.38-4.55h0Zm33.96,13.66h-35.04v-2.35c.34.05.69.1,1.08.1h32.88c.39,0,.74-.05,1.08-.1v2.35h0Zm3.3-9.11c0,2.51-1.97,4.55-4.38,4.55h-9.99l-1.92-7.52,1.87-1.48c1.97.46,3.45,2.3,3.45,4.45h2.21c0-2.51,1.97-4.55,4.38-4.55s4.38,2.05,4.38,4.55h0Zm-.25-23.33c-.74.36-1.43.97-2.07,1.69-1.13-.05-2.07-1.02-2.07-2.25s.98-2.3,2.17-2.3,2.21,1.02,2.21,2.3v.46c-.1.05-.15.05-.25.1h0Zm13.39,5.12c0,1.28-.98,2.3-2.17,2.3s-2.21-1.02-2.21-2.3.98-2.25,2.21-2.25,2.17,1.02,2.17,2.25h0Zm-3.89-4.2c-.25.1-.49.26-.69.41-1.28-.82-3.79-2.15-6.4-2-.05-2.46-1.97-4.45-4.38-4.45s-4.38,2.05-4.38,4.55c0,2,1.28,3.68,3.05,4.3-1.28,2.66-1.92,6.55-1.92,11.61v1.28c-1.82.31-3.4,1.38-4.38,2.97-.64-.97-1.48-1.79-2.51-2.35l2.51-1.94h-1.13c0-2.46-1.97-4.5-4.38-4.5-1.48,0-2.76.77-3.54,1.94l-1.92-5.01-2.95,7.62h-.34v-2.25c0-4.96,1.43-9.67,3.84-13.56.84,1.94,2.76,3.33,4.92,3.33,3,0,5.46-2.56,5.46-5.73,0-2.15-1.13-3.99-2.85-4.96,1.08-.56,2.17-1.02,3.3-1.33,6.99-1.89,13.73,1.79,18.7,10.08h0Zm-24.41-7.16c1.72.1,3.1,1.59,3.1,3.38,0,1.89-1.48,3.43-3.3,3.43s-3.25-1.53-3.3-3.38c1.08-1.28,2.21-2.46,3.49-3.43h0Zm-27.56-20.52c-1.82,0-3.3-1.53-3.3-3.43s1.48-3.43,3.3-3.43,3.25,1.53,3.25,3.43c.05,1.89-1.43,3.43-3.25,3.43h0Zm4.58-.36c.54-.87.89-1.89.89-3.02,14.91.26,24.66,6.7,28.2,18.57-.3.05-.64.1-.94.2-5.27,1.43-9.79,5.42-12.75,10.69-3.25-3.17-6.4-5.42-10.09-6.4.94-11.41-.1-15.5-5.32-20.06h0Zm14.37,28.55c-1.13,2.51-1.92,5.27-2.26,8.08-2.36-5.83-6.5-12.43-15.95-14.27,7.97-1.74,12.7.72,18.21,6.19h0Zm-24.46-7.67c1.23,0,2.21,1.02,2.21,2.25s-.98,2.25-2.21,2.25-2.17-1.02-2.17-2.25.98-2.25,2.17-2.25h0Zm19.74-18.27h-2.17v-2.25h2.17v2.25h0Zm8.76,3.43h-2.17v-2.25h2.17v2.25h0Zm-4.38,5.68h-2.17v-2.25h2.17v2.25h0Zm-5.46,3.43h2.17v2.3h-2.17v-2.3h0Zm13.14-1.13h-2.17v-2.3h2.17v2.3h0Zm-3.3,6.86h-2.17v-2.3h2.17v2.3h0Zm-41.25,37.86c-3.25,0-5.91,2.76-5.91,6.14s2.66,6.14,5.91,6.14,5.91-2.71,5.91-6.14-2.66-6.14-5.91-6.14h0Zm0,8.19c-1.08,0-1.97-.92-1.97-2.05s.89-2.05,1.97-2.05,1.97.92,1.97,2.05-.89,2.05-1.97,2.05h0Zm40.41-90.51c.39.41.89.61,1.38.61s1.03-.2,1.38-.61c.79-.77.79-2.1,0-2.87l-1.38-1.43,1.38-1.48c.79-.77.79-2.1,0-2.87-.74-.82-2.02-.82-2.76,0l-1.43,1.43-1.38-1.43c-.74-.82-2.02-.82-2.76,0-.79.77-.79,2.1,0,2.87l1.38,1.48-1.38,1.43c-.79.77-.79,2.1,0,2.87.34.41.89.61,1.38.61s.98-.2,1.38-.61l1.38-1.43,1.43,1.43h0Zm34.7,66.41c0,1.13-.89,2.05-1.97,2.05s-1.97-.92-1.97-2.05.89-2.05,1.97-2.05,1.97.92,1.97,2.05h0Zm-1.97,13.1c0,1.13-.89,2.05-1.97,2.05s-1.97-.92-1.97-2.05.89-2.05,1.97-2.05,1.97.92,1.97,2.05h0Zm-67.97-51.93c0,1.13-.84,2.05-1.97,2.05s-1.97-.92-1.97-2.05.89-2.05,1.97-2.05,1.97.87,1.97,2.05h0Zm11.86,8.19c0,1.13-.89,2.05-1.97,2.05s-1.97-.92-1.97-2.05.89-2.05,1.97-2.05,1.97.92,1.97,2.05h0Zm-10.14,24.51c0,1.18-.89,2.05-1.97,2.05s-1.97-.87-1.97-2.05.89-2.05,1.97-2.05,1.97.92,1.97,2.05h0Zm37.46,32.13c0,1.13-.89,2.05-1.97,2.05s-1.97-.92-1.97-2.05.84-2.05,1.97-2.05,1.97.92,1.97,2.05h0Zm-33.03-18.62c0,1.13-.89,2.05-1.97,2.05s-1.97-.92-1.97-2.05.89-2.05,1.97-2.05,1.97.92,1.97,2.05h0Zm46.27-57.51c0,1.13-.89,2.05-1.97,2.05s-1.97-.92-1.97-2.05.89-2.05,1.97-2.05,1.97.92,1.97,2.05h0Zm14.03,17.45c0,1.13-.89,2.05-1.97,2.05s-1.97-.92-1.97-2.05.89-2.05,1.97-2.05,1.97.92,1.97,2.05h0Zm-66.45-22.46c0,1.13-.84,2.05-1.97,2.05s-1.97-.92-1.97-2.05.89-2.05,1.97-2.05,1.97.92,1.97,2.05h0Zm35.49,115.27c-39.62,0-71.91-33.51-71.91-74.75s32.29-74.75,71.91-74.75,71.96,33.51,71.96,74.75-32.29,74.75-71.96,74.75h0Zm0-145.31c-37.41,0-67.87,31.67-67.87,70.56s30.47,70.56,67.87,70.56,67.87-31.62,67.87-70.56-30.42-70.56-67.87-70.56h0Z"/>
    </g>
  </g>
</svg>