<?xml version="1.0" encoding="UTF-8"?>
<svg id="Capa_2" data-name="Capa 2" xmlns="http://www.w3.org/2000/svg" xmlns:xlink="http://www.w3.org/1999/xlink" viewBox="0 0 318 328">
  <defs>
    <style>
      .cls-1 {
        fill: #eef0f6;
        filter: url(#drop-shadow-1);
        stroke-width: 0px;
      }

      .cls-2 {
        fill: url(#Degradado_sin_nombre_107);
        fill-rule: evenodd;
      }
    </style>
    <filter id="drop-shadow-1" filterUnits="userSpaceOnUse">
      <feOffset dx="0" dy="0"/>
      <feGaussianBlur result="blur" stdDeviation="5"/>
      <feFlood flood-color="#000" flood-opacity=".2"/>
      <feComposite in2="blur" operator="in"/>
      <feComposite in="SourceGraphic"/>
    </filter>
    <linearGradient id="Degradado_sin_nombre_107" data-name="Degradado sin nombre 107" x1="222.63" y1="110.99" x2="148.86" y2="238.76" gradientUnits="userSpaceOnUse">
      <stop offset="0" stop-color="#e38520"/>
      <stop offset=".11" stop-color="#e27825"/>
      <stop offset="1" stop-color="#dc1a4d"/>
    </linearGradient>
  </defs>
  <g id="Capa_1-2" data-name="Capa 1">
    <g>
      <path class="cls-1" d="m15.01,225.71c83.44,52.81,181.65,84.38,287.05,87.09V52.8c-48.04-2.3-93.17-15.7-132.89-37.68C118.79,83.94,36.6,195.57,15.01,225.71Z"/>
      <path class="cls-2" d="m198.98,228.41c0,.66-.54,1.17-1.13,1.17-.64,0-1.18-.51-1.18-1.17s.54-1.17,1.18-1.17c.59,0,1.13.51,1.13,1.17h0Zm0-11.67c0,.66-.54,1.17-1.13,1.17-.64,0-1.18-.51-1.18-1.17s.54-1.17,1.18-1.17c.59,0,1.13.51,1.13,1.17h0Zm-12.11,11.67c0,.66-.49,1.17-1.13,1.17s-1.13-.51-1.13-1.17.49-1.17,1.13-1.17,1.13.51,1.13,1.17h0Zm0-11.67c0,.66-.49,1.17-1.13,1.17s-1.13-.51-1.13-1.17.49-1.17,1.13-1.17,1.13.51,1.13,1.17h0Zm-12.11,11.67c0,.66-.49,1.17-1.13,1.17s-1.13-.51-1.13-1.17.49-1.17,1.13-1.17,1.13.51,1.13,1.17h0Zm0-11.67c0,.66-.49,1.17-1.13,1.17s-1.13-.51-1.13-1.17.49-1.17,1.13-1.17,1.13.51,1.13,1.17h0Zm29.71,5.15c1.27,0,2.3-1.07,2.3-2.34v-5.6c0-1.27-1.03-2.34-2.3-2.34h-1.13v-4.02c0-.31-.15-.66-.34-.92l-4.12-4.99c-.2-.31-.59-.46-.93-.51-.39,0-.74.1-1.03.36-.05.05-.1.1-.15.15l-4.12,4.99c-.2.25-.34.61-.34.97v3.97h-1.08v-3.97c0-.36-.1-.71-.34-.97l-4.07-4.99c-.25-.31-.59-.46-.98-.51-.39,0-.74.1-1.03.36-.05.05-.1.1-.15.15l-4.07,4.99c-.25.25-.34.61-.34.97v3.97h-1.08v-3.97c0-.36-.15-.71-.34-.97l-4.12-4.99c-.25-.31-.59-.46-.98-.51-.34,0-.74.1-.98.36-.1.05-.15.1-.2.15l-4.07,4.99c-.25.25-.34.61-.34.97v3.97h-1.13c-1.27,0-2.3,1.07-2.3,2.34v5.6c0,1.27,1.03,2.34,2.3,2.34h1.13v1.38h-1.13c-1.27,0-2.3,1.07-2.3,2.39v5.55c0,1.32,1.03,2.34,2.3,2.34h1.13v3.36c0,.82.64,1.43,1.42,1.43h8.14c.78,0,1.42-.61,1.42-1.43v-3.36h1.08v3.36c0,.76.64,1.43,1.42,1.43h8.19c.78,0,1.42-.66,1.42-1.43v-3.36h1.08v3.36c0,.76.64,1.43,1.42,1.43h8.19c.78,0,1.42-.66,1.42-1.43v-3.36h1.13c1.27,0,2.3-1.02,2.3-2.34v-5.55c0-1.32-1.03-2.39-2.3-2.39h-1.13v-1.38h1.13Zm-3.97,11.67v1.88h-5.34v-1.88h5.34Zm-12.06,1.88h-5.39v-1.88h5.34l.05,1.88h0Zm-12.11,0h-5.39v-1.88h5.39v1.88h0Zm-8.77-4.79v-4.43h36.37v4.43h-36.37Zm3.38-19.05l.05-3.46,2.65-3.26,2.7,3.26v3.46h-5.39Zm12.11,0v-3.46l2.7-3.26,2.7,3.26v3.46h-5.39Zm12.11,0v-3.46l2.7-3.26,2.7,3.26v3.46h-5.39Zm8.77,2.9l-.05,4.43h-36.33v-4.43h36.37Zm-3.48,7.39v1.38h-5.34v-1.38h5.34Zm-8.19,0v1.38h-1.08v-1.38h1.08Zm-3.87,0v1.38h-5.34v-1.38h5.34Zm-8.19,0v1.38h-1.08v-1.38h1.08Zm-3.87,0v1.38h-5.39v-1.38h5.39Zm9.41-121.5c-39.51,0-71.67,33.42-71.67,74.48s32.16,74.48,71.67,74.48,71.67-33.42,71.67-74.48-32.16-74.48-71.67-74.48h0Zm0,4.18c37.31,0,67.65,31.53,67.65,70.3,0,6.27-.83,12.38-2.3,18.19H120.4c-1.52-5.81-2.3-11.92-2.3-18.19,0-38.77,30.34-70.3,67.65-70.3h0Zm0,140.6c-29.95,0-55.44-20.38-64.32-48.5h36.18l-16.47,17.12c-.69.71-.69,1.88,0,2.6.34.36.78.56,1.27.56.44,0,.88-.2,1.23-.56l18.92-19.66h46.33l18.97,19.66c.34.36.78.56,1.23.56s.93-.2,1.23-.56c.69-.71.69-1.88,0-2.6l-16.42-17.12h36.13c-8.82,28.12-34.32,48.5-64.27,48.5h0Zm23.87-131.07c-3.09,0-5.78,1.68-7.3,4.18-5.34-1.68-10.88-2.55-16.57-2.55-17.7,0-34.07,8.35-44.95,22.87-.69.92-.54,2.24.34,2.95.39.31.78.46,1.23.46.64,0,1.23-.31,1.62-.82,10.1-13.5,25.34-21.24,41.77-21.24,5.2,0,10.29.76,15.2,2.29,0,.31-.05.61-.05.92,0,4.99,3.92,9.07,8.73,9.07s8.73-4.08,8.73-9.07-3.92-9.07-8.73-9.07h0Zm0,14.88c-2.99,0-5.49-2.55-5.54-5.65,1.57.61,3.14,1.32,4.66,2.09,1.03.51,2.21.05,2.7-.97.49-1.07.05-2.29-.93-2.8-1.67-.87-3.38-1.58-5.1-2.24,1.03-1.22,2.55-2.04,4.22-2.04,3.09,0,5.59,2.6,5.59,5.81s-2.5,5.81-5.59,5.81h0Zm25.83,23.84c-.74,0-1.47-.46-1.81-1.22-.39-.92-.83-1.83-1.32-2.7-1.52-2.95-3.33-5.81-5.39-8.46-1.23-1.63-2.6-3.21-4.07-4.69-.78-.82-.78-2.14,0-2.95.78-.82,2.06-.82,2.84,0,1.57,1.58,3.04,3.26,4.36,5.04,2.21,2.8,4.17,5.86,5.83,9.07.49.97.93,1.94,1.37,2.9.49,1.07.05,2.29-.93,2.8-.29.1-.59.2-.88.2h0Zm-58.53,30.41h-11.81c-.74,0-1.32-.61-1.32-1.43,0-.76.59-1.38,1.32-1.38h.64v-10.85c0-.76.59-1.43,1.32-1.43h7.89c.74,0,1.32.66,1.32,1.43v10.85h.64c.74,0,1.32.61,1.32,1.38,0,.82-.59,1.43-1.32,1.43h0Zm-11.81-2.04c-.29,0-.59.31-.59.61,0,.36.25.66.59.66h11.81c.29,0,.59-.31.59-.66,0-.31-.25-.61-.59-.61h-1.37v-11.61c0-.36-.29-.61-.59-.61h-7.89c-.29,0-.59.25-.59.61v11.61h-1.37Zm9.22,0h-6.62v-4.84h6.62v4.84h0Zm-5.88-.76h5.15v-3.31h-5.15v3.31h0Zm5.88-5.35h-6.62v-4.89h6.62v4.89h0Zm-5.88-.82h5.15v-3.26h-5.15v3.26h0Zm6.52-5.71h-7.89c-.54,0-.98.46-.98,1.02v11.21h-.98c-.54,0-.98.46-.98,1.02s.44,1.02.98,1.02h11.81c.54,0,.98-.46.98-1.02s-.44-1.02-.98-1.02h-.98v-11.21c-.05-.56-.44-1.02-.98-1.02h0Zm-.98,12.23h-5.93v-4.08h5.93v4.08h0Zm0-6.11h-5.93v-4.08h5.93v4.08h0Zm2.94,20.78c-.78,0-1.37-.61-1.37-1.38v-4.08c0-.82.59-1.43,1.37-1.43h2.55v-19c0-.76.59-1.43,1.37-1.43h9.8c.74,0,1.37.66,1.37,1.43v19h2.55c.78,0,1.37.61,1.37,1.43,0,.76-.59,1.38-1.37,1.38h-16.32v2.7c0,.76-.59,1.38-1.32,1.38h0Zm0-6.11c-.34,0-.64.31-.64.66v4.08c0,.36.29.61.64.61s.59-.25.59-.61v-3.46h17.06c.34,0,.59-.25.59-.61s-.25-.66-.59-.66h-3.28v-19.77c0-.36-.29-.61-.64-.61h-9.8c-.34,0-.64.25-.64.61v19.77h-3.28Zm13.14,0h-8.63v-19.15h8.63v8.97h-1.37c-.34,0-.59.25-.59.61s.25.66.59.66h1.37v8.91h0Zm-7.84-.76h7.06v-7.39h-.59c-.74,0-1.37-.61-1.37-1.43,0-.76.64-1.43,1.37-1.43h.59v-7.34h-7.06v17.58h0Zm13.33,1.43c0-.56-.44-1.02-.98-1.02h-2.94v-19.41c0-.56-.44-1.02-.98-1.02h-9.8c-.54,0-.98.46-.98,1.02v19.41h-2.94c-.54,0-.98.46-.98,1.02v4.08c0,.56.44,1.02.98,1.02s.98-.46.98-1.02v-3.06h16.67c.54,0,.98-.46.98-1.02h0Zm-5.88-11.26h-.98c-.54,0-.98.46-.98,1.02s.44,1.02.98,1.02h.98v8.15h-7.84v-18.34h7.84v8.15h0Zm16.72,4.48h-11.81c-.74,0-1.37-.61-1.37-1.43,0-.76.64-1.38,1.37-1.38h.59v-10.85c0-.76.64-1.43,1.37-1.43h7.84c.78,0,1.37.66,1.37,1.43v10.85h.64c.74,0,1.32.61,1.32,1.38,0,.82-.59,1.43-1.32,1.43h0Zm-11.81-2.04c-.34,0-.59.31-.59.61,0,.36.25.66.59.66h11.81c.29,0,.59-.31.59-.66,0-.31-.29-.61-.59-.61h-1.37v-11.61c0-.36-.29-.61-.64-.61h-7.84c-.34,0-.59.25-.59.61v11.61h-1.37Zm9.22,0h-6.62v-4.84h6.62v4.84h0Zm-5.88-.76h5.15v-3.31h-5.15v3.31h0Zm5.88-5.35h-6.62v-4.89h6.62v4.89h0Zm-5.88-.82h5.15v-3.26h-5.15v3.26h0Zm6.52-5.71h-7.89c-.54,0-.98.46-.98,1.02v11.21h-.98c-.54,0-.98.46-.98,1.02s.44,1.02.98,1.02h11.81c.54,0,.98-.46.98-1.02s-.44-1.02-.98-1.02h-.98v-11.21c0-.56-.44-1.02-.98-1.02h0Zm-.98,12.23h-5.93v-4.08h5.93v4.08h0Zm0-6.11h-5.93v-4.08h5.93v4.08h0Zm-17.7-15.94c-2.35,0-4.31-1.99-4.31-4.48s1.91-4.43,4.31-4.43,4.31,1.99,4.31,4.43-1.96,4.48-4.31,4.48h0Zm0-8.15c-1.96,0-3.53,1.68-3.53,3.67s1.57,3.72,3.53,3.72,3.53-1.68,3.53-3.72-1.57-3.67-3.53-3.67h0Zm0,6.11c-1.27,0-2.35-1.07-2.35-2.39s1.08-2.45,2.35-2.45,2.35,1.07,2.35,2.45-1.08,2.39-2.35,2.39h0Zm0-4.08c-.88,0-1.57.76-1.57,1.68,0,.87.69,1.63,1.57,1.63s1.57-.76,1.57-1.63c0-.92-.69-1.68-1.57-1.68h0Zm3.92,1.63c0-2.24-1.76-4.08-3.92-4.08s-3.92,1.83-3.92,4.08,1.76,4.13,3.92,4.13,3.92-1.83,3.92-4.13h0Zm-5.88,0c0-1.12.88-2.04,1.96-2.04s1.96.92,1.96,2.04-.88,2.09-1.96,2.09-1.96-.92-1.96-2.09h0Zm27.5,41.21h-30.44c-.74,0-1.37-.61-1.37-1.38,0-.82.59-1.43,1.37-1.43h16.37c-.05-.2-.05-.41-.05-.61,0-1.43.83-2.7,2.06-3.21.54-2.55,2.65-4.33,5.15-4.33,1.91,0,3.63,1.02,4.56,2.65v-16.56c0-.76.59-1.43,1.37-1.43.74,0,1.37.66,1.37,1.43v15.94c2.16.2,3.92,2.14,3.92,4.48-.05,2.45-1.96,4.43-4.31,4.43h0Zm-30.44-2.04c-.34,0-.64.31-.64.66s.29.61.64.61h30.44c1.96,0,3.53-1.63,3.53-3.67s-1.57-3.72-3.53-3.72h-.39v-16.71c0-.36-.25-.61-.59-.61s-.64.25-.64.61v17.07l-.2.1c-.15.1-.29.2-.44.31l-.34.25-.2-.41c-.78-1.63-2.35-2.65-4.07-2.65-2.26,0-4.12,1.63-4.51,3.92v.2l-.25.1c-1.03.36-1.76,1.38-1.76,2.55,0,.25.05.56.15.87l.2.51h-17.4Zm30.44,0h-10.83c-.74,0-1.32-.61-1.32-1.38,0-.82.59-1.43,1.32-1.43.34,0,.64-.31.64-.61,0-1.94,1.47-3.46,3.33-3.46s3.28,1.53,3.28,3.46c0,.31.25.56.49.61.29.05.59-.15.69-.41.34-.97,1.32-1.63,2.4-1.63,1.27,0,2.3,1.07,2.3,2.45s-1.03,2.39-2.3,2.39h0Zm-6.86-6.11c-1.42,0-2.6,1.22-2.6,2.7,0,.76-.59,1.38-1.37,1.38-.29,0-.59.31-.59.66,0,.31.29.61.59.61h10.83c.88,0,1.57-.71,1.57-1.63s-.69-1.68-1.57-1.68c-.78,0-1.42.46-1.67,1.12-.25.66-.88,1.02-1.52.92-.69-.1-1.13-.71-1.13-1.38,0-1.48-1.18-2.7-2.55-2.7h0Zm6.86-.41v-16.3c0-.56-.44-1.02-.98-1.02s-.98.46-.98,1.02v16.81c-.2.1-.34.2-.49.36-.83-1.73-2.5-2.9-4.41-2.9-2.45,0-4.46,1.83-4.85,4.23-1.18.41-2.06,1.58-2.06,2.95,0,.36.1.66.2,1.02h-16.86c-.54,0-.98.46-.98,1.02s.44,1.02.98,1.02h30.44c2.16,0,3.92-1.83,3.92-4.13s-1.76-4.08-3.92-4.08h0Zm0,6.16h-10.83c-.54,0-.98-.46-.98-1.02s.44-1.02.98-1.02.98-.46.98-1.02c0-1.68,1.32-3.06,2.99-3.06s2.94,1.38,2.94,3.06c0,.46.34.92.78.97.49.1.93-.15,1.13-.61.29-.82,1.08-1.38,2.01-1.38,1.08,0,1.96.92,1.96,2.04s-.88,2.04-1.96,2.04h0Zm2.94-23.08c-.39,0-.74-.15-.98-.41l-27.5-28.63-27.5,28.63c-.39.36-.98.51-1.47.31-.54-.25-.88-.76-.88-1.32v-25.52c0-.36.15-.71.39-.97.29-.31.64-.46.98-.46h10.44v-1.22h-.64c-.74,0-1.32-.66-1.32-1.43v-4.08c0-.76.59-1.43,1.32-1.43h7.89c.74,0,1.32.66,1.32,1.43v4.08c0,.76-.59,1.43-1.32,1.43h-.64v1.22h1.62c.74,0,1.32.66,1.32,1.43,0,.82-.59,1.43-1.32,1.43h-2.99c-.74,0-1.32-.66-1.32-1.43v-4.08c0-.76.59-1.43,1.32-1.43h.64v-1.22h-5.15v1.22h.59c.78,0,1.37.66,1.37,1.43v4.08c0,.76-.59,1.43-1.37,1.43h-10.39v20.68l26.13-27.15c.54-.56,1.42-.56,1.91,0l26.18,27.15v-20.68h-17.3c-.74,0-1.37-.61-1.37-1.43,0-.76.64-1.38,1.37-1.38h18.68c.74,0,1.37.61,1.37,1.38v25.52c0,.56-.34,1.07-.88,1.32-.15.05-.34.1-.49.1h0Zm-28.48-30.16l28.04,29.19c.2.15.44.2.69.1.2-.1.34-.31.34-.56v-25.52c0-.36-.25-.61-.59-.61h-18.68c-.29,0-.59.25-.59.61s.29.66.59.66h18.09v23.33l-27.45-28.53c-.25-.2-.64-.2-.88,0l-27.45,28.53v-23.33h11.18c.34,0,.64-.31.64-.66v-4.08c0-.36-.29-.61-.64-.61h-1.32v-2.85h6.62v2.85h-1.37c-.29,0-.59.25-.59.61v4.08c0,.36.29.66.59.66h2.99c.29,0,.59-.31.59-.66s-.29-.61-.59-.61h-2.35v-2.85h1.37c.29,0,.59-.25.59-.61v-4.08c0-.36-.29-.61-.59-.61h-7.89c-.29,0-.59.25-.59.61v4.08c0,.36.25.61.59.61h1.37v2.85h-11.18c-.15,0-.29.05-.44.2-.1.1-.15.25-.15.41v25.52c0,.25.15.51.34.56.25.1.49.05.69-.1l28.04-29.19h0Zm28.48,2.19h-18.68c-.54,0-.98.46-.98,1.02s.44,1.02.98,1.02h17.7v22.01l-26.81-27.81c-.2-.2-.44-.31-.69-.31s-.49.1-.69.31l-26.81,27.81v-22.01h10.78c.54,0,.98-.46.98-1.02v-4.08c0-.56-.44-1.02-.98-1.02h-.98v-2.04h5.88v2.04h-.98c-.54,0-.98.46-.98,1.02v4.08c0,.56.44,1.02.98,1.02h2.99c.54,0,.98-.46.98-1.02s-.44-1.02-.98-1.02h-2.01v-2.04h.98c.54,0,.98-.46.98-1.02v-4.08c0-.56-.44-1.02-.98-1.02h-7.84c-.54,0-.98.46-.98,1.02v4.08c0,.56.44,1.02.98,1.02h.98v2.04h-10.78c-.25,0-.54.1-.69.31-.2.2-.29.46-.29.71v25.52c0,.41.25.76.59.92.15.05.25.1.39.1.25,0,.49-.1.69-.31l27.8-28.88,27.75,28.88c.2.2.44.31.74.31.1,0,.25-.05.34-.1.39-.15.64-.51.64-.92v-25.52c0-.56-.44-1.02-.98-1.02h0Zm-43.24,53.44h-10.78c-2.35,0-4.31-1.99-4.31-4.43s1.72-4.28,3.92-4.48v-15.94c0-.76.64-1.43,1.37-1.43s1.37.66,1.37,1.43v16.56c.93-1.63,2.65-2.65,4.51-2.65,2.5,0,4.66,1.78,5.2,4.33,1.23.51,2.06,1.78,2.06,3.21,0,1.88-1.47,3.41-3.33,3.41h0Zm-10.78-8.15c-1.96,0-3.53,1.68-3.53,3.72s1.57,3.67,3.53,3.67h10.83c1.37,0,2.55-1.22,2.55-2.65,0-1.17-.74-2.19-1.76-2.55l-.25-.1v-.2c-.39-2.29-2.26-3.92-4.51-3.92-1.72,0-3.28,1.02-4.07,2.65l-.2.41-.34-.25c-.15-.1-.29-.2-.44-.31l-.2-.1v-17.07c0-.36-.29-.61-.64-.61s-.59.25-.59.61v16.71h-.39Zm10.78,6.11h-10.78c-1.27,0-2.35-1.07-2.35-2.39s1.08-2.45,2.35-2.45c1.08,0,2.01.66,2.4,1.63.1.31.34.46.64.41.29-.05.49-.31.49-.61,0-1.94,1.52-3.46,3.33-3.46s3.33,1.53,3.33,3.46c0,.31.25.61.59.61.78,0,1.37.66,1.37,1.43s-.59,1.38-1.37,1.38h0Zm-10.78-4.08c-.88,0-1.57.76-1.57,1.68s.69,1.63,1.57,1.63h10.83c.29,0,.59-.25.59-.61s-.29-.66-.64-.66c-.74,0-1.32-.61-1.32-1.38,0-1.48-1.18-2.7-2.6-2.7s-2.55,1.22-2.55,2.7c0,.66-.49,1.22-1.13,1.38-.64.1-1.27-.25-1.52-.92-.25-.66-.88-1.12-1.67-1.12h0Zm11.72-.25c-.39-2.39-2.4-4.23-4.85-4.23-1.91,0-3.58,1.17-4.41,2.9-.15-.15-.29-.25-.49-.36v-16.81c0-.56-.44-1.02-.98-1.02s-.98.46-.98,1.02v16.3c-2.16,0-3.92,1.83-3.92,4.13s1.76,4.08,3.92,4.08h10.78c1.67,0,2.99-1.38,2.99-3.06,0-1.38-.88-2.55-2.06-2.95h0Zm-.93,3.97h-10.78c-1.08,0-1.96-.92-1.96-2.04s.88-2.04,1.96-2.04c.93,0,1.72.51,2.01,1.38.2.46.64.71,1.13.61.44-.05.78-.51.78-.97,0-1.73,1.32-3.11,2.94-3.11s2.99,1.38,2.99,3.11c0,.56.44,1.02.98,1.02s.98.46.98,1.02-.44,1.02-1.03,1.02h0Z"/>
    </g>
  </g>
</svg>