<?xml version="1.0" encoding="UTF-8"?>
<svg id="Capa_2" data-name="Capa 2" xmlns="http://www.w3.org/2000/svg" xmlns:xlink="http://www.w3.org/1999/xlink" viewBox="0 0 330 300">
  <defs>
    <style>
      .cls-1 {
        fill: #eef0f6;
        filter: url(#drop-shadow-1);
        stroke-width: 0px;
      }

      .cls-2 {
        fill: url(#Degradado_sin_nombre_107);
        fill-rule: evenodd;
      }
    </style>
    <filter id="drop-shadow-1" filterUnits="userSpaceOnUse">
      <feOffset dx="0" dy="0"/>
      <feGaussianBlur result="blur" stdDeviation="5"/>
      <feFlood flood-color="#000" flood-opacity=".2"/>
      <feComposite in2="blur" operator="in"/>
      <feComposite in="SourceGraphic"/>
    </filter>
    <linearGradient id="Degradado_sin_nombre_107" data-name="Degradado sin nombre 107" x1="98.73" y1="278.13" x2="98.73" y2="129.18" gradientTransform="translate(90.65 -33.59) rotate(-1.2)" gradientUnits="userSpaceOnUse">
      <stop offset="0" stop-color="#e38520"/>
      <stop offset=".11" stop-color="#e27825"/>
      <stop offset="1" stop-color="#dc1a4d"/>
    </linearGradient>
  </defs>
  <g id="Capa_1-2" data-name="Capa 1">
    <g>
      <path class="cls-1" d="m249.62,15.49c-14.8,6.5-230.97,111.59-234.18,113.36,25.12,44.37,39.47,95.63,39.47,150.26,0,1.9-.04,3.79-.07,5.68h259.84c.02-1.9.07-3.78.07-5.68,0-95.21-23.55-184.91-65.12-263.61Z"/>
      <path class="cls-2" d="m240.89,185.26c-3.88.08-5.85,2.06-7.44,3.62-1.4,1.4-2.41,2.39-4.62,2.44s-3.21-.9-4.67-2.24c-1.65-1.49-3.71-3.39-7.59-3.3s-5.85,2.06-7.44,3.62c-1.4,1.4-2.36,2.39-4.57,2.44s-3.26-.9-4.67-2.24c-1.7-1.49-3.76-3.38-7.64-3.3-3.83.08-5.85,2.06-7.44,3.62-1.4,1.4-2.36,2.39-4.57,2.44-2.21.05-3.26-.9-4.67-2.24-1.65-1.49-3.76-3.38-7.59-3.3s-5.85,2.06-7.49,3.62c-1.35,1.4-2.36,2.39-4.57,2.44-2.21.05-3.21-.9-4.67-2.24-1.65-1.49-3.71-3.39-7.59-3.3-1.18.02-2.14,1.06-2.11,2.29s1.03,2.22,2.21,2.19c2.21-.05,3.21.9,4.66,2.19,1.65,1.49,3.71,3.39,7.59,3.3s5.85-2.06,7.44-3.62c1.4-1.35,2.41-2.34,4.62-2.39s3.21.9,4.66,2.19c1.65,1.49,3.71,3.39,7.59,3.3,3.88-.08,5.85-2.06,7.44-3.62,1.4-1.35,2.36-2.34,4.57-2.39,2.21-.05,3.26.9,4.66,2.19,1.7,1.49,3.76,3.38,7.64,3.3s5.85-2.06,7.44-3.62c1.4-1.35,2.36-2.34,4.57-2.39,2.21-.05,3.26.9,4.66,2.19,1.65,1.49,3.76,3.38,7.64,3.3,3.83-.08,5.85-2.06,7.44-3.62,1.35-1.35,2.36-2.34,4.57-2.39,1.18-.02,2.14-1.06,2.11-2.29s-1.03-2.22-2.21-2.19h0Zm10.01-35.56c-.32-1.11-1.46-1.75-2.49-1.37-1.07.33-1.69,1.51-1.37,2.58,1.53,5.11,2.33,10.44,2.45,15.84.03,1.37,0,2.75-.01,4.08l-.88.02h0l-4.27.09c-.74.02-2.47-.46-6.07-3.79-2.66-2.49-5.52-5.74-8.04-8.64-1.36-1.55-2.67-3-3.77-4.2-4.02-4.25-7.74-1.47-10.02.16-.87.68-1.84,1.36-2.47,1.48-.35-.5-.76-1.05-1.16-1.55-1.67-2.21-3.39-4.51-5.72-5.89-1.44-.84-3.34-2.48-5.19-4.07-3.5-3.03-6.56-5.72-9.11-5.67-2.21.05-5.05,2.65-10.19,8.31-2.82,1.18-5.72,1.55-8.56,1.96-3.14.42-6.07.84-8.3,2.31-.78.53-1.68,1.67-3.64,4.25-4.64,6.06-13.29,17.34-21.4,17.51l-1.82.04h0l-.88.02v-.15c-.13-1.27-.21-2.59-.23-3.92-.07-3.41.15-6.83.67-10.15.99-6.85,3.16-13.36,6.47-19.44.52-.98.2-2.25-.8-2.84-.94-.54-2.22-.21-2.73.82-3.5,6.44-5.86,13.47-6.93,20.77-.56,3.63-.78,7.3-.7,10.92.03,1.43.11,2.85.24,4.22,0,.46.07.92.13,1.32v.2c0,.05,0,.1,0,.15.02,1.02.82,1.82,1.81,1.8l3.04-.06h0l24.8-.52c-1.2,1.35-2.46,2.29-4.08,2.33-.98.02-1.75.85-1.73,1.87s.82,1.82,1.81,1.8l20.72-.44h0l1.92-.04c.93-.02,1.75-.9,1.73-1.87-.02-1.02-.87-1.82-1.81-1.8h-.59c-.21-.59-.47-1.35-.78-2.21l67.77-1.42h0l2.95-.06c.98-.02,1.75-.85,1.73-1.87,0-.05.13-.72.13-1.02.11-1.58.13-3.21.09-4.84-.12-5.8-1.03-11.54-2.67-17.01h0Zm-86.1,8.18c1.1-1.5,2.39-3.11,2.78-3.42,1.6-1.05,4.05-1.41,6.89-1.77,1.13-.18,2.3-.35,3.48-.53-.43.47-.82.83-1.01.99-1.89,1.47-2.9,2.15-4.74,3.41l-.77.58c-2.66,1.84-3.84,4.31-4.83,6.32-.38.77-.75,1.49-1.14,2.06-1.71,2.58-8.91,5.99-14.34,7.08,5.61-4.19,10.54-10.56,13.69-14.7h0Zm1.86,20.54c.48-.57.96-1.14,1.44-1.71,1.96-2.38,3.64-4.46,6.44-4.57.1.05,1.09.49,2.64,4.02.31.71.57,1.41.78,2.02l-11.29.24h0Zm12.55-6.12h0c-1.43-2.57-3.03-3.86-4.7-3.82-3.44.07-5.76,2.01-7.63,4.08l-5.21.11c2.33-1.17,5.29-2.96,6.67-5.03.52-.78.95-1.65,1.37-2.52.9-1.8,1.79-3.65,3.68-4.97l.78-.53c1.79-1.26,2.9-2.05,4.84-3.51.77-.63,2.02-1.98,4.09-4.31,1.82-2.08,3.89-4.36,5.81-6.23,2.79-2.76,3.77-3.08,3.91-3.09,1.28-.03,4.58,2.86,6.73,4.75,2.05,1.79,4,3.48,5.74,4.51,1.74.98,3.16,2.89,4.67,4.89,1.92,2.56,3.94,5.27,7.02,6.68,2.33,1.02,4.19,2.97,6.15,4.96.95,1,2.01,2.1,3.11,3.04l-47.04.99h0Zm55.69-1.17h0c-3.93.08-6.39-2.46-9.25-5.46-2.11-2.15-4.27-4.44-7.2-5.76-.69-.29-1.29-.69-1.84-1.18.63-.37,1.26-.79,1.89-1.26,2.61-1.94,3.68-2.42,5.39-.62,1.11,1.2,2.36,2.6,3.67,4.15,3.57,4.05,6.84,7.65,9.74,10.08l-2.41.05h0Zm6.08-35.68c-.64.01-1.28-.28-1.69-.88-10.75-15.77-28.28-24.98-46.89-24.58-11.34.24-22.22,3.98-31.41,10.85-.92.68-2.15.45-2.81-.5-.66-.95-.44-2.23.48-2.91,9.82-7.34,21.48-11.35,33.65-11.61,19.94-.42,38.76,9.42,50.27,26.35.66.95.44,2.23-.48,2.91-.34.26-.73.37-1.12.38h0Zm-49.26,80.19l-15.08.32c-.98.02-1.75.85-1.73,1.87s.82,1.82,1.81,1.8l15.08-.32c.98-.02,1.75-.85,1.73-1.87s-.82-1.82-1.81-1.8h0Zm-27.97-80.45c-.01-.61-.47-1.11-1.1-1.1l-2.26.05c-.59.01-1.07.53-1.06,1.14s.51,1.11,1.1,1.1l2.26-.05c.59-.01,1.07-.53,1.06-1.14h0Zm80.25,15.22c-.02-.81-.67-1.51-1.46-1.5l-3.14.07c-.79.02-1.46.74-1.44,1.56.02.87.72,1.51,1.51,1.5l3.14-.07c.79-.02,1.41-.69,1.39-1.56h0Zm-24.38,50.84c-.02-1.02-.82-1.82-1.81-1.8l-3.78.08c-.98.02-1.75.85-1.73,1.87s.82,1.82,1.81,1.8l3.78-.08c.98-.02,1.75-.85,1.73-1.87h0Zm-41.15,10.49c.98-.02,1.75-.85,1.73-1.87s-.82-1.82-1.81-1.8l-5.65.12c-.98.02-1.75.85-1.73,1.87s.82,1.82,1.81,1.8l5.65-.12h0Zm47.02-4.66l-7.51.16c-.98.02-1.75.85-1.73,1.87s.82,1.82,1.81,1.8l7.51-.16c.98-.02,1.75-.85,1.73-1.87s-.82-1.82-1.81-1.8h0Zm-47.85-77.28l-13.9.29c-.49.01-.87.58-.86,1.19.01.66.42,1.16.91,1.15l13.9-.29c.49-.01.87-.53.86-1.19-.01-.61-.42-1.16-.91-1.15h0Zm-15.43-2.32l9.67-.2c.64-.01,1.12-.58,1.1-1.19-.01-.66-.52-1.16-1.15-1.15l-9.67.2c-.64.01-1.12.53-1.1,1.19.01.61.52,1.16,1.15,1.15h0Zm87.59,15.99l-20.48.43c-.74.02-1.26.64-1.25,1.35s.57,1.31,1.3,1.3l20.48-.43c.69-.01,1.26-.64,1.25-1.35-.02-.76-.62-1.31-1.3-1.3h0Zm-15.09-2.69l10.9-.23c.74-.02,1.26-.64,1.25-1.35-.02-.76-.57-1.31-1.3-1.3l-10.9.23c-.74.02-1.27.59-1.25,1.35.01.71.57,1.31,1.3,1.3h0Zm-22.38,66.58l-28.29.59c-.98.02-1.75.85-1.73,1.87s.82,1.82,1.81,1.8l28.29-.59c.98-.02,1.75-.85,1.73-1.87s-.82-1.82-1.81-1.8h0Zm-20.86-3.69l15.12-.32c.93-.02,1.75-.85,1.73-1.87s-.87-1.82-1.81-1.8l-15.12.32c-.98.02-1.75.85-1.73,1.87s.82,1.82,1.81,1.8h0Zm-6.32-66.95l15.08-.32,3.78-.08,26.42-.56c.93-.02,1.75-.85,1.73-1.87-.09-4.23-3.5-7.62-7.63-7.53-.29,0-.64.06-.98.12-2.17-2.5-5.24-3.91-8.48-3.85-2.85.06-5.48,1.24-7.5,3.21-2.05-1.89-4.78-2.96-7.63-2.9-2.8.06-5.38,1.18-7.4,3.16-.34-.04-.69-.04-.98-.03-4.62.1-8.32,4.05-8.22,8.83.02,1.02.82,1.82,1.81,1.8h0Zm29.95-10.41c2.5-.05,4.89,1.17,6.36,3.28.46.65,1.3.94,2.03.67.44-.16.78-.22,1.13-.23,1.52-.03,2.87.86,3.53,2.12l-24.21.51-1.57.03c.61-1.29,1.92-2.23,3.39-2.26.39,0,.74.04,1.18.18.74.24,1.52-.08,1.95-.75,1.43-2.17,3.71-3.49,6.21-3.54h0Zm-23.46,3.45c.34,0,.69.04,1.13.13.64.14,1.28-.08,1.71-.55,1.44-1.71,3.43-2.67,5.54-2.71,1.13-.02,2.17.21,3.16.65-2.29.91-4.01,2.99-4.55,5.49l-11.44.24c.65-1.85,2.39-3.21,4.45-3.25h0Zm-40.14-9.65c-4.62.1-8.27,4.04-8.17,8.83s3.91,8.58,8.53,8.48c4.62-.1,8.27-4.04,8.17-8.83s-3.91-8.58-8.53-8.48h0Zm.31,14.87c-3.29.07-6.05-2.67-6.12-6.09s2.57-6.22,5.86-6.29c3.29-.07,6,2.62,6.07,6.04s-2.52,6.27-5.81,6.34h0Zm43.38,107.43c-39.58.83-72.5-31.89-73.36-72.98-.86-41.04,30.65-75.11,70.23-75.94,39.63-.83,72.55,31.89,73.41,72.93.86,41.09-30.65,75.16-70.28,76h0Zm-3.04-144.75c-37.37.79-67.11,32.94-66.29,71.68.81,38.75,31.87,69.67,69.25,68.89,37.37-.79,67.15-32.99,66.34-71.74-.81-38.75-31.92-69.62-69.29-68.84h0Z"/>
    </g>
  </g>
</svg>