<?xml version="1.0" encoding="UTF-8"?>
<svg id="Capa_2" data-name="Capa 2" xmlns="http://www.w3.org/2000/svg" xmlns:xlink="http://www.w3.org/1999/xlink" viewBox="0 0 318 328">
  <defs>
    <style>
      .cls-1 {
        fill: #eef0f6;
        filter: url(#drop-shadow-1);
        stroke-width: 0px;
      }

      .cls-2 {
        fill: url(#Degradado_sin_nombre_107);
        fill-rule: evenodd;
      }
    </style>
    <filter id="drop-shadow-1" filterUnits="userSpaceOnUse">
      <feOffset dx="0" dy="0"/>
      <feGaussianBlur result="blur" stdDeviation="5"/>
      <feFlood flood-color="#000" flood-opacity=".2"/>
      <feComposite in2="blur" operator="in"/>
      <feComposite in="SourceGraphic"/>
    </filter>
    <linearGradient id="Degradado_sin_nombre_107" data-name="Degradado sin nombre 107" x1="119.08" y1="249.35" x2="119.08" y2="100.4" gradientUnits="userSpaceOnUse">
      <stop offset="0" stop-color="#e38520"/>
      <stop offset=".11" stop-color="#e27825"/>
      <stop offset="1" stop-color="#dc1a4d"/>
    </linearGradient>
  </defs>
  <g id="Capa_1-2" data-name="Capa 1">
    <g>
      <path class="cls-1" d="m302.35,225.71c-83.44,52.81-181.65,84.38-287.05,87.09V52.8c48.04-2.3,93.17-15.7,132.89-37.68,50.38,68.83,132.57,180.45,154.16,210.6Z"/>
      <path class="cls-2" d="m169.06,180.69c-.64,0-1.23-.41-1.43-1.07l-2.21-6.84c-.25-.87.2-1.73.98-1.99.79-.31,1.67.15,1.92.97l2.21,6.84c.25.87-.2,1.73-.98,1.99-.15.05-.34.1-.49.1h0Zm-24.5,45.09c-.64,0-1.23-.41-1.43-1.07l-2.21-6.84c-.3-.82.15-1.68.93-1.99.79-.26,1.67.2,1.92,1.02l2.21,6.84c.25.82-.15,1.68-.98,1.99-.15.05-.3.05-.44.05h0Zm-9.15-85.6c-.59,0-1.18-.41-1.43-1.07l-2.16-6.84c-.3-.82.15-1.68.93-1.99.79-.26,1.67.2,1.92,1.02l2.21,6.84c.25.82-.2,1.68-.98,1.99-.15.05-.3.05-.49.05h0Zm19.23-1.12c-.64,0-1.23-.46-1.43-1.07l-2.21-6.89c-.25-.82.2-1.68.98-1.94.79-.31,1.62.15,1.92.97l2.16,6.84c.3.82-.15,1.73-.93,1.99-.15.05-.34.1-.49.1h0Zm.89,87.08c-.64,0-1.23-.41-1.43-1.07l-3.59-11.12c-.25-.82.2-1.68.98-1.99.79-.26,1.62.2,1.92,1.02l3.54,11.07c.3.82-.15,1.73-.93,1.99-.15.05-.34.1-.49.1h0Zm7.67-36.68c-.64,0-1.23-.46-1.43-1.07l-4.43-13.72c-.25-.82.2-1.68.98-1.99.79-.26,1.62.2,1.92,1.02l4.38,13.67c.25.82-.15,1.73-.93,1.99-.2.05-.34.1-.49.1h0Zm-18.64-51.37c-.64,0-1.23-.46-1.43-1.07l-4.43-13.72c-.25-.82.15-1.68.98-1.99.79-.26,1.62.2,1.87,1.02l4.43,13.67c.25.82-.15,1.73-.98,1.99-.15.05-.3.1-.44.1h0Zm-25.48,93.96c-14.95,0-28.93-6.12-39.36-17.14-.79-.82-.79-2.14,0-2.96.79-.82,2.07-.82,2.85,0,9.69,10.25,22.68,15.92,36.5,15.92,1.08,0,2.02.92,2.02,2.09s-.93,2.09-2.02,2.09h0Zm-44.91-25.61c-.64,0-1.28-.36-1.67-.97-5.61-9.13-8.56-19.74-8.56-30.61,0-7.65,1.43-15.1,4.23-22.09.44-1.07,1.62-1.53,2.66-1.12,1.03.46,1.53,1.68,1.08,2.75-2.61,6.48-3.94,13.37-3.94,20.46,0,10.05,2.75,19.89,7.92,28.36.59.97.34,2.24-.64,2.91-.3.2-.69.31-1.08.31h0Zm2.71-63c-.39,0-.84-.15-1.23-.46-.89-.66-1.03-1.99-.34-2.91,9.05-12.24,22.63-20.25,37.34-22.04,1.08-.1,2.07.71,2.21,1.84.15,1.17-.64,2.19-1.77,2.35-13.63,1.63-26.22,9.08-34.58,20.4-.39.51-.98.82-1.62.82h0Zm51.21-4.39c0,1.02-.79,1.84-1.77,1.84s-1.77-.82-1.77-1.84.79-1.84,1.77-1.84,1.77.82,1.77,1.84h0Zm35.62,10.81c-.34-.56-.89-.87-1.53-.87l-28.73.15-1.92-3.72c-.3-.56-.89-.97-1.53-.97-.3,0-.59.1-.84.2-.39.26-.69.61-.84,1.07-.15.46-.1.97.1,1.43l2.41,4.69c.3.61.89.97,1.57.97l26.76-.2-12,21.94c-.25.46-.3,1.02-.15,1.53l9.15,27.19-14.41-5.25c.05-.71.1-1.43.1-2.24v-29.64c0-3.83-3-6.94-6.69-6.94-1.38,0-2.61.41-3.64,1.07-.98-2.6-3.39-4.44-6.3-4.44-1.33,0-2.56.41-3.59,1.07-.98-2.6-3.44-4.44-6.3-4.44-3.35,0-6.15,2.55-6.64,5.92-.93-.56-2.07-.87-3.25-.87-3.69,0-6.69,3.11-6.69,6.94v10.87c-.2.15-.34.31-.54.51-1.23,1.28-1.97,3.01-1.97,4.9v17.55l-13.23,4.95,9.15-27.14c.15-.56.1-1.12-.2-1.58l-12.89-21.68h26.66c.64,0,1.23-.36,1.53-.97l11.81-23.16,2.02,3.98c.3.61.89.97,1.53.97.3,0,.59-.05.84-.2.39-.2.74-.61.84-1.07.15-.46.1-.97-.1-1.38l-3.59-7.04c-.3-.56-.89-.97-1.53-.97s-1.28.41-1.57.97l-12.84,25.25h-28.73c-.64,0-1.23.36-1.53.92s-.3,1.28.05,1.84l14.12,23.72-10.08,29.99c-.2.66-.05,1.38.44,1.89.3.31.74.51,1.23.51.2,0,.39-.05.59-.1l16.38-6.12c0,.05.05.1.05.15.54,1.12,1.28,2.14,2.16,3.01.34,3.21.64,6.89.64,8.62v.61c0,1.02.79,1.84,1.77,1.84h32.91c.89,0,1.67-.77,1.72-1.73l.44-6.84c1.23-.77,3.1-2.5,4.18-5.87l17.41,6.33c.64.2,1.38.05,1.82-.41.49-.51.64-1.28.44-1.89l-10.08-30.05,13.09-23.92c.3-.56.3-1.28,0-1.84h0Zm-41.67,12.91c0-1.84,1.48-3.32,3.2-3.32s3.2,1.48,3.2,3.32v12.8c0,1.84-1.43,3.32-3.2,3.32s-3.2-1.48-3.2-3.32v-12.8h0Zm-9.89-3.37c0-1.84,1.43-3.32,3.2-3.32s3.2,1.48,3.2,3.32v14.64c-.64-.15-1.28-.31-1.97-.31h-4.43v-14.33h0Zm-9.89,5.05c0-1.84,1.43-3.32,3.2-3.32s3.2,1.48,3.2,3.32v9.28h-5.66c-.25,0-.49.05-.74.05v-9.34h0Zm36.11,31.32c0,7.14-3.49,8.72-3.79,8.88-.69.2-1.13.82-1.18,1.58l-.39,6.17h-4.77v-4.13c0-1.02-.79-1.84-1.72-1.84-.98,0-1.77.82-1.77,1.84v4.13h-6.4v-5.97c0-.97-.79-1.79-1.77-1.79s-1.72.82-1.72,1.79v5.97h-11.36c-.1-1.48-.25-3.52-.39-5.51.59-.15,1.08-.56,1.28-1.17.34-.92-.1-1.99-1.03-2.35h0s-.98-.41-1.92-1.38c-.69-.77-1.62-2.04-1.62-4.34v-16.94c0-1.84,1.43-3.32,3.2-3.32h13.58c1.77,0,3.2,1.48,3.2,3.32s-1.43,3.32-3.2,3.32h-7.38c-.49,0-.93.2-1.28.51-.3.36-.49.82-.49,1.28v6.22c0,.56.25,1.07.64,1.43.44.36.98.46,1.48.36.05,0,1.23-.26,2.66-.26,1.72,0,3.35.41,4.33,1.07.64.46,1.08.97,1.43,1.68.39.82.59,1.89.59,3.16,0,.97.79,1.79,1.77,1.79s1.77-.82,1.77-1.79c0-1.84-.34-3.47-1.03-4.85-.44-.92-1.08-1.73-1.87-2.45-.69-.61-1.48-1.07-2.31-1.43-1.38-.56-2.9-.82-4.67-.82-.44,0-.84,0-1.28.05v-2.35h5.66c1.82,0,3.49-.71,4.77-2.04.93-.92,1.53-2.14,1.77-3.42.69.2,1.38.36,2.12.36,2.41,0,4.53-1.33,5.71-3.26,1.13.97,2.61,1.58,4.23,1.58,1.13,0,2.21-.31,3.2-.87v15.76h0Zm0-21.88c0,1.84-1.43,3.32-3.2,3.32s-3.2-1.48-3.2-3.32v-7.75c0-1.84,1.43-3.32,3.2-3.32s3.2,1.48,3.2,3.32v7.75h0Zm-19.28,75.45c-39.6,0-71.82-33.41-71.82-74.48s32.22-74.48,71.82-74.48,71.82,33.41,71.82,74.48-32.22,74.48-71.82,74.48h0Zm0-144.77c-37.39,0-67.79,31.53-67.79,70.29s30.4,70.29,67.79,70.29,67.79-31.53,67.79-70.29-30.4-70.29-67.79-70.29h0Zm-44.91,42.9c0,1.12-.84,2.04-1.97,2.04s-1.97-.92-1.97-2.04.89-2.04,1.97-2.04,1.97.92,1.97,2.04h0Z"/>
    </g>
  </g>
</svg>