<?xml version="1.0" encoding="UTF-8"?>
<svg id="Capa_2" data-name="Capa 2" xmlns="http://www.w3.org/2000/svg" xmlns:xlink="http://www.w3.org/1999/xlink" viewBox="0 0 318 328">
  <defs>
    <style>
      .cls-1 {
        fill: #eef0f6;
        filter: url(#drop-shadow-1);
        stroke-width: 0px;
      }

      .cls-2 {
        fill: url(#Degradado_sin_nombre_107);
        fill-rule: evenodd;
      }
    </style>
    <filter id="drop-shadow-1" filterUnits="userSpaceOnUse">
      <feOffset dx="0" dy="0"/>
      <feGaussianBlur result="blur" stdDeviation="5"/>
      <feFlood flood-color="#000" flood-opacity=".2"/>
      <feComposite in2="blur" operator="in"/>
      <feComposite in="SourceGraphic"/>
    </filter>
    <linearGradient id="Degradado_sin_nombre_107" data-name="Degradado sin nombre 107" x1="192" y1="69.62" x2="336.51" y2="69.62" gradientTransform="translate(-140.81 74.12) rotate(.73)" gradientUnits="userSpaceOnUse">
      <stop offset="0" stop-color="#e38520"/>
      <stop offset=".11" stop-color="#e27825"/>
      <stop offset="1" stop-color="#dc1a4d"/>
    </linearGradient>
  </defs>
  <g id="Capa_1-2" data-name="Capa 1">
    <g>
      <path class="cls-1" d="m302.35,102.09C218.91,49.29,120.69,17.72,15.3,15v260.01c48.04,2.3,93.17,15.7,132.89,37.68,50.38-68.83,132.57-180.45,154.16-210.6Z"/>
      <path class="cls-2" d="m123.25,93.43c-1.14-.01-2.01-1-2-2.12l.15-11.4c.02-1.18.92-2.08,2.05-2.07s2.01.95,2,2.12l-.15,11.4c-.01,1.12-.97,2.08-2.05,2.07h0Zm63.35,57.29l-10.97-.14c-1.14-.01-2.06-.95-2.05-2.12s.97-2.08,2.1-2.07l10.97.14c1.14.01,2.06.95,2.05,2.12s-.97,2.08-2.1,2.07h0Zm-117.82-1.51l-11.02-.14c-1.09-.01-2.01-.95-2-2.12s.92-2.08,2.05-2.07l11.02.14c1.14.01,2.01.95,2,2.12s-.92,2.08-2.05,2.07h0Zm-3.92-6.8h-.25c-1.09-.12-1.91-1.2-1.75-2.33,1.34-12.3,6.18-23.79,13.96-33.25.7-.86,1.99-1,2.87-.22.83.73.96,2.06.21,2.92-7.28,8.85-11.76,19.53-13,31.01-.16,1.07-1.06,1.88-2.05,1.87h0Zm23.06-41.36c-.64,0-1.23-.32-1.62-.89-.68-.93-.47-2.2.43-2.91,8.78-6.79,19.16-10.95,30.05-11.99,1.09-.14,2.12.69,2.2,1.87.13,1.13-.72,2.19-1.81,2.28-10.14.99-19.83,4.91-28.01,11.19-.4.3-.85.45-1.24.44h0Zm70.54.95c-.44,0-.89-.16-1.23-.42-8.12-6.6-17.75-10.76-27.96-12.01-1.13-.17-1.91-1.2-1.8-2.32.16-1.17,1.16-1.98,2.3-1.86,10.9,1.37,21.27,5.79,29.97,12.86.88.73,1.01,2.06.31,2.97-.4.56-1,.81-1.59.8h0Zm21.89,42.14c-1.04-.01-1.87-.84-1.95-1.92-.94-11.67-5.24-22.66-12.39-31.75-.73-.88-.61-2.21.28-2.96.85-.7,2.13-.59,2.86.29,7.68,9.76,12.27,21.57,13.25,34.06.13,1.18-.72,2.19-1.86,2.28h-.2Zm-12.45,42.47c-.4,0-.84-.16-1.23-.48-.88-.68-1.01-2.01-.31-2.92,6.28-8.2,10.36-17.96,11.68-28.32.16-1.12,1.21-1.93,2.3-1.81,1.13.17,1.91,1.25,1.75,2.37-1.43,11.07-5.81,21.6-12.54,30.36-.4.56-1,.81-1.64.8h0Zm-39.71,22.39c-.99-.01-1.87-.84-1.95-1.92-.13-1.13.67-2.19,1.81-2.28,10.74-1.09,20.87-5.36,29.31-12.3.9-.7,2.18-.59,2.86.34.68.93.56,2.26-.33,2.96-9.09,7.45-19.97,12.01-31.44,13.19h-.25Zm-12.79-.16h-.2c-11.54-1.48-22.4-6.32-31.29-14.1-.88-.73-.96-2.06-.26-2.92.75-.91,1.99-1,2.87-.27,8.31,7.21,18.43,11.74,29.18,13.1,1.08.17,1.91,1.2,1.75,2.32-.11,1.12-1.01,1.88-2.05,1.87h0Zm-39.47-23.76c-.64,0-1.23-.27-1.62-.84-6.31-8.82-10.28-19.2-11.47-30.1-.13-1.13.67-2.19,1.81-2.28,1.09-.14,2.12.69,2.2,1.82,1.11,10.14,4.83,19.84,10.71,28.05.68.93.51,2.26-.38,2.96-.4.25-.85.4-1.24.39h0Zm84.35-12.72c-.34-.36-.83-.52-1.33-.43-13.03,2.7-21.26,8.72-25.86,13.32-4.4,4.39-6.43,8.3-6.89,9.32-.45.45-1.65,1.82-2.91,3.34l.22-16.92c.85-1.11,3.12-4.2,4.1-7.87,2.72,3.72,6.79,5.91,7.04,6.07.2.1.44.16.64.16s.35-.05.54-.1c.4-.15.65-.45.8-.86.1-.31,1.54-4.84,1.06-9.39,3.82,2.3,8.46,2.77,8.76,2.77h.1c.35,0,.69-.14.99-.39.25-.3.4-.71.41-1.12,0-.31-.33-5.06-2.5-9.08.74.06,1.48.12,2.17.13,3.61.05,6.73-.94,6.93-1.04.4-.1.75-.4.9-.81.15-.36.16-.82-.03-1.18-.14-.26-2.16-4.58-5.69-7.43,4.31-1.17,7.86-4.19,8.11-4.39.3-.3.5-.66.51-1.12,0-.41-.19-.82-.48-1.08-.24-.21-3.71-3.32-7.99-4.6,3.54-2.77,5.72-7.03,5.87-7.29.15-.36.21-.82.02-1.23-.14-.36-.44-.67-.83-.83-.25-.05-4.67-1.59-9.08-1.09,2.27-3.96,2.68-8.71,2.73-9.01,0-.46-.14-.87-.43-1.13-.24-.31-.64-.47-1.08-.47-.25.05-4.9.35-8.78,2.6.6-4.54-.72-9.16-.82-9.42-.14-.41-.44-.72-.78-.88-.39-.21-.79-.16-1.19-.02-.25.15-4.43,2.29-7.19,5.89-1.08-4.46-4.05-8.13-4.24-8.39-.24-.31-.64-.52-1.03-.52-.44,0-.79.19-1.09.5-.2.25-3.21,3.84-4.45,8.27-2.67-3.66-6.79-5.91-7.04-6.07-.34-.16-.79-.21-1.14-.01-.4.15-.7.45-.8.86-.1.25-1.59,4.84-1.11,9.39-3.82-2.35-8.41-2.77-8.71-2.82-.4,0-.79.14-1.09.45-.3.25-.45.66-.46,1.12.05.31.33,5.06,2.5,9.08-4.39-.62-8.81.81-9.1.85-.4.15-.7.45-.85.81-.15.41-.16.87.03,1.23.1.26,2.16,4.58,5.64,7.43-4.31,1.12-7.86,4.19-8.11,4.39-.3.25-.45.66-.46,1.07,0,.46.14.82.43,1.13.24.21,3.71,3.32,7.99,4.6-3.54,2.77-5.72,7.03-5.82,7.29-.2.36-.21.82-.06,1.17.14.41.44.72.83.83.25.11,3.34,1.17,6.9,1.21.74,0,1.43.02,2.17-.07-2.27,3.96-2.68,8.71-2.73,9.01,0,.41.14.82.43,1.13.24.31.59.42.98.42h.1c.25,0,4.9-.34,8.78-2.54-.6,4.54.72,9.11.82,9.42.14.41.44.72.78.88.2.05.34.11.54.11.25,0,.45-.05.64-.15.25-.15,4.43-2.24,7.19-5.89.89,3.69,3.07,6.84,3.9,7.97l-.22,16.92c-1.17-1.55-2.38-2.94-2.77-3.41-.48-1.03-2.41-4.99-6.7-9.49-4.49-4.71-12.56-10.95-25.51-13.97-.49-.11-.99.04-1.34.39-.3.41-.46.91-.31,1.43.05.21,1.47,5.03,6.24,10.35,4.24,4.86,12.16,11.09,25.72,13.41.88,1.08,3.46,4.13,4.62,6.09l-.03,2.5c0,.77.62,1.44,1.36,1.45.79.01,1.44-.65,1.45-1.41l.03-2.5c1.21-1.93,3.87-4.91,4.77-5.97,13.56-1.97,21.64-8,26.05-12.75,4.86-5.2,6.4-9.99,6.5-10.19.15-.51.06-1.02-.28-1.43h0Zm-68.05,8.99c-2.29-2.64-3.79-5.11-4.66-6.86,10.68,3.05,17.43,8.35,21.33,12.39,2.39,2.43,3.99,4.75,4.96,6.4-11.18-2.49-17.88-7.79-21.64-11.93h0Zm42.22-5.7c-.74-.47-1.67-1.15-2.54-2.03-1.61-1.5-3.51-3.78-3.77-6.39,1.88-.49,3.62-1.23,5.27-2.18,2.28,3.05,1.63,7.99,1.05,10.59h0Zm7.36-7.88c-2.07-.74-4.62-2.15-5.82-4.47,1.5-1.16,2.85-2.52,4.05-4.09,3.24,1.88,4.46,6.75,4.87,9.42-.84-.16-1.97-.43-3.1-.86h0Zm10.21-9.84c-.84.19-1.98.38-3.22.47-2.18.13-5.04-.12-6.99-1.83.96-1.67,1.67-3.45,2.24-5.34,3.7.46,6.61,4.43,7.97,6.7h0Zm2.58-12.64c-.7.5-1.69,1.1-2.79,1.65-1.94,1-4.72,1.93-7.13,1.14.11-.97.17-1.94.19-2.91s-.02-1.99-.11-2.91c3.57-1.03,7.74,1.48,9.84,3.04h0Zm-2.26-12.71c-.5.76-1.16,1.72-1.96,2.63-1.45,1.67-3.65,3.63-6.18,3.86-.47-1.9-1.19-3.7-2.1-5.39,2.9-2.42,7.73-1.69,10.24-1.1h0Zm-6.83-10.87c-.16.92-.42,2.09-.83,3.31-.72,2.09-2.04,4.73-4.28,5.98-1.17-1.55-2.48-2.95-3.95-4.19,1.82-3.35,6.53-4.62,9.06-5.1h0Zm-10.28-7.29c.51,2.61,1.04,7.63-1.32,10.56-1.62-.99-3.34-1.78-5.21-2.32.44-3.83,4.34-6.85,6.53-8.25h0Zm-12.22-2.71c1.45,2.27,3.77,6.64,2.68,10.31-.94-.11-1.87-.23-2.81-.24-.99-.01-1.93.08-2.87.17-.99-3.69,1.49-8.01,3-10.24h0Zm-12.33,2.4c2.2,1.46,5.97,4.57,6.32,8.41-1.83.49-3.62,1.23-5.27,2.18-2.28-2.99-1.63-7.99-1.05-10.59h0Zm-7.27,7.93c2.02.74,4.57,2.1,5.72,4.42-1.5,1.21-2.85,2.57-4.01,4.09-3.29-1.88-4.51-6.75-4.92-9.42.89.22,2.02.49,3.2.91h0Zm-10.3,9.78c.89-.19,1.98-.38,3.22-.42,2.18-.13,5.09.12,7.04,1.78-.96,1.67-1.72,3.45-2.24,5.39-3.7-.46-6.61-4.48-8.02-6.75h0Zm-2.58,12.64c2.14-1.51,6.37-3.91,9.97-2.79-.16.97-.22,1.94-.23,2.91s.02,1.99.16,2.92c-3.62,1.08-7.79-1.48-9.89-3.04h0Zm2.26,12.71c.5-.76,1.16-1.67,2.01-2.63,1.45-1.67,3.65-3.63,6.18-3.86.47,1.9,1.19,3.75,2.1,5.45-2.95,2.36-7.73,1.69-10.29,1.04h0Zm6.83,10.87c.16-.92.42-2.04.83-3.26.72-2.09,2.04-4.78,4.33-6.03,1.12,1.6,2.43,3,3.9,4.19-1.77,3.4-6.48,4.62-9.06,5.1h0Zm10.28,7.34c-.51-2.66-1.04-7.63,1.32-10.62,1.62.99,3.39,1.78,5.21,2.32-.44,3.83-4.29,6.85-6.53,8.3h0Zm-6.82-30.76c.14-11.14,9-20.08,19.77-19.94,10.77.14,19.4,9.3,19.25,20.44-.14,11.14-9,20.08-19.77,19.94-10.77-.14-19.4-9.3-19.25-20.44h0Zm19.09,33.42c-.48-.77-1.11-1.75-1.64-2.88-.91-2.06-1.82-4.88-1.04-7.43.89.16,1.83.23,2.81.24s1.88-.03,2.82-.17c.99,3.74-1.44,8.06-2.95,10.24h0Zm29.79,4.06c-3.81,4.04-10.64,9.17-21.93,11.37,2.92-4.51,10.7-13.97,26.76-18.11-.91,1.73-2.42,4.16-4.83,6.74h0Zm-15.61-46.36c-.44-.67-1.32-.89-1.97-.43-.65.4-.81,1.32-.42,1.99,3.49,5.57,2.65,12.97-1.91,17.61-4.61,4.64-11.78,5.27-17.07,1.57-.64-.47-1.53-.28-1.98.38-.4.66-.27,1.58.37,2,2.74,1.93,5.84,2.89,8.95,2.93,4.25.05,8.47-1.58,11.67-4.81,5.51-5.6,6.51-14.54,2.35-21.23h0Zm-4.58-4.86c-6.37-4.48-15.02-3.72-20.58,1.88-5.56,5.6-6.56,14.54-2.35,21.29.24.41.68.62,1.13.63.3,0,.54-.04.79-.25.65-.4.86-1.32.42-1.99-3.49-5.57-2.65-12.97,1.95-17.61,4.61-4.64,11.78-5.27,17.07-1.57.64.47,1.48.27,1.93-.38s.27-1.53-.37-2h0Zm-10.16,90.96c-39.87-.51-71.84-34.45-71.32-75.64s33.36-74.36,73.23-73.85c39.82.51,71.79,34.45,71.27,75.7-.53,41.19-33.36,74.3-73.18,73.79h0Zm1.86-145.3c-37.59-.48-68.63,30.81-69.13,69.71-.5,38.89,29.73,70.92,67.32,71.4,37.59.48,68.58-30.76,69.08-69.66.5-38.89-29.68-70.97-67.27-71.45h0Zm30.1,91.88c-.01,1.12-.92,2.03-2,2.02s-1.96-.95-1.95-2.07.92-2.08,2-2.07,1.96.95,1.95,2.12h0Zm12.01-8.08c-.01,1.12-.92,2.03-2.05,2.02s-1.96-.95-1.95-2.07.92-2.03,2-2.02,2.01.95,2,2.07h0Zm-69.51,7.34c-.01,1.12-.92,2.03-2,2.02-1.09-.01-1.96-.95-1.95-2.07s.92-2.08,2-2.07,1.96.95,1.95,2.12h0Zm-11.75-8.38c-.01,1.12-.92,2.03-2.05,2.02s-1.96-.95-1.95-2.07.92-2.03,2-2.02,2.01.95,2,2.07h0Zm-1.65,28.91c-.02,1.18-.92,2.03-2,2.02s-1.96-.89-1.95-2.07.92-2.03,2-2.02,1.96.95,1.95,2.07h0Zm83.87,1.94c-.01,1.12-.92,2.03-2,2.02s-1.96-.95-1.95-2.07.92-2.03,2-2.02,1.96.95,1.95,2.07h0Zm-.24-85.42c-.02,1.18-.92,2.08-2.05,2.07s-1.96-.95-1.95-2.12.92-2.03,2-2.02,2.01.95,2,2.07h0Zm-81.25-2.11c-.01,1.12-.92,2.03-2.05,2.02s-1.96-.95-1.95-2.07.92-2.03,2-2.02,2.01.95,2,2.07h0Zm11.73,10.37c-.01,1.12-.92,2.03-2,2.02s-1.96-.95-1.95-2.07.92-2.08,2-2.07,1.96.95,1.95,2.12h0Zm-11.96,8.03c-.01,1.12-.92,2.03-2.05,2.02s-1.96-.95-1.95-2.07.92-2.03,2-2.02,2.01.95,2,2.07h0Zm69.46-7.29c-.01,1.12-.92,2.03-2,2.02s-1.96-.95-1.95-2.07.92-2.08,2-2.07,1.96.95,1.95,2.12h0Zm11.8,8.33c-.01,1.12-.92,2.03-2.05,2.02s-1.96-.95-1.95-2.07.92-2.03,2-2.02,2.01.95,2,2.07h0Z"/>
    </g>
  </g>
</svg>