<?xml version="1.0" encoding="UTF-8"?>
<svg id="Capa_2" data-name="Capa 2" xmlns="http://www.w3.org/2000/svg" xmlns:xlink="http://www.w3.org/1999/xlink" viewBox="0 0 330 300">
  <defs>
    <style>
      .cls-1 {
        fill: #eef0f6;
        filter: url(#drop-shadow-1);
        stroke-width: 0px;
      }

      .cls-2 {
        fill: url(#Degradado_sin_nombre_107);
        fill-rule: evenodd;
      }
    </style>
    <filter id="drop-shadow-1" filterUnits="userSpaceOnUse">
      <feOffset dx="0" dy="0"/>
      <feGaussianBlur result="blur" stdDeviation="5"/>
      <feFlood flood-color="#000" flood-opacity=".2"/>
      <feComposite in2="blur" operator="in"/>
      <feComposite in="SourceGraphic"/>
    </filter>
    <linearGradient id="Degradado_sin_nombre_107" data-name="Degradado sin nombre 107" x1="180.17" y1="103.77" x2="106.06" y2="232.13" gradientUnits="userSpaceOnUse">
      <stop offset="0" stop-color="#e38520"/>
      <stop offset=".11" stop-color="#e27825"/>
      <stop offset="1" stop-color="#dc1a4d"/>
    </linearGradient>
  </defs>
  <g id="Capa_1-2" data-name="Capa 1">
    <g>
      <path class="cls-1" d="m80.74,15.49c14.8,6.5,230.97,111.59,234.18,113.36-25.12,44.37-39.47,95.63-39.47,150.26,0,1.9.04,3.79.07,5.68H15.69c-.02-1.9-.07-3.78-.07-5.68,0-95.21,23.55-184.91,65.12-263.61Z"/>
      <path class="cls-2" d="m188.43,203.88c-.59,0-1.08-.36-1.28-.92l-3.79-11.82c-.2-.66.15-1.43.84-1.69.69-.26,1.43.15,1.67.87l3.79,11.77c.2.72-.15,1.48-.84,1.74-.15.05-.3.05-.39.05h0Zm-6.3-19.54c-.54,0-1.03-.36-1.23-.92l-3.79-11.77c-.2-.72.15-1.48.84-1.74.69-.2,1.43.15,1.62.87l3.79,11.82c.25.72-.15,1.48-.79,1.69-.15.05-.3.05-.44.05h0Zm2.41,2.56c0,.67-.54,1.28-1.23,1.28s-1.23-.61-1.23-1.28c0-.72.54-1.33,1.23-1.33s1.23.61,1.23,1.33h0Zm-7.19,38.62c-.59,0-1.08-.36-1.28-.92l-3.79-11.82c-.2-.72.15-1.48.84-1.69.69-.26,1.43.15,1.67.87l3.79,11.77c.2.72-.15,1.48-.84,1.69-.15.05-.3.1-.39.1h0Zm-6.3-19.54c-.54,0-1.03-.36-1.23-.92l-3.79-11.77c-.2-.72.15-1.48.84-1.74.69-.2,1.43.15,1.62.87l3.79,11.77c.25.72-.15,1.48-.79,1.74-.15.05-.3.05-.44.05h0Zm2.41,2.51c0,.72-.54,1.28-1.23,1.28s-1.23-.56-1.23-1.28.54-1.28,1.23-1.28,1.23.56,1.23,1.28h0Zm-55.63-60.26c-.59,0-1.08-.36-1.23-.92l-3.79-11.77c-.25-.72.1-1.48.79-1.74.69-.2,1.43.15,1.67.87l3.79,11.82c.2.66-.15,1.43-.84,1.69-.15.05-.3.05-.39.05h0Zm-6.3-19.49c-.54,0-1.03-.36-1.23-.92l-3.79-11.82c-.2-.72.15-1.48.84-1.69.69-.26,1.43.1,1.67.82l3.74,11.82c.25.72-.1,1.48-.79,1.69-.15.05-.3.1-.44.1h0Zm2.46,2.51c0,.72-.59,1.28-1.28,1.28s-1.23-.56-1.23-1.28.54-1.28,1.23-1.28,1.28.56,1.28,1.28h0Zm-7.24,38.62c-.59,0-1.08-.36-1.23-.92l-3.79-11.82c-.25-.67.1-1.43.79-1.69.69-.26,1.43.15,1.67.87l3.79,11.77c.2.72-.15,1.48-.84,1.74-.15.05-.3.05-.39.05h0Zm-6.3-19.54c-.54,0-1.03-.36-1.23-.92l-3.79-11.77c-.2-.72.15-1.48.84-1.74.69-.2,1.43.15,1.67.87l3.74,11.82c.25.72-.1,1.48-.79,1.69-.15.05-.3.05-.44.05h0Zm2.46,2.56c0,.67-.59,1.28-1.28,1.28s-1.23-.61-1.23-1.28c0-.72.54-1.33,1.23-1.33s1.28.61,1.28,1.33h0Zm100.92,17.19c-1.13,0-2.02-.97-2.02-2.15v-1.53c-.84-33.35-26.63-59.45-58.73-59.45-7.93,0-15.65,1.64-22.94,4.81-.79.36-1.58.77-2.36,1.13-1.03.51-2.22.05-2.71-.97s-.05-2.3.94-2.81c.84-.41,1.72-.82,2.56-1.18,7.78-3.43,16.05-5.17,24.52-5.17,16.49,0,32.05,6.6,43.86,18.52,11.77,11.97,18.46,27.93,18.9,45.02v1.64c0,1.18-.89,2.15-2.02,2.15h0Zm-60.75,63.08c-33.13,0-60.65-26.91-62.62-61.24-.05-1.18.79-2.2,1.92-2.25,1.13-.05,2.07.82,2.12,2,1.87,32.13,27.57,57.3,58.58,57.3,6.74,0,13.34-1.18,19.59-3.48,1.08-.41,2.22.2,2.61,1.28.34,1.07-.2,2.3-1.23,2.66-6.74,2.51-13.78,3.73-20.97,3.73h0Zm44.8-91.88c0,1.02-.79,1.79-1.77,1.79s-1.72-.77-1.72-1.79.79-1.79,1.72-1.79c.98,0,1.77.77,1.77,1.79h0Zm-86.05,53.36c0,1.02-.79,1.79-1.77,1.79s-1.72-.77-1.72-1.79.79-1.79,1.72-1.79c.98,0,1.77.77,1.77,1.79h0Zm47.26-36.48c-2.26,0-4.38.97-5.86,2.61-1.53-1.64-3.64-2.61-5.91-2.61-4.48,0-8.12,3.79-8.12,8.44,0,2.51,1.08,4.86,2.95,6.5h0l9.99,8.24c.3.26.69.36,1.08.36s.74-.1,1.08-.36l10.39-8.65.15-.1c1.53-1.59,2.36-3.73,2.36-5.99,0-4.66-3.64-8.44-8.12-8.44h0Zm3.35,11.77l-9.21,7.67-8.86-7.32c-1.08-.92-1.67-2.25-1.67-3.68,0-2.66,2.07-4.81,4.63-4.81,1.87,0,3.54,1.18,4.28,2.97.25.72.89,1.13,1.62,1.13.69,0,1.33-.41,1.62-1.13.69-1.79,2.36-2.97,4.23-2.97,2.56,0,4.63,2.15,4.63,4.81,0,1.28-.44,2.46-1.28,3.33h0Zm-31.7,2.05c-.2-1.02-1.08-1.64-2.02-1.48-.98.2-1.58,1.13-1.43,2.1v.05c.15.87.89,1.48,1.72,1.48.1,0,.2,0,.3-.05.98-.15,1.58-1.13,1.43-2.1h0Zm4.48-21.64c-.74-.61-1.82-.51-2.46.26,0,0,0,.05-.05.05-.59.77-.44,1.89.3,2.56.34.26.69.36,1.08.36.49,0,1.03-.2,1.38-.67.59-.77.49-1.89-.25-2.56h0Zm-3.15,4.4c-.84-.51-1.92-.15-2.36.77l-.05.05c-.39.87-.05,2,.84,2.4.25.15.49.2.74.2.64,0,1.28-.36,1.58-1.02.44-.87.1-1.94-.74-2.4h0Zm-3.3,10.28c-.98-.05-1.82.72-1.87,1.69v.1c-.05.97.74,1.84,1.72,1.84h.05c.94,0,1.67-.77,1.72-1.74.05-.97-.69-1.84-1.62-1.89h0Zm1.08-5.32c-.94-.26-1.87.31-2.12,1.28-.05,0-.05.05-.05.05-.2.97.34,1.94,1.28,2.2.15,0,.3.05.44.05.79,0,1.48-.56,1.67-1.38.25-.97-.3-1.94-1.23-2.2h0Zm9.35-12.94c-.64-.77-1.72-.92-2.46-.26l1.08,1.38-1.08-1.38c-.79.61-.89,1.74-.3,2.56.34.41.84.67,1.38.67.39,0,.74-.15,1.08-.41h0c.79-.67.89-1.79.3-2.56h0Zm9.65-4.14c-.2-.97-1.13-1.59-2.07-1.33h-.05c-.94.26-1.53,1.23-1.28,2.2.2.82.94,1.38,1.67,1.38.15,0,.3,0,.44-.05.94-.26,1.53-1.23,1.28-2.2h0Zm-5.02,1.53c-.44-.92-1.53-1.28-2.36-.82h0c-.89.46-1.23,1.53-.79,2.46.3.61.94.97,1.58.97.25,0,.54-.05.79-.2.84-.41,1.18-1.53.79-2.4h0Zm31.7,34.58c-.84-.46-1.92-.15-2.36.72l-.05.05c-.44.87-.15,2,.69,2.46.3.15.59.2.84.2.64,0,1.23-.31,1.58-.92l-1.53-.92,1.53.92c.44-.87.15-2-.69-2.51h0Zm2.36-10.59c-.98-.1-1.82.67-1.92,1.64v.1c-.05.97.69,1.84,1.62,1.89h.15c.89,0,1.67-.72,1.72-1.69.1-.97-.64-1.84-1.58-1.94h0Zm1.58-3.94v-.1c-.2-.97-1.13-1.59-2.07-1.38-.94.2-1.53,1.18-1.38,2.15.2.87.94,1.48,1.72,1.48.1,0,.25,0,.34-.05.94-.15,1.58-1.13,1.38-2.1h0Zm-2.22,9.36c-.94-.31-1.92.26-2.22,1.23-.25.97.25,2,1.18,2.25.15.05.34.1.49.1.79,0,1.48-.51,1.67-1.28l.05-.05c.25-.92-.25-1.94-1.18-2.25h0Zm-4.48,9.87c-.69-.66-1.82-.61-2.46.1q0,.05-.05.05c-.59.77-.54,1.94.2,2.56.34.31.74.46,1.13.46.49,0,.98-.2,1.33-.61.64-.77.59-1.89-.15-2.56h0Zm-.94,1.53l-.2-.2.2.2h0Zm-11.96,7.52c-.2-.97-1.08-1.64-2.07-1.43-.94.2-1.53,1.18-1.38,2.15.2.87.94,1.48,1.72,1.48.15,0,.25-.05.34-.05h.05c.94-.2,1.58-1.18,1.33-2.15h0Zm9.26-5.12c-.54-.82-1.67-.97-2.46-.36-.74.56-.94,1.69-.34,2.51.34.51.89.77,1.43.77.34,0,.69-.15,1.03-.36v-.05c.79-.56.94-1.69.34-2.51h0Zm-4.33,3.07c-.39-.92-1.43-1.33-2.31-.92-.89.41-1.28,1.48-.94,2.4.3.67.94,1.07,1.62,1.07.25,0,.49-.05.69-.15h.05c.89-.41,1.28-1.48.89-2.4h0Zm31.31-45.02c-.94,0-1.72.82-1.72,1.79v12.18h-6.5c-.44,0-.84-.36-.84-.87v-14.53c0-.51.39-.87.84-.87h1.67c.98,0,1.77-.82,1.77-1.84s-.79-1.84-1.77-1.84h-1.67c-1.82,0-3.35,1.18-3.99,2.86-2.76-.05-5.32-1.28-7.04-3.48l-4.38-5.47c-2.41-3.02-6.01-4.76-9.8-4.76h-18.26c-2.95,0-5.37,2.51-5.37,5.63s2.41,5.63,5.37,5.63h7.48c.98,0,1.77-.82,1.77-1.84s-.79-1.79-1.77-1.79h-7.48c-1.03,0-1.87-.92-1.87-2s.84-2,1.87-2h18.26c2.76,0,5.37,1.28,7.09,3.48l4.38,5.42c2.36,2.97,5.76,4.66,9.4,4.76v10.74h-6.45c-3.15,0-6.15-1.23-8.47-3.53l-9.4-9.46c-.69-.67-.69-1.79-.1-2.51.64-.72,1.77-.77,2.46-.1l7.38,7.06c.74.66,1.82.61,2.46-.1.69-.77.64-1.89-.1-2.56l-7.38-7.06c-2.12-2.05-5.42-1.89-7.38.31-1.87,2.15-1.82,5.52.25,7.57l9.4,9.46c2.95,2.97,6.79,4.55,10.88,4.55h6.79c.69,1.64,2.22,2.76,3.99,2.76h8.27c.94,0,1.72-.82,1.72-1.79v-14.02c0-1.02-.79-1.79-1.77-1.79h0Zm-34.31,50.65h-6.79c-.98,0-1.77.82-1.77,1.84s.79,1.79,1.77,1.79h6.79c1.03,0,1.87.92,1.87,2s-.84,2-1.87,2h-18.31c-2.71,0-5.32-1.28-7.04-3.48l-4.38-5.47c-2.36-2.92-5.76-4.6-9.4-4.71v-10.74h6.45c3.15,0,6.15,1.23,8.47,3.53l9.4,9.46c.69.67.69,1.79.05,2.51-.64.72-1.72.77-2.41.1l-7.38-7.06c-.74-.67-1.82-.61-2.46.1-.69.72-.64,1.89.1,2.56l7.38,7.06c.98.97,2.26,1.43,3.54,1.43,1.38,0,2.81-.61,3.79-1.74,1.92-2.15,1.82-5.52-.2-7.57l-9.4-9.46c-2.95-2.97-6.84-4.55-10.93-4.55h-6.74c-.69-1.64-2.22-2.76-4.04-2.76h-8.22c-.94,0-1.72.82-1.72,1.79v13.3c0,1.02.79,1.79,1.72,1.79.98,0,1.77-.77,1.77-1.79v-11.46h6.45c.49,0,.84.36.84.87v14.53c0,.51-.34.87-.84.87h-1.82c-.94,0-1.72.82-1.72,1.84s.79,1.79,1.72,1.79h1.82c1.82,0,3.4-1.13,4.04-2.81,2.71.05,5.27,1.28,7.04,3.48l4.38,5.42c2.41,3.07,5.96,4.81,9.75,4.81h18.26c3,0,5.42-2.56,5.42-5.63s-2.41-5.63-5.37-5.63h0Zm-8.71,46.71c-39.68,0-71.97-33.56-71.97-74.79s32.29-74.84,71.97-74.84,72.02,33.56,72.02,74.84-32.29,74.79-72.02,74.79h0Zm0-145.44c-37.46,0-67.94,31.67-67.94,70.65s30.47,70.6,67.94,70.6,67.99-31.67,67.99-70.6-30.47-70.65-67.99-70.65h0Z"/>
    </g>
  </g>
</svg>