<?xml version="1.0" encoding="UTF-8"?>
<svg id="Capa_2" data-name="Capa 2" xmlns="http://www.w3.org/2000/svg" xmlns:xlink="http://www.w3.org/1999/xlink" viewBox="0 0 330 300">
  <defs>
    <style>
      .cls-1 {
        fill: #eef0f6;
        filter: url(#drop-shadow-1);
        stroke-width: 0px;
      }

      .cls-2 {
        fill: url(#Degradado_sin_nombre_107);
        fill-rule: evenodd;
      }
    </style>
    <filter id="drop-shadow-1" filterUnits="userSpaceOnUse">
      <feOffset dx="0" dy="0"/>
      <feGaussianBlur result="blur" stdDeviation="5"/>
      <feFlood flood-color="#000" flood-opacity=".2"/>
      <feComposite in2="blur" operator="in"/>
      <feComposite in="SourceGraphic"/>
    </filter>
    <linearGradient id="Degradado_sin_nombre_107" data-name="Degradado sin nombre 107" x1="114.23" y1="67.11" x2="188" y2="194.89" gradientUnits="userSpaceOnUse">
      <stop offset="0" stop-color="#e38520"/>
      <stop offset=".11" stop-color="#e27825"/>
      <stop offset="1" stop-color="#dc1a4d"/>
    </linearGradient>
  </defs>
  <g id="Capa_1-2" data-name="Capa 1">
    <g>
      <path class="cls-1" d="m80.74,284.33c14.8-6.5,230.97-111.59,234.18-113.36-25.12-44.37-39.47-95.63-39.47-150.26,0-1.9.04-3.79.07-5.68H15.69c-.02,1.9-.07,3.78-.07,5.68,0,95.21,23.55,184.91,65.12,263.61Z"/>
      <path class="cls-2" d="m190.15,83.16c-1.67,0-3.28.56-4.66,1.53-1.37-.97-2.99-1.53-4.66-1.53-4.61,0-8.33,4.02-8.33,8.96,0,7.38,10.83,13.75,12.06,14.46.29.15.59.25.93.25s.64-.1.93-.25c1.27-.71,12.06-7.08,12.06-14.46,0-4.94-3.72-8.96-8.33-8.96h0Zm-4.66,19.25c-3.82-2.39-9.07-6.82-9.07-10.29,0-2.7,1.96-4.89,4.41-4.89,1.23,0,2.35.56,3.19,1.53.39.41.93.66,1.47.66s1.08-.25,1.47-.66c.83-.97,1.96-1.53,3.19-1.53,2.4,0,4.41,2.19,4.41,4.89,0,3.46-5.19,7.89-9.07,10.29h0Zm-.25,57.34c-1.67,0-3.28.51-4.66,1.48-1.37-.97-2.99-1.48-4.66-1.48-4.61,0-8.33,3.97-8.33,8.91,0,7.44,10.83,13.8,12.06,14.46.29.2.64.25.93.25.34,0,.64-.05.93-.25,1.27-.66,12.1-7.03,12.1-14.46-.05-4.94-3.77-8.91-8.38-8.91h0Zm-4.66,19.25c-3.82-2.39-9.07-6.82-9.07-10.34,0-2.65,2.01-4.84,4.41-4.84,1.23,0,2.35.51,3.23,1.48.34.46.88.66,1.42.66s1.08-.2,1.47-.66c.83-.97,1.96-1.48,3.19-1.48,2.45,0,4.41,2.19,4.41,4.84,0,3.51-5.19,7.94-9.07,10.34h0Zm-62.14-84.53c-1.62,0-3.23.56-4.61,1.53-1.37-.97-2.99-1.53-4.66-1.53-4.61,0-8.38,4.02-8.38,8.96,0,7.44,10.83,13.75,12.06,14.46.29.15.64.25.98.25.29,0,.64-.1.93-.25,1.23-.71,12.06-7.03,12.06-14.46,0-4.94-3.77-8.96-8.38-8.96h0Zm-4.61,19.3c-3.87-2.39-9.07-6.87-9.07-10.34,0-2.65,1.96-4.84,4.41-4.84,1.23,0,2.35.51,3.19,1.48.39.41.88.66,1.47.66.54,0,1.08-.25,1.42-.66.88-.97,2.01-1.48,3.19-1.48,2.45,0,4.46,2.19,4.46,4.84,0,3.51-5.24,7.94-9.07,10.34h0Zm79.68,40.03c-.93-.56-2.16-.31-2.74.66h0c-.59.97-.29,2.24.64,2.85.29.2.69.31,1.03.31.64,0,1.27-.36,1.67-.97h0c.59-.97.29-2.24-.59-2.85h0Zm4.02-43.34c-.44-1.07-1.57-1.53-2.6-1.07-.98.41-1.47,1.63-1.03,2.65,2.35,5.75,3.53,11.81,3.53,18.08,0,6.72-1.32,13.19-4.02,19.25-.44,1.02,0,2.24.98,2.7.25.15.54.2.83.2.74,0,1.42-.46,1.76-1.22,2.94-6.57,4.41-13.6,4.41-20.93,0-6.82-1.32-13.44-3.87-19.66h0Zm-34.99-29.49c-3.09-.66-6.22-.97-9.41-.97-8.28,0-16.42,2.19-23.62,6.37-.93.56-1.27,1.83-.74,2.8.34.66,1.03,1.07,1.72,1.07.34,0,.64-.1.98-.31,6.57-3.82,14.06-5.86,21.66-5.86,2.89,0,5.83.31,8.62.87,1.08.25,2.11-.46,2.35-1.58.2-1.12-.49-2.19-1.57-2.39h0Zm5.54,1.37c-1.08-.2-2.11.56-2.25,1.68l-.05.05c-.15,1.07.54,2.14,1.62,2.34.1,0,.25.05.34.05.93,0,1.76-.71,1.96-1.73h0c.15-1.12-.54-2.19-1.62-2.39h0Zm-60.28,37.84c-1.08-.2-2.06.51-2.25,1.63v.05c-.2,1.12.54,2.19,1.57,2.34.15.05.25.05.34.05.93,0,1.76-.71,1.96-1.68v-.05c.2-1.12-.54-2.19-1.62-2.34h0Zm55.77,56.88c-.2-1.12-1.23-1.83-2.25-1.63-2.7.51-5.44.76-8.18.76-24.45,0-44.3-20.68-44.3-46.09v-1.02c0-1.12-.83-2.09-1.91-2.09-1.13-.05-2.01.87-2.01,1.99,0,.36-.05.76-.05,1.12,0,13.39,5.05,26.02,14.16,35.49,9.11,9.47,21.22,14.67,34.11,14.67,2.99,0,5.98-.31,8.87-.87,1.08-.2,1.76-1.27,1.57-2.34h0Zm-2.7-63.04c-2.79,0-5.54,1.02-7.74,2.85-2.21-1.83-4.95-2.85-7.74-2.85-6.96,0-12.64,6.06-12.64,13.55,0,5.09,3.33,10.54,9.9,16.19,4.7,4.02,9.36,6.67,9.56,6.77.29.15.59.25.93.25s.64-.1.93-.25c.2-.1,4.85-2.75,9.51-6.77,6.62-5.65,9.95-11.1,9.95-16.19,0-7.49-5.68-13.55-12.64-13.55h0Zm-7.74,32.39c-5.34-3.26-16.47-11.51-16.47-18.84,0-5.25,3.92-9.47,8.72-9.47,2.4,0,4.61,1.02,6.27,2.95.39.41.93.66,1.47.66s1.08-.25,1.47-.66c1.62-1.94,3.87-2.95,6.27-2.95,4.8,0,8.72,4.23,8.72,9.47,0,7.33-11.12,15.58-16.47,18.84h0Zm0-48.07c-16.91,0-30.63,14.26-30.63,31.78s13.77,31.83,30.63,31.83,30.63-14.26,30.63-31.83-13.72-31.78-30.63-31.78h0Zm0,59.53c-14.7,0-26.71-12.43-26.71-27.7s12.01-27.75,26.71-27.75,26.71,12.43,26.71,27.75-12.01,27.7-26.71,27.7h0Zm-2.06,47.61c-39.5,0-71.65-33.41-71.65-74.5s32.15-74.45,71.65-74.45,71.69,33.41,71.69,74.45-32.15,74.5-71.69,74.5h0Zm0-144.78c-37.29,0-67.63,31.52-67.63,70.28s30.33,70.33,67.63,70.33,67.68-31.57,67.68-70.33-30.33-70.28-67.68-70.28h0Zm19.16,129.6h4.02c.74,0,1.37-.61,1.37-1.37s-.64-1.37-1.37-1.37h-4.02c-.74,0-1.32.61-1.32,1.37s.59,1.37,1.32,1.37h0Zm-9.36,0h4.02c.74,0,1.37-.61,1.37-1.37s-.64-1.37-1.37-1.37h-4.02c-.74,0-1.32.61-1.32,1.37s.59,1.37,1.32,1.37h0Zm6.71,0c-.74,0-1.32.61-1.32,1.37v4.18c0,.76.59,1.43,1.32,1.43s1.32-.66,1.32-1.43v-4.18c0-.76-.59-1.37-1.32-1.37h0Zm0-2.8c.74,0,1.32-.61,1.32-1.37v-4.18c0-.76-.59-1.37-1.32-1.37s-1.32.61-1.32,1.37v4.18c0,.76.59,1.37,1.32,1.37h0Zm-45.23-103.84h4.02c.74,0,1.37-.61,1.37-1.37s-.64-1.37-1.37-1.37h-4.02c-.74,0-1.32.61-1.32,1.37s.59,1.37,1.32,1.37h0Zm-9.36,0h4.02c.74,0,1.37-.61,1.37-1.37s-.64-1.37-1.37-1.37h-4.02c-.74,0-1.32.61-1.32,1.37s.59,1.37,1.32,1.37h0Zm6.71,0c-.74,0-1.32.66-1.32,1.43v4.18c0,.76.59,1.37,1.32,1.37s1.32-.61,1.32-1.37v-4.18c0-.76-.59-1.43-1.32-1.43h0Zm0-2.75c.74,0,1.32-.61,1.32-1.37v-4.18c0-.76-.59-1.43-1.32-1.43s-1.32.66-1.32,1.43v4.18c0,.76.59,1.37,1.32,1.37h0Zm-22.25,50.42c.39.41.88.61,1.37.61.54,0,1.03-.2,1.42-.61.74-.81.74-2.09,0-2.9l-1.42-1.43,1.42-1.43c.74-.81.74-2.09,0-2.9-.78-.81-2.01-.81-2.79,0l-1.37,1.43-1.42-1.43c-.74-.81-2.01-.81-2.74,0-.78.81-.78,2.09,0,2.9l1.37,1.43-1.37,1.43c-.78.81-.78,2.09,0,2.9.34.41.88.61,1.37.61s.98-.2,1.37-.61l1.42-1.43,1.37,1.43h0Zm76.4-53.52c.39.41.88.61,1.37.61.54,0,1.03-.2,1.42-.61.74-.81.74-2.09,0-2.9l-1.42-1.43,1.42-1.43c.74-.81.74-2.09,0-2.9-.78-.81-2.01-.81-2.79,0l-1.37,1.43-1.42-1.43c-.74-.81-2.01-.81-2.74,0-.78.81-.78,2.09,0,2.9l1.37,1.43-1.37,1.43c-.78.81-.78,2.09,0,2.9.39.41.88.61,1.37.61s1.03-.2,1.37-.61l1.42-1.43,1.37,1.43h0Zm-56.11,98.79c0,1.12-.88,2.04-1.96,2.04s-1.96-.92-1.96-2.04.83-2.04,1.96-2.04,1.96.92,1.96,2.04h0Zm94.48-43.59c0,1.17-.88,2.04-1.96,2.04s-1.96-.87-1.96-2.04.88-2.04,1.96-2.04,1.96.92,1.96,2.04h0Z"/>
    </g>
  </g>
</svg>