<?xml version="1.0" encoding="UTF-8"?>
<svg id="Capa_2" data-name="Capa 2" xmlns="http://www.w3.org/2000/svg" xmlns:xlink="http://www.w3.org/1999/xlink" viewBox="0 0 384 358">
  <defs>
    <style>
      .cls-1 {
        fill: #eef0f6;
        filter: url(#drop-shadow-1);
        stroke-width: 0px;
      }

      .cls-2 {
        fill: url(#Degradado_sin_nombre_107);
        fill-rule: evenodd;
      }
    </style>
    <filter id="drop-shadow-1" filterUnits="userSpaceOnUse">
      <feOffset dx="0" dy="0"/>
      <feGaussianBlur result="blur" stdDeviation="5"/>
      <feFlood flood-color="#000" flood-opacity=".2"/>
      <feComposite in2="blur" operator="in"/>
      <feComposite in="SourceGraphic"/>
    </filter>
    <linearGradient id="Degradado_sin_nombre_107" data-name="Degradado sin nombre 107" x1="174.16" y1="106.05" x2="174.16" y2="255.75" gradientUnits="userSpaceOnUse">
      <stop offset="0" stop-color="#e38520"/>
      <stop offset=".11" stop-color="#e27825"/>
      <stop offset="1" stop-color="#dc1a4d"/>
    </linearGradient>
  </defs>
  <g id="Capa_1-2" data-name="Capa 1">
    <g>
      <path class="cls-1" d="m15.74,229.49C62.02,141.88,130.63,67.89,214.01,15.11c18.65,25.17,116.46,160.11,154.16,210.6-49.41,27.36-90.43,68.02-118.25,117.14-3.22-1.77-219.39-106.85-234.18-113.36Z"/>
      <path class="cls-2" d="m181.82,120.44l-5.33-5.58c-.49-.46-1.33-.46-1.83,0l-5.33,5.58c-.4.41-.49,1.02-.25,1.54l5.33,11.52c.2.46.69.77,1.14.77.49,0,.94-.31,1.19-.77l5.33-11.52c.25-.51.15-1.13-.25-1.54h0Zm-2.42,1.23l-3.85,8.24-3.8-8.24,3.8-3.99,3.85,3.99h0Zm34.86,49.3c.54,0,1.04-.36,1.23-.92l3.8-11.78c.2-.72-.15-1.48-.84-1.74-.69-.2-1.43.15-1.68.87l-3.75,11.83c-.25.67.1,1.43.79,1.69.15.05.3.05.44.05h0Zm6.32-17c0,.72-.54,1.28-1.23,1.28s-1.23-.56-1.23-1.28.54-1.28,1.23-1.28,1.23.56,1.23,1.28h0Zm-25.87,4.45c.54,0,1.04-.36,1.23-.92l3.8-11.83c.2-.72-.15-1.48-.84-1.69-.69-.26-1.43.15-1.68.87l-3.75,11.78c-.25.72.1,1.48.79,1.69.15.05.3.1.44.1h0Zm6.22-19.56c.59,0,1.09-.36,1.28-.92l3.8-11.78c.2-.72-.15-1.48-.84-1.74-.69-.2-1.43.15-1.68.87l-3.8,11.83c-.2.67.15,1.43.84,1.69.15.05.3.05.4.05h0Zm.1,2.51c0,.72-.54,1.28-1.23,1.28s-1.28-.56-1.28-1.28.59-1.28,1.28-1.28,1.23.56,1.23,1.28h0Zm-64.14,29.59c-.54,0-1.04-.36-1.23-.92l-3.8-11.78c-.2-.72.15-1.48.84-1.74.69-.2,1.43.15,1.63.87l3.8,11.83c.25.67-.15,1.43-.79,1.69-.15.05-.3.05-.44.05h0Zm-3.85-17c0,.72-.54,1.28-1.23,1.28s-1.23-.56-1.23-1.28.54-1.28,1.23-1.28,1.23.56,1.23,1.28h0Zm21.18,4.45c-.54,0-1.04-.36-1.23-.92l-3.8-11.83c-.2-.72.15-1.48.84-1.69.69-.26,1.43.15,1.68.82l3.75,11.83c.25.72-.1,1.48-.79,1.69-.15.05-.3.1-.44.1h0Zm-6.27-19.56c-.54,0-1.04-.36-1.23-.92l-3.8-11.78c-.2-.72.15-1.48.84-1.74.69-.2,1.43.15,1.68.87l3.75,11.83c.25.67-.1,1.43-.79,1.69-.15.05-.3.05-.44.05h0Zm26.22,105.72c-33.87,0-61.42-28.57-61.42-63.69,0-1.18.89-2.1,2.02-2.1s2.02.92,2.02,2.1c0,32.77,25.73,59.44,57.38,59.44s57.33-26.67,57.33-59.44c0-1.18.94-2.1,2.07-2.1s2.02.92,2.02,2.1c-.05,35.12-27.6,63.69-61.42,63.69h0Zm-17.03-42.65h-4.59c-.15-.97-.3-2-.49-3.02-.1-.56-.49-.97-.94-1.13-.49-.2-1.04-.05-1.43.26-.35.36-.54.92-.44,1.43.3,1.38.49,2.82.64,4.1.05.77.69,1.33,1.38,1.33h5.88c.79,0,1.38-.67,1.38-1.48s-.64-1.48-1.38-1.48h0Zm22.71-54.47c0-2.41-1.93-4.4-4.25-4.4s-4.3,2-4.3,4.4,1.93,4.45,4.3,4.45,4.25-2,4.25-4.45h0Zm-5.68,0c0-.82.64-1.43,1.38-1.43.79,0,1.43.61,1.43,1.43s-.64,1.48-1.43,1.48c-.74,0-1.38-.67-1.38-1.48h0Zm31.21,67.73c0,.82-.59,1.48-1.38,1.48s-1.43-.67-1.43-1.48.64-1.48,1.43-1.48,1.38.67,1.38,1.48h0Zm-5.68,0c0,.82-.59,1.48-1.38,1.48s-1.43-.67-1.43-1.48.64-1.48,1.43-1.48,1.38.67,1.38,1.48h0Zm-5.68,0c0,.82-.64,1.48-1.38,1.48-.79,0-1.43-.67-1.43-1.48s.64-1.48,1.43-1.48c.74,0,1.38.67,1.38,1.48h0Zm-5.68,0c0,.82-.64,1.48-1.38,1.48-.79,0-1.43-.67-1.43-1.48s.64-1.48,1.43-1.48c.74,0,1.38.67,1.38,1.48h0Zm-5.68,0c0,.82-.64,1.48-1.38,1.48-.79,0-1.43-.67-1.43-1.48s.64-1.48,1.43-1.48c.74,0,1.38.67,1.38,1.48h0Zm-5.68,0c0,.82-.64,1.48-1.43,1.48s-1.38-.67-1.38-1.48.59-1.48,1.38-1.48,1.43.67,1.43,1.48h0Zm-5.68,0c0,.82-.64,1.48-1.43,1.48s-1.38-.67-1.38-1.48.59-1.48,1.38-1.48,1.43.67,1.43,1.48h0Zm-5.68,0c0,.82-.64,1.48-1.43,1.48s-1.38-.67-1.38-1.48.59-1.48,1.38-1.48,1.43.67,1.43,1.48h0Zm-5.68,0c0,.82-.64,1.48-1.43,1.48s-1.38-.67-1.38-1.48.59-1.48,1.38-1.48,1.43.67,1.43,1.48h0Zm-5.68,0c0,.82-.64,1.48-1.43,1.48s-1.38-.67-1.38-1.48.59-1.48,1.38-1.48,1.43.67,1.43,1.48h0Zm-5.68,0c0,.82-.64,1.48-1.43,1.48s-1.43-.67-1.43-1.48.64-1.48,1.43-1.48,1.43.67,1.43,1.48h0Zm17.03-47.1c0,.82-.64,1.48-1.43,1.48s-1.38-.67-1.38-1.48.59-1.48,1.38-1.48,1.43.67,1.43,1.48h0Zm9.92,29.44c-2.32,0-4.25,2-4.25,4.4s1.93,4.45,4.25,4.45,4.3-2,4.3-4.45-1.93-4.4-4.3-4.4h0Zm0,5.89c-.74,0-1.38-.67-1.38-1.48,0-.77.64-1.43,1.38-1.43.79,0,1.43.67,1.43,1.43,0,.82-.64,1.48-1.43,1.48h0Zm34.12-30.92c-2.17,0-4.2,1.02-5.53,2.76-5.33-10.03-15.26-16.59-26.27-17.41.99-1.59,2.17-3.07,3.51-4.4,1.23-1.33,2.62-2.51,4.1-3.53.79-.51,1.28-1.43,1.28-2.46s-.49-1.89-1.28-2.46c-1.48-1.02-2.86-2.2-4.1-3.53-1.28-1.28-2.42-2.71-3.41-4.25-.54-.82-1.43-1.33-2.37-1.33-.99,0-1.88.51-2.37,1.33-1.04,1.54-2.17,2.97-3.46,4.25-1.23,1.33-2.62,2.51-4.1,3.53-.79.56-1.28,1.48-1.28,2.46,0,1.02.49,1.95,1.28,2.46,1.48,1.02,2.86,2.25,4.1,3.58,1.33,1.33,2.52,2.76,3.51,4.35-11.01.82-20.94,7.37-26.32,17.41-1.88-2.46-5.14-3.43-8-2.3-2.86,1.13-4.69,3.99-4.59,7.17.15,3.17,2.22,5.89,5.14,6.76,4.59,11.52,4.94,18.58,4.89,21.14-2.52.61-4.3,2.97-4.35,5.68v2.97c0,3.23,2.57,5.89,5.68,5.89h59.65c3.16,0,5.68-2.66,5.68-5.89v-2.97c0-2.71-1.78-5.07-4.35-5.68-.05-2.56.35-9.68,4.89-21.14,3.41-1.02,5.58-4.45,5.09-8.09-.49-3.63-3.51-6.3-7.01-6.3h0Zm-42.46-25.04c1.68-1.13,3.21-2.46,4.59-3.89,1.43-1.43,2.67-3.02,3.75-4.76,1.14,1.69,2.37,3.28,3.8,4.76,1.38,1.43,2.91,2.76,4.54,3.89-1.63,1.13-3.16,2.46-4.54,3.94-1.38,1.43-2.67,3.02-3.75,4.71-1.14-1.69-2.37-3.28-3.8-4.71-1.38-1.48-2.91-2.76-4.59-3.94h0Zm8.34,13.26c11.65,0,22.22,7.07,27.11,18.02-.05.36-.1.72-.1,1.13,0,.82.15,1.64.4,2.41-4.89,6.55-9.58,9.98-12.94,9.37-3.56-.56-7.21-5.99-10.02-14.9,2.37-1.95,3.26-5.22,2.27-8.19-.99-2.97-3.65-4.91-6.72-4.91s-5.68,1.95-6.67,4.91c-.99,2.97-.1,6.25,2.27,8.19-2.81,8.91-6.47,14.34-10.02,14.9-3.36.61-8.05-2.82-12.99-9.37.3-.77.44-1.59.44-2.41,0-.41-.05-.77-.1-1.13,4.89-10.96,15.45-17.97,27.06-18.02h0Zm-4.25,10.29c0-2.41,1.93-4.4,4.25-4.4s4.3,2,4.3,4.4-1.93,4.45-4.3,4.45-4.25-2-4.25-4.45h0Zm-34.07,8.86c0-2.46,1.93-4.4,4.25-4.4s4.25,1.95,4.25,4.4-1.88,4.4-4.25,4.4c-1.14,0-2.22-.46-3.01-1.28-.79-.82-1.23-1.95-1.23-3.12h0Zm71,33.89v2.92c0,1.64-1.28,2.97-2.81,2.97h-59.65c-1.58,0-2.86-1.33-2.86-2.97v-2.92c0-1.64,1.28-2.97,2.86-2.97h59.65c1.53,0,2.81,1.33,2.81,2.97h0Zm-25.58-5.94h-14.17v-5.89c0-4.04,3.16-7.32,7.06-7.32s7.11,3.28,7.11,7.32v5.89h0Zm21.23,0h-18.37v-5.89c0-5.68-4.44-10.29-9.97-10.29s-9.92,4.61-9.92,10.29v5.89h-18.37c.05-2.97-.49-9.93-4.59-20.68,1.48-.26,2.86-1.02,3.95-2.2,3.56,4.66,9.33,10.65,14.96,9.63,5.83-.97,9.78-9.16,12.15-16.43,1.19.36,2.52.36,3.7,0,2.37,7.27,6.27,15.46,12.1,16.43,5.68.97,11.41-4.97,15.01-9.63,1.09,1.18,2.47,1.89,3.95,2.2-4.1,10.75-4.64,17.71-4.59,20.68h0Zm5.78-23.55c-2.37,0-4.25-1.95-4.25-4.4s1.88-4.4,4.25-4.4,4.25,1.95,4.25,4.4-1.93,4.4-4.25,4.4h0Zm-57.97-2.25c.35.15.74.2,1.09.05.35-.15.64-.41.79-.77,1.63-3.63,4.05-6.86,7.06-9.32.44-.36.64-.87.59-1.38-.1-.56-.4-.97-.89-1.18-.49-.2-1.04-.1-1.43.2-3.41,2.82-6.12,6.35-7.9,10.44-.2.36-.2.77-.05,1.13s.4.67.74.82h0Zm-35.06-10.19h2.81c.49,0,.94-.41.94-.92,0-.56-.44-.97-.94-.97h-2.81c-.54,0-.94.41-.94.97,0,.51.4.92.94.92h0Zm-6.57,0h2.81c.54,0,.94-.41.94-.92,0-.56-.4-.97-.94-.97h-2.81c-.49,0-.94.41-.94.97,0,.51.44.92.94.92h0Zm4.69,0c-.49,0-.94.46-.94.97v2.92c0,.56.44.97.94.97.54,0,.94-.41.94-.97v-2.92c0-.51-.4-.97-.94-.97h0Zm0-1.89c.54,0,.94-.46.94-.97v-2.92c0-.56-.4-.97-.94-.97-.49,0-.94.41-.94.97v2.92c0,.51.44.97.94.97h0Zm120.58,1.89h2.81c.54,0,.94-.41.94-.92,0-.56-.4-.97-.94-.97h-2.81c-.49,0-.94.41-.94.97,0,.51.44.92.94.92h0Zm-6.57,0h2.81c.54,0,.94-.41.94-.92,0-.56-.4-.97-.94-.97h-2.81c-.49,0-.94.41-.94.97.05.51.44.92.94.92h0Zm4.69,0c-.49,0-.94.46-.94.97v2.92c0,.56.44.97.94.97.54,0,.94-.41.94-.97v-2.92c0-.51-.4-.97-.94-.97h0Zm0-1.89c.54,0,.94-.46.94-.97v-2.92c0-.56-.4-.97-.94-.97-.49,0-.94.41-.94.97v2.92c0,.51.44.97.94.97h0Zm-59.3,85.81c-39.8,0-72.19-33.59-72.19-74.85s32.39-74.85,72.19-74.85,72.19,33.59,72.19,74.85-32.39,74.85-72.19,74.85h0Zm0-145.5c-37.58,0-68.14,31.69-68.14,70.65s30.56,70.65,68.14,70.65,68.09-31.69,68.09-70.65-30.56-70.65-68.09-70.65h0Zm-23.8,31.13c0,.72-.54,1.28-1.23,1.28s-1.23-.56-1.23-1.28.54-1.28,1.23-1.28,1.23.56,1.23,1.28h0Z"/>
    </g>
  </g>
</svg>