<?xml version="1.0" encoding="UTF-8"?>
<svg id="Capa_2" data-name="Capa 2" xmlns="http://www.w3.org/2000/svg" viewBox="0 0 389.85 92.2">
  <defs>
    <style>
      .cls-1 {
        fill: #333988;
        stroke-width: 0px;
      }
    </style>
  </defs>
  <g id="Capa_1-2" data-name="Capa 1">
    <g>
      <g>
        <path class="cls-1" d="m59.82,76.43c11.78,9.03,24.14,10.28,37.18,2.93-2.72,3.97-14.84,7.42-23.74,5-6.46-1.75-13.31-5.53-13.44-7.93Z"/>
        <path class="cls-1" d="m67.62,13.31c.38-2.85,9.06-6.87,15.81-7.58,7.36-.77,20.27,3.19,21.68,7.12-12.77-8.12-25.2-8.29-37.49.46Z"/>
        <path class="cls-1" d="m100.69,19.62c-9.61-5.51-19.09-6.11-28.68.84,2.92-7.49,22.57-7.93,28.68-.84Z"/>
        <path class="cls-1" d="m92.97,72.06c-4.91,6.71-24.41,5.25-28.29-2.16,9.02,6.48,18.4,7.73,28.29,2.16Z"/>
      </g>
      <g>
        <g>
          <path class="cls-1" d="m54.13,57.91l.55.63c-6.16,6.63-14.5,9.95-25.03,9.95-6.16,0-11.58-1.51-16.27-4.54-4.69-3.03-8.13-7.13-10.34-12.32C.83,46.45.12,40.75.91,34.54c.84-6.58,3.18-12.49,7.03-17.73,3.84-5.24,8.59-9.25,14.25-12.04C27.85,1.98,33.81.58,40.08.58c9.32,0,16.74,3.32,22.27,9.95l-.79.63c-2.47-3.05-5.58-5.43-9.32-7.15-3.74-1.71-7.84-2.57-12.32-2.57-6.05,0-11.84,1.4-17.37,4.18-5.53,2.79-10.17,6.74-13.94,11.84-3.76,5.11-6.04,10.79-6.83,17.06-1.21,9.21.88,17.03,6.28,23.45,5.4,6.42,12.65,9.63,21.75,9.63,10.21,0,18.32-3.24,24.32-9.71Z"/>
          <path class="cls-1" d="m53.75,58.26l.55.63-.04-.81c-6.73,7.17-16.26,10.16-25.95,9.81-10.48-.37-20.05-6.09-24.47-15.74C-.79,42.01.83,29.54,6.47,20.13,11.99,10.92,21.23,4.33,31.72,2.06c5.68-1.23,11.84-1.35,17.45.31,5.07,1.5,9.4,4.48,12.79,8.51l-.04-.81-.79.63.8.11C54.57,1.87,42.5-.67,31.52,1.77,20.82,4.15,11.39,11.05,5.87,20.52.65,29.48-.95,41.37,3.17,51.06c3.76,8.82,11.74,15.19,21.2,16.72,10.86,1.75,22.56-1.28,30.18-9.4.47-.5-.38-1.41-.85-.92-6.53,6.97-15.73,9.88-25.14,9.58-4.69-.15-9.38-1.24-13.44-3.65s-7.24-5.81-9.52-9.79c-5.01-8.73-4.49-20.01-.44-29.01S17.58,7.78,27.26,4.26C38.87.05,52.97,1.55,61.18,11.51c.19.24.56.3.8.11l.79-.63c.26-.21.13-.6-.04-.81-3.09-3.66-6.96-6.56-11.45-8.25C46.4.1,41.07-.3,35.92.2,24.64,1.3,14.29,7.2,7.55,16.29.85,25.35-1.92,37.83,1.42,48.73c3.13,10.22,11.62,17.84,22.15,19.79,11.24,2.08,23.62-1.09,31.54-9.52.22-.24.16-.58-.04-.81l-.55-.63c-.52-.59-1.28.11-.76.7Z"/>
        </g>
        <g>
          <path class="cls-1" d="m96.22,65.96l1.11-6.4c-5.16,5.84-11,8.76-17.53,8.76-6.11,0-11.02-2.16-14.73-6.47-3.71-4.32-5.14-9.53-4.3-15.64.84-6.11,3.73-11.32,8.65-15.63s10.44-6.48,16.54-6.48c3.53,0,6.68.79,9.48,2.37,2.79,1.58,5,3.74,6.63,6.48l1.11-6.48h.87l-6.95,39.48h-.87Zm1.42-7.97l4.11-23.45c-1.32-2.95-3.41-5.28-6.28-6.99-2.87-1.71-6.09-2.57-9.67-2.57-5.84,0-11.13,2.08-15.87,6.24-4.74,4.16-7.5,9.16-8.29,15-.79,5.84.61,10.85,4.18,15,3.58,4.16,8.29,6.24,14.13,6.24,6.58,0,12.48-3.16,17.69-9.48Z"/>
          <g>
            <path class="cls-1" d="m96.58,65.87c.37-2.13.74-4.26,1.11-6.4.02-.13-.65.09-.72.16-5.06,5.66-11.69,9.25-19.44,8.43-6.54-.69-12.26-4.8-14.99-10.8-5.98-13.15,4.37-29.01,17.54-32.33,8.27-2.08,17.1.69,21.63,8.12.09.15.7-.04.72-.19.37-2.16.74-4.32,1.11-6.48l-.6.23c.88,0,.77-.16.62.66l-.46,2.62-1.64,9.31c-1.28,7.26-2.56,14.52-3.83,21.79-.3,1.69-.59,3.37-.89,5.06l.6-.23h-.87c-.14,0-.81.28-.48.28h.87c.14,0,.57-.05.6-.23,2.03-11.53,4.06-23.06,6.09-34.59.29-1.63.57-3.26.86-4.89,0-.04-.12-.04-.12-.04h-.87c-.14,0-.57.05-.6.23-.37,2.16-.74,4.32-1.11,6.48l.72-.19c-4.11-6.74-11.64-9.64-19.31-8.7-7.2.88-13.76,5.04-18.07,10.81s-6.32,14.24-3.73,21.27,8.94,11.54,16.2,12.15c7.99.67,14.94-3.03,20.18-8.89l-.72.16c-.37,2.13-.74,4.26-1.11,6.4,0,.05.69.02.72-.19Z"/>
            <path class="cls-1" d="m98,57.89c.9-5.16,1.81-10.32,2.71-15.48.43-2.48,1.04-5,1.31-7.5.14-1.27-1.02-2.6-1.76-3.56-1.64-2.13-3.85-3.77-6.3-4.88-10.02-4.51-21.88.54-28.18,8.85-3.31,4.36-5.05,9.94-4.69,15.42s3.06,10.16,7.27,13.34c4.42,3.32,10.38,4.22,15.72,3.06,5.66-1.23,10.26-4.84,13.91-9.21.02-.03-.58-.03-.71.14-3.56,4.27-8.13,7.96-13.74,8.97-4.98.9-10.41-.13-14.49-3.2-3.98-3-6.64-7.57-7.17-12.53s.8-10.31,3.53-14.57c6.17-9.64,19.63-15.4,30.05-8.86,2.26,1.42,4.14,3.37,5.41,5.72.47.88.51,1,.36,1.85-.4,2.31-.81,4.62-1.21,6.92-.92,5.24-1.83,10.48-2.75,15.71,0,.05.69.02.72-.19Z"/>
          </g>
        </g>
        <g>
          <path class="cls-1" d="m114.3,26.48l-1.11,6.32c2-2.68,4.55-4.8,7.66-6.36s6.45-2.33,10.03-2.33c6.11,0,11.04,2.17,14.81,6.51,3.76,4.34,5.22,9.57,4.38,15.67-.84,6.11-3.75,11.33-8.73,15.67-4.97,4.34-10.54,6.51-16.7,6.51-3.58,0-6.75-.78-9.52-2.33-2.76-1.55-4.99-3.67-6.67-6.36l-5.69,32.22h-.87l11.53-65.54h.87Zm-1.5,8.29l-3.95,23.53c3.47,6.21,8.79,9.32,15.95,9.32,5.9,0,11.24-2.09,16.03-6.28,4.79-4.18,7.58-9.2,8.37-15.04.79-5.9-.62-10.92-4.22-15.08-3.61-4.16-8.36-6.24-14.25-6.24-3.63,0-7.01.87-10.15,2.61-3.13,1.74-5.72,4.13-7.78,7.19Z"/>
          <g>
            <path class="cls-1" d="m113.94,26.53c-.37,2.11-.74,4.21-1.11,6.32-.05.27.61.04.69-.06,4.77-6.29,12.66-9.4,20.46-8.27,6.5.94,12.12,5.37,14.6,11.46,5.37,13.2-5.1,28.48-18.15,31.67-8.26,2.02-16.94-.64-21.62-7.94-.11-.17-.69-.06-.72.15-1.66,9.4-3.32,18.8-4.98,28.2-.24,1.34-.47,2.68-.71,4.02l.51-.23c-.13,0-.69.09-.8,0-.09-.07.17.21.15.09-.01-.07.03-.17.04-.24.07-.38.13-.77.2-1.15l.79-4.48c.91-5.18,1.82-10.35,2.73-15.53,2.1-11.94,4.2-23.88,6.3-35.82.49-2.76.97-5.53,1.46-8.29l-.51.23h.87c.24,0,.78-.36.3-.36h-.87c-.12,0-.48.07-.51.23-1.3,7.38-2.6,14.75-3.89,22.13-2.07,11.76-4.14,23.53-6.21,35.29-.48,2.71-.95,5.41-1.43,8.12-.02.11.13.13.21.13h.87c.12,0,.48-.07.51-.23,1.66-9.4,3.32-18.8,4.98-28.2.24-1.34.47-2.68.71-4.02l-.72.15c4.16,6.49,11.32,9.37,18.87,8.65s14.06-4.83,18.54-10.61c4.36-5.62,6.43-13.48,4.41-20.41s-7.82-11.98-14.72-13.24c-8.35-1.52-17.18,1.73-22.33,8.51l.69-.06c.37-2.11.74-4.21,1.11-6.32.04-.23-.68-.11-.72.11Z"/>
            <path class="cls-1" d="m112.44,34.83c-.88,5.25-1.76,10.49-2.64,15.74-.4,2.41-1.07,4.92-1.24,7.37-.08,1.17,1.04,2.32,1.73,3.22,1.44,1.85,3.21,3.42,5.28,4.54,9.5,5.15,21.46.66,28.17-6.91,7.28-8.21,8.58-21.46.03-29.28-4.3-3.94-10.29-5.28-15.99-4.49-6.28.88-11.77,4.58-15.32,9.77-.16.24.55.16.67-.02,3.38-4.93,8.54-8.59,14.54-9.41,5.33-.73,10.9.5,15.02,4.05,8.33,7.18,7.93,19.73,1.5,28.04-6.5,8.4-19.43,13.62-29.1,7.28-1.83-1.2-3.38-2.78-4.64-4.56-.69-.97-1.31-1.53-1.12-2.64.39-2.32.78-4.64,1.17-6.96.89-5.29,1.77-10.57,2.66-15.86.04-.23-.68-.11-.72.11Z"/>
          </g>
        </g>
        <g>
          <path class="cls-1" d="m190.98,65.96l1.11-6.4c-5.16,5.84-11,8.76-17.53,8.76-6.11,0-11.02-2.16-14.73-6.47-3.71-4.32-5.14-9.53-4.3-15.64.84-6.11,3.73-11.32,8.65-15.63s10.44-6.48,16.54-6.48c3.53,0,6.68.79,9.48,2.37,2.79,1.58,5,3.74,6.63,6.48l1.11-6.48h.87l-6.95,39.48h-.87Zm1.42-7.97l4.11-23.45c-1.32-2.95-3.41-5.28-6.28-6.99-2.87-1.71-6.09-2.57-9.67-2.57-5.84,0-11.13,2.08-15.87,6.24-4.74,4.16-7.5,9.16-8.29,15-.79,5.84.61,10.85,4.18,15,3.58,4.16,8.29,6.24,14.13,6.24,6.58,0,12.48-3.16,17.69-9.48Z"/>
          <g>
            <path class="cls-1" d="m191.33,65.91c.37-2.13.74-4.26,1.11-6.4.04-.25-.61-.02-.69.07-4.89,5.47-11.26,9.07-18.76,8.52-6.76-.5-12.73-4.49-15.62-10.67-6.13-13.11,4.16-28.98,17.28-32.41,8.3-2.17,17.23.54,21.81,8.03.1.17.69.04.72-.15.37-2.16.74-4.32,1.11-6.48l-.51.22c.14,0,.3.02.43,0,.38-.07.29.14.23-.11,0,.03-.02.07-.02.1.02.18-.07.42-.11.6l-.46,2.62c-.55,3.1-1.09,6.21-1.64,9.31-1.28,7.26-2.56,14.52-3.83,21.79-.3,1.69-.59,3.37-.89,5.06l.51-.22h-.87c-.22,0-.78.34-.3.34h.87c.11,0,.48-.07.51-.22,2.03-11.53,4.06-23.06,6.09-34.59.29-1.63.57-3.26.86-4.89.02-.11-.14-.11-.21-.11h-.87c-.11,0-.48.07-.51.22-.37,2.16-.74,4.32-1.11,6.48l.72-.15c-4.06-6.65-11.42-9.58-19.02-8.77-7.35.78-14.1,5.06-18.45,10.97-4.3,5.84-6.19,14.04-3.71,21s8.52,11.45,15.56,12.28c8.23.96,15.46-2.76,20.85-8.79l-.69.07c-.37,2.13-.74,4.26-1.11,6.4-.04.21.68.09.72-.11Z"/>
            <path class="cls-1" d="m192.76,57.93c.9-5.16,1.81-10.32,2.71-15.48.44-2.5.89-5,1.31-7.5.19-1.1-.73-2.16-1.33-3.03-1.53-2.2-3.63-3.92-6.02-5.13-10.1-5.09-22.4-.04-28.85,8.47-3.25,4.29-4.99,9.7-4.74,15.09.25,5.3,2.84,10.24,7.02,13.52s10.29,4.44,15.66,3.37c5.78-1.15,10.51-4.83,14.21-9.27.17-.2-.54-.12-.66.03-3.5,4.2-7.95,7.82-13.43,8.92-4.95,1-10.42.08-14.54-2.89-4.02-2.9-6.78-7.42-7.4-12.35s.64-10.33,3.29-14.62c5.99-9.69,19.41-15.65,29.91-9.39,2.29,1.37,4.24,3.26,5.56,5.59.54.95.72,1.2.55,2.14l-1.21,6.92c-.92,5.24-1.83,10.48-2.75,15.71-.04.21.68.09.72-.11Z"/>
          </g>
        </g>
        <g>
          <path class="cls-1" d="m213.16,2.79l-5.21,29.77c2.05-2.74,4.62-4.9,7.7-6.48,3.08-1.58,6.41-2.37,9.99-2.37,6.16,0,11.11,2.19,14.84,6.55,3.74,4.37,5.16,9.63,4.26,15.79-.84,6.16-3.74,11.41-8.69,15.75-4.95,4.34-10.5,6.51-16.66,6.51-3.63,0-6.91-.8-9.83-2.41-2.92-1.61-5.07-3.75-6.44-6.44l-1.11,6.47h-.87l11.13-63.17h.87Zm-5.53,31.43l-4.18,23.85c1.26,2.9,3.34,5.19,6.24,6.87,2.89,1.68,6.19,2.53,9.87,2.53,5.9,0,11.23-2.09,15.99-6.28,4.76-4.19,7.54-9.23,8.33-15.12.84-5.95-.54-11.02-4.15-15.2-3.61-4.19-8.36-6.28-14.25-6.28-3.58,0-6.95.86-10.11,2.57-3.16,1.71-5.74,4.07-7.74,7.07Z"/>
          <g>
            <path class="cls-1" d="m212.8,2.83c-1.52,8.7-3.04,17.39-4.57,26.09-.21,1.23-.43,2.45-.64,3.68-.06.35.6.11.7-.02,4.74-6.2,12.36-9.45,20.13-8.46,6.6.84,12.33,5.19,14.86,11.37,2.51,6.14,1.42,13.59-1.77,19.28-3.42,6.08-9.53,11-16.33,12.67-7.95,1.95-17.64-.36-21.68-8.04-.13-.24-.68-.13-.73.14-.37,2.16-.74,4.32-1.11,6.47l.5-.26h-.87l.23.19c1.25-7.1,2.5-14.2,3.75-21.3,2-11.36,4-22.72,6.01-34.08.46-2.6.92-5.2,1.37-7.79l-.5.26h.87c.3,0,.76-.45.27-.45h-.87c-.16,0-.46.06-.5.26-1.25,7.1-2.5,14.2-3.75,21.3-2,11.36-4,22.72-6.01,34.08-.46,2.6-.92,5.2-1.37,7.79-.02.12.13.19.23.19h.87c.16,0,.47-.06.5-.26.37-2.16.74-4.32,1.11-6.47l-.73.14c3.6,6.85,11.6,9.55,18.96,8.86s14.02-4.85,18.47-10.64,6.45-13.76,4.41-20.76-7.82-11.97-14.73-13.2c-8.48-1.51-17.06,1.87-22.27,8.7l.7-.02c1.52-8.7,3.04-17.39,4.57-26.09.21-1.23.43-2.45.64-3.68.05-.31-.68-.2-.73.08Z"/>
            <path class="cls-1" d="m207.27,34.26c-.9,5.1-1.79,10.21-2.69,15.31l-1.37,7.83c-.17.95.14,1.41.67,2.32,1.32,2.27,3.27,4.09,5.52,5.41,9.95,5.81,22.58,1.32,29.52-7.01,6.88-8.27,7.93-21.32-.39-28.99-4.32-3.98-10.35-5.37-16.08-4.54-6.18.9-11.66,4.47-15.15,9.62-.2.29.53.26.68.04,3.32-4.88,8.5-8.36,14.38-9.21,5.27-.77,10.85.42,14.96,3.91,3.88,3.3,6.23,8.03,6.42,13.13s-1.42,10.51-4.51,14.74c-6.61,9.04-19.86,14.04-29.94,7.53-2.04-1.31-4.6-3.59-5.33-6.02-.15-.51-.06-.83.04-1.39.42-2.4.84-4.8,1.26-7.19.91-5.18,1.82-10.36,2.73-15.55.05-.31-.68-.2-.73.08Z"/>
          </g>
        </g>
        <g>
          <path class="cls-1" d="m249.64,65.96h-.95l6.95-39.48h.95l-6.95,39.48Z"/>
          <path class="cls-1" d="m249.78,65.73h-.95l.23.2c2.03-11.53,4.06-23.06,6.09-34.59.29-1.63.57-3.26.86-4.89l-.5.27h.95l-.23-.2c-2.03,11.53-4.06,23.06-6.09,34.59-.29,1.63-.57,3.26-.86,4.89-.06.33.68.22.73-.07,2.03-11.53,4.06-23.06,6.09-34.59.29-1.63.57-3.26.86-4.89.02-.13-.13-.2-.23-.2h-.95c-.17,0-.46.06-.5.27-2.03,11.53-4.06,23.06-6.09,34.59-.29,1.63-.57,3.26-.86,4.89-.02.13.13.2.23.2h.95c.31,0,.75-.47.26-.47Z"/>
        </g>
        <g>
          <path class="cls-1" d="m260.54,65.96h-.95l11.13-63.17h.95l-11.13,63.17Z"/>
          <path class="cls-1" d="m260.67,65.72h-.95l.23.21c1.25-7.1,2.5-14.2,3.75-21.3,2-11.36,4-22.72,6.01-34.08.46-2.6.92-5.2,1.37-7.79l-.5.28h.95l-.23-.21c-1.25,7.1-2.5,14.2-3.75,21.3-2,11.36-4,22.72-6.01,34.08-.46,2.6-.92,5.2-1.37,7.79-.06.33.68.23.73-.07,1.25-7.1,2.5-14.2,3.75-21.3,2-11.36,4-22.72,6.01-34.08.46-2.6.92-5.2,1.37-7.79.02-.13-.13-.21-.23-.21h-.95c-.18,0-.46.06-.5.28-1.25,7.1-2.5,14.2-3.75,21.3-2,11.36-4,22.72-6.01,34.08-.46,2.6-.92,5.2-1.37,7.79-.02.13.13.21.23.21h.95c.32,0,.75-.49.26-.49Z"/>
        </g>
        <g>
          <path class="cls-1" d="m271.44,65.96h-.95l6.95-39.48h.95l-6.95,39.48Z"/>
          <path class="cls-1" d="m271.58,65.78c-.15,0-.32-.02-.47,0-.4.04-.33-.13-.26.13,0-.03.02-.07.02-.1-.02-.18.07-.42.11-.6l.46-2.62,1.64-9.31c1.28-7.26,2.56-14.52,3.83-21.79.3-1.69.59-3.37.89-5.06l-.51.24c.15,0,.33.03.47,0,.39-.07.33.16.26-.13,0,.03-.02.07-.02.1.02.18-.07.42-.11.6l-.46,2.62-1.64,9.31c-1.28,7.26-2.56,14.52-3.83,21.79-.3,1.69-.59,3.37-.89,5.06-.04.24.68.12.72-.1,2.03-11.53,4.06-23.06,6.09-34.59.29-1.63.57-3.26.86-4.89.02-.12-.13-.13-.21-.13h-.95c-.12,0-.48.07-.51.24-2.03,11.53-4.06,23.06-6.09,34.59-.29,1.63-.57,3.26-.86,4.89-.02.12.13.13.21.13h.95c.25,0,.78-.37.29-.37Z"/>
        </g>
        <g>
          <path class="cls-1" d="m299.31,2.79l-4.19,23.69h11.13l-.16.87h-11.13l-6.79,38.61h-.87l6.79-38.61h-7.82l.16-.87h7.82l4.18-23.69h.87Z"/>
          <path class="cls-1" d="m298.95,2.84c-1.22,6.91-2.44,13.82-3.66,20.74-.17.98-.35,1.97-.52,2.95-.02.12.13.17.22.17h11.13l-.22-.17-.16.87.5-.25h-11.13c-.15,0-.47.07-.5.25-1.98,11.27-3.96,22.54-5.95,33.81-.28,1.6-.56,3.2-.84,4.8l.5-.25h-.87l.22.17c1.98-11.27,3.96-22.54,5.95-33.81.28-1.6.56-3.2.84-4.8.02-.12-.13-.17-.22-.17h-7.82l.22.17.16-.87-.5.25h7.82c.15,0,.47-.07.5-.25,1.22-6.91,2.44-13.82,3.66-20.74.17-.98.35-1.97.52-2.95l-.5.25h.87c.28,0,.77-.42.28-.42h-.87c-.15,0-.47.07-.5.25-1.22,6.91-2.44,13.82-3.66,20.74-.17.98-.35,1.97-.52,2.95l.5-.25h-7.82c-.15,0-.47.07-.5.25l-.16.87c-.02.12.13.17.22.17h7.82l-.22-.17c-1.98,11.27-3.96,22.54-5.95,33.81-.28,1.6-.56,3.2-.84,4.8-.02.12.13.17.22.17h.87c.15,0,.47-.07.5-.25,1.98-11.27,3.96-22.54,5.95-33.81.28-1.6.56-3.2.84-4.8l-.5.25h11.13c.15,0,.47-.07.5-.25l.16-.87c.02-.12-.13-.17-.22-.17h-11.13l.22.17c1.22-6.91,2.44-13.82,3.66-20.74.17-.98.35-1.97.52-2.95.05-.29-.68-.17-.73.09Z"/>
        </g>
        <g>
          <path class="cls-1" d="m307.44,65.96h-.95l6.95-39.48h.95l-6.95,39.48Z"/>
          <path class="cls-1" d="m307.68,65.82c-.94,0-.86.26-.7-.62l.46-2.62c.55-3.1,1.09-6.21,1.64-9.31,1.28-7.26,2.56-14.52,3.83-21.79.3-1.69.59-3.37.89-5.06l-.59.21c.94,0,.86-.26.7.62l-.46,2.62c-.55,3.1-1.09,6.21-1.64,9.31-1.28,7.26-2.56,14.52-3.83,21.79-.3,1.69-.59,3.37-.89,5.06-.03.15.68.04.71-.13,2.03-11.53,4.06-23.06,6.09-34.59.29-1.63.57-3.26.86-4.89.01-.07-.06-.08-.12-.08h-.95c-.11,0-.57.05-.59.21-2.03,11.53-4.06,23.06-6.09,34.59-.29,1.63-.57,3.26-.86,4.89-.01.07.06.08.12.08h.95c.15,0,.82-.29.47-.29Z"/>
        </g>
        <g>
          <path class="cls-1" d="m350.79,62.41l.47.63c-4.26,3.53-9.05,5.29-14.37,5.29-6.11,0-11.02-2.16-14.73-6.47-3.71-4.32-5.14-9.53-4.3-15.64.84-6.11,3.73-11.32,8.65-15.63s10.44-6.48,16.54-6.48,10.61,2.12,13.82,6.36c3.21,4.24,4.39,9.49,3.55,15.75l-.24.71h-41.54c-.58,5.69.91,10.53,4.46,14.53s8.2,6,13.94,6c4.95,0,9.53-1.68,13.74-5.05Zm-31.98-16.34h40.74c.84-6-.24-10.98-3.24-14.92-3.11-4.11-7.58-6.16-13.42-6.16s-11.04,2.07-15.75,6.2c-4.71,4.13-7.49,9.09-8.33,14.88Z"/>
          <g>
            <path class="cls-1" d="m350.45,62.54c.08.11.35.35.37.49.03.24-.58.57-.83.76-.91.68-1.86,1.29-2.85,1.83-1.94,1.05-4.03,1.8-6.2,2.19-3.86.7-8.04.39-11.68-1.12-7.03-2.92-11.38-10.15-11.26-17.66.13-8,4.29-15.16,10.63-19.9s15.6-6.74,22.84-2.91c3.55,1.88,6.2,5.23,7.59,8.97.71,1.89,1.1,3.9,1.22,5.91s.16,4.04-.45,5.87l.51-.23h-41.54c-.1,0-.49.07-.51.23-.59,6.28,1.48,12.3,6.35,16.44,4.59,3.91,11.03,4.98,16.83,3.72,3.55-.77,6.76-2.47,9.6-4.7.31-.24-.41-.2-.57-.07-6.33,4.98-15.27,6.75-22.54,2.64-6.51-3.68-9.63-10.86-8.96-18.14l-.51.23h41.54c.14,0,.45-.07.51-.23.54-1.62.54-3.47.49-5.16-.05-2.1-.39-4.2-1.06-6.19-1.19-3.51-3.48-6.75-6.58-8.81-6.29-4.19-15.17-3.35-21.63.01-7.22,3.75-12.79,10.71-14.15,18.79-.69,4.14-.39,8.46,1.44,12.28,1.67,3.47,4.45,6.48,7.82,8.35,7.88,4.38,17.91,2.44,24.67-3.07.06-.05.11-.1.05-.17l-.47-.63c-.12-.17-.82.07-.68.27Z"/>
            <path class="cls-1" d="m318.66,46.24h40.74c.11,0,.49-.07.51-.23.6-4.5.26-9.16-2.04-13.17-2.01-3.5-5.19-6.13-9.07-7.27-8.53-2.51-17.61,1.01-23.63,7.17-3.6,3.68-5.94,8.28-6.72,13.38-.04.23.69.1.72-.11,1.32-8.6,7.46-16.17,15.58-19.36s17.46-1.56,22.13,5.93c2.53,4.05,2.94,8.9,2.32,13.54l.51-.23h-40.74c-.24,0-.78.35-.3.35Z"/>
          </g>
        </g>
        <g>
          <path class="cls-1" d="m377.95,44.17c-1.53-.42-2.69-.78-3.47-1.07-.79-.29-1.58-.72-2.37-1.3-.79-.58-1.39-1.32-1.82-2.21-.84-1.37-1.16-3.18-.95-5.45.42-2.79,1.74-5.16,3.95-7.11,2.21-1.95,4.68-2.92,7.42-2.92,2.53,0,4.62.83,6.28,2.49,1.66,1.66,2.49,3.7,2.49,6.12l-.87.24c0-2.26-.76-4.16-2.29-5.69-1.53-1.53-3.45-2.29-5.76-2.29-2.48,0-4.73.9-6.75,2.68-2.03,1.79-3.23,3.95-3.59,6.48-.16,2,.08,3.66.71,4.97.58,1.16,1.38,2,2.41,2.53,1.03.53,2.62,1.11,4.78,1.74,2,.58,3.46,1.03,4.38,1.34.92.32,1.89.84,2.92,1.58,1.03.74,1.8,1.66,2.33,2.76,1.05,2.21,1.34,4.5.87,6.87-.42,3.42-2.01,6.34-4.78,8.76-2.76,2.42-5.86,3.63-9.28,3.63s-5.95-1.12-8.05-3.36c-2.11-2.24-3.13-5.07-3.08-8.49l.87-.16c-.05,3.16.91,5.8,2.88,7.94s4.49,3.2,7.54,3.2c3.21,0,6.08-1.13,8.61-3.4s4-4.97,4.42-8.13c.42-2.32.16-4.45-.79-6.4-.47-1-1.2-1.84-2.17-2.53-.97-.68-1.86-1.17-2.64-1.46-.79-.29-2.19-.75-4.18-1.38Z"/>
          <path class="cls-1" d="m378.16,43.91c-3.47-.97-7.04-2.09-8.17-5.94-1.02-3.47.22-7.26,2.63-9.86,2.59-2.8,6.44-4.38,10.24-3.48s6.18,4.32,6.25,8.1l.3-.29-.87.24.44.24c-.12-6.22-6.25-9.72-11.91-7.6-5.34,2-9.39,8.86-6.3,14.28,1.44,2.53,4.53,3.25,7.13,4.02,3.14.93,6.83,1.67,8.86,4.5,2.21,3.08,2.02,7.41.75,10.83s-3.98,6.18-7.18,7.76c-3.56,1.76-8.16,1.9-11.57-.3s-4.99-6.01-4.98-9.97l-.3.29.87-.16-.44-.24c0,3.6,1.31,7,4.19,9.26,2.73,2.14,6.45,2.58,9.76,1.74,7.01-1.77,12.52-10.07,9.76-17.17-1.56-4.01-5.76-5.09-9.48-6.27-.33-.11-.85.37-.41.51,3.87,1.23,8.13,2.33,9.43,6.71s-.46,9.17-3.55,12.23-8.14,4.85-12.55,3.17-6.43-5.89-6.42-10.23c0-.24-.25-.28-.44-.24l-.87.16c-.12.02-.3.15-.3.29-.02,5.97,3.79,11.37,9.99,12.03,5.99.63,12.02-2.9,14.66-8.29,1.34-2.74,1.92-6.21,1.16-9.19-.8-3.16-2.96-5.4-6-6.53-2.87-1.07-5.93-1.59-8.73-2.86-3.52-1.59-4.28-5.9-3.15-9.31,1.27-3.84,5.06-6.95,9.15-7.09,4.52-.16,8.01,3.22,8.1,7.71,0,.23.25.29.44.24l.87-.24c.12-.03.3-.14.3-.29-.13-6.51-6.39-10.25-12.4-8.37-5.67,1.77-10.38,8.54-7.96,14.48,1.46,3.6,4.8,4.65,8.26,5.61.33.09.85-.39.41-.51Z"/>
        </g>
      </g>
    </g>
  </g>
</svg>