<?xml version="1.0" encoding="utf-8"?>
<!-- Generator: Adobe Illustrator 27.2.0, SVG Export Plug-In . SVG Version: 6.00 Build 0)  -->
<svg version="1.1" baseProfile="basic" id="Capa_1" xmlns="http://www.w3.org/2000/svg" xmlns:xlink="http://www.w3.org/1999/xlink"
	 x="0px" y="0px" viewBox="0 0 60 60" xml:space="preserve">
<style type="text/css">
	.st0{fill:#E74D15;}
</style>
<g>
	<path class="st0" d="M284.8,89.02c-0.08,1.21-0.09,2.26-0.24,3.3c-0.59,4.09-3.57,6.46-7.64,6.41c-0.91-0.01-1.9,0.68-2.71,1.24
		c-0.78,0.54-1.26,1.72-2.07,1.96c-2.79,0.84-2.58,2.87-2.82,5.17c-0.7,6.81,2.8,12.82,3.33,19.35c0.53,6.55,0.78,13.12,0.91,19.69
		c0.02,0.94-1.25,2.54-2.15,2.72c-1.81,0.36-2.31-1.18-2.39-2.82c-0.33-6.66-0.7-13.32-1.1-19.97c-0.06-0.93-0.4-1.84-0.61-2.76
		c-0.28-0.01-0.56-0.02-0.84-0.03c-0.46,4.35-1.04,8.69-1.33,13.05c-0.21,3.18-0.07,6.39-0.06,9.58c0.01,1.62-0.37,3.03-2.27,3.05
		c-1.88,0.02-2.33-1.35-2.37-2.98c-0.22-10.01,0.42-19.86,3.23-29.6c1.2-4.16,1.09-8.79,0.94-13.19c-0.05-1.61-1.93-3.16-2.94-4.68
		c-6.81,0.53-9.48-1.99-9.49-8.82c0-3.18,0-6.35,0-9.72c-0.75,0.09-1.2,0.14-1.64,0.21c-5.73,0.91-10.04-2.35-10.25-8.18
		c-0.22-6.28-0.12-12.59,0.02-18.87c0.1-4.34,1.64-8.34,5.01-11.07c5.78-4.7,8.01-10.47,6.93-17.78c-0.27-1.85-0.75-4.67,2.37-4.56
		c2.79,0.1,1.95,2.73,2.22,4.55c1.26,8.37-1.02,15.26-7.83,20.63c-3.34,2.63-4.27,6.52-4.2,10.7c0.09,4.65,0.02,9.29,0.03,13.94
		c0,0.77-0.03,1.55,0.05,2.32c0.25,2.29,1.31,3.95,3.84,3.83c2.35-0.11,3.36-1.74,3.41-3.93c0.07-2.9,0.05-5.81,0.02-8.71
		c-0.02-1.68,0.2-3.3,2.27-3.34c2.09-0.04,2.38,1.58,2.38,3.27c0,7.46,0,14.91,0,22.37c0,1.74,0.03,3.49,0,5.23
		c-0.03,1.67,0.2,3.32,2.26,3.37c2.09,0.05,2.37-1.6,2.37-3.27c-0.01-5.81-0.01-11.62-0.02-17.43c0-0.87-0.26-1.89,0.09-2.58
		c0.5-0.97,1.46-1.7,2.23-2.53c0.78,0.83,1.89,1.55,2.24,2.53c0.39,1.12,0.1,2.49,0.1,3.74c0,6.87,0.01,13.75,0,20.62
		c0,1.66,0.17,3.32,2.29,3.31c2.1-0.02,2.32-1.72,2.32-3.34c0.02-6,0-12.01,0-18.01c0-1.74,0-3.49,0-5.23
		c0-1.68-0.09-3.63,2.23-3.65c2.48-0.02,2.42,2.02,2.43,3.8c0.02,3.87,0.01,7.75,0.01,11.62c0,2.42,0.03,4.84-0.02,7.26
		c-0.03,1.61,0.31,3.11,2.15,3.17c2.04,0.08,2.46-1.55,2.46-3.23c0.01-5.91,0-11.81,0-17.72c0-0.77-0.24-1.68,0.07-2.29
		c0.5-0.99,1.37-1.78,2.09-2.66c0.83,0.87,2.3,1.68,2.39,2.61c0.3,3.36,0.15,6.77,0.12,10.16c-0.02,1.67,0.18,3.35,2.22,3.42
		c2.04,0.06,2.41-1.64,2.41-3.29c0.02-10.46,0.05-20.91-0.05-31.37c-0.01-1.5-0.58-3.03-1.09-4.48c-2.55-7.25-3.2-14.74-2.76-22.33
		c0.06-1.09,1.28-2.87,2.17-3.02c1.96-0.32,2.47,1.4,2.38,3.12c-0.42,8.13,0.7,16.02,3.49,23.68c0.45,1.23,0.49,2.66,0.49,4
		c0.04,9.78,0.02,19.56,0.03,29.34C293.94,86.44,291.61,88.88,284.8,89.02z"/>
	<path class="st0" d="M213.84,66.64c0-5.36,0-10.57,0-15.79c0.01-8.95,4.13-12.37,13-10.58c0.41-0.8,0.8-1.65,1.27-2.47
		c2.95-5.1,9.94-5.99,13.89-1.77c1.12,1.2,2.08,2.56,0.6,4.03c-1.33,1.32-2.45,0.38-3.8-0.46c-1.31-0.81-3.2-1.4-4.64-1.11
		c-2.18,0.44-2.62,2.55-2.61,4.63c0.02,11.04,0.01,22.07,0,33.11c0,0.87,0.21,1.89-0.17,2.57c-0.45,0.81-1.43,1.83-2.17,1.82
		c-0.75-0.01-1.71-1.04-2.15-1.85c-0.37-0.68-0.14-1.7-0.14-2.57c-0.01-8.71,0.02-17.43-0.04-26.14c-0.01-1.31-0.06-2.98-0.82-3.84
		c-0.88-1.01-2.7-1.99-3.87-1.75c-1.31,0.27-2.53,1.78-3.42,3.01c-0.48,0.66-0.27,1.87-0.27,2.83c-0.01,15.49,0.03,30.98-0.06,46.47
		c-0.01,1.98,0.6,2.82,2.43,3.55c5.79,2.3,9.61,6.38,10.49,12.78c0.22,1.6,0.31,3.32-1.75,3.69c-2.09,0.38-2.59-1.24-2.82-2.87
		c-0.78-5.67-4.46-8.65-9.63-9.94c-2.57-0.64-3.41-1.87-3.37-4.44c0.13-7.45,0.06-14.91,0.03-22.36c-0.02-4.51-2.39-7.28-6.11-7.24
		c-3.48,0.04-5.99,2.92-6.01,7.17c-0.05,8.33-0.07,16.65,0.01,24.98c0.04,4.54,1.79,8.47,4.88,11.8c3.42,3.69,6.92,7.31,10.23,11.11
		c0.86,0.99,1.54,2.5,1.58,3.8c0.17,5.61,0.07,11.23,0.08,16.84c0,1.66-0.17,3.31-2.28,3.33c-2.1,0.02-2.36-1.58-2.36-3.27
		c0.01-5.03,0.09-10.07-0.07-15.1c-0.04-1.21-0.6-2.63-1.4-3.55c-2.97-3.44-6.15-6.7-9.24-10.04c-3.99-4.31-6.04-9.41-6.07-15.27
		c-0.05-8.13,0.14-16.27-0.05-24.4c-0.22-9.26,8.64-14.59,15.49-10.94C212.82,66.56,213.24,66.54,213.84,66.64z"/>
	<path class="st0" d="M306.75,39.25c3.64,0.66,6.7,0.67,9.25,1.81c3.13,1.41,4.25,4.57,4.24,8.01c-0.01,5.79,0,11.59,0,17.67
		c0.92-0.3,1.53-0.49,2.13-0.7c7.06-2.48,14.29,2.03,14.54,9.54c0.31,9.38,0.23,18.78-0.03,28.17c-0.14,4.98-2.33,9.35-5.72,13.04
		c-3.08,3.35-6.28,6.59-9.23,10.05c-0.9,1.06-1.56,2.67-1.62,4.05c-0.19,4.93-0.08,9.87-0.08,14.81c0,1.66-0.21,3.3-2.34,3.27
		c-2.1-0.03-2.32-1.69-2.32-3.33c-0.01-5.62-0.11-11.23,0.07-16.84c0.04-1.3,0.75-2.8,1.62-3.8c3.37-3.86,6.94-7.55,10.42-11.32
		c3.01-3.27,4.64-7.13,4.67-11.58c0.05-8.42,0.06-16.85,0-25.27c-0.03-4-2.59-6.84-5.99-6.88c-3.49-0.04-6.09,2.7-6.12,6.68
		c-0.06,7.65-0.1,15.3,0.03,22.95c0.04,2.55-0.73,3.8-3.34,4.44c-5.31,1.29-8.96,4.44-9.68,10.22c-0.2,1.61-0.99,3.09-2.74,2.48
		c-0.87-0.3-1.85-2.02-1.77-3.01c0.53-6.69,4.48-10.97,10.47-13.38c1.87-0.75,2.4-1.64,2.4-3.57c-0.08-15.59-0.05-31.18-0.02-46.76
		c0-2.26-0.34-4.32-2.59-5.4c-2.77-1.33-5.72,0.86-5.75,4.37c-0.07,8.42-0.02,16.85-0.03,25.27c0,1.16-0.01,2.32-0.02,3.49
		c-0.01,1.61-0.45,3.03-2.34,3.02c-1.9-0.01-2.27-1.44-2.27-3.06c0.01-8.91,0-17.82,0-26.72c0-2.71,0.06-5.42-0.02-8.13
		c-0.1-3.13-1.51-4.61-4.63-4.76c-1.64-0.08-3.25-0.43-2.87-2.27c0.2-0.97,1.83-2.17,2.94-2.32
		C301.87,32.95,304.94,35.36,306.75,39.25z"/>
</g>
<g>
	<path class="st0" d="M48.07,36.22c0.34,1.96,0.66,3.86,1,5.77c0.23,1.3,0.05,1.52-1.28,1.53c-0.66,0.01-1.32,0-2.02,0
		c0,2.6,0,5.06,0,7.71c0.94,0,1.87,0,2.81,0c0.41,0,0.85-0.07,1.23,0.06c0.27,0.09,0.61,0.44,0.61,0.69
		c0.01,0.24-0.34,0.53-0.59,0.71c-0.15,0.11-0.43,0.05-0.65,0.05c-12.75,0.01-25.49,0.01-38.24,0.01c-0.19,0-0.43,0.06-0.56-0.03
		c-0.3-0.21-0.55-0.5-0.82-0.75c0.28-0.25,0.54-0.66,0.84-0.7c0.78-0.1,1.59-0.06,2.38-0.04c0.49,0.01,0.67-0.17,0.67-0.67
		c-0.02-4.7-0.01-9.41-0.02-14.11c0-0.06-0.04-0.12-0.1-0.28c-0.36-0.02-0.76-0.04-1.16-0.06c-1.54-0.08-2.61-1.06-2.63-2.58
		c-0.04-3.4-0.08-6.8,0.02-10.2c0.09-3.03,2.54-5.39,5.56-5.44c2.96-0.06,5.91-0.06,8.87,0c2.63,0.05,4.82,1.91,5.4,4.44
		c0.13,0.56,0.23,1.14-0.49,1.31c-0.67,0.16-0.83-0.35-0.97-0.89c-0.59-2.18-2.11-3.35-4.38-3.36c-2.67-0.01-5.34-0.01-8.01,0
		c-2.71,0.02-4.47,1.78-4.49,4.49c-0.01,2.51,0,5.02,0,7.53c0,0.09,0.03,0.18,0.06,0.36c0.73,0,1.46,0,2.32,0c0-1.76,0-3.5,0-5.24
		c0-0.51-0.08-1.04,0.03-1.52c0.08-0.32,0.45-0.57,0.69-0.85c0.27,0.29,0.62,0.54,0.77,0.88c0.13,0.29,0.03,0.69,0.03,1.04
		c0,8.01,0,16.02,0,24.03c0,0.31,0,0.63,0,1.1c1.17,0,2.27,0.04,3.37-0.04c0.17-0.01,0.43-0.54,0.44-0.83
		c0.03-3.85,0.02-7.69,0.02-11.54c0-0.22-0.08-0.49,0.02-0.66c0.2-0.34,0.49-0.61,0.75-0.92c0.26,0.31,0.6,0.58,0.74,0.93
		c0.13,0.33,0.03,0.75,0.03,1.13c0,3.59,0,7.18,0,10.78c0,0.34,0,0.69,0,1.09c1.93,0,3.76,0,5.65,0c0-2.79,0-5.54,0-8.28
		c-2.1-0.56-2.29-0.81-2.3-3.03c-0.01-1.53-0.02-3.05,0-4.58c0.03-2.57,1.53-4.08,4.1-4.11c1.56-0.02,3.12-0.03,4.67,0.01
		c2.33,0.05,3.85,1.59,3.88,3.93c0.02,1.65,0,3.31,0,4.96c0,1.96-0.35,2.41-2.35,2.79c0,1.33,0,2.69,0,4.04
		c0,1.21-0.03,2.42,0.02,3.62c0.01,0.24,0.32,0.66,0.5,0.67c1.33,0.06,2.66,0.03,4.06,0.03c0-2.58,0-5.07,0-7.71
		c-0.47,0-0.97,0.1-1.39-0.03c-0.34-0.11-0.6-0.49-0.89-0.75c0.28-0.24,0.56-0.68,0.86-0.7c1.27-0.08,2.54-0.05,3.81-0.05
		c2.13,0,4.25,0,6.54,0c-0.23-1.42-0.45-2.74-0.67-4.07c-0.54-3.29-1.11-6.58-1.61-9.88c-0.14-0.9-0.1-1.84-0.13-2.76
		c-0.01-0.53,0.02-1.1,0.73-1.1c0.68,0,0.73,0.53,0.79,1.07c0.35,2.96,0.74,5.92,1.12,8.87c0.02,0.12,0.08,0.23,0.14,0.41
		c0.7-0.04,1.08-0.41,1.08-1.06c0.01-3.43,0.08-6.87-0.04-10.3c-0.08-2.11-1.87-3.71-3.98-3.78c-1.84-0.06-3.69-0.07-5.53,0
		c-2.21,0.08-3.94,1.87-3.99,4.09c-0.04,1.91-0.02,3.81-0.01,5.72c0,0.58-0.05,1.16-0.8,1.15c-0.68-0.01-0.74-0.57-0.73-1.11
		c0.01-1.91-0.03-3.82,0.01-5.72c0.07-3.21,2.53-5.62,5.75-5.66c1.65-0.02,3.31-0.03,4.96,0c3.44,0.05,5.87,2.49,5.89,5.92
		c0.02,3.02,0,6.04,0,9.06C50.49,34.84,50.04,35.49,48.07,36.22z M33.99,41.06c0.11,0.07,0.22,0.15,0.33,0.22
		c0.17-0.26,0.47-0.51,0.48-0.78c0.04-1.84,0.06-3.68,0.01-5.52c-0.03-1.3-0.87-2.22-2.12-2.27c-1.78-0.07-3.56-0.06-5.33,0.01
		c-1.27,0.05-2.1,0.97-2.13,2.25c-0.03,1.84-0.02,3.68,0.01,5.53c0,0.24,0.27,0.47,0.42,0.7c0.13-0.23,0.37-0.46,0.37-0.7
		c0.04-1.49,0.02-2.98,0.02-4.48c0-0.52,0.09-1.01,0.71-1.04c0.68-0.03,0.81,0.49,0.81,1.05c0,0.25,0.01,0.51,0.01,0.76
		c0,4.48,0,8.96,0,13.43c0,0.3,0.03,0.61,0.05,0.93c0.58,0,1.07,0,1.64,0c0-0.38,0-0.69,0-1.01c0-1.97-0.01-3.94,0-5.91
		c0-0.57-0.17-1.36,0.73-1.37c0.88-0.01,0.78,0.75,0.78,1.35c0.01,1.52,0,3.05,0,4.57c0,0.78,0,1.56,0,2.32
		c1.67,0.27,1.68,0.26,1.68-1.17c0-4.6,0-9.21,0-13.81c0-0.58,0.07-1.17,0.81-1.14c0.67,0.02,0.72,0.59,0.72,1.13
		C33.98,37.76,33.99,39.41,33.99,41.06z M44.13,51.12c0-2.53,0-5.01,0-7.49c-0.83-0.24-1.24-0.12-1.21,0.84
		c0.06,1.93,0.06,3.86,0,5.79C42.89,51.19,43.26,51.38,44.13,51.12z M40.21,43.58c0,2.58,0,5.04,0,7.57c0.4,0,0.75,0,1.1,0
		c0-2.57,0-5.06,0-7.57C40.93,43.58,40.62,43.58,40.21,43.58z M11.14,33.38c0.15,1.18,0.85,1.47,2.25,1.03
		c0.23-0.77-0.01-1.13-0.85-1.03C12.08,33.42,11.61,33.38,11.14,33.38z"/>
	<path class="st0" d="M19.52,7.23c2.78-0.01,5.04,2.23,5.03,5c0,2.74-2.21,4.95-4.96,4.97c-2.8,0.02-5.03-2.19-5.02-4.99
		C14.57,9.45,16.77,7.24,19.52,7.23z M19.57,15.68c1.91-0.01,3.44-1.54,3.46-3.45c0.01-1.91-1.61-3.51-3.54-3.47
		c-1.91,0.03-3.43,1.61-3.39,3.5C16.13,14.19,17.65,15.69,19.57,15.68z"/>
	<path class="st0" d="M42.16,17.21c-2.78-0.02-5.03-2.29-4.99-5.05c0.04-2.72,2.3-4.94,5.02-4.93c2.73,0.01,4.98,2.25,4.99,4.96
		C47.19,14.96,44.93,17.22,42.16,17.21z M42.17,15.68c1.91,0,3.45-1.52,3.48-3.43c0.03-1.92-1.57-3.51-3.52-3.49
		c-1.89,0.02-3.45,1.6-3.44,3.48C38.71,14.13,40.27,15.68,42.17,15.68z"/>
	<path class="st0" d="M30.05,30.74c-1.85,0.01-3.35-1.47-3.35-3.31c0-1.8,1.46-3.26,3.28-3.27c1.86-0.01,3.36,1.46,3.34,3.3
		C33.31,29.26,31.85,30.72,30.05,30.74z M29.99,25.68c-0.99,0.01-1.76,0.78-1.77,1.75c-0.01,0.99,0.84,1.8,1.85,1.77
		c0.97-0.03,1.74-0.84,1.71-1.8C31.77,26.44,30.97,25.67,29.99,25.68z"/>
	<path class="st0" d="M39.4,26.29c-0.33,2.12-0.64,4.25-1.03,6.36c-0.05,0.28-0.54,0.47-0.83,0.7c-0.21-0.33-0.6-0.67-0.58-0.99
		c0.05-0.97,0.3-1.94,0.41-2.91c0.16-1.38,0.27-2.76,0.38-4.15c0.04-0.54,0.05-1.09,0.74-1.11c0.76-0.03,0.8,0.57,0.79,1.13
		c0,0.32,0,0.63,0,0.95C39.32,26.27,39.36,26.28,39.4,26.29z"/>
	<path class="st0" d="M25.66,27.31c0,0.76,0.08,1.54-0.04,2.28c-0.05,0.32-0.51,0.58-0.78,0.87c-0.23-0.29-0.65-0.58-0.66-0.88
		c-0.07-1.52-0.07-3.05,0-4.57c0.01-0.29,0.44-0.56,0.68-0.84c0.27,0.29,0.71,0.55,0.76,0.87C25.74,25.78,25.67,26.55,25.66,27.31
		C25.66,27.31,25.66,27.31,25.66,27.31z"/>
</g>
<g>
	<path class="st0" d="M442.04,85.11c-2.73,1.5-5.85,3.23-8.98,4.95c-2.24,1.23-3.7,0.5-4.42-1.87c-4.38-14.52-4.46-28.85,2.43-42.67
		c6.33-12.69,20.19-19.48,34.44-17.19c13.27,2.13,24.33,13.36,26.35,26.76c2.13,14.16-4.99,27.89-17.73,34.19
		c-1.03,0.51-2.07,1-3.55,1.71c0.94,1.58,2,2.94,2.58,4.49c0.41,1.07,0.16,2.38,0.2,3.58c-1.2-0.17-2.4-0.32-3.58-0.54
		c-0.23-0.04-0.5-0.37-0.58-0.62c-1.55-4.63-4.96-4.95-8.98-3.93c-0.36,0.09-0.82,0.12-1.15-0.02c-5.05-2.18-7.02,1.34-9.19,4.78
		c-1.46,2.32-1.2,4.36,0.85,5.87c1.42,1.05,3.26,2.02,4.95,2.09c3.63,0.15,7.29-0.43,10.93-0.44c1.1,0,2.21,0.86,3.31,1.33
		c-0.57,0.99-0.97,2.65-1.75,2.85c-6.47,1.67-13,2.32-19.12-1.23c-3.21-1.86-4.15-3.86-5.14-9.43c-5.39-0.31-9.99,1.59-13.86,5.26
		c-7,6.66-8.92,15.15-8.34,24.4c0.05,0.75,1.6,1.88,2.58,2.02c6.89,0.98,13.78,1.98,20.71,2.5c6.17,0.46,12.38,0.33,18.57,0.43
		c1.69,0.03,3.47,0.34,3.15,2.34c-0.14,0.9-1.95,2.19-3.01,2.21c-12.97,0.15-25.94-0.01-38.74-2.52c-0.85-0.17-1.7-0.37-2.54-0.61
		c-4.8-1.4-5.4-2.35-5.52-7.34c-0.23-9.33,1.88-17.88,8.22-25c5.03-5.66,11.32-8.62,18.99-8.38c1.53,0.05,3.01,0.21,3.92-1.64
		c0.8-1.62,1.03-2.68-0.72-3.85C445.52,88.35,443.95,86.74,442.04,85.11z M463.12,32.21c-3.73,0.4-6.64,0.41-9.39,1.06
		c-9.39,2.24-15.87,7.99-19.64,16.88c-4.82,11.35-4.56,22.87-1.53,34.93c6.82-3.56,12.56-7.86,17.37-13.35
		c5.42-6.18,8.35-13.3,8.47-21.65C458.48,44.17,459.46,38.35,463.12,32.21z M447.12,82.42c2.78,4.71,8.79,7.61,14.87,6.76
		c6.22-0.88,12.1-5.37,12.83-11.38c0.78-6.42,0.17-13.01,0.17-19.64c-2.03,0.34-4.22,1.08-6.38,1c-4.96-0.18-8.22,1.54-9.12,6.7
		c-0.05,0.27-0.23,0.54-0.41,0.77C455.2,71.75,451.31,76.88,447.12,82.42z M480.2,79.61c0.45-0.74,0.68-1.28,1.04-1.71
		c11.49-13.59,6.84-35.02-9.26-42.64c-3.42-1.62-4.83-1.22-6.39,2.22c-2.49,5.5-2.68,11.36-2.71,18.07c4.61-0.97,8.85-1.72,13-2.79
		c3.12-0.81,4.28-0.27,4.3,2.85C480.23,63.34,480.2,71.07,480.2,79.61z"/>
	<path class="st0" d="M540.19,99.75c-1.27,8.02-5.43,11.69-13.39,11.76c-3.27,0.03-6.55-0.27-9.8-0.68
		c-1.68-0.21-3.37-1.15-2.72-3.29c0.6-1.97,2.24-1.4,3.87-1.26c3.73,0.33,7.56,0.77,11.22,0.27c5.64-0.77,6.73-4.48,3.98-9.34
		c-1.83-3.24-3.56-4.35-7.3-3.5c-2.6,0.59-5.52-0.2-8.29-0.37c-1.13,1.69-2.1,3.64-3.56,5.11c-0.68,0.69-2.3,0.44-3.5,0.62
		c0.03-1.2-0.1-2.43,0.15-3.58c0.14-0.69,0.9-1.23,1.32-1.87c1.07-1.62,1.31-2.82-0.66-4.3c-4.36-3.28-6.84-7.84-7.45-13.29
		c-0.17-1.56-0.67-2.25-2.26-2.76c-3.47-1.11-5.38-3.85-5.66-7.38c-0.5-6.3-0.26-12.59,2.04-18.6c3.19-8.35,9.24-12.81,18.2-13.46
		c1.33-0.1,2.61-1.12,3.88-1.79c2.19-1.15,4.24-2.97,6.55-3.41c8.38-1.58,15.93,0.5,22.25,6.39c2.29,2.14,3.5,4.8,3.48,8.01
		c-0.03,7.06,0.05,14.13-0.01,21.19c-0.04,4.47-1.85,7.82-6.38,9.33c-0.61,0.2-1.33,1.07-1.41,1.71
		c-0.83,6.04-3.49,10.98-8.36,14.74c-0.5,0.38-0.9,1.73-0.63,2.1c0.82,1.12,1.86,2.51,3.07,2.84c2,0.55,4.27,0.08,6.32,0.51
		c10.89,2.29,17.36,9.56,20.33,19.75c1.46,5,1.34,10.48,1.73,15.76c0.18,2.46-1.74,3.69-3.78,4.15c-4.7,1.06-9.44,2.29-14.22,2.65
		c-9.35,0.71-18.74,0.87-28.12,1.26c-0.39,0.02-0.9,0.13-1.14-0.07c-0.92-0.76-1.75-1.63-2.61-2.45c0.88-0.7,1.73-1.96,2.66-2.02
		c4.24-0.27,8.52,0,12.76-0.31c8.19-0.59,16.4-1.22,24.55-2.24c5.4-0.68,5.37-1,5.26-6.34c-0.16-7.64-2.4-14.48-7.87-20.01
		C550.78,101.64,546.07,99.5,540.19,99.75z M546.87,56.23c0.34-0.24,0.68-0.48,1.02-0.72c0-3.18-0.31-6.4,0.07-9.53
		c0.71-5.91-2.43-9.31-7.32-11.06c-3.55-1.27-7.49-1.6-11.29-1.98c-1.42-0.14-3.03,0.59-4.39,1.25c-1.91,0.93-2.35,2.68-0.43,3.78
		c2.27,1.29,4.86,2.09,7.4,2.77c1.51,0.4,2.99,0.59,2.93,2.48c-0.06,1.91-1.57,2.27-3.12,2.23c-4.66-0.12-8.7-1.55-11.73-5.36
		c-0.58-0.73-1.64-1.44-2.52-1.49c-8.91-0.59-17.01,8-15.99,17.73c1.03-1.02,2.05-1.57,2.32-2.38c0.64-1.92,1.81-2.36,3.58-1.89
		c1.68,0.45,3.41,0.78,5.03,1.4c9.82,3.77,19.44,3.82,28.87-1.28c1.6-0.86,2.66-0.08,3.44,1.51
		C545.2,54.66,546.14,55.39,546.87,56.23z M540.02,57.88c-10.73,4.67-20.98,3.29-31.22-0.82c-0.14,0.98-0.26,1.44-0.26,1.9
		c0.01,5.42-0.28,10.86,0.14,16.24c0.62,7.99,7.5,13.98,15.49,14.04c8.09,0.06,15.12-5.94,15.77-14.06
		C540.37,69.71,540.02,64.18,540.02,57.88z M503.66,60.16c-2.61,0.89-3.09,2.8-2.92,4.9c0.14,1.69,0.65,3.34,2.92,3.67
		C503.66,65.81,503.66,63.08,503.66,60.16z M544.97,69.01c2.45-1.16,3.05-2.91,2.82-5.03c-0.19-1.71-0.61-3.36-2.82-3.58
		C544.97,63.24,544.97,65.94,544.97,69.01z"/>
	<path class="st0" d="M487.02,89.17c-0.11-1.83-0.42-3.47-0.27-5.06c0.39-4.04,3.82-6.81,7.83-6.55c3.57,0.24,6.22,3.03,6.09,6.48
		c-0.02,0.66-0.02,1.54-0.41,1.94c-0.79,0.8-1.84,1.34-2.78,1.98c-0.58-0.97-1.66-1.95-1.63-2.9c0.05-1.44,0.13-2.87-1.51-2.68
		c-1.07,0.13-2.56,1.37-2.87,2.41c-0.53,1.8,0.27,3.46,2.5,3.78c6.81,1,11.11,4.99,13.58,11.24c0.28,0.71,0.69,1.38,1.14,2
		c10.04,14.06,10.68,29.03,4.08,44.57c-1.15,2.71-2.97,5.23-4.9,7.49c-9.12,10.69-22.82,10.52-31.86-0.26
		c-11.12-13.26-11.77-36.25-1.5-50.52c1.06-1.47,1.95-3.09,2.72-4.74C479.3,93.92,482.68,90.92,487.02,89.17z M472.43,129.9
		c-0.31,0.22-0.63,0.45-0.94,0.67c0.85,2.21,1.07,5.2,2.66,6.52c10.01,8.29,21.31,10.48,33.65,5.8c0.77-0.29,1.78-0.79,2.03-1.44
		c2.2-5.72,2.91-11.65,2.21-18.28C499.96,134.04,486.61,134.52,472.43,129.9z M503.77,105.53c-0.02-6.89-5.14-12.37-11.59-12.42
		c-6.55-0.05-11.8,5.54-11.79,12.53c0.01,6.76,5.31,12.46,11.61,12.5C498.48,118.17,503.79,112.48,503.77,105.53z M508.36,109.5
		c-3.07,8.18-7.97,13.22-16.25,13.23c-8.34,0.01-13.26-5.08-16.37-12.58c-1.2,2.84-2.37,5.53-2.89,8.33
		c-1.32,7.12-1.92,6.28,5.04,8.21c11.85,3.28,22.65,1.43,31.55-7.7c0.67-0.69,1.46-1.88,1.3-2.64
		C510.3,114.26,509.37,112.27,508.36,109.5z M483.84,154.27c7.22,5.37,18.34,2.52,21.54-4.94c-5.12,0-10.47-0.03-15.82,0.04
		c-0.64,0.01-1.42,0.36-1.89,0.81C486.37,151.43,485.18,152.81,483.84,154.27z M476.07,144.57c-0.22,0.2-0.45,0.39-0.67,0.59
		c1.53,1.73,2.92,3.63,4.7,5.04c0.37,0.3,2.18-1.2,3.68-2.09c-2.85-1.41-5-2.48-7.16-3.53
		C476.47,144.51,476.25,144.57,476.07,144.57z"/>
	<path class="st0" d="M459.88,84.24c-1.99-0.81-3.87-1.19-5.2-2.25c-0.71-0.57-0.48-2.31-0.67-3.52c1.11-0.11,2.44-0.66,3.27-0.23
		c1.93,1,3.49,0.98,5.38-0.1c0.73-0.42,2.66-0.2,2.92,0.3c0.45,0.88,0.46,2.82-0.12,3.22C463.82,82.8,461.8,83.4,459.88,84.24z"/>
	<path class="st0" d="M524.06,86.16c-2.79-0.29-5.79-0.73-7.07-3.85c-0.39-0.95,0.39-2.37,0.63-3.57c1.12,0.37,2.59,0.42,3.29,1.17
		c1.97,2.13,4.84,2.04,6.83-0.22c0.64-0.72,2.04-0.76,3.1-1.12c0.33,1.11,1.1,2.32,0.89,3.33C531.23,84.44,527.83,86.2,524.06,86.16
		z"/>
	<path class="st0" d="M491.93,113.54c-1.57-0.99-3.14-1.7-4.29-2.84c-0.44-0.44,0.08-1.85,0.16-2.82c0.85,0.1,1.96-0.09,2.49,0.37
		c1.26,1.1,2.17,1.18,3.51,0.11c0.62-0.49,1.79-0.29,2.71-0.41c-0.03,1.05,0.37,2.54-0.17,3.06
		C495.25,112.07,493.65,112.61,491.93,113.54z"/>
</g>
</svg>
