<?xml version="1.0" encoding="utf-8"?>
<!-- Generator: Adobe Illustrator 27.2.0, SVG Export Plug-In . SVG Version: 6.00 Build 0)  -->
<svg version="1.1" baseProfile="basic" id="Capa_1" xmlns="http://www.w3.org/2000/svg" xmlns:xlink="http://www.w3.org/1999/xlink"
	 x="0px" y="0px" viewBox="0 0 60 60" xml:space="preserve">
<style type="text/css">
	.st0{fill:#E74D15;}
</style>
<g>
	<path class="st0" d="M202.19,31.01c-0.02,0.32-0.02,0.6-0.06,0.87c-0.15,1.08-0.94,1.71-2.02,1.69c-0.24,0-0.5,0.18-0.72,0.33
		c-0.21,0.14-0.33,0.45-0.55,0.52c-0.74,0.22-0.68,0.76-0.74,1.37c-0.18,1.8,0.74,3.39,0.88,5.11c0.14,1.73,0.21,3.46,0.24,5.2
		c0,0.25-0.33,0.67-0.57,0.72c-0.48,0.1-0.61-0.31-0.63-0.74c-0.09-1.76-0.18-3.52-0.29-5.27c-0.01-0.25-0.1-0.49-0.16-0.73
		c-0.07,0-0.15,0-0.22-0.01c-0.12,1.15-0.27,2.29-0.35,3.45c-0.06,0.84-0.02,1.69-0.01,2.53c0,0.43-0.1,0.8-0.6,0.81
		c-0.5,0.01-0.62-0.36-0.63-0.79c-0.06-2.64,0.11-5.24,0.85-7.81c0.32-1.1,0.29-2.32,0.25-3.48c-0.01-0.43-0.51-0.83-0.78-1.23
		c-1.8,0.14-2.5-0.53-2.51-2.33c0-0.84,0-1.68,0-2.57c-0.2,0.02-0.32,0.04-0.43,0.05c-1.51,0.24-2.65-0.62-2.71-2.16
		c-0.06-1.66-0.03-3.32,0-4.98c0.03-1.15,0.43-2.2,1.32-2.92c1.53-1.24,2.12-2.76,1.83-4.69c-0.07-0.49-0.2-1.23,0.63-1.2
		c0.74,0.03,0.51,0.72,0.59,1.2c0.33,2.21-0.27,4.03-2.07,5.45c-0.88,0.7-1.13,1.72-1.11,2.82c0.02,1.23,0.01,2.45,0.01,3.68
		c0,0.2-0.01,0.41,0.01,0.61c0.07,0.61,0.35,1.04,1.01,1.01c0.62-0.03,0.89-0.46,0.9-1.04c0.02-0.77,0.01-1.53,0-2.3
		c-0.01-0.44,0.05-0.87,0.6-0.88c0.55-0.01,0.63,0.42,0.63,0.86c0,1.97,0,3.94,0,5.9c0,0.46,0.01,0.92,0,1.38
		c-0.01,0.44,0.05,0.88,0.6,0.89c0.55,0.01,0.63-0.42,0.63-0.86c0-1.53,0-3.07,0-4.6c0-0.23-0.07-0.5,0.02-0.68
		c0.13-0.26,0.39-0.45,0.59-0.67c0.2,0.22,0.5,0.41,0.59,0.67c0.1,0.3,0.03,0.66,0.03,0.99c0,1.81,0,3.63,0,5.44
		c0,0.44,0.04,0.88,0.61,0.87c0.55,0,0.61-0.45,0.61-0.88c0-1.58,0-3.17,0-4.75c0-0.46,0-0.92,0-1.38c0-0.44-0.02-0.96,0.59-0.96
		c0.66-0.01,0.64,0.53,0.64,1c0,1.02,0,2.04,0,3.07c0,0.64,0.01,1.28,0,1.92c-0.01,0.43,0.08,0.82,0.57,0.84
		c0.54,0.02,0.65-0.41,0.65-0.85c0-1.56,0-3.12,0-4.68c0-0.2-0.06-0.44,0.02-0.61c0.13-0.26,0.36-0.47,0.55-0.7
		c0.22,0.23,0.61,0.44,0.63,0.69c0.08,0.89,0.04,1.79,0.03,2.68c0,0.44,0.05,0.89,0.59,0.9c0.54,0.02,0.64-0.43,0.64-0.87
		c0-2.76,0.01-5.52-0.01-8.28c0-0.4-0.15-0.8-0.29-1.18c-0.67-1.91-0.84-3.89-0.73-5.89c0.02-0.29,0.34-0.76,0.57-0.8
		c0.52-0.08,0.65,0.37,0.63,0.82c-0.11,2.15,0.18,4.23,0.92,6.25c0.12,0.33,0.13,0.7,0.13,1.06c0.01,2.58,0.01,5.16,0.01,7.74
		C204.6,30.33,203.99,30.97,202.19,31.01z"/>
	<path class="st0" d="M183.46,25.1c0-1.41,0-2.79,0-4.17c0-2.36,1.09-3.26,3.43-2.79c0.11-0.21,0.21-0.44,0.33-0.65
		c0.78-1.35,2.62-1.58,3.67-0.47c0.3,0.32,0.55,0.68,0.16,1.06c-0.35,0.35-0.65,0.1-1-0.12c-0.35-0.21-0.84-0.37-1.22-0.29
		c-0.57,0.12-0.69,0.67-0.69,1.22c0,2.91,0,5.83,0,8.74c0,0.23,0.06,0.5-0.04,0.68c-0.12,0.21-0.38,0.48-0.57,0.48
		c-0.2,0-0.45-0.27-0.57-0.49c-0.1-0.18-0.04-0.45-0.04-0.68c0-2.3,0.01-4.6-0.01-6.9c0-0.35-0.02-0.79-0.22-1.01
		c-0.23-0.27-0.71-0.53-1.02-0.46c-0.35,0.07-0.67,0.47-0.9,0.79c-0.13,0.17-0.07,0.49-0.07,0.75c0,4.09,0.01,8.18-0.02,12.27
		c0,0.52,0.16,0.74,0.64,0.94c1.53,0.61,2.54,1.68,2.77,3.37c0.06,0.42,0.08,0.88-0.46,0.98c-0.55,0.1-0.68-0.33-0.74-0.76
		c-0.21-1.5-1.18-2.28-2.54-2.62c-0.68-0.17-0.9-0.49-0.89-1.17c0.03-1.97,0.02-3.94,0.01-5.9c0-1.19-0.63-1.92-1.61-1.91
		c-0.92,0.01-1.58,0.77-1.59,1.89c-0.01,2.2-0.02,4.4,0,6.59c0.01,1.2,0.47,2.24,1.29,3.11c0.9,0.97,1.83,1.93,2.7,2.93
		c0.23,0.26,0.41,0.66,0.42,1c0.05,1.48,0.02,2.96,0.02,4.45c0,0.44-0.04,0.87-0.6,0.88c-0.55,0.01-0.62-0.42-0.62-0.86
		c0-1.33,0.02-2.66-0.02-3.99c-0.01-0.32-0.16-0.7-0.37-0.94c-0.79-0.91-1.62-1.77-2.44-2.65c-1.05-1.14-1.59-2.48-1.6-4.03
		c-0.01-2.15,0.04-4.29-0.01-6.44c-0.06-2.44,2.28-3.85,4.09-2.89C183.19,25.08,183.3,25.08,183.46,25.1z"/>
	<path class="st0" d="M207.98,17.87c0.96,0.17,1.77,0.18,2.44,0.48c0.83,0.37,1.12,1.21,1.12,2.11c0,1.53,0,3.06,0,4.66
		c0.24-0.08,0.4-0.13,0.56-0.18c1.86-0.66,3.77,0.54,3.84,2.52c0.08,2.48,0.06,4.96-0.01,7.44c-0.04,1.31-0.61,2.47-1.51,3.44
		c-0.81,0.89-1.66,1.74-2.44,2.65c-0.24,0.28-0.41,0.7-0.43,1.07c-0.05,1.3-0.02,2.61-0.02,3.91c0,0.44-0.05,0.87-0.62,0.86
		c-0.55-0.01-0.61-0.45-0.61-0.88c0-1.48-0.03-2.97,0.02-4.45c0.01-0.34,0.2-0.74,0.43-1c0.89-1.02,1.83-1.99,2.75-2.99
		c0.79-0.86,1.22-1.88,1.23-3.06c0.01-2.22,0.02-4.45,0-6.67c-0.01-1.06-0.68-1.81-1.58-1.82c-0.92-0.01-1.61,0.71-1.62,1.76
		c-0.02,2.02-0.03,4.04,0.01,6.06c0.01,0.67-0.19,1-0.88,1.17c-1.4,0.34-2.36,1.17-2.56,2.7c-0.05,0.42-0.26,0.81-0.72,0.65
		c-0.23-0.08-0.49-0.53-0.47-0.8c0.14-1.77,1.18-2.9,2.76-3.53c0.49-0.2,0.63-0.43,0.63-0.94c-0.02-4.12-0.01-8.23-0.01-12.35
		c0-0.6-0.09-1.14-0.68-1.42c-0.73-0.35-1.51,0.23-1.52,1.15c-0.02,2.22-0.01,4.45-0.01,6.67c0,0.31,0,0.61,0,0.92
		c0,0.42-0.12,0.8-0.62,0.8c-0.5,0-0.6-0.38-0.6-0.81c0-2.35,0-4.7,0-7.05c0-0.72,0.02-1.43-0.01-2.15
		c-0.03-0.83-0.4-1.22-1.22-1.26c-0.43-0.02-0.86-0.11-0.76-0.6c0.05-0.26,0.48-0.57,0.78-0.61
		C206.69,16.21,207.51,16.85,207.98,17.87z"/>
</g>
<g>
	<path class="st0" d="M13.67,26.82c-0.89,0.49-1.91,1.06-2.93,1.61c-0.73,0.4-1.21,0.16-1.44-0.61c-1.43-4.74-1.45-9.42,0.79-13.93
		c2.07-4.14,6.59-6.36,11.24-5.61c4.33,0.7,7.95,4.36,8.6,8.74c0.7,4.62-1.63,9.11-5.79,11.16c-0.34,0.17-0.68,0.33-1.16,0.56
		c0.31,0.52,0.65,0.96,0.84,1.47c0.13,0.35,0.05,0.78,0.07,1.17c-0.39-0.06-0.78-0.1-1.17-0.18c-0.07-0.01-0.16-0.12-0.19-0.2
		c-0.51-1.51-1.62-1.62-2.93-1.28c-0.12,0.03-0.27,0.04-0.38-0.01c-1.65-0.71-2.29,0.44-3,1.56c-0.48,0.76-0.39,1.42,0.28,1.92
		c0.46,0.34,1.06,0.66,1.62,0.68c1.19,0.05,2.38-0.14,3.57-0.14c0.36,0,0.72,0.28,1.08,0.43c-0.19,0.32-0.32,0.87-0.57,0.93
		c-2.11,0.54-4.24,0.76-6.24-0.4c-1.05-0.61-1.35-1.26-1.68-3.08c-1.76-0.1-3.26,0.52-4.53,1.72c-2.29,2.17-2.91,4.95-2.72,7.97
		c0.02,0.25,0.52,0.62,0.84,0.66c2.25,0.32,4.5,0.65,6.76,0.82c2.01,0.15,4.04,0.11,6.06,0.14c0.55,0.01,1.13,0.11,1.03,0.77
		c-0.05,0.3-0.64,0.72-0.98,0.72c-4.24,0.05-8.47,0-12.65-0.82c-0.28-0.05-0.56-0.12-0.83-0.2c-1.57-0.46-1.76-0.77-1.8-2.4
		c-0.08-3.05,0.61-5.84,2.68-8.16c1.64-1.85,3.7-2.81,6.2-2.74c0.5,0.02,0.98,0.07,1.28-0.53c0.26-0.53,0.34-0.87-0.24-1.26
		C14.8,27.88,14.29,27.35,13.67,26.82z M20.54,9.55c-1.22,0.13-2.17,0.13-3.07,0.35c-3.07,0.73-5.18,2.61-6.41,5.51
		c-1.57,3.71-1.49,7.47-0.5,11.41c2.23-1.16,4.1-2.56,5.67-4.36c1.77-2.02,2.73-4.34,2.77-7.07C19.03,13.46,19.35,11.56,20.54,9.55z
		 M15.32,25.94c0.91,1.54,2.87,2.49,4.85,2.21c2.03-0.29,3.95-1.75,4.19-3.72c0.25-2.1,0.06-4.25,0.06-6.41
		c-0.66,0.11-1.38,0.35-2.08,0.33c-1.62-0.06-2.69,0.5-2.98,2.19c-0.02,0.09-0.08,0.18-0.13,0.25
		C17.96,22.46,16.69,24.13,15.32,25.94z M26.12,25.03c0.15-0.24,0.22-0.42,0.34-0.56c3.75-4.44,2.23-11.43-3.02-13.92
		c-1.12-0.53-1.58-0.4-2.09,0.73c-0.81,1.79-0.87,3.71-0.88,5.9c1.51-0.32,2.89-0.56,4.25-0.91c1.02-0.26,1.4-0.09,1.4,0.93
		C26.13,19.72,26.12,22.24,26.12,25.03z"/>
	<path class="st0" d="M45.71,31.6c-0.42,2.62-1.77,3.82-4.37,3.84c-1.07,0.01-2.14-0.09-3.2-0.22c-0.55-0.07-1.1-0.37-0.89-1.07
		c0.19-0.64,0.73-0.46,1.26-0.41c1.22,0.11,2.47,0.25,3.66,0.09c1.84-0.25,2.2-1.46,1.3-3.05c-0.6-1.06-1.16-1.42-2.38-1.14
		c-0.85,0.19-1.8-0.07-2.71-0.12c-0.37,0.55-0.69,1.19-1.16,1.67c-0.22,0.22-0.75,0.14-1.14,0.2c0.01-0.39-0.03-0.79,0.05-1.17
		c0.05-0.22,0.29-0.4,0.43-0.61c0.35-0.53,0.43-0.92-0.22-1.4c-1.42-1.07-2.23-2.56-2.43-4.34c-0.06-0.51-0.22-0.74-0.74-0.9
		c-1.13-0.36-1.76-1.26-1.85-2.41c-0.16-2.06-0.08-4.11,0.67-6.07c1.04-2.73,3.02-4.18,5.94-4.39c0.43-0.03,0.85-0.37,1.27-0.58
		c0.72-0.37,1.38-0.97,2.14-1.11c2.74-0.52,5.2,0.16,7.26,2.09c0.75,0.7,1.14,1.57,1.14,2.61c-0.01,2.31,0.02,4.61,0,6.92
		c-0.01,1.46-0.6,2.55-2.08,3.05c-0.2,0.07-0.43,0.35-0.46,0.56c-0.27,1.97-1.14,3.59-2.73,4.81c-0.16,0.12-0.29,0.56-0.21,0.68
		c0.27,0.37,0.61,0.82,1,0.93c0.65,0.18,1.39,0.02,2.06,0.17c3.56,0.75,5.67,3.12,6.64,6.45c0.48,1.63,0.44,3.42,0.56,5.15
		c0.06,0.8-0.57,1.2-1.23,1.35c-1.54,0.35-3.08,0.75-4.64,0.86c-3.05,0.23-6.12,0.29-9.18,0.41c-0.13,0.01-0.29,0.04-0.37-0.02
		c-0.3-0.25-0.57-0.53-0.85-0.8c0.29-0.23,0.57-0.64,0.87-0.66c1.39-0.09,2.78,0,4.17-0.1c2.68-0.19,5.35-0.4,8.01-0.73
		c1.76-0.22,1.75-0.32,1.72-2.07c-0.05-2.49-0.78-4.73-2.57-6.53C49.17,32.22,47.63,31.52,45.71,31.6z M47.89,17.39
		c0.11-0.08,0.22-0.16,0.33-0.24c0-1.04-0.1-2.09,0.02-3.11c0.23-1.93-0.79-3.04-2.39-3.61c-1.16-0.41-2.44-0.52-3.69-0.65
		c-0.46-0.05-0.99,0.19-1.43,0.41c-0.62,0.3-0.77,0.88-0.14,1.23c0.74,0.42,1.59,0.68,2.42,0.9c0.49,0.13,0.98,0.19,0.96,0.81
		c-0.02,0.63-0.51,0.74-1.02,0.73c-1.52-0.04-2.84-0.51-3.83-1.75c-0.19-0.24-0.54-0.47-0.82-0.49c-2.91-0.19-5.55,2.61-5.22,5.79
		c0.34-0.33,0.67-0.51,0.76-0.78c0.21-0.63,0.59-0.77,1.17-0.62c0.55,0.15,1.11,0.25,1.64,0.46c3.21,1.23,6.35,1.25,9.43-0.42
		c0.52-0.28,0.87-0.03,1.12,0.49C47.35,16.88,47.65,17.12,47.89,17.39z M45.65,17.93c-3.5,1.53-6.85,1.07-10.19-0.27
		c-0.05,0.32-0.09,0.47-0.09,0.62c0,1.77-0.09,3.54,0.04,5.3c0.2,2.61,2.45,4.56,5.06,4.58c2.64,0.02,4.94-1.94,5.15-4.59
		C45.77,21.79,45.65,19.99,45.65,17.93z M33.78,18.68c-0.85,0.29-1.01,0.91-0.95,1.6c0.04,0.55,0.21,1.09,0.95,1.2
		C33.78,20.52,33.78,19.63,33.78,18.68z M47.27,21.57c0.8-0.38,1-0.95,0.92-1.64c-0.06-0.56-0.2-1.1-0.92-1.17
		C47.27,19.68,47.27,20.56,47.27,21.57z"/>
	<path class="st0" d="M28.35,28.15c-0.04-0.6-0.14-1.13-0.09-1.65c0.13-1.32,1.25-2.23,2.56-2.14c1.17,0.08,2.03,0.99,1.99,2.11
		c-0.01,0.22-0.01,0.5-0.13,0.63c-0.26,0.26-0.6,0.44-0.91,0.65c-0.19-0.32-0.54-0.64-0.53-0.95c0.02-0.47,0.04-0.94-0.49-0.87
		c-0.35,0.04-0.84,0.45-0.94,0.79c-0.17,0.59,0.09,1.13,0.82,1.23c2.22,0.32,3.63,1.63,4.43,3.67c0.09,0.23,0.23,0.45,0.37,0.65
		c3.28,4.59,3.49,9.48,1.33,14.55c-0.38,0.88-0.97,1.71-1.6,2.45c-2.98,3.49-7.45,3.43-10.4-0.09c-3.63-4.33-3.84-11.84-0.49-16.5
		c0.35-0.48,0.64-1.01,0.89-1.55C25.83,29.7,26.93,28.72,28.35,28.15z M23.59,41.44c-0.1,0.07-0.21,0.15-0.31,0.22
		c0.28,0.72,0.35,1.7,0.87,2.13c3.27,2.71,6.96,3.42,10.99,1.89c0.25-0.09,0.58-0.26,0.66-0.47c0.72-1.87,0.95-3.8,0.72-5.97
		C32.58,42.8,28.22,42.95,23.59,41.44z M33.82,33.49c-0.01-2.25-1.68-4.04-3.78-4.06c-2.14-0.02-3.85,1.81-3.85,4.09
		c0,2.21,1.73,4.07,3.79,4.08C32.09,37.62,33.83,35.76,33.82,33.49z M35.32,34.79c-1,2.67-2.6,4.31-5.31,4.32
		c-2.72,0-4.33-1.66-5.34-4.11c-0.39,0.93-0.77,1.8-0.94,2.72c-0.43,2.32-0.63,2.05,1.64,2.68c3.87,1.07,7.4,0.47,10.3-2.51
		c0.22-0.22,0.48-0.61,0.42-0.86C35.95,36.34,35.65,35.69,35.32,34.79z M27.31,49.4c2.36,1.75,5.99,0.82,7.03-1.61
		c-1.67,0-3.42-0.01-5.16,0.01c-0.21,0-0.46,0.12-0.62,0.26C28.14,48.47,27.75,48.93,27.31,49.4z M24.77,46.24
		c-0.07,0.06-0.15,0.13-0.22,0.19c0.5,0.56,0.95,1.19,1.53,1.65c0.12,0.1,0.71-0.39,1.2-0.68c-0.93-0.46-1.63-0.81-2.34-1.15
		C24.9,46.21,24.83,46.24,24.77,46.24z"/>
	<path class="st0" d="M19.49,26.54c-0.65-0.26-1.26-0.39-1.7-0.73c-0.23-0.19-0.16-0.75-0.22-1.15c0.36-0.03,0.8-0.21,1.07-0.07
		c0.63,0.33,1.14,0.32,1.76-0.03c0.24-0.14,0.87-0.07,0.95,0.1c0.15,0.29,0.15,0.92-0.04,1.05C20.78,26.07,20.11,26.26,19.49,26.54z
		"/>
	<path class="st0" d="M40.44,27.16c-0.91-0.09-1.89-0.24-2.31-1.26c-0.13-0.31,0.13-0.77,0.2-1.17c0.37,0.12,0.85,0.14,1.07,0.38
		c0.64,0.69,1.58,0.67,2.23-0.07c0.21-0.24,0.67-0.25,1.01-0.36c0.11,0.36,0.36,0.76,0.29,1.09C42.78,26.6,41.68,27.18,40.44,27.16z
		"/>
	<path class="st0" d="M29.95,36.1c-0.51-0.32-1.02-0.55-1.4-0.93c-0.14-0.14,0.03-0.6,0.05-0.92c0.28,0.03,0.64-0.03,0.81,0.12
		c0.41,0.36,0.71,0.38,1.15,0.04c0.2-0.16,0.58-0.1,0.89-0.13c-0.01,0.34,0.12,0.83-0.05,1C31.04,35.63,30.51,35.8,29.95,36.1z"/>
</g>
</svg>
