<?xml version="1.0" encoding="utf-8"?>
<!-- Generator: Adobe Illustrator 27.2.0, SVG Export Plug-In . SVG Version: 6.00 Build 0)  -->
<svg version="1.1" baseProfile="basic" id="Capa_1" xmlns="http://www.w3.org/2000/svg" xmlns:xlink="http://www.w3.org/1999/xlink"
	 x="0px" y="0px" viewBox="0 0 60 60" xml:space="preserve">
<style type="text/css">
	.st0{fill-rule:evenodd;clip-rule:evenodd;fill:#E74D15;}
</style>
<g>
	<path class="st0" d="M47.87,9.47c0.35,0,0.75,0.06,1.09,0.29c0.46,0.28,0.69,0.74,0.86,1.2c0.17,0.69-0.06,1.43-0.52,2.18
		c-0.86,1.26-2.41,2.29-3.45,2.29c-0.17,0-0.4-0.05-0.57-0.17c-0.28-0.17-0.4-0.57-0.46-0.86c-0.34-0.97,0.06-2.47,0.75-3.5
		C46.14,9.98,47,9.47,47.87,9.47L47.87,9.47z M47.79,7.84c-1.37,0-2.75,0.79-3.65,2.2c-0.86,1.44-1.21,3.33-0.86,4.76
		c0.23,0.86,0.57,1.49,1.21,1.84c0.4,0.23,0.86,0.35,1.38,0.35c0.57,0,1.32-0.17,2.01-0.57c1.09-0.46,2.07-1.44,2.76-2.41
		c0.63-1.09,0.92-2.29,0.63-3.39c-0.23-0.92-0.81-1.72-1.61-2.23C49.06,8.01,48.43,7.84,47.79,7.84L47.79,7.84z"/>
	<path class="st0" d="M53.85,16.04c0.52,0,0.92,0.17,1.21,0.51c0.29,0.35,0.46,0.8,0.35,1.26c-0.06,0.52-0.41,1.09-0.92,1.54
		c-0.57,0.51-1.38,0.91-2.12,1.08c-0.22,0.04-0.42,0.06-0.61,0.06c-0.4,0-0.7-0.09-0.83-0.29c-0.57-0.63,0.29-2.57,1.26-3.43
		C52.7,16.27,53.33,16.04,53.85,16.04L53.85,16.04z M53.86,14.57c-0.9,0-1.85,0.35-2.65,1.07c-0.81,0.63-1.44,1.66-1.84,2.63
		c-0.41,1.2-0.23,2.23,0.28,3.08c0.46,0.51,1.15,0.8,2.01,0.8c0.28,0,0.69,0,0.97-0.12c0.98-0.17,2.07-0.74,2.88-1.42
		c0.74-0.69,1.26-1.54,1.43-2.46c0.12-0.97-0.17-1.83-0.75-2.51C55.6,14.93,54.75,14.57,53.86,14.57L53.86,14.57z"/>
	<path class="st0" d="M38.38,5.94c1.39,0,2.63,0.82,3.34,2.14c0.23,0.4,0.06,0.86-0.34,1.08c-0.12,0.07-0.25,0.1-0.37,0.1
		c-0.29,0-0.55-0.17-0.71-0.44C39.85,8,39.1,7.5,38.3,7.5c-0.09,0-0.17,0-0.25,0.01c-0.51,0.11-1.02,0.4-1.3,0.8
		c-0.39,0.57-0.51,1.37-0.39,2.16c0.28,1.72,1.67,3.48,2.68,3.48c0.03,0,0.06,0,0.09,0c0.68-0.06,1.36-1.31,1.53-2.73
		c0.11-0.4,0.45-0.68,0.85-0.68c0.46,0.06,0.74,0.4,0.74,0.86c-0.22,1.82-1.19,3.81-2.88,4.04h-0.39c-0.91,0-1.81-0.51-2.66-1.48
		c-0.79-0.91-1.36-2.16-1.47-3.3c-0.17-1.19,0.11-2.39,0.74-3.24c0.57-0.8,1.42-1.31,2.32-1.42C38.04,5.96,38.22,5.94,38.38,5.94
		L38.38,5.94z"/>
	<path class="st0" d="M30.28,11.23c0.23,0,0.4,0.11,0.63,0.17c0.52,0.17,0.92,0.68,1.21,1.25c0.57,1.25,0.69,3.3-0.12,3.64
		c-0.1,0.06-0.22,0.09-0.35,0.09c-0.82,0-2.08-1.16-2.58-2.2c-0.29-0.57-0.41-1.25-0.29-1.82c0.12-0.4,0.41-0.79,0.86-0.97
		C29.82,11.35,30.04,11.23,30.28,11.23L30.28,11.23z M30.31,9.74c-0.46,0-0.92,0.1-1.35,0.3c-0.75,0.34-1.44,1.08-1.61,1.99
		c-0.29,0.91-0.17,1.94,0.28,2.85c0.69,1.48,2.41,3.13,4.08,3.13c0.35,0,0.69-0.06,0.98-0.23c0.86-0.4,1.43-1.36,1.55-2.62
		c0.06-1.08-0.17-2.22-0.57-3.13c-0.46-0.91-1.15-1.65-2.01-1.99C31.22,9.84,30.76,9.74,30.31,9.74L30.31,9.74z"/>
	<path class="st0" d="M39.38,16.81c0.72,0,1.43,0.08,2.13,0.25c2.52,0.52,4.7,1.84,6.25,3.84c1.49,1.95,2.07,4.25,1.72,6.26
		c-0.46,2.01-1.72,3.33-3.95,3.67c-0.57,0.06-1.15,0.12-1.89,0.12c-1.32,0-2.92-0.17-4.87-0.57c-2.92-0.57-4.99-1.26-6.36-2.18
		c-1.66-1.09-2.41-2.75-2-4.82c0.34-1.66,1.43-3.21,3.04-4.48c0.13-0.12,0.29-0.16,0.45-0.16c0.25,0,0.48,0.13,0.58,0.33
		c0.34,0.35,0.23,0.86-0.12,1.09c-1.32,0.92-2.18,2.12-2.46,3.39c-0.28,1.38,0.23,2.47,1.55,3.33c1.2,0.8,3.04,1.43,5.79,2.01
		c1.95,0.35,3.44,0.57,4.59,0.57c3.15,0,3.95-1.21,4.24-2.58c0.63-3.16-2.12-7.35-6.76-8.27c-0.6-0.12-1.2-0.18-1.82-0.18
		c-0.85,0-1.7,0.12-2.54,0.35c-0.07,0.01-0.14,0.02-0.21,0.02c-0.37,0-0.68-0.25-0.82-0.54c-0.12-0.46,0.17-0.86,0.52-1.04
		C37.38,16.96,38.39,16.81,39.38,16.81L39.38,16.81z"/>
	<path class="st0" d="M19.87,29.53c0.52,0,1.03,0.17,1.38,0.52c0.52,0.52,0.81,1.21,0.81,2.08c0.06,1.91-1.09,3.99-2.12,4.05
		c-0.35,0-0.69-0.23-0.92-0.41c-0.81-0.69-1.38-2.14-1.38-3.35c0-1.56,0.86-2.83,2.19-2.89H19.87z M19.91,28.02
		c-0.07,0-0.14,0-0.21,0c-2.13,0.06-3.68,2.02-3.62,4.45c0,1.67,0.75,3.46,1.84,4.5c0.57,0.58,1.32,0.87,1.95,0.87h0.11
		c1.1-0.06,2.01-0.81,2.76-2.08c0.57-1.1,0.86-2.48,0.86-3.64c0-1.27-0.52-2.37-1.32-3.18C21.64,28.36,20.81,28.02,19.91,28.02
		L19.91,28.02z"/>
	<path class="st0" d="M28.53,31.81c0.05,0,0.23,0.06,0.35,0.06c0.93,0.23,1.45,1.36,1.1,2.56c-0.23,0.74-0.64,1.54-1.22,2.11
		c-0.41,0.41-0.88,0.64-1.22,0.64c-0.04,0-0.07,0-0.11-0.01c-0.87-0.23-1.22-2.28-0.81-3.59c0.17-0.63,0.52-1.2,0.98-1.48
		C27.89,31.87,28.24,31.81,28.53,31.81L28.53,31.81z M28.46,30.26c-0.62,0-1.27,0.22-1.84,0.58c-0.7,0.45-1.27,1.31-1.57,2.34
		c-0.58,1.94-0.06,4.96,1.85,5.47c0.23,0.06,0.41,0.06,0.58,0.06c0.81,0,1.62-0.34,2.32-1.02c0.81-0.8,1.39-1.82,1.68-2.79
		c0.58-2.05-0.41-3.99-2.26-4.51C28.98,30.3,28.72,30.26,28.46,30.26L28.46,30.26z"/>
	<path class="st0" d="M11.07,31.64c0.66,0,1.33,0.17,1.95,0.5c0.34,0.23,0.52,0.74,0.28,1.09c-0.12,0.24-0.4,0.39-0.69,0.39
		c-0.14,0-0.28-0.03-0.4-0.11c-0.42-0.23-0.84-0.35-1.24-0.35c-0.49,0-0.94,0.17-1.29,0.52C9.23,34.09,9,34.6,9,35.06
		c0,0.74,0.29,1.43,0.86,2.06c0.92,1,2.39,1.67,3.41,1.67c0.38,0,0.7-0.09,0.9-0.29c0.57-0.51,0.46-1.77-0.17-3.15
		c-0.23-0.35-0.12-0.86,0.35-1.09c0.1-0.05,0.21-0.08,0.33-0.08c0.28,0,0.59,0.15,0.76,0.48c0.86,1.6,1.09,3.83-0.17,4.98
		c-0.52,0.46-1.15,0.63-1.95,0.63c-0.4,0-0.92-0.06-1.43-0.17c-1.15-0.4-2.3-1.09-3.16-1.95c-0.92-0.86-1.32-2-1.26-3.09
		c0.06-0.91,0.4-1.83,1.15-2.46C9.27,31.96,10.16,31.64,11.07,31.64L11.07,31.64z"/>
	<path class="st0" d="M6.15,40.89c0.44,0,0.93,0.13,1.41,0.4C8.2,41.64,8.89,42.32,9.23,43c0.34,0.57,0.46,1.14,0.29,1.42
		c-0.17,0.34-0.69,0.51-1.38,0.51c-0.81,0-1.67-0.28-2.3-0.68C5.27,43.97,4.86,43.51,4.69,43c-0.11-0.45-0.06-0.85,0.06-1.36
		C5.05,41.14,5.56,40.89,6.15,40.89L6.15,40.89z M6.28,39.4c-1.16,0-2.23,0.52-2.8,1.55c-0.52,0.74-0.57,1.71-0.28,2.56
		c0.28,0.85,0.92,1.59,1.84,2.1c0.92,0.57,2.01,0.86,3.1,0.86c1.32,0,2.24-0.4,2.76-1.2c0.46-0.8,0.41-1.88-0.23-3.02
		c-0.52-0.91-1.38-1.76-2.24-2.28C7.73,39.59,6.99,39.4,6.28,39.4L6.28,39.4z"/>
	<path class="st0" d="M22.33,39.06c1.09,0,2.18,0.17,3.24,0.51c2.3,0.8,4.07,2.29,4.87,4.18c0.75,1.95,0.35,3.66-1.26,5.27
		c-1.2,1.14-2.98,2.17-5.84,3.32c-2.81,1.2-4.87,1.66-6.53,1.72c-2.18,0-3.73-0.97-4.53-2.86c-0.75-1.49-0.75-3.32-0.06-5.27
		c0.14-0.33,0.44-0.55,0.8-0.55c0.08,0,0.15,0.01,0.24,0.03c0.4,0.17,0.63,0.58,0.46,1.03c-0.52,1.49-0.52,2.98-0.06,4.24
		c0.44,0.98,1.16,1.86,3.08,1.86c1.32,0,3.22-0.42,5.98-1.52c2.58-1.09,4.3-2,5.27-3.09c1.15-1.09,1.43-2.23,0.86-3.49
		c-0.57-1.49-2.01-2.75-3.9-3.38c-0.89-0.31-1.82-0.45-2.76-0.45c-1.18,0-2.37,0.23-3.48,0.68c-1.38,0.57-2.58,1.43-3.56,2.58
		c-0.15,0.18-0.35,0.26-0.54,0.26c-0.18,0-0.35-0.07-0.49-0.21c-0.4-0.29-0.4-0.8-0.06-1.09c1.03-1.32,2.46-2.35,4.13-2.98
		C19.51,39.34,20.92,39.06,22.33,39.06L22.33,39.06z"/>
</g>
</svg>
