<?xml version="1.0" encoding="UTF-8"?>
<svg id="Capa_2" data-name="Capa 2" xmlns="http://www.w3.org/2000/svg" xmlns:xlink="http://www.w3.org/1999/xlink" viewBox="0 0 521 470">
  <defs>
    <style>
      .cls-1 {
        letter-spacing: 0em;
      }

      .cls-2 {
        font-family: Transducer-Bold, Transducer;
        font-size: 34px;
        font-weight: 700;
      }

      .cls-3 {
        font-family: Transducer-Regular, Transducer;
        font-size: 24px;
      }

      .cls-4 {
        fill: #eef0f6;
        filter: url(#drop-shadow-1);
        stroke-width: 0px;
      }

      .cls-5 {
        fill: #606060;
      }

      .cls-6 {
        fill: url(#Degradado_sin_nombre_107);
        fill-rule: evenodd;
      }
    </style>
    <filter id="drop-shadow-1" filterUnits="userSpaceOnUse">
      <feOffset dx="0" dy="0"/>
      <feGaussianBlur result="blur" stdDeviation="5"/>
      <feFlood flood-color="#000" flood-opacity=".2"/>
      <feComposite in2="blur" operator="in"/>
      <feComposite in="SourceGraphic"/>
    </filter>
    <linearGradient id="Degradado_sin_nombre_107" data-name="Degradado sin nombre 107" x1="329.96" y1="189.55" x2="394.34" y2="78.04" gradientUnits="userSpaceOnUse">
      <stop offset="0" stop-color="#e38520"/>
      <stop offset=".11" stop-color="#e27825"/>
      <stop offset="1" stop-color="#dc1a4d"/>
    </linearGradient>
  </defs>
  <g id="Capa_1-2" data-name="Capa 1">
    <g>
      <path class="cls-4" d="m15.57,194.36c45.85,106.47,153.91,218.6,253.75,260.38,18.65-25.17,198-271.96,235.7-322.44-49.41-27.36-90.43-68.02-118.25-117.14-3.22,1.77-356.41,172.7-371.2,179.2Z"/>
      <path class="cls-6" d="m408.65,144.16c-4.88,0-8.86-4.18-8.86-9.25s3.98-9.25,8.86-9.25,8.9,4.14,8.9,9.25-3.98,9.25-8.9,9.25h0Zm0-15.75c-3.42,0-6.25,2.89-6.25,6.5s2.82,6.5,6.25,6.5,6.29-2.94,6.29-6.5-2.82-6.5-6.29-6.5h0Zm-47.93,60.68c-3.72,0-6.72-3.16-6.72-6.98s3-6.98,6.72-6.98,6.68,3.11,6.68,6.98-3,6.98-6.68,6.98h0Zm0-11.21c-2.27,0-4.11,1.87-4.11,4.23s1.84,4.23,4.11,4.23,4.07-1.87,4.07-4.23-1.84-4.23-4.07-4.23h0Zm-45.37-41.06c-1.67,0-3.04-1.42-3.04-3.2s1.37-3.16,3.04-3.16,3.04,1.42,3.04,3.16-1.37,3.2-3.04,3.2h0Zm0-4.54c-.73,0-1.28.62-1.28,1.33,0,.76.6,1.33,1.28,1.33.73,0,1.28-.58,1.28-1.33,0-.71-.56-1.33-1.28-1.33h0Zm55.64,51.3c-.81,0-1.54-.58-1.71-1.47-.17-.98.47-1.96,1.41-2.14,16.48-3.29,29.79-15.7,34.71-32.39.26-.98,1.24-1.51,2.18-1.2.94.27,1.46,1.29,1.16,2.27-5.31,18.02-19.64,31.37-37.41,34.92h-.34Zm-20.16-.53c-.13,0-.3-.04-.43-.09-7.06-1.78-13.74-5.34-19.34-10.14-.77-.67-.86-1.82-.26-2.58.64-.8,1.75-.89,2.48-.22,5.22,4.49,11.43,7.74,17.98,9.43.94.22,1.5,1.2,1.28,2.18-.21.85-.94,1.42-1.71,1.42h0Zm-28.72-21.84c-.6,0-1.16-.31-1.5-.89-3.3-5.52-5.48-11.57-6.51-17.97-.17-1.02.47-1.96,1.41-2.14.98-.13,1.88.53,2.05,1.51.94,5.92,3,11.57,6.03,16.68.51.85.26,2-.6,2.54-.26.18-.6.27-.9.27h0Zm-6.29-33.81h-.3c-.94-.18-1.58-1.11-1.41-2.14,1.5-9.16,5.39-17.75,11.34-24.78.64-.8,1.75-.85,2.48-.18.73.67.81,1.82.17,2.58-5.52,6.54-9.16,14.46-10.53,23-.17.89-.9,1.51-1.75,1.51h0Zm16.91-29.81c-.51,0-1.03-.27-1.37-.71-.64-.76-.51-1.91.26-2.54,5.95-4.98,13.01-8.45,20.41-10.1.94-.22,1.88.44,2.1,1.42.17.98-.43,1.96-1.37,2.14-6.89,1.51-13.44,4.76-18.96,9.39-.3.27-.68.4-1.07.4h0Zm75.07,26.43c-.81,0-1.54-.58-1.71-1.42-4.32-18.37-19.34-32.57-37.32-35.28-.98-.18-1.63-1.07-1.5-2.09.13-.98,1.03-1.69,2.01-1.51,19.39,2.94,35.57,18.24,40.19,38.04.26.98-.34,1.96-1.28,2.22-.13,0-.26.04-.39.04h0Zm-69.93,9.34c1.28,0,2.4-.62,3.08-1.6,1.63,1.25,5.48,5.21,5.39,13.08l.09,2.49c-2.7.49-4.75,2.94-4.75,5.83,0,2.22,1.16,4.14,2.87,5.16v4.76h34.32v-4.76c1.71-1.02,2.82-2.94,2.82-5.16,0-2.94-2.05-5.34-4.75-5.83v-1.07c0-6.45,1.2-10.46,3.51-11.61,1.88-.98,4.24.13,5.52.89-.3.53-.47,1.16-.47,1.78,0,2.18,1.71,3.96,3.81,3.96s3.81-1.78,3.81-3.96c0-1.96-1.37-3.6-3.21-3.92-4.19-7.43-9.93-11.3-16.05-10.9-2.35-8.23-8.99-17.66-26.83-17.84-.77-1.78-2.44-2.98-4.37-2.98-2.65,0-4.79,2.22-4.79,4.94s2.14,4.94,4.79,4.94c.98,0,1.88-.31,2.65-.85,3.85,3.34,4.84,5.96,4.07,15.66-2.4-.27-5.09,0-8.3.93-.68-1.11-1.84-1.87-3.21-1.87-2.1,0-3.81,1.78-3.81,3.96s1.71,3.96,3.81,3.96h0Zm4.79-2.71c9.8,1.74,12.41,9.92,14.17,15.44l.04.13-4.71-.04,2.18,1.69c-.9.49-1.63,1.2-2.18,2.05-.86-1.38-2.23-2.31-3.85-2.58l-.09-2.54c.13-7.92-3.47-12.28-5.56-14.15h0Zm21.91,15.57c0-1.07.86-1.96,1.88-1.96s1.88.89,1.93,1.96h-3.81Zm-1.63,2h2.57l-2.05,1.6.77,2.98-2.53-1.82-2.53,1.82.77-2.98-2.05-1.6h2.53l1.28-3.29,1.24,3.29h0Zm3.94,8.9h-10.36l5.18-3.74,5.18,3.74h0Zm-19.47-7.92c2.1,0,3.81,1.78,3.81,3.96h1.93c0-1.87,1.28-3.47,3-3.87l1.63,1.29-1.67,6.54h-8.69c-2.1,0-3.81-1.78-3.81-3.96s1.71-3.96,3.81-3.96h0Zm29.53,11.88h-30.47v-2.05c.3.04.6.09.94.09h28.59c.34,0,.64-.04.94-.09v2.05h0Zm2.87-7.92c0,2.18-1.71,3.96-3.81,3.96h-8.69l-1.67-6.54,1.63-1.29c1.71.4,3,2,3,3.87h1.93c0-2.18,1.71-3.96,3.81-3.96s3.81,1.78,3.81,3.96h0Zm-.21-20.29c-.64.31-1.24.85-1.8,1.47-.98-.04-1.8-.89-1.8-1.96s.86-2,1.88-2,1.93.89,1.93,2v.4c-.09.04-.13.04-.21.09h0Zm11.64,4.45c0,1.11-.86,2-1.88,2s-1.93-.89-1.93-2,.86-1.96,1.93-1.96,1.88.89,1.88,1.96h0Zm-3.38-3.65c-.21.09-.43.22-.6.36-1.11-.71-3.3-1.87-5.56-1.74-.04-2.14-1.71-3.87-3.81-3.87s-3.81,1.78-3.81,3.96c0,1.74,1.11,3.2,2.65,3.74-1.11,2.31-1.67,5.69-1.67,10.1v1.11c-1.58.27-2.95,1.2-3.81,2.58-.56-.85-1.28-1.56-2.18-2.05l2.18-1.69h-.98c0-2.14-1.71-3.92-3.81-3.92-1.28,0-2.4.67-3.08,1.69l-1.67-4.36-2.57,6.63h-.3v-1.96c0-4.32,1.24-8.41,3.34-11.79.73,1.69,2.4,2.89,4.28,2.89,2.61,0,4.75-2.22,4.75-4.98,0-1.87-.98-3.47-2.48-4.32.94-.49,1.88-.89,2.87-1.16,6.08-1.65,11.94,1.56,16.26,8.76h0Zm-21.23-6.23c1.5.09,2.7,1.38,2.7,2.94,0,1.65-1.28,2.98-2.87,2.98s-2.82-1.33-2.87-2.94c.94-1.11,1.93-2.14,3.04-2.98h0Zm-23.97-17.84c-1.58,0-2.87-1.33-2.87-2.98s1.28-2.98,2.87-2.98,2.82,1.33,2.82,2.98c.04,1.65-1.24,2.98-2.82,2.98h0Zm3.98-.31c.47-.76.77-1.65.77-2.62,12.97.22,21.44,5.83,24.52,16.15-.26.04-.56.09-.81.18-4.58,1.25-8.52,4.72-11.08,9.3-2.82-2.76-5.56-4.72-8.77-5.56.81-9.92-.09-13.48-4.62-17.44h0Zm12.5,24.83c-.98,2.18-1.67,4.58-1.97,7.03-2.05-5.07-5.65-10.81-13.87-12.41,6.93-1.51,11.04.62,15.84,5.38h0Zm-21.27-6.67c1.07,0,1.93.89,1.93,1.96s-.86,1.96-1.93,1.96-1.88-.89-1.88-1.96.86-1.96,1.88-1.96h0Zm17.16-15.88h-1.88v-1.96h1.88v1.96h0Zm7.62,2.98h-1.88v-1.96h1.88v1.96h0Zm-3.81,4.94h-1.88v-1.96h1.88v1.96h0Zm-4.75,2.98h1.88v2h-1.88v-2h0Zm11.43-.98h-1.88v-2h1.88v2h0Zm-2.87,5.96h-1.88v-2h1.88v2h0Zm-35.86,32.92c-2.82,0-5.14,2.4-5.14,5.34s2.31,5.34,5.14,5.34,5.14-2.36,5.14-5.34-2.31-5.34-5.14-5.34h0Zm0,7.12c-.94,0-1.71-.8-1.71-1.78s.77-1.78,1.71-1.78,1.71.8,1.71,1.78-.77,1.78-1.71,1.78h0Zm35.14-78.7c.34.36.77.53,1.2.53s.9-.18,1.2-.53c.68-.67.68-1.82,0-2.49l-1.2-1.25,1.2-1.29c.68-.67.68-1.82,0-2.49-.64-.71-1.75-.71-2.4,0l-1.24,1.25-1.2-1.25c-.64-.71-1.75-.71-2.4,0-.68.67-.68,1.82,0,2.49l1.2,1.29-1.2,1.25c-.68.67-.68,1.82,0,2.49.3.36.77.53,1.2.53s.86-.18,1.2-.53l1.2-1.25,1.24,1.25h0Zm30.17,57.75c0,.98-.77,1.78-1.71,1.78s-1.71-.8-1.71-1.78.77-1.78,1.71-1.78,1.71.8,1.71,1.78h0Zm-1.71,11.39c0,.98-.77,1.78-1.71,1.78s-1.71-.8-1.71-1.78.77-1.78,1.71-1.78,1.71.8,1.71,1.78h0Zm-59.1-45.16c0,.98-.73,1.78-1.71,1.78s-1.71-.8-1.71-1.78.77-1.78,1.71-1.78,1.71.76,1.71,1.78h0Zm10.31,7.12c0,.98-.77,1.78-1.71,1.78s-1.71-.8-1.71-1.78.77-1.78,1.71-1.78,1.71.8,1.71,1.78h0Zm-8.82,21.31c0,1.02-.77,1.78-1.71,1.78s-1.71-.76-1.71-1.78.77-1.78,1.71-1.78,1.71.8,1.71,1.78h0Zm32.57,27.94c0,.98-.77,1.78-1.71,1.78s-1.71-.8-1.71-1.78.73-1.78,1.71-1.78,1.71.8,1.71,1.78h0Zm-28.72-16.19c0,.98-.77,1.78-1.71,1.78s-1.71-.8-1.71-1.78.77-1.78,1.71-1.78,1.71.8,1.71,1.78h0Zm40.23-50.01c0,.98-.77,1.78-1.71,1.78s-1.71-.8-1.71-1.78.77-1.78,1.71-1.78,1.71.8,1.71,1.78h0Zm12.2,15.17c0,.98-.77,1.78-1.71,1.78s-1.71-.8-1.71-1.78.77-1.78,1.71-1.78,1.71.8,1.71,1.78h0Zm-57.78-19.53c0,.98-.73,1.78-1.71,1.78s-1.71-.8-1.71-1.78.77-1.78,1.71-1.78,1.71.8,1.71,1.78h0Zm30.86,100.23c-34.45,0-62.53-29.14-62.53-65s28.08-65,62.53-65,62.57,29.14,62.57,65-28.08,65-62.57,65h0Zm0-126.35c-32.53,0-59.02,27.54-59.02,61.35s26.49,61.35,59.02,61.35,59.02-27.49,59.02-61.35-26.45-61.35-59.02-61.35h0Z"/>
      <text class="cls-5" transform="translate(109.09 212.74) rotate(-.53)"><tspan class="cls-2"><tspan x="0" y="0">Bu</tspan><tspan class="cls-1" x="49.3" y="0">f</tspan><tspan x="61.74" y="0">ón </tspan></tspan><tspan class="cls-3"><tspan x="-.32" y="30">“Si te tomas la vida </tspan></tspan><tspan class="cls-3"><tspan x="-.58" y="60">muy enserio, nunca </tspan></tspan><tspan class="cls-3"><tspan x="-.84" y="90">saldrás vivo.”</tspan></tspan></text>
    </g>
  </g>
</svg>