<?xml version="1.0" encoding="UTF-8"?>
<svg id="Capa_2" data-name="Capa 2" xmlns="http://www.w3.org/2000/svg" xmlns:xlink="http://www.w3.org/1999/xlink" viewBox="0 0 477 361">
  <defs>
    <style>
      .cls-1 {
        font-size: 37px;
      }

      .cls-2 {
        font-family: Transducer-Bold, Transducer;
        font-weight: 700;
      }

      .cls-3 {
        font-family: Transducer-Regular, Transducer;
        font-size: 24px;
      }

      .cls-4 {
        font-size: 34px;
      }

      .cls-5 {
        fill: #eef0f6;
        filter: url(#drop-shadow-1);
        stroke-width: 0px;
      }

      .cls-6 {
        fill: #606060;
      }

      .cls-7 {
        fill: url(#Degradado_sin_nombre_107);
        fill-rule: evenodd;
      }
    </style>
    <filter id="drop-shadow-1" filterUnits="userSpaceOnUse">
      <feOffset dx="0" dy="0"/>
      <feGaussianBlur result="blur" stdDeviation="5"/>
      <feFlood flood-color="#000" flood-opacity=".2"/>
      <feComposite in2="blur" operator="in"/>
      <feComposite in="SourceGraphic"/>
    </filter>
    <linearGradient id="Degradado_sin_nombre_107" data-name="Degradado sin nombre 107" x1="334.15" y1="293.04" x2="334.15" y2="163.33" gradientUnits="userSpaceOnUse">
      <stop offset="0" stop-color="#e38520"/>
      <stop offset=".11" stop-color="#e27825"/>
      <stop offset="1" stop-color="#dc1a4d"/>
    </linearGradient>
  </defs>
  <g id="Capa_1-2" data-name="Capa 1">
    <g>
      <path class="cls-5" d="m377.38,345.4c-14.8-6.5-358.75-172.65-361.96-174.42C40.53,126.61,54.88,75.34,54.88,20.72c0-1.9-.04-3.79-.07-5.68h406.81c.75,96.36-44.17,261.74-84.24,330.36Z"/>
      <path class="cls-7" d="m334.13,163.33c-34.45,0-62.53,29.08-62.53,64.86s28.08,64.86,62.53,64.86,62.57-29.08,62.57-64.86-28.08-64.86-62.57-64.86h0Zm58.63,57.97h-8.17c-1.37-10.65-5.82-20.55-12.67-28.45l5.73-5.95c8.22,9.28,13.7,21.22,15.11,34.4h0Zm-81.02-36.22l8.13,25.26c-1.37,1.24-2.14,3.02-2.14,4.93v11.85c-2.44,3.02-4.11,6.66-4.75,10.65l-.39-.8c0-.27.04-.53.04-.84v-6.57h-1.24c-1.11,0-2.14.22-3.12.62,1.37-4.08-.13-8.61-3.81-10.92l-1.11-.67-3.38,6.3c-.86,1.55-1.24,3.33-1.11,5.1-.81-.27-1.71-.44-2.65-.44h-1.24v6.57c0,2.53.98,4.84,2.61,6.48-.17.04-.34.09-.47.13l-1.2.44,1.67,5.15c.77,2.44,2.4,4.39,4.62,5.55.26.13.51.27.77.36-.94.49-1.8,1.11-2.57,1.95l-.9.93,3.42,3.51c1.97,2.09,4.58,3.11,7.19,3.11s5.22-1.02,7.23-3.11c.86-.89,1.54-1.91,2.01-3.02,3.85,3.77,9.07,6.13,14.77,6.13s10.91-2.35,14.81-6.13c.47,1.11,1.16,2.13,2.01,3.06,2.01,2.04,4.62,3.06,7.19,3.06s5.22-1.02,7.23-3.06l3.42-3.55-.9-.93c-.77-.8-1.67-1.46-2.57-1.95.26-.09.51-.22.77-.36,2.18-1.15,3.85-3.11,4.62-5.55l1.67-5.15-1.2-.44c-.17-.04-.3-.09-.47-.13,1.63-1.64,2.61-3.95,2.61-6.48v-6.53h-1.28c-.9,0-1.8.13-2.65.4.13-1.78-.21-3.51-1.07-5.1l-3.38-6.3-1.11.71c-3.68,2.26-5.18,6.84-3.85,10.88-.94-.4-2.01-.58-3.08-.58h-1.28v6.53c0,.31.04.58.09.84l-.39.8c-.68-4-2.31-7.64-4.75-10.65v-11.85c0-1.91-.77-3.68-2.14-4.93l8.13-25.26h.3c15.19,8.61,24.65,25.13,24.65,43.1,0,27.12-21.23,49.14-47.38,49.14s-47.33-22.02-47.33-49.14c0-17.98,9.42-34.49,24.65-43.1h.3Zm10.23,0h4.92l9.29,28.85h-4.92l-7.7-24.02-2.4.84,7.45,23.17h-2.18c-1.63,0-3.08-1.07-3.6-2.66l-8.43-26.19h4.92l.98,3.06,2.4-.84-.73-2.22h0Zm26.02,3.06l.94-3.06h4.92l-8.39,26.19c-.51,1.6-1.97,2.66-3.6,2.66h-2.18l7.45-23.17-2.4-.84-6.8,21.17-2.48-7.64,5.91-18.38h4.92l-.73,2.22,2.44.84h0Zm17.72,54.38v-3.77c0-3.15,2.18-5.82,5.05-6.44v3.82c0,3.15-2.14,5.82-5.05,6.39h0Zm3.42,2.4l-.81,2.57c-1.03,3.24-4.15,5.15-7.28,4.71l.81-2.53c.13-.27.26-.58.34-.84,1.28-2.71,4.11-4.31,6.93-3.91h0Zm-2.65-13.32c-.73.62-1.37,1.38-1.88,2.18-.09-.18-.17-.4-.26-.58l-1.5-2.84c-1.46-2.71-.9-5.99,1.2-8.03l2.05,3.82c.9,1.69,1.03,3.68.39,5.46h0Zm-3.3,7.15v5.06c-.13.09-.3.22-.43.31-.34-2.97-1.97-5.77-4.58-7.41,0-.18-.04-.4-.04-.58v-3.82c2.87.62,5.05,3.28,5.05,6.44h0Zm-3.34,9.1c-.13.31-.26.62-.39.98l-1.5,4.62s-.09.04-.13.04c.26-.93.39-1.91.39-2.93,0-2.44-.77-4.75-2.23-6.61,0-1.15.26-2.26.77-3.28l.64-1.38c2.53,2,3.51,5.46,2.44,8.57h0Zm5.26,9.32l-1.54,1.6c-2.65,2.8-6.8,3.06-9.84.89l1.5-1.64c2.7-2.8,6.89-3.06,9.89-.84h0Zm-11.68-.98l-1.5,1.64c-.51-.71-.86-1.51-1.11-2.35,1.93-2.44,3.3-5.33,4.11-8.48.51,1.11.77,2.31.77,3.55,0,2.13-.77,4.13-2.27,5.64h0Zm-19.3,4.93c-10.44,0-18.96-8.83-18.96-19.67s8.52-19.67,18.96-19.67,18.96,8.83,18.96,19.67-8.47,19.67-18.96,19.67h0Zm-23.67-7.64s-.13,0-.17-.04l-1.5-4.62c-.09-.36-.21-.67-.34-.98-1.11-3.11-.13-6.57,2.44-8.57l.64,1.38c.47,1.02.73,2.13.73,3.28-1.46,1.86-2.23,4.17-2.23,6.61,0,.98.13,2,.43,2.93h0Zm-.34-17.36c0,.18-.04.4-.04.58-2.61,1.64-4.24,4.44-4.58,7.41-.13-.09-.26-.18-.43-.31v-5.06c0-3.15,2.18-5.82,5.05-6.44v3.82h0Zm-4.66-5.77l-1.5,2.84c-.13.18-.21.4-.3.58-.51-.8-1.16-1.55-1.88-2.18-.64-1.78-.51-3.77.39-5.46l2.05-3.82c2.14,2.04,2.7,5.33,1.24,8.03h0Zm-2.91,8.39v3.77c-2.87-.58-5.05-3.24-5.05-6.39v-3.82c2.87.62,5.05,3.28,5.05,6.44h0Zm3.51,10.08c.13.27.26.58.39.84l.77,2.53c-3.12.44-6.21-1.46-7.23-4.71l-.86-2.57c2.87-.36,5.69,1.2,6.93,3.91h0Zm6.98,9.19l1.5,1.64c-3,2.18-7.15,1.91-9.8-.84l-1.58-1.64c3-2.22,7.19-1.95,9.89.84h0Zm-.47-7.46c0-1.24.3-2.44.81-3.55.77,3.15,2.18,6.04,4.11,8.48-.26.8-.64,1.6-1.11,2.31l-1.54-1.64c-1.46-1.51-2.27-3.51-2.27-5.59h0Zm7.7-26.06v-9.23c0-.8.21-1.51.6-2.13.47.89,1.11,1.64,1.93,2.22v7.24c-.9.58-1.75,1.2-2.53,1.91h0Zm5.05-3.33v-4.71c.34.04.73.09,1.11.09h15.45c.39,0,.77-.04,1.11-.09v4.71c-2.7-1.24-5.69-2-8.82-2s-6.16.75-8.86,2h0Zm22.73,3.33c-.77-.71-1.63-1.33-2.53-1.91v-7.24c.77-.58,1.46-1.33,1.93-2.22.39.62.6,1.33.6,2.13v9.23h0Zm28.42-38.93l-5.73,5.95c-.39-.44-.81-.84-1.2-1.29l5.69-5.95c.43.44.86.84,1.24,1.29h0Zm-18.15-13.23c5.73,2.71,11.04,6.3,15.66,10.7l-5.78,5.95c-2.95-2.75-6.29-5.24-9.89-7.24h0v-9.41h0Zm-24.18-5.37c7.23,0,14.12,1.38,20.5,3.82v11.72h-15.06l-5.44,16.82-5.39-16.82h-15.45v-11.59c6.46-2.53,13.52-3.95,20.84-3.95h0Zm-24.52,5.55v9.41c-3.47,2-6.68,4.39-9.54,7.06l-5.73-5.95c4.49-4.26,9.67-7.86,15.28-10.52h0Zm-16.56,11.76l5.73,5.95c-.39.44-.81.84-1.24,1.29l-5.73-5.95c.43-.44.86-.84,1.24-1.29h0Zm-2.44,2.62l5.73,5.95c-6.85,7.9-11.3,17.8-12.63,28.45h-8.22c1.41-13.18,6.89-25.13,15.11-34.4h0Zm-15.49,41.28c0-1.38.09-2.75.17-4.13h8.13c-.09,1.38-.13,2.75-.13,4.13s.04,2.8.17,4.13h-8.17c-.09-1.33-.17-2.75-.17-4.13h0Zm.39,6.88h8.22c1.37,10.88,5.91,20.69,12.67,28.45l-5.78,5.95c-8.22-9.28-13.7-21.22-15.11-34.4h0Zm16.31,35.73l5.78-5.95c.39.4.81.84,1.24,1.24l-5.78,5.99c-.39-.44-.81-.84-1.24-1.29h0Zm35.69,18.2c-12.71-1.46-24.18-7.15-33.17-15.67l5.78-5.95c7.45,6.97,16.95,11.67,27.39,13.1v8.52h0Zm10.61.27c-1.28.09-2.61.13-3.98.13s-2.65-.04-3.98-.13v-8.48c1.33.09,2.65.18,3.98.18s2.7-.09,3.98-.18v8.48h0Zm2.65-.27v-8.48c10.49-1.42,19.94-6.17,27.43-13.14l5.78,5.95c-8.99,8.52-20.5,14.21-33.21,15.67h0Zm34.45-16.91l-5.73-5.99c.39-.4.81-.84,1.24-1.24l5.73,5.95c-.39.44-.81.84-1.24,1.29h0Zm2.44-2.62l-5.73-5.95c6.72-7.77,11.3-17.58,12.67-28.45h8.17c-1.41,13.18-6.89,25.13-15.11,34.4h0Zm7.19-37.16c.09-1.33.17-2.71.17-4.13s-.04-2.75-.17-4.13h8.17c.09,1.38.13,2.75.13,4.13s-.04,2.8-.13,4.13h-8.17Zm-50.72-7.9c-9.03,0-16.43,7.64-16.43,17.05s7.4,17.05,16.43,17.05,16.43-7.64,16.43-17.05-7.36-17.05-16.43-17.05h0Zm0,31.47c-7.66,0-13.87-6.48-13.87-14.43s6.21-14.43,13.87-14.43,13.91,6.48,13.91,14.43-6.25,14.43-13.91,14.43h0Zm0-23.62c-4.88,0-8.82,4.13-8.82,9.19s3.94,9.19,8.82,9.19,8.86-4.13,8.86-9.19-3.98-9.19-8.86-9.19h0Zm0,15.76c-3.47,0-6.29-2.97-6.29-6.57s2.82-6.53,6.29-6.53,6.33,2.93,6.33,6.53-2.82,6.57-6.33,6.57h0Zm1.71,36.44c0,.98-.77,1.78-1.71,1.78s-1.71-.8-1.71-1.78.77-1.78,1.71-1.78,1.71.8,1.71,1.78h0Zm54.31-56.29c0,.98-.77,1.78-1.71,1.78s-1.71-.8-1.71-1.78.77-1.78,1.71-1.78,1.71.8,1.71,1.78h0Zm-108.88,0c0,.98-.73,1.78-1.71,1.78s-1.71-.8-1.71-1.78.77-1.78,1.71-1.78,1.71.8,1.71,1.78h0Z"/>
      <text class="cls-6" transform="translate(84.42 76.04)"><tspan class="cls-2"><tspan class="cls-4" x="0" y="0">Guerrero</tspan><tspan class="cls-1" x="174.39" y="0"> </tspan></tspan><tspan class="cls-3"><tspan x="0" y="30">“El miedo es una reacción, </tspan></tspan><tspan class="cls-3"><tspan x="0" y="60">el coraje es una decisión.”</tspan></tspan></text>
    </g>
  </g>
</svg>