<?xml version="1.0" encoding="UTF-8"?>
<svg id="Capa_2" data-name="Capa 2" xmlns="http://www.w3.org/2000/svg" xmlns:xlink="http://www.w3.org/1999/xlink" viewBox="0 0 473 363">
  <defs>
    <style>
      .cls-1 {
        font-family: Transducer-Bold, Transducer;
        font-size: 34px;
        font-weight: 700;
      }

      .cls-2 {
        font-family: Transducer-Regular, Transducer;
        font-size: 24px;
      }

      .cls-3 {
        fill: #eef0f6;
        filter: url(#drop-shadow-1);
        stroke-width: 0px;
      }

      .cls-4 {
        fill: #606060;
      }

      .cls-5 {
        fill: url(#Degradado_sin_nombre_107);
        fill-rule: evenodd;
      }
    </style>
    <filter id="drop-shadow-1" filterUnits="userSpaceOnUse">
      <feOffset dx="0" dy="0"/>
      <feGaussianBlur result="blur" stdDeviation="5"/>
      <feFlood flood-color="#000" flood-opacity=".2"/>
      <feComposite in2="blur" operator="in"/>
      <feComposite in="SourceGraphic"/>
    </filter>
    <linearGradient id="Degradado_sin_nombre_107" data-name="Degradado sin nombre 107" x1="378.16" y1="197.98" x2="313.77" y2="309.5" gradientUnits="userSpaceOnUse">
      <stop offset="0" stop-color="#e38520"/>
      <stop offset=".11" stop-color="#e27825"/>
      <stop offset="1" stop-color="#dc1a4d"/>
    </linearGradient>
  </defs>
  <g id="Capa_1-2" data-name="Capa 1">
    <g>
      <path class="cls-3" d="m94.26,15.49c14.8,6.5,360.37,174.5,363.58,176.26-25.12,44.37-39.47,95.63-39.47,150.26,0,1.9.04,3.79.07,5.68H15.13c1.7-123.17,22.75-248.66,79.13-332.21Z"/>
      <path class="cls-5" d="m385.33,284.95c-.51,0-.94-.31-1.11-.8l-3.29-10.27c-.17-.58.13-1.24.73-1.47.6-.22,1.24.13,1.45.76l3.29,10.22c.17.62-.13,1.29-.73,1.51-.13.04-.26.04-.34.04h0Zm-5.47-16.98c-.47,0-.9-.31-1.07-.8l-3.29-10.22c-.17-.62.13-1.29.73-1.51.6-.18,1.24.13,1.41.76l3.29,10.27c.21.62-.13,1.29-.68,1.47-.13.04-.26.04-.38.04h0Zm2.1,2.22c0,.58-.47,1.11-1.07,1.11s-1.07-.53-1.07-1.11c0-.62.47-1.16,1.07-1.16s1.07.53,1.07,1.16h0Zm-6.24,33.56c-.51,0-.94-.31-1.11-.8l-3.29-10.27c-.17-.62.13-1.29.73-1.47.6-.22,1.24.13,1.45.76l3.29,10.22c.17.62-.13,1.29-.73,1.47-.13.04-.26.09-.34.09h0Zm-5.47-16.98c-.47,0-.9-.31-1.07-.8l-3.29-10.22c-.17-.62.13-1.29.73-1.51.6-.18,1.24.13,1.41.76l3.29,10.22c.21.62-.13,1.29-.68,1.51-.13.04-.26.04-.38.04h0Zm2.1,2.18c0,.62-.47,1.11-1.07,1.11s-1.07-.49-1.07-1.11.47-1.11,1.07-1.11,1.07.49,1.07,1.11h0Zm-48.33-52.35c-.51,0-.94-.31-1.07-.8l-3.29-10.22c-.21-.62.09-1.29.68-1.51.6-.18,1.24.13,1.45.76l3.29,10.27c.17.58-.13,1.24-.73,1.47-.13.04-.26.04-.34.04h0Zm-5.47-16.93c-.47,0-.9-.31-1.07-.8l-3.29-10.27c-.17-.62.13-1.29.73-1.47.6-.22,1.24.09,1.45.71l3.25,10.27c.21.62-.09,1.29-.68,1.47-.13.04-.26.09-.38.09h0Zm2.14,2.18c0,.62-.51,1.11-1.11,1.11s-1.07-.49-1.07-1.11.47-1.11,1.07-1.11,1.11.49,1.11,1.11h0Zm-6.29,33.56c-.51,0-.94-.31-1.07-.8l-3.29-10.27c-.21-.58.09-1.24.68-1.47.6-.22,1.24.13,1.45.76l3.29,10.22c.17.62-.13,1.29-.73,1.51-.13.04-.26.04-.34.04h0Zm-5.47-16.98c-.47,0-.9-.31-1.07-.8l-3.29-10.22c-.17-.62.13-1.29.73-1.51.6-.18,1.24.13,1.45.76l3.25,10.27c.21.62-.09,1.29-.68,1.47-.13.04-.26.04-.38.04h0Zm2.14,2.22c0,.58-.51,1.11-1.11,1.11s-1.07-.53-1.07-1.11c0-.62.47-1.16,1.07-1.16s1.11.53,1.11,1.16h0Zm87.68,14.93c-.98,0-1.75-.84-1.75-1.87v-1.33c-.73-28.98-23.14-51.64-51.02-51.64-6.89,0-13.6,1.42-19.93,4.18-.68.31-1.37.67-2.05.98-.9.44-1.92.04-2.35-.84-.43-.89-.04-2,.81-2.44.73-.36,1.5-.71,2.22-1.02,6.76-2.98,13.94-4.49,21.3-4.49,14.33,0,27.84,5.73,38.11,16.09,10.22,10.4,16.04,24.27,16.42,39.11v1.42c0,1.02-.77,1.87-1.75,1.87h0Zm-52.78,54.8c-28.78,0-52.69-23.38-54.4-53.2-.04-1.02.68-1.91,1.67-1.96.98-.04,1.8.71,1.84,1.73,1.63,27.91,23.95,49.78,50.89,49.78,5.86,0,11.59-1.02,17.02-3.02.94-.36,1.92.18,2.27,1.11.3.93-.17,2-1.07,2.31-5.86,2.18-11.98,3.24-18.22,3.24h0Zm38.92-79.82c0,.89-.68,1.56-1.54,1.56s-1.5-.67-1.5-1.56.68-1.56,1.5-1.56c.86,0,1.54.67,1.54,1.56h0Zm-74.76,46.35c0,.89-.68,1.56-1.54,1.56s-1.5-.67-1.5-1.56.68-1.56,1.5-1.56c.86,0,1.54.67,1.54,1.56h0Zm41.06-31.69c-1.97,0-3.81.84-5.09,2.27-1.33-1.42-3.16-2.27-5.13-2.27-3.89,0-7.06,3.29-7.06,7.33,0,2.18.94,4.22,2.57,5.64h0l8.68,7.16c.26.22.6.31.94.31s.64-.09.94-.31l9.02-7.51.13-.09c1.33-1.38,2.05-3.24,2.05-5.2,0-4.04-3.16-7.33-7.06-7.33h0Zm2.91,10.22l-8,6.67-7.7-6.36c-.94-.8-1.45-1.96-1.45-3.2,0-2.31,1.8-4.18,4.02-4.18,1.63,0,3.08,1.02,3.72,2.58.21.62.77.98,1.41.98.6,0,1.15-.36,1.41-.98.6-1.56,2.05-2.58,3.68-2.58,2.22,0,4.02,1.87,4.02,4.18,0,1.11-.38,2.13-1.11,2.89h0Zm-27.54,1.78c-.17-.89-.94-1.42-1.75-1.29-.86.18-1.37.98-1.24,1.82v.04c.13.76.77,1.29,1.5,1.29.09,0,.17,0,.26-.04.86-.13,1.37-.98,1.24-1.82h0Zm3.89-18.8c-.64-.53-1.58-.44-2.14.22,0,0,0,.04-.04.04-.51.67-.38,1.64.26,2.22.3.22.6.31.94.31.43,0,.9-.18,1.2-.58.51-.67.43-1.64-.21-2.22h0Zm-2.74,3.82c-.73-.44-1.67-.13-2.05.67l-.04.04c-.34.76-.04,1.73.73,2.09.21.13.43.18.64.18.56,0,1.11-.31,1.37-.89.38-.76.09-1.69-.64-2.09h0Zm-2.87,8.93c-.86-.04-1.58.62-1.63,1.47v.09c-.04.84.64,1.6,1.5,1.6h.04c.81,0,1.45-.67,1.5-1.51.04-.84-.6-1.6-1.41-1.64h0Zm.94-4.62c-.81-.22-1.63.27-1.84,1.11-.04,0-.04.04-.04.04-.17.84.3,1.69,1.11,1.91.13,0,.26.04.38.04.68,0,1.28-.49,1.45-1.2.21-.84-.26-1.69-1.07-1.91h0Zm8.13-11.24c-.56-.67-1.5-.8-2.14-.22l.94,1.2-.94-1.2c-.68.53-.77,1.51-.26,2.22.3.36.73.58,1.2.58.34,0,.64-.13.94-.36h0c.68-.58.77-1.56.26-2.22h0Zm8.38-3.6c-.17-.84-.98-1.38-1.8-1.16h-.04c-.81.22-1.33,1.07-1.11,1.91.17.71.81,1.2,1.45,1.2.13,0,.26,0,.38-.04.81-.22,1.33-1.07,1.11-1.91h0Zm-4.36,1.33c-.38-.8-1.33-1.11-2.05-.71h0c-.77.4-1.07,1.33-.68,2.13.26.53.81.84,1.37.84.21,0,.47-.04.68-.18.73-.36,1.03-1.33.68-2.09h0Zm27.54,30.04c-.73-.4-1.67-.13-2.05.62l-.04.04c-.38.76-.13,1.73.6,2.13.26.13.51.18.73.18.56,0,1.07-.27,1.37-.8l-1.33-.8,1.33.8c.38-.76.13-1.73-.6-2.18h0Zm2.05-9.2c-.86-.09-1.58.58-1.67,1.42v.09c-.04.84.6,1.6,1.41,1.64h.13c.77,0,1.45-.62,1.5-1.47.09-.84-.56-1.6-1.37-1.69h0Zm1.37-3.42v-.09c-.17-.84-.98-1.38-1.8-1.2-.81.18-1.33,1.02-1.2,1.87.17.76.81,1.29,1.5,1.29.09,0,.21,0,.3-.04.81-.13,1.37-.98,1.2-1.82h0Zm-1.92,8.13c-.81-.27-1.67.22-1.92,1.07-.21.84.21,1.73,1.03,1.96.13.04.3.09.43.09.68,0,1.28-.44,1.45-1.11l.04-.04c.21-.8-.21-1.69-1.03-1.96h0Zm-3.89,8.58c-.6-.58-1.58-.53-2.14.09t-.04.04c-.51.67-.47,1.69.17,2.22.3.27.64.4.98.4.43,0,.86-.18,1.15-.53.56-.67.51-1.64-.13-2.22h0Zm-.81,1.33l-.17-.18.17.18h0Zm-10.39,6.53c-.17-.84-.94-1.42-1.8-1.24-.81.18-1.33,1.02-1.2,1.87.17.76.81,1.29,1.5,1.29.13,0,.21-.04.3-.04h.04c.81-.18,1.37-1.02,1.15-1.87h0Zm8.04-4.44c-.47-.71-1.45-.84-2.14-.31-.64.49-.81,1.47-.3,2.18.3.44.77.67,1.24.67.3,0,.6-.13.9-.31v-.04c.68-.49.81-1.47.3-2.18h0Zm-3.76,2.67c-.34-.8-1.24-1.16-2.01-.8-.77.36-1.11,1.29-.81,2.09.26.58.81.93,1.41.93.21,0,.43-.04.6-.13h.04c.77-.36,1.11-1.29.77-2.09h0Zm27.2-39.11c-.81,0-1.5.71-1.5,1.56v10.58h-5.65c-.38,0-.73-.31-.73-.76v-12.62c0-.44.34-.76.73-.76h1.45c.86,0,1.54-.71,1.54-1.6s-.68-1.6-1.54-1.6h-1.45c-1.58,0-2.91,1.02-3.46,2.49-2.4-.04-4.62-1.11-6.12-3.02l-3.81-4.76c-2.1-2.62-5.22-4.13-8.51-4.13h-15.87c-2.57,0-4.66,2.18-4.66,4.89s2.1,4.89,4.66,4.89h6.5c.86,0,1.54-.71,1.54-1.6s-.68-1.56-1.54-1.56h-6.5c-.9,0-1.63-.8-1.63-1.73s.73-1.73,1.63-1.73h15.87c2.4,0,4.66,1.11,6.16,3.02l3.81,4.71c2.05,2.58,5,4.04,8.17,4.13v9.33h-5.6c-2.74,0-5.35-1.07-7.36-3.07l-8.17-8.22c-.6-.58-.6-1.56-.09-2.18.56-.62,1.54-.67,2.14-.09l6.42,6.13c.64.58,1.58.53,2.14-.09.6-.67.56-1.64-.09-2.22l-6.42-6.13c-1.84-1.78-4.7-1.64-6.42.27-1.63,1.87-1.58,4.8.21,6.58l8.17,8.22c2.57,2.58,5.9,3.96,9.45,3.96h5.9c.6,1.42,1.92,2.4,3.46,2.4h7.19c.81,0,1.5-.71,1.5-1.56v-12.18c0-.89-.68-1.56-1.54-1.56h0Zm-29.81,44h-5.9c-.86,0-1.54.71-1.54,1.6s.68,1.56,1.54,1.56h5.9c.9,0,1.63.8,1.63,1.73s-.73,1.73-1.63,1.73h-15.91c-2.35,0-4.62-1.11-6.12-3.02l-3.81-4.76c-2.05-2.53-5-4-8.17-4.09v-9.33h5.6c2.74,0,5.35,1.07,7.36,3.07l8.17,8.22c.6.58.6,1.56.04,2.18-.56.62-1.5.67-2.1.09l-6.42-6.13c-.64-.58-1.58-.53-2.14.09-.6.62-.56,1.64.09,2.22l6.42,6.13c.86.84,1.97,1.24,3.08,1.24,1.2,0,2.44-.53,3.29-1.51,1.67-1.87,1.58-4.8-.17-6.58l-8.17-8.22c-2.57-2.58-5.94-3.96-9.49-3.96h-5.86c-.6-1.42-1.92-2.4-3.51-2.4h-7.14c-.81,0-1.5.71-1.5,1.56v11.56c0,.89.68,1.56,1.5,1.56.86,0,1.54-.67,1.54-1.56v-9.96h5.6c.43,0,.73.31.73.76v12.62c0,.44-.3.76-.73.76h-1.58c-.81,0-1.5.71-1.5,1.6s.68,1.56,1.5,1.56h1.58c1.58,0,2.95-.98,3.51-2.44,2.35.04,4.58,1.11,6.12,3.02l3.81,4.71c2.1,2.67,5.18,4.18,8.47,4.18h15.87c2.61,0,4.7-2.22,4.7-4.89s-2.1-4.89-4.66-4.89h0Zm-7.57,40.58c-34.47,0-62.53-29.16-62.53-64.98s28.06-65.02,62.53-65.02,62.57,29.16,62.57,65.02-28.06,64.98-62.57,64.98h0Zm0-126.35c-32.55,0-59.02,27.51-59.02,61.38s26.47,61.33,59.02,61.33,59.06-27.51,59.06-61.33-26.47-61.38-59.06-61.38h0Z"/>
      <text class="cls-4" transform="translate(75.12 183.3)"><tspan class="cls-1"><tspan x="0" y="0">Cuidador </tspan></tspan><tspan class="cls-2"><tspan x="0" y="30">“Nadie se ha </tspan></tspan><tspan class="cls-2"><tspan x="0" y="60">hecho pobre </tspan></tspan><tspan class="cls-2"><tspan x="0" y="90">dando.”</tspan></tspan></text>
    </g>
  </g>
</svg>