<?xml version="1.0" encoding="UTF-8"?>
<svg id="Capa_2" data-name="Capa 2" xmlns="http://www.w3.org/2000/svg" xmlns:xlink="http://www.w3.org/1999/xlink" viewBox="0 0 398 477">
  <defs>
    <style>
      .cls-1 {
        font-family: Transducer-Bold, Transducer;
        font-size: 34px;
        font-weight: 700;
      }

      .cls-2 {
        font-family: Transducer-Regular, Transducer;
        font-size: 24px;
      }

      .cls-3 {
        letter-spacing: 0em;
      }

      .cls-4 {
        fill: #eef0f6;
        filter: url(#drop-shadow-1);
        stroke-width: 0px;
      }

      .cls-5 {
        fill: #606060;
      }

      .cls-6 {
        fill: url(#Degradado_sin_nombre_107);
        fill-rule: evenodd;
      }
    </style>
    <filter id="drop-shadow-1" filterUnits="userSpaceOnUse">
      <feOffset dx="0" dy="0"/>
      <feGaussianBlur result="blur" stdDeviation="5"/>
      <feFlood flood-color="#000" flood-opacity=".2"/>
      <feComposite in2="blur" operator="in"/>
      <feComposite in="SourceGraphic"/>
    </filter>
    <linearGradient id="Degradado_sin_nombre_107" data-name="Degradado sin nombre 107" x1="117.87" y1="214.91" x2="117.87" y2="85.19" gradientUnits="userSpaceOnUse">
      <stop offset="0" stop-color="#e38520"/>
      <stop offset=".11" stop-color="#e27825"/>
      <stop offset="1" stop-color="#dc1a4d"/>
    </linearGradient>
  </defs>
  <g id="Capa_1-2" data-name="Capa 1">
    <g>
      <path class="cls-4" d="m382.96,335.66c-81.51,72.34-261.82,123.62-367.21,126.34V52.86c48.04-2.3,93.17-15.7,132.89-37.68,50.38,68.83,212.73,290.34,234.32,320.49Z"/>
      <path class="cls-6" d="m161.4,155.12c-.56,0-1.07-.36-1.24-.93l-1.93-5.95c-.21-.76.17-1.51.86-1.73.69-.27,1.46.13,1.67.84l1.93,5.95c.21.76-.17,1.51-.86,1.73-.13.04-.3.09-.43.09h0Zm-21.34,39.27c-.56,0-1.07-.36-1.24-.93l-1.93-5.95c-.26-.71.13-1.47.81-1.73.69-.22,1.46.18,1.67.89l1.93,5.95c.21.71-.13,1.47-.86,1.73-.13.04-.26.04-.39.04h0Zm-7.97-74.55c-.51,0-1.03-.36-1.24-.93l-1.89-5.95c-.26-.71.13-1.47.81-1.73.69-.22,1.46.18,1.67.89l1.93,5.95c.21.71-.17,1.47-.86,1.73-.13.04-.26.04-.43.04h0Zm16.75-.98c-.56,0-1.07-.4-1.24-.93l-1.93-6c-.21-.71.17-1.47.86-1.69.69-.27,1.41.13,1.67.84l1.89,5.95c.26.71-.13,1.51-.81,1.73-.13.04-.3.09-.43.09h0Zm.77,75.83c-.56,0-1.07-.36-1.24-.93l-3.13-9.68c-.21-.71.17-1.47.86-1.73.69-.22,1.41.18,1.67.89l3.08,9.64c.26.71-.13,1.51-.81,1.73-.13.04-.3.09-.43.09h0Zm6.68-31.94c-.56,0-1.07-.4-1.24-.93l-3.86-11.95c-.21-.71.17-1.47.86-1.73.69-.22,1.41.18,1.67.89l3.81,11.91c.21.71-.13,1.51-.81,1.73-.17.04-.3.09-.43.09h0Zm-16.24-44.74c-.56,0-1.07-.4-1.24-.93l-3.86-11.95c-.21-.71.13-1.47.86-1.73.69-.22,1.41.18,1.63.89l3.86,11.91c.21.71-.13,1.51-.86,1.73-.13.04-.26.09-.39.09h0Zm-22.19,81.83c-13.02,0-25.19-5.33-34.27-14.93-.69-.71-.69-1.87,0-2.58.69-.71,1.8-.71,2.48,0,8.44,8.93,19.75,13.86,31.79,13.86.94,0,1.76.8,1.76,1.82s-.81,1.82-1.76,1.82h0Zm-39.11-22.3c-.56,0-1.11-.31-1.46-.84-4.88-7.95-7.45-17.19-7.45-26.65,0-6.66,1.24-13.15,3.68-19.24.39-.93,1.41-1.33,2.31-.98.9.4,1.33,1.47.94,2.4-2.27,5.64-3.43,11.64-3.43,17.81,0,8.75,2.4,17.33,6.9,24.7.51.84.3,1.95-.56,2.53-.26.18-.6.27-.94.27h0Zm2.36-54.86c-.34,0-.73-.13-1.07-.4-.77-.58-.9-1.73-.3-2.53,7.88-10.66,19.71-17.64,32.52-19.19.94-.09,1.8.62,1.93,1.6.13,1.02-.56,1.91-1.54,2.04-11.87,1.42-22.83,7.91-30.12,17.77-.34.44-.86.71-1.41.71h0Zm44.6-3.82c0,.89-.69,1.6-1.54,1.6s-1.54-.71-1.54-1.6.69-1.6,1.54-1.6,1.54.71,1.54,1.6h0Zm31.02,9.42c-.3-.49-.77-.76-1.33-.76l-25.02.13-1.67-3.24c-.26-.49-.77-.84-1.33-.84-.26,0-.51.09-.73.18-.34.22-.6.53-.73.93-.13.4-.09.84.09,1.24l2.1,4.09c.26.53.77.84,1.37.84l23.31-.18-10.45,19.1c-.21.4-.26.89-.13,1.33l7.97,23.68-12.55-4.58c.04-.62.09-1.24.09-1.95v-25.81c0-3.33-2.61-6.04-5.83-6.04-1.2,0-2.27.36-3.17.93-.86-2.27-2.96-3.87-5.48-3.87-1.16,0-2.23.36-3.13.93-.86-2.27-3-3.87-5.48-3.87-2.91,0-5.36,2.22-5.78,5.15-.81-.49-1.8-.76-2.83-.76-3.21,0-5.83,2.71-5.83,6.04v9.46c-.17.13-.3.27-.47.44-1.07,1.11-1.71,2.62-1.71,4.26v15.28l-11.52,4.31,7.97-23.63c.13-.49.09-.98-.17-1.38l-11.22-18.88h23.22c.56,0,1.07-.31,1.33-.84l10.28-20.17,1.76,3.47c.26.53.77.84,1.33.84.26,0,.51-.04.73-.18.34-.18.64-.53.73-.93.13-.4.09-.84-.09-1.2l-3.13-6.13c-.26-.49-.77-.84-1.33-.84s-1.11.36-1.37.84l-11.18,21.99h-25.02c-.56,0-1.07.31-1.33.8s-.26,1.11.04,1.6l12.3,20.66-8.78,26.12c-.17.58-.04,1.2.39,1.64.26.27.64.44,1.07.44.17,0,.34-.04.51-.09l14.27-5.33s.04.09.04.13c.47.98,1.11,1.87,1.89,2.62.3,2.8.56,6,.56,7.51v.53c0,.89.69,1.6,1.54,1.6h28.66c.77,0,1.46-.67,1.5-1.51l.39-5.95c1.07-.67,2.7-2.18,3.64-5.11l15.17,5.51c.56.18,1.2.04,1.59-.36.43-.44.56-1.11.39-1.64l-8.78-26.17,11.4-20.84c.26-.49.26-1.11,0-1.6h0Zm-36.29,11.24c0-1.6,1.29-2.89,2.78-2.89s2.78,1.29,2.78,2.89v11.15c0,1.6-1.24,2.89-2.78,2.89s-2.78-1.29-2.78-2.89v-11.15h0Zm-8.61-2.93c0-1.6,1.24-2.89,2.78-2.89s2.78,1.29,2.78,2.89v12.75c-.56-.13-1.11-.27-1.71-.27h-3.86v-12.48h0Zm-8.61,4.4c0-1.6,1.24-2.89,2.78-2.89s2.78,1.29,2.78,2.89v8.09h-4.93c-.21,0-.43.04-.64.04v-8.13h0Zm31.45,27.28c0,6.22-3.04,7.6-3.3,7.73-.6.18-.99.71-1.03,1.38l-.34,5.38h-4.16v-3.6c0-.89-.69-1.6-1.5-1.6-.86,0-1.54.71-1.54,1.6v3.6h-5.57v-5.2c0-.84-.69-1.55-1.54-1.55s-1.5.71-1.5,1.55v5.2h-9.9c-.09-1.29-.21-3.07-.34-4.8.51-.13.94-.49,1.11-1.02.3-.8-.09-1.73-.9-2.04h0s-.86-.36-1.67-1.2c-.6-.67-1.41-1.78-1.41-3.78v-14.75c0-1.6,1.24-2.89,2.78-2.89h11.82c1.54,0,2.78,1.29,2.78,2.89s-1.24,2.89-2.78,2.89h-6.43c-.43,0-.81.18-1.11.44-.26.31-.43.71-.43,1.11v5.42c0,.49.21.93.56,1.24.39.31.86.4,1.29.31.04,0,1.07-.22,2.31-.22,1.5,0,2.91.36,3.77.93.56.4.94.84,1.24,1.47.34.71.51,1.64.51,2.75,0,.84.69,1.55,1.54,1.55s1.54-.71,1.54-1.55c0-1.6-.3-3.02-.9-4.22-.39-.8-.94-1.51-1.63-2.13-.6-.53-1.29-.93-2.01-1.24-1.2-.49-2.53-.71-4.07-.71-.39,0-.73,0-1.11.04v-2.04h4.93c1.59,0,3.04-.62,4.16-1.78.81-.8,1.33-1.87,1.54-2.98.6.18,1.2.31,1.84.31,2.1,0,3.94-1.16,4.97-2.84.99.84,2.27,1.38,3.68,1.38.99,0,1.93-.27,2.78-.76v13.73h0Zm0-19.06c0,1.6-1.24,2.89-2.78,2.89s-2.78-1.29-2.78-2.89v-6.75c0-1.6,1.24-2.89,2.78-2.89s2.78,1.29,2.78,2.89v6.75h0Zm-16.79,65.7c-34.49,0-62.55-29.1-62.55-64.86s28.06-64.86,62.55-64.86,62.55,29.1,62.55,64.86-28.06,64.86-62.55,64.86h0Zm0-126.08c-32.56,0-59.04,27.45-59.04,61.22s26.48,61.22,59.04,61.22,59.04-27.45,59.04-61.22-26.48-61.22-59.04-61.22h0Zm-39.11,37.36c0,.98-.73,1.78-1.71,1.78s-1.71-.8-1.71-1.78.77-1.78,1.71-1.78,1.71.8,1.71,1.78h0Z"/>
      <text class="cls-5" transform="translate(54.14 289.39) rotate(-.53)"><tspan class="cls-1"><tspan class="cls-3" x="0" y="0">R</tspan><tspan x="25.87" y="0">ebelde</tspan></tspan><tspan class="cls-2"><tspan x=".05" y="30">“Cada generación </tspan></tspan><tspan class="cls-2"><tspan x=".1" y="60">necesita una </tspan></tspan><tspan class="cls-2"><tspan x=".15" y="90">revolución.”</tspan></tspan></text>
    </g>
  </g>
</svg>