<?xml version="1.0" encoding="UTF-8"?>
<svg id="Capa_2" data-name="Capa 2" xmlns="http://www.w3.org/2000/svg" viewBox="0 0 530.54 119.58">
  <defs>
    <style>
      .cls-1, .cls-2 {
        fill: #fff;
      }

      .cls-2 {
        stroke-width: 0px;
      }
    </style>
  </defs>
  <g id="Capa_1-2" data-name="Capa 1">
    <g>
      <path class="cls-1" d="m2.73,119.58c-1.29,0-2.41-.9-2.68-2.18-.27-1.3.43-2.6,1.66-3.1,23.06-9.27,56.04-22.91,75.86-31.81-13.59-13.75-45.2-25.59-59.51-30.95-3.61-1.35-6.47-2.42-8.36-3.23-5.61-2.39-8.41-5.22-8.57-8.66-.2-4.34,4.15-7.14,5.24-7.77C26.12,17.23,72.65,12.92,82.78,13.13c4.53.1,7.46,1.41,8.72,3.89,1.71,3.37-.68,6.94-.95,7.34-.87,1.24-2.57,1.54-3.81.67-1.23-.86-1.54-2.56-.68-3.79.42-.63.68-1.52.57-1.74-.09-.17-1.02-.83-3.96-.9-.28,0-.58,0-.9,0-12.81,0-55.13,4.95-72.24,17.78-.11.08-.22.15-.34.22-1.1.61-2.62,1.98-2.58,2.82.03.62,1.17,2.14,5.25,3.88,1.78.76,4.58,1.81,8.14,3.14,17.75,6.65,49.2,18.43,62.86,33.68,4.97-2.3,8.64-4.12,10.46-5.26C97.8,27.61,115.33,6.78,116.17,5.81c.04-.04.08-.09.12-.13,3.01-3.07,7.48-6.96,11.6-5.28,3.93,1.6,4.04,7.02,4.04,7.64-.48,32.19-30.34,66.19-33.36,69.54-.49,5.64-.78,11.66-.83,18.06,0,.1,0,.2-.02.3-.76,6.54-.41,13.47.71,15.07.59-.25,2.42-1.39,5.95-6.45l10.71-15.62c.86-1.25,2.56-1.56,3.8-.71,1.25.85,1.56,2.56.71,3.8l-10.72,15.64c-3.41,4.89-7.87,10.27-12.37,8.57-5.51-2.09-5.03-13.85-4.24-20.78.04-4.96.22-9.68.52-14.19-1.84.96-4.06,2.05-6.58,3.24,3.05,4.83,4.19,9.97,2.52,15.37-.79,3.53-8.83,17.38-85.91,19.71-.03,0-.06,0-.08,0Zm78.45-32.75c-17.72,8.1-45.02,19.38-62.7,26.59,31.07-1.81,47.2-5.7,55.43-8.87,7.75-2.98,9.44-5.69,9.44-5.71.02-.16.06-.32.11-.47,1.24-3.89.26-7.76-2.28-11.53ZM120.27,9.44c-.91,1.1-15.32,19.22-20.61,58.27,9.03-11.48,26.45-36.59,26.8-59.7-.01-1.06-.38-2.31-.68-2.55.01.03-1.56-.02-5.51,3.99Z"/>
      <g>
        <path class="cls-2" d="m181.2,69.45c-3.7,0-7.1-.61-10.22-1.84-3.12-1.22-5.82-2.96-8.11-5.2-2.29-2.24-4.08-4.86-5.37-7.87-1.29-3-1.94-6.31-1.94-9.91s.65-6.91,1.94-9.91c1.29-3,3.1-5.62,5.41-7.87,2.31-2.24,5.02-3.97,8.14-5.2,3.12-1.22,6.53-1.84,10.22-1.84s7.2.64,10.36,1.91c3.16,1.27,5.86,3.15,8.07,5.65l-4.51,4.37c-1.85-1.94-3.93-3.38-6.24-4.33-2.31-.95-4.78-1.42-7.42-1.42s-5.26.46-7.59,1.39c-2.33.92-4.36,2.22-6.06,3.88-1.71,1.66-3.04,3.64-3.99,5.92-.95,2.29-1.42,4.77-1.42,7.45s.47,5.16,1.42,7.45c.95,2.29,2.28,4.26,3.99,5.93,1.71,1.66,3.73,2.96,6.06,3.88,2.33.92,4.86,1.39,7.59,1.39s5.1-.47,7.42-1.42c2.31-.95,4.39-2.41,6.24-4.4l4.51,4.37c-2.22,2.49-4.91,4.39-8.07,5.68-3.16,1.29-6.64,1.94-10.43,1.94Z"/>
        <path class="cls-2" d="m222.85,69.31c-3.65,0-6.92-.81-9.81-2.43-2.89-1.62-5.16-3.85-6.83-6.69-1.66-2.84-2.49-6.06-2.49-9.67s.83-6.87,2.49-9.67c1.66-2.79,3.93-5,6.79-6.62,2.86-1.62,6.14-2.43,9.84-2.43s6.92.8,9.81,2.39c2.89,1.59,5.15,3.8,6.79,6.62,1.64,2.82,2.46,6.05,2.46,9.7s-.82,6.88-2.46,9.7c-1.64,2.82-3.9,5.04-6.79,6.65-2.89,1.62-6.16,2.43-9.81,2.43Zm0-5.82c2.36,0,4.47-.53,6.34-1.59,1.87-1.06,3.34-2.57,4.4-4.54,1.06-1.96,1.59-4.24,1.59-6.83s-.53-4.91-1.59-6.83c-1.06-1.92-2.53-3.41-4.4-4.47-1.87-1.06-3.99-1.59-6.34-1.59s-4.46.53-6.31,1.59c-1.85,1.06-3.33,2.55-4.43,4.47-1.11,1.92-1.66,4.19-1.66,6.83s.55,4.86,1.66,6.83c1.11,1.96,2.59,3.48,4.43,4.54,1.85,1.06,3.95,1.59,6.31,1.59Z"/>
        <path class="cls-2" d="m270.74,31.82c3,0,5.65.58,7.94,1.73,2.29,1.16,4.08,2.91,5.37,5.27,1.29,2.36,1.94,5.34,1.94,8.94v21.14h-6.65v-20.37c0-3.56-.87-6.24-2.6-8.04-1.73-1.8-4.17-2.7-7.31-2.7-2.36,0-4.41.46-6.17,1.39-1.76.92-3.11,2.29-4.05,4.09-.95,1.8-1.42,4.04-1.42,6.72v18.92h-6.65v-36.73h6.38v9.91l-1.04-2.63c1.2-2.4,3.05-4.27,5.54-5.61,2.49-1.34,5.4-2.01,8.73-2.01Z"/>
        <path class="cls-2" d="m308.85,69.31c-3.05,0-5.95-.42-8.7-1.25-2.75-.83-4.91-1.85-6.48-3.05l2.77-5.27c1.57,1.06,3.51,1.96,5.82,2.7,2.31.74,4.67,1.11,7.07,1.11,3.09,0,5.32-.44,6.69-1.32,1.36-.88,2.04-2.1,2.04-3.67,0-1.16-.42-2.06-1.25-2.7-.83-.65-1.93-1.13-3.29-1.46-1.36-.32-2.88-.61-4.54-.87-1.66-.25-3.33-.58-4.99-.97-1.66-.39-3.19-.95-4.57-1.66-1.39-.72-2.49-1.71-3.33-2.98-.83-1.27-1.25-2.97-1.25-5.09s.62-4.16,1.87-5.82c1.25-1.66,3.01-2.94,5.3-3.85,2.29-.9,5-1.35,8.14-1.35,2.4,0,4.84.29,7.31.87,2.47.58,4.49,1.4,6.06,2.46l-2.84,5.27c-1.66-1.11-3.4-1.87-5.2-2.29-1.8-.42-3.6-.62-5.41-.62-2.91,0-5.08.47-6.51,1.42-1.43.95-2.15,2.16-2.15,3.64,0,1.25.43,2.21,1.28,2.88.85.67,1.96,1.19,3.33,1.56,1.36.37,2.88.68,4.54.94,1.66.25,3.33.58,4.99.97,1.66.39,3.18.94,4.54,1.63,1.36.69,2.47,1.66,3.33,2.91.85,1.25,1.28,2.91,1.28,4.99,0,2.22-.65,4.14-1.94,5.75-1.29,1.62-3.12,2.88-5.47,3.78-2.36.9-5.18,1.35-8.45,1.35Z"/>
        <path class="cls-2" d="m348.49,69.31c-3.14,0-5.9-.58-8.28-1.73-2.38-1.15-4.23-2.92-5.54-5.3-1.32-2.38-1.97-5.37-1.97-8.97v-21.14h6.65v20.37c0,3.6.87,6.31,2.6,8.11,1.73,1.8,4.17,2.7,7.31,2.7,2.31,0,4.32-.47,6.03-1.42,1.71-.95,3.03-2.33,3.95-4.16.92-1.82,1.39-4.03,1.39-6.62v-18.99h6.65v36.73h-6.31v-9.91l1.04,2.63c-1.2,2.45-3,4.34-5.41,5.68-2.4,1.34-5.11,2.01-8.11,2.01Z"/>
        <path class="cls-2" d="m379.95,68.9V17.48h6.65v51.42h-6.65Z"/>
        <path class="cls-2" d="m394.92,37.64v-5.48h23.42v5.48h-23.42Zm17.88,31.67c-3.7,0-6.56-.99-8.59-2.98-2.03-1.99-3.05-4.83-3.05-8.52V24.13h6.65v33.4c0,1.99.5,3.51,1.49,4.57.99,1.06,2.41,1.59,4.26,1.59,2.08,0,3.81-.58,5.2-1.73l2.08,4.78c-1.02.88-2.23,1.52-3.64,1.94-1.41.42-2.88.62-4.4.62Z"/>
        <path class="cls-2" d="m432.2,25.1c-1.29,0-2.37-.42-3.22-1.25-.86-.83-1.28-1.85-1.28-3.05s.43-2.29,1.28-3.12c.85-.83,1.93-1.25,3.22-1.25s2.37.41,3.22,1.21c.85.81,1.28,1.81,1.28,3.01s-.42,2.3-1.25,3.15c-.83.86-1.92,1.28-3.26,1.28Zm-3.33,43.8v-36.73h6.65v36.73h-6.65Z"/>
        <path class="cls-2" d="m467.83,31.82c3,0,5.65.58,7.94,1.73,2.29,1.16,4.08,2.91,5.37,5.27,1.29,2.36,1.94,5.34,1.94,8.94v21.14h-6.65v-20.37c0-3.56-.87-6.24-2.6-8.04-1.73-1.8-4.17-2.7-7.31-2.7-2.36,0-4.41.46-6.17,1.39-1.76.92-3.11,2.29-4.05,4.09-.95,1.8-1.42,4.04-1.42,6.72v18.92h-6.65v-36.73h6.38v9.91l-1.04-2.63c1.2-2.4,3.05-4.27,5.54-5.61,2.49-1.34,5.4-2.01,8.73-2.01Z"/>
        <path class="cls-2" d="m510.65,67.37c-3.56,0-6.73-.75-9.53-2.25-2.8-1.5-5.01-3.59-6.65-6.27-1.64-2.68-2.46-5.77-2.46-9.29s.82-6.66,2.46-9.32c1.64-2.66,3.86-4.72,6.65-6.2,2.79-1.48,5.97-2.22,9.53-2.22,3.14,0,6.01.64,8.59,1.91,2.59,1.27,4.65,3.22,6.2,5.86,1.55,2.63,2.32,5.96,2.32,9.98s-.77,7.28-2.32,9.91c-1.55,2.63-3.62,4.61-6.2,5.93-2.59,1.32-5.45,1.97-8.59,1.97Zm.83,15.39c-3.37,0-6.64-.47-9.81-1.42-3.17-.95-5.74-2.3-7.73-4.05l3.19-5.13c1.71,1.48,3.81,2.64,6.31,3.5,2.49.85,5.1,1.28,7.83,1.28,4.34,0,7.53-1.02,9.56-3.05s3.05-5.13,3.05-9.29v-7.76l.69-7.28-.35-7.35v-10.05h6.31v31.74c0,6.47-1.62,11.23-4.85,14.28-3.23,3.05-7.97,4.57-14.21,4.57Zm-.07-21.21c2.45,0,4.62-.51,6.51-1.52,1.89-1.02,3.38-2.43,4.47-4.23,1.09-1.8,1.63-3.88,1.63-6.24s-.54-4.44-1.63-6.24c-1.09-1.8-2.58-3.2-4.47-4.19-1.89-.99-4.07-1.49-6.51-1.49s-4.63.5-6.55,1.49c-1.92.99-3.42,2.39-4.5,4.19-1.09,1.8-1.63,3.88-1.63,6.24s.54,4.43,1.63,6.24c1.08,1.8,2.59,3.21,4.5,4.23,1.92,1.02,4.1,1.52,6.55,1.52Z"/>
      </g>
      <g>
        <path class="cls-2" d="m155.56,110.71v-23.8h3.4v23.8h-3.4Z"/>
        <path class="cls-2" d="m175.24,92.52c1.47,0,2.77.28,3.89.85,1.12.57,2,1.43,2.64,2.58.63,1.16.95,2.62.95,4.39v10.37h-3.26v-10c0-1.74-.43-3.06-1.28-3.94-.85-.88-2.05-1.33-3.59-1.33-1.16,0-2.17.23-3.03.68-.86.45-1.52,1.12-1.99,2.01-.46.88-.7,1.98-.7,3.3v9.28h-3.26v-18.02h3.13v4.86l-.51-1.29c.59-1.18,1.5-2.1,2.72-2.75,1.22-.66,2.65-.99,4.28-.99Z"/>
        <path class="cls-2" d="m193.94,110.92c-1.5,0-2.92-.2-4.27-.61-1.35-.41-2.41-.91-3.18-1.5l1.36-2.58c.77.52,1.72.96,2.86,1.33,1.13.36,2.29.54,3.47.54,1.52,0,2.61-.22,3.28-.65.67-.43,1-1.03,1-1.8,0-.57-.2-1.01-.61-1.33-.41-.32-.95-.56-1.61-.71-.67-.16-1.41-.3-2.23-.43-.82-.12-1.63-.28-2.45-.48-.82-.19-1.56-.46-2.24-.82-.68-.35-1.22-.84-1.63-1.46-.41-.62-.61-1.46-.61-2.5s.31-2.04.92-2.86,1.48-1.45,2.6-1.89c1.12-.44,2.45-.66,4-.66,1.18,0,2.37.14,3.59.43,1.21.28,2.2.69,2.98,1.21l-1.39,2.58c-.82-.54-1.67-.92-2.55-1.12-.88-.2-1.77-.31-2.65-.31-1.43,0-2.49.23-3.2.7-.7.46-1.05,1.06-1.05,1.79,0,.61.21,1.08.63,1.41.42.33.96.58,1.63.76.67.18,1.41.33,2.23.46.82.13,1.63.28,2.45.48.82.19,1.56.46,2.23.8.67.34,1.21.82,1.63,1.43.42.61.63,1.43.63,2.45,0,1.09-.32,2.03-.95,2.82s-1.53,1.41-2.69,1.85c-1.16.44-2.54.66-4.15.66Z"/>
        <path class="cls-2" d="m207.44,89.22c-.63,0-1.16-.2-1.58-.61-.42-.41-.63-.91-.63-1.5s.21-1.12.63-1.53c.42-.41.95-.61,1.58-.61s1.16.2,1.58.6c.42.4.63.89.63,1.48s-.2,1.13-.61,1.55c-.41.42-.94.63-1.6.63Zm-1.63,21.49v-18.02h3.26v18.02h-3.26Z"/>
        <path class="cls-2" d="m222.78,109.96c-1.75,0-3.3-.37-4.68-1.1-1.37-.74-2.46-1.76-3.26-3.08s-1.21-2.83-1.21-4.56.4-3.27,1.21-4.57c.8-1.3,1.89-2.32,3.26-3.04,1.37-.73,2.93-1.09,4.68-1.09,1.54,0,2.95.31,4.22.93,1.27.62,2.28,1.58,3.04,2.87.76,1.29,1.14,2.92,1.14,4.9s-.38,3.57-1.14,4.86c-.76,1.29-1.77,2.26-3.04,2.91-1.27.65-2.67.97-4.22.97Zm.41,7.55c-1.65,0-3.26-.23-4.81-.7-1.55-.46-2.82-1.13-3.79-1.99l1.56-2.52c.84.72,1.87,1.3,3.09,1.72,1.22.42,2.5.63,3.84.63,2.13,0,3.69-.5,4.69-1.5,1-1,1.5-2.52,1.5-4.56v-3.81l.34-3.57-.17-3.6v-4.93h3.09v15.57c0,3.17-.79,5.51-2.38,7-1.59,1.5-3.91,2.24-6.97,2.24Zm-.03-10.4c1.2,0,2.27-.25,3.2-.75.93-.5,1.66-1.19,2.19-2.07.53-.88.8-1.9.8-3.06s-.27-2.18-.8-3.06c-.53-.88-1.26-1.57-2.19-2.06-.93-.49-1.99-.73-3.2-.73s-2.27.24-3.21.73c-.94.49-1.68,1.17-2.21,2.06-.53.88-.8,1.9-.8,3.06s.27,2.18.8,3.06c.53.88,1.27,1.58,2.21,2.07.94.5,2.01.75,3.21.75Z"/>
        <path class="cls-2" d="m248.38,92.52c1.47,0,2.77.28,3.89.85,1.12.57,2,1.43,2.64,2.58.63,1.16.95,2.62.95,4.39v10.37h-3.26v-10c0-1.74-.43-3.06-1.28-3.94-.85-.88-2.05-1.33-3.59-1.33-1.16,0-2.17.23-3.03.68-.86.45-1.52,1.12-1.99,2.01s-.7,1.98-.7,3.3v9.28h-3.26v-25.23h3.26v12.07l-.65-1.29c.59-1.18,1.5-2.1,2.72-2.75,1.22-.66,2.65-.99,4.28-.99Z"/>
        <path class="cls-2" d="m259.33,95.38v-2.69h11.49v2.69h-11.49Zm8.77,15.54c-1.81,0-3.22-.49-4.22-1.46s-1.5-2.37-1.5-4.18v-16.52h3.26v16.39c0,.98.24,1.72.73,2.24.49.52,1.18.78,2.09.78,1.02,0,1.87-.28,2.55-.85l1.02,2.35c-.5.43-1.09.75-1.79.95-.69.2-1.41.31-2.16.31Z"/>
        <path class="cls-2" d="m281.15,110.92c-1.5,0-2.92-.2-4.27-.61-1.35-.41-2.41-.91-3.18-1.5l1.36-2.58c.77.52,1.72.96,2.86,1.33,1.13.36,2.29.54,3.47.54,1.52,0,2.61-.22,3.28-.65.67-.43,1-1.03,1-1.8,0-.57-.2-1.01-.61-1.33-.41-.32-.95-.56-1.61-.71-.67-.16-1.41-.3-2.23-.43-.82-.12-1.63-.28-2.45-.48-.82-.19-1.56-.46-2.24-.82-.68-.35-1.22-.84-1.63-1.46-.41-.62-.61-1.46-.61-2.5s.31-2.04.92-2.86,1.48-1.45,2.6-1.89c1.12-.44,2.45-.66,4-.66,1.18,0,2.37.14,3.59.43,1.21.28,2.2.69,2.98,1.21l-1.39,2.58c-.82-.54-1.67-.92-2.55-1.12-.88-.2-1.77-.31-2.65-.31-1.43,0-2.49.23-3.2.7-.7.46-1.05,1.06-1.05,1.79,0,.61.21,1.08.63,1.41.42.33.96.58,1.63.76.67.18,1.41.33,2.23.46.82.13,1.63.28,2.45.48.82.19,1.56.46,2.23.8.67.34,1.21.82,1.63,1.43.42.61.63,1.43.63,2.45,0,1.09-.32,2.03-.95,2.82-.63.79-1.53,1.41-2.69,1.85-1.16.44-2.54.66-4.15.66Z"/>
        <path class="cls-2" d="m308.93,110.98c-1.61,0-3.04-.26-4.28-.78-1.25-.52-2.23-1.25-2.96-2.18-.73-.93-1.09-2.01-1.09-3.23,0-1.07.24-2.04.71-2.92.48-.88,1.24-1.74,2.28-2.57,1.04-.83,2.41-1.68,4.11-2.57,1.38-.73,2.46-1.36,3.25-1.9.78-.54,1.34-1.06,1.67-1.55.33-.49.49-1.01.49-1.58,0-.77-.27-1.4-.82-1.89-.54-.49-1.33-.73-2.35-.73s-1.9.27-2.5.8c-.6.53-.9,1.23-.9,2.09,0,.43.07.84.22,1.24.15.4.42.84.82,1.33.4.49.97,1.11,1.72,1.85l12.58,12.51-1.84,2.18-13.36-13.29c-.79-.79-1.42-1.5-1.87-2.13-.45-.62-.78-1.23-.99-1.82-.2-.59-.31-1.19-.31-1.8,0-1.07.27-2,.8-2.8.53-.8,1.28-1.43,2.24-1.87s2.09-.66,3.38-.66c1.2,0,2.24.2,3.13.6s1.57.96,2.06,1.7c.49.74.73,1.63.73,2.67,0,.91-.22,1.75-.66,2.52-.44.77-1.15,1.52-2.13,2.24-.97.73-2.29,1.51-3.94,2.35-1.36.7-2.43,1.35-3.2,1.96-.77.6-1.32,1.2-1.65,1.79-.33.59-.49,1.24-.49,1.94,0,.75.22,1.41.66,1.99.44.58,1.07,1.03,1.87,1.34.8.32,1.74.48,2.8.48,1.52,0,2.89-.33,4.11-.99,1.22-.66,2.25-1.64,3.08-2.96.83-1.31,1.43-2.95,1.82-4.9l2.62.85c-.45,2.29-1.23,4.23-2.33,5.81-1.1,1.59-2.45,2.8-4.06,3.64-1.61.84-3.42,1.26-5.44,1.26Z"/>
        <path class="cls-2" d="m331.51,110.71l10.78-23.8h3.37l10.81,23.8h-3.57l-9.62-21.9h1.36l-9.62,21.9h-3.5Zm4.59-5.95l.92-2.72h13.4l.99,2.72h-15.3Z"/>
        <path class="cls-2" d="m359.52,110.71v-18.02h3.13v4.9l-.31-1.22c.5-1.25,1.34-2.2,2.52-2.86,1.18-.66,2.63-.99,4.35-.99v3.16c-.14-.02-.27-.03-.39-.03h-.36c-1.75,0-3.13.52-4.15,1.56-1.02,1.04-1.53,2.55-1.53,4.52v8.98h-3.26Z"/>
        <path class="cls-2" d="m380.5,110.92c-1.75,0-3.3-.38-4.67-1.16-1.37-.77-2.45-1.85-3.25-3.23-.79-1.38-1.19-2.99-1.19-4.83s.4-3.44,1.19-4.81c.79-1.37,1.88-2.44,3.25-3.21,1.37-.77,2.93-1.16,4.67-1.16,1.56,0,2.96.34,4.18,1.02,1.22.68,2.19,1.7,2.91,3.06s1.07,3.06,1.07,5.1-.37,3.74-1.1,5.1c-.74,1.36-1.72,2.39-2.94,3.08-1.22.69-2.6,1.04-4.11,1.04Zm.27-2.86c1.13,0,2.16-.26,3.08-.78.92-.52,1.64-1.26,2.18-2.23.53-.96.8-2.08.8-3.35s-.27-2.41-.8-3.35c-.53-.94-1.26-1.67-2.18-2.19-.92-.52-1.94-.78-3.08-.78s-2.19.26-3.09.78c-.91.52-1.63,1.25-2.18,2.19-.54.94-.82,2.06-.82,3.35s.27,2.39.82,3.35c.54.96,1.27,1.71,2.18,2.23.91.52,1.94.78,3.09.78Zm6.02,9.25v-11.39l.34-4.18-.2-4.18v-4.86h3.13v24.62h-3.26Z"/>
        <path class="cls-2" d="m403.83,110.92c-1.54,0-2.9-.28-4.06-.85-1.17-.57-2.07-1.43-2.72-2.6-.65-1.17-.97-2.64-.97-4.4v-10.37h3.26v10c0,1.77.43,3.09,1.27,3.98.85.88,2.05,1.33,3.59,1.33,1.13,0,2.12-.23,2.96-.7.84-.46,1.48-1.14,1.94-2.04.45-.9.68-1.98.68-3.25v-9.32h3.26v18.02h-3.09v-4.86l.51,1.29c-.59,1.2-1.47,2.13-2.65,2.79-1.18.66-2.51.99-3.98.99Z"/>
        <path class="cls-2" d="m427.28,110.92c-1.93,0-3.62-.4-5.08-1.19-1.46-.79-2.6-1.88-3.4-3.26-.8-1.38-1.21-2.97-1.21-4.76s.39-3.38,1.17-4.76c.78-1.38,1.86-2.46,3.23-3.25,1.37-.78,2.92-1.17,4.64-1.17s3.29.39,4.62,1.16c1.34.77,2.39,1.85,3.15,3.25.76,1.39,1.14,3.02,1.14,4.88,0,.14,0,.29-.02.48-.01.18-.03.35-.05.51h-15.33v-2.35h13.63l-1.33.82c.02-1.16-.22-2.19-.71-3.09-.5-.91-1.18-1.61-2.06-2.13-.87-.51-1.89-.76-3.04-.76s-2.14.26-3.03.76c-.88.51-1.58,1.22-2.07,2.14-.5.92-.75,1.97-.75,3.15v.54c0,1.2.28,2.27.83,3.21.56.94,1.33,1.67,2.33,2.19,1,.52,2.14.78,3.43.78,1.07,0,2.03-.18,2.91-.54.87-.36,1.64-.91,2.29-1.63l1.8,2.11c-.82.95-1.83,1.68-3.04,2.18-1.21.5-2.57.75-4.06.75Z"/>
        <path class="cls-2" d="m437.48,95.38v-2.69h11.49v2.69h-11.49Zm8.77,15.54c-1.81,0-3.22-.49-4.22-1.46s-1.5-2.37-1.5-4.18v-16.52h3.26v16.39c0,.98.24,1.72.73,2.24.49.52,1.18.78,2.09.78,1.02,0,1.87-.28,2.55-.85l1.02,2.35c-.5.43-1.09.75-1.79.95-.69.2-1.41.31-2.16.31Z"/>
        <path class="cls-2" d="m454.59,117.51c-.86,0-1.7-.14-2.52-.43-.82-.28-1.52-.7-2.11-1.24l1.39-2.45c.45.43.95.76,1.5.99.54.23,1.12.34,1.73.34.79,0,1.45-.2,1.97-.61.52-.41,1.01-1.13,1.46-2.18l1.12-2.48.34-.41,7.07-16.35h3.2l-8.74,19.82c-.52,1.27-1.1,2.27-1.75,2.99-.65.72-1.35,1.24-2.13,1.55s-1.62.46-2.55.46Zm4.28-6.22l-8.23-18.6h3.4l7,16.05-2.18,2.55Z"/>
        <path class="cls-2" d="m472.81,117.31v-24.62h3.13v4.86l-.2,4.18.34,4.18v11.39h-3.26Zm9.55-6.39c-1.5,0-2.86-.35-4.1-1.04-1.24-.69-2.22-1.72-2.96-3.08-.74-1.36-1.1-3.06-1.1-5.1s.36-3.74,1.07-5.1c.71-1.36,1.69-2.38,2.92-3.06,1.24-.68,2.62-1.02,4.16-1.02,1.77,0,3.33.39,4.69,1.16,1.36.77,2.44,1.84,3.23,3.21.79,1.37,1.19,2.98,1.19,4.81s-.4,3.45-1.19,4.83c-.79,1.38-1.87,2.46-3.23,3.23-1.36.77-2.92,1.16-4.69,1.16Zm-.27-2.86c1.16,0,2.19-.26,3.11-.78.92-.52,1.64-1.26,2.18-2.23s.8-2.08.8-3.35-.27-2.41-.8-3.35-1.26-1.67-2.18-2.19c-.92-.52-1.96-.78-3.11-.78s-2.16.26-3.08.78c-.92.52-1.64,1.25-2.18,2.19-.53.94-.8,2.06-.8,3.35s.27,2.39.8,3.35c.53.96,1.26,1.71,2.18,2.23.92.52,1.94.78,3.08.78Z"/>
        <path class="cls-2" d="m503.72,110.92c-1.81,0-3.42-.4-4.83-1.19s-2.52-1.89-3.33-3.28c-.82-1.39-1.22-2.98-1.22-4.74s.41-3.38,1.22-4.76c.82-1.38,1.93-2.46,3.33-3.25s3.01-1.17,4.83-1.17,3.39.39,4.81,1.17c1.42.78,2.53,1.86,3.33,3.23.8,1.37,1.21,2.96,1.21,4.78s-.4,3.38-1.21,4.76c-.8,1.38-1.92,2.47-3.33,3.26-1.42.79-3.02,1.19-4.81,1.19Zm0-2.86c1.16,0,2.19-.26,3.11-.78.92-.52,1.64-1.26,2.16-2.23.52-.96.78-2.08.78-3.35s-.26-2.41-.78-3.35c-.52-.94-1.24-1.67-2.16-2.19-.92-.52-1.96-.78-3.11-.78s-2.19.26-3.09.78c-.91.52-1.63,1.25-2.18,2.19-.54.94-.82,2.06-.82,3.35s.27,2.39.82,3.35c.54.96,1.27,1.71,2.18,2.23.91.52,1.94.78,3.09.78Z"/>
        <path class="cls-2" d="m522.76,110.92c-1.5,0-2.92-.2-4.27-.61-1.35-.41-2.41-.91-3.18-1.5l1.36-2.58c.77.52,1.72.96,2.86,1.33,1.13.36,2.29.54,3.47.54,1.52,0,2.61-.22,3.28-.65.67-.43,1-1.03,1-1.8,0-.57-.2-1.01-.61-1.33-.41-.32-.95-.56-1.61-.71-.67-.16-1.41-.3-2.23-.43-.82-.12-1.63-.28-2.45-.48-.82-.19-1.56-.46-2.24-.82-.68-.35-1.22-.84-1.63-1.46-.41-.62-.61-1.46-.61-2.5s.31-2.04.92-2.86c.61-.82,1.48-1.45,2.6-1.89,1.12-.44,2.45-.66,4-.66,1.18,0,2.37.14,3.59.43,1.21.28,2.2.69,2.98,1.21l-1.39,2.58c-.82-.54-1.67-.92-2.55-1.12-.88-.2-1.77-.31-2.65-.31-1.43,0-2.49.23-3.2.7-.7.46-1.05,1.06-1.05,1.79,0,.61.21,1.08.63,1.41.42.33.96.58,1.63.76.67.18,1.41.33,2.23.46.82.13,1.63.28,2.45.48.82.19,1.56.46,2.23.8.67.34,1.21.82,1.63,1.43.42.61.63,1.43.63,2.45,0,1.09-.32,2.03-.95,2.82-.63.79-1.53,1.41-2.69,1.85-1.16.44-2.54.66-4.15.66Z"/>
      </g>
    </g>
  </g>
</svg>