<?xml version="1.0" encoding="utf-8"?>
<!-- Generator: Adobe Illustrator 26.2.1, SVG Export Plug-In . SVG Version: 6.00 Build 0)  -->
<svg version="1.1" id="Capa_1" xmlns="http://www.w3.org/2000/svg" xmlns:xlink="http://www.w3.org/1999/xlink" x="0px" y="0px"
	 viewBox="0 0 378 82" style="enable-background:new 0 0 378 82;" xml:space="preserve">
<style type="text/css">
	.st0{fill:none;stroke:#EC9533;stroke-linecap:round;stroke-linejoin:round;stroke-miterlimit:10;}
	.st1{clip-path:url(#SVGID_00000177446418001352777040000001641675982653985449_);fill:#09427A;}
	.st2{clip-path:url(#SVGID_00000177446418001352777040000001641675982653985449_);fill:#3B7CC3;}
	.st3{clip-path:url(#SVGID_00000177446418001352777040000001641675982653985449_);fill:#EC9533;}
	.st4{fill-rule:evenodd;clip-rule:evenodd;fill:#EB5D0B;}
	.st5{fill-rule:evenodd;clip-rule:evenodd;stroke:#000000;stroke-width:9.600000e-03;stroke-miterlimit:22.9256;}
</style>
<g>
	<line class="st0" x1="153.16" y1="2.03" x2="153.16" y2="80.7"/>
	<g>
		<defs>
			<rect id="SVGID_1_" x="0.98" y="-0.12" width="130.8" height="82.23"/>
		</defs>
		<clipPath id="SVGID_00000176036159287505333320000016852440376001706426_">
			<use xlink:href="#SVGID_1_"  style="overflow:visible;"/>
		</clipPath>
		<path style="clip-path:url(#SVGID_00000176036159287505333320000016852440376001706426_);fill:#09427A;" d="M4.9,74.92v-44.2
			c0-1.36,1.1-2.46,2.46-2.46h10.77c1.36,0,2.46,1.1,2.46,2.46v44.2c0,1.36-1.1,2.46-2.46,2.46H7.36C6,77.38,4.9,76.28,4.9,74.92"/>
		<path style="clip-path:url(#SVGID_00000176036159287505333320000016852440376001706426_);fill:#09427A;" d="M59.86,48.6
			l17.82,27.3c0.42,0.64-0.04,1.49-0.81,1.49H61.44c-0.34,0-0.66-0.18-0.83-0.47L46.05,52.15h-0.19v24.27
			c0,0.53-0.43,0.96-0.96,0.96H31.14c-0.53,0-0.96-0.43-0.96-0.96V7.46c0-2.84,2.3-5.15,5.15-5.15h9.58c0.53,0,0.96,0.43,0.96,0.96
			v40.66h0.19l14.26-18.62c0.18-0.24,0.46-0.38,0.76-0.38h16.05c0.82,0,1.27,0.96,0.73,1.59L59.94,47.45
			C59.66,47.77,59.63,48.24,59.86,48.6"/>
		<path style="clip-path:url(#SVGID_00000176036159287505333320000016852440376001706426_);fill:#3B7CC3;" d="M128.19,55.93H91.25
			c-0.74,0-1.3,0.7-1.11,1.41c1.46,5.38,6.32,8.51,11.99,8.51c4.06,0,6.75-1.55,9.2-4.5c0.22-0.26,0.54-0.42,0.88-0.42h13.74
			c0.84,0,1.4,0.89,1.02,1.65c-4.59,9.27-13,15.98-23.59,16.47c-14.87,0.69-27.84-10.76-28.95-25.6
			c-1.21-16.12,11.29-30.31,27.42-30.31c16.06,0,27.69,12.85,27.69,28.63c0,1.08-0.06,2.11-0.21,3.17
			C129.24,55.51,128.77,55.93,128.19,55.93 M101.94,36.37c-5.13,0-9.72,2.71-11.46,7.43c-0.28,0.75,0.27,1.55,1.07,1.55h20.78
			c0.8,0,1.34-0.8,1.07-1.55C111.66,39.08,107.07,36.37,101.94,36.37"/>
		<path style="clip-path:url(#SVGID_00000176036159287505333320000016852440376001706426_);fill:#3B7CC3;" d="M125.28,27.61
			c2.98-1.32,4.32-4.81,2.98-7.79c-1.4-3.11-5.14-4.39-8.15-2.77l-4.52,2.43c-1.65,0.89-1.64,3.28,0.04,4.12
			c2.24,1.12,4.32,2.5,6.21,4.11c0.68,0.58,1.62,0.71,2.44,0.35L125.28,27.61z"/>
		<path style="clip-path:url(#SVGID_00000176036159287505333320000016852440376001706426_);fill:#EC9533;" d="M12.74,2.31
			c-5.22,0-9.46,4.24-9.46,9.46c0,4.95,3.81,9.02,8.66,9.43v4.24c0,0.32,0.19,0.6,0.48,0.73c0.1,0.05,0.22,0.07,0.33,0.07
			c0.19,0,0.39-0.07,0.54-0.21c0.3-0.27,7.28-6.58,8.61-11.83c0.03-0.1,0.05-0.2,0.07-0.29c0-0.01,0.01-0.04,0.01-0.05
			c0-0.01,0-0.02,0.01-0.03c0.15-0.68,0.23-1.38,0.23-2.07C22.2,6.55,17.96,2.31,12.74,2.31"/>
	</g>
	<g>
		<g>
			<path class="st4" d="M212.34,27.42c0,5.05-4.09,9.14-9.14,9.14c-5.05,0-9.14-4.09-9.14-9.14c0-5.05,4.09-9.14,9.14-9.14
				C208.25,18.28,212.34,22.38,212.34,27.42z"/>
			<path class="st4" d="M230.62,27.42c0,5.05-4.09,9.14-9.14,9.14c-5.05,0-9.14-4.09-9.14-9.14c0-5.05,4.09-9.14,9.14-9.14
				C226.52,18.28,230.62,22.38,230.62,27.42z"/>
			<path class="st4" d="M212.34,63.98c0,5.05-4.09,9.14-9.14,9.14c-5.05,0-9.14-4.09-9.14-9.14c0-5.05,4.09-9.14,9.14-9.14
				C208.25,54.84,212.34,58.93,212.34,63.98z"/>
			<path class="st4" d="M230.62,63.98c0,5.05-4.09,9.14-9.14,9.14c-5.05,0-9.14-4.09-9.14-9.14c0-5.05,4.09-9.14,9.14-9.14
				C226.52,54.84,230.62,58.93,230.62,63.98z"/>
			<path class="st4" d="M194.06,45.7c0,5.05-4.09,9.14-9.14,9.14c-5.05,0-9.14-4.09-9.14-9.14s4.09-9.14,9.14-9.14
				C189.97,36.56,194.06,40.65,194.06,45.7z"/>
			<path class="st4" d="M212.34,45.7c0,5.05-4.09,9.14-9.14,9.14c-5.05,0-9.14-4.09-9.14-9.14s4.09-9.14,9.14-9.14
				C208.25,36.56,212.34,40.65,212.34,45.7z"/>
		</g>
		<path class="st5" d="M298.42,38.08c-0.99,0-1.92,0.18-2.79,0.55c-0.87,0.36-1.66,0.9-2.37,1.6V38.4h-2.8l-0.01,20h2.77l0.01-6.95
			c0.75,0.73,1.56,1.27,2.45,1.64c0.89,0.36,1.86,0.55,2.9,0.55c1.17,0,2.22-0.19,3.14-0.56c0.92-0.37,1.76-0.95,2.54-1.73
			c0.72-0.73,1.27-1.56,1.65-2.5c0.38-0.94,0.57-1.92,0.57-2.95c0-2.24-0.77-4.1-2.29-5.59C302.67,38.82,300.74,38.08,298.42,38.08
			L298.42,38.08z M302.06,49.54c-1.04,0.99-2.28,1.49-3.72,1.49c-1.42,0-2.64-0.52-3.66-1.55c-1.02-1.03-1.53-2.29-1.53-3.75
			c0-1.37,0.52-2.56,1.56-3.58c1.04-1.02,2.24-1.53,3.6-1.53c1.48,0,2.74,0.51,3.76,1.52c1.02,1.02,1.54,2.28,1.54,3.78
			C303.61,47.34,303.09,48.55,302.06,49.54L302.06,49.54L302.06,49.54z M261.6,40.22c-0.77-0.76-1.64-1.33-2.59-1.71
			c-0.96-0.39-1.99-0.58-3.11-0.58c-1.04,0-2.05,0.22-3.02,0.65c-0.97,0.43-1.84,1.05-2.62,1.85c-0.72,0.73-1.26,1.55-1.63,2.46
			c-0.37,0.91-0.55,1.9-0.55,2.95c0,1.01,0.2,1.99,0.61,2.96c0.41,0.97,0.97,1.81,1.69,2.54c0.76,0.76,1.61,1.34,2.56,1.73
			c0.95,0.39,1.99,0.59,3.12,0.59c1.1,0,2.14-0.21,3.11-0.64c0.97-0.43,1.85-1.05,2.64-1.88c0.68-0.72,1.21-1.56,1.59-2.52
			c0.38-0.96,0.57-1.95,0.57-2.97c0-1-0.2-1.96-0.61-2.9C262.93,41.81,262.35,40.97,261.6,40.22L261.6,40.22L261.6,40.22z
			 M259.63,49.51c-0.96,0.99-2.16,1.49-3.59,1.49c-1.45,0-2.67-0.5-3.64-1.48c-0.97-0.99-1.46-2.23-1.46-3.71
			c0-1.49,0.49-2.74,1.46-3.73c0.97-0.99,2.18-1.49,3.61-1.49c1.45,0,2.65,0.49,3.62,1.47c0.97,0.98,1.45,2.22,1.45,3.72
			C261.08,47.27,260.6,48.52,259.63,49.51L259.63,49.51L259.63,49.51z M238.56,40.61c1.06,0,1.98,0.23,2.74,0.67
			c0.76,0.45,1.39,1.13,1.87,2.04h3.04c-0.59-1.7-1.53-3.02-2.82-3.96c-1.3-0.94-2.83-1.41-4.59-1.41c-1.13,0-2.19,0.21-3.17,0.63
			c-0.99,0.42-1.88,1.04-2.67,1.86c-0.72,0.75-1.26,1.57-1.63,2.48c-0.37,0.9-0.55,1.87-0.55,2.91c0,1.01,0.2,1.99,0.61,2.96
			c0.4,0.97,0.97,1.81,1.69,2.54c0.75,0.76,1.6,1.34,2.53,1.72c0.93,0.38,1.97,0.58,3.12,0.58c1.82,0,3.36-0.46,4.63-1.38
			c1.27-0.92,2.22-2.28,2.87-4.07h-3.04c-0.44,0.9-1.05,1.59-1.83,2.08c-0.78,0.49-1.66,0.74-2.63,0.74c-1.45,0-2.65-0.5-3.62-1.48
			c-0.97-0.99-1.45-2.23-1.45-3.71c0-1.47,0.48-2.7,1.43-3.7C236.02,41.11,237.19,40.61,238.56,40.61L238.56,40.61L238.56,40.61z
			 M281.82,38.16c-1.13,0-2.09,0.21-2.88,0.63c-0.78,0.42-1.41,1.07-1.89,1.93c-0.47-0.88-1.08-1.53-1.83-1.94
			c-0.74-0.41-1.67-0.62-2.79-0.62c-0.83,0-1.56,0.16-2.21,0.49c-0.65,0.33-1.22,0.83-1.73,1.49V38.4h-2.46v14.84h2.63v-7.6
			c0-1.73,0.28-3,0.85-3.82c0.57-0.82,1.44-1.23,2.63-1.23c1.15,0,1.99,0.41,2.52,1.23c0.53,0.82,0.79,2.13,0.79,3.94v7.49h2.69
			v-7.76c0-1.77,0.26-3.03,0.79-3.78c0.53-0.75,1.39-1.12,2.59-1.12c1.03,0,1.83,0.35,2.41,1.05c0.58,0.7,0.86,1.69,0.86,2.95v8.65
			h2.78v-9.07c0-1.83-0.52-3.29-1.57-4.38C284.95,38.71,283.56,38.16,281.82,38.16L281.82,38.16L281.82,38.16z M364.8,40.2
			c-0.73-0.73-1.54-1.27-2.42-1.63c-0.89-0.36-1.86-0.54-2.91-0.54c-1.17,0-2.22,0.19-3.14,0.56c-0.92,0.37-1.77,0.95-2.54,1.73
			c-0.71,0.71-1.25,1.53-1.64,2.47c-0.38,0.94-0.57,1.92-0.57,2.97c0,2.24,0.76,4.1,2.29,5.59c1.53,1.49,3.45,2.23,5.76,2.23
			c0.99,0,1.92-0.18,2.79-0.55c0.87-0.36,1.66-0.9,2.37-1.61v1.82h2.8V38.4h-2.8V40.2L364.8,40.2z M363.38,49.5
			c-1.04,1.02-2.24,1.53-3.6,1.53c-1.49,0-2.75-0.51-3.78-1.52c-1.03-1.02-1.55-2.28-1.55-3.78c0-1.43,0.51-2.64,1.55-3.63
			c1.03-0.99,2.27-1.48,3.73-1.48c1.42,0,2.64,0.52,3.67,1.56c1.03,1.04,1.54,2.29,1.54,3.74C364.94,47.28,364.42,48.48,363.38,49.5
			L363.38,49.5L363.38,49.5z M374.96,38.65c-0.59,0.32-1.12,0.81-1.57,1.46l0-1.71h-2.6v14.84h2.77v-8.26
			c0-1.37,0.27-2.36,0.81-2.97c0.54-0.62,1.42-0.97,2.67-1.06v-2.79C376.24,38.17,375.55,38.33,374.96,38.65L374.96,38.65
			L374.96,38.65z M346.72,44.54c-0.24-0.09-0.57-0.21-0.99-0.36c-1.49-0.53-2.24-1.21-2.24-2.04c0-0.49,0.17-0.89,0.5-1.22
			c0.33-0.33,0.74-0.49,1.24-0.49c0.55,0,0.99,0.15,1.32,0.46c0.33,0.31,0.51,0.73,0.56,1.28h2.66c-0.08-1.34-0.5-2.38-1.27-3.12
			c-0.77-0.74-1.82-1.11-3.13-1.11c-1.26,0-2.32,0.42-3.2,1.27c-0.87,0.85-1.31,1.87-1.31,3.08c0,0.7,0.13,1.32,0.39,1.86
			c0.26,0.53,0.67,1.01,1.22,1.44c0.3,0.23,0.99,0.55,2.09,0.94c0.41,0.14,0.73,0.26,0.95,0.35c0.65,0.25,1.13,0.56,1.42,0.92
			c0.29,0.36,0.44,0.8,0.44,1.32c0,0.59-0.21,1.08-0.62,1.46c-0.41,0.38-0.94,0.57-1.59,0.57c-0.68,0-1.25-0.25-1.7-0.76
			c-0.45-0.51-0.68-1.15-0.68-1.94h-2.6c0.08,1.61,0.56,2.88,1.44,3.81c0.88,0.93,2.03,1.39,3.45,1.39c1.42,0,2.59-0.44,3.52-1.32
			c0.93-0.88,1.4-1.99,1.4-3.32c0-1.14-0.25-2.06-0.75-2.74C348.73,45.57,347.89,45,346.72,44.54L346.72,44.54L346.72,44.54z
			 M322.17,40.8c-0.76-0.73-1.51-1.31-2.25-1.73c-0.74-0.42-1.52-0.72-2.33-0.89c-1.33-0.25-2.63-0.2-3.9,0.16
			c-1.27,0.36-2.38,1-3.33,1.93c-0.8,0.78-1.4,1.64-1.77,2.58c-0.38,0.94-0.54,1.96-0.49,3.06c0.04,1.02,0.26,1.97,0.67,2.87
			c0.41,0.89,0.99,1.71,1.76,2.45c0.74,0.71,1.61,1.27,2.6,1.68c1,0.41,2.01,0.62,3.06,0.65c1.11,0.03,2.14-0.15,3.09-0.52
			c0.75-0.29,1.46-0.72,2.12-1.27v-3.85c0,0.05,0,0.08,0,0.09c0-0.05-0.01-0.25-0.14-0.07c-0.47,0.71-0.65,0.87-1.3,1.49
			c-0.91,0.87-1.97,1.35-3.19,1.44c-1.22,0.09-2.37-0.23-3.44-0.94l9.16-8.83L322.17,40.8L322.17,40.8z M311.62,48.17
			c-0.63-1.07-0.89-2.15-0.76-3.24c0.12-1.09,0.62-2.05,1.47-2.88c0.84-0.81,1.8-1.26,2.89-1.37c1.09-0.1,2.21,0.16,3.35,0.79
			L311.62,48.17L311.62,48.17z M331.72,38.16c-0.89,0-1.69,0.16-2.38,0.47c-0.7,0.31-1.33,0.8-1.91,1.46V38.4h-2.66v14.84h2.77V46.5
			c0-2.06,0.31-3.54,0.93-4.43c0.62-0.9,1.62-1.34,3-1.34c1.27,0,2.21,0.38,2.81,1.14c0.61,0.76,0.91,1.93,0.91,3.5v7.88h2.78v-8.46
			c0-2.13-0.54-3.77-1.62-4.91C335.28,38.73,333.74,38.16,331.72,38.16L331.72,38.16z"/>
	</g>
</g>
</svg>
