<?xml version="1.0" encoding="utf-8"?>
<!-- Generator: $$$/GeneralStr/196=Adobe Illustrator 27.6.0, SVG Export Plug-In . SVG Version: 6.00 Build 0)  -->
<svg version="1.1" id="Capa_1" xmlns="http://www.w3.org/2000/svg" xmlns:xlink="http://www.w3.org/1999/xlink" x="0px" y="0px"
	 viewBox="0 0 300 65" style="enable-background:new 0 0 300 65;" xml:space="preserve">
<style type="text/css">
	.st0{fill:#EB5D0B;}
	.st1{fill:#1A1818;}
	.st2{fill:none;stroke:#F3A93C;stroke-width:2;stroke-linecap:round;stroke-linejoin:round;stroke-miterlimit:10;}
	.st3{fill:#004B85;}
	.st4{fill:#4B90CD;}
	.st5{fill:#498DCB;}
	.st6{fill:#F3A93C;}
</style>
<g>
	<path class="st0" d="M162,29.5L162,29.5c4,0,7.3,3.3,7.3,7.3c0,4-3.3,7.3-7.3,7.3c-4,0-7.3-3.3-7.3-7.3
		C154.7,32.8,158,29.5,162,29.5 M162,29.5L162,29.5c4,0,7.3-3.3,7.3-7.3c0-4-3.3-7.3-7.3-7.3c-4,0-7.3,3.3-7.3,7.3
		C154.7,26.3,158,29.5,162,29.5 M183.8,22.3L183.8,22.3c0-4-3.3-7.3-7.3-7.3c-4,0-7.3,3.3-7.3,7.3c0,4,3.3,7.3,7.3,7.3
		C180.5,29.5,183.8,26.3,183.8,22.3 M147.4,29.5L147.4,29.5c-4,0-7.3,3.3-7.3,7.3c0,4,3.3,7.3,7.3,7.3c4,0,7.3-3.3,7.3-7.3
		C154.7,32.8,151.5,29.5,147.4,29.5 M162,58.6L162,58.6c4,0,7.3-3.3,7.3-7.3c0-4-3.3-7.3-7.3-7.3c-4,0-7.3,3.3-7.3,7.3
		C154.7,55.3,158,58.6,162,58.6 M183.8,51.3L183.8,51.3c0-4-3.3-7.3-7.3-7.3c-4,0-7.3,3.3-7.3,7.3c0,4,3.3,7.3,7.3,7.3
		C180.5,58.6,183.8,55.3,183.8,51.3"/>
	<path class="st1" d="M235,31.1c-0.8,0-1.5,0.1-2.2,0.4c-0.7,0.3-1.3,0.7-1.9,1.3v-1.4h-2.2l0,15.9h2.2l0-5.5c0.6,0.6,1.2,1,2,1.3
		c0.7,0.3,1.5,0.4,2.3,0.4c0.9,0,1.8-0.2,2.5-0.4c0.7-0.3,1.4-0.8,2-1.4c0.6-0.6,1-1.2,1.3-2c0.3-0.7,0.5-1.5,0.5-2.3
		c0-1.8-0.6-3.3-1.8-4.4C238.4,31.7,236.9,31.1,235,31.1 M237.9,40.2c-0.8,0.8-1.8,1.2-3,1.2c-1.1,0-2.1-0.4-2.9-1.2
		c-0.8-0.8-1.2-1.8-1.2-3c0-1.1,0.4-2,1.2-2.8c0.8-0.8,1.8-1.2,2.9-1.2c1.2,0,2.2,0.4,3,1.2c0.8,0.8,1.2,1.8,1.2,3
		C239.2,38.5,238.7,39.4,237.9,40.2 M205.8,32.8c-0.6-0.6-1.3-1.1-2.1-1.4c-0.8-0.3-1.6-0.5-2.5-0.5c-0.8,0-1.6,0.2-2.4,0.5
		c-0.8,0.3-1.5,0.8-2.1,1.5c-0.6,0.6-1,1.2-1.3,2c-0.3,0.7-0.4,1.5-0.4,2.3c0,0.8,0.2,1.6,0.5,2.4c0.3,0.8,0.8,1.4,1.3,2
		c0.6,0.6,1.3,1.1,2,1.4c0.8,0.3,1.6,0.5,2.5,0.5c0.9,0,1.7-0.2,2.5-0.5c0.8-0.3,1.5-0.8,2.1-1.5c0.5-0.6,1-1.2,1.3-2
		c0.3-0.8,0.5-1.6,0.5-2.4c0-0.8-0.2-1.6-0.5-2.3C206.8,34.1,206.4,33.4,205.8,32.8 M204.2,40.2c-0.8,0.8-1.7,1.2-2.9,1.2
		c-1.2,0-2.1-0.4-2.9-1.2c-0.8-0.8-1.2-1.8-1.2-2.9c0-1.2,0.4-2.2,1.2-3c0.8-0.8,1.7-1.2,2.9-1.2c1.1,0,2.1,0.4,2.9,1.2
		c0.8,0.8,1.2,1.8,1.2,3C205.4,38.4,205,39.4,204.2,40.2 M187.5,33.1c0.8,0,1.6,0.2,2.2,0.5c0.6,0.4,1.1,0.9,1.5,1.6h2.4
		c-0.5-1.4-1.2-2.4-2.2-3.1c-1-0.7-2.2-1.1-3.6-1.1c-0.9,0-1.7,0.2-2.5,0.5c-0.8,0.3-1.5,0.8-2.1,1.5c-0.6,0.6-1,1.2-1.3,2
		c-0.3,0.7-0.4,1.5-0.4,2.3c0,0.8,0.2,1.6,0.5,2.4c0.3,0.8,0.8,1.4,1.3,2c0.6,0.6,1.3,1.1,2,1.4c0.7,0.3,1.6,0.5,2.5,0.5
		c1.4,0,2.7-0.4,3.7-1.1c1-0.7,1.8-1.8,2.3-3.2h-2.4c-0.3,0.7-0.8,1.3-1.5,1.7c-0.6,0.4-1.3,0.6-2.1,0.6c-1.1,0-2.1-0.4-2.9-1.2
		c-0.8-0.8-1.2-1.8-1.2-2.9c0-1.2,0.4-2.1,1.1-2.9C185.5,33.5,186.4,33.1,187.5,33.1 M221.8,31.2c-0.9,0-1.7,0.2-2.3,0.5
		c-0.6,0.3-1.1,0.8-1.5,1.5c-0.4-0.7-0.9-1.2-1.5-1.5c-0.6-0.3-1.3-0.5-2.2-0.5c-0.7,0-1.2,0.1-1.8,0.4c-0.5,0.3-1,0.7-1.4,1.2v-1.4
		h-2v11.8h2.1v-6c0-1.4,0.2-2.4,0.7-3c0.5-0.7,1.1-1,2.1-1c0.9,0,1.6,0.3,2,1c0.4,0.7,0.6,1.7,0.6,3.1v6h2.1V37c0-1.4,0.2-2.4,0.6-3
		c0.4-0.6,1.1-0.9,2.1-0.9c0.8,0,1.5,0.3,1.9,0.8c0.5,0.6,0.7,1.3,0.7,2.3v6.9h2.2v-7.2c0-1.5-0.4-2.6-1.2-3.5
		C224.3,31.6,223.2,31.2,221.8,31.2 M287.8,32.8c-0.6-0.6-1.2-1-1.9-1.3c-0.7-0.3-1.5-0.4-2.3-0.4c-0.9,0-1.8,0.1-2.5,0.4
		c-0.7,0.3-1.4,0.8-2,1.4c-0.6,0.6-1,1.2-1.3,2c-0.3,0.7-0.5,1.5-0.5,2.4c0,1.8,0.6,3.3,1.8,4.4c1.2,1.2,2.7,1.8,4.6,1.8
		c0.8,0,1.5-0.1,2.2-0.4c0.7-0.3,1.3-0.7,1.9-1.3v1.4h2.2V31.3h-2.2V32.8z M286.7,40.2c-0.8,0.8-1.8,1.2-2.9,1.2
		c-1.2,0-2.2-0.4-3-1.2c-0.8-0.8-1.2-1.8-1.2-3c0-1.1,0.4-2.1,1.2-2.9c0.8-0.8,1.8-1.2,3-1.2c1.1,0,2.1,0.4,2.9,1.2
		c0.8,0.8,1.2,1.8,1.2,3C287.9,38.4,287.5,39.4,286.7,40.2 M295.9,31.5c-0.5,0.3-0.9,0.6-1.3,1.2v-1.4h-2.1v11.8h2.2v-6.6
		c0-1.1,0.2-1.9,0.6-2.4c0.4-0.5,1.1-0.8,2.1-0.8v-2.2C296.9,31.2,296.3,31.3,295.9,31.5 M273.4,36.2c-0.2-0.1-0.5-0.2-0.8-0.3
		c-1.2-0.4-1.8-1-1.8-1.6c0-0.4,0.1-0.7,0.4-1c0.3-0.3,0.6-0.4,1-0.4c0.4,0,0.8,0.1,1,0.4c0.3,0.2,0.4,0.6,0.4,1h2.1
		c-0.1-1.1-0.4-1.9-1-2.5c-0.6-0.6-1.4-0.9-2.5-0.9c-1,0-1.8,0.3-2.5,1c-0.7,0.7-1,1.5-1,2.4c0,0.6,0.1,1,0.3,1.5
		c0.2,0.4,0.5,0.8,1,1.1c0.2,0.2,0.8,0.4,1.7,0.8c0.3,0.1,0.6,0.2,0.8,0.3c0.5,0.2,0.9,0.4,1.1,0.7c0.2,0.3,0.4,0.6,0.4,1.1
		c0,0.5-0.2,0.9-0.5,1.2c-0.3,0.3-0.8,0.5-1.3,0.5c-0.5,0-1-0.2-1.4-0.6c-0.4-0.4-0.5-0.9-0.5-1.5h-2.1c0.1,1.3,0.4,2.3,1.1,3
		c0.7,0.7,1.6,1.1,2.7,1.1c1.1,0,2.1-0.4,2.8-1.1c0.7-0.7,1.1-1.6,1.1-2.6c0-0.9-0.2-1.6-0.6-2.2C275,37,274.3,36.6,273.4,36.2
		 M253.9,33.3c-0.6-0.6-1.2-1-1.8-1.4c-0.6-0.3-1.2-0.6-1.9-0.7c-1.1-0.2-2.1-0.2-3.1,0.1c-1,0.3-1.9,0.8-2.6,1.5
		c-0.6,0.6-1.1,1.3-1.4,2.1c-0.3,0.8-0.4,1.6-0.4,2.4c0,0.8,0.2,1.6,0.5,2.3c0.3,0.7,0.8,1.4,1.4,1.9c0.6,0.6,1.3,1,2.1,1.3
		c0.8,0.3,1.6,0.5,2.4,0.5c0.9,0,1.7-0.1,2.5-0.4c0.6-0.2,1.2-0.6,1.7-1v-3.1c0,0,0,0.1,0,0.1c0,0,0-0.2-0.1-0.1
		c-0.4,0.6-0.5,0.7-1,1.2c-0.7,0.7-1.6,1.1-2.5,1.1c-1,0.1-1.9-0.2-2.7-0.8l7.3-7L253.9,33.3z M245.5,39.1c-0.5-0.8-0.7-1.7-0.6-2.6
		c0.1-0.9,0.5-1.6,1.2-2.3c0.7-0.6,1.4-1,2.3-1.1c0.9-0.1,1.8,0.1,2.7,0.6L245.5,39.1z M261.5,31.2c-0.7,0-1.3,0.1-1.9,0.4
		c-0.6,0.2-1.1,0.6-1.5,1.2v-1.3H256v11.8h2.2v-5.4c0-1.6,0.2-2.8,0.7-3.5c0.5-0.7,1.3-1.1,2.4-1.1c1,0,1.8,0.3,2.2,0.9
		c0.5,0.6,0.7,1.5,0.7,2.8v6.3h2.2v-6.7c0-1.7-0.4-3-1.3-3.9C264.3,31.6,263.1,31.2,261.5,31.2"/>
	<line class="st2" x1="119.8" y1="10.5" x2="119.8" y2="61.5"/>
	<g>
		<g>
			<path class="st3" d="M3.7,57.4V24.6c0-1,0.8-1.8,1.8-1.8h8c1,0,1.8,0.8,1.8,1.8v32.8c0,1-0.8,1.8-1.8,1.8h-8
				C4.5,59.2,3.7,58.4,3.7,57.4"/>
			<path class="st3" d="M44.5,37.9l13.2,20.3c0.3,0.5,0,1.1-0.6,1.1H45.7c-0.3,0-0.5-0.1-0.6-0.4L34.2,40.5h-0.1v18
				c0,0.4-0.3,0.7-0.7,0.7H23.2c-0.4,0-0.7-0.3-0.7-0.7V7.4c0-2.1,1.7-3.8,3.8-3.8h7.1c0.4,0,0.7,0.3,0.7,0.7v30.2h0.1l10.6-13.8
				c0.1-0.2,0.3-0.3,0.6-0.3h11.9c0.6,0,0.9,0.7,0.5,1.2L44.5,37C44.3,37.3,44.3,37.6,44.5,37.9"/>
			<path class="st4" d="M95.2,43.3H67.8c-0.5,0-1,0.5-0.8,1c1.1,4,4.7,6.3,8.9,6.3c3,0,5-1.2,6.8-3.3c0.2-0.2,0.4-0.3,0.6-0.3h10.2
				c0.6,0,1,0.7,0.8,1.2c-3.4,6.9-9.6,11.9-17.5,12.2c-11,0.5-20.7-8-21.5-19C54.4,29.5,63.7,19,75.6,19c11.9,0,20.5,9.5,20.5,21.2
				c0,0.8,0,1.6-0.2,2.3C96,43,95.6,43.3,95.2,43.3 M75.7,28.8c-3.8,0-7.2,2-8.5,5.5c-0.2,0.6,0.2,1.1,0.8,1.1h15.4
				c0.6,0,1-0.6,0.8-1.1C82.9,30.8,79.5,28.8,75.7,28.8"/>
			<path class="st5" d="M93,22.3c2.2-1,3.2-3.6,2.2-5.8c-1-2.3-3.8-3.3-6-2.1l-3.4,1.8c-1.2,0.7-1.2,2.4,0,3.1
				c1.7,0.8,3.2,1.9,4.6,3c0.5,0.4,1.2,0.5,1.8,0.3L93,22.3z"/>
			<path class="st6" d="M9.5,3.5c-3.9,0-7,3.1-7,7c0,3.7,2.8,6.7,6.4,7v3.1c0,0.2,0.1,0.4,0.4,0.5c0.1,0,0.2,0.1,0.2,0.1
				c0.1,0,0.3-0.1,0.4-0.2c0.2-0.2,5.4-4.9,6.4-8.8c0-0.1,0-0.1,0.1-0.2c0,0,0,0,0,0c0,0,0,0,0,0c0.1-0.5,0.2-1,0.2-1.5
				C16.5,6.7,13.4,3.5,9.5,3.5"/>
		</g>
		<g>
			<path class="st3" d="M97.8,57.6c-0.1-0.3-0.3-0.6-0.6-0.8c-0.3-0.2-0.6-0.4-0.9-0.6C95.9,56,95.5,56,95.1,56
				c-0.4,0-0.8,0.1-1.1,0.2c-0.3,0.1-0.7,0.3-0.9,0.6c-0.3,0.2-0.5,0.5-0.6,0.8s-0.2,0.7-0.2,1c0,0.4,0.1,0.7,0.2,1
				c0.1,0.3,0.3,0.6,0.6,0.8c0.3,0.2,0.6,0.4,0.9,0.6c0.3,0.1,0.7,0.2,1.1,0.2c0.4,0,0.8-0.1,1.1-0.2c0.3-0.1,0.7-0.3,0.9-0.6
				c0.3-0.2,0.5-0.5,0.6-0.8c0.1-0.3,0.2-0.7,0.2-1C98,58.2,97.9,57.9,97.8,57.6z M97.4,59.5c-0.1,0.3-0.3,0.5-0.5,0.7
				c-0.2,0.2-0.5,0.4-0.8,0.5c-0.3,0.1-0.6,0.2-1,0.2c-0.3,0-0.7-0.1-1-0.2c-0.3-0.1-0.5-0.3-0.8-0.5c-0.2-0.2-0.4-0.4-0.5-0.7
				c-0.1-0.3-0.2-0.6-0.2-0.9c0-0.3,0.1-0.6,0.2-0.9c0.1-0.3,0.3-0.5,0.5-0.7c0.2-0.2,0.5-0.4,0.8-0.5c0.3-0.1,0.6-0.2,1-0.2
				c0.3,0,0.7,0.1,1,0.2c0.3,0.1,0.6,0.3,0.8,0.5c0.2,0.2,0.4,0.4,0.5,0.7c0.1,0.3,0.2,0.6,0.2,0.9C97.5,58.9,97.5,59.2,97.4,59.5z"
				/>
			<path class="st3" d="M96.4,58c0-0.2,0-0.3-0.1-0.4c-0.1-0.1-0.1-0.2-0.2-0.3c-0.1-0.1-0.2-0.1-0.3-0.2c-0.1,0-0.3-0.1-0.4-0.1H94
				V60h0.5v-1.1h0.6l0.6,1.1h0.6l-0.6-1.2c0.2-0.1,0.4-0.2,0.5-0.3C96.4,58.4,96.4,58.2,96.4,58z M95.8,58.3
				c-0.1,0.1-0.2,0.1-0.4,0.1h-0.8v-0.8h0.8c0.1,0,0.3,0,0.4,0.1c0.1,0.1,0.1,0.2,0.1,0.3C95.9,58.1,95.9,58.2,95.8,58.3z"/>
		</g>
	</g>
</g>
</svg>
