<?xml version="1.0" encoding="utf-8"?>
<!-- Generator: Adobe Illustrator 26.1.0, SVG Export Plug-In . SVG Version: 6.00 Build 0)  -->
<svg version="1.1" id="Capa_1" xmlns="http://www.w3.org/2000/svg" xmlns:xlink="http://www.w3.org/1999/xlink" x="0px" y="0px"
width="295.99255"
height="82"
 style="enable-background:new 0 0 296 82;" xml:space="preserve">
<style type="text/css">
	.st0{fill-rule:evenodd;clip-rule:evenodd;fill:#EB5D0B;}
	.st1{fill-rule:evenodd;clip-rule:evenodd;stroke:#000000;stroke-width:9.600000e-03;stroke-miterlimit:22.9256;}
</style>
<g>
	<path class="st0" d="M53.8,14.1c0,7.4-6,13.4-13.4,13.4s-13.4-6-13.4-13.4s6-13.4,13.4-13.4C47.7,0.7,53.8,6.7,53.8,14.1z"/>
	<path class="st0" d="M80.6,14.1c0,7.4-6,13.4-13.4,13.4c-7.4,0-13.4-6-13.4-13.4s6-13.4,13.4-13.4C74.6,0.7,80.6,6.7,80.6,14.1z"/>
	<path class="st0" d="M53.8,67.9c0,7.4-6,13.4-13.4,13.4s-13.4-6-13.4-13.4c0-7.4,6-13.4,13.4-13.4C47.7,54.4,53.8,60.5,53.8,67.9z"
		/>
	<path class="st0" d="M80.6,67.9c0,7.4-6,13.4-13.4,13.4c-7.4,0-13.4-6-13.4-13.4c0-7.4,6-13.4,13.4-13.4
		C74.6,54.4,80.6,60.5,80.6,67.9z"/>
	<path class="st0" d="M26.9,41c0,7.4-6,13.4-13.4,13.4S0,48.4,0,41s6-13.4,13.4-13.4C20.9,27.6,26.9,33.6,26.9,41z"/>
	<path class="st0" d="M53.8,41c0,7.4-6,13.4-13.4,13.4s-13.4-6-13.4-13.4s6-13.4,13.4-13.4S53.8,33.6,53.8,41z"/>
	<path class="st1" d="M180.4,29.8c-1.5,0-2.8,0.3-4.1,0.8c-1.3,0.5-2.4,1.3-3.5,2.4v-2.7h-4.1l0,29.4h4.1l0-10.2
		c1.1,1.1,2.3,1.9,3.6,2.4c1.3,0.5,2.7,0.8,4.3,0.8c1.7,0,3.3-0.3,4.6-0.8c1.3-0.5,2.6-1.4,3.7-2.5c1-1.1,1.9-2.3,2.4-3.7
		c0.6-1.4,0.8-2.8,0.8-4.3c0-3.3-1.1-6-3.4-8.2C186.6,30.9,183.8,29.8,180.4,29.8L180.4,29.8z M185.7,46.6c-1.5,1.5-3.3,2.2-5.5,2.2
		c-2.1,0-3.9-0.8-5.4-2.3c-1.5-1.5-2.3-3.4-2.3-5.5c0-2,0.8-3.8,2.3-5.3c1.5-1.5,3.3-2.3,5.3-2.3c2.2,0,4,0.7,5.5,2.2
		c1.5,1.5,2.3,3.3,2.3,5.6C188,43.4,187.3,45.2,185.7,46.6L185.7,46.6L185.7,46.6z M126.2,32.9c-1.1-1.1-2.4-1.9-3.8-2.5
		c-1.4-0.6-2.9-0.9-4.6-0.9c-1.5,0-3,0.3-4.4,1c-1.4,0.6-2.7,1.5-3.8,2.7c-1.1,1.1-1.9,2.3-2.4,3.6c-0.5,1.3-0.8,2.8-0.8,4.3
		c0,1.5,0.3,2.9,0.9,4.4c0.6,1.4,1.4,2.7,2.5,3.7c1.1,1.1,2.4,2,3.8,2.5c1.4,0.6,2.9,0.9,4.6,0.9c1.6,0,3.1-0.3,4.6-0.9
		c1.4-0.6,2.7-1.6,3.9-2.8c1-1.1,1.8-2.3,2.3-3.7c0.6-1.4,0.8-2.9,0.8-4.4c0-1.5-0.3-2.9-0.9-4.3C128.2,35.3,127.3,34,126.2,32.9
		L126.2,32.9L126.2,32.9z M123.3,46.6c-1.4,1.5-3.2,2.2-5.3,2.2c-2.1,0-3.9-0.7-5.4-2.2c-1.4-1.5-2.2-3.3-2.2-5.5
		c0-2.2,0.7-4,2.2-5.5c1.4-1.5,3.2-2.2,5.3-2.2c2.1,0,3.9,0.7,5.3,2.2c1.4,1.4,2.1,3.3,2.1,5.5C125.5,43.3,124.8,45.1,123.3,46.6
		L123.3,46.6L123.3,46.6z M92.3,33.5c1.6,0,2.9,0.3,4,1c1.1,0.7,2,1.7,2.8,3h4.5c-0.9-2.5-2.3-4.4-4.2-5.8c-1.9-1.4-4.2-2.1-6.7-2.1
		c-1.7,0-3.2,0.3-4.7,0.9c-1.5,0.6-2.8,1.5-3.9,2.7c-1.1,1.1-1.9,2.3-2.4,3.6c-0.5,1.3-0.8,2.8-0.8,4.3c0,1.5,0.3,2.9,0.9,4.4
		c0.6,1.4,1.4,2.7,2.5,3.7c1.1,1.1,2.4,2,3.7,2.5c1.4,0.6,2.9,0.8,4.6,0.8c2.7,0,4.9-0.7,6.8-2c1.9-1.4,3.3-3.4,4.2-6h-4.5
		c-0.6,1.3-1.5,2.3-2.7,3.1c-1.1,0.7-2.4,1.1-3.9,1.1c-2.1,0-3.9-0.7-5.3-2.2c-1.4-1.5-2.1-3.3-2.1-5.5c0-2.2,0.7-4,2.1-5.4
		C88.6,34.2,90.3,33.5,92.3,33.5L92.3,33.5L92.3,33.5z M156,29.9c-1.7,0-3.1,0.3-4.2,0.9c-1.1,0.6-2.1,1.6-2.8,2.8
		c-0.7-1.3-1.6-2.3-2.7-2.9c-1.1-0.6-2.5-0.9-4.1-0.9c-1.2,0-2.3,0.2-3.2,0.7c-1,0.5-1.8,1.2-2.5,2.2v-2.6h-3.6v21.8h3.9V40.9
		c0-2.5,0.4-4.4,1.2-5.6c0.8-1.2,2.1-1.8,3.9-1.8c1.7,0,2.9,0.6,3.7,1.8c0.8,1.2,1.2,3.1,1.2,5.8v11h3.9V40.7c0-2.6,0.4-4.5,1.2-5.6
		c0.8-1.1,2-1.7,3.8-1.7c1.5,0,2.7,0.5,3.5,1.6c0.8,1,1.3,2.5,1.3,4.3v12.7h4.1V38.8c0-2.7-0.8-4.8-2.3-6.4
		C160.6,30.7,158.5,29.9,156,29.9L156,29.9L156,29.9z M278,32.9c-1.1-1.1-2.3-1.9-3.6-2.4c-1.3-0.5-2.7-0.8-4.3-0.8
		c-1.7,0-3.3,0.3-4.6,0.8c-1.4,0.5-2.6,1.4-3.7,2.5c-1,1-1.8,2.3-2.4,3.6s-0.8,2.8-0.8,4.4c0,3.3,1.1,6,3.4,8.2
		c2.3,2.2,5.1,3.3,8.5,3.3c1.5,0,2.8-0.3,4.1-0.8c1.3-0.5,2.4-1.3,3.5-2.4v2.7h4.1V30.3H278L278,32.9L278,32.9z M275.9,46.6
		c-1.5,1.5-3.3,2.3-5.3,2.3c-2.2,0-4-0.7-5.6-2.2c-1.5-1.5-2.3-3.3-2.3-5.6c0-2.1,0.8-3.9,2.3-5.3c1.5-1.5,3.3-2.2,5.5-2.2
		c2.1,0,3.9,0.8,5.4,2.3c1.5,1.5,2.3,3.4,2.3,5.5C278.2,43.3,277.5,45.1,275.9,46.6L275.9,46.6L275.9,46.6z M293,30.6
		c-0.9,0.5-1.6,1.2-2.3,2.2v-2.5h-3.8v21.8h4.1V39.9c0-2,0.4-3.5,1.2-4.4c0.8-0.9,2.1-1.4,3.9-1.6v-4.1
		C294.9,29.9,293.8,30.2,293,30.6L293,30.6L293,30.6z M251.4,39.3c-0.4-0.1-0.8-0.3-1.5-0.5c-2.2-0.8-3.3-1.8-3.3-3
		c0-0.7,0.2-1.3,0.7-1.8c0.5-0.5,1.1-0.7,1.8-0.7c0.8,0,1.5,0.2,1.9,0.7c0.5,0.4,0.8,1.1,0.8,1.9h3.9c-0.1-2-0.7-3.5-1.9-4.6
		c-1.1-1.1-2.7-1.6-4.6-1.6c-1.8,0-3.4,0.6-4.7,1.9c-1.3,1.2-1.9,2.8-1.9,4.5c0,1,0.2,1.9,0.6,2.7c0.4,0.8,1,1.5,1.8,2.1
		c0.4,0.3,1.5,0.8,3.1,1.4c0.6,0.2,1.1,0.4,1.4,0.5c1,0.4,1.7,0.8,2.1,1.3c0.4,0.5,0.6,1.2,0.6,1.9c0,0.9-0.3,1.6-0.9,2.2
		c-0.6,0.6-1.4,0.8-2.3,0.8c-1,0-1.8-0.4-2.5-1.1c-0.7-0.7-1-1.7-1-2.8h-3.8c0.1,2.4,0.8,4.2,2.1,5.6c1.3,1.4,3,2,5.1,2
		c2.1,0,3.8-0.6,5.2-1.9c1.4-1.3,2.1-2.9,2.1-4.9c0-1.7-0.4-3-1.1-4C254.4,40.8,253.2,40,251.4,39.3L251.4,39.3L251.4,39.3z
		 M215.3,33.8c-1.1-1.1-2.2-1.9-3.3-2.5c-1.1-0.6-2.2-1.1-3.4-1.3c-2-0.4-3.9-0.3-5.7,0.2c-1.9,0.5-3.5,1.5-4.9,2.8
		c-1.2,1.1-2.1,2.4-2.6,3.8c-0.6,1.4-0.8,2.9-0.7,4.5c0.1,1.5,0.4,2.9,1,4.2c0.6,1.3,1.5,2.5,2.6,3.6c1.1,1,2.4,1.9,3.8,2.5
		c1.5,0.6,3,0.9,4.5,1c1.6,0,3.1-0.2,4.5-0.8c1.1-0.4,2.1-1.1,3.1-1.9v-5.7c0,0.1,0,0.1,0,0.1c0-0.1,0-0.4-0.2-0.1
		c-0.7,1-1,1.3-1.9,2.2c-1.3,1.3-2.9,2-4.7,2.1c-1.8,0.1-3.5-0.3-5.1-1.4l13.5-13L215.3,33.8L215.3,33.8z M199.8,44.6
		c-0.9-1.6-1.3-3.2-1.1-4.8s0.9-3,2.2-4.2c1.2-1.2,2.6-1.9,4.3-2c1.6-0.2,3.2,0.2,4.9,1.2L199.8,44.6L199.8,44.6z M229.4,29.9
		c-1.3,0-2.5,0.2-3.5,0.7c-1,0.5-2,1.2-2.8,2.2v-2.5h-3.9v21.8h4.1v-9.9c0-3,0.5-5.2,1.4-6.5c0.9-1.3,2.4-2,4.4-2
		c1.9,0,3.2,0.6,4.1,1.7c0.9,1.1,1.3,2.8,1.3,5.2v11.6h4.1V39.6c0-3.1-0.8-5.5-2.4-7.2C234.6,30.7,232.3,29.9,229.4,29.9L229.4,29.9
		z"/>
</g>
</svg>
