<?xml version="1.0" encoding="utf-8"?>
<!-- Generator: $$$/GeneralStr/196=Adobe Illustrator 27.6.0, SVG Export Plug-In . SVG Version: 6.00 Build 0)  -->
<svg version="1.1" id="Capa_1" xmlns="http://www.w3.org/2000/svg" xmlns:xlink="http://www.w3.org/1999/xlink" x="0px" y="0px"
	 viewBox="0 0 136 82" style="enable-background:new 0 0 136 82;" xml:space="preserve">
<style type="text/css">
	.st0{fill:#EB5D0B;}
	.st1{fill:#1A1818;}
	.st2{clip-path:url(#SVGID_00000163057621291953628990000001053970909968889738_);fill:#09427A;}
	.st3{clip-path:url(#SVGID_00000163057621291953628990000001053970909968889738_);fill:#3B7CC3;}
	.st4{clip-path:url(#SVGID_00000163057621291953628990000001053970909968889738_);fill:#EC9533;}
	.st5{fill:none;stroke:#F39218;stroke-width:2;stroke-linecap:round;stroke-linejoin:round;stroke-miterlimit:10;}
	.st6{fill:#004B85;}
	.st7{fill:#4B90CD;}
	.st8{fill:#498DCB;}
	.st9{fill:#F3A93C;}
</style>
<path class="st0" d="M-960.8-531.1L-960.8-531.1c5.2,0,9.3,4.2,9.3,9.3c0,5.2-4.2,9.3-9.3,9.3c-5.2,0-9.3-4.2-9.3-9.3
	C-970.1-526.9-965.9-531.1-960.8-531.1 M-960.8-531.1L-960.8-531.1c5.2,0,9.3-4.2,9.3-9.3c0-5.2-4.2-9.3-9.3-9.3
	c-5.2,0-9.3,4.2-9.3,9.3C-970.1-535.3-965.9-531.1-960.8-531.1 M-932.8-540.4L-932.8-540.4c0-5.2-4.2-9.3-9.3-9.3
	c-5.2,0-9.3,4.2-9.3,9.3c0,5.2,4.2,9.3,9.3,9.3C-937-531.1-932.8-535.3-932.8-540.4 M-979.5-531.1L-979.5-531.1
	c-5.2,0-9.3,4.2-9.3,9.3c0,5.2,4.2,9.3,9.3,9.3c5.2,0,9.3-4.2,9.3-9.3C-970.1-526.9-974.3-531.1-979.5-531.1 M-960.8-493.7
	L-960.8-493.7c5.2,0,9.3-4.2,9.3-9.3c0-5.2-4.2-9.3-9.3-9.3c-5.2,0-9.3,4.2-9.3,9.3C-970.1-497.9-965.9-493.7-960.8-493.7
	 M-932.8-503.1L-932.8-503.1c0-5.2-4.2-9.3-9.3-9.3c-5.2,0-9.3,4.2-9.3,9.3c0,5.2,4.2,9.3,9.3,9.3
	C-937-493.7-932.8-497.9-932.8-503.1"/>
<path class="st1" d="M-866.9-529.1c-1,0-2,0.2-2.9,0.6c-0.9,0.4-1.7,0.9-2.4,1.6v-1.9h-2.9l0,20.4h2.8l0-7.1
	c0.8,0.7,1.6,1.3,2.5,1.7c0.9,0.4,1.9,0.6,3,0.6c1.2,0,2.3-0.2,3.2-0.6c0.9-0.4,1.8-1,2.6-1.8c0.7-0.7,1.3-1.6,1.7-2.6
	c0.4-1,0.6-2,0.6-3c0-2.3-0.8-4.2-2.3-5.7C-862.5-528.3-864.5-529.1-866.9-529.1 M-863.2-517.4c-1.1,1-2.3,1.5-3.8,1.5
	c-1.4,0-2.7-0.5-3.7-1.6c-1-1.1-1.6-2.3-1.6-3.8c0-1.4,0.5-2.6,1.6-3.7c1.1-1,2.3-1.6,3.7-1.6c1.5,0,2.8,0.5,3.8,1.6
	c1,1,1.6,2.3,1.6,3.9C-861.6-519.6-862.1-518.4-863.2-517.4 M-904.5-526.9c-0.8-0.8-1.7-1.4-2.6-1.8c-1-0.4-2-0.6-3.2-0.6
	c-1.1,0-2.1,0.2-3.1,0.7c-1,0.4-1.9,1.1-2.7,1.9c-0.7,0.7-1.3,1.6-1.7,2.5c-0.4,0.9-0.6,1.9-0.6,3c0,1,0.2,2,0.6,3
	c0.4,1,1,1.9,1.7,2.6c0.8,0.8,1.6,1.4,2.6,1.8c1,0.4,2,0.6,3.2,0.6c1.1,0,2.2-0.2,3.2-0.7c1-0.4,1.9-1.1,2.7-1.9
	c0.7-0.7,1.2-1.6,1.6-2.6c0.4-1,0.6-2,0.6-3c0-1-0.2-2-0.6-3C-903.1-525.3-903.7-526.1-904.5-526.9 M-906.5-517.4
	c-1,1-2.2,1.5-3.7,1.5c-1.5,0-2.7-0.5-3.7-1.5c-1-1-1.5-2.3-1.5-3.8c0-1.5,0.5-2.8,1.5-3.8c1-1,2.2-1.5,3.7-1.5
	c1.5,0,2.7,0.5,3.7,1.5c1,1,1.5,2.3,1.5,3.8C-905-519.7-905.5-518.4-906.5-517.4 M-928-526.5c1.1,0,2,0.2,2.8,0.7
	c0.8,0.5,1.4,1.2,1.9,2.1h3.1c-0.6-1.7-1.6-3.1-2.9-4c-1.3-1-2.9-1.4-4.7-1.4c-1.2,0-2.2,0.2-3.2,0.6c-1,0.4-1.9,1.1-2.7,1.9
	c-0.7,0.8-1.3,1.6-1.7,2.5c-0.4,0.9-0.6,1.9-0.6,3c0,1,0.2,2,0.6,3c0.4,1,1,1.9,1.7,2.6c0.8,0.8,1.6,1.4,2.6,1.8
	c1,0.4,2,0.6,3.2,0.6c1.9,0,3.4-0.5,4.7-1.4c1.3-0.9,2.3-2.3,2.9-4.2h-3.1c-0.4,0.9-1.1,1.6-1.9,2.1c-0.8,0.5-1.7,0.8-2.7,0.8
	c-1.5,0-2.7-0.5-3.7-1.5c-1-1-1.5-2.3-1.5-3.8c0-1.5,0.5-2.8,1.5-3.8C-930.6-526-929.4-526.5-928-526.5 M-883.8-529
	c-1.2,0-2.1,0.2-2.9,0.6c-0.8,0.4-1.4,1.1-1.9,2c-0.5-0.9-1.1-1.6-1.9-2c-0.8-0.4-1.7-0.6-2.8-0.6c-0.8,0-1.6,0.2-2.3,0.5
	c-0.7,0.3-1.2,0.8-1.8,1.5v-1.8h-2.5v15.2h2.7v-7.8c0-1.8,0.3-3.1,0.9-3.9c0.6-0.8,1.5-1.3,2.7-1.3c1.2,0,2,0.4,2.6,1.3
	c0.5,0.8,0.8,2.2,0.8,4v7.6h2.7v-7.9c0-1.8,0.3-3.1,0.8-3.9c0.5-0.8,1.4-1.1,2.6-1.1c1.1,0,1.9,0.4,2.5,1.1c0.6,0.7,0.9,1.7,0.9,3
	v8.8h2.8v-9.3c0-1.9-0.5-3.4-1.6-4.5C-880.6-528.4-882-529-883.8-529 M-799.1-526.9c-0.7-0.7-1.6-1.3-2.5-1.7
	c-0.9-0.4-1.9-0.6-3-0.6c-1.2,0-2.3,0.2-3.2,0.6c-0.9,0.4-1.8,1-2.6,1.8c-0.7,0.7-1.3,1.6-1.7,2.5c-0.4,1-0.6,2-0.6,3
	c0,2.3,0.8,4.2,2.3,5.7c1.6,1.5,3.5,2.3,5.9,2.3c1,0,2-0.2,2.8-0.6c0.9-0.4,1.7-0.9,2.4-1.6v1.9h2.9v-15.2h-2.9V-526.9z
	 M-800.5-517.4c-1.1,1-2.3,1.6-3.7,1.6c-1.5,0-2.8-0.5-3.9-1.6c-1.1-1-1.6-2.3-1.6-3.9c0-1.5,0.5-2.7,1.6-3.7c1.1-1,2.3-1.5,3.8-1.5
	c1.4,0,2.7,0.5,3.7,1.6c1.1,1.1,1.6,2.3,1.6,3.8C-798.9-519.7-799.5-518.5-800.5-517.4 M-788.7-528.5c-0.6,0.3-1.1,0.8-1.6,1.5v-1.8
	h-2.7v15.2h2.8v-8.4c0-1.4,0.3-2.4,0.8-3c0.5-0.6,1.5-1,2.7-1.1v-2.9C-787.4-529-788.1-528.8-788.7-528.5 M-817.5-522.5
	c-0.2-0.1-0.6-0.2-1-0.4c-1.5-0.5-2.3-1.2-2.3-2.1c0-0.5,0.2-0.9,0.5-1.2c0.3-0.3,0.8-0.5,1.3-0.5c0.6,0,1,0.2,1.3,0.5
	c0.3,0.3,0.5,0.7,0.6,1.3h2.7c-0.1-1.4-0.5-2.4-1.3-3.2c-0.8-0.8-1.9-1.1-3.2-1.1c-1.3,0-2.4,0.4-3.3,1.3c-0.9,0.9-1.3,1.9-1.3,3.1
	c0,0.7,0.1,1.3,0.4,1.9c0.3,0.5,0.7,1,1.2,1.5c0.3,0.2,1,0.6,2.1,1c0.4,0.1,0.7,0.3,1,0.4c0.7,0.3,1.2,0.6,1.5,0.9s0.5,0.8,0.5,1.4
	c0,0.6-0.2,1.1-0.6,1.5c-0.4,0.4-1,0.6-1.6,0.6c-0.7,0-1.3-0.3-1.7-0.8c-0.5-0.5-0.7-1.2-0.7-2h-2.7c0.1,1.6,0.6,2.9,1.5,3.9
	c0.9,0.9,2.1,1.4,3.5,1.4c1.4,0,2.6-0.5,3.6-1.4c1-0.9,1.4-2,1.4-3.4c0-1.2-0.3-2.1-0.8-2.8C-815.5-521.4-816.3-522-817.5-522.5
	 M-842.6-526.3c-0.8-0.7-1.5-1.3-2.3-1.8c-0.8-0.4-1.6-0.7-2.4-0.9c-1.4-0.3-2.7-0.2-4,0.2c-1.3,0.4-2.4,1-3.4,2
	c-0.8,0.8-1.4,1.7-1.8,2.6c-0.4,1-0.6,2-0.5,3.1c0,1,0.3,2,0.7,2.9c0.4,0.9,1,1.7,1.8,2.5c0.8,0.7,1.6,1.3,2.7,1.7
	c1,0.4,2.1,0.6,3.1,0.7c1.1,0,2.2-0.1,3.2-0.5c0.8-0.3,1.5-0.7,2.2-1.3v-3.9c0,0.1,0,0.1,0,0.1c0,0,0-0.3-0.1-0.1
	c-0.5,0.7-0.7,0.9-1.3,1.5c-0.9,0.9-2,1.4-3.3,1.5c-1.2,0.1-2.4-0.2-3.5-1l9.4-9L-842.6-526.3z M-853.4-518.8
	c-0.6-1.1-0.9-2.2-0.8-3.3c0.1-1.1,0.6-2.1,1.5-2.9c0.9-0.8,1.8-1.3,3-1.4c1.1-0.1,2.3,0.2,3.4,0.8L-853.4-518.8z M-832.9-529
	c-0.9,0-1.7,0.2-2.4,0.5c-0.7,0.3-1.4,0.8-2,1.5v-1.7h-2.7v15.2h2.8v-6.9c0-2.1,0.3-3.6,0.9-4.5c0.6-0.9,1.7-1.4,3.1-1.4
	c1.3,0,2.3,0.4,2.9,1.2c0.6,0.8,0.9,2,0.9,3.6v8h2.8v-8.6c0-2.2-0.5-3.9-1.6-5C-829.2-528.4-830.8-529-832.9-529"/>
<g>
	<defs>
		<rect id="SVGID_1_" x="-1167.7" y="-566.3" width="124.6" height="78.3"/>
	</defs>
	<clipPath id="SVGID_00000145055145420429945160000016673823356915832459_">
		<use xlink:href="#SVGID_1_"  style="overflow:visible;"/>
	</clipPath>
	<path style="clip-path:url(#SVGID_00000145055145420429945160000016673823356915832459_);fill:#09427A;" d="M-1164-494.8v-42.1
		c0-1.3,1-2.3,2.3-2.3h10.3c1.3,0,2.3,1,2.3,2.3v42.1c0,1.3-1,2.3-2.3,2.3h-10.3C-1162.9-492.5-1164-493.5-1164-494.8"/>
	<path style="clip-path:url(#SVGID_00000145055145420429945160000016673823356915832459_);fill:#09427A;" d="M-1111.6-519.9l17,26
		c0.4,0.6,0,1.4-0.8,1.4h-14.7c-0.3,0-0.6-0.2-0.8-0.5l-13.9-23.6h-0.2v23.1c0,0.5-0.4,0.9-0.9,0.9h-13.1c-0.5,0-0.9-0.4-0.9-0.9
		v-65.7c0-2.7,2.2-4.9,4.9-4.9h9.1c0.5,0,0.9,0.4,0.9,0.9v38.7h0.2l13.6-17.7c0.2-0.2,0.4-0.4,0.7-0.4h15.3c0.8,0,1.2,0.9,0.7,1.5
		l-17.1,19.9C-1111.8-520.7-1111.8-520.2-1111.6-519.9"/>
	<path style="clip-path:url(#SVGID_00000145055145420429945160000016673823356915832459_);fill:#3B7CC3;" d="M-1046.5-512.9h-35.2
		c-0.7,0-1.2,0.7-1.1,1.3c1.4,5.1,6,8.1,11.4,8.1c3.9,0,6.4-1.5,8.8-4.3c0.2-0.2,0.5-0.4,0.8-0.4h13.1c0.8,0,1.3,0.8,1,1.6
		c-4.4,8.8-12.4,15.2-22.5,15.7c-14.2,0.7-26.5-10.2-27.6-24.4c-1.1-15.4,10.8-28.9,26.1-28.9c15.3,0,26.4,12.2,26.4,27.3
		c0,1-0.1,2-0.2,3C-1045.5-513.3-1045.9-512.9-1046.5-512.9 M-1071.5-531.5c-4.9,0-9.3,2.6-10.9,7.1c-0.3,0.7,0.3,1.5,1,1.5h19.8
		c0.8,0,1.3-0.8,1-1.5C-1062.2-529-1066.6-531.5-1071.5-531.5"/>
	<path style="clip-path:url(#SVGID_00000145055145420429945160000016673823356915832459_);fill:#3B7CC3;" d="M-1049.3-539.9
		c2.8-1.3,4.1-4.6,2.8-7.4c-1.3-3-4.9-4.2-7.8-2.6l-4.3,2.3c-1.6,0.8-1.6,3.1,0,3.9c2.1,1.1,4.1,2.4,5.9,3.9
		c0.6,0.5,1.5,0.7,2.3,0.3L-1049.3-539.9z"/>
	<path style="clip-path:url(#SVGID_00000145055145420429945160000016673823356915832459_);fill:#EC9533;" d="M-1156.5-564
		c-5,0-9,4-9,9c0,4.7,3.6,8.6,8.2,9v4c0,0.3,0.2,0.6,0.5,0.7c0.1,0,0.2,0.1,0.3,0.1c0.2,0,0.4-0.1,0.5-0.2c0.3-0.3,6.9-6.3,8.2-11.3
		c0-0.1,0-0.2,0.1-0.3c0,0,0,0,0,0c0,0,0,0,0,0c0.1-0.6,0.2-1.3,0.2-2C-1147.5-560-1151.5-564-1156.5-564"/>
</g>
<line class="st5" x1="-1014.9" y1="-555.5" x2="-1014.9" y2="-490"/>
<g>
	<g>
		<path class="st6" d="M10.7,71.8V31.4c0-1.2,1-2.2,2.2-2.2h9.8c1.2,0,2.2,1,2.2,2.2v40.4c0,1.2-1,2.2-2.2,2.2H13
			C11.7,74,10.7,73,10.7,71.8"/>
		<path class="st6" d="M60.9,47.8l16.3,24.9c0.4,0.6,0,1.4-0.7,1.4H62.3c-0.3,0-0.6-0.2-0.8-0.4L48.3,51h-0.2v22.2
			c0,0.5-0.4,0.9-0.9,0.9H34.7c-0.5,0-0.9-0.4-0.9-0.9v-63c0-2.6,2.1-4.7,4.7-4.7h8.7c0.5,0,0.9,0.4,0.9,0.9v37.1h0.2l13-17
			c0.2-0.2,0.4-0.3,0.7-0.3h14.7c0.8,0,1.2,0.9,0.7,1.4L61,46.7C60.7,47,60.7,47.4,60.9,47.8"/>
		<path class="st7" d="M123.3,54.5H89.6c-0.7,0-1.2,0.6-1,1.3c1.3,4.9,5.8,7.8,10.9,7.8c3.7,0,6.2-1.4,8.4-4.1
			c0.2-0.2,0.5-0.4,0.8-0.4h12.5c0.8,0,1.3,0.8,0.9,1.5c-4.2,8.5-11.9,14.6-21.5,15c-13.6,0.6-25.4-9.8-26.4-23.4
			c-1.1-14.7,10.3-27.7,25-27.7c14.7,0,25.3,11.7,25.3,26.1c0,1-0.1,1.9-0.2,2.9C124.2,54.1,123.8,54.5,123.3,54.5 M99.3,36.6
			c-4.7,0-8.9,2.5-10.5,6.8c-0.3,0.7,0.2,1.4,1,1.4h19c0.7,0,1.2-0.7,1-1.4C108.2,39.1,104,36.6,99.3,36.6"/>
		<path class="st8" d="M120.6,28.6c2.7-1.2,3.9-4.4,2.7-7.1c-1.3-2.8-4.7-4-7.4-2.5l-4.1,2.2c-1.5,0.8-1.5,3,0,3.8
			c2,1,3.9,2.3,5.7,3.7c0.6,0.5,1.5,0.6,2.2,0.3L120.6,28.6z"/>
		<path class="st9" d="M17.9,5.5c-4.8,0-8.6,3.9-8.6,8.6c0,4.5,3.5,8.2,7.9,8.6v3.9c0,0.3,0.2,0.6,0.4,0.7c0.1,0,0.2,0.1,0.3,0.1
			c0.2,0,0.4-0.1,0.5-0.2c0.3-0.2,6.6-6,7.9-10.8c0-0.1,0-0.2,0.1-0.3c0,0,0,0,0,0c0,0,0,0,0,0c0.1-0.6,0.2-1.3,0.2-1.9
			C26.5,9.4,22.6,5.5,17.9,5.5"/>
	</g>
	<g>
		<path class="st6" d="M126.5,72c-0.2-0.4-0.4-0.7-0.7-1c-0.3-0.3-0.7-0.5-1.1-0.7c-0.4-0.2-0.9-0.2-1.4-0.2c-0.5,0-1,0.1-1.4,0.2
			c-0.4,0.2-0.8,0.4-1.1,0.7c-0.3,0.3-0.6,0.6-0.7,1c-0.2,0.4-0.3,0.8-0.3,1.3c0,0.5,0.1,0.9,0.3,1.3c0.2,0.4,0.4,0.7,0.7,1
			c0.3,0.3,0.7,0.5,1.1,0.7c0.4,0.2,0.9,0.2,1.4,0.2c0.5,0,1-0.1,1.4-0.2c0.4-0.2,0.8-0.4,1.1-0.7c0.3-0.3,0.6-0.6,0.7-1
			c0.2-0.4,0.3-0.8,0.3-1.3C126.8,72.8,126.7,72.4,126.5,72z M126,74.3c-0.2,0.3-0.4,0.6-0.6,0.9c-0.3,0.2-0.6,0.4-0.9,0.6
			c-0.4,0.1-0.8,0.2-1.2,0.2c-0.4,0-0.8-0.1-1.2-0.2c-0.4-0.1-0.7-0.3-0.9-0.6c-0.3-0.2-0.5-0.5-0.6-0.9c-0.2-0.3-0.2-0.7-0.2-1.1
			c0-0.4,0.1-0.7,0.2-1.1c0.2-0.3,0.4-0.6,0.6-0.9c0.3-0.2,0.6-0.4,0.9-0.6c0.4-0.1,0.7-0.2,1.2-0.2c0.4,0,0.8,0.1,1.2,0.2
			c0.4,0.1,0.7,0.3,0.9,0.6c0.3,0.2,0.5,0.5,0.6,0.9c0.1,0.3,0.2,0.7,0.2,1.1C126.2,73.6,126.1,74,126,74.3z"/>
		<path class="st6" d="M124.8,72.5c0-0.2,0-0.3-0.1-0.5c-0.1-0.1-0.2-0.2-0.3-0.3c-0.1-0.1-0.2-0.2-0.4-0.2c-0.2,0-0.3-0.1-0.5-0.1
			h-1.7V75h0.7v-1.4h0.7L124,75h0.8l-0.8-1.4c0.2-0.1,0.4-0.2,0.6-0.4C124.7,73,124.8,72.8,124.8,72.5z M124,72.9
			c-0.1,0.1-0.3,0.1-0.4,0.1h-1v-1h1c0.2,0,0.3,0,0.4,0.1c0.1,0.1,0.2,0.2,0.2,0.4C124.2,72.7,124.1,72.8,124,72.9z"/>
	</g>
</g>
</svg>
