<?xml version="1.0" encoding="utf-8"?>
<!-- Generator: Adobe Illustrator 27.5.0, SVG Export Plug-In . SVG Version: 6.00 Build 0)  -->
<svg version="1.1" baseProfile="basic" id="Capa_1" xmlns="http://www.w3.org/2000/svg" xmlns:xlink="http://www.w3.org/1999/xlink"
	 x="0px" y="0px" viewBox="0 0 598 95" xml:space="preserve">
<style type="text/css">
	.st0{fill:#F39217;}
	.st1{fill:none;}
	.st2{fill:#FFFFFF;}
	.st3{font-family:'Roboto-Regular';}
	.st4{font-size:12.819px;}
	.st5{font-family:'Roboto-Bold';}
</style>
<path class="st0" d="M573.66,95.25H23.63c-13.25,0-23.98-10.74-23.98-23.98V24.23c0-13.25,10.74-23.98,23.98-23.98h550.03
	c13.25,0,23.98,10.74,23.98,23.98v47.03C597.65,84.51,586.91,95.25,573.66,95.25z"/>
<rect x="90.65" y="27.2" class="st1" width="491" height="44.05"/>
<text transform="matrix(1 0 0 1.0856 90.6467 36.816)"><tspan x="0" y="0" class="st2 st3 st4">Si tu consulta es para un servicio diferente a los planes asistenciales de iké, consulta </tspan><tspan x="0" y="14.17" class="st2 st3 st4">los canales oficiales de Compensar en </tspan><tspan x="222.24" y="14.17" class="st2 st5 st4" style="text-decoration: underline;">https://corporativo.compensar.com/</tspan><tspan x="432.92" y="14.17" class="st2 st3 st4"> o </tspan><tspan x="0" y="28.34" class="st2 st3 st4">comunícate a la línea en Bogotá: </tspan><tspan x="188.36" y="28.34" class="st2 st5 st4">601 307 70 01</tspan><tspan x="271.48" y="28.34" class="st2 st3 st4"> línea nacional: </tspan><tspan x="359.56" y="28.34" class="st2 st5 st4">01 8000 96 70 70.</tspan></text>
<g>
	<path class="st2" d="M24.22,77.25c-0.59-0.36-0.77-0.88-0.76-1.55c0.1-6.93,4.73-14.06,11.73-16.24c1.57-0.49,3.11-1.04,4.67-1.54
		c0.39-0.12,0.64-0.32,0.82-0.69c0.48-1.02,0.99-2.02,1.51-3.02c0.16-0.31,0.15-0.54-0.09-0.8c-0.81-0.88-1.48-1.85-1.99-2.93
		c-0.15-0.31-0.38-0.36-0.68-0.35c-0.61,0.02-1.22-0.01-1.81-0.23c-1.3-0.5-2.24-1.8-2.28-3.19c-0.01-0.18-0.03-0.36,0-0.53
		c0.09-0.63-0.1-1.02-0.7-1.37c-1.1-0.64-1.67-1.67-1.67-2.96c-0.01-2.75-0.08-5.5,0.02-8.24c0.21-5.4,2.48-9.83,6.67-13.23
		c3.65-2.96,7.89-4.23,12.55-3.86c4.67,0.37,8.63,2.32,11.78,5.8c3.16,3.49,4.7,7.62,4.65,12.34c-0.02,2.31,0,4.63-0.01,6.94
		c-0.01,2.29-1.5,3.78-3.79,3.79c-0.43,0-0.87,0.03-1.3-0.01c-0.55-0.05-0.67,0.25-0.72,0.7c-0.19,1.46-0.57,2.86-1.22,4.19
		c-0.53,1.09-1.18,2.11-2,3c-0.31,0.34-0.37,0.63-0.14,1.05c0.52,0.96,0.99,1.93,1.46,2.92c0.18,0.37,0.43,0.57,0.82,0.69
		c1.58,0.51,3.16,1.02,4.72,1.57c6.22,2.19,9.77,6.72,11.3,12.98c0.26,1.06,0.36,2.14,0.38,3.23c0.01,0.68-0.18,1.2-0.76,1.55
		C59.66,77.25,41.94,77.25,24.22,77.25z M49.57,45.29C49.57,45.29,49.57,45.29,49.57,45.29c0.45,0,0.91-0.01,1.36,0
		c1.95,0.05,3.48,1.65,3.47,3.63c-0.01,1.94-1.55,3.52-3.48,3.56c-0.85,0.02-1.7,0.01-2.55,0c-1.17,0-2.21-0.44-2.78-1.43
		c-0.51-0.9-1.16-1.04-2.02-0.94c-0.06,0.01-0.12-0.01-0.18,0c-0.17,0.03-0.4-0.09-0.48,0.1c-0.07,0.17,0.12,0.32,0.22,0.46
		c2.25,3.31,6.25,4.88,10.09,3.76c4.08-1.19,6.26-4.16,7.04-8.22c0.56-2.95,0.84-5.94,1.06-8.94c0.03-0.4-0.08-0.56-0.49-0.62
		c-0.98-0.14-1.96-0.29-2.92-0.51c-3.49-0.81-6.61-2.37-9.3-4.75c-0.45-0.4-0.89-0.61-1.49-0.49c-1.34,0.27-2.57,0.77-3.67,1.59
		c-1.12,0.83-1.84,2-2.71,3.05c-0.42,0.51-0.5,1.03-0.44,1.65c0.16,1.65,0.28,3.31,0.46,4.95c0.18,1.65,0.41,3.29,0.75,4.92
		c0.1,0.48,0.33,0.65,0.82,0.62c0.67-0.04,1.35-0.03,2.02,0c0.45,0.02,0.71-0.12,0.94-0.53c0.7-1.23,1.78-1.87,3.22-1.85
		C48.86,45.29,49.21,45.29,49.57,45.29z M37.26,74.83c2.06,0,4.11,0,6.17,0c1.52,0,3.04-0.01,4.57,0.01c0.47,0,0.51-0.13,0.26-0.5
		c-0.43-0.64-0.79-1.33-1.24-1.95c-2.61-3.59-4.75-7.42-6.29-11.58c-0.16-0.43-0.36-0.46-0.75-0.32c-1.3,0.46-2.62,0.89-3.93,1.32
		c-1.21,0.4-2.37,0.9-3.41,1.63c-3.8,2.62-5.9,6.28-6.58,10.81c-0.08,0.51,0.15,0.6,0.59,0.6C30.19,74.83,33.72,74.83,37.26,74.83z
		 M64.3,74.83c3.38,0,6.76,0,10.14,0c1.28,0,1.23,0.09,1.01-1.14c-0.92-4.98-3.45-8.82-8.04-11.14c-1.8-0.91-3.8-1.34-5.69-2.04
		c-0.51-0.19-0.72-0.08-0.9,0.42c-1.04,2.83-2.39,5.5-3.96,8.08c-1.08,1.77-2.4,3.39-3.42,5.2c-0.09,0.17-0.32,0.33-0.23,0.51
		c0.11,0.22,0.4,0.1,0.6,0.1C57.3,74.83,60.8,74.83,64.3,74.83z M40.31,31.95c0.13-0.11,0.2-0.15,0.25-0.2
		c1.79-1.9,3.99-3.01,6.56-3.37c0.95-0.13,1.82-0.12,2.62,0.65c3.07,2.95,6.8,4.53,10.99,5.09c0.5,0.07,0.77-0.04,0.7-0.6
		c-0.04-0.33-0.06-0.67-0.09-1C61.06,28.44,58.2,25,54.25,24c-1.74-0.44-3.52-0.39-5.3-0.26C44.61,24.04,40.87,27.53,40.31,31.95z
		 M64.96,33.06c1.37,0.01,1.17,0.03,1.01-1.14c-0.01-0.1-0.02-0.2-0.03-0.29c-1.46-8.33-9.54-13.96-17.86-12.45
		c-6.64,1.21-11.74,6.63-12.52,13.3c-0.05,0.45,0.09,0.62,0.54,0.59c0.33-0.02,0.67-0.03,1.01,0c0.45,0.04,0.59-0.13,0.64-0.6
		c0.47-4.97,3.01-8.47,7.6-10.44c2.73-1.17,5.63-1.04,8.47-0.67c5.38,0.69,9.85,5.68,10.07,11.08c0.02,0.5,0.2,0.68,0.67,0.62
		C64.68,33.05,64.82,33.06,64.96,33.06z M50.86,73.56c0.05-0.06,0.12-0.14,0.16-0.22c1.18-2.01,2.62-3.85,3.84-5.84
		c0.14-0.23,0.17-0.41-0.04-0.62c-1.29-1.28-2.57-2.56-3.85-3.85c-0.2-0.2-0.34-0.18-0.53,0.02c-1.19,1.27-2.38,2.53-3.59,3.78
		c-0.24,0.25-0.24,0.43-0.07,0.72c1.21,1.97,2.65,3.78,3.81,5.78C50.64,73.43,50.68,73.56,50.86,73.56z M58.9,58.84
		c-0.04-0.11-0.08-0.24-0.14-0.36c-0.39-0.8-0.81-1.58-1.18-2.39c-0.18-0.38-0.32-0.29-0.54-0.05c-1.42,1.51-2.84,3.02-4.27,4.52
		c-0.28,0.3-0.27,0.5,0.02,0.79c1.07,1.05,2.14,2.11,3.18,3.19c0.28,0.29,0.41,0.25,0.58-0.1c0.85-1.7,1.61-3.43,2.24-5.22
		C58.83,59.1,58.86,58.98,58.9,58.84z M44.13,56.23c-0.23,0-0.26,0.18-0.33,0.32c-0.31,0.62-0.61,1.24-0.94,1.85
		c-0.15,0.29-0.16,0.55-0.05,0.85c0.64,1.77,1.38,3.49,2.23,5.17c0.16,0.32,0.27,0.43,0.57,0.11c0.97-1.07,1.96-2.12,2.97-3.15
		c0.3-0.31,0.24-0.5-0.04-0.77c-1.38-1.36-2.74-2.74-4.12-4.11C44.33,56.4,44.22,56.31,44.13,56.23z M66.19,38.79
		c0-0.93-0.01-1.86,0-2.79c0.01-0.35-0.12-0.51-0.48-0.49c-0.41,0.02-0.83,0.03-1.24,0c-0.44-0.03-0.57,0.15-0.6,0.58
		c-0.11,1.83-0.19,3.66-0.43,5.49c-0.18,1.35-0.15,1.36,1.21,1.33c1.09-0.02,1.53-0.46,1.54-1.57
		C66.19,40.49,66.19,39.64,66.19,38.79z M35.42,38.74c0,0.63,0,1.26,0,1.9c0,2.07,0.29,2.35,2.38,2.28c0.39-0.01,0.5-0.11,0.45-0.52
		c-0.18-1.71-0.38-3.41-0.43-5.13c-0.05-1.81-0.07-1.8-1.87-1.75c-0.42,0.01-0.55,0.16-0.54,0.56
		C35.43,36.96,35.42,37.85,35.42,38.74z M49.65,50.04c0.47-0.04,0.97,0.05,1.45-0.1c0.52-0.17,0.79-0.54,0.79-1.05
		c0-0.51-0.27-0.93-0.8-1.03c-0.97-0.19-1.96-0.18-2.93-0.01c-0.54,0.1-0.81,0.51-0.82,1.02c-0.01,0.54,0.28,0.92,0.83,1.08
		C48.65,50.09,49.15,50,49.65,50.04z M48.55,57.13c0.7,0.68,1.26,1.23,1.82,1.78c0.13,0.13,0.26,0.28,0.44,0.09
		c0.52-0.54,1.08-1.06,1.58-1.74c-0.69,0-1.27,0.02-1.85,0C49.94,57.23,49.33,57.18,48.55,57.13z M37.78,46.08
		c0.03,0.59,0.09,1.18,0.76,1.45c0.33,0.13,0.54,0.1,0.44-0.35c-0.09-0.38-0.14-0.77-0.2-1.15c-0.06-0.36-0.1-0.71-0.62-0.66
		C37.63,45.41,37.85,45.8,37.78,46.08z"/>
	<path class="st2" d="M67.9,65.71c0.47-0.02,0.76,0.15,1.03,0.36c1.3,1.04,2.33,2.29,3.11,3.76c0.4,0.76,0.26,1.45-0.36,1.81
		c-0.65,0.39-1.36,0.19-1.8-0.58c-0.68-1.2-1.53-2.24-2.59-3.12c-0.44-0.36-0.63-0.85-0.41-1.43C67.09,65.99,67.48,65.74,67.9,65.71
		z"/>
	<path class="st2" d="M63.86,65.89c-0.7,0-1.24-0.55-1.22-1.25c0.01-0.67,0.54-1.19,1.22-1.19c0.7,0,1.24,0.55,1.22,1.25
		C65.06,65.37,64.53,65.89,63.86,65.89z"/>
</g>
</svg>
