<?xml version="1.0" encoding="UTF-8" standalone="no"?>
<!-- Created with Inkscape (http://www.inkscape.org/) -->

<svg
   xmlns:dc="http://purl.org/dc/elements/1.1/"
   xmlns:cc="http://creativecommons.org/ns#"
   xmlns:rdf="http://www.w3.org/1999/02/22-rdf-syntax-ns#"
   xmlns:svg="http://www.w3.org/2000/svg"
   xmlns="http://www.w3.org/2000/svg"
   xmlns:sodipodi="http://sodipodi.sourceforge.net/DTD/sodipodi-0.dtd"
   xmlns:inkscape="http://www.inkscape.org/namespaces/inkscape"
   width="6.3140416mm"
   height="7.2762499mm"
   viewBox="0 0 6.3140416 7.2762499"
   version="1.1"
   id="svg832"
   sodipodi:docname="basura_carrito.svg"
   inkscape:version="0.92.3 (2405546, 2018-03-11)">
  <defs
     id="defs826" />
  <sodipodi:namedview
     id="base"
     pagecolor="#ffffff"
     bordercolor="#666666"
     borderopacity="1.0"
     inkscape:pageopacity="0.0"
     inkscape:pageshadow="2"
     inkscape:zoom="0.35"
     inkscape:cx="-1290.3693"
     inkscape:cy="-741.33487"
     inkscape:document-units="mm"
     inkscape:current-layer="layer1"
     showgrid="false"
     inkscape:window-width="1920"
     inkscape:window-height="1056"
     inkscape:window-x="1366"
     inkscape:window-y="0"
     inkscape:window-maximized="1"
     fit-margin-top="0"
     fit-margin-left="0"
     fit-margin-right="0"
     fit-margin-bottom="0" />
  <metadata
     id="metadata829">
    <rdf:RDF>
      <cc:Work
         rdf:about="">
        <dc:format>image/svg+xml</dc:format>
        <dc:type
           rdf:resource="http://purl.org/dc/dcmitype/StillImage" />
        <dc:title></dc:title>
      </cc:Work>
    </rdf:RDF>
  </metadata>
  <g
     inkscape:label="Layer 1"
     inkscape:groupmode="layer"
     id="layer1"
     transform="translate(-86.045374,-117.225)">
    <path
       inkscape:connector-curvature="0"
       style="fill:#99999b;stroke-width:0.26458332"
       d="m 89.806898,117.22521 c 0.195792,0.0987 0.360362,0.22278 0.359569,0.48313 h 1.425839 c 0.08599,0 0.172509,-0.002 0.258763,5.2e-4 0.293158,0.008 0.495564,0.20664 0.505354,0.49927 0.005,0.14314 0.0027,0.28734 5.29e-4,0.43048 -0.0048,0.32517 -0.202406,0.51726 -0.530754,0.51885 -0.05688,5.3e-4 -0.113771,0 -0.197379,0 v 0.2077 c 0,1.35599 2.64e-4,2.71145 0,4.06691 -2.65e-4,0.66675 -0.404019,1.06918 -1.072886,1.06918 -0.907521,0 -1.815041,0 -2.722827,0 -0.643996,-5.3e-4 -1.054629,-0.40931 -1.054894,-1.05251 -5.29e-4,-1.35546 -2.64e-4,-2.71119 -2.64e-4,-4.06665 v -0.2249 c -0.08705,0 -0.159809,0.001 -0.23204,0 -0.277283,-0.004 -0.479689,-0.19076 -0.494242,-0.46725 -0.0087,-0.16642 -0.0079,-0.33338 -5.29e-4,-0.4998 0.01376,-0.28786 0.222515,-0.47969 0.522552,-0.48101 0.487892,-0.003 0.976048,-0.001 1.464734,-0.001 h 0.19685 c 0.01138,-0.25426 0.164306,-0.38788 0.36486,-0.48313 h 1.206765 z m -2.550584,4.1775 c 0,0.69559 -0.0021,1.39118 7.94e-4,2.08677 0.0013,0.32332 0.206904,0.52864 0.528638,0.52917 0.942446,0.002 1.885156,0.002 2.827602,0 0.331787,-5.3e-4 0.535781,-0.204 0.53631,-0.53869 0.0019,-1.3851 -5.29e-4,-2.77019 0.0032,-4.15528 5.29e-4,-0.12939 -0.04392,-0.16934 -0.169333,-0.16881 -1.184275,0.003 -2.368021,0.003 -3.551767,-5.3e-4 -0.133614,0 -0.179917,0.0402 -0.178594,0.17833 0.0063,0.68977 0.0032,1.37927 0.0032,2.06904 m 4.611958,-3.19934 h -5.324211 v 0.4662 h 5.324211 z"
       id="path4" />
  </g>
</svg>
