<?xml version="1.0" encoding="UTF-8" standalone="no"?>
<!-- Created with Inkscape (http://www.inkscape.org/) -->

<svg
   xmlns:dc="http://purl.org/dc/elements/1.1/"
   xmlns:cc="http://creativecommons.org/ns#"
   xmlns:rdf="http://www.w3.org/1999/02/22-rdf-syntax-ns#"
   xmlns:svg="http://www.w3.org/2000/svg"
   xmlns="http://www.w3.org/2000/svg"
   xmlns:sodipodi="http://sodipodi.sourceforge.net/DTD/sodipodi-0.dtd"
   xmlns:inkscape="http://www.inkscape.org/namespaces/inkscape"
   width="11.6526mm"
   height="7.13343mm"
   viewBox="0 0 11.6526 7.13343"
   version="1.1"
   id="svg832"
   sodipodi:docname="cambio_plan.svg"
   inkscape:version="0.92.3 (2405546, 2018-03-11)">
  <defs
     id="defs826" />
  <sodipodi:namedview
     id="base"
     pagecolor="#ffffff"
     bordercolor="#666666"
     borderopacity="1.0"
     inkscape:pageopacity="0.0"
     inkscape:pageshadow="2"
     inkscape:zoom="0.35"
     inkscape:cx="-965.15841"
     inkscape:cy="-660.79966"
     inkscape:document-units="mm"
     inkscape:current-layer="layer1"
     showgrid="false"
     inkscape:window-width="1920"
     inkscape:window-height="1056"
     inkscape:window-x="1366"
     inkscape:window-y="0"
     inkscape:window-maximized="1"
     fit-margin-top="0"
     fit-margin-left="0"
     fit-margin-right="0"
     fit-margin-bottom="0" />
  <metadata
     id="metadata829">
    <rdf:RDF>
      <cc:Work
         rdf:about="">
        <dc:format>image/svg+xml</dc:format>
        <dc:type
           rdf:resource="http://purl.org/dc/dcmitype/StillImage" />
        <dc:title></dc:title>
      </cc:Work>
    </rdf:RDF>
  </metadata>
  <g
     inkscape:label="Layer 1"
     inkscape:groupmode="layer"
     id="layer1"
     transform="translate(-108.32232,-130.90352)">
    <path
       inkscape:connector-curvature="0"
       style="fill:#565758;stroke-width:0.8"
       d="m 111.26027,136.67488 c -0.0302,0.51964 -0.0503,0.87259 -0.0791,1.36207 -0.25823,-0.1598 -0.42386,-0.23468 -0.55589,-0.34819 -0.68315,-0.58896 -1.34937,-1.19803 -2.0402,-1.77773 -0.31988,-0.26856 -0.37253,-0.46329 -0.0191,-0.75671 0.71041,-0.58923 1.38959,-1.21603 2.0873,-1.82113 0.12118,-0.10477 0.26987,-0.17939 0.5072,-0.3347 0.0392,0.4789 0.0696,0.85143 0.10637,1.30149 h 5.99731 c 0.0394,0.37703 0.0717,0.68262 0.11985,1.13877 0.81519,-0.70829 1.54464,-1.34224 2.36035,-2.05079 -0.78211,-0.68792 -1.51236,-1.33059 -2.35267,-2.06957 -0.0439,0.41539 -0.0754,0.71437 -0.11192,1.06045 h -4.28996 l -0.008,-0.14341 h 4.0259 c 0.041,-0.48815 0.0725,-0.85751 0.11298,-1.33191 0.22172,0.12171 0.37676,0.17621 0.49239,0.27596 0.71675,0.61595 1.41896,1.24831 2.1373,1.86214 0.27067,0.23151 0.31935,0.41407 0.0201,0.66887 -0.75247,0.64002 -1.4859,1.30201 -2.23255,1.94865 -0.0886,0.0767 -0.21194,0.11404 -0.41037,0.21643 -0.0378,-0.44556 -0.0693,-0.81756 -0.10716,-1.26762 h -5.99493 c -0.0405,-0.37676 -0.0733,-0.68236 -0.12197,-1.13612 -0.81412,0.7075 -1.54384,1.3417 -2.35876,2.05026 0.78264,0.68792 1.51342,1.33059 2.35373,2.06931 0.0431,-0.41646 0.0741,-0.71544 0.1098,-1.06125 h 4.29234 c 0.002,0.0484 0.005,0.0963 0.008,0.14446 h -4.04839 z"
       id="path2" />
  </g>
</svg>
