<?xml version="1.0" encoding="utf-8"?>
<!-- Generator: Adobe Illustrator 26.3.1, SVG Export Plug-In . SVG Version: 6.00 Build 0)  -->
<svg version="1.1" baseProfile="basic" id="Capa_1" xmlns="http://www.w3.org/2000/svg" xmlns:xlink="http://www.w3.org/1999/xlink"
	 x="0px" y="0px" viewBox="0 0 458 448" xml:space="preserve">
<style type="text/css">
	.st0{fill:#E74D15;}
	.st1{fill:#565758;}
	.animate{
		animation: mov 3s infinite;
	}	
	
	@keyframes mov{
		0% {
		
			transform: translate(-22px,12px);
		}
		50%{
			transform: translate(25px,-15px);
		}
		100% {
		
			transform: translate(-22px,12px);
		}
	
	}
</style>
<g>
	<g>
		<path class="st0" d="M178.42,94.63c-1.43-1.24-2.47-2.82-3.11-4.73l4.22-2.8c0.59,1.23,1.39,2.3,2.39,3.22
			c1.01,0.92,2,1.49,2.99,1.71c1.04,0.23,1.92,0.17,2.65-0.18c0.72-0.35,1.17-0.91,1.34-1.69c0.13-0.62,0.15-1.12,0.04-1.51
			c-0.11-0.39-0.41-0.84-0.91-1.36c-0.5-0.52-1.37-1.32-2.61-2.4c-1.66-1.43-2.93-2.69-3.8-3.78c-0.88-1.09-1.47-2.21-1.78-3.36
			c-0.31-1.15-0.3-2.44,0-3.86c0.32-1.48,0.98-2.71,1.97-3.71c0.99-0.99,2.23-1.66,3.72-2s3.11-0.32,4.87,0.07
			c1.95,0.43,3.58,1.19,4.89,2.29c1.3,1.1,2.15,2.43,2.54,3.97l-4.42,2.25c-0.87-1.82-2.15-2.92-3.83-3.28
			c-1.04-0.23-1.88-0.19-2.53,0.1c-0.65,0.3-1.05,0.82-1.22,1.57c-0.11,0.48-0.04,0.96,0.19,1.44c0.23,0.47,0.7,1.05,1.39,1.72
			c0.7,0.67,1.76,1.59,3.2,2.74c1.39,1.12,2.44,2.17,3.16,3.16c0.72,0.99,1.16,2.03,1.32,3.12c0.17,1.09,0.09,2.35-0.22,3.77
			c-0.36,1.64-1.06,2.99-2.1,4.04c-1.04,1.05-2.36,1.76-3.94,2.12c-1.58,0.36-3.33,0.33-5.23-0.08
			C181.58,96.71,179.85,95.87,178.42,94.63z"/>
		<path class="st0" d="M198.3,97.44c-1.32-2.23-1.62-4.98-0.91-8.26c0.71-3.28,2.13-5.66,4.26-7.14c2.12-1.48,4.72-1.89,7.79-1.22
			c3.07,0.67,5.26,2.12,6.58,4.34c1.32,2.23,1.62,4.98,0.9,8.26c-0.71,3.28-2.13,5.66-4.26,7.14c-2.12,1.48-4.72,1.89-7.79,1.22
			C201.81,101.12,199.62,99.67,198.3,97.44z M209.47,96.62c1.03-0.93,1.76-2.38,2.19-4.34c0.43-1.96,0.36-3.58-0.19-4.85
			c-0.55-1.27-1.53-2.07-2.95-2.37c-1.41-0.31-2.63,0-3.66,0.93c-1.03,0.93-1.76,2.38-2.19,4.34c-0.43,1.96-0.37,3.58,0.19,4.85
			s1.54,2.06,2.95,2.37C207.21,97.86,208.44,97.55,209.47,96.62z"/>
		<path class="st0" d="M219.34,103.45c-0.69-1.13-0.84-2.59-0.45-4.36l5.4-24.83l5.27,1.15l-5.43,24.95
			c-0.21,0.97,0.23,1.57,1.32,1.81c0.62,0.13,1.39,0.11,2.31-0.09l0.13,3.15c-1.41,0.74-3.08,0.89-5.04,0.47
			C221.19,105.34,220.02,104.59,219.34,103.45z"/>
		<path class="st0" d="M230.82,104.98c-0.75-1.8-0.79-4.23-0.12-7.29l2.46-11.29l5.27,1.15l-2.47,11.33
			c-0.35,1.61-0.37,2.83-0.06,3.66c0.31,0.83,0.98,1.35,1.99,1.57c1.21,0.26,2.32-0.03,3.32-0.88s1.67-2.03,1.99-3.53l2.31-10.6
			l5.27,1.15L247.58,105c-0.32,1.45-0.61,3.27-0.88,5.47l-5.05-1.1c0.12-1.49,0.27-2.69,0.47-3.57l-0.07-0.02
			c-0.68,1.09-1.65,1.87-2.9,2.34c-1.26,0.47-2.59,0.56-4,0.25C233.01,107.91,231.57,106.78,230.82,104.98z"/>
		<path class="st0" d="M252.03,109.12c-1.26-2.23-1.54-4.97-0.83-8.22c0.71-3.25,2.1-5.63,4.18-7.13c2.08-1.5,4.59-1.94,7.53-1.29
			c1.78,0.39,3.26,1.08,4.43,2.08c1.17,1,1.95,2.23,2.33,3.69l-3.81,2.3c-0.28-0.96-0.74-1.77-1.38-2.41
			c-0.64-0.65-1.39-1.06-2.26-1.25c-1.39-0.3-2.59,0.01-3.62,0.92c-1.03,0.92-1.75,2.33-2.17,4.24c-0.42,1.91-0.35,3.49,0.21,4.75
			c0.55,1.26,1.53,2.04,2.91,2.34c0.87,0.19,1.72,0.12,2.57-0.2c0.85-0.32,1.6-0.86,2.26-1.62l2.51,3.67
			c-0.96,1.17-2.17,1.97-3.65,2.39c-1.48,0.42-3.11,0.44-4.89,0.05C255.4,112.78,253.3,111.35,252.03,109.12z"/>
		<path class="st0" d="M273.55,95.2l5.27,1.15l-4.39,20.15l-5.27-1.15L273.55,95.2z M274.41,92.43c-0.48-0.72-0.61-1.58-0.39-2.58
			c0.22-0.99,0.69-1.72,1.43-2.18c0.74-0.46,1.6-0.58,2.59-0.37c0.99,0.22,1.72,0.69,2.2,1.41c0.48,0.72,0.61,1.58,0.39,2.58
			c-0.22,0.99-0.69,1.72-1.43,2.18c-0.74,0.46-1.6,0.58-2.59,0.37C275.62,93.62,274.89,93.16,274.41,92.43z"/>
		<path class="st0" d="M281.25,115.49c-1.32-2.23-1.62-4.98-0.91-8.26c0.71-3.28,2.13-5.66,4.26-7.14c2.12-1.48,4.72-1.89,7.79-1.22
			c3.07,0.67,5.26,2.12,6.58,4.34c1.32,2.23,1.62,4.98,0.91,8.26c-0.71,3.28-2.13,5.66-4.26,7.14c-2.12,1.48-4.72,1.89-7.79,1.22
			C284.76,119.17,282.57,117.72,281.25,115.49z M292.42,114.67c1.03-0.93,1.76-2.38,2.19-4.34c0.43-1.96,0.36-3.58-0.19-4.85
			c-0.55-1.27-1.53-2.07-2.95-2.37c-1.41-0.31-2.63,0-3.66,0.93c-1.03,0.93-1.76,2.38-2.19,4.34c-0.43,1.96-0.36,3.58,0.19,4.85
			c0.55,1.27,1.53,2.06,2.95,2.37C290.16,115.91,291.38,115.6,292.42,114.67z"/>
		<path class="st0" d="M303.6,107.4c0.52-2.39,0.86-4.2,1.03-5.43l4.94,1.08c-0.12,1.27-0.3,2.45-0.54,3.56l0.07,0.02
			c0.67-1.06,1.65-1.84,2.94-2.32c1.28-0.48,2.62-0.57,4.01-0.27c2.13,0.46,3.57,1.59,4.32,3.39c0.75,1.8,0.79,4.23,0.12,7.29
			l-2.46,11.29l-5.27-1.15l2.47-11.33c0.35-1.61,0.37-2.83,0.06-3.66s-0.99-1.36-2.03-1.58c-1.24-0.27-2.33-0.04-3.28,0.7
			c-0.95,0.74-1.59,1.84-1.91,3.32l-2.4,11l-5.27-1.15L303.6,107.4z"/>
		<path class="st0" d="M324.07,126.84c-0.84-0.77-1.43-1.71-1.76-2.81c-0.33-1.1-0.36-2.27-0.09-3.5c0.45-2.07,1.56-3.49,3.34-4.26
			c1.77-0.77,4.1-0.84,6.97-0.21l2.6,0.57l0.17-0.81c0.2-0.91,0.08-1.68-0.35-2.31c-0.43-0.63-1.12-1.05-2.06-1.25
			c-1.12-0.24-2.23-0.27-3.34-0.09c-1.12,0.18-2.08,0.55-2.9,1.1l-1.55-3.76c1.29-0.79,2.72-1.33,4.3-1.62
			c1.58-0.29,3.11-0.27,4.6,0.05c2.52,0.55,4.38,1.62,5.56,3.22c1.18,1.59,1.53,3.49,1.05,5.7l-1.97,9.07
			c-0.14,0.64-0.26,1.42-0.35,2.33c-0.09,0.91-0.13,1.62-0.11,2.13l-4.72-1.03c-0.07-0.41-0.1-0.77-0.11-1.08
			c-0.01-0.31,0.02-0.74,0.09-1.29l-0.07-0.02c-1.77,1.47-3.83,1.95-6.19,1.44C325.94,128.13,324.91,127.62,324.07,126.84z
			 M332.37,124.15c0.84-0.45,1.36-1.15,1.56-2.09l0.37-1.69l-2.75-0.6c-1.16-0.25-2.11-0.22-2.82,0.1s-1.17,0.91-1.36,1.77
			c-0.16,0.73-0.06,1.33,0.3,1.82s0.96,0.82,1.8,1C330.57,124.71,331.54,124.6,332.37,124.15z"/>
		<path class="st0" d="M161.39,124.47l-12.77-2.78c-0.04,1.26,0.23,2.26,0.8,3c0.58,0.75,1.47,1.25,2.68,1.51
			c1.06,0.23,2.03,0.25,2.91,0.04c0.87-0.2,1.81-0.68,2.8-1.42l2.19,3.52c-1.01,1.16-2.36,1.98-4.05,2.45
			c-1.7,0.48-3.44,0.52-5.22,0.13c-2.92-0.64-5.01-2.05-6.27-4.26c-1.26-2.2-1.53-4.93-0.83-8.18c0.71-3.28,2.1-5.68,4.17-7.2
			c2.07-1.52,4.55-1.97,7.45-1.33c2.77,0.6,4.74,2.01,5.91,4.22c1.16,2.21,1.39,4.95,0.68,8.23L161.39,124.47z M157.07,119.27
			c0.26-1.18,0.13-2.19-0.39-3.02c-0.52-0.83-1.36-1.37-2.52-1.63c-1.04-0.23-1.97-0.06-2.79,0.51c-0.82,0.57-1.49,1.47-1.99,2.71
			l7.65,1.67L157.07,119.27z"/>
		<path class="st0" d="M165.6,118.34c0.59-2.71,0.94-4.54,1.04-5.47l4.6,1c-0.09,1.02-0.29,2.2-0.58,3.55l0.07,0.02
			c0.61-1.13,1.5-1.94,2.68-2.41c1.18-0.47,2.49-0.56,3.92-0.24c1.34,0.29,2.42,0.84,3.24,1.65c0.82,0.81,1.27,1.76,1.34,2.85
			c0.72-0.91,1.64-1.56,2.78-1.95c1.13-0.39,2.31-0.45,3.52-0.18c2.05,0.45,3.52,1.52,4.39,3.22c0.88,1.7,1.04,3.81,0.49,6.33
			l-2.71,12.46l-5.24-1.14l2.56-11.77c0.28-1.29,0.24-2.36-0.12-3.21c-0.36-0.85-0.98-1.38-1.88-1.57
			c-1.02-0.22-1.89-0.02-2.64,0.59c-0.74,0.61-1.26,1.58-1.54,2.89l-2.55,11.73l-5.2-1.13l2.53-11.61c0.29-1.34,0.27-2.45-0.07-3.33
			s-0.96-1.41-1.85-1.61c-1.01-0.22-1.9-0.01-2.66,0.62s-1.29,1.63-1.58,2.97l-2.53,11.61l-5.23-1.14L165.6,118.34z"/>
		<path class="st0" d="M213.29,135.77l-12.77-2.78c-0.04,1.26,0.23,2.26,0.8,3s1.47,1.25,2.68,1.51c1.06,0.23,2.03,0.25,2.91,0.04
			c0.87-0.2,1.81-0.68,2.8-1.42l2.19,3.52c-1,1.16-2.36,1.98-4.05,2.45c-1.7,0.48-3.44,0.52-5.22,0.13
			c-2.92-0.64-5.01-2.05-6.27-4.26c-1.26-2.2-1.53-4.93-0.83-8.18c0.71-3.28,2.1-5.68,4.17-7.2c2.07-1.52,4.55-1.97,7.45-1.33
			c2.77,0.6,4.74,2.01,5.91,4.22c1.17,2.21,1.39,4.95,0.68,8.23L213.29,135.77z M208.98,130.57c0.26-1.18,0.13-2.19-0.39-3.02
			c-0.52-0.83-1.36-1.37-2.52-1.63c-1.04-0.23-1.97-0.06-2.79,0.51c-0.82,0.57-1.49,1.47-1.99,2.71l7.65,1.66L208.98,130.57z"/>
		<path class="st0" d="M217.84,129.16c0.5-2.28,0.82-3.93,0.96-4.94l5.01,1.09c-0.13,1.07-0.34,2.26-0.62,3.58l-0.09,0.4l0.15,0.03
			c0.76-1.21,1.83-2.08,3.23-2.61c1.4-0.53,2.89-0.62,4.47-0.27c0.32,0.07,0.7,0.19,1.12,0.37l-0.97,4.47
			c-0.04-0.04-0.29-0.1-0.73-0.2c-1.26-0.27-2.51-0.18-3.76,0.28c-1.24,0.46-2.31,1.2-3.2,2.21c-0.9,1.02-1.49,2.2-1.78,3.54
			l-1.83,8.42l-5.27-1.15L217.84,129.16z"/>
		<path class="st0" d="M251.51,131.34l-4.2,19.31c-0.75,3.44-2.11,5.87-4.09,7.28c-1.98,1.41-4.54,1.78-7.69,1.09
			c-1.51-0.33-2.88-0.83-4.11-1.51c-1.23-0.68-2.26-1.48-3.09-2.42l2.58-3.45c0.76,0.67,1.62,1.27,2.59,1.79
			c0.96,0.52,1.88,0.87,2.74,1.06c1.58,0.34,2.88,0.04,3.89-0.91c1.01-0.95,1.76-2.55,2.25-4.81l0.06-0.28
			c-1.32,1.06-3.09,1.35-5.32,0.87c-2.62-0.57-4.45-1.9-5.49-4c-1.04-2.1-1.19-4.81-0.46-8.14c0.71-3.28,1.94-5.66,3.69-7.13
			c1.75-1.48,3.86-1.95,6.33-1.41c2.55,0.55,4.2,1.9,4.96,4.03l0.07,0.02l0.86-2.35L251.51,131.34z M244.31,139.06
			c0.36-1.67,0.33-2.99-0.11-3.97c-0.44-0.98-1.26-1.6-2.47-1.87c-1.31-0.29-2.42,0.02-3.33,0.9s-1.58,2.34-2.02,4.35
			c-0.85,3.92,0.04,6.17,2.69,6.75c1.21,0.26,2.22,0.08,3.02-0.57c0.8-0.64,1.36-1.7,1.68-3.18L244.31,139.06z"/>
		<path class="st0" d="M269.81,148.07l-12.77-2.78c-0.04,1.26,0.23,2.26,0.8,3s1.47,1.25,2.68,1.51c1.06,0.23,2.03,0.25,2.91,0.04
			c0.87-0.2,1.81-0.68,2.8-1.42l2.19,3.52c-1,1.16-2.36,1.98-4.05,2.45c-1.7,0.48-3.44,0.52-5.22,0.13
			c-2.92-0.64-5.01-2.05-6.27-4.26c-1.26-2.2-1.53-4.93-0.83-8.18c0.71-3.28,2.1-5.68,4.17-7.2c2.07-1.52,4.55-1.97,7.45-1.33
			c2.77,0.6,4.74,2.01,5.91,4.22c1.17,2.21,1.39,4.95,0.68,8.23L269.81,148.07z M265.49,142.87c0.26-1.18,0.13-2.19-0.39-3.02
			c-0.52-0.83-1.36-1.37-2.52-1.63c-1.04-0.23-1.97-0.06-2.79,0.51c-0.82,0.57-1.49,1.47-1.99,2.71l7.65,1.66L265.49,142.87z"/>
		<path class="st0" d="M273.99,141.89c0.52-2.39,0.86-4.2,1.03-5.43l4.94,1.08c-0.12,1.27-0.3,2.45-0.54,3.56l0.07,0.02
			c0.67-1.06,1.65-1.84,2.94-2.32c1.28-0.48,2.62-0.57,4-0.27c2.13,0.46,3.57,1.59,4.32,3.39c0.75,1.8,0.79,4.23,0.12,7.29
			l-2.46,11.29l-5.27-1.15l2.46-11.33c0.35-1.61,0.37-2.83,0.06-3.66c-0.31-0.83-0.99-1.35-2.03-1.58c-1.24-0.27-2.33-0.04-3.28,0.7
			c-0.95,0.74-1.59,1.84-1.91,3.32l-2.39,11l-5.27-1.15L273.99,141.89z"/>
		<path class="st0" d="M294.23,159.24c-1.26-2.23-1.54-4.97-0.84-8.22c0.71-3.25,2.1-5.63,4.18-7.13c2.08-1.5,4.59-1.94,7.54-1.29
			c1.78,0.39,3.26,1.08,4.43,2.08c1.17,1,1.94,2.23,2.33,3.69l-3.81,2.3c-0.28-0.96-0.74-1.77-1.38-2.41
			c-0.64-0.65-1.39-1.06-2.25-1.25c-1.39-0.3-2.59,0.01-3.62,0.92c-1.03,0.92-1.75,2.33-2.17,4.24c-0.42,1.91-0.35,3.49,0.21,4.75
			c0.56,1.26,1.53,2.04,2.91,2.34c0.87,0.19,1.72,0.12,2.57-0.2c0.85-0.32,1.6-0.86,2.26-1.62l2.51,3.67
			c-0.96,1.17-2.17,1.97-3.65,2.39c-1.48,0.42-3.11,0.44-4.89,0.05C297.6,162.9,295.49,161.47,294.23,159.24z"/>
		<path class="st0" d="M315.75,145.32l5.27,1.15l-4.39,20.16l-5.27-1.15L315.75,145.32z M316.6,142.55
			c-0.48-0.72-0.61-1.58-0.39-2.58c0.22-0.99,0.69-1.72,1.43-2.18c0.73-0.46,1.6-0.58,2.59-0.37s1.72,0.69,2.2,1.41
			c0.48,0.72,0.61,1.58,0.39,2.58c-0.22,1-0.69,1.72-1.43,2.18c-0.74,0.46-1.6,0.58-2.59,0.37S317.08,143.28,316.6,142.55z"/>
		<path class="st0" d="M323.41,167.63c-0.84-0.77-1.43-1.71-1.76-2.81s-0.36-2.27-0.09-3.5c0.45-2.07,1.56-3.49,3.34-4.26
			c1.77-0.77,4.1-0.84,6.97-0.21l2.6,0.57l0.18-0.81c0.2-0.91,0.08-1.68-0.35-2.31s-1.12-1.05-2.06-1.25
			c-1.11-0.24-2.23-0.27-3.34-0.09c-1.12,0.18-2.08,0.55-2.9,1.1l-1.55-3.76c1.29-0.79,2.72-1.33,4.3-1.62
			c1.58-0.29,3.11-0.27,4.6,0.05c2.52,0.55,4.38,1.62,5.56,3.22c1.18,1.59,1.53,3.49,1.05,5.7l-1.97,9.07
			c-0.14,0.64-0.26,1.42-0.35,2.33c-0.09,0.91-0.13,1.62-0.11,2.13l-4.72-1.03c-0.07-0.41-0.1-0.77-0.11-1.08
			c-0.01-0.31,0.02-0.74,0.09-1.29l-0.07-0.02c-1.77,1.47-3.83,1.95-6.19,1.44C325.28,168.93,324.26,168.41,323.41,167.63z
			 M331.72,164.95c0.84-0.45,1.36-1.15,1.56-2.09l0.37-1.69l-2.75-0.6c-1.16-0.25-2.11-0.22-2.82,0.1
			c-0.72,0.32-1.17,0.91-1.36,1.77c-0.16,0.73-0.06,1.33,0.3,1.82c0.36,0.49,0.96,0.82,1.8,1
			C329.92,165.5,330.88,165.4,331.72,164.95z"/>
		<path class="st0" d="M342.74,171.59c-1.1-1-1.77-2.16-2-3.48l3.79-1.71c0.3,0.77,0.74,1.42,1.32,1.96
			c0.58,0.54,1.22,0.88,1.92,1.03c0.77,0.17,1.44,0.1,2.03-0.19c0.58-0.29,0.94-0.75,1.08-1.37c0.07-0.32,0.06-0.6-0.03-0.83
			c-0.09-0.23-0.31-0.5-0.66-0.8c-0.35-0.3-0.92-0.73-1.7-1.3c-2.11-1.5-3.52-2.84-4.24-4.02c-0.71-1.18-0.91-2.5-0.6-3.95
			c0.37-1.72,1.32-2.96,2.83-3.71c1.51-0.75,3.33-0.9,5.46-0.44c1.46,0.32,2.7,0.89,3.73,1.72c1.03,0.83,1.79,1.87,2.29,3.14
			l-3.58,1.8c-0.61-1.26-1.64-2.05-3.1-2.36c-0.67-0.15-1.21-0.14-1.62,0.03c-0.41,0.16-0.67,0.46-0.76,0.89
			c-0.07,0.32-0.05,0.6,0.05,0.83c0.1,0.23,0.36,0.53,0.76,0.88c0.4,0.36,1.1,0.88,2.09,1.57c1.39,0.98,2.43,1.85,3.12,2.62
			c0.69,0.77,1.13,1.52,1.32,2.25c0.19,0.73,0.18,1.58-0.03,2.55c-0.29,1.32-0.87,2.41-1.74,3.27c-0.88,0.86-1.97,1.44-3.28,1.74
			c-1.31,0.29-2.73,0.27-4.26-0.06C345.23,173.27,343.84,172.59,342.74,171.59z"/>
		<path class="st0" d="M211.65,184.25c-0.84-0.77-1.43-1.71-1.76-2.81c-0.33-1.1-0.36-2.27-0.09-3.5c0.45-2.07,1.56-3.49,3.34-4.26
			c1.77-0.77,4.1-0.84,6.97-0.21l2.6,0.57l0.17-0.81c0.2-0.91,0.08-1.69-0.35-2.31c-0.43-0.63-1.12-1.05-2.06-1.25
			c-1.11-0.24-2.23-0.27-3.34-0.09s-2.08,0.55-2.9,1.1l-1.55-3.76c1.29-0.79,2.72-1.33,4.3-1.62c1.58-0.29,3.11-0.27,4.6,0.05
			c2.53,0.55,4.38,1.62,5.56,3.22c1.18,1.59,1.53,3.49,1.05,5.7l-1.97,9.07c-0.14,0.64-0.26,1.42-0.35,2.33
			c-0.09,0.91-0.13,1.62-0.11,2.13l-4.72-1.03c-0.07-0.41-0.11-0.77-0.12-1.08c-0.01-0.31,0.02-0.74,0.09-1.29l-0.07-0.02
			c-1.77,1.47-3.83,1.95-6.19,1.44C213.52,185.54,212.49,185.02,211.65,184.25z M219.95,181.56c0.84-0.45,1.36-1.15,1.56-2.09
			l0.37-1.69l-2.75-0.6c-1.16-0.25-2.1-0.22-2.82,0.1c-0.72,0.32-1.17,0.91-1.36,1.77c-0.16,0.73-0.06,1.33,0.3,1.82
			c0.36,0.49,0.96,0.82,1.8,1C218.15,182.11,219.12,182.01,219.95,181.56z"/>
		<path class="st0" d="M241.82,189.12l-0.11-0.02c-0.66,0.67-1.5,1.12-2.51,1.35c-1.01,0.23-2.08,0.22-3.22-0.03
			c-2.4-0.52-4.08-1.86-5.02-4.01c-0.95-2.15-1.06-4.86-0.35-8.14c0.71-3.28,1.96-5.7,3.74-7.25c1.78-1.56,3.88-2.07,6.3-1.54
			c1.21,0.26,2.23,0.73,3.06,1.4c0.83,0.67,1.43,1.5,1.81,2.48l0.07,0.02c0.23-1.05,0.43-1.81,0.61-2.27l5.01,1.09
			c-0.55,1.91-1,3.71-1.37,5.4l-5.32,24.47l-5.27-1.15L241.82,189.12z M241.29,185.93c0.95-0.61,1.54-1.46,1.78-2.57l0.94-4.31
			c0.26-1.21,0.1-2.27-0.49-3.19c-0.59-0.92-1.48-1.5-2.67-1.76c-2.43-0.53-4.08,1.21-4.95,5.21c-0.45,2.07-0.48,3.72-0.08,4.94
			c0.39,1.23,1.2,1.97,2.41,2.23C239.32,186.72,240.34,186.54,241.29,185.93z"/>
		<path class="st0" d="M252.19,191.51c-0.75-1.8-0.79-4.23-0.12-7.29l2.46-11.29l5.27,1.15l-2.46,11.33
			c-0.35,1.61-0.37,2.83-0.06,3.66c0.31,0.83,0.98,1.35,1.99,1.57c1.21,0.26,2.32-0.03,3.32-0.88s1.67-2.03,1.99-3.54l2.31-10.6
			l5.27,1.15l-3.21,14.75c-0.32,1.45-0.61,3.27-0.88,5.47l-5.05-1.1c0.12-1.49,0.27-2.69,0.47-3.57l-0.07-0.02
			c-0.68,1.09-1.65,1.87-2.9,2.34c-1.26,0.47-2.59,0.56-4,0.25C254.37,194.43,252.93,193.3,252.19,191.51z"/>
		<path class="st0" d="M276.57,177.73l5.2,1.13l-4.39,20.15l-5.2-1.13L276.57,177.73z M282.2,169.54l5.05,1.1l-5.56,5.88l-4.2-0.91
			L282.2,169.54z"/>
	</g>
	<path class="st1 animate" d="M249.33,257.68c-0.61,1.33-1.23,2.65-1.84,3.96c-1.41,3.01-2.73,5.86-4.03,8.79l-0.54,1.22
		c-1.88,4.25-3.83,8.65-6.65,12.59c-2.26,3.16-4.47,6.45-6.6,9.64c-1.49,2.23-2.98,4.46-4.51,6.67c-6.7,9.7-14.92,20.92-25.03,30.57
		c-1.74,1.66-3.47,3.34-5.2,5.01c-6.38,6.17-12.97,12.56-20.09,18.18c-6.96,5.49-14.32,10.65-21.45,15.63l-3.58,2.51
		c-7.14,5.01-14.82,10.26-23.29,14.55c-5.22,2.64-10.76,5.5-16.03,8.85c-1.58,1-3.16,1.98-4.76,2.95
		c-4.42,2.66-8.94,5.18-13.57,7.45c-1.95,0.96-4.05,2.25-6.2,2.58c-2.47,0.38-5.11,1.64-7.4,2.64c-1.55,0.68-3.05,1.46-4.55,2.24
		c-3.39,1.77-6.79,3.54-10.18,5.3c-1.7,0.88-3.4,1.76-5.09,2.65c-0.62,0.33-1.16,0.54-0.43,1.09c0.21,0.16,0.52,0.22,0.78,0.26
		c1.85,0.28,4.06-0.13,5.94-0.19c4.89-0.14,9.79-0.25,14.68-0.32c0.56,1.24,1.03,2.53,1.38,3.84c-0.04-0.16-4.95,0.7-5.53,0.93
		c-1.75,0.69-3.59,0.97-5.47,1.08c-2.22,0.13-4.44,0.33-6.67,0.33c-3.28,0-6.58,0.04-9.84-0.26c-2.76-0.25-5.64,0.56-8.27-0.86
		c-0.05,0.05-0.12,0.15-0.15,0.14c-0.06-0.02-0.11-0.05-0.17-0.08c-0.05-0.03-0.11-0.07-0.16-0.1c-1.7-0.31-3.41-0.63-5.11-0.94
		c-0.9-0.17-1.86-0.51-1.87-1.5c-0.03-2.06,0.24-3.89,2.25-5.36c2.71-1.98,5.23-4.25,8.18-5.88c2.98-1.64,5.03-4.67,8.58-5.51
		c1-0.24,1.78-0.65,2.29,0.47c0.58,1.27,0.41,2.5-0.87,3.26c-0.7,0.41-1.51,0.57-2.27,0.99c-2.39,1.31-4.57,2.95-6.74,4.58
		c-1.28,0.96-2.61,1.84-3.95,2.71c-0.3,0.2-2.3,1.15-2.24,1.62c0.07,0.55,1.16,0.47,1.64,0.48c1.97,0.03,3.59-0.88,5.44-1.29
		c0.58-0.13,1.15-0.2,1.72-0.41c1.91-0.72,3.74-1.87,5.55-2.8c3.86-1.97,7.71-3.95,11.57-5.92c9.79-5.02,19.6-10.04,28.98-15.81
		c2.01-1.23,4.04-3,6.34-3.62c2.34-0.63,4.36-2.17,6.43-3.38c4.56-2.66,9.19-5.21,13.9-7.58c0.27-0.14,0.54-0.27,0.81-0.41
		c7.64-3.81,14.75-8.74,21.63-13.51l1.66-1.15c6.71-4.64,13.46-9.61,19.27-13.9c3.07-2.27,6.03-4.66,8.8-7.1
		c3.49-3.08,6.93-6.35,10.26-9.52l0.56-0.54c1.34-1.28,2.7-2.54,4.06-3.8c3.44-3.19,7-6.49,10.16-9.99
		c9.55-10.61,17.78-22.3,26.07-34.33c4.94-7.18,9.38-15.32,13.9-25.45c0.25-0.63,0.5-1.43,0.92-2.1c0.03-0.08,0.06-0.15,0.09-0.24
		c0.52-1.42,1.61-4.35,5.14-4.07c0.03,0,0.07,0.01,0.1,0.01l2.15,0.2L249.33,257.68z"/>
	<path class="st1" d="M92.41,95.42c0.66,10.77,3.82,21.97,9.05,33.08c2.13,4.53,4.63,9.06,7.44,13.55
		c1.66,4.02,3.51,8.03,5.54,12.02c5.93,11.68,13.9,23.49,25.17,34.24c12.32,11.75,28.34,21.55,45.78,29.5
		c15.8,7.21,32.53,13.09,49.44,17.45c16.67,4.3,33.41,7.17,49.9,8.54c16.3,1.36,32.22,1.15,47.07-0.69
		c14.71-1.82,28.39-5.31,40.15-10.46c11.7-5.12,21.62-11.81,29.32-19.68c7.68-7.86,13.28-16.88,16.28-26.75
		c2.98-9.82,3.51-20.45,1.05-31.42c-2.37-10.57-7.34-21.35-14.59-31.84c-7.18-10.39-16.33-20.43-27.02-29.87
		c-10.86-9.58-23.08-18.53-36.35-26.67c-13.35-8.2-27.62-15.62-42.53-22.05C281.03,37,263.12,30.78,245.02,26.3
		c-18.39-4.54-37.08-7.25-54.65-6.93c-14.84,0.27-28.63,2.51-40.93,6.36c-12.25,3.83-22.92,9.32-31.63,16.01
		c-8.73,6.71-15.5,14.72-19.83,23.64C93.52,74.57,91.76,84.82,92.41,95.42z M110.31,85.54c3.56-9.29,9.66-17.63,17.88-24.73
		c16.5-14.26,41.42-23.41,70.93-24.94c30.3-1.57,64.02,4.19,95.33,15.77c30.31,11.2,57.43,28.03,77.86,47.54
		c6.14,5.87,11.69,11.95,16.59,18.17c-0.2,0.44-0.11,0.97,0.43,1.49c1.14,1.11,2.22,2.23,3.25,3.37c5.72,7.88,10.37,15.94,13.81,24
		c0.25,0.9,0.48,1.79,0.67,2.69c2.33,10.92,0.64,21.21-4.31,30.26c-5.59,10.21-15.03,18.71-26.2,25.83
		c-20.15,12.85-46.12,22.21-75.74,25.57c-28.46,3.22-61.05,0.1-91.5-12.32c-32.82-13.38-60.54-34.81-79.7-57.01
		c-5.38-6.23-10.13-12.63-14.2-19.1c-3.3-8.02-5.79-16.05-7.25-23.91C106.01,106.72,106.44,95.65,110.31,85.54z M128.97,167.88
		c8.2,8.74,17.61,17.14,28,24.96c14.29,10.75,30.7,20.56,48.56,27.93c16.18,6.68,33.27,11.25,50.22,13.41
		c16.3,2.07,32.08,2.05,46.93,0.5c15.13-1.58,29.23-4.78,42.18-9.06c13.6-4.51,25.95-10.3,36.82-17.11
		c11.65-7.3,21.42-16.07,27.36-26.57c1.75-3.09,3.12-6.34,4.11-9.71c-1.14,13.8-7.13,26.47-17.08,36.97
		c-14.69,15.49-37.62,25.93-65.94,29.74c-28.07,3.78-60.4,1.27-91.75-6.59c-16.16-4.05-32.18-9.46-47.36-16.2
		c-16.8-7.46-32.6-16.62-44.63-27.82C139.39,181.8,133.7,174.91,128.97,167.88z M123.04,45.3c16.33-12.86,40.35-21.21,68.5-21.87
		c33.18-0.78,70.17,9.47,102.67,23.4c3.86,1.66,7.69,3.38,11.47,5.17c-2.47-1.02-4.97-2.02-7.49-2.97
		c-16.24-6.16-33.25-10.81-50.09-13.75c-16.89-2.95-33.77-4.22-49.63-3.52c-15.66,0.69-30.21,3.26-43.09,7.66
		c-12.57,4.29-23.47,10.28-32.18,17.56c-8.69,7.25-15.27,15.86-19.14,25.41c-2.74,6.77-4.02,13.98-4.01,21.47
		c-0.36-2.23-0.63-4.44-0.78-6.64C97.83,76.85,106.02,58.7,123.04,45.3z"/>
</g>
</svg>
