<?xml version="1.0" encoding="utf-8"?>
<!-- Generator: Adobe Illustrator 26.3.1, SVG Export Plug-In . SVG Version: 6.00 Build 0)  -->
<svg version="1.1" baseProfile="basic" id="Capa_1" xmlns="http://www.w3.org/2000/svg" xmlns:xlink="http://www.w3.org/1999/xlink"
	 x="0px" y="0px" viewBox="0 0 458 448" xml:space="preserve">
<style type="text/css">
	.st0{fill:#E74D15;}
	.st1{fill:#565758;}
	.animate{
		animation: mov 3s infinite;
	}		
	@keyframes mov{
		0% {		
			transform: translate(10px,5px);
		}
		50%{
			transform: translate(-50px,-18px);
		}
		100% {
		
			transform: translate(10px,5px);
		}
	
	}
</style>
<g>
	<g>
		<path class="st0" d="M74.84,120.51l8.73-2.88c3.03-1,5.58-1.01,7.65-0.03c2.07,0.98,3.59,2.94,4.55,5.86
			c1.02,3.08,0.99,5.68-0.09,7.8c-1.07,2.12-3.16,3.69-6.27,4.72l-2.74,0.9l3.01,9.13l-5.81,1.92L74.84,120.51z M88.18,130.88
			c1.11-0.36,1.83-1.01,2.16-1.93c0.34-0.92,0.28-2.07-0.18-3.46c-0.44-1.33-1.08-2.24-1.92-2.71c-0.84-0.48-1.86-0.52-3.06-0.12
			l-2.89,0.95l2.74,8.31L88.18,130.88z"/>
		<path class="st0" d="M105.94,139.57c-1.17-0.63-2.04-1.81-2.6-3.53l-7.96-24.13l5.12-1.69l8,24.25c0.31,0.94,0.99,1.24,2.05,0.89
			c0.6-0.2,1.25-0.61,1.95-1.25l1.71,2.65c-0.84,1.35-2.2,2.33-4.1,2.96C108.49,140.25,107.1,140.2,105.94,139.57z"/>
		<path class="st0" d="M117.88,136.24c-1.12-0.24-2.1-0.75-2.94-1.53c-0.84-0.78-1.46-1.77-1.86-2.97c-0.66-2.01-0.43-3.8,0.71-5.36
			c1.14-1.56,3.1-2.8,5.89-3.72l2.53-0.83l-0.26-0.78c-0.29-0.89-0.79-1.49-1.48-1.81c-0.69-0.32-1.5-0.33-2.41-0.03
			c-1.08,0.36-2.06,0.9-2.93,1.62c-0.87,0.72-1.52,1.53-1.94,2.42l-3.25-2.45c0.71-1.33,1.67-2.53,2.88-3.58s2.54-1.82,3.99-2.29
			c2.45-0.81,4.6-0.83,6.42-0.06c1.83,0.77,3.1,2.23,3.8,4.37l2.91,8.82c0.21,0.63,0.5,1.36,0.88,2.18
			c0.38,0.83,0.71,1.46,0.98,1.89l-4.58,1.51c-0.27-0.32-0.48-0.61-0.65-0.87s-0.36-0.65-0.58-1.16l-0.07,0.02
			c-0.78,2.17-2.31,3.63-4.6,4.38C120.15,136.4,119,136.48,117.88,136.24z M123.67,129.7c0.49-0.81,0.59-1.68,0.29-2.59l-0.54-1.64
			l-2.67,0.88c-1.13,0.37-1.92,0.88-2.38,1.52c-0.46,0.64-0.54,1.38-0.27,2.22c0.23,0.71,0.63,1.18,1.19,1.41
			c0.56,0.24,1.25,0.22,2.06-0.05C122.4,131.1,123.18,130.52,123.67,129.7z"/>
		<path class="st0" d="M130.15,116.77c-0.77-2.32-1.39-4.06-1.88-5.2l4.8-1.58c0.54,1.15,0.99,2.27,1.34,3.34l0.07-0.02
			c0.04-1.26,0.49-2.42,1.35-3.49c0.86-1.07,1.97-1.82,3.31-2.27c2.07-0.68,3.88-0.44,5.44,0.72c1.56,1.17,2.83,3.24,3.81,6.21
			l3.62,10.97l-5.12,1.69l-3.63-11.01c-0.52-1.57-1.12-2.63-1.81-3.18c-0.69-0.55-1.54-0.66-2.55-0.33c-1.2,0.4-2.03,1.15-2.47,2.27
			s-0.43,2.39,0.04,3.83l3.53,10.7l-5.12,1.69L130.15,116.77z"/>
		<path class="st0" d="M170.03,110.92l-12.41,4.09c0.6,1.1,1.34,1.83,2.22,2.18c0.88,0.35,1.9,0.33,3.08-0.06
			c1.03-0.34,1.88-0.82,2.52-1.44c0.65-0.62,1.21-1.5,1.69-2.64l3.67,1.92c-0.28,1.51-1.02,2.9-2.25,4.17
			c-1.22,1.27-2.7,2.19-4.43,2.76c-2.84,0.94-5.36,0.78-7.56-0.48c-2.2-1.26-3.82-3.47-4.87-6.63c-1.05-3.19-1.07-5.96-0.06-8.32
			c1.01-2.36,2.92-4,5.74-4.93c2.69-0.89,5.1-0.68,7.23,0.63c2.13,1.31,3.72,3.56,4.77,6.75L170.03,110.92z M163.67,108.63
			c-0.38-1.15-1-1.95-1.87-2.4c-0.87-0.45-1.87-0.49-3-0.12c-1.01,0.33-1.73,0.95-2.15,1.86c-0.42,0.91-0.53,2.02-0.34,3.35
			l7.43-2.45L163.67,108.63z"/>
		<path class="st0" d="M176.88,116.52c-1.46-0.3-2.62-0.96-3.49-1.98l2.4-3.4c0.65,0.51,1.36,0.85,2.13,1.01
			c0.77,0.16,1.5,0.14,2.17-0.09c0.75-0.25,1.29-0.64,1.65-1.19c0.35-0.55,0.43-1.13,0.23-1.73c-0.1-0.31-0.25-0.55-0.45-0.7
			c-0.2-0.15-0.52-0.27-0.98-0.35c-0.45-0.08-1.16-0.17-2.12-0.25c-2.58-0.22-4.48-0.66-5.7-1.31c-1.22-0.66-2.06-1.69-2.52-3.1
			c-0.55-1.67-0.37-3.22,0.55-4.63c0.92-1.42,2.41-2.47,4.48-3.15c1.42-0.47,2.78-0.61,4.08-0.41c1.3,0.19,2.49,0.71,3.57,1.54
			l-2.17,3.37c-1.16-0.77-2.45-0.93-3.87-0.46c-0.65,0.21-1.11,0.5-1.38,0.85c-0.27,0.35-0.34,0.73-0.2,1.15
			c0.1,0.31,0.26,0.54,0.47,0.69c0.21,0.15,0.58,0.27,1.1,0.38c0.53,0.1,1.39,0.2,2.6,0.29c1.7,0.13,3.04,0.36,4.02,0.67
			c0.98,0.31,1.74,0.74,2.28,1.27c0.54,0.53,0.96,1.27,1.27,2.21c0.42,1.28,0.48,2.52,0.16,3.7c-0.31,1.19-0.96,2.24-1.94,3.16
			s-2.21,1.62-3.7,2.11C179.88,116.7,178.34,116.82,176.88,116.52z"/>
		<path class="st0" d="M200.31,106.88c-1.96-1.41-3.48-3.76-4.57-7.05c-0.65-1.98-0.92-3.82-0.78-5.52
			c0.13-1.69,0.65-3.14,1.55-4.33c0.9-1.19,2.13-2.05,3.7-2.57c1.06-0.35,2.02-0.47,2.9-0.37c0.87,0.1,1.74,0.43,2.59,0.99
			l0.07-0.02l-3.72-11.28l5.12-1.69l7.84,23.78c0.93,2.82,1.55,4.57,1.85,5.25l-4.84,1.59c-0.15-0.38-0.43-1.19-0.84-2.42
			l-0.07,0.02c-0.28,1.02-0.81,1.95-1.58,2.78c-0.78,0.84-1.68,1.42-2.72,1.77C204.44,108.6,202.27,108.29,200.31,106.88z
			 M208.95,101.23c0.47-0.95,0.51-2.03,0.11-3.23l-1.38-4.19c-0.35-1.07-1.03-1.86-2.02-2.37c-1-0.51-2.05-0.58-3.15-0.22
			c-1.18,0.39-1.91,1.18-2.18,2.37c-0.27,1.19-0.1,2.74,0.53,4.65c0.66,2.01,1.47,3.45,2.42,4.31c0.95,0.86,2.01,1.09,3.19,0.71
			C207.65,102.85,208.47,102.18,208.95,101.23z"/>
		<path class="st0" d="M234.7,89.59l-12.41,4.09c0.6,1.1,1.34,1.83,2.22,2.18c0.88,0.35,1.9,0.33,3.08-0.06
			c1.03-0.34,1.88-0.82,2.53-1.44c0.65-0.62,1.21-1.5,1.69-2.64l3.67,1.92c-0.28,1.51-1.02,2.9-2.25,4.17
			c-1.22,1.27-2.7,2.19-4.43,2.77c-2.84,0.94-5.36,0.78-7.56-0.48c-2.2-1.26-3.82-3.47-4.87-6.63c-1.05-3.19-1.07-5.96-0.06-8.32
			c1.01-2.36,2.92-4,5.74-4.93c2.69-0.89,5.1-0.68,7.23,0.63c2.13,1.31,3.72,3.56,4.77,6.75L234.7,89.59z M228.34,87.3
			c-0.38-1.15-1-1.95-1.87-2.4c-0.87-0.45-1.87-0.49-3-0.12c-1.01,0.33-1.73,0.95-2.15,1.86c-0.42,0.91-0.53,2.02-0.34,3.35
			l7.43-2.45L228.34,87.3z"/>
		<path class="st0" d="M241.55,95.19c-1.46-0.3-2.62-0.96-3.49-1.98l2.4-3.4c0.65,0.51,1.36,0.85,2.13,1.01s1.5,0.14,2.17-0.09
			c0.75-0.25,1.29-0.64,1.65-1.19c0.35-0.55,0.43-1.13,0.23-1.73c-0.1-0.31-0.25-0.55-0.45-0.7c-0.2-0.15-0.52-0.27-0.98-0.35
			c-0.45-0.08-1.16-0.17-2.12-0.25c-2.58-0.22-4.48-0.66-5.7-1.31c-1.22-0.66-2.06-1.69-2.52-3.1c-0.55-1.67-0.37-3.22,0.55-4.63
			c0.92-1.42,2.41-2.47,4.48-3.15c1.42-0.47,2.78-0.61,4.08-0.41c1.3,0.19,2.49,0.71,3.57,1.54l-2.17,3.37
			c-1.16-0.77-2.45-0.93-3.87-0.46c-0.65,0.21-1.11,0.5-1.38,0.85c-0.27,0.35-0.34,0.73-0.2,1.15c0.1,0.31,0.26,0.54,0.47,0.69
			c0.21,0.15,0.58,0.27,1.1,0.38c0.53,0.1,1.39,0.2,2.6,0.29c1.7,0.13,3.04,0.36,4.02,0.67c0.98,0.31,1.74,0.74,2.28,1.27
			c0.54,0.53,0.96,1.27,1.27,2.21c0.42,1.28,0.48,2.52,0.16,3.7s-0.96,2.24-1.94,3.16c-0.98,0.92-2.21,1.62-3.7,2.11
			C244.55,95.37,243,95.49,241.55,95.19z"/>
		<path class="st0" d="M256.67,88.29c-1.96-1.41-3.48-3.76-4.57-7.05c-0.65-1.98-0.92-3.82-0.78-5.52c0.13-1.69,0.65-3.14,1.55-4.33
			c0.9-1.19,2.13-2.05,3.7-2.57c1.06-0.35,2.02-0.47,2.9-0.37c0.87,0.1,1.74,0.43,2.59,0.99l0.07-0.02l-3.72-11.28l5.12-1.69
			l7.84,23.78c0.93,2.82,1.55,4.57,1.85,5.25l-4.84,1.6c-0.15-0.38-0.43-1.19-0.84-2.42l-0.07,0.02c-0.28,1.02-0.81,1.95-1.58,2.78
			c-0.78,0.84-1.68,1.42-2.72,1.77C260.8,90.01,258.63,89.7,256.67,88.29z M265.31,82.64c0.47-0.95,0.51-2.03,0.11-3.23l-1.38-4.19
			c-0.35-1.07-1.03-1.86-2.02-2.37c-1-0.51-2.05-0.58-3.15-0.22c-1.18,0.39-1.91,1.18-2.18,2.37c-0.27,1.19-0.1,2.74,0.53,4.65
			c0.66,2.01,1.47,3.45,2.42,4.31c0.95,0.86,2.01,1.09,3.19,0.71C264.01,84.26,264.84,83.59,265.31,82.64z"/>
		<path class="st0" d="M291.06,70.99l-12.41,4.09c0.6,1.1,1.34,1.83,2.22,2.18c0.88,0.35,1.9,0.33,3.08-0.06
			c1.03-0.34,1.88-0.82,2.53-1.44c0.65-0.62,1.21-1.5,1.69-2.64l3.67,1.92c-0.28,1.51-1.02,2.9-2.25,4.17
			c-1.22,1.27-2.7,2.19-4.43,2.77c-2.84,0.94-5.36,0.78-7.56-0.48c-2.2-1.26-3.82-3.47-4.87-6.63c-1.05-3.19-1.07-5.96-0.06-8.32
			c1.01-2.36,2.92-4,5.74-4.93c2.69-0.89,5.1-0.68,7.23,0.63c2.13,1.31,3.72,3.56,4.77,6.75L291.06,70.99z M284.71,68.7
			c-0.38-1.15-1-1.95-1.87-2.4c-0.87-0.45-1.87-0.49-3-0.12c-1.01,0.33-1.73,0.95-2.15,1.86c-0.42,0.91-0.53,2.02-0.34,3.35
			l7.43-2.45L284.71,68.7z"/>
		<path class="st0" d="M154.67,164.12c-0.82,1.79-2.28,3.22-4.39,4.29l0.94,2.86l-4.33,1.43l-0.96-2.9
			c-1.56,0.2-3.07,0.08-4.52-0.36s-2.79-1.17-4.01-2.22l2.22-4.55c1.13,0.76,2.36,1.28,3.7,1.56c1.33,0.28,2.48,0.27,3.44-0.05
			c1.01-0.33,1.74-0.83,2.19-1.5c0.45-0.67,0.54-1.38,0.29-2.14c-0.2-0.6-0.44-1.04-0.74-1.32c-0.29-0.28-0.78-0.52-1.47-0.71
			c-0.69-0.19-1.85-0.44-3.47-0.75c-2.16-0.39-3.89-0.83-5.2-1.33c-1.31-0.49-2.39-1.16-3.24-1.99c-0.85-0.83-1.5-1.94-1.96-3.33
			c-0.59-1.78-0.55-3.46,0.11-5.05c0.66-1.59,1.83-2.91,3.52-3.96l-0.87-2.62l4.33-1.43l0.8,2.43c1.58-0.29,3.06-0.26,4.43,0.08
			c1.37,0.35,2.53,1,3.49,1.96l-2.66,4.18c-1.68-1.12-3.34-1.42-4.97-0.88c-1.01,0.33-1.72,0.79-2.13,1.38
			c-0.41,0.58-0.49,1.24-0.25,1.97c0.15,0.47,0.45,0.85,0.9,1.14c0.44,0.29,1.13,0.55,2.07,0.77c0.94,0.23,2.32,0.47,4.15,0.74
			c1.77,0.26,3.21,0.63,4.33,1.11c1.12,0.49,2.03,1.16,2.72,2.01c0.7,0.86,1.27,1.98,1.73,3.36
			C155.56,160.39,155.49,162.33,154.67,164.12z"/>
		<path class="st0" d="M158.21,160.67c1.18-1.69,2.31-3.64,3.4-5.83c1.09-2.2,1.9-4.46,2.44-6.8s0.52-4.38-0.06-6.13
			c-0.33-0.99-0.85-1.7-1.56-2.11c-0.71-0.42-1.51-0.48-2.4-0.19c-1.06,0.35-1.97,1-2.74,1.95c-0.77,0.95-1.29,2.09-1.57,3.43
			l-4.25-2.46c0.34-1.88,1.12-3.51,2.35-4.9c1.22-1.39,2.76-2.39,4.61-3c2.72-0.9,5.08-0.89,7.09,0.01c2,0.9,3.42,2.62,4.26,5.15
			c0.71,2.14,0.7,4.73-0.02,7.76c-0.72,3.03-2.01,6.48-3.86,10.33l9.67-3.19l1.52,4.62l-17.43,5.75L158.21,160.67z"/>
		<path class="st0" d="M178.78,153.89c1.18-1.69,2.31-3.64,3.4-5.83c1.09-2.2,1.9-4.46,2.44-6.8c0.54-2.33,0.52-4.38-0.06-6.13
			c-0.33-0.99-0.85-1.7-1.56-2.11c-0.71-0.42-1.51-0.48-2.4-0.19c-1.06,0.35-1.97,1-2.74,1.95c-0.77,0.95-1.29,2.09-1.57,3.43
			l-4.25-2.46c0.34-1.88,1.12-3.51,2.35-4.9s2.76-2.39,4.61-3c2.72-0.9,5.08-0.89,7.09,0.01c2,0.9,3.43,2.62,4.26,5.15
			c0.71,2.14,0.7,4.73-0.02,7.76c-0.72,3.03-2.01,6.48-3.86,10.33l9.67-3.19l1.52,4.62l-17.43,5.75L178.78,153.89z"/>
		<path class="st0" d="M201.77,150.43c-0.85-0.47-1.45-1.23-1.79-2.28c-0.35-1.07-0.33-2.04,0.08-2.92
			c0.41-0.87,1.09-1.47,2.05-1.78c0.99-0.33,1.9-0.26,2.73,0.21c0.83,0.46,1.43,1.23,1.78,2.3c0.34,1.04,0.32,2.01-0.07,2.89
			c-0.39,0.88-1.08,1.48-2.06,1.81C203.52,150.98,202.62,150.9,201.77,150.43z"/>
		<path class="st0" d="M210.32,143.48c1.18-1.69,2.31-3.64,3.4-5.83c1.09-2.2,1.9-4.46,2.44-6.8c0.54-2.33,0.52-4.38-0.06-6.13
			c-0.33-0.99-0.85-1.7-1.56-2.11c-0.71-0.42-1.51-0.48-2.4-0.19c-1.06,0.35-1.97,1-2.74,1.95c-0.77,0.95-1.29,2.09-1.57,3.43
			l-4.25-2.46c0.34-1.88,1.12-3.51,2.34-4.9c1.22-1.39,2.76-2.39,4.61-3c2.72-0.9,5.08-0.89,7.09,0.01c2,0.9,3.43,2.62,4.26,5.15
			c0.71,2.14,0.7,4.73-0.02,7.76c-0.72,3.03-2.01,6.48-3.86,10.33l9.67-3.19l1.52,4.62l-17.43,5.75L210.32,143.48z"/>
		<path class="st0" d="M232.59,137.44c-2.42-1.87-4.38-5.1-5.9-9.7c-1.52-4.6-1.86-8.36-1.03-11.3c0.83-2.94,2.79-4.92,5.87-5.93
			c3.08-1.02,5.83-0.59,8.24,1.28c2.42,1.87,4.38,5.1,5.9,9.7c1.52,4.6,1.86,8.36,1.03,11.3c-0.83,2.94-2.79,4.92-5.87,5.93
			C237.76,139.73,235.01,139.31,232.59,137.44z M241.36,130.96c0.09-1.75-0.41-4.27-1.5-7.56c-1.09-3.29-2.19-5.61-3.3-6.97
			c-1.11-1.35-2.3-1.83-3.55-1.41c-1.25,0.41-1.92,1.5-2.01,3.25c-0.09,1.75,0.41,4.27,1.49,7.56c1.09,3.29,2.19,5.61,3.3,6.97
			c1.11,1.36,2.3,1.83,3.55,1.41S241.27,132.72,241.36,130.96z"/>
		<path class="st0" d="M253.16,130.65c-2.42-1.87-4.38-5.1-5.9-9.7c-1.52-4.6-1.86-8.36-1.03-11.3s2.79-4.92,5.87-5.93
			s5.83-0.59,8.24,1.28s4.38,5.1,5.9,9.7c1.52,4.6,1.86,8.36,1.03,11.3c-0.83,2.94-2.79,4.92-5.87,5.93S255.58,132.52,253.16,130.65
			z M261.93,124.18c0.09-1.75-0.41-4.27-1.5-7.56c-1.09-3.29-2.19-5.61-3.3-6.97c-1.11-1.35-2.3-1.83-3.55-1.41
			c-1.25,0.41-1.92,1.5-2.01,3.25c-0.09,1.75,0.41,4.27,1.5,7.56c1.09,3.29,2.19,5.61,3.3,6.97c1.11,1.36,2.3,1.83,3.55,1.41
			C261.17,127.01,261.84,125.93,261.93,124.18z"/>
		<path class="st0" d="M137.57,198.61c-0.87-2.64-1.5-4.38-1.89-5.24l4.48-1.48c0.44,0.93,0.87,2.04,1.3,3.35l0.07-0.02
			c-0.05-1.29,0.31-2.43,1.09-3.44c0.77-1.01,1.86-1.74,3.25-2.2c1.3-0.43,2.51-0.5,3.63-0.22c1.12,0.28,1.99,0.87,2.6,1.77
			c0.15-1.15,0.62-2.18,1.4-3.09c0.78-0.91,1.76-1.56,2.94-1.95c2-0.66,3.8-0.48,5.42,0.54c1.62,1.02,2.83,2.75,3.64,5.21
			l3.99,12.11l-5.09,1.68l-3.77-11.44c-0.41-1.25-0.99-2.16-1.73-2.71c-0.74-0.55-1.55-0.68-2.41-0.4
			c-0.99,0.33-1.64,0.94-1.97,1.85c-0.33,0.91-0.28,2,0.14,3.28l3.76,11.4l-5.05,1.67l-3.72-11.28c-0.43-1.31-1.02-2.25-1.75-2.83
			c-0.74-0.58-1.54-0.73-2.41-0.44c-0.99,0.33-1.65,0.96-1.98,1.89c-0.33,0.93-0.28,2.06,0.15,3.36l3.72,11.28l-5.09,1.68
			L137.57,198.61z"/>
		<path class="st0" d="M187.51,189.39l-12.41,4.09c0.6,1.1,1.34,1.83,2.22,2.18c0.88,0.35,1.9,0.33,3.08-0.06
			c1.03-0.34,1.88-0.82,2.53-1.44c0.65-0.62,1.21-1.5,1.69-2.64l3.67,1.92c-0.28,1.51-1.02,2.9-2.25,4.17
			c-1.22,1.27-2.7,2.19-4.43,2.77c-2.84,0.94-5.36,0.78-7.56-0.48c-2.2-1.26-3.82-3.47-4.87-6.63c-1.05-3.19-1.07-5.96-0.06-8.32
			c1.01-2.36,2.92-4,5.74-4.93c2.69-0.89,5.1-0.68,7.23,0.63c2.13,1.31,3.71,3.56,4.77,6.75L187.51,189.39z M181.15,187.1
			c-0.38-1.15-1-1.95-1.87-2.4s-1.87-0.49-3-0.12c-1.01,0.33-1.73,0.95-2.15,1.86c-0.42,0.91-0.53,2.02-0.34,3.35l7.43-2.45
			L181.15,187.1z"/>
		<path class="st0" d="M194.36,194.99c-1.46-0.3-2.62-0.96-3.49-1.98l2.4-3.4c0.65,0.51,1.36,0.85,2.13,1.01
			c0.77,0.16,1.5,0.14,2.17-0.09c0.75-0.25,1.29-0.64,1.65-1.19c0.35-0.55,0.43-1.13,0.23-1.73c-0.1-0.31-0.25-0.55-0.45-0.7
			s-0.52-0.27-0.98-0.35c-0.45-0.08-1.16-0.17-2.12-0.25c-2.58-0.22-4.48-0.66-5.7-1.31c-1.22-0.66-2.06-1.69-2.52-3.1
			c-0.55-1.67-0.37-3.22,0.55-4.63c0.92-1.42,2.41-2.47,4.48-3.15c1.42-0.47,2.78-0.61,4.08-0.41c1.3,0.19,2.49,0.71,3.57,1.54
			l-2.17,3.37c-1.16-0.77-2.45-0.93-3.87-0.46c-0.65,0.21-1.11,0.5-1.38,0.85c-0.27,0.35-0.34,0.73-0.2,1.15
			c0.1,0.31,0.26,0.54,0.47,0.69c0.21,0.15,0.58,0.27,1.1,0.38c0.53,0.1,1.39,0.2,2.6,0.29c1.7,0.13,3.04,0.36,4.02,0.67
			c0.98,0.31,1.74,0.74,2.28,1.27c0.54,0.53,0.96,1.27,1.27,2.21c0.42,1.28,0.48,2.52,0.16,3.7s-0.96,2.24-1.94,3.16
			c-0.98,0.92-2.21,1.62-3.7,2.11C197.37,195.17,195.82,195.29,194.36,194.99z"/>
		<path class="st0" d="M209.91,188.52c-1.56-1.17-2.83-3.24-3.81-6.21l-3.62-10.97l5.12-1.69l3.63,11.01
			c0.52,1.57,1.12,2.63,1.81,3.18c0.69,0.55,1.53,0.67,2.51,0.34c1.18-0.39,1.98-1.2,2.41-2.45c0.43-1.24,0.4-2.59-0.08-4.06
			l-3.4-10.3l5.12-1.69l4.73,14.34c0.46,1.41,1.14,3.13,2.02,5.15l-4.91,1.62c-0.66-1.35-1.13-2.45-1.41-3.31l-0.07,0.02
			c-0.03,1.28-0.47,2.45-1.31,3.49c-0.84,1.04-1.95,1.79-3.32,2.25C213.28,189.93,211.47,189.68,209.91,188.52z"/>
		<path class="st0" d="M231.53,182.99c-1.12-0.24-2.1-0.75-2.94-1.53c-0.84-0.78-1.46-1.77-1.86-2.97c-0.66-2.01-0.43-3.8,0.71-5.36
			c1.14-1.56,3.1-2.8,5.89-3.73l2.53-0.83l-0.26-0.78c-0.29-0.89-0.79-1.49-1.48-1.81c-0.69-0.32-1.5-0.33-2.41-0.03
			c-1.08,0.36-2.06,0.9-2.93,1.62c-0.87,0.72-1.52,1.53-1.94,2.42l-3.25-2.45c0.71-1.33,1.67-2.53,2.88-3.58
			c1.21-1.05,2.54-1.82,3.99-2.29c2.45-0.81,4.6-0.83,6.42-0.06c1.83,0.77,3.1,2.23,3.8,4.37l2.91,8.81
			c0.21,0.63,0.5,1.36,0.88,2.19c0.38,0.83,0.71,1.46,0.98,1.89l-4.58,1.51c-0.26-0.32-0.48-0.61-0.65-0.87
			c-0.17-0.26-0.36-0.65-0.58-1.16l-0.07,0.02c-0.78,2.17-2.31,3.63-4.6,4.38C233.8,183.16,232.65,183.23,231.53,182.99z
			 M237.32,176.46c0.49-0.81,0.59-1.68,0.29-2.59l-0.54-1.65l-2.67,0.88c-1.13,0.37-1.92,0.88-2.38,1.52
			c-0.46,0.64-0.54,1.38-0.27,2.22c0.23,0.71,0.63,1.18,1.19,1.41c0.56,0.24,1.25,0.22,2.06-0.05
			C236.05,177.85,236.83,177.27,237.32,176.46z"/>
		<path class="st0" d="M249.83,176.35c-1.17-0.63-2.04-1.8-2.6-3.53l-7.96-24.13l5.12-1.69l8,24.25c0.31,0.94,0.99,1.24,2.05,0.89
			c0.6-0.2,1.25-0.62,1.95-1.25l1.71,2.65c-0.84,1.35-2.2,2.33-4.1,2.96C252.39,177.03,251,176.98,249.83,176.35z"/>
		<path class="st0" d="M274.15,160.81l-12.41,4.09c0.6,1.1,1.34,1.83,2.22,2.18c0.88,0.35,1.9,0.33,3.08-0.06
			c1.03-0.34,1.88-0.82,2.53-1.44c0.65-0.62,1.21-1.5,1.69-2.64l3.67,1.92c-0.28,1.51-1.02,2.9-2.25,4.17
			c-1.22,1.27-2.7,2.19-4.43,2.76c-2.84,0.94-5.36,0.78-7.56-0.48c-2.2-1.26-3.82-3.47-4.87-6.63c-1.05-3.19-1.07-5.96-0.06-8.32
			c1.01-2.36,2.92-4,5.74-4.93c2.69-0.89,5.1-0.68,7.23,0.63c2.13,1.31,3.71,3.56,4.77,6.75L274.15,160.81z M267.8,158.52
			c-0.38-1.15-1-1.95-1.87-2.4c-0.87-0.45-1.87-0.49-3-0.12c-1.01,0.33-1.73,0.95-2.15,1.86c-0.42,0.91-0.53,2.02-0.34,3.35
			l7.43-2.45L267.8,158.52z"/>
		<path class="st0" d="M281,166.41c-1.46-0.3-2.62-0.96-3.49-1.98l2.4-3.4c0.65,0.51,1.36,0.85,2.13,1.01
			c0.77,0.16,1.5,0.14,2.17-0.09c0.75-0.25,1.29-0.64,1.65-1.19c0.35-0.55,0.43-1.13,0.23-1.73c-0.1-0.31-0.25-0.55-0.45-0.7
			c-0.2-0.15-0.52-0.27-0.98-0.35c-0.45-0.08-1.16-0.17-2.12-0.25c-2.58-0.22-4.48-0.66-5.7-1.31c-1.22-0.66-2.06-1.69-2.52-3.1
			c-0.55-1.67-0.37-3.22,0.55-4.63c0.92-1.42,2.41-2.47,4.48-3.15c1.42-0.47,2.78-0.61,4.09-0.41c1.3,0.19,2.49,0.71,3.57,1.54
			l-2.17,3.37c-1.16-0.77-2.45-0.93-3.87-0.46c-0.65,0.21-1.11,0.5-1.38,0.85c-0.27,0.35-0.34,0.73-0.2,1.15
			c0.1,0.31,0.26,0.54,0.47,0.69c0.21,0.15,0.58,0.27,1.1,0.38s1.39,0.2,2.6,0.29c1.7,0.14,3.04,0.36,4.02,0.67
			c0.98,0.31,1.74,0.74,2.28,1.27c0.54,0.53,0.96,1.27,1.27,2.21c0.42,1.28,0.48,2.51,0.16,3.7c-0.31,1.19-0.96,2.24-1.94,3.16
			s-2.21,1.62-3.7,2.11C284.01,166.6,282.46,166.71,281,166.41z"/>
	</g>
	<path class="st1 animate" d="M218.12,257.68c0.61,1.33,1.23,2.65,1.84,3.96c1.41,3.01,2.73,5.86,4.03,8.79l0.54,1.22
		c1.88,4.25,3.83,8.65,6.65,12.59c2.26,3.16,4.47,6.45,6.6,9.64c1.49,2.23,2.98,4.46,4.51,6.67c6.7,9.7,14.92,20.92,25.03,30.57
		c1.74,1.66,3.47,3.34,5.2,5.01c6.38,6.17,12.97,12.56,20.09,18.18c6.96,5.49,14.32,10.65,21.45,15.63l3.58,2.51
		c7.14,5.01,14.82,10.26,23.29,14.55c5.22,2.64,10.76,5.5,16.03,8.85c1.58,1,3.16,1.98,4.76,2.95c4.42,2.66,8.94,5.18,13.57,7.45
		c1.95,0.96,4.05,2.25,6.2,2.58c2.47,0.38,5.11,1.64,7.4,2.64c1.55,0.68,3.05,1.46,4.55,2.24c3.39,1.77,6.79,3.54,10.18,5.3
		c1.7,0.88,3.4,1.76,5.09,2.65c0.62,0.33,1.16,0.54,0.43,1.09c-0.21,0.16-0.52,0.22-0.78,0.26c-1.85,0.28-4.06-0.13-5.94-0.19
		c-4.89-0.14-9.79-0.25-14.68-0.32c-0.56,1.24-1.03,2.53-1.38,3.84c0.04-0.16,4.95,0.7,5.53,0.93c1.75,0.69,3.59,0.97,5.47,1.08
		c2.22,0.13,4.44,0.33,6.67,0.33c3.28,0,6.58,0.04,9.84-0.26c2.76-0.25,5.64,0.56,8.27-0.86c0.05,0.05,0.12,0.15,0.15,0.14
		c0.06-0.02,0.11-0.05,0.17-0.08c0.05-0.03,0.11-0.07,0.16-0.1c1.7-0.31,3.41-0.63,5.11-0.94c0.9-0.17,1.86-0.51,1.87-1.5
		c0.03-2.06-0.24-3.89-2.25-5.36c-2.71-1.98-5.23-4.25-8.18-5.88c-2.98-1.64-5.03-4.67-8.58-5.51c-1-0.24-1.78-0.65-2.29,0.47
		c-0.58,1.27-0.41,2.5,0.87,3.26c0.7,0.41,1.51,0.57,2.27,0.99c2.39,1.31,4.57,2.95,6.74,4.58c1.28,0.96,2.61,1.84,3.95,2.71
		c0.3,0.2,2.3,1.15,2.24,1.62c-0.07,0.55-1.16,0.47-1.64,0.48c-1.97,0.03-3.59-0.88-5.44-1.29c-0.58-0.13-1.15-0.2-1.72-0.41
		c-1.91-0.72-3.74-1.87-5.55-2.8c-3.86-1.97-7.71-3.95-11.57-5.92c-9.79-5.02-19.6-10.04-28.98-15.81c-2.01-1.23-4.04-3-6.34-3.62
		c-2.34-0.63-4.36-2.17-6.43-3.38c-4.56-2.66-9.19-5.21-13.9-7.58c-0.27-0.14-0.54-0.27-0.81-0.41
		c-7.64-3.81-14.75-8.74-21.63-13.51l-1.66-1.15c-6.71-4.64-13.46-9.61-19.27-13.9c-3.07-2.27-6.03-4.66-8.8-7.1
		c-3.49-3.08-6.93-6.35-10.26-9.52l-0.56-0.54c-1.34-1.28-2.7-2.54-4.06-3.8c-3.44-3.19-7-6.49-10.16-9.99
		c-9.55-10.61-17.78-22.3-26.07-34.33c-4.94-7.18-9.38-15.32-13.9-25.45c-0.25-0.63-0.5-1.43-0.92-2.1
		c-0.03-0.08-0.06-0.15-0.09-0.24c-0.52-1.42-1.61-4.35-5.14-4.07c-0.03,0-0.07,0.01-0.1,0.01l-2.15,0.2L218.12,257.68z"/>
	<path class="st1" d="M350.57,65.38c-4.33-8.92-11.1-16.94-19.83-23.64c-8.71-6.69-19.38-12.17-31.63-16.01
		c-12.3-3.85-26.09-6.09-40.93-6.36c-17.57-0.32-36.26,2.39-54.65,6.93c-18.1,4.47-36.01,10.69-53.09,18.06
		c-14.91,6.43-29.17,13.85-42.53,22.05C94.65,74.55,82.42,83.5,71.56,93.08c-10.7,9.44-19.84,19.48-27.02,29.87
		c-7.25,10.49-12.22,21.27-14.59,31.84c-2.46,10.97-1.93,21.6,1.05,31.42c3,9.87,8.6,18.89,16.28,26.75
		c7.7,7.87,17.62,14.56,29.32,19.68c11.76,5.15,25.44,8.64,40.15,10.46c14.86,1.84,30.77,2.05,47.07,0.69
		c16.49-1.37,33.23-4.25,49.9-8.54c16.92-4.36,33.64-10.24,49.44-17.45c17.44-7.95,33.46-17.75,45.78-29.5
		c11.27-10.74,19.23-22.55,25.17-34.24c2.02-3.99,3.88-8,5.54-12.02c2.81-4.49,5.3-9.02,7.44-13.55
		c5.23-11.11,8.39-22.32,9.05-33.08C356.79,84.82,355.03,74.57,350.57,65.38z M340.4,118.21c-1.46,7.86-3.95,15.89-7.25,23.91
		c-4.07,6.47-8.83,12.87-14.2,19.1c-19.15,22.2-46.87,43.63-79.7,57.01c-30.45,12.42-63.04,15.54-91.5,12.32
		c-29.62-3.35-55.59-12.71-75.74-25.57c-11.17-7.13-20.61-15.62-26.2-25.83c-4.96-9.05-6.64-19.34-4.31-30.26
		c0.19-0.89,0.42-1.79,0.67-2.69c3.44-8.06,8.09-16.12,13.81-24c1.03-1.13,2.11-2.26,3.25-3.37c0.54-0.53,0.63-1.06,0.43-1.49
		c4.9-6.22,10.45-12.3,16.59-18.17c20.43-19.51,47.55-36.34,77.86-47.54c31.31-11.57,65.03-17.34,95.33-15.77
		c29.51,1.53,54.43,10.68,70.93,24.94c8.22,7.11,14.32,15.45,17.88,24.73C342.11,95.65,342.54,106.72,340.4,118.21z M302.17,188.3
		c-12.03,11.2-27.83,20.36-44.63,27.82c-15.18,6.74-31.2,12.15-47.36,16.2c-31.35,7.86-63.68,10.37-91.75,6.59
		c-28.32-3.81-51.25-14.25-65.94-29.74c-9.95-10.49-15.94-23.17-17.08-36.97c0.99,3.37,2.36,6.62,4.11,9.71
		c5.94,10.49,15.7,19.26,27.36,26.57c10.87,6.81,23.21,12.61,36.82,17.11c12.94,4.29,27.04,7.49,42.18,9.06
		c14.85,1.55,30.63,1.57,46.93-0.5c16.94-2.15,34.04-6.73,50.22-13.41c17.86-7.37,34.27-17.18,48.56-27.93
		c10.39-7.82,19.8-16.22,28-24.96C314.85,174.91,309.16,181.8,302.17,188.3z M349.28,97.22c-0.16,2.2-0.42,4.41-0.78,6.64
		c0.01-7.49-1.27-14.7-4.01-21.47c-3.87-9.55-10.45-18.16-19.14-25.41c-8.71-7.27-19.61-13.27-32.18-17.56
		c-12.88-4.4-27.43-6.96-43.09-7.66c-15.86-0.7-32.74,0.56-49.63,3.52c-16.85,2.95-33.85,7.59-50.09,13.75
		c-2.52,0.96-5.01,1.95-7.49,2.97c3.79-1.79,7.61-3.52,11.47-5.17c32.5-13.93,69.49-24.18,102.67-23.4
		c28.15,0.66,52.18,9.01,68.5,21.87C342.53,58.7,350.71,76.85,349.28,97.22z"/>
</g>
</svg>
