<?xml version="1.0" encoding="utf-8"?>
<!-- Generator: Adobe Illustrator 27.5.0, SVG Export Plug-In . SVG Version: 6.00 Build 0)  -->
<svg version="1.1" baseProfile="basic" id="Capa_1" xmlns="http://www.w3.org/2000/svg" xmlns:xlink="http://www.w3.org/1999/xlink"
	 x="0px" y="0px" viewBox="0 0 491 486" xml:space="preserve">
<style type="text/css">
	.st0{fill:#E74D15;}
	.st1{fill:#565758;}
  .animate{
		animation: mov 3s infinite;
	}
	@keyframes mov{
		0% {
			transform: translate(10px,5px);
		}
		50%{
			transform: translate(-50px,-18px);
		}
		100% {
			transform: translate(10px,5px);
		}
	}

</style>
<g>
	<path class="st0" d="M82.92,143.25l8.73-2.88c3.03-1,5.58-1.01,7.65-0.03c2.07,0.98,3.59,2.94,4.55,5.86
		c1.02,3.08,0.99,5.68-0.09,7.8c-1.07,2.12-3.16,3.69-6.27,4.72l-2.74,0.9l3.01,9.13l-5.81,1.92L82.92,143.25z M96.26,153.62
		c1.11-0.36,1.83-1.01,2.16-1.93c0.34-0.92,0.28-2.07-0.18-3.46c-0.44-1.33-1.08-2.24-1.92-2.71c-0.84-0.48-1.86-0.52-3.06-0.12
		l-2.89,0.95l2.74,8.31L96.26,153.62z"/>
	<path class="st0" d="M114.02,162.32c-1.17-0.63-2.04-1.8-2.6-3.53l-7.96-24.13l5.12-1.69l8,24.25c0.31,0.94,0.99,1.24,2.05,0.89
		c0.6-0.2,1.25-0.62,1.95-1.25l1.71,2.65c-0.84,1.35-2.2,2.33-4.1,2.96C116.57,162.99,115.18,162.94,114.02,162.32z"/>
	<path class="st0" d="M125.96,158.98c-1.12-0.24-2.1-0.75-2.94-1.53c-0.84-0.78-1.46-1.77-1.86-2.97c-0.66-2.01-0.43-3.8,0.71-5.36
		c1.14-1.56,3.1-2.8,5.89-3.72l2.53-0.83l-0.26-0.78c-0.29-0.89-0.79-1.49-1.48-1.81c-0.69-0.32-1.5-0.33-2.41-0.03
		c-1.08,0.36-2.06,0.9-2.93,1.62c-0.87,0.72-1.52,1.53-1.94,2.42l-3.25-2.45c0.71-1.33,1.67-2.53,2.88-3.58
		c1.21-1.05,2.54-1.82,3.99-2.29c2.45-0.81,4.6-0.83,6.42-0.06c1.83,0.77,3.1,2.23,3.8,4.37l2.91,8.82c0.21,0.63,0.5,1.35,0.88,2.18
		c0.38,0.83,0.71,1.46,0.98,1.89l-4.58,1.51c-0.27-0.32-0.48-0.61-0.65-0.87c-0.17-0.26-0.36-0.65-0.58-1.16l-0.07,0.02
		c-0.78,2.17-2.31,3.63-4.6,4.38C128.23,159.15,127.08,159.22,125.96,158.98z M131.75,152.45c0.49-0.81,0.59-1.68,0.29-2.59
		l-0.54-1.65l-2.67,0.88c-1.13,0.37-1.92,0.88-2.38,1.52c-0.46,0.64-0.54,1.38-0.27,2.22c0.23,0.71,0.63,1.18,1.19,1.41
		c0.56,0.24,1.25,0.22,2.06-0.05C130.48,153.84,131.26,153.26,131.75,152.45z"/>
	<path class="st0" d="M138.23,139.52c-0.77-2.32-1.39-4.06-1.88-5.2l4.8-1.58c0.54,1.15,0.99,2.27,1.34,3.34l0.07-0.02
		c0.04-1.26,0.49-2.42,1.35-3.49c0.86-1.07,1.97-1.82,3.31-2.27c2.07-0.68,3.88-0.44,5.44,0.72c1.56,1.17,2.83,3.24,3.81,6.22
		l3.62,10.97l-5.12,1.69l-3.63-11.01c-0.52-1.57-1.12-2.63-1.81-3.18c-0.69-0.55-1.54-0.67-2.55-0.33c-1.2,0.4-2.03,1.15-2.47,2.27
		s-0.43,2.39,0.04,3.83l3.53,10.7l-5.12,1.69L138.23,139.52z"/>
	<path class="st0" d="M178.11,133.66l-12.41,4.09c0.6,1.1,1.34,1.83,2.22,2.18c0.88,0.35,1.9,0.33,3.08-0.06
		c1.03-0.34,1.88-0.82,2.52-1.44c0.65-0.62,1.21-1.5,1.69-2.64l3.67,1.92c-0.28,1.51-1.02,2.9-2.25,4.17s-2.7,2.19-4.43,2.76
		c-2.84,0.94-5.36,0.78-7.56-0.48c-2.2-1.26-3.82-3.47-4.87-6.63c-1.05-3.19-1.07-5.96-0.06-8.32c1.01-2.36,2.92-4,5.74-4.93
		c2.69-0.89,5.1-0.68,7.23,0.63c2.13,1.31,3.72,3.56,4.77,6.75L178.11,133.66z M171.75,131.37c-0.38-1.15-1-1.95-1.87-2.4
		c-0.87-0.45-1.87-0.49-3-0.12c-1.01,0.33-1.73,0.95-2.15,1.86c-0.42,0.91-0.53,2.02-0.34,3.35l7.43-2.45L171.75,131.37z"/>
	<path class="st0" d="M184.96,139.26c-1.46-0.3-2.62-0.96-3.49-1.98l2.4-3.4c0.65,0.51,1.36,0.85,2.13,1.01
		c0.77,0.17,1.5,0.14,2.17-0.09c0.75-0.25,1.29-0.64,1.65-1.19c0.35-0.55,0.43-1.13,0.23-1.73c-0.1-0.31-0.25-0.55-0.45-0.7
		c-0.2-0.15-0.52-0.27-0.98-0.35c-0.45-0.08-1.16-0.17-2.12-0.25c-2.58-0.22-4.48-0.66-5.7-1.31c-1.22-0.66-2.06-1.69-2.52-3.1
		c-0.55-1.67-0.37-3.22,0.55-4.63c0.92-1.42,2.41-2.47,4.48-3.15c1.42-0.47,2.78-0.61,4.08-0.41c1.3,0.19,2.49,0.71,3.57,1.54
		l-2.17,3.37c-1.16-0.77-2.45-0.93-3.87-0.46c-0.65,0.21-1.11,0.5-1.38,0.85c-0.27,0.35-0.34,0.73-0.2,1.15
		c0.1,0.31,0.26,0.54,0.47,0.69c0.21,0.15,0.58,0.27,1.1,0.38c0.53,0.1,1.39,0.2,2.6,0.29c1.7,0.14,3.04,0.36,4.02,0.67
		c0.98,0.31,1.74,0.74,2.28,1.27c0.54,0.53,0.96,1.27,1.27,2.21c0.42,1.28,0.48,2.51,0.16,3.7c-0.31,1.19-0.96,2.24-1.94,3.16
		s-2.21,1.62-3.7,2.11C187.96,139.45,186.42,139.56,184.96,139.26z"/>
	<path class="st0" d="M208.39,129.62c-1.96-1.41-3.48-3.76-4.57-7.05c-0.65-1.98-0.92-3.82-0.78-5.52c0.13-1.69,0.65-3.14,1.55-4.33
		c0.9-1.19,2.13-2.05,3.7-2.57c1.06-0.35,2.02-0.47,2.9-0.37c0.87,0.1,1.74,0.43,2.59,0.99l0.07-0.02l-3.72-11.28l5.12-1.69
		l7.84,23.78c0.93,2.82,1.55,4.57,1.85,5.25l-4.84,1.59c-0.15-0.38-0.43-1.19-0.84-2.42l-0.07,0.02c-0.28,1.02-0.81,1.95-1.58,2.78
		c-0.78,0.84-1.68,1.42-2.72,1.77C212.52,131.35,210.35,131.04,208.39,129.62z M217.03,123.97c0.47-0.95,0.51-2.03,0.11-3.23
		l-1.38-4.19c-0.35-1.07-1.03-1.86-2.02-2.37c-1-0.51-2.05-0.58-3.15-0.22c-1.18,0.39-1.91,1.18-2.18,2.37
		c-0.27,1.19-0.1,2.74,0.53,4.65c0.66,2.01,1.47,3.45,2.42,4.31c0.95,0.86,2.01,1.09,3.19,0.71
		C215.73,125.6,216.55,124.93,217.03,123.97z"/>
	<path class="st0" d="M242.78,112.33l-12.41,4.09c0.6,1.1,1.34,1.83,2.22,2.18c0.88,0.35,1.9,0.33,3.08-0.06
		c1.03-0.34,1.88-0.82,2.53-1.44c0.65-0.62,1.21-1.5,1.69-2.64l3.67,1.92c-0.28,1.51-1.02,2.9-2.25,4.17
		c-1.22,1.27-2.7,2.19-4.43,2.76c-2.84,0.94-5.36,0.78-7.56-0.48c-2.2-1.26-3.82-3.47-4.87-6.63c-1.05-3.19-1.07-5.96-0.06-8.32
		c1.01-2.36,2.92-4,5.74-4.93c2.69-0.89,5.1-0.68,7.23,0.63c2.13,1.31,3.72,3.56,4.77,6.75L242.78,112.33z M236.42,110.04
		c-0.38-1.15-1-1.95-1.87-2.4s-1.87-0.49-3-0.12c-1.01,0.33-1.73,0.95-2.15,1.86c-0.42,0.91-0.53,2.02-0.34,3.35l7.43-2.45
		L236.42,110.04z"/>
	<path class="st0" d="M249.62,117.93c-1.46-0.3-2.62-0.96-3.49-1.98l2.4-3.4c0.65,0.51,1.36,0.85,2.13,1.01
		c0.77,0.17,1.5,0.14,2.17-0.09c0.75-0.25,1.29-0.64,1.65-1.19c0.35-0.55,0.43-1.13,0.23-1.73c-0.1-0.31-0.25-0.55-0.45-0.7
		c-0.2-0.15-0.52-0.27-0.98-0.35c-0.45-0.08-1.16-0.17-2.12-0.25c-2.58-0.22-4.48-0.66-5.7-1.31c-1.22-0.66-2.06-1.69-2.52-3.1
		c-0.55-1.67-0.37-3.22,0.55-4.63c0.92-1.42,2.41-2.47,4.48-3.15c1.42-0.47,2.78-0.61,4.08-0.41c1.3,0.19,2.49,0.71,3.57,1.54
		l-2.17,3.37c-1.16-0.77-2.45-0.93-3.87-0.46c-0.65,0.21-1.11,0.5-1.38,0.85c-0.27,0.35-0.34,0.73-0.2,1.15
		c0.1,0.31,0.26,0.54,0.47,0.69s0.58,0.27,1.1,0.38c0.53,0.1,1.39,0.2,2.6,0.29c1.7,0.13,3.04,0.36,4.02,0.67
		c0.98,0.31,1.74,0.74,2.28,1.27c0.54,0.53,0.96,1.27,1.27,2.21c0.42,1.28,0.48,2.52,0.16,3.7s-0.96,2.24-1.94,3.16
		s-2.21,1.62-3.7,2.11C252.63,118.12,251.08,118.23,249.62,117.93z"/>
	<path class="st0" d="M264.75,111.03c-1.96-1.41-3.48-3.76-4.57-7.05c-0.65-1.98-0.92-3.82-0.78-5.52c0.13-1.69,0.65-3.14,1.55-4.33
		c0.9-1.19,2.13-2.05,3.7-2.57c1.06-0.35,2.02-0.47,2.9-0.37c0.87,0.1,1.74,0.43,2.59,0.99l0.07-0.02l-3.72-11.28l5.12-1.69
		l7.84,23.78c0.93,2.82,1.55,4.57,1.85,5.25l-4.84,1.59c-0.15-0.38-0.43-1.19-0.84-2.42l-0.07,0.02c-0.28,1.02-0.81,1.95-1.58,2.78
		c-0.78,0.84-1.68,1.42-2.72,1.77C268.88,112.75,266.71,112.44,264.75,111.03z M273.39,105.38c0.47-0.95,0.51-2.03,0.11-3.23
		l-1.38-4.19c-0.35-1.07-1.03-1.86-2.02-2.37c-1-0.51-2.05-0.58-3.15-0.22c-1.18,0.39-1.91,1.18-2.18,2.37
		c-0.27,1.19-0.1,2.74,0.53,4.65c0.66,2.01,1.47,3.45,2.42,4.31c0.95,0.86,2.01,1.09,3.19,0.71
		C272.09,107,272.92,106.33,273.39,105.38z"/>
	<path class="st0" d="M299.14,93.74l-12.41,4.09c0.6,1.1,1.34,1.83,2.22,2.18c0.88,0.35,1.9,0.33,3.08-0.06
		c1.03-0.34,1.88-0.82,2.53-1.44c0.65-0.62,1.21-1.5,1.69-2.64l3.67,1.92c-0.28,1.51-1.02,2.9-2.25,4.17
		c-1.22,1.27-2.7,2.19-4.43,2.77c-2.84,0.94-5.36,0.78-7.56-0.48c-2.2-1.26-3.82-3.47-4.87-6.63c-1.05-3.19-1.07-5.96-0.06-8.32
		c1.01-2.36,2.92-4,5.74-4.93c2.69-0.89,5.1-0.68,7.23,0.63c2.13,1.31,3.72,3.56,4.77,6.75L299.14,93.74z M292.79,91.45
		c-0.38-1.15-1-1.95-1.87-2.4c-0.87-0.45-1.87-0.49-3-0.12c-1.01,0.33-1.73,0.95-2.15,1.86c-0.42,0.91-0.53,2.02-0.34,3.35
		l7.43-2.45L292.79,91.45z"/>
	<path class="st0" d="M162.75,186.86c-0.82,1.79-2.28,3.22-4.39,4.29l0.94,2.86l-4.33,1.43l-0.96-2.9c-1.56,0.2-3.07,0.08-4.52-0.36
		s-2.79-1.17-4.01-2.22l2.22-4.55c1.13,0.76,2.36,1.28,3.7,1.56c1.33,0.28,2.48,0.27,3.44-0.05c1.01-0.33,1.74-0.83,2.19-1.5
		c0.45-0.67,0.54-1.38,0.29-2.14c-0.2-0.6-0.44-1.04-0.74-1.32c-0.29-0.28-0.78-0.52-1.47-0.71c-0.69-0.19-1.85-0.44-3.47-0.75
		c-2.16-0.39-3.89-0.83-5.2-1.33c-1.31-0.49-2.39-1.16-3.24-1.99c-0.85-0.83-1.5-1.94-1.96-3.33c-0.59-1.78-0.55-3.46,0.11-5.05
		c0.66-1.59,1.83-2.91,3.52-3.96l-0.87-2.62l4.33-1.43l0.8,2.43c1.58-0.29,3.06-0.26,4.43,0.08c1.37,0.35,2.53,1,3.49,1.96
		l-2.66,4.18c-1.68-1.12-3.34-1.42-4.97-0.88c-1.01,0.33-1.72,0.79-2.13,1.38c-0.41,0.58-0.49,1.24-0.25,1.97
		c0.15,0.47,0.45,0.85,0.9,1.14c0.44,0.29,1.13,0.55,2.07,0.77c0.94,0.23,2.32,0.47,4.15,0.74c1.77,0.26,3.21,0.63,4.33,1.11
		c1.12,0.49,2.03,1.16,2.72,2.01c0.7,0.86,1.27,1.98,1.73,3.36C163.64,183.13,163.57,185.07,162.75,186.86z"/>
	<path class="st0" d="M168.38,182.47l4.01-1.32l-5.21-15.79l-3.65,4.46l-1.83-5.56l5.16-6.57l3.83-1.26l7.52,22.8l3.97-1.31
		l1.52,4.62l-13.79,4.55L168.38,182.47z"/>
	<path class="st0" d="M190.93,179.26c-1.8-0.29-3.34-0.95-4.61-1.98l1.15-4.77c2.58,1.61,4.9,2.08,6.94,1.4
		c1.25-0.41,2.08-1.18,2.5-2.3c0.42-1.12,0.37-2.45-0.14-3.99c-0.47-1.44-1.15-2.46-2.03-3.07c-0.88-0.61-1.87-0.73-2.98-0.36
		c-0.65,0.21-1.2,0.65-1.65,1.3c-0.45,0.66-0.71,1.4-0.78,2.23l-4.8,1.58l-3.93-16.17l15.3-5.05l1.64,4.98l-10.18,3.36l1.31,5.43
		c0.17-0.52,0.57-1.06,1.17-1.6c0.61-0.55,1.26-0.94,1.96-1.17c1.54-0.51,3.02-0.58,4.43-0.2c1.42,0.37,2.68,1.14,3.78,2.29
		c1.1,1.16,1.95,2.64,2.54,4.44c0.65,1.99,0.83,3.87,0.52,5.65c-0.31,1.78-1.05,3.33-2.23,4.64c-1.18,1.32-2.72,2.29-4.62,2.91
		C194.5,179.41,192.73,179.55,190.93,179.26z"/>
	<path class="st0" d="M209.85,173.17c-0.85-0.47-1.45-1.23-1.79-2.28c-0.35-1.07-0.33-2.04,0.08-2.91c0.41-0.87,1.09-1.47,2.05-1.79
		c0.99-0.33,1.9-0.26,2.73,0.21s1.43,1.23,1.78,2.3c0.34,1.04,0.32,2.01-0.07,2.89c-0.39,0.88-1.08,1.48-2.06,1.81
		C211.6,173.72,210.7,173.65,209.85,173.17z"/>
	<path class="st0" d="M223.17,168.8c-1.62-0.23-3.03-0.85-4.21-1.85c-1.18-1-2.05-2.32-2.59-3.97c-0.47-1.41-0.52-2.86-0.17-4.35
		c0.35-1.49,1.04-2.68,2.08-3.58c-1.08-0.11-2.11-0.62-3.09-1.54c-0.98-0.92-1.67-1.97-2.06-3.14c-0.49-1.49-0.58-2.92-0.26-4.3
		c0.32-1.38,1.01-2.59,2.08-3.64c1.07-1.05,2.43-1.85,4.09-2.39c1.66-0.55,3.23-0.72,4.71-0.51c1.48,0.21,2.76,0.77,3.84,1.69
		c1.08,0.92,1.86,2.12,2.35,3.61c0.39,1.17,0.46,2.43,0.22,3.75c-0.24,1.33-0.76,2.35-1.57,3.08c1.37,0.1,2.63,0.64,3.8,1.64
		c1.17,0.99,1.98,2.19,2.45,3.6c0.54,1.65,0.64,3.22,0.28,4.73c-0.36,1.51-1.12,2.84-2.29,3.99c-1.17,1.15-2.67,2.03-4.49,2.63
		C226.52,168.85,224.79,169.03,223.17,168.8z M224.37,149.7c0.3-0.74,0.31-1.56,0-2.48c-0.3-0.91-0.79-1.58-1.48-1.99
		c-0.68-0.41-1.42-0.49-2.21-0.23c-0.79,0.26-1.34,0.76-1.65,1.5c-0.3,0.74-0.31,1.56,0,2.48c0.3,0.91,0.79,1.58,1.48,1.99
		c0.68,0.41,1.42,0.49,2.21,0.23S224.07,150.44,224.37,149.7z M228.86,161.37c0.4-0.93,0.41-1.98,0.02-3.16s-1.02-2.02-1.89-2.53
		c-0.87-0.51-1.83-0.59-2.86-0.25c-1.03,0.34-1.75,0.98-2.15,1.9c-0.4,0.93-0.41,1.98-0.02,3.16c0.39,1.17,1.02,2.02,1.89,2.52
		c0.87,0.51,1.83,0.59,2.86,0.25S228.46,162.29,228.86,161.37z"/>
	<path class="st0" d="M248.73,156.53l-11.01,3.63l-1.4-4.23l4.5-22.64l6.03-1.99l6.05,18.33l2.6-0.86l1.64,4.98l-2.6,0.86l1.36,4.11
		l-5.81,1.92L248.73,156.53z M247.09,151.55l-3.15-9.56l-2.37,11.38L247.09,151.55z"/>
	<path class="st0" d="M261.24,153.4c-2.42-1.87-4.38-5.1-5.9-9.7c-1.52-4.6-1.86-8.36-1.03-11.3c0.83-2.94,2.79-4.92,5.87-5.93
		s5.83-0.59,8.24,1.28s4.38,5.1,5.9,9.7c1.52,4.6,1.86,8.36,1.03,11.3c-0.83,2.94-2.79,4.92-5.87,5.93S263.66,155.27,261.24,153.4z
		 M270.01,146.92c0.09-1.75-0.41-4.27-1.5-7.56c-1.09-3.29-2.19-5.61-3.3-6.97c-1.11-1.35-2.3-1.83-3.55-1.41
		c-1.25,0.41-1.92,1.5-2.01,3.25c-0.09,1.75,0.41,4.27,1.5,7.56c1.09,3.29,2.19,5.61,3.3,6.97c1.11,1.36,2.3,1.83,3.55,1.41
		C269.25,149.76,269.92,148.68,270.01,146.92z"/>
	<path class="st0" d="M135.4,224.73c-0.87-2.64-1.5-4.38-1.89-5.24l4.47-1.48c0.44,0.93,0.87,2.04,1.31,3.35l0.07-0.02
		c-0.05-1.29,0.31-2.43,1.08-3.44c0.77-1.01,1.86-1.74,3.25-2.2c1.3-0.43,2.51-0.5,3.63-0.22c1.12,0.28,1.99,0.87,2.6,1.77
		c0.15-1.15,0.62-2.18,1.4-3.09c0.78-0.91,1.76-1.56,2.94-1.95c2-0.66,3.8-0.48,5.42,0.54c1.62,1.02,2.83,2.75,3.64,5.21l3.99,12.11
		l-5.09,1.68l-3.77-11.44c-0.41-1.25-0.99-2.16-1.73-2.71c-0.74-0.55-1.55-0.68-2.41-0.4c-0.99,0.33-1.64,0.94-1.97,1.84
		c-0.33,0.91-0.28,2,0.14,3.28l3.76,11.4l-5.05,1.67l-3.72-11.28c-0.43-1.31-1.02-2.25-1.75-2.83c-0.74-0.58-1.54-0.73-2.41-0.44
		c-0.99,0.33-1.65,0.96-1.98,1.89c-0.33,0.93-0.28,2.06,0.15,3.36l3.72,11.28l-5.09,1.68L135.4,224.73z"/>
	<path class="st0" d="M185.34,215.51l-12.41,4.09c0.6,1.1,1.34,1.83,2.22,2.18c0.88,0.35,1.9,0.33,3.08-0.06
		c1.03-0.34,1.88-0.82,2.53-1.44c0.65-0.62,1.21-1.5,1.69-2.64l3.67,1.92c-0.28,1.51-1.02,2.9-2.25,4.17
		c-1.22,1.27-2.7,2.19-4.43,2.77c-2.84,0.94-5.36,0.78-7.56-0.48c-2.2-1.26-3.82-3.47-4.87-6.63c-1.05-3.19-1.07-5.96-0.06-8.32
		c1.01-2.36,2.92-4,5.74-4.93c2.69-0.89,5.11-0.68,7.23,0.63c2.13,1.31,3.72,3.56,4.77,6.75L185.34,215.51z M178.98,213.22
		c-0.38-1.15-1-1.95-1.87-2.4c-0.87-0.45-1.87-0.49-3-0.12c-1.01,0.33-1.73,0.95-2.15,1.86c-0.42,0.91-0.53,2.02-0.34,3.35
		l7.43-2.45L178.98,213.22z"/>
	<path class="st0" d="M185.8,208.06c-0.77-2.32-1.39-4.06-1.88-5.2l4.8-1.58c0.54,1.15,0.99,2.27,1.34,3.34l0.07-0.02
		c0.04-1.26,0.49-2.42,1.35-3.49c0.86-1.07,1.97-1.82,3.31-2.27c2.07-0.68,3.88-0.44,5.44,0.72c1.56,1.17,2.83,3.24,3.81,6.21
		l3.62,10.97l-5.12,1.69l-3.63-11.01c-0.52-1.57-1.12-2.63-1.81-3.18c-0.69-0.55-1.54-0.67-2.55-0.33c-1.2,0.4-2.03,1.15-2.47,2.27
		c-0.45,1.12-0.43,2.39,0.04,3.83l3.53,10.7l-5.12,1.69L185.8,208.06z"/>
	<path class="st0" d="M212.69,214.36c-1.46-0.3-2.62-0.96-3.49-1.98l2.4-3.4c0.65,0.51,1.36,0.85,2.13,1.01
		c0.77,0.17,1.5,0.14,2.17-0.09c0.75-0.25,1.29-0.64,1.65-1.19c0.35-0.55,0.43-1.13,0.23-1.73c-0.1-0.31-0.25-0.55-0.45-0.7
		c-0.2-0.15-0.52-0.27-0.98-0.35c-0.45-0.08-1.16-0.17-2.12-0.25c-2.58-0.22-4.48-0.66-5.7-1.31c-1.22-0.66-2.06-1.69-2.52-3.1
		c-0.55-1.67-0.37-3.22,0.55-4.63c0.92-1.42,2.41-2.47,4.48-3.15c1.42-0.47,2.78-0.61,4.09-0.41c1.3,0.19,2.49,0.71,3.57,1.54
		l-2.17,3.37c-1.16-0.77-2.45-0.93-3.87-0.46c-0.65,0.21-1.11,0.5-1.38,0.85c-0.27,0.35-0.34,0.73-0.2,1.15
		c0.1,0.31,0.26,0.54,0.47,0.69c0.21,0.15,0.58,0.27,1.1,0.38c0.53,0.1,1.39,0.2,2.6,0.29c1.7,0.14,3.04,0.36,4.02,0.67
		c0.98,0.31,1.74,0.74,2.28,1.27c0.54,0.53,0.96,1.27,1.27,2.21c0.42,1.28,0.48,2.51,0.16,3.7c-0.31,1.19-0.96,2.24-1.94,3.16
		c-0.98,0.92-2.21,1.62-3.7,2.11C215.69,214.54,214.15,214.66,212.69,214.36z"/>
	<path class="st0" d="M228.24,207.88c-1.56-1.17-2.83-3.24-3.81-6.21l-3.62-10.97l5.12-1.69l3.63,11.01
		c0.52,1.57,1.12,2.63,1.81,3.18c0.69,0.55,1.53,0.67,2.51,0.34c1.18-0.39,1.98-1.2,2.41-2.45c0.43-1.24,0.4-2.59-0.08-4.06
		l-3.4-10.3l5.12-1.69l4.73,14.34c0.47,1.41,1.14,3.13,2.02,5.15l-4.91,1.62c-0.66-1.35-1.13-2.45-1.41-3.31l-0.07,0.02
		c-0.03,1.28-0.47,2.45-1.31,3.49c-0.84,1.05-1.95,1.79-3.32,2.25C231.61,209.29,229.8,209.05,228.24,207.88z"/>
	<path class="st0" d="M249.86,202.36c-1.12-0.24-2.1-0.75-2.94-1.53c-0.84-0.78-1.46-1.77-1.86-2.97c-0.66-2.01-0.43-3.8,0.71-5.36
		c1.14-1.56,3.1-2.8,5.89-3.73l2.53-0.83l-0.26-0.78c-0.29-0.89-0.79-1.49-1.48-1.81c-0.69-0.32-1.5-0.33-2.41-0.03
		c-1.08,0.36-2.06,0.9-2.93,1.62c-0.87,0.72-1.52,1.53-1.94,2.42l-3.25-2.45c0.71-1.33,1.67-2.53,2.88-3.58
		c1.21-1.05,2.54-1.82,3.99-2.29c2.45-0.81,4.6-0.83,6.42-0.06c1.83,0.77,3.1,2.23,3.8,4.37l2.91,8.81c0.21,0.63,0.5,1.36,0.88,2.19
		c0.38,0.83,0.71,1.46,0.98,1.89l-4.58,1.51c-0.27-0.32-0.48-0.61-0.65-0.87s-0.36-0.65-0.58-1.16l-0.07,0.02
		c-0.78,2.17-2.31,3.63-4.6,4.38C252.13,202.52,250.98,202.59,249.86,202.36z M255.65,195.82c0.49-0.81,0.59-1.68,0.29-2.59
		l-0.54-1.65l-2.67,0.88c-1.13,0.37-1.92,0.88-2.38,1.52c-0.46,0.64-0.54,1.38-0.27,2.22c0.23,0.71,0.63,1.18,1.19,1.41
		c0.56,0.24,1.25,0.22,2.06-0.05C254.38,197.22,255.16,196.63,255.65,195.82z"/>
	<path class="st0" d="M268.16,195.71c-1.17-0.63-2.04-1.81-2.6-3.53l-7.96-24.13l5.12-1.69l8,24.25c0.31,0.94,0.99,1.24,2.05,0.89
		c0.6-0.2,1.25-0.62,1.95-1.25l1.71,2.65c-0.84,1.35-2.2,2.33-4.1,2.96C270.72,196.39,269.33,196.34,268.16,195.71z"/>
	<path class="st0" d="M292.48,180.17l-12.41,4.09c0.6,1.1,1.34,1.83,2.22,2.18c0.88,0.35,1.9,0.33,3.08-0.06
		c1.03-0.34,1.88-0.82,2.53-1.44c0.65-0.62,1.21-1.5,1.69-2.64l3.67,1.92c-0.28,1.51-1.02,2.9-2.25,4.17
		c-1.22,1.27-2.7,2.19-4.43,2.77c-2.84,0.94-5.36,0.78-7.56-0.48c-2.2-1.26-3.82-3.47-4.87-6.63c-1.05-3.19-1.07-5.96-0.06-8.32
		c1.01-2.36,2.92-4,5.74-4.93c2.69-0.89,5.1-0.68,7.23,0.63c2.13,1.31,3.72,3.56,4.77,6.75L292.48,180.17z M286.12,177.88
		c-0.38-1.15-1-1.95-1.87-2.4c-0.87-0.45-1.87-0.49-3-0.12c-1.01,0.33-1.73,0.95-2.15,1.86c-0.42,0.91-0.53,2.02-0.34,3.35
		l7.43-2.45L286.12,177.88z"/>
	<path class="st0" d="M299.33,185.78c-1.46-0.3-2.62-0.96-3.49-1.98l2.4-3.4c0.65,0.51,1.36,0.85,2.13,1.01s1.5,0.14,2.17-0.09
		c0.75-0.25,1.29-0.64,1.65-1.19c0.35-0.55,0.43-1.13,0.23-1.73c-0.1-0.31-0.25-0.55-0.45-0.7c-0.2-0.15-0.52-0.27-0.98-0.35
		c-0.45-0.08-1.16-0.17-2.12-0.25c-2.58-0.22-4.48-0.66-5.7-1.31c-1.22-0.66-2.06-1.69-2.52-3.1c-0.55-1.67-0.37-3.22,0.55-4.63
		c0.92-1.42,2.41-2.47,4.48-3.15c1.42-0.47,2.78-0.61,4.09-0.41c1.3,0.19,2.49,0.71,3.57,1.54l-2.17,3.37
		c-1.16-0.77-2.45-0.93-3.87-0.46c-0.65,0.21-1.11,0.5-1.38,0.85c-0.27,0.35-0.34,0.73-0.2,1.15c0.1,0.31,0.26,0.54,0.47,0.69
		s0.58,0.27,1.1,0.38c0.53,0.1,1.39,0.2,2.6,0.29c1.7,0.14,3.04,0.36,4.02,0.67c0.98,0.31,1.74,0.74,2.28,1.27
		c0.54,0.53,0.96,1.27,1.27,2.21c0.42,1.28,0.48,2.52,0.16,3.71c-0.31,1.19-0.96,2.24-1.94,3.16c-0.98,0.92-2.21,1.62-3.71,2.11
		C302.34,185.96,300.79,186.08,299.33,185.78z"/>
</g>
<path class="st1 animate" d="M231.2,273.93c0.61,1.33,1.23,2.65,1.84,3.96c1.41,3.01,2.73,5.86,4.03,8.79l0.54,1.22
		c1.88,4.25,3.83,8.65,6.65,12.59c2.26,3.16,4.47,6.45,6.6,9.64c1.49,2.23,2.98,4.46,4.51,6.67c6.7,9.7,14.92,20.92,25.03,30.57
		c1.74,1.66,3.47,3.34,5.2,5.01c6.38,6.17,12.97,12.56,20.09,18.18c6.96,5.49,14.32,10.65,21.45,15.63l3.58,2.51
		c7.14,5.01,14.82,10.26,23.29,14.55c5.22,2.64,10.76,5.5,16.03,8.85c1.58,1,3.16,1.98,4.76,2.95c4.42,2.66,8.94,5.18,13.57,7.45
		c1.95,0.96,4.05,2.25,6.2,2.58c2.47,0.38,5.11,1.64,7.4,2.64c1.55,0.68,3.05,1.46,4.55,2.24c3.39,1.77,6.79,3.54,10.18,5.3
		c1.7,0.88,3.4,1.76,5.09,2.65c0.62,0.33,1.16,0.54,0.43,1.09c-0.21,0.16-0.52,0.22-0.78,0.26c-1.85,0.28-4.06-0.13-5.94-0.19
		c-4.89-0.14-9.79-0.25-14.68-0.32c-0.56,1.24-1.03,2.53-1.38,3.84c0.04-0.16,4.95,0.7,5.53,0.93c1.75,0.69,3.59,0.97,5.47,1.08
		c2.22,0.13,4.44,0.33,6.67,0.33c3.28,0,6.58,0.04,9.84-0.26c2.76-0.25,5.64,0.56,8.27-0.86c0.05,0.05,0.12,0.15,0.15,0.14
		c0.06-0.02,0.11-0.05,0.17-0.08c0.05-0.03,0.11-0.07,0.16-0.1c1.7-0.31,3.41-0.63,5.11-0.94c0.9-0.17,1.86-0.51,1.87-1.5
		c0.03-2.06-0.24-3.89-2.25-5.36c-2.71-1.98-5.23-4.25-8.18-5.88c-2.98-1.64-5.03-4.67-8.58-5.51c-1-0.24-1.78-0.65-2.29,0.47
		c-0.58,1.27-0.41,2.5,0.87,3.26c0.7,0.41,1.51,0.57,2.27,0.99c2.39,1.31,4.57,2.95,6.74,4.58c1.28,0.96,2.61,1.84,3.95,2.71
		c0.3,0.2,2.3,1.15,2.24,1.62c-0.07,0.55-1.16,0.47-1.64,0.48c-1.97,0.03-3.59-0.88-5.44-1.29c-0.58-0.13-1.15-0.2-1.72-0.41
		c-1.91-0.72-3.74-1.87-5.55-2.8c-3.86-1.97-7.71-3.95-11.57-5.92c-9.79-5.02-19.6-10.04-28.98-15.81c-2.01-1.23-4.04-3-6.34-3.62
		c-2.34-0.63-4.36-2.17-6.43-3.38c-4.56-2.66-9.19-5.21-13.9-7.58c-0.27-0.14-0.54-0.27-0.81-0.41
		c-7.64-3.81-14.75-8.74-21.63-13.51l-1.66-1.15c-6.71-4.64-13.46-9.61-19.27-13.9c-3.07-2.27-6.03-4.66-8.8-7.1
		c-3.49-3.08-6.93-6.35-10.26-9.52l-0.56-0.54c-1.34-1.28-2.7-2.54-4.06-3.8c-3.44-3.19-7-6.49-10.16-9.99
		c-9.55-10.61-17.78-22.3-26.07-34.33c-4.94-7.18-9.38-15.32-13.9-25.45c-0.25-0.63-0.5-1.43-0.92-2.1
		c-0.03-0.08-0.06-0.15-0.09-0.24c-0.52-1.42-1.61-4.35-5.14-4.07c-0.03,0-0.07,0.01-0.1,0.01l-2.15,0.2L231.2,273.93z"/>
	<path class="st1" d="M363.65,81.63c-4.33-8.92-11.1-16.94-19.83-23.64c-8.71-6.69-19.38-12.17-31.63-16.01
		c-12.3-3.85-26.09-6.09-40.93-6.36c-17.57-0.32-36.26,2.39-54.65,6.93c-18.1,4.47-36.01,10.69-53.09,18.06
		c-14.91,6.43-29.17,13.85-42.53,22.05c-13.26,8.14-25.49,17.09-36.35,26.67c-10.7,9.44-19.84,19.48-27.02,29.87
		c-7.25,10.49-12.22,21.27-14.59,31.84c-2.46,10.97-1.93,21.6,1.05,31.42c3,9.87,8.6,18.89,16.28,26.75
		c7.7,7.87,17.62,14.56,29.32,19.68c11.76,5.15,25.44,8.64,40.15,10.46c14.86,1.84,30.77,2.05,47.07,0.69
		c16.49-1.37,33.23-4.25,49.9-8.54c16.92-4.36,33.64-10.24,49.44-17.45c17.44-7.95,33.46-17.75,45.78-29.5
		c11.27-10.74,19.23-22.55,25.17-34.24c2.02-3.99,3.88-8,5.54-12.02c2.81-4.49,5.3-9.02,7.44-13.55
		c5.23-11.11,8.39-22.32,9.05-33.08C369.87,101.07,368.11,90.82,363.65,81.63z M353.48,134.46c-1.46,7.86-3.95,15.89-7.25,23.91
		c-4.07,6.47-8.83,12.87-14.2,19.1c-19.15,22.2-46.87,43.63-79.7,57.01c-30.45,12.42-63.04,15.54-91.5,12.32
		c-29.62-3.35-55.59-12.71-75.74-25.57c-11.17-7.13-20.61-15.62-26.2-25.83c-4.96-9.05-6.64-19.34-4.31-30.26
		c0.19-0.89,0.42-1.79,0.67-2.69c3.44-8.06,8.09-16.12,13.81-24c1.03-1.13,2.11-2.26,3.25-3.37c0.54-0.53,0.63-1.06,0.43-1.49
		c4.9-6.22,10.45-12.3,16.59-18.17c20.43-19.51,47.55-36.34,77.86-47.54c31.31-11.57,65.03-17.34,95.33-15.77
		c29.51,1.53,54.43,10.68,70.93,24.94c8.22,7.11,14.32,15.45,17.88,24.73C355.19,111.9,355.62,122.97,353.48,134.46z M315.25,204.55
		c-12.03,11.2-27.83,20.36-44.63,27.82c-15.18,6.74-31.2,12.15-47.36,16.2c-31.35,7.86-63.68,10.37-91.75,6.59
		c-28.32-3.81-51.25-14.25-65.94-29.74c-9.95-10.49-15.94-23.17-17.08-36.97c0.99,3.37,2.36,6.62,4.11,9.71
		c5.94,10.49,15.7,19.26,27.36,26.57c10.87,6.81,23.21,12.61,36.82,17.11c12.94,4.29,27.04,7.49,42.18,9.06
		c14.85,1.55,30.63,1.57,46.93-0.5c16.94-2.15,34.04-6.73,50.22-13.41c17.86-7.37,34.27-17.18,48.56-27.93
		c10.39-7.82,19.8-16.22,28-24.96C327.93,191.16,322.24,198.05,315.25,204.55z M362.36,113.47c-0.16,2.2-0.42,4.41-0.78,6.64
		c0.01-7.49-1.27-14.7-4.01-21.47c-3.87-9.55-10.45-18.16-19.14-25.41c-8.71-7.27-19.61-13.27-32.18-17.56
		c-12.88-4.4-27.43-6.96-43.09-7.66c-15.86-0.7-32.74,0.56-49.63,3.52c-16.85,2.95-33.85,7.59-50.09,13.75
		c-2.52,0.96-5.01,1.95-7.49,2.97c3.79-1.79,7.61-3.52,11.47-5.17c32.5-13.93,69.49-24.18,102.67-23.4
		c28.15,0.66,52.18,9.01,68.5,21.87C355.61,74.95,363.79,93.1,362.36,113.47z"/>

</svg>
