<?xml version="1.0" encoding="UTF-8" standalone="no"?>
<!-- Created with Inkscape (http://www.inkscape.org/) -->

<svg
   xmlns:dc="http://purl.org/dc/elements/1.1/"
   xmlns:cc="http://creativecommons.org/ns#"
   xmlns:rdf="http://www.w3.org/1999/02/22-rdf-syntax-ns#"
   xmlns:svg="http://www.w3.org/2000/svg"
   xmlns="http://www.w3.org/2000/svg"
   xmlns:sodipodi="http://sodipodi.sourceforge.net/DTD/sodipodi-0.dtd"
   xmlns:inkscape="http://www.inkscape.org/namespaces/inkscape"
   width="295.99255"
   height="82"
   viewBox="0 0 78.314697 21.695833"
   version="1.1"
   id="svg1020"
   sodipodi:docname="logocompensar.svg"
   inkscape:version="0.92.3 (2405546, 2018-03-11)">
  <defs
     id="defs1014" />
  <sodipodi:namedview
     id="base"
     pagecolor="#ffffff"
     bordercolor="#666666"
     borderopacity="1.0"
     inkscape:pageopacity="0.0"
     inkscape:pageshadow="2"
     inkscape:zoom="0.35"
     inkscape:cx="-1278.5009"
     inkscape:cy="-366.35011"
     inkscape:document-units="mm"
     inkscape:current-layer="layer1"
     showgrid="false"
     units="px"
     inkscape:window-width="1920"
     inkscape:window-height="1056"
     inkscape:window-x="1366"
     inkscape:window-y="0"
     inkscape:window-maximized="1"
     fit-margin-top="0"
     fit-margin-left="0"
     fit-margin-right="0"
     fit-margin-bottom="0" />
  <metadata
     id="metadata1017">
    <rdf:RDF>
      <cc:Work
         rdf:about="">
        <dc:format>image/svg+xml</dc:format>
        <dc:type
           rdf:resource="http://purl.org/dc/dcmitype/StillImage" />
        <dc:title></dc:title>
      </cc:Work>
    </rdf:RDF>
  </metadata>
  <g
     inkscape:label="Layer 1"
     inkscape:groupmode="layer"
     id="layer1"
     transform="translate(-53.068841,-144.03304)">
    <g
       transform="matrix(0.38044177,0,0,0.38044177,33.480655,71.375506)"
       id="g200"
       style="stroke-width:0.69546342">
      <path
         style="fill:#e64d13;stroke-width:0.69546342"
         inkscape:connector-curvature="0"
         d="m 80,209.99 v 0 c 5.25,0 9.505,4.256 9.505,9.505 0,5.25 -4.255,9.505 -9.505,9.505 -5.248,0 -9.504,-4.255 -9.504,-9.505 0,-5.249 4.256,-9.505 9.504,-9.505 m 0,0 v 0 c 5.25,0 9.505,-4.255 9.505,-9.505 0,-5.248 -4.255,-9.503 -9.505,-9.503 -5.248,0 -9.504,4.255 -9.504,9.503 0,5.25 4.256,9.505 9.504,9.505 m 28.515,-9.505 v 0 c 0,-5.248 -4.255,-9.503 -9.505,-9.503 -5.249,0 -9.505,4.255 -9.505,9.503 0,5.25 4.256,9.505 9.505,9.505 5.25,0 9.505,-4.255 9.505,-9.505 m -47.523,9.505 v 0 c -5.25,0 -9.504,4.256 -9.504,9.505 0,5.25 4.254,9.505 9.504,9.505 5.248,0 9.504,-4.255 9.504,-9.505 0,-5.249 -4.256,-9.505 -9.504,-9.505 M 80,248.01 v 0 c 5.25,0 9.505,-4.255 9.505,-9.505 0,-5.25 -4.255,-9.505 -9.505,-9.505 -5.248,0 -9.504,4.255 -9.504,9.505 0,5.25 4.256,9.505 9.504,9.505 m 28.515,-9.505 v 0 c 0,-5.25 -4.255,-9.505 -9.505,-9.505 -5.249,0 -9.505,4.255 -9.505,9.505 0,5.25 4.256,9.505 9.505,9.505 5.25,0 9.505,-4.255 9.505,-9.505"
         id="path196" />
      <path
         style="fill:#1a1818;stroke-width:0.69546342"
         inkscape:connector-curvature="0"
         d="m 175.613,212.031 c -1.029,0 -1.996,0.189 -2.903,0.569 -0.906,0.378 -1.728,0.933 -2.465,1.662 v -1.893 h -2.907 l -0.008,20.802 h 2.879 l 0.008,-7.232 c 0.776,0.756 1.625,1.324 2.552,1.704 0.925,0.379 1.932,0.57 3.017,0.57 1.222,0 2.31,-0.197 3.267,-0.584 0.953,-0.388 1.833,-0.989 2.64,-1.804 0.745,-0.758 1.316,-1.623 1.714,-2.596 0.4,-0.973 0.598,-1.996 0.598,-3.072 0,-2.331 -0.797,-4.267 -2.385,-5.81 -1.59,-1.544 -3.594,-2.316 -6.007,-2.316 m 3.779,11.92 c -1.074,1.035 -2.365,1.551 -3.868,1.551 -1.475,0 -2.74,-0.536 -3.802,-1.613 -1.062,-1.076 -1.591,-2.377 -1.591,-3.901 0,-1.422 0.538,-2.664 1.619,-3.726 1.082,-1.061 2.331,-1.592 3.745,-1.592 1.542,0 2.846,0.528 3.914,1.585 1.064,1.057 1.6,2.368 1.6,3.93 0,1.478 -0.538,2.733 -1.617,3.766 m -42.072,-9.689 c -0.804,-0.785 -1.704,-1.38 -2.697,-1.781 -0.995,-0.403 -2.074,-0.604 -3.238,-0.604 -1.085,0 -2.132,0.224 -3.139,0.674 -1.011,0.448 -1.916,1.089 -2.721,1.922 -0.748,0.758 -1.313,1.611 -1.694,2.561 -0.383,0.95 -0.575,1.972 -0.575,3.067 0,1.047 0.211,2.074 0.632,3.079 0.423,1.007 1.007,1.887 1.754,2.645 0.785,0.795 1.672,1.397 2.661,1.804 0.989,0.406 2.069,0.612 3.243,0.612 1.144,0 2.224,-0.225 3.236,-0.668 1.013,-0.444 1.928,-1.097 2.742,-1.958 0.708,-0.749 1.258,-1.622 1.651,-2.624 0.393,-1.001 0.59,-2.03 0.59,-3.088 0,-1.038 -0.212,-2.043 -0.633,-3.016 -0.423,-0.973 -1.028,-1.848 -1.812,-2.625 m -2.045,9.662 c -1.003,1.034 -2.247,1.55 -3.73,1.55 -1.513,0 -2.776,-0.514 -3.789,-1.543 -1.013,-1.028 -1.519,-2.316 -1.519,-3.859 0,-1.554 0.506,-2.846 1.519,-3.88 1.013,-1.034 2.266,-1.55 3.759,-1.55 1.504,0 2.757,0.51 3.76,1.53 1.004,1.018 1.506,2.309 1.506,3.872 0.001,1.552 -0.501,2.847 -1.506,3.88 m -21.909,-9.254 c 1.105,0 2.057,0.234 2.851,0.7 0.794,0.468 1.445,1.175 1.949,2.119 h 3.155 c -0.61,-1.767 -1.589,-3.14 -2.937,-4.118 -1.348,-0.976 -2.939,-1.466 -4.771,-1.466 -1.173,0 -2.273,0.221 -3.302,0.659 -1.026,0.44 -1.954,1.086 -2.778,1.937 -0.746,0.776 -1.311,1.635 -1.693,2.574 -0.383,0.941 -0.575,1.95 -0.575,3.026 0,1.047 0.21,2.074 0.633,3.079 0.421,1.007 1.006,1.887 1.752,2.645 0.786,0.795 1.663,1.394 2.632,1.79 0.97,0.397 2.052,0.598 3.244,0.598 1.891,0 3.495,-0.48 4.814,-1.439 1.318,-0.96 2.313,-2.37 2.981,-4.232 h -3.155 c -0.457,0.936 -1.091,1.658 -1.906,2.167 -0.815,0.51 -1.725,0.765 -2.734,0.765 -1.502,0 -2.758,-0.514 -3.768,-1.543 -1.008,-1.028 -1.512,-2.316 -1.512,-3.859 0,-1.525 0.497,-2.806 1.491,-3.845 0.992,-1.038 2.201,-1.557 3.629,-1.557 m 44.982,-2.554 c -1.177,0 -2.171,0.22 -2.99,0.658 -0.815,0.441 -1.472,1.11 -1.967,2.009 -0.493,-0.919 -1.126,-1.592 -1.899,-2.022 -0.775,-0.43 -1.74,-0.645 -2.901,-0.645 -0.859,0 -1.624,0.17 -2.297,0.512 -0.672,0.342 -1.272,0.859 -1.804,1.551 v -1.81 h -2.561 v 15.435 h 2.736 v -7.901 c 0,-1.795 0.293,-3.122 0.884,-3.978 0.589,-0.856 1.499,-1.283 2.737,-1.283 1.196,0 2.07,0.425 2.62,1.276 0.551,0.851 0.826,2.219 0.826,4.098 v 7.788 h 2.793 v -8.069 c 0,-1.843 0.273,-3.153 0.817,-3.93 0.546,-0.775 1.442,-1.163 2.688,-1.163 1.072,0 1.906,0.365 2.504,1.095 0.599,0.729 0.901,1.752 0.901,3.072 v 8.995 h 2.894 v -9.43 c 0,-1.899 -0.546,-3.418 -1.634,-4.553 -1.091,-1.136 -2.538,-1.705 -4.347,-1.705 m 86.288,2.118 c -0.758,-0.757 -1.596,-1.323 -2.516,-1.698 -0.923,-0.373 -1.93,-0.56 -3.026,-0.56 -1.219,0 -2.309,0.193 -3.264,0.582 -0.957,0.388 -1.837,0.989 -2.64,1.803 -0.737,0.739 -1.305,1.594 -1.704,2.567 -0.397,0.974 -0.592,2.003 -0.592,3.088 0,2.33 0.793,4.269 2.383,5.817 1.59,1.548 3.587,2.322 5.993,2.322 1.026,0 1.995,-0.189 2.9,-0.568 0.907,-0.38 1.728,-0.939 2.466,-1.679 v 1.896 h 2.91 v -15.435 h -2.91 z m -1.476,9.677 c -1.081,1.061 -2.33,1.591 -3.747,1.591 -1.55,0 -2.862,-0.527 -3.933,-1.584 -1.072,-1.059 -1.606,-2.367 -1.606,-3.93 0,-1.487 0.534,-2.746 1.606,-3.775 1.071,-1.029 2.363,-1.543 3.877,-1.543 1.473,0 2.746,0.54 3.818,1.62 1.069,1.08 1.606,2.379 1.606,3.895 0,1.42 -0.54,2.664 -1.621,3.726 m 12.034,-11.283 c -0.617,0.331 -1.161,0.84 -1.636,1.523 v -1.782 h -2.706 v 15.435 h 2.878 v -8.587 c 0,-1.423 0.279,-2.454 0.837,-3.095 0.557,-0.64 1.482,-1.008 2.773,-1.102 v -2.904 c -0.816,0.01 -1.529,0.18 -2.146,0.512 m -29.362,6.125 c -0.255,-0.094 -0.597,-0.22 -1.033,-0.379 -1.552,-0.551 -2.328,-1.258 -2.328,-2.119 0,-0.505 0.172,-0.928 0.515,-1.269 0.345,-0.342 0.773,-0.513 1.287,-0.513 0.573,0 1.028,0.159 1.369,0.477 0.338,0.319 0.533,0.763 0.581,1.333 h 2.764 c -0.08,-1.394 -0.519,-2.477 -1.325,-3.248 -0.804,-0.772 -1.89,-1.158 -3.257,-1.158 -1.311,0 -2.417,0.44 -3.323,1.319 -0.907,0.879 -1.359,1.946 -1.359,3.199 0,0.73 0.134,1.373 0.406,1.93 0.271,0.556 0.693,1.054 1.264,1.495 0.311,0.243 1.033,0.57 2.168,0.982 0.426,0.149 0.756,0.271 0.989,0.365 0.679,0.262 1.171,0.579 1.477,0.953 0.305,0.375 0.458,0.834 0.458,1.376 0,0.616 -0.215,1.125 -0.648,1.523 -0.431,0.396 -0.982,0.596 -1.65,0.596 -0.709,0 -1.297,-0.263 -1.768,-0.793 -0.47,-0.528 -0.706,-1.2 -0.706,-2.013 h -2.705 c 0.087,1.674 0.588,2.994 1.499,3.957 0.912,0.963 2.109,1.447 3.593,1.447 1.472,0 2.694,-0.46 3.664,-1.377 0.971,-0.916 1.455,-2.068 1.455,-3.452 0,-1.188 -0.258,-2.138 -0.779,-2.849 -0.517,-0.711 -1.388,-1.305 -2.608,-1.782 m -25.523,-3.889 c -0.788,-0.761 -1.57,-1.362 -2.34,-1.802 -0.771,-0.439 -1.58,-0.749 -2.423,-0.927 -1.384,-0.265 -2.735,-0.209 -4.051,0.168 -1.317,0.377 -2.473,1.044 -3.466,2.004 -0.837,0.808 -1.453,1.703 -1.847,2.684 -0.393,0.983 -0.563,2.043 -0.507,3.182 0.04,1.058 0.272,2.05 0.692,2.981 0.423,0.928 1.031,1.777 1.826,2.546 0.769,0.74 1.67,1.322 2.706,1.744 1.035,0.425 2.093,0.649 3.177,0.675 1.152,0.027 2.222,-0.151 3.209,-0.536 0.784,-0.304 1.518,-0.747 2.206,-1.318 v -4.002 c -0.002,0.055 -0.003,0.083 -0.003,0.095 -0.001,-0.048 -0.014,-0.261 -0.142,-0.069 -0.486,0.738 -0.678,0.905 -1.351,1.555 -0.94,0.908 -2.044,1.405 -3.312,1.498 -1.268,0.092 -2.461,-0.236 -3.579,-0.982 l 9.523,-9.188 z m -10.976,7.669 c -0.657,-1.111 -0.922,-2.235 -0.791,-3.374 0.13,-1.138 0.641,-2.136 1.534,-2.997 0.87,-0.839 1.872,-1.314 3.005,-1.423 1.136,-0.108 2.296,0.165 3.482,0.819 z m 20.905,-10.417 c -0.929,0 -1.757,0.162 -2.479,0.484 -0.723,0.323 -1.385,0.83 -1.986,1.522 v -1.753 h -2.763 v 15.435 h 2.881 v -7.016 c 0,-2.143 0.321,-3.678 0.966,-4.61 0.644,-0.93 1.685,-1.395 3.12,-1.395 1.317,0 2.293,0.395 2.923,1.185 0.63,0.791 0.946,2.004 0.946,3.641 v 8.195 h 2.893 v -8.798 c 0,-2.218 -0.558,-3.92 -1.679,-5.108 -1.121,-1.189 -2.727,-1.782 -4.822,-1.782"
         id="path198" />
    </g>
  </g>
</svg>
