<?xml version="1.0" encoding="UTF-8"?>
<svg id="Capa_2" data-name="Capa 2" xmlns="http://www.w3.org/2000/svg" viewBox="0 0 1584.32 1855.71">
  <defs>
    <style>
      .cls-1, .cls-2 {
        fill: #bec6d3;
      }

      .cls-1, .cls-3 {
        stroke: #eef0f6;
        stroke-miterlimit: 10;
        stroke-width: 2px;
      }

      .cls-2 {
        stroke-width: 0px;
      }

      .cls-3 {
        fill: none;
      }
    </style>
  </defs>
  <g id="Capa_1-2" data-name="Capa 1">
    <g>
      <g>
        <g>
          <path class="cls-2" d="m538.04,306.51c-.26.14-1.27.22-2.7.27l-.98,38.58,9.56-1.27c.69-3.31,2.86-7.23,5.99-9.66,7.62-5.93-3.82-29.65,5.08-31.76,1.64-.41,3-1.33,4.23-2.48-3.16-3-6.67-5.71-8.92-5.54-4.91.41-10.63,11.05-12.27,11.86Z"/>
          <path class="cls-3" d="m538.04,306.51c-.26.14-1.27.22-2.7.27l-.98,38.58,9.56-1.27c.69-3.31,2.86-7.23,5.99-9.66,7.62-5.93-3.82-29.65,5.08-31.76,1.64-.41,3-1.33,4.23-2.48-3.16-3-6.67-5.71-8.92-5.54-4.91.41-10.63,11.05-12.27,11.86Z"/>
        </g>
        <g>
          <polygon class="cls-2" points="1235.9 1243.22 1041.8 1248.32 1036.6 1021.17 1261.6 1021.17 1283.6 1227.17 1235.9 1243.22"/>
          <polygon class="cls-3" points="1235.9 1243.22 1041.8 1248.32 1036.6 1021.17 1261.6 1021.17 1283.6 1227.17 1235.9 1243.22"/>
        </g>
        <g>
          <path class="cls-2" d="m561.75,383.39c-3.27-4.49-11.86.81-20.85-5.32-2.36-1.61-5.28-2.95-8.31-4.08-.22.14-.4.31-.69.41-1.93.56-7.85,5.88-13.58,11.33,6.46,5.09,30.52,12.66,37.09,12.66,3.1,0,4.76-1.4,6.16-2.54.93-5.95,1.28-10.95.18-12.46Z"/>
          <path class="cls-3" d="m561.75,383.39c-3.27-4.49-11.86.81-20.85-5.32-2.36-1.61-5.28-2.95-8.31-4.08-.22.14-.4.31-.69.41-1.93.56-7.85,5.88-13.58,11.33,6.46,5.09,30.52,12.66,37.09,12.66,3.1,0,4.76-1.4,6.16-2.54.93-5.95,1.28-10.95.18-12.46Z"/>
        </g>
        <g>
          <path class="cls-2" d="m581.79,396.06c.82-1.63-4.9-11.04,6.13-11.87,11.04-.81,19.22-2.04,20.85-8.99,1.64-6.95,14.72-3.67,18.4-4.08,3.04-.34,12.78-9.32,22.31-8.96.14-9.3-12.5-6.3-21.22-15.03-9.32-9.3-29.65-5.07-40.66-.83-11.01,4.23-23.72-4.67-35.58,2.11-.15.07-.27.12-.41.19-2.59,3.27-6.15,7.29-10.31,10.65-7.98,6.48-5.78,12.88-8.72,14.73,3.03,1.13,5.95,2.47,8.31,4.08,9,6.12,17.58.83,20.85,5.32,1.1,1.51.75,6.51-.18,12.46,1.66-1.35,2.94-2.3,5.7,0,2.49,2.07,2.03,4.65,1.72,7.19l7.07-1.66s4.91-3.67,5.72-5.31Z"/>
          <path class="cls-3" d="m581.79,396.06c.82-1.63-4.9-11.04,6.13-11.87,11.04-.81,19.22-2.04,20.85-8.99,1.64-6.95,14.72-3.67,18.4-4.08,3.04-.34,12.78-9.32,22.31-8.96.14-9.3-12.5-6.3-21.22-15.03-9.32-9.3-29.65-5.07-40.66-.83-11.01,4.23-23.72-4.67-35.58,2.11-.15.07-.27.12-.41.19-2.59,3.27-6.15,7.29-10.31,10.65-7.98,6.48-5.78,12.88-8.72,14.73,3.03,1.13,5.95,2.47,8.31,4.08,9,6.12,17.58.83,20.85,5.32,1.1,1.51.75,6.51-.18,12.46,1.66-1.35,2.94-2.3,5.7,0,2.49,2.07,2.03,4.65,1.72,7.19l7.07-1.66s4.91-3.67,5.72-5.31Z"/>
        </g>
        <g>
          <path class="cls-2" d="m485.71,342.08c2.04-.41,23.3,2.47,25.35-2.86,2.05-5.31-15.94-17.16-13.9-18.4,2.04-1.22,2.86-14.31,6.13-14.31s33.12.83,34.76,0c1.64-.81,7.36-11.45,12.27-11.86,2.24-.18,5.74,2.55,8.91,5.56,5.5-5.1,7.44-16.6,8.49-25.92,1.27-11.44-2.55-15.25,3.39-21.6,5.93-6.36,12.28-6.78,10.58-15.68-1.69-8.9-9.74,0-16.52-4.23-6.77-4.24-12.7-1.27-30.07,1.27-17.37,2.53-25.41,9.74-24.56,22.01.85,12.29-5.93,6.78-5.5,17.37.42,10.59-13.55,11.01-12.71,17.38.85,6.34-11.01,0-14.4-2.13-3.39-2.11-39.82,8.9-44.89,9.74-5.08.85-14.4-10.58-21.6-10.16-7.2.42-10.16-10.59-11.02-19.49-.84-8.89-14.4-16.94-20.32-24.98-5.93-8.05-6.78-25.84-7.2-37.28-.43-11.43-1.7-30.92,6.35-53.36,1.08-3.01,1.58-5.63,1.71-7.97-2.93-1.81-5.79-3.11-7.95-2.98-7.24.46-23.53-9.5-26.7-9.5s-2.71-7.69-5.43-11.77c-2.71-4.07-.91-11.77-4.53-14.48-3.62-2.71-14.48-13.12-18.09-25.79-3.62-12.67-25.79-19-33.94-19.44-8.14-.46-12.67,16.74-14.93,17.64-2.25.91-17.64-9.05-22.17-11.31-4.53-2.26-6.79-6.79-6.79-12.22s-9.5-14.03-12.22-14.93c-2.72-.91-21.72-19.46-21.72-19.46h-29.87l-6.33,8.14-54.29.45s-41.62-15.38-49.32-17.18c-7.7-1.81-21.27-11.32-21.27-11.32L1.48,6.8c2.25,4.82,5.39,10.05,10.11,15.91,8.9,11.01,15.25,30.49,16.1,37.26.84,6.78,13.13,12.29,23.72,19.07,10.59,6.76,10.59,21.6,9.32,25.4-1.27,3.81-14.4-2.53-15.25,1.27-.85,3.81,16.94,18.64,23.72,17.79,6.78-.85,10.17,3.39,20.75,12.71,10.59,9.31,9.75,20.32,5.51,23.71-4.24,3.4,8.47,10.59,22.03,19.48,13.55,8.9,19.06,19.91,20.33,24.56,1.27,4.67,7.2.44,9.32-5.93,2.11-6.34-4.24-8.04-4.24-15.24s-11.02-5.94-16.1-6.77c-5.08-.85.43-11.86-4.65-16.95-5.09-5.08-9.74-17.79-12.29-27.11-2.54-9.32-15.67-18.63-21.17-28.8-5.51-10.18-11.43-18.21-15.25-20.76-3.81-2.54,5.51-6.35,2.12-10.16-3.39-3.81-8.47-3.39-14.82-6.36-6.35-2.96-10.59-8.03-10.59-14.81s-4.24-22.87-6.35-28.38c-2.12-5.51,4.66-4.66,6.78-2.13,2.12,2.54,3.81,5.08,6.78,3.4,2.96-1.69,8.04-.43,10.16,4.24,2.12,4.65,9.32.42,12.7,2.54,3.39,2.11-7.62,4.66,3.39,24.14,11.02,19.48,3.39,8.47,3.39,21.6s6.78,7.21,8.9,5.08c2.12-2.12,8.05,4.23,13.55,11.01,5.51,6.78,16.09,7.2,16.09,11.01s2.12,11.44,9.32,12.71c7.2,1.27,8.47,9.31,13.13,10.17,4.66.84,5.51,5.93,2.96,11.43-2.54,5.51,0,10.17,11.86,14.82,11.86,4.67,6.35,5.51,15.67,14.41,9.32,8.9,35.58,37.69,41.08,45.74,5.51,8.04,7.2,14.81,9.32,20.74,2.12,5.93-4.24,8.91-.84,13.98,3.38,5.09-6.35,2.97-5.93,6.78.42,3.81,5.93,22.87,15.25,23.72,9.32.84,19.91,12.27,27.53,18.64,7.62,6.35,19.05,5.07,30.5,9.31,11.43,4.23,21.17,14.4,37.69,19.06,16.52,4.66,32.62,11.85,43.2,18.64,10.59,6.77,23.72,3.81,38.54-2.12,14.82-5.93,26.26,1.69,34.73,5.08,4.17,1.67,12.36,8.68,20.56,15.99,7.48-10.73,14.67-20.43,15.62-20.63Z"/>
          <path class="cls-3" d="m485.71,342.08c2.04-.41,23.3,2.47,25.35-2.86,2.05-5.31-15.94-17.16-13.9-18.4,2.04-1.22,2.86-14.31,6.13-14.31s33.12.83,34.76,0c1.64-.81,7.36-11.45,12.27-11.86,2.24-.18,5.74,2.55,8.91,5.56,5.5-5.1,7.44-16.6,8.49-25.92,1.27-11.44-2.55-15.25,3.39-21.6,5.93-6.36,12.28-6.78,10.58-15.68-1.69-8.9-9.74,0-16.52-4.23-6.77-4.24-12.7-1.27-30.07,1.27-17.37,2.53-25.41,9.74-24.56,22.01.85,12.29-5.93,6.78-5.5,17.37.42,10.59-13.55,11.01-12.71,17.38.85,6.34-11.01,0-14.4-2.13-3.39-2.11-39.82,8.9-44.89,9.74-5.08.85-14.4-10.58-21.6-10.16-7.2.42-10.16-10.59-11.02-19.49-.84-8.89-14.4-16.94-20.32-24.98-5.93-8.05-6.78-25.84-7.2-37.28-.43-11.43-1.7-30.92,6.35-53.36,1.08-3.01,1.58-5.63,1.71-7.97-2.93-1.81-5.79-3.11-7.95-2.98-7.24.46-23.53-9.5-26.7-9.5s-2.71-7.69-5.43-11.77c-2.71-4.07-.91-11.77-4.53-14.48-3.62-2.71-14.48-13.12-18.09-25.79-3.62-12.67-25.79-19-33.94-19.44-8.14-.46-12.67,16.74-14.93,17.64-2.25.91-17.64-9.05-22.17-11.31-4.53-2.26-6.79-6.79-6.79-12.22s-9.5-14.03-12.22-14.93c-2.72-.91-21.72-19.46-21.72-19.46h-29.87l-6.33,8.14-54.29.45s-41.62-15.38-49.32-17.18c-7.7-1.81-21.27-11.32-21.27-11.32L1.48,6.8c2.25,4.82,5.39,10.05,10.11,15.91,8.9,11.01,15.25,30.49,16.1,37.26.84,6.78,13.13,12.29,23.72,19.07,10.59,6.76,10.59,21.6,9.32,25.4-1.27,3.81-14.4-2.53-15.25,1.27-.85,3.81,16.94,18.64,23.72,17.79,6.78-.85,10.17,3.39,20.75,12.71,10.59,9.31,9.75,20.32,5.51,23.71-4.24,3.4,8.47,10.59,22.03,19.48,13.55,8.9,19.06,19.91,20.33,24.56,1.27,4.67,7.2.44,9.32-5.93,2.11-6.34-4.24-8.04-4.24-15.24s-11.02-5.94-16.1-6.77c-5.08-.85.43-11.86-4.65-16.95-5.09-5.08-9.74-17.79-12.29-27.11-2.54-9.32-15.67-18.63-21.17-28.8-5.51-10.18-11.43-18.21-15.25-20.76-3.81-2.54,5.51-6.35,2.12-10.16-3.39-3.81-8.47-3.39-14.82-6.36-6.35-2.96-10.59-8.03-10.59-14.81s-4.24-22.87-6.35-28.38c-2.12-5.51,4.66-4.66,6.78-2.13,2.12,2.54,3.81,5.08,6.78,3.4,2.96-1.69,8.04-.43,10.16,4.24,2.12,4.65,9.32.42,12.7,2.54,3.39,2.11-7.62,4.66,3.39,24.14,11.02,19.48,3.39,8.47,3.39,21.6s6.78,7.21,8.9,5.08c2.12-2.12,8.05,4.23,13.55,11.01,5.51,6.78,16.09,7.2,16.09,11.01s2.12,11.44,9.32,12.71c7.2,1.27,8.47,9.31,13.13,10.17,4.66.84,5.51,5.93,2.96,11.43-2.54,5.51,0,10.17,11.86,14.82,11.86,4.67,6.35,5.51,15.67,14.41,9.32,8.9,35.58,37.69,41.08,45.74,5.51,8.04,7.2,14.81,9.32,20.74,2.12,5.93-4.24,8.91-.84,13.98,3.38,5.09-6.35,2.97-5.93,6.78.42,3.81,5.93,22.87,15.25,23.72,9.32.84,19.91,12.27,27.53,18.64,7.62,6.35,19.05,5.07,30.5,9.31,11.43,4.23,21.17,14.4,37.69,19.06,16.52,4.66,32.62,11.85,43.2,18.64,10.59,6.77,23.72,3.81,38.54-2.12,14.82-5.93,26.26,1.69,34.73,5.08,4.17,1.67,12.36,8.68,20.56,15.99,7.48-10.73,14.67-20.43,15.62-20.63Z"/>
        </g>
        <g>
          <path class="cls-2" d="m541.31,359.26c4.16-3.36,7.72-7.38,10.31-10.65-6.64,3.6-8.66.16-7.7-4.52l-9.56,1.27.98-38.58c-7.71.32-29.3-.27-32.06-.27-3.27,0-4.09,13.09-6.13,14.31-2.04,1.23,15.95,13.09,13.9,18.4-2.05,5.32-23.31,2.45-25.35,2.86-.95.2-8.14,9.9-15.62,20.63,8.44,7.5,16.87,15.31,20.95,17.9,8.05,5.07,21.18-.44,26.68,4.66.17.14.4.31.61.46,5.73-5.45,11.65-10.77,13.58-11.33,4.1-1.23.82-8.18,9.41-15.14Z"/>
          <path class="cls-3" d="m541.31,359.26c4.16-3.36,7.72-7.38,10.31-10.65-6.64,3.6-8.66.16-7.7-4.52l-9.56,1.27.98-38.58c-7.71.32-29.3-.27-32.06-.27-3.27,0-4.09,13.09-6.13,14.31-2.04,1.23,15.95,13.09,13.9,18.4-2.05,5.32-23.31,2.45-25.35,2.86-.95.2-8.14,9.9-15.62,20.63,8.44,7.5,16.87,15.31,20.95,17.9,8.05,5.07,21.18-.44,26.68,4.66.17.14.4.31.61.46,5.73-5.45,11.65-10.77,13.58-11.33,4.1-1.23.82-8.18,9.41-15.14Z"/>
        </g>
        <g>
          <path class="cls-2" d="m612.29,441.06c4.2,2.11,14.7,0,18.9,3.15,2.04,1.53,5.49,1.57,9.45,1.05-1.22-1.77-2.17-3.21-2.63-4.09-2.96-5.5,2.11-16.51,4.66-24.56,2.54-8.05-2.12-27.52,2.54-32.61,4.66-5.08,2.11-8.05,4.23-19.91.14-.77.04-1.29.04-1.92-9.53-.36-19.27,8.62-22.31,8.96-3.68.41-16.76-2.87-18.4,4.08-1.64,6.95-9.81,8.18-20.85,8.99-11.04.83-5.32,10.23-6.13,11.87-.82,1.64-5.72,5.31-5.72,5.31l-7.07,1.66c-.33,2.64-.52,5.26,2.94,7.22,6.77,3.8,16.09,18.64,23.29,22.44,3.46,1.83,5.61,4.83,6.54,7.74,4.15-.32,8.36-.46,10.53.62Z"/>
          <path class="cls-3" d="m612.29,441.06c4.2,2.11,14.7,0,18.9,3.15,2.04,1.53,5.49,1.57,9.45,1.05-1.22-1.77-2.17-3.21-2.63-4.09-2.96-5.5,2.11-16.51,4.66-24.56,2.54-8.05-2.12-27.52,2.54-32.61,4.66-5.08,2.11-8.05,4.23-19.91.14-.77.04-1.29.04-1.92-9.53-.36-19.27,8.62-22.31,8.96-3.68.41-16.76-2.87-18.4,4.08-1.64,6.95-9.81,8.18-20.85,8.99-11.04.83-5.32,10.23-6.13,11.87-.82,1.64-5.72,5.31-5.72,5.31l-7.07,1.66c-.33,2.64-.52,5.26,2.94,7.22,6.77,3.8,16.09,18.64,23.29,22.44,3.46,1.83,5.61,4.83,6.54,7.74,4.15-.32,8.36-.46,10.53.62Z"/>
        </g>
        <g>
          <path class="cls-2" d="m1230.11,1322.12c11.86-8.48,8.9-13.55,14.4-23.71,5.51-10.18.85-14.41,10.17-23.3,9.31-8.9-1.7-14.82,10.16-20.32,11.86-5.51,10.16,5.08.42,17.36-9.74,12.29-11.44,15.68,1.27,6.36,12.7-9.32,17.37-22.45,24.57-37.28,7.2-14.81,12.71-19.47,19.06-20.32,6.36-.85,6.36-16.52,5.51-27.52-.85-11.02-4.23-21.18.42-28.38,4.66-7.2,0-13.98,5.93-13.98s14.82-8.9,24.14-18.22c9.32-9.31,15.25-10.16,24.99-11.01,9.74-.85,4.24-4.23,10.59-5.93,6.35-1.69,10.59-7.62,14.82-11.44,4.24-3.81,21.6.43,31.76.43s16.94.85,16.94-5.5,4.66-11.45,10.59-11.45,8.47-1.69,8.47-10.16,2.54-13.55,7.61-17.37c5.09-3.81,5.93-12.27,7.63-17.78,1.7-5.51,7.2-2.12,7.2-10.17s2.96-16.94,2.96-23.29,6.78-5.51,9.74-10.17c2.96-4.66-2.54-10.58,2.11-23.72,4.66-13.13,0-25.41,0-37.26s0-24.15,4.24-27.96c4.24-3.8,2.12-5.93-1.27-7.63-3.39-1.69.42-6.35,3.39-5.5,2.96.84,6.35,7.2,11.86,3.81,5.51-3.4,10.59-17.79,15.25-29.65,4.66-11.86,12.29-11.44,18.21-13.98,5.93-2.54,18.64-16.94,26.68-37.7,8.05-20.74-.43-41.08-3.81-55.47-3.39-14.41-8.05-11.45-16.52-11.01-8.47.42-24.57-1.7-45.75-24.57-21.17-22.87-41.93-21.17-55.9-17.37-13.98,3.82-28.38-6.77-37.69-8.89-9.32-2.11-18.21,9.74-24.99,12.28-6.78,2.53,3.38-10.17,3.81-18.21.43-8.05-25.41-19.49-44.89-27.11-19.49-7.63-27.95-3.81-27.95,8.47s-7.63-3.81-13.56,9.31c-5.93,13.14-16.94,4.66-9.74.43,7.2-4.23,13.98-13.98,16.52-22.02,2.54-8.05-27.95-14.41-38.54-10.17-10.59,4.24-3.81,19.49-12.29,14.82-8.47-4.66-1.69-16.1,5.08-15.68,6.78.44,14.4-13.54,19.06-23.71,4.66-10.17-8.04-11.87-15.67-20.34-7.53-8.38-5.98-32.82-13.71-36.67-8.29,8.19-19.44,21.03-22.57,30.44-4.02,12.05-9.18,5.17-20.08,8.61-10.89,3.44-16.06-1.16-18.92-5.73-2.87-4.61-13.77,0-21.22-.58-7.45-.57-2.87,9.17-8.02,12.05-5.16,2.87-18.35-5.73-22.94-.57-4.59,5.16-7.45,0-9.75,4.58-2.3,4.59-10.32,1.73-12.62,4.59-2.3,2.86-10.32,4.58-20.64-6.88-10.32-11.46-8.6-30.39-4.01-33.83,4.58-3.43,4.58-13.18-1.72-16.06-6.31-2.85,0-14.9-8.02-16.05-8.03-1.14-6.88,9.17-12.04,10.89-5.16,1.72-17.78,10.33-23.52,9.18-5.73-1.15-13.19,1.14-13.19,7.44s-6.3,4.59-7.45-.57c-1.14-5.15-13.18-2.29-16.62-5.73-3.44-3.44-19.49-1.72-12.62,2.29,6.88,4.01,7.45,8.03,7.45,14.33s5.16,4.59,5.16,12.04,5.73,2.29,9.74,2.29,4.01,6.89-2.29,8.03c-6.31,1.15-9.17,4.57-10.89,10.32-1.72,5.73-7.45,1.72-12.62,6.3-5.16,4.6-9.75,9.17-13.19,6.88-3.44-2.28-6.3-.57-10.31,1.72-4.01,2.29-5.73,0-11.47-4.58-4.3-3.43-6.99-11.72-14.59-19.27-4.54,2.14-13.75,5.46-18.7,5.46-6.69,0-27.7-1.52-28.84,2.12-1.14,3.62,1.53,9.74,4.96,10.49,3.44.77,10.7,2.87,3.83,7.84-6.88,4.95-12.99-1.72-12.99,10.31s15.43,19.84,12.23,30.96c-1.65,5.71-3.92,20.41-3.92,26.06s-2.25,24.83-7.33,25.96c-5.08,1.15-9.61-4.5-16.39,1.15-6.78,5.63-15.24,2.24-23.14,8.47-7.9,6.21-16.37,3.94-16.94,11.28-.57,7.35-7.9,11.3-6.21,18.07,1.7,6.78-3.39,5.08-8.47,10.17-5.08,5.08.56,8.47-2.83,12.43-3.39,3.95,1.13,10.16,5.08,16.36,3.95,6.22,8.47,10.73,7.92,16.38-.58,5.65,3.94,7.91,9.59,7.34,5.65-.56,1.12,10.73,10.17,10.73s18.06,2.27,20.32-2.82c2.26-5.08,8.47-9.04,8.47-1.69s-1.69,27.11,4.51,24.84c6.22-2.26,18.64-1.7,24.86.57,6.21,2.25,12.41,0,16.37-3.95,3.96-3.96,8.46-3.94,16.37-8.47,7.91-4.52,15.25-10.17,22.6-10.17s19.76-4.52,18.06,1.12c-1.69,5.65-2.82,26.55,6.22,37.26,9.03,10.74,14.12,14.69,22.58,13.56,8.47-1.13,7.35,3.39,13.55,2.84,6.22-.57,2.26,6.76,7.91,6.76s15.8,1.13,15.8,7.34,16.94,1.14,20.9,4.53c3.96,3.39,8.47,6.21,7.34,12.98-1.14,6.78,8.47,11.86,2.82,14.68-5.65,2.83,1.69,8.47,2.26,15.82.56,7.34,8.46,10.17,20.89,9.59,12.43-.55,15.82.57,15.82,9.62s8.46,10.16,11.29,18.63c2.83,8.47-3.39,18.06-2.26,24.84.86,5.2-2.28,10.7-5.82,13,4.35,5.54,4.71,8.04.81,10.19-5.15,2.86,6.31,10.89,3.44,23.5-2.86,12.63-3.43,14.91,9.76,15.49,13.18.57,12.04,4.58,16.62,1.71,4.59-2.86,11.46,9.76,13.18,16.08,1.73,6.29,6.88,21.19,9.18,21.19s9.18-6.87,16.06-3.43c6.4,3.2-1.57,24.74-1.8,34.18,4.78-.17,10.63-.16,12.56.82,3.44,1.72,5.15,24.88,3.45,29.17-1.72,4.29-15.89,8.14-23.18,12.87-7.3,4.73-24.89,21.46-33.04,34.76-4.83,7.89-11.88,14.4-16.86,20.1,2.37.33,4.35.23,5.7-.35,3.86-1.73,9.86-1.73,16.31,5.99,6.43,7.73,6.01,13.74,8.58,13.31,2.58-.44,5.58-10.3,10.73-3.01,5.15,7.3,18.45,12.88,21.45,16.32,3,3.42,12.87,6,12.87,15,0,6.46-3.04,18.65,2.01,28.99,2.41-3.12,5.17-6.17,8.91-8.83Z"/>
          <path class="cls-3" d="m1230.11,1322.12c11.86-8.48,8.9-13.55,14.4-23.71,5.51-10.18.85-14.41,10.17-23.3,9.31-8.9-1.7-14.82,10.16-20.32,11.86-5.51,10.16,5.08.42,17.36-9.74,12.29-11.44,15.68,1.27,6.36,12.7-9.32,17.37-22.45,24.57-37.28,7.2-14.81,12.71-19.47,19.06-20.32,6.36-.85,6.36-16.52,5.51-27.52-.85-11.02-4.23-21.18.42-28.38,4.66-7.2,0-13.98,5.93-13.98s14.82-8.9,24.14-18.22c9.32-9.31,15.25-10.16,24.99-11.01,9.74-.85,4.24-4.23,10.59-5.93,6.35-1.69,10.59-7.62,14.82-11.44,4.24-3.81,21.6.43,31.76.43s16.94.85,16.94-5.5,4.66-11.45,10.59-11.45,8.47-1.69,8.47-10.16,2.54-13.55,7.61-17.37c5.09-3.81,5.93-12.27,7.63-17.78,1.7-5.51,7.2-2.12,7.2-10.17s2.96-16.94,2.96-23.29,6.78-5.51,9.74-10.17c2.96-4.66-2.54-10.58,2.11-23.72,4.66-13.13,0-25.41,0-37.26s0-24.15,4.24-27.96c4.24-3.8,2.12-5.93-1.27-7.63-3.39-1.69.42-6.35,3.39-5.5,2.96.84,6.35,7.2,11.86,3.81,5.51-3.4,10.59-17.79,15.25-29.65,4.66-11.86,12.29-11.44,18.21-13.98,5.93-2.54,18.64-16.94,26.68-37.7,8.05-20.74-.43-41.08-3.81-55.47-3.39-14.41-8.05-11.45-16.52-11.01-8.47.42-24.57-1.7-45.75-24.57-21.17-22.87-41.93-21.17-55.9-17.37-13.98,3.82-28.38-6.77-37.69-8.89-9.32-2.11-18.21,9.74-24.99,12.28-6.78,2.53,3.38-10.17,3.81-18.21.43-8.05-25.41-19.49-44.89-27.11-19.49-7.63-27.95-3.81-27.95,8.47s-7.63-3.81-13.56,9.31c-5.93,13.14-16.94,4.66-9.74.43,7.2-4.23,13.98-13.98,16.52-22.02,2.54-8.05-27.95-14.41-38.54-10.17-10.59,4.24-3.81,19.49-12.29,14.82-8.47-4.66-1.69-16.1,5.08-15.68,6.78.44,14.4-13.54,19.06-23.71,4.66-10.17-8.04-11.87-15.67-20.34-7.53-8.38-5.98-32.82-13.71-36.67-8.29,8.19-19.44,21.03-22.57,30.44-4.02,12.05-9.18,5.17-20.08,8.61-10.89,3.44-16.06-1.16-18.92-5.73-2.87-4.61-13.77,0-21.22-.58-7.45-.57-2.87,9.17-8.02,12.05-5.16,2.87-18.35-5.73-22.94-.57-4.59,5.16-7.45,0-9.75,4.58-2.3,4.59-10.32,1.73-12.62,4.59-2.3,2.86-10.32,4.58-20.64-6.88-10.32-11.46-8.6-30.39-4.01-33.83,4.58-3.43,4.58-13.18-1.72-16.06-6.31-2.85,0-14.9-8.02-16.05-8.03-1.14-6.88,9.17-12.04,10.89-5.16,1.72-17.78,10.33-23.52,9.18-5.73-1.15-13.19,1.14-13.19,7.44s-6.3,4.59-7.45-.57c-1.14-5.15-13.18-2.29-16.62-5.73-3.44-3.44-19.49-1.72-12.62,2.29,6.88,4.01,7.45,8.03,7.45,14.33s5.16,4.59,5.16,12.04,5.73,2.29,9.74,2.29,4.01,6.89-2.29,8.03c-6.31,1.15-9.17,4.57-10.89,10.32-1.72,5.73-7.45,1.72-12.62,6.3-5.16,4.6-9.75,9.17-13.19,6.88-3.44-2.28-6.3-.57-10.31,1.72-4.01,2.29-5.73,0-11.47-4.58-4.3-3.43-6.99-11.72-14.59-19.27-4.54,2.14-13.75,5.46-18.7,5.46-6.69,0-27.7-1.52-28.84,2.12-1.14,3.62,1.53,9.74,4.96,10.49,3.44.77,10.7,2.87,3.83,7.84-6.88,4.95-12.99-1.72-12.99,10.31s15.43,19.84,12.23,30.96c-1.65,5.71-3.92,20.41-3.92,26.06s-2.25,24.83-7.33,25.96c-5.08,1.15-9.61-4.5-16.39,1.15-6.78,5.63-15.24,2.24-23.14,8.47-7.9,6.21-16.37,3.94-16.94,11.28-.57,7.35-7.9,11.3-6.21,18.07,1.7,6.78-3.39,5.08-8.47,10.17-5.08,5.08.56,8.47-2.83,12.43-3.39,3.95,1.13,10.16,5.08,16.36,3.95,6.22,8.47,10.73,7.92,16.38-.58,5.65,3.94,7.91,9.59,7.34,5.65-.56,1.12,10.73,10.17,10.73s18.06,2.27,20.32-2.82c2.26-5.08,8.47-9.04,8.47-1.69s-1.69,27.11,4.51,24.84c6.22-2.26,18.64-1.7,24.86.57,6.21,2.25,12.41,0,16.37-3.95,3.96-3.96,8.46-3.94,16.37-8.47,7.91-4.52,15.25-10.17,22.6-10.17s19.76-4.52,18.06,1.12c-1.69,5.65-2.82,26.55,6.22,37.26,9.03,10.74,14.12,14.69,22.58,13.56,8.47-1.13,7.35,3.39,13.55,2.84,6.22-.57,2.26,6.76,7.91,6.76s15.8,1.13,15.8,7.34,16.94,1.14,20.9,4.53c3.96,3.39,8.47,6.21,7.34,12.98-1.14,6.78,8.47,11.86,2.82,14.68-5.65,2.83,1.69,8.47,2.26,15.82.56,7.34,8.46,10.17,20.89,9.59,12.43-.55,15.82.57,15.82,9.62s8.46,10.16,11.29,18.63c2.83,8.47-3.39,18.06-2.26,24.84.86,5.2-2.28,10.7-5.82,13,4.35,5.54,4.71,8.04.81,10.19-5.15,2.86,6.31,10.89,3.44,23.5-2.86,12.63-3.43,14.91,9.76,15.49,13.18.57,12.04,4.58,16.62,1.71,4.59-2.86,11.46,9.76,13.18,16.08,1.73,6.29,6.88,21.19,9.18,21.19s9.18-6.87,16.06-3.43c6.4,3.2-1.57,24.74-1.8,34.18,4.78-.17,10.63-.16,12.56.82,3.44,1.72,5.15,24.88,3.45,29.17-1.72,4.29-15.89,8.14-23.18,12.87-7.3,4.73-24.89,21.46-33.04,34.76-4.83,7.89-11.88,14.4-16.86,20.1,2.37.33,4.35.23,5.7-.35,3.86-1.73,9.86-1.73,16.31,5.99,6.43,7.73,6.01,13.74,8.58,13.31,2.58-.44,5.58-10.3,10.73-3.01,5.15,7.3,18.45,12.88,21.45,16.32,3,3.42,12.87,6,12.87,15,0,6.46-3.04,18.65,2.01,28.99,2.41-3.12,5.17-6.17,8.91-8.83Z"/>
        </g>
        <g>
          <path class="cls-2" d="m978.53,1826.55c-10.59-.43-31.34-19.91-37.7-24.98-6.35-5.09-1.69-10.17-9.31-8.9-7.63,1.26-2.55-5.94,1.69-8.05,3.89-1.96-1.51-9.18-6.69-10.35-.56,11.37-2.93,62.41.13,62.91,3.08.52,25.56-2.63,32.18,1.7,2.55.81,6.03,2.87,8.69-.05,4.24-4.66,16.94-2.11,23.73-6.35,6.78-4.25-2.12-5.51-12.71-5.94Zm234.65-668.76c-1.93-.97-7.78-.98-12.56-.82-.01.72,0,1.37.08,1.95,1.15,8.02-4.01,28.66-9.74,28.08-5.73-.56-10.33,8.61-14.91,7.46-4.58-1.14-10.9,6.88-16.63,3.43-5.73-3.43-13.75,1.16-18.34-1.72-4.59-2.86-17.78-.57-17.78-4s6.31-2.29,6.31-12.63,17.19-21.78,14.9-25.79c-2.29-4.03-31.54-12.63-35.55-17.78-4.01-5.16-9.75-9.76-21.21-10.89-11.47-1.15-10.89-6.87-21.21-13.19-8.61-5.26-22-19.3-26.52-27.13-6.99-.73-16.89-2.2-18.86.17-2.82,3.39-7.33,19.19-11.29,11.29-3.96-7.9-13.55-7.9-22.02-9.05-8.47-1.11-7.9-9.03-16.94.58-4.02,4.28-9.25,8.49-13.98,11.56-.56,9.13-2.23,19.41-3.9,22.34-2.3,4.02-21.21,12.62-21.79,17.2-.57,4.58,2.29,10.89-1.15,13.76-3.44,2.87,8.02,17.19,1.72,20.64-6.31,3.44,4.58,9.17.57,12.62-4.01,3.43-11.46,5.16-11.46,9.16s-.57,13.77-5.74,16.06c-5.16,2.3-8.6,10.89-8.6,17.2s-8.03,2.29-5.15,10.32c2.86,8.04,6.3,17.79,0,19.5-6.31,1.73-4.59,14.92-8.04,14.92s-5.16,13.76,0,20.63c5.16,6.88,6.32,12.62,6.32,18.93s6.87,9.73,4.58,16.62c-2.29,6.87-1.14,13.19-5.16,16.05-4.01,2.88-.57,11.46-5.74,13.77-5.15,2.29,4.02,20.63,0,24.07-4.01,3.45-14.33,6.32-14.33,18.92s1.95,19.75.58,25.23c-1.15,4.58,5.74,3.42,4.59,10.89-1.15,7.44-10.33,2.87-10.89,7.44-.57,4.59,2.29,13.78-1.15,14.34-3.44.57-5.17,4.01-5.17,12.05s-4.58,9.16-5.15,13.18c-.58,4.01,4.01,8.61,4.01,13.18s2.86,20.07-1.15,20.64c-4.01.57-6.3,17.78-2.86,20.07,3.44,2.28,3.44,6.88,1.72,10.32-1.72,3.43,8.02,6.87,2.86,12.04-5.16,5.16-1.06,11.78,5.74,9.75,5.74-1.72,9.17,8.59,2.87,8.59s-12.62,0-7.45,4.03c5.16,4.01,10.31,9.74,2.87,12.61-7.45,2.87-1.15,8.02-2.87,14.91-1.72,6.88,5.16,13.19-.57,14.91-5.74,1.71,2.29,12.04-5.74,13.19-8.02,1.14-2.87,8.59-8.02,12.62-5.17,4.01,6.88,10.89.57,14.9-6.3,4-1.72,13.18-8.02,13.18s-9.75,8.6-10.33,12.62c-.57,4.01-4.58,12.05.57,17.77,5.16,5.73-1.15,10.32,3.43,12.62,4.6,2.29,20.07-1.15,17.78,5.73-2.29,6.87-1.72,21.79,1.15,21.79s4.59,8.6,9.18,8.03c4.59-.59,25.23-2.87,33.83-.59,4.25,1.14,7.79,3.67,10.3,5.95,4.91-2.17,15.66,4.84,18.1,2.41,2.97-2.97-10.59-13.98-10.16-17.78.42-3.82-2.12-10.18-2.12-14.41s-2.12-13.55,3.81-17.79c5.93-4.23,6.36-8.47,10.17-7.61,3.81.84,11.43-3.4,11.86-13.56.42-10.16,5.08-13.97,13.56-21.18,9.22-7.84,24.56-15.24,22.44-18.63-2.12-3.39,3.39-14.4,3.39-18.64s-14.4-3.4-19.06-5.08c-4.66-1.7-21.6-13.55-13.13-29.22,8.47-15.67,26.26-17.38,31.34-17.79,5.08-.43.42-7.62,4.66-10.17,4.24-2.54,5.08-6.77,5.08-13.13,0-7.2,0-18.64,7.62-19.48,7.63-.85,9.75-5.09,5.08-6.35-4.66-1.27-6.78-6.77.85-7.63,7.62-.84,5.08,6.35,10.58,6.35s14.82-9.32,7.63-14.82c-7.2-5.51-9.32,2.54-13.13,3.39-3.82.83-6.78-5.09-10.59-5.09s-1.27-10.59-2.96-14.4c-1.7-3.81-4.23-13.13-.85-17.79,3.39-4.66,17.79,7.2,30.5,8.05,12.71.85,22.02-6.35,22.02-11.02s-5.93-13.13,1.7-18.2c7.62-5.08,1.27-6.78-.84-13.55-2.12-6.78,3.39-11.02,6.77-7.63,3.39,3.39,28.38,1.27,49.13-2.96,20.75-4.25,35.15-11.87,36.42-17.79,1.27-5.93,14.41-19.91,17.37-24.99,2.97-5.08.43-11.44-8.04-12.71-8.47-1.26-8.05-11.01-3.39-16.51,4.66-5.51-2.54-10.59-10.59-11.44-8.04-.85-20.75-6.35-13.55-13.13,3.47-3.27,5.16-2.62,6.85-1.13,1.21-3.24,2.37-7.07,1.42-8.01-1.71-1.72-6,.42-5.57-11.6.43-12.01,4.71-9.43,5.15-24.88.42-15.46,6.43-24.46,6.43-32.62s14.59-17.58,22.75-30.9c8.15-13.3,25.75-30.03,33.04-34.76,7.29-4.72,21.45-8.58,23.18-12.87,1.71-4.29,0-27.46-3.45-29.17Z"/>
          <path class="cls-3" d="m978.53,1826.55c-10.59-.43-31.34-19.91-37.7-24.98-6.35-5.09-1.69-10.17-9.31-8.9-7.63,1.26-2.55-5.94,1.69-8.05,3.89-1.96-1.51-9.18-6.69-10.35-.56,11.37-2.93,62.41.13,62.91,3.08.52,25.56-2.63,32.18,1.7,2.55.81,6.03,2.87,8.69-.05,4.24-4.66,16.94-2.11,23.73-6.35,6.78-4.25-2.12-5.51-12.71-5.94Zm234.65-668.76c-1.93-.97-7.78-.98-12.56-.82-.01.72,0,1.37.08,1.95,1.15,8.02-4.01,28.66-9.74,28.08-5.73-.56-10.33,8.61-14.91,7.46-4.58-1.14-10.9,6.88-16.63,3.43-5.73-3.43-13.75,1.16-18.34-1.72-4.59-2.86-17.78-.57-17.78-4s6.31-2.29,6.31-12.63,17.19-21.78,14.9-25.79c-2.29-4.03-31.54-12.63-35.55-17.78-4.01-5.16-9.75-9.76-21.21-10.89-11.47-1.15-10.89-6.87-21.21-13.19-8.61-5.26-22-19.3-26.52-27.13-6.99-.73-16.89-2.2-18.86.17-2.82,3.39-7.33,19.19-11.29,11.29-3.96-7.9-13.55-7.9-22.02-9.05-8.47-1.11-7.9-9.03-16.94.58-4.02,4.28-9.25,8.49-13.98,11.56-.56,9.13-2.23,19.41-3.9,22.34-2.3,4.02-21.21,12.62-21.79,17.2-.57,4.58,2.29,10.89-1.15,13.76-3.44,2.87,8.02,17.19,1.72,20.64-6.31,3.44,4.58,9.17.57,12.62-4.01,3.43-11.46,5.16-11.46,9.16s-.57,13.77-5.74,16.06c-5.16,2.3-8.6,10.89-8.6,17.2s-8.03,2.29-5.15,10.32c2.86,8.04,6.3,17.79,0,19.5-6.31,1.73-4.59,14.92-8.04,14.92s-5.16,13.76,0,20.63c5.16,6.88,6.32,12.62,6.32,18.93s6.87,9.73,4.58,16.62c-2.29,6.87-1.14,13.19-5.16,16.05-4.01,2.88-.57,11.46-5.74,13.77-5.15,2.29,4.02,20.63,0,24.07-4.01,3.45-14.33,6.32-14.33,18.92s1.95,19.75.58,25.23c-1.15,4.58,5.74,3.42,4.59,10.89-1.15,7.44-10.33,2.87-10.89,7.44-.57,4.59,2.29,13.78-1.15,14.34-3.44.57-5.17,4.01-5.17,12.05s-4.58,9.16-5.15,13.18c-.58,4.01,4.01,8.61,4.01,13.18s2.86,20.07-1.15,20.64c-4.01.57-6.3,17.78-2.86,20.07,3.44,2.28,3.44,6.88,1.72,10.32-1.72,3.43,8.02,6.87,2.86,12.04-5.16,5.16-1.06,11.78,5.74,9.75,5.74-1.72,9.17,8.59,2.87,8.59s-12.62,0-7.45,4.03c5.16,4.01,10.31,9.74,2.87,12.61-7.45,2.87-1.15,8.02-2.87,14.91-1.72,6.88,5.16,13.19-.57,14.91-5.74,1.71,2.29,12.04-5.74,13.19-8.02,1.14-2.87,8.59-8.02,12.62-5.17,4.01,6.88,10.89.57,14.9-6.3,4-1.72,13.18-8.02,13.18s-9.75,8.6-10.33,12.62c-.57,4.01-4.58,12.05.57,17.77,5.16,5.73-1.15,10.32,3.43,12.62,4.6,2.29,20.07-1.15,17.78,5.73-2.29,6.87-1.72,21.79,1.15,21.79s4.59,8.6,9.18,8.03c4.59-.59,25.23-2.87,33.83-.59,4.25,1.14,7.79,3.67,10.3,5.95,4.91-2.17,15.66,4.84,18.1,2.41,2.97-2.97-10.59-13.98-10.16-17.78.42-3.82-2.12-10.18-2.12-14.41s-2.12-13.55,3.81-17.79c5.93-4.23,6.36-8.47,10.17-7.61,3.81.84,11.43-3.4,11.86-13.56.42-10.16,5.08-13.97,13.56-21.18,9.22-7.84,24.56-15.24,22.44-18.63-2.12-3.39,3.39-14.4,3.39-18.64s-14.4-3.4-19.06-5.08c-4.66-1.7-21.6-13.55-13.13-29.22,8.47-15.67,26.26-17.38,31.34-17.79,5.08-.43.42-7.62,4.66-10.17,4.24-2.54,5.08-6.77,5.08-13.13,0-7.2,0-18.64,7.62-19.48,7.63-.85,9.75-5.09,5.08-6.35-4.66-1.27-6.78-6.77.85-7.63,7.62-.84,5.08,6.35,10.58,6.35s14.82-9.32,7.63-14.82c-7.2-5.51-9.32,2.54-13.13,3.39-3.82.83-6.78-5.09-10.59-5.09s-1.27-10.59-2.96-14.4c-1.7-3.81-4.23-13.13-.85-17.79,3.39-4.66,17.79,7.2,30.5,8.05,12.71.85,22.02-6.35,22.02-11.02s-5.93-13.13,1.7-18.2c7.62-5.08,1.27-6.78-.84-13.55-2.12-6.78,3.39-11.02,6.77-7.63,3.39,3.39,28.38,1.27,49.13-2.96,20.75-4.25,35.15-11.87,36.42-17.79,1.27-5.93,14.41-19.91,17.37-24.99,2.97-5.08.43-11.44-8.04-12.71-8.47-1.26-8.05-11.01-3.39-16.51,4.66-5.51-2.54-10.59-10.59-11.44-8.04-.85-20.75-6.35-13.55-13.13,3.47-3.27,5.16-2.62,6.85-1.13,1.21-3.24,2.37-7.07,1.42-8.01-1.71-1.72-6,.42-5.57-11.6.43-12.01,4.71-9.43,5.15-24.88.42-15.46,6.43-24.46,6.43-32.62s14.59-17.58,22.75-30.9c8.15-13.3,25.75-30.03,33.04-34.76,7.29-4.72,21.45-8.58,23.18-12.87,1.71-4.29,0-27.46-3.45-29.17Z"/>
        </g>
        <g>
          <path class="cls-2" d="m867.59,1758.64c-4.59.57-6.31-8.03-9.18-8.03s-3.44-14.92-1.15-21.79c2.3-6.88-13.18-3.44-17.78-5.73-4.58-2.29,1.72-6.88-3.43-12.62-5.16-5.72-1.15-13.77-.57-17.77.57-4.02,4.01-12.62,10.33-12.62s1.72-9.18,8.02-13.18c6.31-4.01-5.73-10.89-.57-14.9,5.16-4.03,0-11.48,8.02-12.62,8.03-1.15,0-11.48,5.74-13.19,5.73-1.72-1.15-8.02.57-14.91,1.72-6.88-4.59-12.04,2.87-14.91,7.45-2.87,2.3-8.6-2.87-12.61-5.16-4.03,1.15-4.03,7.45-4.03s2.87-10.31-2.87-8.59c-6.8,2.03-10.9-4.59-5.74-9.75,5.16-5.18-4.58-8.61-2.86-12.04,1.72-3.43,1.72-8.03-1.72-10.32-3.45-2.29-1.15-19.5,2.86-20.07,4.01-.57,1.15-16.05,1.15-20.64s-4.59-9.17-4.01-13.18c.57-4.02,5.15-5.17,5.15-13.18s1.73-11.48,5.17-12.05c3.44-.57.57-9.75,1.15-14.34.57-4.57,9.75,0,10.89-7.44,1.15-7.47-5.73-6.31-4.59-10.89,1.37-5.48-.58-12.62-.58-25.23s10.33-15.47,14.33-18.92c4.02-3.44-5.15-21.78,0-24.07,5.16-2.31,1.72-10.89,5.74-13.77,4.02-2.86,2.87-9.17,5.16-16.05,2.3-6.89-4.58-10.33-4.58-16.62s-1.15-12.05-6.32-18.93c-5.16-6.87-3.44-20.63,0-20.63s1.72-13.18,8.04-14.92c6.3-1.71,2.86-11.46,0-19.5-2.87-8.03,5.15-4.01,5.15-10.32s3.44-14.9,8.6-17.2c5.16-2.29,5.74-12.03,5.74-16.06s7.45-5.73,11.46-9.16c4.01-3.44-6.88-9.17-.57-12.62,6.3-3.45-5.16-17.77-1.72-20.64,3.44-2.87.57-9.17,1.15-13.76.57-4.58,19.49-13.18,21.79-17.2,1.68-2.93,3.34-13.21,3.9-22.34-5.9,3.83-11.05,5.89-11.99,3.69-1.69-3.96.57-15.83-4.51-20.9-5.08-5.08-1.69-15.25-6.78-17.49-5.08-2.26-11.29-12.43-6.78-15.82,4.51-3.4,0-10.16,3.96-13.55,3.95-3.39-2.26-3.96-7.91-10.73-5.64-6.78,2.26-15.24-4.52-20.34-6.77-5.08-6.77-11.29-8.47-8.47-1.69,2.84-2.26,12.43-7.9,15.25-.93.46-2.4,1.57-4.15,3.02.05,4.68-1.64,12.57.19,17.18,2.54,6.35,3.81,37.27,1.27,49.13-2.54,11.86-5.09,21.6-7.63,28.79-2.54,7.21,5.93,7.63,2.54,11.02-3.38,3.39-2.11,11.86-2.11,25.41s-8.05,36.43-8.47,43.63c-.42,7.2-5.93,11.86-5.08,19.91.85,8.04-3.81,12.71-8.47,16.51-4.66,3.81,7.62,16.1,7.2,22.87-.43,6.78-9.32,9.74-7.2,20.76,2.65,13.76,0,37.26,0,41.93s-5.51,4.23-4.24,13.13c1.27,8.9-5.51,11.01-6.78,23.72-1.27,12.71-11.02,30.92-14.82,40.66-3.81,9.74-3.81,15.25-8.89,15.25s-6.35,5.51-2.55,13.98c3.81,8.47-2.54,15.67,2.55,24.14,5.08,8.47,3.38,11.44.85,19.48-2.54,8.04-5.93,8.47-5.93,16.09s-5.93,13.98-2.54,22.44c3.39,8.48,2.54,11.45-1.7,11.45s-6.35,6.77-8.05,20.75c-1.69,13.97-1.27,13.55,8.9,12.7,10.17-.83,2.12-34.3,8.47-34.3s.85-5.51,7.2-7.2c6.35-1.69.84,5.93,5.08,7.2,4.24,1.27,7.2,4.66,1.27,8.47-5.93,3.82,1.27,11.44-1.7,16.09-2.96,4.66-7.2,9.74-4.66,15.25,2.54,5.51-2.97,5.08-3.39,12.28-.43,7.2,3.81,7.63.85,9.31-2.96,1.7,3.81,7.2-.43,8.05-4.23.84-1.69,6.34.85,11.44,2.54,5.07-5.51,2.1-9.74,5.5-4.24,3.39,4.23,8.04,1.69,12.71-2.54,4.66-9.32-2.54-12.28-5.08-2.96-2.54,4.66-7.62,8.47-12.71,3.81-5.07-3.81-16.51-10.16-13.98-6.35,2.54,6.35,9.74,6.35,15.25s-10.59-1.27-10.17,4.66c.42,5.93-7.2,3.81-11.01,8.05-3.81,4.23,5.08,8.05.84,9.32-4.23,1.26-11.43,7.2-11.86,11.43-.42,4.24,4.66,5.08,4.66.84s6.78-5.5,8.89,0c2.12,5.51,5.09,0,11.02,1.27,5.93,1.27,5.08,10.17,1.69,9.74-3.39-.42-6.78,5.51-5.93,11.86.84,6.36,12.7,0,17.79,1.71,5.08,1.69,3.39,10.59.43,7.62-2.97-2.96-9.74-8.05-12.71-2.96-2.96,5.07-7.63,2.54-11.43.84-3.82-1.7-17.37,7.21-12.71,10.59,4.66,3.38,4.23,8.89,7.2,8.47,2.96-.43,7.62-2.55,9.31-5.93,1.69-3.4,7.63-6.78,8.05.83.43,7.64-8.05,3.82-9.74,8.05-1.69,4.24-5.09,7.63-10.17,11.44-5.08,3.81,0,10.17,4.24,8.05,4.24-2.13-1.27,5.07,4.66,5.93,5.47.78,7.2-3.4,5.93-7.63-1.27-4.23,2.96-13.54,8.05-8.89,5.08,4.66-2.54,9.32-2.54,13.55s-2.97,9.75-2.97,14.4-5.51,2.12-5.08,7.21c.42,5.08-11.86,1.69-6.35,5.08,5.5,3.39-3.39,8.04-.43,11.43,2.97,3.39,5.51-4.66,10.17-2.97,4.66,1.7,3.81,2.97,9.74.43,5.93-2.54,9.32,4.66,3.81,6.35-5.5,1.69-11.44,8.04-8.89,8.9,2.54.84,9.74-4.23,11.43,1.26,1.69,5.51,5.93,3.82,6.35-2.12.42-5.92,10.59-.84,12.28,4.24,1.7,5.07-10.59,8.04-16.94,6.78-6.35-1.27-9.74,5.93-5.5,11.43,4.24,5.51,9.32,0,13.98-4.66,4.66-4.66,27.53-3.39,29.23,1.7,1.69,5.07-10.59.84-11.86,3.8-1.28,2.97-10.59,5.51-11.86,2.12-1.28-3.39-10.17,1.27-10.59,6.77-.42,5.5-7.2,5.5.42,7.62,7.63,2.12,5.51-8.05,17.37-7.2,11.86.85,18.21-11.01,21.6-4.23,3.39,6.77-9.74,12.28-14.4,8.03-4.66-4.23-10.16,2.98-9.74,9.32.42,6.35-13.55-1.69-20.33-2.54-6.78-.84-3.81,6.36,2.11,12.71,5.93,6.35,9.32-.84,16.52,3.81,7.2,4.66,7.2,9.74,12.28,5.08,5.09-4.67,0-4.23-3.38-6.36-3.39-2.12-.43-9.32,7.62-5.51,8.05,3.81,17.37-3.38,14.82-13.54-2.54-10.18,7.2-14.83,16.94-18.22,9.74-3.39,4.66,6.35-2.54,9.31-7.2,2.97-8.47,5.09-2.97,11.02,5.51,5.93,12.7-3.82,17.37.84,4.66,4.66-8.47,3.81-10.59,8.48-2.11,4.65,8.05,10.16.85,13.54-7.2,3.39-3.81-13.98-8.05-15.67-4.24-1.7-8.05,2.12-3.81,11.86,4.23,9.73-5.08,1.26-9.32-3.39-4.24-4.66-10.16,2.12-5.08,7.2,5.08,5.08-9.74-.42-9.74,7.63s6.35,1.27,13.97,2.97c7.63,1.69,4.24,12.71,9.74,16.94,5.51,4.23.84-13.55,6.77-14.82,5.93-1.27.43,13.55,13.56,17.79,13.13,4.23.85-2.54,6.78-6.78,5.93-4.23,13.55,12.71,19.91,14.4,6.35,1.7,2.11-7.62-2.55-12.71-4.66-5.07,4.66-2.11,11.02,0,6.35,2.12,11.43,2.97,12.7-1.69.48-1.74,1.66-1.71,3.17-1.22-6.62-4.33-29.1-1.18-32.18-1.7-3.05-.5-.7-51.27-.13-62.91-.45-.1-.91-.24-1.35-.24-5.51,0-17.79,1.27-15.67-7.2.37-1.49,1.17-2.37,2.23-2.83-2.5-2.27-6.05-4.8-10.3-5.95-8.6-2.28-29.24,0-33.83.59Z"/>
          <path class="cls-3" d="m867.59,1758.64c-4.59.57-6.31-8.03-9.18-8.03s-3.44-14.92-1.15-21.79c2.3-6.88-13.18-3.44-17.78-5.73-4.58-2.29,1.72-6.88-3.43-12.62-5.16-5.72-1.15-13.77-.57-17.77.57-4.02,4.01-12.62,10.33-12.62s1.72-9.18,8.02-13.18c6.31-4.01-5.73-10.89-.57-14.9,5.16-4.03,0-11.48,8.02-12.62,8.03-1.15,0-11.48,5.74-13.19,5.73-1.72-1.15-8.02.57-14.91,1.72-6.88-4.59-12.04,2.87-14.91,7.45-2.87,2.3-8.6-2.87-12.61-5.16-4.03,1.15-4.03,7.45-4.03s2.87-10.31-2.87-8.59c-6.8,2.03-10.9-4.59-5.74-9.75,5.16-5.18-4.58-8.61-2.86-12.04,1.72-3.43,1.72-8.03-1.72-10.32-3.45-2.29-1.15-19.5,2.86-20.07,4.01-.57,1.15-16.05,1.15-20.64s-4.59-9.17-4.01-13.18c.57-4.02,5.15-5.17,5.15-13.18s1.73-11.48,5.17-12.05c3.44-.57.57-9.75,1.15-14.34.57-4.57,9.75,0,10.89-7.44,1.15-7.47-5.73-6.31-4.59-10.89,1.37-5.48-.58-12.62-.58-25.23s10.33-15.47,14.33-18.92c4.02-3.44-5.15-21.78,0-24.07,5.16-2.31,1.72-10.89,5.74-13.77,4.02-2.86,2.87-9.17,5.16-16.05,2.3-6.89-4.58-10.33-4.58-16.62s-1.15-12.05-6.32-18.93c-5.16-6.87-3.44-20.63,0-20.63s1.72-13.18,8.04-14.92c6.3-1.71,2.86-11.46,0-19.5-2.87-8.03,5.15-4.01,5.15-10.32s3.44-14.9,8.6-17.2c5.16-2.29,5.74-12.03,5.74-16.06s7.45-5.73,11.46-9.16c4.01-3.44-6.88-9.17-.57-12.62,6.3-3.45-5.16-17.77-1.72-20.64,3.44-2.87.57-9.17,1.15-13.76.57-4.58,19.49-13.18,21.79-17.2,1.68-2.93,3.34-13.21,3.9-22.34-5.9,3.83-11.05,5.89-11.99,3.69-1.69-3.96.57-15.83-4.51-20.9-5.08-5.08-1.69-15.25-6.78-17.49-5.08-2.26-11.29-12.43-6.78-15.82,4.51-3.4,0-10.16,3.96-13.55,3.95-3.39-2.26-3.96-7.91-10.73-5.64-6.78,2.26-15.24-4.52-20.34-6.77-5.08-6.77-11.29-8.47-8.47-1.69,2.84-2.26,12.43-7.9,15.25-.93.46-2.4,1.57-4.15,3.02.05,4.68-1.64,12.57.19,17.18,2.54,6.35,3.81,37.27,1.27,49.13-2.54,11.86-5.09,21.6-7.63,28.79-2.54,7.21,5.93,7.63,2.54,11.02-3.38,3.39-2.11,11.86-2.11,25.41s-8.05,36.43-8.47,43.63c-.42,7.2-5.93,11.86-5.08,19.91.85,8.04-3.81,12.71-8.47,16.51-4.66,3.81,7.62,16.1,7.2,22.87-.43,6.78-9.32,9.74-7.2,20.76,2.65,13.76,0,37.26,0,41.93s-5.51,4.23-4.24,13.13c1.27,8.9-5.51,11.01-6.78,23.72-1.27,12.71-11.02,30.92-14.82,40.66-3.81,9.74-3.81,15.25-8.89,15.25s-6.35,5.51-2.55,13.98c3.81,8.47-2.54,15.67,2.55,24.14,5.08,8.47,3.38,11.44.85,19.48-2.54,8.04-5.93,8.47-5.93,16.09s-5.93,13.98-2.54,22.44c3.39,8.48,2.54,11.45-1.7,11.45s-6.35,6.77-8.05,20.75c-1.69,13.97-1.27,13.55,8.9,12.7,10.17-.83,2.12-34.3,8.47-34.3s.85-5.51,7.2-7.2c6.35-1.69.84,5.93,5.08,7.2,4.24,1.27,7.2,4.66,1.27,8.47-5.93,3.82,1.27,11.44-1.7,16.09-2.96,4.66-7.2,9.74-4.66,15.25,2.54,5.51-2.97,5.08-3.39,12.28-.43,7.2,3.81,7.63.85,9.31-2.96,1.7,3.81,7.2-.43,8.05-4.23.84-1.69,6.34.85,11.44,2.54,5.07-5.51,2.1-9.74,5.5-4.24,3.39,4.23,8.04,1.69,12.71-2.54,4.66-9.32-2.54-12.28-5.08-2.96-2.54,4.66-7.62,8.47-12.71,3.81-5.07-3.81-16.51-10.16-13.98-6.35,2.54,6.35,9.74,6.35,15.25s-10.59-1.27-10.17,4.66c.42,5.93-7.2,3.81-11.01,8.05-3.81,4.23,5.08,8.05.84,9.32-4.23,1.26-11.43,7.2-11.86,11.43-.42,4.24,4.66,5.08,4.66.84s6.78-5.5,8.89,0c2.12,5.51,5.09,0,11.02,1.27,5.93,1.27,5.08,10.17,1.69,9.74-3.39-.42-6.78,5.51-5.93,11.86.84,6.36,12.7,0,17.79,1.71,5.08,1.69,3.39,10.59.43,7.62-2.97-2.96-9.74-8.05-12.71-2.96-2.96,5.07-7.63,2.54-11.43.84-3.82-1.7-17.37,7.21-12.71,10.59,4.66,3.38,4.23,8.89,7.2,8.47,2.96-.43,7.62-2.55,9.31-5.93,1.69-3.4,7.63-6.78,8.05.83.43,7.64-8.05,3.82-9.74,8.05-1.69,4.24-5.09,7.63-10.17,11.44-5.08,3.81,0,10.17,4.24,8.05,4.24-2.13-1.27,5.07,4.66,5.93,5.47.78,7.2-3.4,5.93-7.63-1.27-4.23,2.96-13.54,8.05-8.89,5.08,4.66-2.54,9.32-2.54,13.55s-2.97,9.75-2.97,14.4-5.51,2.12-5.08,7.21c.42,5.08-11.86,1.69-6.35,5.08,5.5,3.39-3.39,8.04-.43,11.43,2.97,3.39,5.51-4.66,10.17-2.97,4.66,1.7,3.81,2.97,9.74.43,5.93-2.54,9.32,4.66,3.81,6.35-5.5,1.69-11.44,8.04-8.89,8.9,2.54.84,9.74-4.23,11.43,1.26,1.69,5.51,5.93,3.82,6.35-2.12.42-5.92,10.59-.84,12.28,4.24,1.7,5.07-10.59,8.04-16.94,6.78-6.35-1.27-9.74,5.93-5.5,11.43,4.24,5.51,9.32,0,13.98-4.66,4.66-4.66,27.53-3.39,29.23,1.7,1.69,5.07-10.59.84-11.86,3.8-1.28,2.97-10.59,5.51-11.86,2.12-1.28-3.39-10.17,1.27-10.59,6.77-.42,5.5-7.2,5.5.42,7.62,7.63,2.12,5.51-8.05,17.37-7.2,11.86.85,18.21-11.01,21.6-4.23,3.39,6.77-9.74,12.28-14.4,8.03-4.66-4.23-10.16,2.98-9.74,9.32.42,6.35-13.55-1.69-20.33-2.54-6.78-.84-3.81,6.36,2.11,12.71,5.93,6.35,9.32-.84,16.52,3.81,7.2,4.66,7.2,9.74,12.28,5.08,5.09-4.67,0-4.23-3.38-6.36-3.39-2.12-.43-9.32,7.62-5.51,8.05,3.81,17.37-3.38,14.82-13.54-2.54-10.18,7.2-14.83,16.94-18.22,9.74-3.39,4.66,6.35-2.54,9.31-7.2,2.97-8.47,5.09-2.97,11.02,5.51,5.93,12.7-3.82,17.37.84,4.66,4.66-8.47,3.81-10.59,8.48-2.11,4.65,8.05,10.16.85,13.54-7.2,3.39-3.81-13.98-8.05-15.67-4.24-1.7-8.05,2.12-3.81,11.86,4.23,9.73-5.08,1.26-9.32-3.39-4.24-4.66-10.16,2.12-5.08,7.2,5.08,5.08-9.74-.42-9.74,7.63s6.35,1.27,13.97,2.97c7.63,1.69,4.24,12.71,9.74,16.94,5.51,4.23.84-13.55,6.77-14.82,5.93-1.27.43,13.55,13.56,17.79,13.13,4.23.85-2.54,6.78-6.78,5.93-4.23,13.55,12.71,19.91,14.4,6.35,1.7,2.11-7.62-2.55-12.71-4.66-5.07,4.66-2.11,11.02,0,6.35,2.12,11.43,2.97,12.7-1.69.48-1.74,1.66-1.71,3.17-1.22-6.62-4.33-29.1-1.18-32.18-1.7-3.05-.5-.7-51.27-.13-62.91-.45-.1-.91-.24-1.35-.24-5.51,0-17.79,1.27-15.67-7.2.37-1.49,1.17-2.37,2.23-2.83-2.5-2.27-6.05-4.8-10.3-5.95-8.6-2.28-29.24,0-33.83.59Z"/>
        </g>
        <g>
          <path class="cls-2" d="m656.62,480.95c-.63-2.2-.27-7.83,2.91-12.13-6.93-7.47-14.73-17.55-18.89-23.56-3.96.52-7.42.48-9.45-1.05-4.2-3.15-14.7-1.04-18.9-3.15-2.17-1.09-6.38-.95-10.53-.62.99,3.14.53,6.17-1.45,7.51-3.82,2.54-4.24,12.71,5.08,16.52,9.31,3.8,6.35-2.12,11.01-2.12s4.23,7.2,8.47,7.2,13.98,5.08,13.55,11.86c-.42,6.77,3.39,9.74,11.02,9.74,1.39,0,2.97.13,4.63.34,1.29-4.53,3.22-8.19,2.56-10.54Z"/>
          <path class="cls-3" d="m656.62,480.95c-.63-2.2-.27-7.83,2.91-12.13-6.93-7.47-14.73-17.55-18.89-23.56-3.96.52-7.42.48-9.45-1.05-4.2-3.15-14.7-1.04-18.9-3.15-2.17-1.09-6.38-.95-10.53-.62.99,3.14.53,6.17-1.45,7.51-3.82,2.54-4.24,12.71,5.08,16.52,9.31,3.8,6.35-2.12,11.01-2.12s4.23,7.2,8.47,7.2,13.98,5.08,13.55,11.86c-.42,6.77,3.39,9.74,11.02,9.74,1.39,0,2.97.13,4.63.34,1.29-4.53,3.22-8.19,2.56-10.54Z"/>
        </g>
        <g>
          <path class="cls-2" d="m753.63,480.98c-6.78-10.17-19.06-9.31-26.68-12.71-7.63-3.39-17.36,1.27-27.11,10.18-9.74,8.89-22.02,3.8-30.49-.85-2.51-1.38-6.04-4.71-9.82-8.78-3.17,4.3-3.53,9.93-2.91,12.13.67,2.35-1.26,6.01-2.56,10.54,8.39,1.05,19.29,4.71,24.6,11.09,6.35,7.63,10.16,2.53,13.98,9.31,3.81,6.78,12.7.42,14.82-3.81,2.13-4.24-4.66-5.93-5.5-10.58-.84-4.66,8.47-2.97,10.16-9.32,1.69-6.35,15.25-9.31,21.18-6.77,5.93,2.53,11.01,6.77,5.51,13.13-4.1,4.73,4.26,13.24,11.25,19.88,4.9-5.05,10.53-10.79,12.88-12.5,1.28-.96,2.08-3.2,2.63-5.98-3.36-1.59-7.24-7.89-11.93-14.95Z"/>
          <path class="cls-3" d="m753.63,480.98c-6.78-10.17-19.06-9.31-26.68-12.71-7.63-3.39-17.36,1.27-27.11,10.18-9.74,8.89-22.02,3.8-30.49-.85-2.51-1.38-6.04-4.71-9.82-8.78-3.17,4.3-3.53,9.93-2.91,12.13.67,2.35-1.26,6.01-2.56,10.54,8.39,1.05,19.29,4.71,24.6,11.09,6.35,7.63,10.16,2.53,13.98,9.31,3.81,6.78,12.7.42,14.82-3.81,2.13-4.24-4.66-5.93-5.5-10.58-.84-4.66,8.47-2.97,10.16-9.32,1.69-6.35,15.25-9.31,21.18-6.77,5.93,2.53,11.01,6.77,5.51,13.13-4.1,4.73,4.26,13.24,11.25,19.88,4.9-5.05,10.53-10.79,12.88-12.5,1.28-.96,2.08-3.2,2.63-5.98-3.36-1.59-7.24-7.89-11.93-14.95Z"/>
        </g>
        <g>
          <path class="cls-2" d="m765.43,646.94c5.29,3.11,12.8,2.23,14.57,0,1.76-2.21,6.61,2.65,13.68,10.61.31.35.57.64.86.97,5.93-1.31,13.42-2.42,16.44-.53,5.31,3.33,3.98,15.3,11.29,15.96,7.31.66,12.63,7.98,11.97,11.96-.67,4,7.97,5.98,7.31,11.97-.66,5.98,19.29,4.66,21.94,2.66,2.65-2,7.97-3.32,11.29-1.33,3.33,1.99,9.3-1.99,12.63-.68,3.33,1.35,16.62,6.66,13.96,11.31-2.66,4.66-11.96,11.97-9.97,15.96,1.58,3.15,8.52,5.1,11.36,9.06.31-.02.62,0,.93-.07,5.08-1.12,7.33-20.32,7.33-25.96s2.26-20.34,3.92-26.06c3.21-11.11-12.23-18.92-12.23-30.96s6.11-5.35,12.99-10.31c6.87-4.96-.38-7.07-3.83-7.84-3.43-.75-6.1-6.87-4.96-10.49,1.15-3.64,22.16-2.12,28.84-2.12s21.2-6.1,21.39-7.06c.2-.95,1.72-5.73-3.45-9.74-5.15-4.01-3.24-9.74.77-14.32,4.01-4.59-2.48-9.18-7.45-14.7-4.96-5.55-1.14-25.6,4.58-34.95,5.72-9.35-11.65-7.25-22.35-5.92-10.69,1.34-19.86-2.87-26.74-11.65-6.87-8.79-16.23-3.25-32.66-2.87-16.42.39-13.18-18.15-12.42-25.21.76-7.07-8.4-8.01-8.4-12.6s-4.77-4.58-8.98-4.21c-4.2.38,0-5.15,2.88-8.78,2.86-3.64,2.67-6.5,2.86-14.14.2-7.64,11.27-14.13,16.81-21.6,1.35-1.8,3.44-2.97,5.81-3.69.68-1.79,2.03-3.2,4.64-3.72,8.46-1.7,12.7-7.2,4.65-11.86-8.04-4.66-12.7,8.91-21.6,10.17-8.9,1.27-10.59,6.77-16.52,9.74-5.93,2.96-16.94.43-17.36,5.51-.46,5.55-3.81,0-8.89-1.27-5.09-1.28-18.21,10.16-17.79,16.52.42,6.35,2.54,12.28-6.78,18.21-9.32,5.93-14.82,16.94-19.06,22.02-1.3,1.55-2.69,1.68-4.16.97-.55,2.78-1.36,5.03-2.63,5.98-2.34,1.71-7.98,7.45-12.88,12.5,2.38,2.28,4.61,4.33,6.12,5.96,5.93,6.35,2.11,11.44,3.81,14.83,1.69,3.38,3.39,8.46,0,10.59-3.39,2.11-.43,25.41,3.39,29.65,3.81,4.23,0,8.04-4.24,16.51-4.23,8.47-8.05,12.28-15.67,12.7-7.63.44-7.2,12.29-9.74,12.29-2.02,0-3.49,4.29-3.8,7.97,7.11,5.98,19.88,13.22,23.58,13.22,3.98,0,6.63,5.75,11.93,8.82Z"/>
          <path class="cls-3" d="m765.43,646.94c5.29,3.11,12.8,2.23,14.57,0,1.76-2.21,6.61,2.65,13.68,10.61.31.35.57.64.86.97,5.93-1.31,13.42-2.42,16.44-.53,5.31,3.33,3.98,15.3,11.29,15.96,7.31.66,12.63,7.98,11.97,11.96-.67,4,7.97,5.98,7.31,11.97-.66,5.98,19.29,4.66,21.94,2.66,2.65-2,7.97-3.32,11.29-1.33,3.33,1.99,9.3-1.99,12.63-.68,3.33,1.35,16.62,6.66,13.96,11.31-2.66,4.66-11.96,11.97-9.97,15.96,1.58,3.15,8.52,5.1,11.36,9.06.31-.02.62,0,.93-.07,5.08-1.12,7.33-20.32,7.33-25.96s2.26-20.34,3.92-26.06c3.21-11.11-12.23-18.92-12.23-30.96s6.11-5.35,12.99-10.31c6.87-4.96-.38-7.07-3.83-7.84-3.43-.75-6.1-6.87-4.96-10.49,1.15-3.64,22.16-2.12,28.84-2.12s21.2-6.1,21.39-7.06c.2-.95,1.72-5.73-3.45-9.74-5.15-4.01-3.24-9.74.77-14.32,4.01-4.59-2.48-9.18-7.45-14.7-4.96-5.55-1.14-25.6,4.58-34.95,5.72-9.35-11.65-7.25-22.35-5.92-10.69,1.34-19.86-2.87-26.74-11.65-6.87-8.79-16.23-3.25-32.66-2.87-16.42.39-13.18-18.15-12.42-25.21.76-7.07-8.4-8.01-8.4-12.6s-4.77-4.58-8.98-4.21c-4.2.38,0-5.15,2.88-8.78,2.86-3.64,2.67-6.5,2.86-14.14.2-7.64,11.27-14.13,16.81-21.6,1.35-1.8,3.44-2.97,5.81-3.69.68-1.79,2.03-3.2,4.64-3.72,8.46-1.7,12.7-7.2,4.65-11.86-8.04-4.66-12.7,8.91-21.6,10.17-8.9,1.27-10.59,6.77-16.52,9.74-5.93,2.96-16.94.43-17.36,5.51-.46,5.55-3.81,0-8.89-1.27-5.09-1.28-18.21,10.16-17.79,16.52.42,6.35,2.54,12.28-6.78,18.21-9.32,5.93-14.82,16.94-19.06,22.02-1.3,1.55-2.69,1.68-4.16.97-.55,2.78-1.36,5.03-2.63,5.98-2.34,1.71-7.98,7.45-12.88,12.5,2.38,2.28,4.61,4.33,6.12,5.96,5.93,6.35,2.11,11.44,3.81,14.83,1.69,3.38,3.39,8.46,0,10.59-3.39,2.11-.43,25.41,3.39,29.65,3.81,4.23,0,8.04-4.24,16.51-4.23,8.47-8.05,12.28-15.67,12.7-7.63.44-7.2,12.29-9.74,12.29-2.02,0-3.49,4.29-3.8,7.97,7.11,5.98,19.88,13.22,23.58,13.22,3.98,0,6.63,5.75,11.93,8.82Z"/>
        </g>
        <g>
          <path class="cls-2" d="m1141.45,1000.23c-2.83-8.47-11.29-9.61-11.29-18.63s-3.39-10.17-15.82-9.62c-12.43.57-20.33-2.25-20.89-9.59-.57-7.35-7.91-12.99-2.26-15.82,5.65-2.82-3.96-7.9-2.82-14.68,1.13-6.77-3.39-9.59-7.34-12.98-3.96-3.39-20.9,1.7-20.9-4.53s-10.16-7.34-15.8-7.34-1.69-7.34-7.91-6.76c-6.21.55-5.08-3.97-13.55-2.84-8.47,1.13-13.55-2.82-22.58-13.56-9.03-10.72-7.91-31.61-6.22-37.26,1.7-5.64-10.72-1.12-18.06-1.12s-14.68,5.65-22.6,10.17c-7.9,4.53-12.41,4.51-16.37,8.47-3.96,3.95-10.17,6.21-16.37,3.95-1.73-.64-3.97-1.11-6.39-1.45,3.33,8.3,11.38,21.95,13.17,26.86,2.26,6.21-2.83,7.89-5.08,10.17-2.26,2.24,1.12,22.57,1.69,27.1.56,4.52-7.91,12.99-4.53,15.81,3.39,2.83-4.51,11.3-4.51,16.39s7.34,5.07,7.34,9.02-6.22,13-10.17,15.25c-2.08,1.19-2.11,4.39-1.61,7.84,1.18-.39,2.01,4.75,7.82,9.1,6.78,5.09-1.12,13.55,4.52,20.34,5.65,6.77,11.86,7.35,7.91,10.73-3.96,3.4.56,10.16-3.96,13.55-4.51,3.39,1.69,13.55,6.78,15.82,5.08,2.24,1.69,12.41,6.78,17.49,5.08,5.07,2.82,16.94,4.51,20.9,1.7,3.94,16.94-5.65,25.98-15.25,9.04-9.6,8.47-1.69,16.94-.58,8.47,1.15,18.07,1.15,22.02,9.05,3.96,7.9,8.47-7.9,11.29-11.29,2.83-3.39,22.02,1.13,25.41,0,3.39-1.13,6.22-25.41,5.65-29.37-.57-3.96,7.9-13.54,14.68-18.06,6.78-4.53,17.51-1.13,23.16-3.96,5.64-2.83,14.11-2.26,22.03-2.26s13.55,7.91,18.07,7.91,10.16-7.34,9.03-14.12c-1.13-6.78,5.08-16.37,2.26-24.84Z"/>
          <path class="cls-3" d="m1141.45,1000.23c-2.83-8.47-11.29-9.61-11.29-18.63s-3.39-10.17-15.82-9.62c-12.43.57-20.33-2.25-20.89-9.59-.57-7.35-7.91-12.99-2.26-15.82,5.65-2.82-3.96-7.9-2.82-14.68,1.13-6.77-3.39-9.59-7.34-12.98-3.96-3.39-20.9,1.7-20.9-4.53s-10.16-7.34-15.8-7.34-1.69-7.34-7.91-6.76c-6.21.55-5.08-3.97-13.55-2.84-8.47,1.13-13.55-2.82-22.58-13.56-9.03-10.72-7.91-31.61-6.22-37.26,1.7-5.64-10.72-1.12-18.06-1.12s-14.68,5.65-22.6,10.17c-7.9,4.53-12.41,4.51-16.37,8.47-3.96,3.95-10.17,6.21-16.37,3.95-1.73-.64-3.97-1.11-6.39-1.45,3.33,8.3,11.38,21.95,13.17,26.86,2.26,6.21-2.83,7.89-5.08,10.17-2.26,2.24,1.12,22.57,1.69,27.1.56,4.52-7.91,12.99-4.53,15.81,3.39,2.83-4.51,11.3-4.51,16.39s7.34,5.07,7.34,9.02-6.22,13-10.17,15.25c-2.08,1.19-2.11,4.39-1.61,7.84,1.18-.39,2.01,4.75,7.82,9.1,6.78,5.09-1.12,13.55,4.52,20.34,5.65,6.77,11.86,7.35,7.91,10.73-3.96,3.4.56,10.16-3.96,13.55-4.51,3.39,1.69,13.55,6.78,15.82,5.08,2.24,1.69,12.41,6.78,17.49,5.08,5.07,2.82,16.94,4.51,20.9,1.7,3.94,16.94-5.65,25.98-15.25,9.04-9.6,8.47-1.69,16.94-.58,8.47,1.15,18.07,1.15,22.02,9.05,3.96,7.9,8.47-7.9,11.29-11.29,2.83-3.39,22.02,1.13,25.41,0,3.39-1.13,6.22-25.41,5.65-29.37-.57-3.96,7.9-13.54,14.68-18.06,6.78-4.53,17.51-1.13,23.16-3.96,5.64-2.83,14.11-2.26,22.03-2.26s13.55,7.91,18.07,7.91,10.16-7.34,9.03-14.12c-1.13-6.78,5.08-16.37,2.26-24.84Z"/>
        </g>
        <g>
          <path class="cls-2" d="m909.91,995.71c.24-.39.45-.56.65-.63-.5-3.45-.46-6.65,1.61-7.84,3.95-2.25,10.17-11.29,10.17-15.25s-7.34-3.94-7.34-9.02,7.9-13.56,4.51-16.39c-3.39-2.82,5.09-11.29,4.53-15.81-.57-4.53-3.96-24.85-1.69-27.1,2.25-2.27,7.34-3.96,5.08-10.17-1.79-4.92-9.83-18.56-13.17-26.86-6.29-.89-13.98-.74-18.46.88-6.21,2.26-4.51-17.51-4.51-24.84s-6.21-3.4-8.47,1.69c-2.26,5.09-11.29,2.82-20.32,2.82s-4.52-11.29-10.17-10.73c-5.65.57-10.17-1.69-9.59-7.34.56-5.65-3.97-10.16-7.92-16.38-3.95-6.21-8.47-12.41-5.08-16.36,3.39-3.96-2.25-7.35,2.83-12.43,5.08-5.08,10.17-3.39,8.47-10.17-1.69-6.77,5.64-10.72,6.21-18.07.57-7.34,9.04-5.07,16.94-11.28,7.9-6.23,16.37-2.84,23.14-8.47,6.37-5.31,10.74-.73,15.46-1.08-2.84-3.96-9.78-5.92-11.36-9.06-1.99-4,7.31-11.31,9.97-15.96,2.66-4.65-10.63-9.96-13.96-11.31-3.33-1.32-9.3,2.66-12.63.68-3.33-1.99-8.64-.68-11.29,1.33-2.65,1.99-22.6,3.32-21.94-2.66.66-5.98-7.98-7.97-7.31-11.97.66-3.98-4.66-11.3-11.97-11.96-7.31-.66-5.98-12.63-11.29-15.96-3.02-1.89-10.51-.78-16.44.53,6.38,7.19,8.65,10.2,4.43,13.59-5.61,4.49,0,5.3-10.59,19.42-10.6,14.15-28.7,17.66-37.53,20.32-8.83,2.64-12.37,18.97-17.22,30.46-4.85,11.48-8.83,7.5-13.68.88-4.85-6.62-8.83,1.31-14.57-3.97-5.74-5.3-3.09-5.3,0-9.72,1.67-2.37-.18-6.16-3.7-9.82-6.3,1.3-12.68,10.02-15.81,16.68-3.39,7.2,5.93,21.18,7.2,26.26,1.27,5.07-5.08.42-5.93,5.07-.85,4.66,13.98,11.44,20.75,16.52,6.78,5.08,12.7,19.49,19.06,26.26,6.35,6.77,6.78,12.7,13.55,29.22,6.78,16.51,20.33,44.47,29.65,56.33,9.32,11.86,13.55,21.18,11.44,24.57-2.12,3.39.42,12.71,7.2,17.37,6.78,4.65,12.28,12.28,30.07,21.18,17.79,8.89,50.4,25.83,55.06,33.88,4.66,8.04,19.91,15.67,22.87,17.37.81.46,1.06,1.8,1.08,3.57,1.75-1.45,3.22-2.55,4.15-3.02,5.64-2.82,6.21-12.41,7.9-15.25Z"/>
          <path class="cls-3" d="m909.91,995.71c.24-.39.45-.56.65-.63-.5-3.45-.46-6.65,1.61-7.84,3.95-2.25,10.17-11.29,10.17-15.25s-7.34-3.94-7.34-9.02,7.9-13.56,4.51-16.39c-3.39-2.82,5.09-11.29,4.53-15.81-.57-4.53-3.96-24.85-1.69-27.1,2.25-2.27,7.34-3.96,5.08-10.17-1.79-4.92-9.83-18.56-13.17-26.86-6.29-.89-13.98-.74-18.46.88-6.21,2.26-4.51-17.51-4.51-24.84s-6.21-3.4-8.47,1.69c-2.26,5.09-11.29,2.82-20.32,2.82s-4.52-11.29-10.17-10.73c-5.65.57-10.17-1.69-9.59-7.34.56-5.65-3.97-10.16-7.92-16.38-3.95-6.21-8.47-12.41-5.08-16.36,3.39-3.96-2.25-7.35,2.83-12.43,5.08-5.08,10.17-3.39,8.47-10.17-1.69-6.77,5.64-10.72,6.21-18.07.57-7.34,9.04-5.07,16.94-11.28,7.9-6.23,16.37-2.84,23.14-8.47,6.37-5.31,10.74-.73,15.46-1.08-2.84-3.96-9.78-5.92-11.36-9.06-1.99-4,7.31-11.31,9.97-15.96,2.66-4.65-10.63-9.96-13.96-11.31-3.33-1.32-9.3,2.66-12.63.68-3.33-1.99-8.64-.68-11.29,1.33-2.65,1.99-22.6,3.32-21.94-2.66.66-5.98-7.98-7.97-7.31-11.97.66-3.98-4.66-11.3-11.97-11.96-7.31-.66-5.98-12.63-11.29-15.96-3.02-1.89-10.51-.78-16.44.53,6.38,7.19,8.65,10.2,4.43,13.59-5.61,4.49,0,5.3-10.59,19.42-10.6,14.15-28.7,17.66-37.53,20.32-8.83,2.64-12.37,18.97-17.22,30.46-4.85,11.48-8.83,7.5-13.68.88-4.85-6.62-8.83,1.31-14.57-3.97-5.74-5.3-3.09-5.3,0-9.72,1.67-2.37-.18-6.16-3.7-9.82-6.3,1.3-12.68,10.02-15.81,16.68-3.39,7.2,5.93,21.18,7.2,26.26,1.27,5.07-5.08.42-5.93,5.07-.85,4.66,13.98,11.44,20.75,16.52,6.78,5.08,12.7,19.49,19.06,26.26,6.35,6.77,6.78,12.7,13.55,29.22,6.78,16.51,20.33,44.47,29.65,56.33,9.32,11.86,13.55,21.18,11.44,24.57-2.12,3.39.42,12.71,7.2,17.37,6.78,4.65,12.28,12.28,30.07,21.18,17.79,8.89,50.4,25.83,55.06,33.88,4.66,8.04,19.91,15.67,22.87,17.37.81.46,1.06,1.8,1.08,3.57,1.75-1.45,3.22-2.55,4.15-3.02,5.64-2.82,6.21-12.41,7.9-15.25Z"/>
        </g>
        <g>
          <path class="cls-2" d="m862.62,433.33c-5.54,7.47-16.6,13.95-16.81,21.6-.19,7.63,0,10.5-2.86,14.14-2.88,3.63-7.07,9.16-2.88,8.78,4.21-.37,8.98-.37,8.98,4.21s9.16,5.53,8.4,12.6c-.76,7.07-4.01,25.6,12.42,25.21,16.42-.38,25.78-5.92,32.66,2.87,6.88,8.78,16.04,12.99,26.74,11.65,10.7-1.34,28.07-3.43,22.35,5.92-5.72,9.35-9.54,29.41-4.58,34.95,4.97,5.53,11.46,10.11,7.45,14.7-4.01,4.58-5.92,10.31-.77,14.32,5.17,4.01,3.64,8.79,3.45,9.74-.04.25-1.08.84-2.69,1.59,7.61,7.55,10.3,15.83,14.59,19.27,5.74,4.58,7.46,6.87,11.47,4.58,4.01-2.28,6.88-4,10.31-1.72,3.44,2.29,8.03-2.28,13.19-6.88,5.16-4.58,10.89-.57,12.62-6.3,1.72-5.75,4.58-9.17,10.89-10.32,6.3-1.14,6.3-8.03,2.29-8.03s-9.74,5.16-9.74-2.29-5.16-5.73-5.16-12.04-.58-10.33-7.45-14.33c-6.88-4.02,9.18-5.73,12.62-2.29,3.44,3.44,15.48.58,16.62,5.73,1.15,5.16,7.45,6.88,7.45.57s7.46-8.59,13.19-7.44c5.74,1.14,18.35-7.46,23.52-9.18,2.69-.9,3.68-4.13,5.15-6.86-3.78-5.14-9.8-13.12-12.52-15.4-4.11-3.42,2.75-5.47,2.06-10.28-.69-4.81,0-8.23,8.92-8.92,8.92-.7,7.55-7.56,2.74-10.31-4.8-2.74,2.06-10.3,6.86-13.03,1.97-1.12,4.61-4.5,7.02-9.16-9.12-3.44-22.21-3.14-27.7-2.81-7.2.43,4.66-8.04,5.08-15.67.42-7.63-20.33-8.9-28.38-10.59-8.05-1.7-5.93-10.17,2.54-10.58,8.47-.44-4.66-6.36-16.09-4.67-11.43,1.69-27.53,8.05-36.85,13.13-9.32,5.08-25.41-14.82-36-10.59-10.59,4.23-25.41,4.23-24.99-4.24.42-8.47-4.24-15.67-14.82-14.82-10.59.83-8.05-10.59-16.09-10.59s0,9.74-5.51,12.28c-5.51,2.54-24.57,7.2-25.84,14.82-1.27,7.63,10.17,20.33,6.35,27.95-3.81,7.63-16.52,1.27-20.32-6.77-3.82-8.05,11.01-20.33,8.47-24.98-1.76-3.24-4.03-9.25-2.52-13.23-2.37.72-4.45,1.89-5.81,3.69Z"/>
          <path class="cls-3" d="m862.62,433.33c-5.54,7.47-16.6,13.95-16.81,21.6-.19,7.63,0,10.5-2.86,14.14-2.88,3.63-7.07,9.16-2.88,8.78,4.21-.37,8.98-.37,8.98,4.21s9.16,5.53,8.4,12.6c-.76,7.07-4.01,25.6,12.42,25.21,16.42-.38,25.78-5.92,32.66,2.87,6.88,8.78,16.04,12.99,26.74,11.65,10.7-1.34,28.07-3.43,22.35,5.92-5.72,9.35-9.54,29.41-4.58,34.95,4.97,5.53,11.46,10.11,7.45,14.7-4.01,4.58-5.92,10.31-.77,14.32,5.17,4.01,3.64,8.79,3.45,9.74-.04.25-1.08.84-2.69,1.59,7.61,7.55,10.3,15.83,14.59,19.27,5.74,4.58,7.46,6.87,11.47,4.58,4.01-2.28,6.88-4,10.31-1.72,3.44,2.29,8.03-2.28,13.19-6.88,5.16-4.58,10.89-.57,12.62-6.3,1.72-5.75,4.58-9.17,10.89-10.32,6.3-1.14,6.3-8.03,2.29-8.03s-9.74,5.16-9.74-2.29-5.16-5.73-5.16-12.04-.58-10.33-7.45-14.33c-6.88-4.02,9.18-5.73,12.62-2.29,3.44,3.44,15.48.58,16.62,5.73,1.15,5.16,7.45,6.88,7.45.57s7.46-8.59,13.19-7.44c5.74,1.14,18.35-7.46,23.52-9.18,2.69-.9,3.68-4.13,5.15-6.86-3.78-5.14-9.8-13.12-12.52-15.4-4.11-3.42,2.75-5.47,2.06-10.28-.69-4.81,0-8.23,8.92-8.92,8.92-.7,7.55-7.56,2.74-10.31-4.8-2.74,2.06-10.3,6.86-13.03,1.97-1.12,4.61-4.5,7.02-9.16-9.12-3.44-22.21-3.14-27.7-2.81-7.2.43,4.66-8.04,5.08-15.67.42-7.63-20.33-8.9-28.38-10.59-8.05-1.7-5.93-10.17,2.54-10.58,8.47-.44-4.66-6.36-16.09-4.67-11.43,1.69-27.53,8.05-36.85,13.13-9.32,5.08-25.41-14.82-36-10.59-10.59,4.23-25.41,4.23-24.99-4.24.42-8.47-4.24-15.67-14.82-14.82-10.59.83-8.05-10.59-16.09-10.59s0,9.74-5.51,12.28c-5.51,2.54-24.57,7.2-25.84,14.82-1.27,7.63,10.17,20.33,6.35,27.95-3.81,7.63-16.52,1.27-20.32-6.77-3.82-8.05,11.01-20.33,8.47-24.98-1.76-3.24-4.03-9.25-2.52-13.23-2.37.72-4.45,1.89-5.81,3.69Z"/>
        </g>
        <g>
          <path class="cls-2" d="m793.68,657.56c-7.07-7.96-11.92-12.82-13.68-10.61-1.77,2.23-9.28,3.11-14.57,0-5.3-3.07-7.94-8.82-11.93-8.82-3.69,0-16.46-7.24-23.58-13.22-.07.94-.1,1.84-.01,2.62.43,3.81-5.93,6.35-13.13,6.78-7.2.43-6.36,8.47-6.36,13.97s-5.93,5.51-8.47,11.44c-2.54,5.93.85,7.2-5.08,10.17-5.93,2.96-7.62,8.05-4.24,13.14,3.39,5.07-.43,9.73-1.27,12.69-.84,2.98,5.08,4.25,11.01,9.75,5.93,5.5,6.78-2.12,9.32,2.11,2.54,4.24-1.69,11.86-8.47,11.86-.52,0-1.04.15-1.56.26,3.52,3.66,5.37,7.45,3.7,9.82-3.09,4.42-5.74,4.42,0,9.72,5.74,5.28,9.72-2.65,14.57,3.97,4.86,6.62,8.83,10.59,13.68-.88,4.86-11.49,8.4-27.82,17.22-30.46,8.84-2.66,26.93-6.18,37.53-20.32,10.59-14.12,4.99-14.93,10.59-19.42,4.42-3.53,1.77-6.62-5.3-14.56Z"/>
          <path class="cls-3" d="m793.68,657.56c-7.07-7.96-11.92-12.82-13.68-10.61-1.77,2.23-9.28,3.11-14.57,0-5.3-3.07-7.94-8.82-11.93-8.82-3.69,0-16.46-7.24-23.58-13.22-.07.94-.1,1.84-.01,2.62.43,3.81-5.93,6.35-13.13,6.78-7.2.43-6.36,8.47-6.36,13.97s-5.93,5.51-8.47,11.44c-2.54,5.93.85,7.2-5.08,10.17-5.93,2.96-7.62,8.05-4.24,13.14,3.39,5.07-.43,9.73-1.27,12.69-.84,2.98,5.08,4.25,11.01,9.75,5.93,5.5,6.78-2.12,9.32,2.11,2.54,4.24-1.69,11.86-8.47,11.86-.52,0-1.04.15-1.56.26,3.52,3.66,5.37,7.45,3.7,9.82-3.09,4.42-5.74,4.42,0,9.72,5.74,5.28,9.72-2.65,14.57,3.97,4.86,6.62,8.83,10.59,13.68-.88,4.86-11.49,8.4-27.82,17.22-30.46,8.84-2.66,26.93-6.18,37.53-20.32,10.59-14.12,4.99-14.93,10.59-19.42,4.42-3.53,1.77-6.62-5.3-14.56Z"/>
        </g>
      </g>
      <path class="cls-1" d="m757.4,243.57l-6.89-3.28v-.63c0-.09.02-2.25,1.56-4.55.82-1.23,1.61-1.88,2.41-1.99.1-.02.2-.02.29-.02l6.48-4.63-1.49-4.15-1.11-.38-15.24.15-7.8-1.95-1.59-5.5-.29-4.09-13.55-2.13-5.6-4.77c-2.35-2.43-3.21-3.42-3.54-3.87-1.02-.42-5.89-1.71-10.36-2.8l-5.94,1.88c-.44,0-10.92,0-14.28-.76-3.31-.74-3.89-3.37-3.73-4.66-.08-1.68-.47-3.67-.83-4.01-.4-.13-2.66.15-4.78.65l-5.81,2.76c-.97.36-5.45,2.01-6.54,2.16-1.03.15-4.16.04-4.91.01l-4.73,1.04-1.2,2.9c-.84.96-2.93,3.22-4.13,3.56-.32.09-.79.21-1.36.36-1.25.32-2.97.76-4.51,1.26-2.48.81-6.1.06-6.25.03l-.2-.06-3.73-1.67c-.53-.3-.87-.77-1-1.37-.35-1.6,1.09-3.69,1.38-4.09l.25-.34.42-.06c.06,0,6.06-.89,7.4-1.17.96-.21,2.53-1.11,3.03-1.55.03-1.02.17-3.87.17-3.87l.02-.38,4.43-4.56,6-5.58,11.26-1.37,13.6-3.13,13.91,1.39,6.33,2.04c1.03.11,9.63,1.04,12.56,1.32,3.36.32,9.71,3.04,12.05,4.42,1.45.86,5.37,2.48,8.23,3.66,1.44.6,2.63,1.09,3.15,1.33,1.03.49,5.9,1.2,8.72,1.54.27-.04,4.33-.3,5.97,0,1.68.32,7.27,4.13,8.37,4.9l10.64,8.32,8.55,4.84,12.04,1.37,8.76,3.49.04.64s.18,3.15.18,4.05c0,.5.14,1.69.24,2.55l10.39,1.94,10.46,3.81.68,5.39-.55.34s-2.66,1.66-5.09,2.99c-2.23,1.22-3.5,2.26-5.35,3.99-1.59,1.49-4.12,1.11-7.06.68-1.09-.16-2.24-.33-3.43-.41-4.38-.31-9.61-.92-13.98-1.64-4.17-.68-8.35-1.32-10.6-1.32-1.64,0-4.72,1.51-5.76,2.09l-6.76,2.89Z"/>
      <path class="cls-1" d="m745.04,270.91c2.07.71,4.33,1.56,4.87,2.02.24.2.76.76,1.38,1.43.87.94,2.69,2.9,3.22,3.15.77.33,5.09.66,6.72.66,1.27,0,4.59-.43,6.14-1.22,1.84-.94,7.83-1.65,8.5-1.73l.17-.02,8.59,1.9,2.87-.9c.78-.61,4.46-3.54,5.51-4.55.28-.28.03-1.85-.65-3.47l-5.6-.13-9.17,3.25-7.32.15-9.24-3.57-6.79-.43c-1.03,0-3.08.2-3.91.73-1.45.92-4.2,2.1-4.32,2.15l-.97.59Z"/>
      <g>
        <path class="cls-1" d="m909.99,260.7c-1.61-.69-5.51-1.86-8.69-2.61-.98-.23-1.93-.24-2.69-.24-1.12,0-2.08-.01-2.54-.85-.42-.76-.01-1.61.44-2.34,1.05-1.69,1.97-2.89,2.64-3.76.34-.44.63-.82.86-1.16.14-.38-.21-2.05-.76-3.67-1.47-.12-5.14-.42-7.82-.53-3.49-.15-9.59-1.15-9.84-1.2l-14.31-3.42c-.13-.04-1.37-.54-3.24-.65.78,11.55-2.29,23.49-9.2,33.4l1.08,3.37c1.36,1.69,3.04,3.64,3.48,3.94.53.35,3.76.71,6.68-.54,3-1.28,7.42-4.31,7.46-4.34l4.55-3.73h8.87c1.03,0,4.6-1.66,6.82-2.84.22-.12,2.26-1.16,7.1-1.01,3.55.11,6.99,1.66,8.84,2.49.46.21.99.44,1.14.48.25-.08,1.54-.93,1.79-1.26.13-.38.47-1.25.97-2.66.26-1.08-2.29-6.31-3.61-6.88Z"/>
        <path class="cls-1" d="m864.02,240.28c-.69-.04-1.46-.03-2.3.08-3.32.42-13.39,4.2-13.49,4.23l-.26.1-5.18-1.01-4.91-2.16-7.93-1.13-6.03,2.36c-.69.59-2.22,2.19-2.12,3.48.05.65.15,1.24.24,1.76.23,1.36.44,2.64-.59,3.53-.88.75-4.08,1.64-5.55,2.03-.19.39-.46,1.1-.23,1.76.18.52.22.94.25,1.28.05.59.08.92,1.88,1.86,2.61,1.36,6.19,1.85,6.96,1.94l4.08-.83c.83-.36,6.17-2.56,9.39-1.79l1.4.33q1.11.26,3.01.84l1.55.48c1.64.5,2.67.29,3.51.12.69-.14,1.4-.28,2.04.18.65.46.89,1.31,1.05,2.44.56,3.99-.57,5.14-.93,5.4l-.4.17-3.99.74s-2.5.76-5.74.76h-7.64l-3.52-.15-5.08-.45c-.28-.06-.91-.26-3.6-1.41-2.32-.99-4.15-1.45-4.58-1.55h-4.19c-.45.43-.82.92-1,1.17l-.33,1.77,7.94,3.05c4.11.36,11.95,1.02,13.14,1.02.53,0,1.28-.1,2.24-.23,1.6-.22,3.79-.51,6.44-.51,4.19,0,14.12,1.28,14.54,1.34l.63.08.1.31c6.92-9.91,9.98-21.85,9.2-33.4Z"/>
      </g>
      <path class="cls-1" d="m951.97,278.09l-7.36-.51-3.43-2.18-4.84-5.34,1.21-.59c.37-.18,3.66-1.75,5.16-1.96,1.43-.2,6.51-.3,6.72-.31h.19s4.06,1.48,4.06,1.48h6.42c.77,0,3.23.79,4.26,1.14l.52.17,1.14,4.61-6.41,2.79-7.64.69Z"/>
    </g>
  </g>
</svg>