<?xml version="1.0" encoding="UTF-8"?>
<svg id="Capa_2" data-name="Capa 2" xmlns="http://www.w3.org/2000/svg" xmlns:xlink="http://www.w3.org/1999/xlink" viewBox="0 0 403 476">
  <defs>
    <style>
      .cls-1 {
        font-family: Transducer-Bold, Transducer;
        font-size: 34px;
        font-weight: 700;
      }

      .cls-2 {
        font-family: Transducer-Regular, Transducer;
        font-size: 24px;
      }

      .cls-3 {
        fill: #eef0f6;
        filter: url(#drop-shadow-1);
        stroke-width: 0px;
      }

      .cls-4 {
        fill: #606060;
      }

      .cls-5 {
        letter-spacing: 0em;
      }

      .cls-6 {
        fill: url(#Degradado_sin_nombre_107);
        fill-rule: evenodd;
      }
    </style>
    <filter id="drop-shadow-1" filterUnits="userSpaceOnUse">
      <feOffset dx="0" dy="0"/>
      <feGaussianBlur result="blur" stdDeviation="5"/>
      <feFlood flood-color="#000" flood-opacity=".2"/>
      <feComposite in2="blur" operator="in"/>
      <feComposite in="SourceGraphic"/>
    </filter>
    <linearGradient id="Degradado_sin_nombre_107" data-name="Degradado sin nombre 107" x1="255.98" y1="256.78" x2="320.26" y2="368.11" gradientUnits="userSpaceOnUse">
      <stop offset="0" stop-color="#e38520"/>
      <stop offset=".11" stop-color="#e27825"/>
      <stop offset="1" stop-color="#dc1a4d"/>
    </linearGradient>
  </defs>
  <g id="Capa_1-2" data-name="Capa 1">
    <g>
      <path class="cls-3" d="m15.25,132.51C148.72,44.89,255.19,14.32,387.3,15.85v407.08c-48.04,2.3-93.17,15.7-132.89,37.68C204.03,391.79,36.84,162.66,15.25,132.51Z"/>
      <path class="cls-6" d="m342.8,295.97c-.26-.89-1.11-1.37-1.97-1.11-.86.27-1.33,1.2-1.07,2.04,0,.04.04.09.04.13,3.25,9.89,2.74,20.71-1.45,30.2-.38.84-.04,1.82.77,2.17.81.4,1.71.04,2.1-.8h0c4.53-10.29,5.09-21.95,1.58-32.64h0Zm-36.99,22l-1.67,1.73c-.34.35-.34.93,0,1.29.17.18.38.27.6.27s.43-.09.6-.27l1.67-1.73c.34-.35.34-.93,0-1.29s-.9-.35-1.2,0h0Zm22.54-23.37l-1.67,1.73c-.34.35-.34.93,0,1.29.17.18.38.27.6.27s.47-.09.64-.27l1.63-1.73c.34-.35.34-.93,0-1.29-.34-.35-.9-.35-1.2,0h0Zm-22.54,3.02c.17.18.38.27.6.27s.43-.09.6-.27c.34-.35.34-.93,0-1.29l-1.67-1.73c-.3-.35-.86-.35-1.2,0-.34.35-.34.93,0,1.29l1.67,1.73h0Zm22.11,20.35c-.34-.35-.9-.35-1.24,0s-.34.93,0,1.29l1.67,1.73c.13.18.38.27.6.27s.43-.09.6-.27c.34-.35.34-.93,0-1.29l-1.63-1.73h0Zm-25.83-11.09h-2.35c-.47,0-.86.4-.86.89,0,.53.38.93.86.93h2.35c.47,0,.86-.4.86-.93,0-.49-.38-.89-.86-.89h0Zm31.86,0h-2.35c-.47,0-.86.4-.86.89,0,.53.38.93.86.93h2.35c.47,0,.86-.4.86-.93,0-.49-.38-.89-.86-.89h0Zm-17.11-13.53c.47,0,.86-.4.86-.89v-2.44c0-.49-.38-.89-.86-.89s-.86.4-.86.89v2.44c0,.49.38.89.86.89h0Zm3.98,7.1c-.38-.27-.94-.09-1.15.35-.26.4-.09.98.34,1.2,2.01,1.2,3.25,3.37,3.25,5.76,0,.53.38.93.86.93.51,0,.9-.4.9-.93,0-3.02-1.63-5.85-4.19-7.32h0Zm-3.81-1.06h0c-.47,0-.86.4-.9.89,0,.49.38.89.86.89h.04c.47,0,.86-.35.86-.84,0-.53-.38-.93-.86-.93h0Zm8.6-.58c-2.31-2.39-5.35-3.77-8.6-3.81-3.29-.04-6.42,1.29-8.81,3.68-2.35,2.44-3.68,5.63-3.68,9.09,0,3.68,1.54,7.23,4.23,9.67,1.92,1.73,3.04,4.26,3.04,6.87v6.43c0,2.48,1.97,4.48,4.32,4.48h1.45c2.35,0,4.32-2,4.32-4.48v-6.34c0-2.71,1.07-5.23,2.99-6.92,2.74-2.44,4.28-5.99,4.28-9.67,0-3.41-1.24-6.61-3.55-9h0Zm-8.77,15.43h-.6c-.3,0-.56-.27-.56-.58s.26-.58.56-.58c.34,0,.6.27.6.58v.58h0Zm0,5.37c.47,0,.86.4.86.89v3.06h-1.71v-3.06c0-.49.38-.89.86-.89h0Zm3.29,5.76v1.33h-6.59v-1.33h6.59Zm-6.59,3.1h6.59v1.33h-6.59v-1.33h0Zm4.02,4.92h-1.45c-1.11,0-2.1-.75-2.44-1.77h6.33c-.34,1.02-1.33,1.77-2.44,1.77h0Zm6.2-17.29c-2.14,1.86-3.38,4.57-3.59,7.45h-.73v-3.06c0-.8-.34-1.51-.9-2h0v-2.97c.73-.53,1.2-1.37,1.2-2.35v-1.42c0-1.91-1.5-3.46-3.38-3.46h-1.54c-.51,0-.9.4-.9.89,0,.53.43.93.9.93h1.54c.9,0,1.63.75,1.63,1.64v.35c-.43-.49-1.03-.84-1.75-.84-1.24,0-2.27,1.11-2.27,2.39s1.03,2.39,2.27,2.39h.6v1.77c-1.45,0-2.61,1.2-2.61,2.66v3.06h-.68c-.21-2.84-1.5-5.54-3.68-7.49-2.31-2.08-3.64-5.1-3.59-8.29,0-2.93,1.11-5.72,3.16-7.8,2.01-2.04,4.7-3.19,7.53-3.15,5.77.09,10.48,5.01,10.48,11,0,3.19-1.37,6.21-3.68,8.29h0Zm-51.19-48.2c0,.93-.73,1.64-1.58,1.64-.9,0-1.58-.71-1.58-1.64s.68-1.64,1.58-1.64,1.58.75,1.58,1.64h0Zm31.61,77.07c0,.93-.68,1.64-1.58,1.64s-1.58-.71-1.58-1.64.73-1.64,1.58-1.64c.9,0,1.58.75,1.58,1.64h0Zm14.24-68.87c0,.89-.73,1.64-1.58,1.64s-1.58-.75-1.58-1.64.73-1.64,1.58-1.64,1.58.75,1.58,1.64h0Zm-61.67,21.33c0,.89-.73,1.64-1.58,1.64-.9,0-1.58-.75-1.58-1.64,0-.93.68-1.64,1.58-1.64s1.58.71,1.58,1.64h0Zm4.75,44.26c0,.93-.73,1.64-1.58,1.64-.9,0-1.58-.71-1.58-1.64s.68-1.64,1.58-1.64,1.58.75,1.58,1.64h0Zm26.9-68.87c0,.93-.73,1.64-1.63,1.64s-1.58-.71-1.58-1.64.73-1.64,1.58-1.64c.9,0,1.63.75,1.63,1.64h0Zm3.12,80.35c0,.89-.68,1.64-1.58,1.64s-1.58-.75-1.58-1.64.73-1.64,1.58-1.64c.9,0,1.58.75,1.58,1.64h0Zm-37.94-67.23c4.36,0,7.91-3.68,7.91-8.2s-3.55-8.2-7.91-8.2-7.91,3.68-7.91,8.2,3.55,8.2,7.91,8.2h0Zm0-13.13c2.61,0,4.75,2.22,4.75,4.92s-2.14,4.92-4.75,4.92-4.75-2.22-4.75-4.92,2.14-4.92,4.75-4.92h0Zm-6.33,39.38c0-7.36,1.11-14.68,3.34-21.68.3-.89-.13-1.82-.98-2.08-.81-.31-1.71.13-2.01.98v.09c-7.83,24.74-2.35,51.93,14.41,71.35.6.67,1.58.71,2.22.13.68-.62.73-1.64.17-2.31,0,0,0-.04-.04-.04-11.03-12.77-17.11-29.31-17.11-46.43h0Zm13.86-43.33c.47,0,.94-.22,1.24-.62l.3-.4c.56-.71,1.15-1.46,1.75-2.13.56-.67.51-1.73-.17-2.31-.64-.62-1.63-.53-2.22.13-.6.71-1.2,1.51-1.84,2.26l-.3.4c-.51.71-.43,1.73.26,2.31.26.22.64.35.98.35h0Zm6.2,64.92c-.34-.84-1.28-1.24-2.1-.89-.81.35-1.15,1.33-.81,2.17h0c4.28,10.55,11.42,19.6,20.57,26.03.68.49,1.67.31,2.18-.44.51-.71.34-1.73-.38-2.26l-.04-.04c-8.64-6.03-15.4-14.59-19.42-24.57h0Zm-5.65-26.52h.17c.81,0,1.5-.62,1.58-1.46,1.8-16.19,10.31-30.73,23.31-39.82.73-.49.94-1.51.47-2.26-.51-.75-1.5-.98-2.22-.49l-.04.04c-13.77,9.62-22.75,25.06-24.63,42.17-.13.89.51,1.73,1.37,1.82h0Zm15.65-13.13c-3.51,0-6.33,2.93-6.33,6.56s2.82,6.56,6.33,6.56,6.29-2.97,6.29-6.56-2.82-6.56-6.29-6.56h0Zm0,9.84c-1.75,0-3.16-1.46-3.16-3.28s1.41-3.28,3.16-3.28,3.16,1.46,3.16,3.28c-.04,1.82-1.41,3.28-3.16,3.28h0Zm59.28,43.68c-18.9,11.31-43.07,4.61-53.97-14.99-3.46-6.21-5.3-13.3-5.3-20.49v-.13c0-.89-.68-1.64-1.58-1.64s-1.54.71-1.58,1.6v.18c-.04,24.43,19.07,44.26,42.68,44.26,7.48,0,14.84-2.04,21.34-5.94.77-.49.98-1.46.51-2.26-.43-.71-1.33-.98-2.1-.58h0Zm-56.28-58.36c-.47.75-.3,1.77.47,2.26.73.49,1.71.27,2.18-.49,0-.04.04-.04.04-.09,5.22-8.96,13.51-15.52,23.27-18.31.81-.27,1.33-1.15,1.07-2.04-.21-.84-1.07-1.37-1.92-1.11h0c-10.52,3.02-19.5,10.07-25.11,19.78h0Zm31.91-17.83c8.47-1.06,17.02.75,24.38,5.19.77.44,1.75.13,2.14-.67.43-.75.17-1.69-.56-2.17-7.95-4.79-17.19-6.74-26.3-5.63-.86.13-1.5.93-1.41,1.82.13.93.9,1.55,1.75,1.46h0Zm24.04,59.95c-10.22,11.13-27.2,11.53-37.94.93-3.08-3.06-5.43-6.83-6.84-11.04-.3-.84-1.2-1.29-2.01-.98-.81.31-1.24,1.2-.98,2.04,5.43,16.23,22.5,24.83,38.15,19.25,4.53-1.64,8.6-4.35,11.93-7.94.6-.67.56-1.69-.09-2.31-.6-.67-1.63-.62-2.22.04h0Zm-19.42-50.42c-12.79,0-24.16,8.43-28.36,20.93-.3.84.13,1.77.94,2.08.81.35,1.71-.09,2.05-.93v-.09c4.83-14.5,20.1-22.22,34.13-17.21,4.02,1.46,7.7,3.9,10.65,7.14.6.62,1.58.67,2.22.04.64-.62.68-1.69.04-2.31-5.65-6.21-13.47-9.67-21.68-9.67h0Zm-50.6,47.89c4.53-2.71,6.12-8.74,3.46-13.44-2.61-4.7-8.38-6.34-12.96-3.64-4.53,2.71-6.07,8.74-3.46,13.44,1.67,3.06,4.83,4.92,8.21,4.92,1.67,0,3.29-.44,4.75-1.29h0Zm-4.75-15.08c3.46-.04,6.29,2.88,6.33,6.47,0,2-.86,3.86-2.35,5.1l-.04-1.24c-.17-2.71-2.22-4.88-4.83-5.06-.86-.04-1.58-.67-1.84-1.51l-.43-1.6c-.09-.35-.26-.71-.43-1.02.17-.09.26-.22.43-.31.94-.58,2.05-.84,3.16-.84h0Zm-5.47,9.8c-.94-1.69-1.11-3.77-.43-5.59l.17.49c.6,2.17,2.44,3.73,4.62,3.86,1.03.09,1.8.93,1.88,1.95l.09,1.37c0,.4.09.75.17,1.11-2.57.44-5.18-.8-6.5-3.19h0Zm32.38-6.52c2.61,0,4.7-2.22,4.7-4.92s-2.1-4.92-4.7-4.92-4.79,2.17-4.79,4.92,2.14,4.92,4.79,4.92h0Zm0-6.56c.86,0,1.58.71,1.58,1.64s-.73,1.64-1.58,1.64c-.9,0-1.63-.75-1.63-1.64,0-.93.73-1.64,1.63-1.64h0Zm-.26,66.74c-34.51,0-62.57-29.09-62.57-64.83s28.06-64.88,62.57-64.88,62.53,29.09,62.53,64.88-28.06,64.83-62.53,64.83h0Zm0-126.03c-32.59,0-59.06,27.45-59.06,61.2s26.47,61.2,59.06,61.2,59.02-27.45,59.02-61.2-26.47-61.2-59.02-61.2h0Zm-13.04,112.59h3.72c.73,0,1.28-.58,1.28-1.29,0-.75-.56-1.33-1.28-1.33h-3.72c-.68,0-1.24.58-1.24,1.33,0,.71.56,1.29,1.24,1.29h0Zm-8.68,0h3.72c.68,0,1.24-.58,1.24-1.29,0-.75-.56-1.33-1.24-1.33h-3.72c-.68,0-1.24.58-1.24,1.33,0,.71.56,1.29,1.24,1.29h0Zm6.2,0c-.68,0-1.24.58-1.24,1.29v3.86c0,.71.56,1.29,1.24,1.29s1.24-.58,1.24-1.29v-3.86c0-.71-.56-1.29-1.24-1.29h0Zm0-2.62c.68,0,1.24-.58,1.24-1.29v-3.86c0-.71-.56-1.29-1.24-1.29s-1.24.58-1.24,1.29v3.86c0,.71.56,1.29,1.24,1.29h0Zm27.5-99.16h3.72c.68,0,1.24-.58,1.24-1.29s-.56-1.29-1.24-1.29h-3.72c-.68,0-1.24.58-1.24,1.29s.56,1.29,1.24,1.29h0Zm-8.72,0h3.72c.73,0,1.28-.58,1.28-1.29s-.56-1.29-1.28-1.29h-3.72c-.68,0-1.24.58-1.24,1.29s.56,1.29,1.24,1.29h0Zm6.24,0c-.68,0-1.24.58-1.24,1.29v3.86c0,.71.56,1.29,1.24,1.29s1.24-.58,1.24-1.29v-3.86c0-.71-.56-1.29-1.24-1.29h0Zm0-2.57c.68,0,1.24-.58,1.24-1.29v-3.9c0-.71-.56-1.29-1.24-1.29s-1.24.58-1.24,1.29v3.9c0,.71.56,1.29,1.24,1.29h0Z"/>
      <text class="cls-4" transform="translate(98.16 135.94)"><tspan class="cls-1"><tspan x="0" y="0">Creati</tspan><tspan class="cls-5" x="115.46" y="0">v</tspan><tspan x="136.27" y="0">o</tspan></tspan><tspan class="cls-2"><tspan x="0" y="30">“Si puede ser </tspan></tspan><tspan class="cls-2"><tspan x="0" y="60">imaginado, puede ser </tspan></tspan><tspan class="cls-2"><tspan x="0" y="90">creado.”</tspan></tspan></text>
    </g>
  </g>
</svg>