<?xml version="1.0" encoding="UTF-8"?>
<svg id="Capa_2" data-name="Capa 2" xmlns="http://www.w3.org/2000/svg" xmlns:xlink="http://www.w3.org/1999/xlink" viewBox="0 0 511 480">
  <defs>
    <style>
      .cls-1 {
        letter-spacing: -.04em;
      }

      .cls-2 {
        font-family: Transducer-Bold, Transducer;
        font-size: 34px;
        font-weight: 700;
      }

      .cls-3 {
        font-family: Transducer-Regular, Transducer;
        font-size: 24px;
      }

      .cls-4 {
        fill: #eef0f6;
        filter: url(#drop-shadow-1);
        stroke-width: 0px;
      }

      .cls-5 {
        fill: #606060;
      }

      .cls-6 {
        fill: url(#Degradado_sin_nombre_107);
        fill-rule: evenodd;
      }
    </style>
    <filter id="drop-shadow-1" filterUnits="userSpaceOnUse">
      <feOffset dx="0" dy="0"/>
      <feGaussianBlur result="blur" stdDeviation="5"/>
      <feFlood flood-color="#000" flood-opacity=".2"/>
      <feComposite in2="blur" operator="in"/>
      <feComposite in="SourceGraphic"/>
    </filter>
    <linearGradient id="Degradado_sin_nombre_107" data-name="Degradado sin nombre 107" x1="347.4" y1="268.2" x2="347.4" y2="397.91" gradientUnits="userSpaceOnUse">
      <stop offset="0" stop-color="#e38520"/>
      <stop offset=".11" stop-color="#e27825"/>
      <stop offset="1" stop-color="#dc1a4d"/>
    </linearGradient>
  </defs>
  <g id="Capa_1-2" data-name="Capa 1">
    <g>
      <path class="cls-4" d="m15.08,289C66.36,181,159.42,67.57,253.83,15.94c18.65,25.17,203.68,281.19,241.38,331.67-49.41,27.36-90.43,68.02-118.25,117.14-3.22-1.77-347.09-169.25-361.88-175.76Z"/>
      <path class="cls-6" d="m354.03,280.67l-4.62-4.84c-.43-.4-1.16-.4-1.58,0l-4.62,4.84c-.34.35-.43.89-.21,1.33l4.62,9.98c.17.4.6.67.98.67.43,0,.81-.27,1.03-.67l4.62-9.98c.21-.44.13-.98-.21-1.33h0Zm-2.1,1.06l-3.34,7.14-3.29-7.14,3.29-3.46,3.34,3.46h0Zm30.2,42.72c.47,0,.9-.31,1.07-.8l3.29-10.2c.17-.62-.13-1.29-.73-1.51-.6-.18-1.24.13-1.45.75l-3.25,10.25c-.21.58.09,1.24.68,1.46.13.04.26.04.39.04h0Zm5.48-14.73c0,.62-.47,1.11-1.07,1.11s-1.07-.49-1.07-1.11.47-1.11,1.07-1.11,1.07.49,1.07,1.11h0Zm-22.42,3.86c.47,0,.9-.31,1.07-.8l3.29-10.25c.17-.62-.13-1.29-.73-1.46-.6-.22-1.24.13-1.45.75l-3.25,10.2c-.21.62.09,1.29.68,1.46.13.04.26.09.39.09h0Zm5.39-16.95c.51,0,.94-.31,1.11-.8l3.29-10.2c.17-.62-.13-1.29-.73-1.51-.6-.18-1.24.13-1.45.75l-3.29,10.25c-.17.58.13,1.24.73,1.46.13.04.26.04.34.04h0Zm.09,2.17c0,.62-.47,1.11-1.07,1.11s-1.11-.49-1.11-1.11.51-1.11,1.11-1.11,1.07.49,1.07,1.11h0Zm-55.58,25.64c-.47,0-.9-.31-1.07-.8l-3.29-10.2c-.17-.62.13-1.29.73-1.51.6-.18,1.24.13,1.41.75l3.29,10.25c.21.58-.13,1.24-.68,1.46-.13.04-.26.04-.39.04h0Zm-3.34-14.73c0,.62-.47,1.11-1.07,1.11s-1.07-.49-1.07-1.11.47-1.11,1.07-1.11,1.07.49,1.07,1.11h0Zm18.35,3.86c-.47,0-.9-.31-1.07-.8l-3.29-10.25c-.17-.62.13-1.29.73-1.46.6-.22,1.24.13,1.45.71l3.25,10.25c.21.62-.09,1.29-.68,1.46-.13.04-.26.09-.39.09h0Zm-5.43-16.95c-.47,0-.9-.31-1.07-.8l-3.29-10.2c-.17-.62.13-1.29.73-1.51.6-.18,1.24.13,1.45.75l3.25,10.25c.21.58-.09,1.24-.68,1.46-.13.04-.26.04-.39.04h0Zm22.72,91.6c-29.35,0-53.22-24.75-53.22-55.18,0-1.02.77-1.82,1.75-1.82s1.75.8,1.75,1.82c0,28.39,22.29,51.5,49.71,51.5s49.67-23.11,49.67-51.5c0-1.02.81-1.82,1.8-1.82s1.75.8,1.75,1.82c-.04,30.43-23.92,55.18-53.22,55.18h0Zm-14.76-36.95h-3.98c-.13-.84-.26-1.73-.43-2.62-.09-.49-.43-.84-.81-.98-.43-.18-.9-.04-1.24.22-.3.31-.47.8-.39,1.24.26,1.2.43,2.44.56,3.55.04.67.6,1.15,1.2,1.15h5.09c.68,0,1.2-.58,1.2-1.29s-.56-1.29-1.2-1.29h0Zm19.68-47.2c0-2.08-1.67-3.81-3.68-3.81s-3.72,1.73-3.72,3.81,1.67,3.86,3.72,3.86,3.68-1.73,3.68-3.86h0Zm-4.92,0c0-.71.56-1.24,1.2-1.24.68,0,1.24.53,1.24,1.24s-.56,1.29-1.24,1.29c-.64,0-1.2-.58-1.2-1.29h0Zm27.04,58.69c0,.71-.51,1.29-1.2,1.29s-1.24-.58-1.24-1.29.56-1.29,1.24-1.29,1.2.58,1.2,1.29h0Zm-4.92,0c0,.71-.51,1.29-1.2,1.29s-1.24-.58-1.24-1.29.56-1.29,1.24-1.29,1.2.58,1.2,1.29h0Zm-4.92,0c0,.71-.56,1.29-1.2,1.29-.68,0-1.24-.58-1.24-1.29s.56-1.29,1.24-1.29c.64,0,1.2.58,1.2,1.29h0Zm-4.92,0c0,.71-.56,1.29-1.2,1.29-.68,0-1.24-.58-1.24-1.29s.56-1.29,1.24-1.29c.64,0,1.2.58,1.2,1.29h0Zm-4.92,0c0,.71-.56,1.29-1.2,1.29-.68,0-1.24-.58-1.24-1.29s.56-1.29,1.24-1.29c.64,0,1.2.58,1.2,1.29h0Zm-4.92,0c0,.71-.56,1.29-1.24,1.29s-1.2-.58-1.2-1.29.51-1.29,1.2-1.29,1.24.58,1.24,1.29h0Zm-4.92,0c0,.71-.56,1.29-1.24,1.29s-1.2-.58-1.2-1.29.51-1.29,1.2-1.29,1.24.58,1.24,1.29h0Zm-4.92,0c0,.71-.56,1.29-1.24,1.29s-1.2-.58-1.2-1.29.51-1.29,1.2-1.29,1.24.58,1.24,1.29h0Zm-4.92,0c0,.71-.56,1.29-1.24,1.29s-1.2-.58-1.2-1.29.51-1.29,1.2-1.29,1.24.58,1.24,1.29h0Zm-4.92,0c0,.71-.56,1.29-1.24,1.29s-1.2-.58-1.2-1.29.51-1.29,1.2-1.29,1.24.58,1.24,1.29h0Zm-4.92,0c0,.71-.56,1.29-1.24,1.29s-1.24-.58-1.24-1.29.56-1.29,1.24-1.29,1.24.58,1.24,1.29h0Zm14.76-40.81c0,.71-.56,1.29-1.24,1.29s-1.2-.58-1.2-1.29.51-1.29,1.2-1.29,1.24.58,1.24,1.29h0Zm8.6,25.51c-2.01,0-3.68,1.73-3.68,3.82s1.67,3.86,3.68,3.86,3.72-1.73,3.72-3.86-1.67-3.82-3.72-3.82h0Zm0,5.1c-.64,0-1.2-.58-1.2-1.29,0-.67.56-1.24,1.2-1.24.68,0,1.24.58,1.24,1.24,0,.71-.56,1.29-1.24,1.29h0Zm29.56-26.79c-1.88,0-3.64.89-4.79,2.4-4.62-8.69-13.22-14.37-22.76-15.08.86-1.38,1.88-2.66,3.04-3.81,1.07-1.15,2.27-2.17,3.55-3.06.68-.44,1.11-1.24,1.11-2.13s-.43-1.64-1.11-2.13c-1.28-.89-2.48-1.91-3.55-3.06-1.11-1.11-2.1-2.35-2.95-3.68-.47-.71-1.24-1.15-2.05-1.15-.86,0-1.63.44-2.05,1.15-.9,1.33-1.88,2.57-2.99,3.68-1.07,1.15-2.27,2.17-3.55,3.06-.68.49-1.11,1.29-1.11,2.13,0,.89.43,1.69,1.11,2.13,1.28.89,2.48,1.95,3.55,3.11,1.16,1.15,2.18,2.4,3.04,3.77-9.54.71-18.14,6.39-22.8,15.08-1.63-2.13-4.45-2.97-6.93-2-2.48.98-4.06,3.46-3.98,6.21.13,2.75,1.93,5.1,4.45,5.86,3.98,9.98,4.28,16.1,4.24,18.32-2.18.53-3.72,2.57-3.76,4.92v2.57c0,2.79,2.22,5.1,4.92,5.1h51.68c2.74,0,4.92-2.31,4.92-5.1v-2.57c0-2.35-1.54-4.39-3.76-4.92-.04-2.22.3-8.38,4.24-18.32,2.95-.89,4.83-3.86,4.41-7.01-.43-3.15-3.04-5.46-6.08-5.46h0Zm-36.79-21.69c1.45-.98,2.78-2.13,3.98-3.37,1.24-1.24,2.31-2.62,3.25-4.13.98,1.46,2.05,2.84,3.29,4.13,1.2,1.24,2.52,2.4,3.94,3.37-1.41.98-2.74,2.13-3.94,3.42-1.2,1.24-2.31,2.62-3.25,4.08-.98-1.46-2.05-2.84-3.29-4.08-1.2-1.29-2.52-2.4-3.98-3.42h0Zm7.23,11.49c10.1,0,19.25,6.12,23.49,15.61-.04.31-.09.62-.09.98,0,.71.13,1.42.34,2.08-4.24,5.68-8.3,8.65-11.21,8.12-3.08-.49-6.25-5.19-8.69-12.91,2.05-1.69,2.82-4.52,1.97-7.1-.86-2.57-3.17-4.26-5.82-4.26s-4.92,1.69-5.78,4.26c-.86,2.57-.09,5.41,1.97,7.1-2.44,7.72-5.6,12.42-8.69,12.91-2.91.53-6.97-2.44-11.25-8.12.26-.67.39-1.38.39-2.08,0-.35-.04-.67-.09-.98,4.24-9.49,13.39-15.57,23.45-15.61h0Zm-3.68,8.92c0-2.08,1.67-3.81,3.68-3.81s3.72,1.73,3.72,3.81-1.67,3.86-3.72,3.86-3.68-1.73-3.68-3.86h0Zm-29.52,7.67c0-2.13,1.67-3.81,3.68-3.81s3.68,1.69,3.68,3.81-1.63,3.81-3.68,3.81c-.98,0-1.93-.4-2.61-1.11-.68-.71-1.07-1.69-1.07-2.71h0Zm61.52,29.37v2.53c0,1.42-1.11,2.57-2.44,2.57h-51.68c-1.37,0-2.48-1.15-2.48-2.57v-2.53c0-1.42,1.11-2.57,2.48-2.57h51.68c1.33,0,2.44,1.15,2.44,2.57h0Zm-22.16-5.15h-12.28v-5.1c0-3.5,2.74-6.34,6.12-6.34s6.16,2.84,6.16,6.34v5.1h0Zm18.4,0h-15.92v-5.1c0-4.92-3.85-8.92-8.64-8.92s-8.6,3.99-8.6,8.92v5.1h-15.92c.04-2.57-.43-8.61-3.98-17.92,1.28-.22,2.48-.89,3.42-1.91,3.08,4.04,8.09,9.23,12.96,8.34,5.05-.84,8.47-7.94,10.52-14.24,1.03.31,2.18.31,3.21,0,2.05,6.3,5.43,13.4,10.48,14.24,4.92.84,9.88-4.3,13.01-8.34.94,1.02,2.14,1.64,3.42,1.91-3.55,9.32-4.02,15.35-3.98,17.92h0Zm5.01-20.41c-2.05,0-3.68-1.69-3.68-3.81s1.63-3.81,3.68-3.81,3.68,1.69,3.68,3.81-1.67,3.81-3.68,3.81h0Zm-50.23-1.95c.3.13.64.18.94.04.3-.13.56-.35.68-.67,1.41-3.15,3.51-5.94,6.12-8.07.39-.31.56-.75.51-1.2-.09-.49-.34-.84-.77-1.02-.43-.18-.9-.09-1.24.18-2.95,2.44-5.31,5.5-6.85,9.05-.17.31-.17.67-.04.98s.34.58.64.71h0Zm-30.38-8.83h2.44c.43,0,.81-.35.81-.8,0-.49-.39-.84-.81-.84h-2.44c-.47,0-.81.35-.81.84,0,.44.34.8.81.8h0Zm-5.69,0h2.44c.47,0,.81-.35.81-.8,0-.49-.34-.84-.81-.84h-2.44c-.43,0-.81.35-.81.84,0,.44.39.8.81.8h0Zm4.06,0c-.43,0-.81.4-.81.84v2.53c0,.49.39.84.81.84.47,0,.81-.35.81-.84v-2.53c0-.44-.34-.84-.81-.84h0Zm0-1.64c.47,0,.81-.4.81-.84v-2.53c0-.49-.34-.84-.81-.84-.43,0-.81.35-.81.84v2.53c0,.44.39.84.81.84h0Zm104.48,1.64h2.44c.47,0,.81-.35.81-.8,0-.49-.34-.84-.81-.84h-2.44c-.43,0-.81.35-.81.84,0,.44.39.8.81.8h0Zm-5.69,0h2.44c.47,0,.81-.35.81-.8,0-.49-.34-.84-.81-.84h-2.44c-.43,0-.81.35-.81.84.04.44.39.8.81.8h0Zm4.06,0c-.43,0-.81.4-.81.84v2.53c0,.49.39.84.81.84.47,0,.81-.35.81-.84v-2.53c0-.44-.34-.84-.81-.84h0Zm0-1.64c.47,0,.81-.4.81-.84v-2.53c0-.49-.34-.84-.81-.84-.43,0-.81.35-.81.84v2.53c0,.44.39.84.81.84h0Zm-51.38,74.35c-34.48,0-62.55-29.1-62.55-64.86s28.07-64.86,62.55-64.86,62.55,29.1,62.55,64.86-28.07,64.86-62.55,64.86h0Zm0-126.07c-32.56,0-59.04,27.46-59.04,61.22s26.48,61.22,59.04,61.22,59-27.46,59-61.22-26.48-61.22-59-61.22h0Zm-20.62,26.97c0,.62-.47,1.11-1.07,1.11s-1.07-.49-1.07-1.11.47-1.11,1.07-1.11,1.07.49,1.07,1.11h0Z"/>
      <text class="cls-5" transform="translate(113.78 190.03)"><tspan class="cls-2"><tspan x="0" y="0">Gobernante </tspan></tspan><tspan class="cls-3"><tspan x="0" y="30">“El líder abre el </tspan></tspan><tspan class="cls-3"><tspan x="0" y="60">camino y otros lo </tspan></tspan><tspan class="cls-3"><tspan x="0" y="90">sigue</tspan><tspan class="cls-1" x="68.47" y="90">n</tspan><tspan x="83.66" y="90">”</tspan></tspan></text>
    </g>
  </g>
</svg>