<?xml version="1.0" encoding="UTF-8"?>
<svg id="Capa_2" data-name="Capa 2" xmlns="http://www.w3.org/2000/svg" xmlns:xlink="http://www.w3.org/1999/xlink" viewBox="0 0 515 476">
  <defs>
    <style>
      .cls-1 {
        font-family: Transducer-Bold, Transducer;
        font-size: 34px;
        font-weight: 700;
      }

      .cls-2 {
        font-family: Transducer-Regular, Transducer;
        font-size: 24px;
      }

      .cls-3 {
        fill: #eef0f6;
        filter: url(#drop-shadow-1);
        stroke-width: 0px;
      }

      .cls-4 {
        fill: #606060;
      }

      .cls-5 {
        fill: url(#Degradado_sin_nombre_107);
        fill-rule: evenodd;
      }
    </style>
    <filter id="drop-shadow-1" filterUnits="userSpaceOnUse">
      <feOffset dx="0" dy="0"/>
      <feGaussianBlur result="blur" stdDeviation="5"/>
      <feFlood flood-color="#000" flood-opacity=".2"/>
      <feComposite in2="blur" operator="in"/>
      <feComposite in="SourceGraphic"/>
    </filter>
    <linearGradient id="Degradado_sin_nombre_107" data-name="Degradado sin nombre 107" x1="255.39" y1="164.91" x2="380.48" y2="164.91" gradientTransform="translate(-39.35 -1.26) rotate(.05)" gradientUnits="userSpaceOnUse">
      <stop offset="0" stop-color="#e38520"/>
      <stop offset=".11" stop-color="#e27825"/>
      <stop offset="1" stop-color="#dc1a4d"/>
    </linearGradient>
  </defs>
  <g id="Capa_1-2" data-name="Capa 1">
    <g>
      <path class="cls-3" d="m499.83,283.4C461.45,197.81,361.94,65.36,254.96,15.43,236.31,40.6,52.09,292.53,15.04,343.71c49.41,27.36,90.43,68.02,118.25,117.14,3.22-1.77,351.75-170.95,366.55-177.45Z"/>
      <text class="cls-4" transform="translate(105.49 294.72)"><tspan class="cls-1"><tspan x="0" y="0">Sabio </tspan></tspan><tspan class="cls-2"><tspan x="0" y="30">“La verdad te hará </tspan></tspan><tspan class="cls-2"><tspan x="0" y="60">libre.”</tspan></tspan></text>
      <path class="cls-5" d="m282.53,196.12c-.43,0-.86-.13-1.24-.45l-2.69-2c-.13-.09-.26-.09-.39,0l-2.7,2c-.77.58-1.71.58-2.48,0-.73-.53-1.03-1.51-.73-2.4l1.03-3.29c.04-.13,0-.31-.13-.4l-2.69-2.05c-.77-.53-1.03-1.51-.77-2.4.3-.93,1.07-1.51,2.01-1.51h3.3c.17,0,.3-.09.34-.22l1.03-3.29c.26-.93,1.07-1.51,1.97-1.51s1.71.58,2.01,1.51h0l1.02,3.29c.04.13.17.22.3.22h3.34c.94,0,1.71.58,1.97,1.52.3.89,0,1.87-.73,2.4l-2.7,2.04c-.13.09-.17.22-.13.4l1.02,3.29c.3.89,0,1.87-.77,2.4-.34.31-.77.44-1.2.44h0Zm-4.15-4.36c.43,0,.86.13,1.24.4l2.69,2.05c.17.13.3.04.39,0s.21-.18.13-.4l-1.02-3.29c-.3-.89.04-1.87.77-2.4l2.7-2.04c.17-.13.13-.31.13-.4-.04-.09-.13-.22-.34-.22h-3.34c-.9,0-1.67-.63-1.97-1.52l-1.02-3.29c-.09-.18-.21-.22-.34-.22-.09,0-.21.04-.3.22l-1.03,3.29c-.3.93-1.07,1.51-2.01,1.51h-3.3c-.21,0-.3.13-.34.22,0,.09-.04.27.13.4l2.69,2.05c.73.53,1.07,1.51.77,2.4l-1.03,3.29c-.09.22.04.36.13.4s.21.13.39,0l2.7-2.04c.34-.27.77-.4,1.2-.4h0Zm.07-76.7c-2.4,0-4.32,2.04-4.33,4.53,0,2.49,1.92,4.54,4.32,4.54s4.37-2.04,4.37-4.53c0-2.49-1.96-4.54-4.36-4.54h0Zm2.14,4.54c0,1.2-.94,2.18-2.14,2.18s-2.1-.98-2.1-2.18c0-1.2.94-2.18,2.1-2.18s2.14.98,2.14,2.18h0Zm-12.89,6.66c-1.33,0-2.4-1.11-2.39-2.49s1.07-2.53,2.4-2.53,2.44,1.16,2.44,2.54c0,1.38-1.07,2.49-2.44,2.49h0Zm0-3.56c-.56,0-1.03.44-1.03,1.07,0,.58.47,1.07,1.03,1.07.6,0,1.07-.49,1.07-1.07,0-.62-.47-1.07-1.07-1.07h0Zm21.48,3.58c-1.33,0-2.4-1.11-2.39-2.49s1.07-2.53,2.4-2.53,2.44,1.16,2.44,2.54-1.12,2.49-2.44,2.49h0Zm0-3.56c-.56,0-1.03.44-1.03,1.07,0,.58.47,1.07,1.03,1.07.6,0,1.03-.49,1.03-1.07,0-.62-.47-1.07-1.03-1.07h0Zm-10.83,97.33c-29.74-.03-53.94-25.23-53.92-56.15.03-30.92,24.28-56.08,54.02-56.05,29.79.03,53.94,25.23,53.92,56.15-.03,30.92-24.23,56.08-54.02,56.05h0Zm.1-108.55c-27.82-.03-50.44,23.49-50.46,52.41-.03,28.92,22.55,52.47,50.37,52.5,27.82.03,50.48-23.49,50.51-52.41.03-28.92-22.59-52.47-50.41-52.5h0Zm15.5,40.32c-.68,0-1.24.58-1.24,1.29v2.49c0,.71.55,1.34,1.24,1.34.73,0,1.28-.62,1.29-1.33v-2.49c0-.71-.55-1.29-1.28-1.29h0Zm-31.07-.03c-.68,0-1.24.58-1.24,1.29v2.49c0,.71.55,1.34,1.24,1.34.73,0,1.28-.62,1.29-1.33v-2.49c0-.71-.55-1.29-1.28-1.29h0Zm31.08-4.95c-3.3,0-6.04,2.84-6.04,6.27v2.49c0,3.47,2.73,6.28,6.03,6.28s6.08-2.8,6.08-6.27v-2.49c0-1.65-.64-3.25-1.79-4.41-1.11-1.2-2.65-1.87-4.28-1.87h0Zm3.55,6.28v2.49c0,2.05-1.59,3.69-3.56,3.69s-3.51-1.65-3.51-3.7v-2.49c0-2,1.59-3.65,3.52-3.64s3.55,1.65,3.55,3.65h0Zm-34.62-6.31c-3.3,0-6.04,2.84-6.04,6.27v2.49c0,3.47,2.73,6.28,6.03,6.28,3.34,0,6.04-2.8,6.04-6.27v-2.49c0-3.43-2.69-6.28-6.03-6.28h0Zm3.55,6.28v2.49c0,2.05-1.59,3.69-3.56,3.69s-3.51-1.65-3.51-3.7v-2.49c0-2,1.59-3.65,3.52-3.64s3.55,1.65,3.55,3.65h0Zm46.65-.31h0c-.38-4.76-2.35-9.21-5.59-12.55,1.67-.98,3.08-2.22,4.2-3.64,2.66-3.42,2.66-6.89,2.66-7.03,0-.44-.21-.89-.6-1.11-.34-.22-.81-.27-1.2-.05-2.95,1.51-6.89,1.77-11.09,2.08-2.7.18-5.44.35-8.13.88-4.71-2.1-9.71-3.17-14.89-3.17s-10.14,1.06-14.9,3.14c-2.7-.54-5.43-.72-8.09-.9-4.19-.32-8.17-.59-11.08-2.1-.38-.22-.86-.18-1.24.04-.39.22-.6.67-.6,1.11,0,.13.04,3.6,2.65,7.03,1.11,1.42,2.52,2.67,4.19,3.65-3.21,3.33-5.23,7.78-5.58,12.45l-.04.04c-.13.53-3.65,12.63-3.65,17.79,0,.71.56,1.34,1.28,1.34h2.31s0,2.4,0,2.4c0,.62.38,1.11.94,1.29.17.04,1.67.4,3.98.63.72,7.52,4.1,14.55,9.44,19.72,2.01,1.91,4.28,3.56,6.71,4.86l-7.62.66c-1.46.09-2.7,1.11-3.17,2.58l-.69,2.13c-.13.36-.09.71.04,1.02.17.31.43.53.73.67.64.22,1.41-.18,1.63-.84l.69-2.18c.13-.44.51-.76.99-.8l.64-.04v2.62c0,.71.55,1.29,1.24,1.29.73,0,1.28-.58,1.29-1.29v-2.85s1.24-.09,1.24-.09l1.07,3.34c.21.67.94,1.07,1.58.85.34-.13.6-.36.73-.67.17-.31.21-.67.09-1.02l-.9-2.71,5.69-.48c5.43,1.61,11.43,1.61,16.65.02h.09s5.65.49,5.65.49l-.9,2.71c-.09.36-.04.71.08,1.02.17.31.43.53.73.67.64.22,1.37-.18,1.58-.84l1.07-3.34,1.28.09v2.85c0,.71.55,1.29,1.24,1.29s1.24-.58,1.24-1.29v-2.62s.69.05.69.05c.43.04.81.36.98.8l.68,2.18c.17.53.64.89,1.2.89.13,0,.26,0,.39-.04.34-.13.6-.36.73-.67.17-.31.17-.67.09-1.02l-.73-2.18c-.43-1.42-1.67-2.45-3.12-2.58l-7.62-.63c2.44-1.29,4.67-2.93,6.68-4.89,5.4-5.16,8.74-12.14,9.48-19.66,2.35-.22,3.81-.62,3.98-.66.56-.13.94-.67.94-1.24v-2.4s2.36,0,2.36,0c.68,0,1.24-.62,1.24-1.33,0-5.12-3.45-17.22-3.62-17.75h0Zm-20.15,42.82c3.69-5.29,5.75-12.23,5.88-19.61,2.23.31,4.49.49,6.85.41-.78,6.72-3.82,12.94-8.62,17.57-1.97,1.87-4.2,3.47-6.6,4.67.9-.89,1.71-1.91,2.49-3.02h0Zm21.21-26.36h-2.27c-.68,0-1.24.58-1.24,1.29v2.67c-1.2.22-3.47.58-6.34.57-1.58,0-3.17-.14-4.66-.32,6.12-2,10.96-7.06,12.77-13.47.68,2.89,1.49,6.67,1.75,9.26h0Zm-51.27-3.78c-5.86,0-10.65-4.99-10.65-11.13s4.8-11.07,10.67-11.07c5.91,0,10.69,4.99,10.69,11.09,0,6.14-4.8,11.12-10.71,11.11h0Zm14.77-.97c.43-.44,1.16-.44,1.58,0l1.33,1.38-2.15,5.87-2.09-5.87,1.33-1.38h0Zm16.33-23.83c-7.28,0-13.19,6.13-13.19,13.69,0,7.61,5.89,13.75,13.17,13.76,7.28,0,13.23-6.13,13.24-13.73,0-2.09-.42-4.09-1.32-5.96-.3-.62-1.07-.94-1.67-.62-.3.13-.56.44-.64.76-.13.31-.09.67.04.98.73,1.56,1.07,3.16,1.07,4.89,0,6.1-4.8,11.07-10.71,11.07-5.86,0-10.65-4.99-10.65-11.09,0-6.14,4.8-11.12,10.67-11.11,2.35,0,4.58.76,6.42,2.23.3.18.64.27.94.22.34-.04.64-.22.86-.49.17-.27.26-.62.21-.98s-.21-.67-.47-.85c-.34-.27-.73-.53-1.07-.76,1.5-.31,2.91-.71,4.2-1.24,3.55,3.3,5.6,8.01,5.59,12.95,0,9.57-7.51,17.34-16.66,17.34-4.19,0-8.13-1.61-11.21-4.55l.43-1.16c.17-.49.04-1.02-.3-1.38l-1.88-1.96c-.68-.71-1.63-1.11-2.57-1.11s-1.93.4-2.61,1.11l-1.88,1.96c-.34.36-.47.89-.3,1.38l.43,1.16c-3.08,2.93-7.02,4.53-11.17,4.53-9.2,0-16.68-7.8-16.68-17.37,0-4.94,2.06-9.65,5.62-12.94,1.28.54,2.7.94,4.19,1.25-3.9,2.49-6.34,6.93-6.34,11.69,0,7.61,5.89,13.75,13.21,13.76,7.28,0,13.19-6.13,13.19-13.73,0-7.56-5.89-13.71-13.17-13.72s-12.79-1.97-15.66-5.62c-.81-1.02-1.45-2.18-1.84-3.43,2.95.98,6.29,1.21,9.84,1.43,8.6.63,17.5,1.26,21.99,12.57.26.67,1.07.98,1.67.71.3-.13.56-.36.69-.71,4.5-11.3,13.41-11.91,22.01-12.53,3.55-.22,6.89-.44,9.8-1.41-.39,1.25-.99,2.4-1.8,3.42-2.87,3.65-8.31,5.6-15.67,5.59h0Zm-35.94,35.29c0,.71.04,1.38.08,2.09.04.67.6,1.2,1.33,1.2h0c.34,0,.64-.18.86-.44.26-.27.34-.58.34-.93-.04-.76-.08-1.6-.08-2.4h0c1.37-.35,2.65-.75,3.94-1.24,3.89-.31,7.53-1.86,10.53-4.44l2.22,6.19c.17.49.64.85,1.15.85s1.03-.35,1.2-.84l2.23-6.18c2.99,2.58,6.63,4.14,10.52,4.46,1.28.49,2.57.89,3.94,1.25h0c-.01,14.37-8.07,26.02-17.91,26.01-3.89,0-7.57-1.83-10.69-5.22-3.12-3.43-5.38-8.24-6.45-13.62-.09-.36-.26-.62-.56-.85-.17-.13-.43-.22-.68-.22-.09,0-.17.04-.26.04-.34.04-.6.27-.77.53-.21.31-.26.67-.21,1.02,1.15,5.83,3.67,11.13,7.09,14.87.17.18.34.36.51.53-2.4-1.2-4.62-2.81-6.59-4.68-4.79-4.63-7.86-10.86-8.59-17.63,2.31.09,4.62-.04,6.85-.35h0Zm30.04-43.04c-4.2,1.82-7.37,4.8-9.64,9.11-2.22-4.32-5.39-7.3-9.58-9.13-.34-.13-.68-.27-1.03-.4,6.85-2.22,14.42-2.21,21.27.02-.39.13-.73.27-1.03.4h0Zm-43.13,36.26h-2.23c.22-2.58,1.03-6.36,1.76-9.25,1.79,6.41,6.58,11.48,12.74,13.49-1.5.18-3.08.31-4.67.31-2.87,0-5.18-.36-6.33-.58v-2.67c0-.71-.55-1.29-1.28-1.29h0Zm33.41,59.78c-34.45-.03-62.5-29.2-62.47-65.06.03-35.86,28.14-64.97,62.59-64.94,34.5.03,62.54,29.2,62.51,65.06s-28.14,64.97-62.63,64.94h0Zm.12-126.35c-32.53-.03-59.04,27.48-59.08,61.3-.03,33.86,26.43,61.38,58.96,61.41,32.57.03,59.04-27.44,59.08-61.3.03-33.81-26.39-61.38-58.96-61.41h0Zm1.63,85.33c0,.98-.77,1.78-1.71,1.78s-1.71-.8-1.71-1.78.77-1.78,1.71-1.78,1.71.8,1.71,1.78h0Z"/>
    </g>
  </g>
</svg>