<?xml version="1.0" encoding="UTF-8"?>
<svg id="Capa_2" data-name="Capa 2" xmlns="http://www.w3.org/2000/svg" xmlns:xlink="http://www.w3.org/1999/xlink" viewBox="0 0 476 365">
  <defs>
    <style>
      .cls-1 {
        font-family: Transducer-Bold, Transducer;
        font-size: 34px;
        font-weight: 700;
      }

      .cls-2 {
        font-family: Transducer-Regular, Transducer;
        font-size: 24px;
      }

      .cls-3 {
        fill: #eef0f6;
        filter: url(#drop-shadow-1);
        stroke-width: 0px;
      }

      .cls-4 {
        fill: #606060;
      }

      .cls-5 {
        letter-spacing: 0em;
      }

      .cls-6 {
        fill: url(#Degradado_sin_nombre_107);
        fill-rule: evenodd;
      }

      .cls-7 {
        letter-spacing: -.02em;
      }
    </style>
    <filter id="drop-shadow-1" filterUnits="userSpaceOnUse">
      <feOffset dx="0" dy="0"/>
      <feGaussianBlur result="blur" stdDeviation="5"/>
      <feFlood flood-color="#000" flood-opacity=".2"/>
      <feComposite in2="blur" operator="in"/>
      <feComposite in="SourceGraphic"/>
    </filter>
    <linearGradient id="Degradado_sin_nombre_107" data-name="Degradado sin nombre 107" x1="243.85" y1="359.4" x2="243.85" y2="229.71" gradientTransform="translate(88.06 -155.98) rotate(-1.2)" gradientUnits="userSpaceOnUse">
      <stop offset="0" stop-color="#e38520"/>
      <stop offset=".11" stop-color="#e27825"/>
      <stop offset="1" stop-color="#dc1a4d"/>
    </linearGradient>
  </defs>
  <g id="Capa_1-2" data-name="Capa 1">
    <g>
      <path class="cls-3" d="m381.72,15.6C366.92,22.11,18.22,189.08,15,190.85c25.12,44.37,39.47,95.63,39.47,150.26,0,1.9-.04,3.79-.07,5.68l406.28,2.49c2.11-100.41-42.69-267.79-78.96-333.68Z"/>
      <path class="cls-6" d="m379.19,148.47c-3.38.07-5.1,1.79-6.48,3.15-1.21,1.22-2.1,2.08-4.02,2.12s-2.8-.78-4.06-1.95c-1.44-1.3-3.23-2.95-6.61-2.88-3.38.07-5.1,1.79-6.48,3.15-1.21,1.22-2.05,2.08-3.98,2.12s-2.84-.78-4.06-1.95c-1.48-1.3-3.27-2.95-6.65-2.88-3.34.07-5.1,1.79-6.48,3.15-1.21,1.22-2.05,2.08-3.98,2.12s-2.84-.78-4.06-1.95c-1.44-1.3-3.27-2.95-6.61-2.88s-5.1,1.79-6.52,3.15c-1.17,1.22-2.05,2.08-3.98,2.12-1.92.04-2.8-.78-4.06-1.95-1.44-1.3-3.23-2.95-6.61-2.88-1.03.02-1.86.93-1.84,1.99.02,1.06.9,1.93,1.92,1.91,1.92-.04,2.8.78,4.06,1.91,1.44,1.3,3.23,2.95,6.61,2.88s5.1-1.79,6.48-3.15c1.22-1.18,2.1-2.04,4.02-2.08s2.8.78,4.06,1.91c1.44,1.3,3.23,2.95,6.61,2.88,3.38-.07,5.1-1.79,6.48-3.15,1.22-1.18,2.05-2.04,3.98-2.08,1.92-.04,2.84.78,4.06,1.91,1.48,1.3,3.27,2.95,6.65,2.88s5.1-1.79,6.48-3.15c1.22-1.18,2.05-2.04,3.98-2.08,1.92-.04,2.84.78,4.06,1.91,1.44,1.3,3.27,2.95,6.65,2.88,3.34-.07,5.1-1.79,6.48-3.15,1.17-1.18,2.05-2.04,3.98-2.08,1.03-.02,1.86-.93,1.84-1.99s-.9-1.93-1.92-1.91h0Zm8.72-30.96c-.28-.97-1.27-1.53-2.16-1.2-.94.29-1.47,1.32-1.19,2.24,1.33,4.45,2.03,9.09,2.13,13.79.03,1.2,0,2.39-.01,3.55l-.77.02h0l-3.72.08c-.64.01-2.15-.4-5.29-3.3-2.31-2.17-4.81-5-7-7.53-1.18-1.35-2.32-2.61-3.29-3.66-3.5-3.7-6.74-1.28-8.72.14-.76.59-1.6,1.19-2.15,1.29-.31-.44-.66-.92-1.01-1.35-1.45-1.92-2.95-3.93-4.98-5.13-1.26-.73-2.91-2.16-4.52-3.54-3.05-2.64-5.71-4.98-7.93-4.93-1.92.04-4.4,2.31-8.87,7.24-2.46,1.03-4.98,1.35-7.45,1.71-2.73.37-5.29.73-7.23,2.01-.67.46-1.47,1.45-3.17,3.7-4.04,5.27-11.57,15.1-18.63,15.25l-1.58.03h0l-.77.02v-.13c-.11-1.11-.18-2.26-.2-3.41-.06-2.97.13-5.95.58-8.84.86-5.96,2.75-11.63,5.63-16.93.45-.85.17-1.96-.69-2.47-.82-.47-1.93-.18-2.38.72-3.05,5.61-5.1,11.73-6.04,18.09-.49,3.16-.68,6.36-.61,9.5.03,1.24.09,2.48.21,3.68,0,.4.06.8.11,1.15v.18s0,.09,0,.13c.02.89.72,1.58,1.57,1.56l2.65-.06h0l21.59-.45c-1.04,1.18-2.14,2-3.55,2.03-.86.02-1.52.74-1.51,1.63s.72,1.58,1.57,1.56l18.04-.38h0l1.67-.04c.81-.02,1.52-.79,1.51-1.63-.02-.89-.76-1.58-1.57-1.56h-.51c-.18-.52-.41-1.18-.68-1.93l59.01-1.24h0l2.57-.05c.86-.02,1.52-.74,1.51-1.63,0-.04.12-.62.11-.89.1-1.38.11-2.8.08-4.22-.11-5.05-.9-10.05-2.32-14.81h0Zm-74.97,7.12c.96-1.31,2.08-2.7,2.42-2.98,1.39-.92,3.52-1.23,6-1.55.98-.15,2-.31,3.03-.46-.38.41-.71.72-.88.86-1.64,1.28-2.53,1.87-4.13,2.97l-.67.5c-2.32,1.6-3.34,3.75-4.2,5.5-.33.67-.66,1.3-.99,1.79-1.49,2.25-7.76,5.22-12.49,6.16,4.89-3.65,9.17-9.2,11.92-12.8h0Zm1.62,17.88c.42-.5.83-.99,1.25-1.49,1.71-2.08,3.17-3.88,5.61-3.98.09.04.95.42,2.3,3.5.27.62.5,1.23.68,1.76l-9.83.21h0Zm10.92-5.33h0c-1.24-2.24-2.64-3.36-4.09-3.33-2.99.06-5.01,1.75-6.64,3.55l-4.53.1c2.03-1.02,4.61-2.58,5.81-4.38.46-.67.83-1.44,1.19-2.2.78-1.57,1.56-3.18,3.2-4.32l.67-.46c1.56-1.1,2.53-1.78,4.21-3.06.67-.55,1.76-1.72,3.56-3.76,1.59-1.81,3.39-3.8,5.06-5.43,2.43-2.4,3.28-2.69,3.41-2.69,1.11-.02,3.99,2.49,5.86,4.13,1.79,1.56,3.49,3.03,5,3.93,1.52.86,2.75,2.51,4.07,4.26,1.67,2.23,3.43,4.58,6.11,5.81,2.03.89,3.65,2.58,5.35,4.32.83.87,1.75,1.83,2.71,2.65l-40.96.86h0Zm48.49-1.02h0c-3.42.07-5.56-2.15-8.06-4.75-1.84-1.87-3.72-3.87-6.27-5.01-.6-.25-1.12-.6-1.6-1.03.55-.32,1.1-.69,1.65-1.1,2.27-1.69,3.21-2.11,4.69-.54.96,1.04,2.06,2.26,3.2,3.61,3.11,3.53,5.96,6.66,8.48,8.78l-2.1.04h0Zm5.29-31.07c-.56.01-1.12-.24-1.47-.77-9.36-13.73-24.63-21.75-40.83-21.41-9.88.21-19.35,3.47-27.35,9.44-.8.59-1.87.39-2.45-.44-.57-.83-.38-1.94.42-2.54,8.55-6.39,18.7-9.88,29.3-10.11,17.36-.36,33.75,8.21,43.77,22.94.57.83.38,1.94-.42,2.54-.29.23-.63.32-.98.33h0Zm-42.89,69.82l-13.13.28c-.86.02-1.52.74-1.51,1.63s.72,1.58,1.57,1.56l13.13-.28c.86-.02,1.52-.74,1.51-1.63s-.72-1.58-1.57-1.56h0Zm-24.36-70.05c-.01-.53-.41-.97-.96-.96l-1.97.04c-.51.01-.93.46-.92,1s.45.97.96.96l1.97-.04c.51-.01.93-.46.92-1h0Zm69.88,13.26c-.01-.71-.58-1.32-1.27-1.3l-2.74.06c-.68.01-1.27.65-1.25,1.36.02.75.63,1.32,1.31,1.3l2.74-.06c.68-.01,1.23-.6,1.21-1.36h0Zm-21.23,44.26c-.02-.89-.72-1.58-1.57-1.56l-3.29.07c-.86.02-1.52.74-1.51,1.63s.72,1.58,1.57,1.56l3.29-.07c.86-.02,1.52-.74,1.51-1.63h0Zm-35.83,9.13c.86-.02,1.52-.74,1.51-1.63s-.72-1.58-1.57-1.56l-4.92.1c-.86.02-1.52.74-1.51,1.63s.72,1.58,1.57,1.56l4.92-.1h0Zm40.94-4.05l-6.54.14c-.86.02-1.52.74-1.51,1.63s.72,1.58,1.57,1.56l6.54-.14c.86-.02,1.52-.74,1.51-1.63s-.72-1.58-1.57-1.56h0Zm-41.67-67.29l-12.1.25c-.43,0-.76.5-.75,1.04.01.58.36,1.01.79,1l12.1-.25c.43,0,.76-.46.75-1.04-.01-.53-.36-1.01-.79-1h0Zm-13.43-2.02l8.42-.18c.56-.01.97-.51.96-1.04-.01-.58-.45-1.01-1-1l-8.42.18c-.56.01-.97.46-.96,1.04.01.53.45,1.01,1,1h0Zm76.26,13.92l-17.83.37c-.64.01-1.1.56-1.09,1.18s.49,1.14,1.14,1.13l17.83-.37c.6-.01,1.1-.56,1.09-1.18-.01-.66-.54-1.14-1.14-1.13h0Zm-13.14-2.34l9.49-.2c.64-.01,1.1-.56,1.09-1.18-.01-.67-.49-1.14-1.14-1.13l-9.49.2c-.64.01-1.1.51-1.09,1.18.01.62.49,1.14,1.14,1.13h0Zm-19.49,57.98l-24.63.52c-.86.02-1.52.74-1.51,1.63s.72,1.58,1.57,1.56l24.63-.52c.86-.02,1.52-.74,1.51-1.63s-.72-1.58-1.57-1.56h0Zm-18.16-3.21l13.17-.28c.81-.02,1.52-.74,1.51-1.63s-.76-1.58-1.57-1.56l-13.17.28c-.86.02-1.52.74-1.51,1.63s.72,1.58,1.57,1.56h0Zm-5.5-58.29l13.13-.28,3.29-.07,23-.48c.81-.02,1.52-.74,1.51-1.63-.08-3.68-3.05-6.63-6.64-6.56-.26,0-.55.06-.85.11-1.89-2.18-4.56-3.41-7.39-3.35-2.48.05-4.77,1.08-6.53,2.8-1.79-1.65-4.16-2.57-6.64-2.52-2.44.05-4.68,1.03-6.44,2.75-.3-.04-.6-.03-.86-.03-4.02.08-7.24,3.52-7.15,7.69.02.89.72,1.58,1.57,1.56h0Zm26.07-9.06c2.18-.05,4.26,1.02,5.54,2.86.4.57,1.13.82,1.77.58.38-.14.68-.19.98-.2,1.33-.03,2.5.75,3.08,1.84l-21.08.44-1.37.03c.53-1.12,1.67-1.94,2.95-1.97.34,0,.64.03,1.03.16.65.21,1.32-.07,1.7-.66,1.24-1.89,3.23-3.04,5.41-3.09h0Zm-20.43,3c.3,0,.6.03.99.11.56.12,1.11-.07,1.49-.47,1.25-1.49,2.99-2.32,4.83-2.36.98-.02,1.89.18,2.75.56-1.99.8-3.5,2.6-3.96,4.78l-9.96.21c.57-1.61,2.08-2.79,3.88-2.83h0Zm-34.95-8.4c-4.02.08-7.2,3.52-7.11,7.69.09,4.17,3.41,7.47,7.43,7.38,4.02-.08,7.2-3.52,7.11-7.69s-3.41-7.47-7.43-7.38h0Zm.27,12.94c-2.86.06-5.27-2.33-5.33-5.3s2.24-5.41,5.1-5.47c2.86-.06,5.22,2.29,5.29,5.26.06,2.97-2.2,5.46-5.06,5.52h0Zm37.77,93.54c-34.46.72-63.12-27.77-63.88-63.54-.75-35.73,26.69-65.4,61.15-66.13,34.51-.72,63.17,27.77,63.92,63.5.75,35.78-26.69,65.45-61.19,66.17h0Zm-2.65-126.03c-32.54.68-58.43,28.68-57.72,62.42.71,33.74,27.75,60.67,60.29,59.98,32.54-.68,58.47-28.73,57.76-62.46-.71-33.74-27.8-60.62-60.33-59.94h0Z"/>
      <text class="cls-4" transform="translate(76.53 223.06)"><tspan class="cls-1"><tspan x="0" y="0">Explo</tspan><tspan class="cls-5" x="100.67" y="0">r</tspan><tspan x="120.12" y="0">ador </tspan></tspan><tspan class="cls-2"><tspan x="0" y="30">“</tspan><tspan class="cls-7" x="10.79" y="30">P</tspan><tspan x="27.66" y="30">ara encontrarte a ti </tspan></tspan><tspan class="cls-2"><tspan x="0" y="60">mismo tienes que perderte </tspan></tspan><tspan class="cls-2"><tspan x="0" y="90">primero.”</tspan></tspan></text>
    </g>
  </g>
</svg>