<?xml version="1.0" encoding="UTF-8"?>
<svg id="Capa_2" data-name="Capa 2" xmlns="http://www.w3.org/2000/svg" viewBox="0 0 498.17 180.82">
  <defs>
    <style>
      .cls-1 {
        fill: #de1a4d;
        stroke-width: 0px;
      }
    </style>
  </defs>
  <g id="Capa_1-2" data-name="Capa 1">
    <g>
      <path class="cls-1" d="m415.24,78.4c.84-5.63,1.63-10.92,2.41-16.21.05-.32-.03-.71.12-.96.37-.62.84-1.17,1.28-1.76.24.64.75,1.31.68,1.91-.7,6.21-1.49,12.41-2.26,18.61-1.92,15.46-3.8,30.93-5.77,46.38-1.7,13.3-9.36,23.79-25.04,27.36-15.37,3.49-28.78.45-39.31-12.16.63-.56,1.22-1.08,1.86-1.66,4.2,4.22,8.58,7.97,14.09,10.28,6.89,2.88,13.97,2.69,21.08,1.48,5.65-.96,10.87-3.04,15.25-6.97,4.26-3.83,7.01-8.65,8.15-14.07,1.72-8.16,2.74-16.46,4.05-24.7.03-.21-.07-.43-.02-.16-3.22,3.44-6.21,7.54-10.06,10.58-10.87,8.58-23.06,11.45-36.2,5.82-8.66-3.71-13.83-10.78-16.01-19.87-4.06-16.87,6.43-33.3,19.94-40.07,8.45-4.24,17.19-5.65,26.4-2.83,8.6,2.63,14.51,8.21,18.08,16.39.26.59.5,1.2.75,1.79.06.14.17.26.54.82Zm-36.58,43.97c7.75,0,14.14-2.12,20.99-7.09,11.23-8.15,17.7-23.65,11.97-37.57-4.05-9.86-11.45-15.59-21.91-16.92-17.07-2.17-33.6,10.19-37.75,26.83-4.25,17.08,8.11,35.39,26.7,34.75Z"/>
      <path class="cls-1" d="m209.77,78.25c.92-5.79,1.82-11.38,2.7-16.98.19-1.19.33-2.38,2.15-1.5-.84,6.98-1.66,13.97-2.52,20.96-1.05,8.53-2.14,17.05-3.22,25.58-.68,5.39-1.33,10.78-2.14,16.15-.1.63-1.14,1.12-1.74,1.68-.26-.17-.53-.34-.79-.51.78-6.06,1.56-12.12,2.44-18.92-1.03,1.32-1.66,2.04-2.19,2.83-7.22,10.75-17.36,16.74-30.22,17.35-11.44.54-20.62-4.01-26.68-14.11-3.93-6.54-5.26-13.68-4.03-21.06,1.09-6.52,3.93-12.52,8.28-17.6,8.81-10.28,19.95-15.44,33.55-13.8,11.5,1.38,19.4,7.89,23.69,18.69.12.3.19.62.3.93.02.06.12.1.4.33Zm-36.41,44.11c7.42.19,13.93-2.35,19.99-6.45,11.6-7.85,18.54-23.57,13.17-37.47-3.91-10.13-11.28-16.13-21.96-17.63-10.07-1.42-19.01,1.84-26.54,8.39-7.98,6.95-12.66,15.77-12.23,26.63.59,14.82,12.36,27.14,27.56,26.53Z"/>
      <path class="cls-1" d="m326.61,116.01c-1.29.92-2.53,1.92-3.88,2.74-10.19,6.23-21.05,8.09-32.38,3.93-11.95-4.38-19.31-17.03-17.81-30.46,1.51-13.48,8.6-23.47,20.31-30.2,7.45-4.28,15.45-5.84,23.9-4.07,10.93,2.29,18.29,8.8,22.2,19.27,1.72,4.6,1.96,9.31,1.49,14.58h-65.37c-1.09,4.29-.12,8.27,1.2,12.04,5.33,15.29,20.1,21.58,35.17,17.16,4.26-1.25,8.19-3.75,12.16-5.86,1.34-.71,2.15-.93,3.02.87Zm10.99-26.53c.63-3.72-.08-8.1-2.13-12.94-5.97-14.09-21.17-19.33-34.86-15.15-6.97,2.13-12.68,6.05-17.26,11.63-3.94,4.79-6.89,10.1-7.89,16.46h62.15Z"/>
      <path class="cls-1" d="m498.17,59.84c-3.17,5.72-6.33,11.44-9.5,17.16-1.45,2.61-2.93,5.2-4.4,7.8-5.69,10.03-11.41,20.05-17.07,30.1-3.22,5.71-6.35,11.48-9.53,17.21-4.05,7.29-8.06,14.59-12.25,21.8-.44.76-1.93.92-2.94,1.35l-.56-.67c.9-1.65,1.8-3.29,2.71-4.94,3.51-6.38,6.75-12.92,10.64-19.06,2.17-3.42,2.16-6.4.96-9.98-2.75-8.2-5.25-16.49-7.88-24.74-3.51-11.02-7.05-22.03-10.56-33.05-.32-.99-.49-2.03-.74-3.05,1.82-.75,2.53-.2,3.08,1.52,5.01,15.79,10.12,31.55,15.22,47.32,1.42,4.38,2.9,8.73,4.51,13.56,1.19-2.02,2.22-3.67,3.17-5.37,5.22-9.31,10.36-18.66,15.64-27.93,5.32-9.34,10.75-18.61,16.23-27.86.52-.87,1.75-1.33,2.64-1.98.2.27.41.53.61.8Z"/>
      <path class="cls-1" d="m0,117.84c1.27-1.19,1.83-1.72,2.38-2.23,8.12,8.08,21.03,9.76,30.57,2.62,5.45-4.07,7.64-11.47,5-17.55-1.41-3.26-4.26-5.12-7.26-6.52-5.06-2.35-10.25-4.41-15.44-6.46-3.71-1.46-6.06-4.12-6.79-7.88-1.75-9.01,3.21-17.24,11.94-19.94,7.16-2.22,13.96-1.32,20.16,3.04,1.16.82,2.09,1.95,3.2,3.01-.62.77-1.06,1.32-1.73,2.14-3.12-4.11-7.41-5.77-12.16-6.54-9.31-1.52-19.19,4.74-19.27,14.6-.05,5.93,6.11,10.38,10.13,11.57,6.03,1.77,12.12,3.44,16.94,7.91,4,3.7,4.64,8.29,3.53,13.17-3.22,14.12-17.24,18.77-28.19,15.65-3.21-.92-6.25-2.48-9.28-3.92-1.28-.61-2.35-1.67-3.71-2.67Z"/>
      <path class="cls-1" d="m245.27,63.25h-15.19c.05-.86.09-1.54.12-2.2.36-.12.58-.26.79-.26,4.07-.02,8.14-.14,12.2.01,1.92.07,2.51-.63,2.72-2.42.95-8.14,2.01-16.26,3.03-24.39.11-.88.24-1.75.38-2.72h2.3c-1.12,9.8-2.23,19.45-3.37,29.41h21.65c-.06.98-.1,1.65-.15,2.53h-21.96c-2.48,20.21-4.94,40.24-7.42,60.46-.62.05-1.31.11-2.55.21,2.49-20.25,4.95-40.25,7.45-60.63Z"/>
      <path class="cls-1" d="m78.9,31.47c-1.15,9.6-2.3,19.23-3.49,29.18h21.51c.51,2.15-.3,2.64-2.07,2.62-6.5-.07-12.99-.03-19.77-.03-.47,3.69-.95,7.27-1.39,10.86-1.47,11.91-2.92,23.83-4.38,35.75-.5,4.1-1.05,8.2-1.5,12.32-.17,1.55-.89,1.94-2.71,1.38,2.45-19.93,4.91-39.93,7.4-60.24h-15.4c.23-.99.38-1.68.58-2.55h15.09c.62-4.89,1.21-9.63,1.82-14.36.59-4.58,1.22-9.16,1.79-13.75.19-1.58.96-1.85,2.53-1.17Z"/>
      <path class="cls-1" d="m143.11,58.13c.39,1.78,0,2.48-1.67,2.66-11.55,1.29-20.8,6.39-26.62,16.73-1.25,2.22-2.22,4.78-2.57,7.28-1.62,11.49-2.97,23.01-4.42,34.52-.12.97-.42,1.92-.43,2.88-.02,1.71-.98,1.78-2.7,1.39,2.7-21.23,5.41-42.5,8.16-63.77.02-.17.66-.26,1.49-.56-.52,5.43-1.02,10.54-1.51,15.65,7.37-10.61,17.55-15.86,30.27-16.79Z"/>
      <g>
        <circle class="cls-1" cx="130.26" cy="176.69" r="1.95"/>
        <circle class="cls-1" cx="142.71" cy="162.66" r="1.95"/>
        <circle class="cls-1" cx="106.65" cy="150.55" r="1.95"/>
        <circle class="cls-1" cx="128.76" cy="138.96" r="2.44"/>
        <circle class="cls-1" cx="121.65" cy="139.33" r="1.71"/>
        <circle class="cls-1" cx="152.97" cy="148.51" r="1.47"/>
        <circle class="cls-1" cx="153.97" cy="143.18" r="1.95"/>
        <circle class="cls-1" cx="142.4" cy="130.37" r="1.95"/>
        <circle class="cls-1" cx="154.53" cy="137.1" r="2.2"/>
        <circle class="cls-1" cx="148.54" cy="129.95" r="2.2"/>
        <circle class="cls-1" cx="154.88" cy="130.27" r="2.69"/>
        <circle class="cls-1" cx="136.53" cy="130.55" r="1.47"/>
        <circle class="cls-1" cx="131.63" cy="168.94" r="2.44"/>
        <circle class="cls-1" cx="144.03" cy="155.88" r="2.44"/>
        <circle class="cls-1" cx="144.46" cy="147.59" r="2.93"/>
        <circle class="cls-1" cx="136.59" cy="138.87" r="2.93"/>
        <circle class="cls-1" cx="145.39" cy="138.83" r="3.42"/>
        <circle class="cls-1" cx="114.52" cy="149.73" r="2.69"/>
        <circle class="cls-1" cx="123.32" cy="149.69" r="3.17"/>
        <circle class="cls-1" cx="132.34" cy="159.93" r="3.17"/>
        <circle class="cls-1" cx="133.36" cy="149.46" r="3.91"/>
      </g>
      <g>
        <circle class="cls-1" cx="112.77" cy="25.56" r="1.95"/>
        <circle class="cls-1" cx="126.81" cy="38.01" r="1.95"/>
        <circle class="cls-1" cx="138.92" cy="1.95" r="1.95"/>
        <circle class="cls-1" cx="150.51" cy="24.06" r="2.44"/>
        <circle class="cls-1" cx="150.13" cy="16.95" r="1.71"/>
        <circle class="cls-1" cx="140.96" cy="48.27" r="1.47"/>
        <circle class="cls-1" cx="146.28" cy="49.28" r="1.95"/>
        <circle class="cls-1" cx="159.1" cy="37.7" r="1.95"/>
        <circle class="cls-1" cx="152.37" cy="49.83" r="2.2"/>
        <circle class="cls-1" cx="159.52" cy="43.84" r="2.2"/>
        <circle class="cls-1" cx="159.2" cy="50.18" r="2.69"/>
        <circle class="cls-1" cx="158.91" cy="31.83" r="1.47"/>
        <circle class="cls-1" cx="120.53" cy="26.93" r="2.44"/>
        <circle class="cls-1" cx="133.59" cy="39.34" r="2.44"/>
        <circle class="cls-1" cx="141.88" cy="39.76" r="2.93"/>
        <circle class="cls-1" cx="150.59" cy="31.89" r="2.93"/>
        <circle class="cls-1" cx="150.63" cy="40.7" r="3.42"/>
        <circle class="cls-1" cx="139.74" cy="9.82" r="2.69"/>
        <circle class="cls-1" cx="139.78" cy="18.62" r="3.17"/>
        <circle class="cls-1" cx="129.54" cy="27.64" r="3.17"/>
        <circle class="cls-1" cx="140" cy="28.66" r="3.91"/>
      </g>
      <g>
        <circle class="cls-1" cx="230.77" cy="4.13" r="1.95"/>
        <circle class="cls-1" cx="218.32" cy="18.16" r="1.95"/>
        <circle class="cls-1" cx="254.37" cy="30.27" r="1.95"/>
        <circle class="cls-1" cx="232.27" cy="41.86" r="2.44"/>
        <circle class="cls-1" cx="239.38" cy="41.49" r="1.71"/>
        <circle class="cls-1" cx="208.06" cy="32.31" r="1.47"/>
        <circle class="cls-1" cx="207.05" cy="37.64" r="1.95"/>
        <circle class="cls-1" cx="218.62" cy="50.45" r="1.95"/>
        <circle class="cls-1" cx="206.5" cy="43.72" r="2.2"/>
        <circle class="cls-1" cx="212.49" cy="50.87" r="2.2"/>
        <circle class="cls-1" cx="206.15" cy="50.55" r="2.69"/>
        <circle class="cls-1" cx="224.5" cy="50.26" r="1.47"/>
        <circle class="cls-1" cx="229.4" cy="11.88" r="2.44"/>
        <circle class="cls-1" cx="216.99" cy="24.94" r="2.44"/>
        <circle class="cls-1" cx="216.57" cy="33.23" r="2.93"/>
        <circle class="cls-1" cx="224.44" cy="41.95" r="2.93"/>
        <circle class="cls-1" cx="215.63" cy="41.99" r="3.42"/>
        <circle class="cls-1" cx="246.51" cy="31.09" r="2.69"/>
        <circle class="cls-1" cx="237.7" cy="31.13" r="3.17"/>
        <circle class="cls-1" cx="228.69" cy="20.89" r="3.17"/>
        <circle class="cls-1" cx="227.67" cy="31.35" r="3.91"/>
      </g>
      <g>
        <circle class="cls-1" cx="242.88" cy="155.26" r="1.95"/>
        <circle class="cls-1" cx="228.84" cy="142.81" r="1.95"/>
        <circle class="cls-1" cx="216.73" cy="178.87" r="1.95"/>
        <circle class="cls-1" cx="205.15" cy="156.76" r="2.44"/>
        <circle class="cls-1" cx="205.52" cy="163.87" r="1.71"/>
        <circle class="cls-1" cx="214.7" cy="132.55" r="1.47"/>
        <circle class="cls-1" cx="209.37" cy="131.54" r="1.95"/>
        <circle class="cls-1" cx="196.55" cy="143.12" r="1.95"/>
        <circle class="cls-1" cx="203.29" cy="130.99" r="2.2"/>
        <circle class="cls-1" cx="196.13" cy="136.98" r="2.2"/>
        <circle class="cls-1" cx="196.46" cy="130.64" r="2.69"/>
        <circle class="cls-1" cx="196.74" cy="148.99" r="1.47"/>
        <circle class="cls-1" cx="235.13" cy="153.89" r="2.44"/>
        <circle class="cls-1" cx="222.07" cy="141.48" r="2.44"/>
        <circle class="cls-1" cx="213.77" cy="141.06" r="2.93"/>
        <circle class="cls-1" cx="205.06" cy="148.93" r="2.93"/>
        <circle class="cls-1" cx="205.02" cy="140.12" r="3.42"/>
        <circle class="cls-1" cx="215.91" cy="171" r="2.69"/>
        <circle class="cls-1" cx="215.87" cy="162.2" r="3.17"/>
        <circle class="cls-1" cx="226.11" cy="153.18" r="3.17"/>
        <circle class="cls-1" cx="215.65" cy="152.16" r="3.91"/>
      </g>
    </g>
  </g>
</svg>