<?xml version="1.0" encoding="UTF-8"?>
<svg id="Capa_2" data-name="Capa 2" xmlns="http://www.w3.org/2000/svg" viewBox="0 0 669.19 159.74">
  <defs>
    <style>
      .cls-1 {
        fill: #333988;
        stroke-width: 0px;
      }
    </style>
  </defs>
  <g id="Capa_1-2" data-name="Capa 1">
    <g>
      <path class="cls-1" d="m581.97,82.93c.79-5.25,1.55-10.5,2.41-15.74.15-.92.7-1.77,1.07-2.65.42.13.84.27,1.25.4-.64,4.84-1.31,9.68-1.91,14.52-1.79,14.61-3.39,29.24-5.4,43.82-.82,5.97-1.89,12.03-3.91,17.67-2.81,7.88-9,13-16.78,15.75-9.93,3.5-20.05,4.46-30.15.39-5.73-2.31-10.26-6.23-14.34-10.78,1.04-1.7,1.89-2.01,3.32-.42,11.92,13.28,28.89,13.69,43.02,7.32,6.76-3.05,11.15-8.72,13.26-15.84,1.31-4.42,2.23-8.98,3.02-13.53.77-4.45,1.15-8.97,1.74-13.78-2.48,2.95-4.61,5.82-7.07,8.38-9.89,10.27-26.78,15.34-40.69,7.9-9.32-4.99-13.98-13.24-15.09-23.68-1.75-16.35,9.72-30.28,22.38-36.04,7.25-3.3,14.7-4.01,22.31-2.44,9.61,1.99,16.21,7.95,20.21,16.85.28.63.53,1.28.8,1.92.18,0,.37-.01.55-.02Zm-31.46-17c-4.32-.18-10.4,1.84-16.03,5.3-5.6,3.44-10.17,8.19-13.11,13.89-4.21,8.18-4.79,16.99-1.07,25.67,3.69,8.59,10.09,14.09,19.38,15.91,16.07,3.14,33.42-7.34,38.93-23.25,6.5-18.8-6.07-37.42-28.1-37.51Z"/>
      <path class="cls-1" d="m488.84,128.39c.79-5.86,1.57-11.73,2.36-17.59-.2-.08-.39-.16-.59-.24-1.52,2-2.9,4.13-4.59,5.97-9.43,10.21-20.93,15.17-34.87,12.56-9.23-1.73-15.94-7.27-19.97-15.81-4.41-9.33-4.32-18.91.17-28.01,3.57-7.23,9.05-13.17,16.25-17.19,7.54-4.21,15.68-5.61,24.16-4.19,10.38,1.73,17.31,7.99,21.66,17.35.22.46.44.92.68,1.37.03.05.19.04.55.09,1.63-13.76,3.22-27.51,4.9-41.25,1.58-12.96,3.23-25.92,4.93-38.87.12-.9.95-1.7,1.45-2.55.39.16.77.32,1.16.48-.22,2.21-.4,4.42-.67,6.62-.99,8.06-2.02,16.12-3.02,24.19-2.3,18.68-4.57,37.36-6.88,56.04-1.62,13.07-3.26,26.13-4.98,39.18-.12.91-.96,1.73-1.46,2.59-.42-.25-.84-.49-1.26-.74Zm-58.16-29.65c.08,13.59,8.3,24.76,19.83,27.63,19.4,4.82,40.18-9.99,42.26-29.89,1.56-14.94-8.2-26.89-20.05-29.67-8.45-1.98-16.66-.91-24.11,3.63-10.79,6.59-17.85,15.65-17.92,28.29Z"/>
      <path class="cls-1" d="m354.05,96.76c-1.93,9.9,3.56,21.72,12.04,26.37,11.62,6.38,22.83,5,33.89-1.6,1.31-.78,2.76-3.65,5.05-1.06-13.03,11.9-37.09,13.99-49.23-3.48-6.45-9.28-6.12-25.47.21-34.79,4.8-7.06,10.51-12.82,18.32-16.36,14.94-6.76,34.3-2.83,41.96,14.04,1.97,4.35,2.81,8.73,2.88,13.41.04,2.58-.69,3.54-3.51,3.52-19.26-.13-38.51-.07-57.77-.07-1.23,0-2.46,0-3.84,0Zm61.89-2.34c.61-5.79-.13-8.97-3.53-15.54-4.88-9.44-18.21-15.31-28.61-13.34-11.76,2.23-20.06,9-26.25,18.68-1.85,2.9-2.63,6.49-4.06,10.19h62.45Z"/>
      <path class="cls-1" d="m654.99,120.63c-13.96,12.23-37.75,13.11-48.75-3.26-6.65-9.89-7.22-20.74-2.33-31.17,7.71-16.44,25.05-27.62,44.57-22.05,8.47,2.42,14.23,8.17,18.09,16.03,2.55,5.18,3,10.57,2.36,16.56h-65.02c-1.82,10.36,4.36,22.65,13.31,27.04,11.64,5.71,22.67,4.06,33.36-2.62,1.2-.75,2.44-2.96,4.42-.52Zm-50.91-26.29h62.32c-.08-4.55-.54-8.63-2.49-12.71-5-10.41-13.23-15.9-24.53-16.24-12.33-.37-21.79,5.48-29.23,15.04-3.2,4.12-5.35,8.61-6.07,13.9Z"/>
      <path class="cls-1" d="m316.71,65.14c-12.85,22.33-25.7,44.65-38.85,67.49-5-15.73-9.84-30.92-14.96-47.04-8.47,16.03-16.53,31.28-24.82,46.97-7.47-22.73-14.81-45.07-22.16-67.41.17-.23.33-.46.5-.69.81.62,2.06,1.07,2.35,1.87,2.22,6.29,4.26,12.64,6.33,18.98,4.29,13.18,8.55,26.36,12.83,39.54.18.56.5,1.07.91,1.91,2.48-4.68,4.83-9.07,7.13-13.48,4.99-9.54,10.02-19.06,14.85-28.68.57-1.14.29-2.94-.11-4.28-1.53-5.09-3.28-10.11-4.94-15.16.27-.25.55-.5.82-.74.78.67,1.99,1.19,2.27,2.02,4.55,13.72,8.98,27.48,13.44,41.23,2.03,6.24,4.07,12.47,6.32,19.34,2.12-3.67,4.01-6.91,5.86-10.17,5.96-10.53,11.88-21.1,17.88-31.61,3.61-6.32,7.32-12.59,11.1-18.82.53-.87,1.68-1.36,2.55-2.02.24.25.47.5.71.76Z"/>
      <path class="cls-1" d="m49.67,64.06c-.43.83-.67,1.89-1.32,2.46-6.11,5.32-12.25,10.62-18.49,15.79-2.41,1.99-5.1,3.64-7.92,5.62,8.32,13.66,16.41,26.96,24.53,40.3q-2.69.88-3.98-1.2c-7.53-12.22-15.05-24.45-22.81-37.05-2.91,2.44-5.6,5.12-8.69,7.18-4.63,3.09-6.28,7.25-6.54,12.64-.27,5.74-1.29,11.44-2.1,17.14-.11.78-.87,1.46-1.33,2.19-.34-.15-.69-.3-1.03-.46.43-4.25.79-8.52,1.31-12.76,2.1-17.05,4.27-34.09,6.36-51.14,1.57-12.77,3.05-25.54,4.6-38.31.98-8.07,1.97-16.13,3.07-24.18.11-.82.97-1.54,1.48-2.3.42.17.84.35,1.25.52-3.96,32.26-7.91,64.52-11.92,97.26,14.41-11.64,28.45-22.98,42.49-34.32.34.2.69.4,1.03.6Z"/>
      <path class="cls-1" d="m145.18,97.79c-.33-10.95,8.16-20.41,17.36-24.33,7.82-3.33,15.57-3.11,22.58,1.89,8.83,6.3,11.2,14.56,7.88,25.25-3.49,11.25-15.98,19.86-27.7,19.1-11.67-.76-20.22-10.06-20.12-21.91Zm21.94,18.51c10.18,0,21.69-8.36,23.49-20.21,1.86-12.26-7.93-22.02-19.22-21.22-10.34.74-18.09,6.15-21.81,16.36-4.54,12.47,4.29,25.11,17.54,25.07Z"/>
      <path class="cls-1" d="m62.53,128.47c-.37-6.01,7.3-62.75,9.27-64.15-.49,5.41-.93,10.32-1.39,15.46,2.47-2.6,4.65-5.19,7.12-7.44,7.58-6.89,16.59-9.78,26.72-8.53,9.45,1.17,15.13,8.69,14,18.42-1.7,14.61-3.58,29.2-5.45,43.79-.16,1.27.32,3.5-2.76,2.59.16-1.54.29-3.13.48-4.72,1.24-10.42,2.48-20.84,3.76-31.25.41-3.36,1.01-6.71,1.4-10.07,1.11-9.44-4.15-15.77-13.58-16.44-13.38-.95-27.96,8.32-32.05,20.96-1.37,4.24-1.4,8.92-1.96,13.4-1.1,8.78-2.1,17.56-3.25,26.33-.11.83-.94,1.56-1.44,2.33-.3-.23-.6-.46-.9-.69Z"/>
      <path class="cls-1" d="m344.5.78c-.71,5.59-1.43,11.18-2.12,16.78-1.58,12.97-3.12,25.94-4.71,38.91-2.07,16.84-4.16,33.68-6.25,50.51-.81,6.53-1.6,13.07-2.51,19.58-.13.91-.97,1.71-1.47,2.57l-1.2-.52c.49-4.56.93-9.13,1.47-13.69.97-8.17,2-16.34,3.02-24.51,2.84-22.66,5.69-45.32,8.53-67.97.85-6.74,1.67-13.48,2.62-20.2.11-.8,1-1.49,1.53-2.23.36.25.73.51,1.09.76Z"/>
      <path class="cls-1" d="m150.28,136.92c20.72,8.03,39.01,4.65,54.67-11.4-2.25,6.85-18.21,16.89-32.02,17.15-10.02.19-21.45-2.36-22.65-5.75Z"/>
      <path class="cls-1" d="m134.9,65.98c-.27-4.3,11.31-12.73,21.02-15.73,10.59-3.27,30.7-1.22,33.91,4.14-21.12-8.21-39.42-4.84-54.93,11.59Z"/>
      <path class="cls-1" d="m185.3,65.63c-15.71-5.29-29.81-3.41-41.87,9.58,2.1-11.84,30.84-18.21,41.87-9.58Z"/>
      <path class="cls-1" d="m196.07,116.73c-4.24,11.71-32.87,17.79-41.56,8.77,15.68,5.53,29.69,3.39,41.56-8.77Z"/>
    </g>
  </g>
</svg>