<?xml version="1.0" encoding="UTF-8"?>
<svg id="Capa_2" data-name="Capa 2" xmlns="http://www.w3.org/2000/svg" viewBox="0 0 656.01 164.51">
  <defs>
    <style>
      .cls-1 {
        stroke-width: 0px;
      }

      .cls-1, .cls-2 {
        fill: #588b92;
      }

      .cls-2 {
        stroke: #588b92;
        stroke-miterlimit: 10;
        stroke-width: 1.4px;
      }
    </style>
  </defs>
  <g id="Capa_1-2" data-name="Capa 1">
    <g>
      <g>
        <circle class="cls-1" cx="600.29" cy="60.42" r="2.1"/>
        <circle class="cls-1" cx="620.33" cy="57.8" r="2.1"/>
        <circle class="cls-1" cx="599.57" cy="22.47" r="2.1"/>
        <circle class="cls-1" cx="625.73" cy="28.68" r="2.63"/>
        <circle class="cls-1" cx="619.69" cy="23.95" r="1.84"/>
        <circle class="cls-1" cx="638.67" cy="53.55" r="1.58"/>
        <circle class="cls-1" cx="643.26" cy="49.93" r="2.1"/>
        <circle class="cls-1" cx="642.9" cy="31.33" r="2.1"/>
        <circle class="cls-1" cx="648.01" cy="45.37" r="2.37"/>
        <circle class="cls-1" cx="648.19" cy="35.32" r="2.37"/>
        <circle class="cls-1" cx="653.12" cy="40.06" r="2.89"/>
        <circle class="cls-1" cx="637.99" cy="27.33" r="1.58"/>
        <circle class="cls-1" cx="606.88" cy="55.08" r="2.63"/>
        <circle class="cls-1" cx="626.2" cy="53.23" r="2.63"/>
        <circle class="cls-1" cx="632.4" cy="46.78" r="3.16"/>
        <circle class="cls-1" cx="632.16" cy="34.14" r="3.16"/>
        <circle class="cls-1" cx="639.35" cy="40.32" r="3.68"/>
        <circle class="cls-1" cx="606.54" cy="27.36" r="2.89"/>
        <circle class="cls-1" cx="613.73" cy="33.55" r="3.42"/>
        <circle class="cls-1" cx="613.83" cy="48.25" r="3.42"/>
        <circle class="cls-1" cx="622.05" cy="40.47" r="4.21"/>
      </g>
      <g>
        <path class="cls-2" d="m190.85,107.2c-7.48,7.42-15.85,12.25-26.04,13.91-23.89,3.88-43.69-15.66-40.05-39.6,3.86-25.33,25.66-42.56,50.96-40.13,8.99.86,16.21,5.13,21.81,12.17.62.78,1.23,1.58,2.12,2.72.79-3.9,1.51-7.38,2.22-10.87.43.1.87.19,1.3.29-.41,2.56-.8,5.12-1.25,7.68-4.32,24.68-8.5,49.39-13.01,74.04-3.4,18.56-17.51,32.46-35.71,35.8-12.19,2.24-23.38-1.71-30.36-11.24,1.28.26,2.12.17,2.55.55,14.34,12.6,31.68,12.6,46.96-.01,8.12-6.7,13.27-15.05,14.88-25.57,1.01-6.6,2.4-13.15,3.62-19.72Zm-31.59,12.42c12.91-.21,23.29-5.47,31.14-15.71.67-.87,1.22-1.97,1.41-3.03,2.36-13.09,4.69-26.19,6.87-39.32.23-1.36-.17-3.11-.89-4.31-4.2-6.92-10.3-11.41-18.17-13.44-22.8-5.9-48.72,11.73-52.87,35.4-4.14,23.55,12.29,40.66,32.51,40.4Z"/>
        <path class="cls-2" d="m392.55,116.4c.77-4.62,1.49-9.25,2.31-13.86,1.93-10.97,3.96-21.92,5.84-32.9,2.69-15.68-11.32-29.16-27.68-26.72-13.7,2.05-24.77,13.13-27.23,27.25-2.53,14.53-5.05,29.06-7.62,43.58-.19,1.08-.74,2.09-1.12,3.13-.41-.12-.81-.25-1.22-.37.72-4.2,1.43-8.4,2.16-12.6,1.97-11.28,3.79-22.58,5.95-33.82,3.05-15.84-9.53-28.01-25.07-27.38-14.83.6-27.41,12.54-30.14,28.51-2.44,14.34-4.99,28.65-7.51,42.98-.15.83-.5,1.63-.88,2.85-1.25-2.55,10.4-69.5,12.69-71.42-.25,2.01-.46,4.02-.77,6.02-.33,2.13-.76,4.24-.93,6.59,7-10.66,16.16-17.39,29.41-17.16,12.68.22,21.91,7.59,25.58,20.98.56-1.04.99-1.79,1.38-2.55,7.51-14.76,24.26-22.05,38.77-16.88,11.28,4.03,17.91,15.23,15.88,26.96-2.54,14.74-5.12,29.47-7.71,44.2-.18,1-.55,1.97-.83,2.95-.42-.11-.85-.21-1.27-.32Z"/>
        <path class="cls-2" d="m410.38,82.2c-.74,7.67.43,14.48,4.18,20.7,3.65,6.07,8.58,10.81,15.24,13.53,6.69,2.73,13.58,3.06,20.67,1.93,6.76-1.09,12.4-4.79,18.4-7.73-3.93,4.39-8.87,6.89-14.32,8.51-19.18,5.71-38.48-3.23-44.43-21.12-4.55-13.69-1.35-26.48,7.22-37.65,10.32-13.45,23.93-20.63,41.33-19.07,14.34,1.28,25.6,12.41,27.12,26.93.37,3.57.05,7.21.18,10.81.09,2.6-1.07,3.24-3.55,3.23-22.72-.08-45.45-.05-68.17-.05-1.22,0-2.44,0-3.88,0Zm74.14-1.88c0-3.3.2-6.38-.03-9.44-1.23-16.49-12.69-27.51-29.2-28.19-16.6-.68-34.29,10.64-41.26,26.63-1.5,3.43-2.38,7.13-3.64,11h74.14Z"/>
        <path class="cls-2" d="m75.68,56.14c.76-3.85,1.44-7.29,2.13-10.74.47.1.95.21,1.42.31-4.16,23.61-8.32,47.22-12.48,70.82-.49-.07-.98-.13-1.47-.2.5-3.31,1-6.62,1.59-10.51-1.8,1.66-3.17,2.98-4.6,4.24-10.18,8.99-21.96,12.58-35.3,9.76C9.09,116.04-1.63,99.55,1.13,80.56c3.45-23.74,26.17-41.62,49.99-39.23,9.3.93,16.77,5.37,22.67,12.56.56.68,1.12,1.35,1.88,2.26Zm-35.41,62.86c8.64-.01,18.57-6.66,26.9-16.34.44-.51.67-1.27.79-1.95,2.28-12.89,4.59-25.78,6.72-38.69.24-1.47-.17-3.33-.94-4.62-4.77-8.05-12.07-12.65-21.15-14.12-20.11-3.26-41.39,10.13-47.95,29.92-7.92,23.88,6.8,45.68,35.62,45.81Z"/>
        <path class="cls-2" d="m503.17,58.63c2.34-2.69,4.21-5.28,6.51-7.42,8.76-8.14,18.98-12.09,30.95-9.33,11.79,2.72,19.37,13.97,17.46,25.93-2.48,15.48-5.33,30.91-8.06,46.35-.16.9-.7,1.73-1.06,2.59-.33-.11-.65-.22-.98-.34.88-5.12,1.76-10.25,2.65-15.37,1.89-10.77,3.89-21.52,5.66-32.32,2.47-15.07-10.62-27.98-26.09-25.87-15.11,2.06-27.07,13.88-29.51,28.88-2.33,14.25-4.88,28.47-7.37,42.7-.14.8-.68,1.54-1.37,3.03-.86-4.62,11.22-70.72,13.57-72.51-.84,4.9-1.57,9.12-2.35,13.69Z"/>
        <path class="cls-2" d="m206.58,116.43c4.2-23.47,8.39-46.94,12.63-70.4.04-.24.8-.36,1.76-.75-.82,4.66-1.55,8.86-2.32,13.22,2.68-2.93,4.97-5.98,7.79-8.43,7.46-6.5,16.1-9.89,26.19-8.8,13.44,1.46,23.05,13.44,20.94,26.77-2.46,15.48-5.36,30.89-8.08,46.33-.14.8-.43,1.57-.65,2.35-.37-.06-.74-.12-1.11-.18.05-.87,0-1.76.15-2.62,2.51-14.43,4.74-28.92,7.65-43.27,3.38-16.71-10.54-32.22-29.67-27.01-14.11,3.84-23.01,13.28-25.64,27.99-2.56,14.32-5.02,28.65-7.56,42.97-.13.75-.62,1.44-.94,2.16-.38-.11-.76-.22-1.14-.34Z"/>
        <path class="cls-2" d="m84.38,116.91c.55-10.84,19.57-113.55,22.05-115.33-6.92,38.69-13.69,76.62-20.52,114.54-.05.27-.77.41-1.53.79Z"/>
        <path class="cls-2" d="m118.07,45.44c-1.43,14.95-11.67,69.85-13.85,71.53.18-1.62.25-2.75.44-3.87,3.68-21.97,7.35-43.95,11.09-65.91.15-.86.91-1.62,1.39-2.42.31.22.62.45.93.67Z"/>
        <path class="cls-2" d="m568.65,114.94c4.21-23.76,8.42-47.52,12.63-71.28.44.07.87.15,1.31.22-1.33,7.91-2.65,15.81-3.99,23.72-1.38,8.13-2.65,16.28-4.19,24.38-1.48,7.74-2.15,15.67-4.35,23.26-.47-.1-.93-.19-1.4-.29Z"/>
        <path class="cls-2" d="m567.58,40.34c.71-.45,1.41-1.28,2.12-1.29,11.44-.08,22.88-.06,34.32-.06.13.32.26.63.39.95-.77.44-1.53,1.27-2.3,1.27-11.35.08-22.71.06-34.06.06-.16-.31-.31-.63-.47-.94Z"/>
      </g>
    </g>
  </g>
</svg>