<?xml version="1.0" encoding="UTF-8"?>
<svg id="Capa_2" data-name="Capa 2" xmlns="http://www.w3.org/2000/svg" viewBox="0 0 564.77 202.88">
  <defs>
    <style>
      .cls-1 {
        fill: #e38520;
        stroke-width: 0px;
      }
    </style>
  </defs>
  <g id="Capa_1-2" data-name="Capa 1">
    <g>
      <path class="cls-1" d="m247.33,83.01c1.2-.08,2.39-.23,3.59-.24,6.51-.02,13.03-.13,19.54.05,2.5.07,3.66-.79,4.59-3.07,6.5-15.9,13.14-31.74,19.75-47.6.27-.64.58-1.26,1.01-2.2,4.98,2.38,9.84,4.7,15.19,7.25,0-3.32-.13-6.29.07-9.24.08-1.12.61-2.57,1.44-3.22,10.57-8.19,21.23-16.26,31.87-24.35.26-.2.64-.25,1.04-.4,7.42,12.34,14.83,24.66,22.31,37.08,1.63-.44,3.04-.81,4.74-1.27,1.61,4.93,3.33,9.71,4.69,14.6.69,2.47,1.93,3.22,4.39,3.28,3.99.1,8.95-.69,11.67,1.34,2.64,1.98,3.01,7.02,4.29,10.75,1.67,4.83,3.33,9.66,4.83,14.55.58,1.89,1.51,2.53,3.47,2.48,5.23-.13,10.47-.06,15.7-.03,1.05,0,2.1.21,3.15.32l-.06,1.02h-177.25c-.01-.37-.02-.74-.03-1.11Zm28.39-.52h125.64c-2.5-7.38-4.89-14.42-7.37-21.72-3.73,2.61-6.93,4.84-10.76,7.51,1.8-4.56,3.34-8.48,5.13-13.02-3.41,0-6.2.23-8.92-.11-1.13-.14-2.64-1.25-3.08-2.3-1.38-3.27-2.34-6.72-3.5-10.25-2.84.51-5.33,1.23-7.85,1.35-2.71.12-3.79,1.48-4.52,3.85-1.28,4.12-2.83,8.15-4.26,12.23-.6-5.3-.71-10.42-.52-15.53.04-1.18.8-2.6,1.68-3.44,2.26-2.14,4.77-4.01,7.14-5.95-6.65-11.1-13.13-21.9-19.83-33.08-5.25,11.52-10.12,22.7-15.45,33.66-2.66,5.47-3.11,11.04-2.91,16.89.16,4.81.03,9.63.03,14.45-3.55-5.51-6.25-11.23-9.02-16.92-.49-1-1.08-2.28-1.97-2.69-3.63-1.68-7.39-3.08-11.63-4.8.74,2.44,1.95,4.38,1.68,6.09-.28,1.79-2,3.34-3.08,5l-.94-.06c2.02-7.43-3.46-10.11-7.81-13.75-5.98,14.26-11.85,28.24-17.88,42.59Z"/>
      <path class="cls-1" d="m79.14,26.34c-.81,6.78-1.61,13.56-2.43,20.34-2.71,22.5-5.4,45.01-8.14,67.51-1.58,12.92-3.21,25.84-4.91,38.75-.11.84-.96,1.59-1.47,2.38-.38-.18-.77-.36-1.15-.54.71-5.91,1.42-11.83,2.16-17.98-3.57,3.79-6.58,7.62-10.23,10.72-8.43,7.17-18.4,10.05-29.27,7.95-19.64-3.79-29.68-26.18-19.92-44.72,7.1-13.48,18.21-21.63,33.96-21.84,12.81-.18,21.85,5.99,27.42,17.42.3.61.58,1.23,1.57,1.87.59-4.48,1.24-8.95,1.78-13.43,2.61-21.93,5.17-43.86,7.82-65.79.14-1.14.91-2.2,1.38-3.3.48.22.95.44,1.43.66Zm-41.42,65.1c-15.04-.18-29.52,10.72-33.83,25.44-5.73,19.53,9.25,39.85,30.83,36.29,12.81-2.11,21.66-9.32,27.5-20.7,9.48-18.48-3.8-40.79-24.49-41.03Z"/>
      <path class="cls-1" d="m449.18,123.69h-65.43c0,2.18-.21,4.13.03,6.02,2.12,16.23,16.45,26.92,32.56,23.63,5.3-1.08,10.21-4.12,15.3-6.24.98-.41,2.02-.66,3.27-.37-3.61,3.91-7.92,6.41-12.82,7.94-6.23,1.96-12.54,2.43-18.91.89-14.65-3.54-23.76-17.22-21.71-33.2,2.43-18.97,20.09-34.76,39.44-33.74,15.52.82,27.77,13.09,28.26,28.64.06,1.97,0,3.94,0,6.42Zm-64.79-2.27h62.44c-.3-2.96-.31-5.75-.91-8.41-3.29-14.61-16.41-23.29-32.08-21.36-14.16,1.74-28.21,15.87-29.45,29.76Z"/>
      <path class="cls-1" d="m269.21,156.03c-14.54.02-23.21-5.06-28.73-15.01-5.95-10.73-4.82-21.61,1.08-31.91,6.11-10.66,15.08-17.98,27.54-19.97,11.99-1.91,22.23,1.63,29.51,11.57,7.25,9.89,8.38,20.81,3.05,31.91-7.09,14.78-18.94,22.74-32.46,23.4Zm5.26-64.59c-16.79-.36-30.47,12.91-34.09,26.95-5.28,20.47,10.03,37.61,30.95,34.73,12.88-1.77,21.71-9.22,27.57-20.6,9.52-18.5-3.73-40.84-24.43-41.09Z"/>
      <path class="cls-1" d="m504.51,89.92c.75.85,1.86,1.58,2.19,2.56,6.54,19.95,12.98,39.93,19.61,60.42.9-1.45,1.58-2.49,2.19-3.56,10.77-18.85,21.52-37.72,32.35-56.55.67-1.16,1.9-1.98,2.88-2.96l1.04.83c-3.31,5.91-6.65,11.8-9.93,17.73-2.93,5.28-5.75,10.62-8.72,15.87-3.14,5.55-6.48,11-9.59,16.57-7.94,14.2-15.8,28.43-23.69,42.66-.89,1.61-1.57,3.58-4.52,2.21,3.9-7.01,7.43-14.19,11.76-20.85,3.29-5.06,4.05-9.49,2.02-15.45-6.24-18.35-11.72-36.96-17.49-55.47-.34-1.1-.63-2.21-.94-3.32.28-.23.56-.46.85-.69Z"/>
      <path class="cls-1" d="m337.02,155.87c-8.47-22.29-16.93-44.58-25.4-66.87.18-.25.35-.5.53-.75.99.83,2.49,1.47,2.91,2.53,4.81,12.32,9.41,24.72,14.15,37.08,2.86,7.46,5.86,14.87,9.03,22.9,1.14-1.44,1.95-2.35,2.63-3.35,10.45-15.48,20.87-30.99,31.35-46.45,2.41-3.56,4.92-7.06,7.58-10.43.79-1,2.28-1.47,3.45-2.17.15.26.3.52.44.78-15.15,22.23-30.29,44.46-45.44,66.68-.41.02-.82.05-1.23.07Z"/>
      <path class="cls-1" d="m114.54,146.97c7.86,7.42,18.94,9.12,27.94,3.7,2.84-1.71,5.79-4.42,7.04-7.37,3.46-8.17,1.78-12.58-5.05-16.54-4.18-2.43-8.94-3.86-13.35-5.92-9.58-4.48-12.3-8.89-10.77-17.07,1.4-7.48,8.56-13.58,17.02-14.12,6.22-.4,12.03.85,16.6,5.62,1.27,1.33,1.85,2.42-.31,3.33-7.55-7.16-16.95-8.53-24.37-3.52-3.39,2.29-5.78,5.32-6.5,9.51-.71,4.14.19,7.81,3.65,10.23,3.01,2.11,6.37,3.77,9.69,5.39,2.39,1.16,5.05,1.78,7.46,2.9,10.57,4.92,13.11,16.39,5.46,25.38-6.6,7.75-15.29,9.5-24.71,6.94-3.77-1.02-7.16-3.53-10.59-5.58-.53-.32-.35-1.84-.5-2.81.43-.02.85-.03,1.28-.05Z"/>
      <path class="cls-1" d="m227.74,97.52c-.97-.11-2.2.12-2.88-.38-21.52-16.16-51.86,4.19-52.48,27.3-.56,20.45,19.24,34.76,38.27,27.18,2.69-1.07,5.19-2.6,7.83-3.78.83-.37,1.86-.29,2.89.2-9.2,7.17-19.4,10.14-30.61,6.7-11.63-3.57-18.34-11.8-20.24-23.84-3.99-25.2,22.2-48.13,46.52-40.59,3.9,1.21,7.45,3.51,11.17,5.3-.16.64-.31,1.28-.47,1.92Z"/>
      <path class="cls-1" d="m459.69,154.65c2.69-21.45,5.38-42.9,8.07-64.35.43.04.85.08,1.28.12-.42,4.82-.84,9.65-1.26,14.47,7.8-9.55,17.51-15.07,29.88-15.86,1.07,2.27-.19,2.47-1.94,2.69-11.41,1.43-20.81,6.57-26.05,16.92-2.42,4.77-2.81,10.66-3.63,16.12-1.4,9.3-2.37,18.67-3.63,27.99-.12.89-1.02,1.67-1.56,2.51-.38-.2-.77-.4-1.15-.6Z"/>
      <path class="cls-1" d="m332.93,199.5c5.21-8.89,10.25-17.48,15.55-26.5,2.7,2.16,5.26,4.2,8.05,6.43,4.47-7.3,8.76-14.3,12.99-21.21,2.03,2.07,4.08,4.16,6.37,6.5,2.37-3.78,4.35-6.94,6.33-10.11.42.27.83.54,1.25.82-2.18,3.66-4.37,7.33-6.83,11.46-2.34-2.24-4.38-4.19-6.62-6.34-4.34,7.14-8.59,14.12-13.02,21.42-2.72-2.15-5.24-4.14-8.03-6.35-5.34,9.01-10.61,17.92-16.14,27.26-8.83-15.97-17.42-31.51-26-47.04.46-.26.92-.52,1.38-.78,8.17,14.69,16.34,29.37,24.73,44.44Z"/>
      <path class="cls-1" d="m99.54,90.74c-1.12,9.09-2.28,18.17-3.36,27.27-1.33,11.19-2.56,22.39-3.92,33.58-.15,1.27-.85,2.48-1.3,3.71-.5-.13-1-.27-1.5-.4.52-4.65,1.01-9.31,1.56-13.96,1.85-15.81,3.7-31.62,5.64-47.42.15-1.22.97-2.35,1.47-3.52.47.25.94.5,1.42.75Z"/>
      <path class="cls-1" d="m99.81,72.7c-.81-1.26-2.27-2.51-2.29-3.78-.04-2.34,1.76-3.99,4.1-3.6,1.17.2,3.08,2.23,2.88,2.97-.44,1.66-1.98,3.02-3.08,4.51-.54-.03-1.08-.06-1.61-.09Z"/>
    </g>
  </g>
</svg>