<?xml version="1.0" encoding="UTF-8"?>
<svg id="Capa_2" data-name="Capa 2" xmlns="http://www.w3.org/2000/svg" xmlns:xlink="http://www.w3.org/1999/xlink" viewBox="0 0 168.39 191.45">
  <defs>
    <style>
      .cls-1 {
        fill: url(#Degradado_sin_nombre_14);
      }

      .cls-1, .cls-2 {
        stroke: #fff;
        stroke-miterlimit: 10;
        stroke-width: .5px;
      }

      .cls-2 {
        fill: url(#Degradado_sin_nombre_14-2);
      }
    </style>
    <linearGradient id="Degradado_sin_nombre_14" data-name="Degradado sin nombre 14" x1="6.44" y1="147.19" x2="165.57" y2="56.26" gradientUnits="userSpaceOnUse">
      <stop offset="0" stop-color="#588990"/>
      <stop offset=".04" stop-color="#53848f"/>
      <stop offset=".44" stop-color="#32638f"/>
      <stop offset=".78" stop-color="#1e4f8f"/>
      <stop offset="1" stop-color="#17488f"/>
    </linearGradient>
    <linearGradient id="Degradado_sin_nombre_14-2" data-name="Degradado sin nombre 14" x1="22.72" y1="188.12" x2="186.75" y2="94.38" xlink:href="#Degradado_sin_nombre_14"/>
  </defs>
  <g id="Capa_1-2" data-name="Capa 1">
    <g>
      <path class="cls-1" d="m.25,170.95c.08-10.26.06-20.53.06-31.11l.03-8.5c-.04-14.06-.03-28.11-.03-42.17,0-20.93,0-41.85,0-62.78,0-3.63.45-4.24,4-4.77,15.48-2.29,30.97-4.55,46.45-6.81,14.53-2.12,29.07-4.24,43.6-6.36,16.38-2.38,32.75-4.76,49.13-7.14,2.03-.3,4.06-.58,6.09-.91,3.57-.58,4.84.5,4.84,4.17,0,42.3.01,84.6-.04,126.9,0,1.72.44,2.58,2.07,3.27,3.89,1.64,7.66,3.53,11.6,5.37-.88,1.88-1.69,3.61-2.6,5.56-7.76-3.61-15.44-7.18-23.27-10.82-.27,11.5-5.26,19.97-15.37,25.75,13.86,5.94,27.46,11.77,41.15,17.64-.84,1.97-1.62,3.78-2.43,5.66-7.4-3.16-14.62-6.29-21.89-9.32-.94-.39-2.11-.55-3.12-.42-15.92,1.93-31.84,3.92-47.76,5.91-14.96,1.87-29.91,3.78-44.87,5.66-14.51,1.82-29.02,3.63-43.53,5.43-2.61.32-4.03-.93-4.06-3.57-.03-2.82,0-5.64,0-8.85l-.06-7.77Zm95.61-81.42c0-.96,0-1.71,0-2.46,0-18.42,0-36.85,0-55.27,0-2.8,1.06-3.89,3.8-3.89,5.78-.02,11.56-.02,17.34,0,2.22.01,3.29,1,3.54,3.21.42,3.83.81,7.66,1.22,11.48,2.43,22.71,4.84,45.42,7.33,68.12.1.88.7,1.95,1.4,2.48,4.48,3.37,7.8,7.57,9.81,12.81.22.57.52,1.31.99,1.55,2.21,1.13,4.49,2.12,6.8,3.19V6.86C100.8,13.75,53.67,20.63,6.63,27.49v157.14c41.27-5.16,82.39-10.3,123.51-15.44-2.84-1.66-5.74-2.81-8.56-4.15-2.42-1.15-4.85-1.62-7.57-1.62-14.5,0-27.01-11.85-27.3-26.21-.3-14.76-.09-29.53-.07-44.29,0-2.17,1.18-3.32,3.34-3.37,1.86-.05,3.72-.01,5.9-.01Zm40.07,46.16c.04-11.73-9.66-21.46-21.43-21.51-11.91-.05-21.64,9.55-21.71,21.42-.07,11.88,9.6,21.68,21.42,21.71,11.99.02,21.68-9.62,21.72-21.62Zm-33.81-46.16c2.08,0,3.93-.04,5.79,0,2.16.05,3.32,1.19,3.36,3.34.05,2.82.01,5.64.02,8.46,0,2.22,0,4.44,0,6.4,3.93.4,7.58.76,11.39,1.15-.9-8.43-1.81-16.93-2.71-25.39h-17.83v6.03Zm.05-30.75v18.32h17.1c-.67-6.18-1.32-12.25-1.98-18.32h-15.12Zm12.5-24.57h-12.54v18.22h14.5c-.66-6.11-1.3-12.09-1.95-18.22Zm-21.78,83.17c3.04-2.12,6.03-4.64,9.41-6.42,2.19-1.15,3.26-2.24,2.84-4.7-.17-.99-.03-2.04-.03-3.07,0-2.47,0-4.94,0-7.35h-12.22v21.54Z"/>
      <path class="cls-2" d="m114.43,124.97c5.92.04,10.71,4.88,10.71,10.81,0,5.89-4.9,10.78-10.77,10.76-6.04-.02-10.84-4.88-10.81-10.91.03-5.87,4.95-10.69,10.87-10.66Zm-.11,6.18c-2.54.02-4.62,2.15-4.57,4.69.04,2.46,2.09,4.5,4.54,4.53,2.53.03,4.66-2.06,4.67-4.6.01-2.53-2.11-4.64-4.64-4.62Z"/>
    </g>
  </g>
</svg>