<?xml version="1.0" encoding="UTF-8"?>
<svg id="Capa_2" data-name="Capa 2" xmlns="http://www.w3.org/2000/svg" xmlns:xlink="http://www.w3.org/1999/xlink" viewBox="0 0 156.36 180.76">
  <defs>
    <style>
      .cls-1 {
        fill: url(#Degradado_sin_nombre_14);
      }

      .cls-1, .cls-2, .cls-3, .cls-4, .cls-5, .cls-6, .cls-7, .cls-8, .cls-9 {
        stroke-width: 0px;
      }

      .cls-2 {
        fill: url(#Degradado_sin_nombre_14-7);
      }

      .cls-3 {
        fill: url(#Degradado_sin_nombre_14-2);
      }

      .cls-4 {
        fill: url(#Degradado_sin_nombre_14-3);
      }

      .cls-5 {
        fill: url(#Degradado_sin_nombre_14-4);
      }

      .cls-6 {
        fill: url(#Degradado_sin_nombre_14-9);
      }

      .cls-7 {
        fill: url(#Degradado_sin_nombre_14-5);
      }

      .cls-8 {
        fill: url(#Degradado_sin_nombre_14-6);
      }

      .cls-9 {
        fill: url(#Degradado_sin_nombre_14-8);
      }
    </style>
    <linearGradient id="Degradado_sin_nombre_14" data-name="Degradado sin nombre 14" x1="14.74" y1="146.4" x2="168.86" y2="20.99" gradientUnits="userSpaceOnUse">
      <stop offset="0" stop-color="#588990"/>
      <stop offset=".04" stop-color="#53848f"/>
      <stop offset=".44" stop-color="#32638f"/>
      <stop offset=".78" stop-color="#1e4f8f"/>
      <stop offset="1" stop-color="#17488f"/>
    </linearGradient>
    <linearGradient id="Degradado_sin_nombre_14-2" data-name="Degradado sin nombre 14" x1="25.6" y1="159.74" x2="179.72" y2="34.33" xlink:href="#Degradado_sin_nombre_14"/>
    <linearGradient id="Degradado_sin_nombre_14-3" data-name="Degradado sin nombre 14" x1="7.55" y1="137.56" x2="161.67" y2="12.15" xlink:href="#Degradado_sin_nombre_14"/>
    <linearGradient id="Degradado_sin_nombre_14-4" data-name="Degradado sin nombre 14" x1="-440.64" y1="359.7" x2="-286.52" y2="234.29" gradientTransform="translate(-392.7 219.26) rotate(-156.03)" xlink:href="#Degradado_sin_nombre_14"/>
    <linearGradient id="Degradado_sin_nombre_14-5" data-name="Degradado sin nombre 14" x1="-153.11" y1="525.54" x2="1.01" y2="400.13" gradientTransform="translate(-340.21 -1.81) rotate(-96.88)" xlink:href="#Degradado_sin_nombre_14"/>
    <linearGradient id="Degradado_sin_nombre_14-6" data-name="Degradado sin nombre 14" x1="-184.78" y1="528.41" x2="-.86" y2="378.75" gradientTransform="translate(-340.21 -1.81) rotate(-96.88)" xlink:href="#Degradado_sin_nombre_14"/>
    <linearGradient id="Degradado_sin_nombre_14-7" data-name="Degradado sin nombre 14" x1="-442.83" y1="387.27" x2="-263.43" y2="241.29" gradientTransform="translate(-392.7 219.26) rotate(-156.03)" xlink:href="#Degradado_sin_nombre_14"/>
    <linearGradient id="Degradado_sin_nombre_14-8" data-name="Degradado sin nombre 14" x1="-258.65" y1="395.84" x2="-104.53" y2="270.43" gradientTransform="translate(-340.21 -1.81) rotate(-96.88)" xlink:href="#Degradado_sin_nombre_14"/>
    <linearGradient id="Degradado_sin_nombre_14-9" data-name="Degradado sin nombre 14" x1="-286.36" y1="408.31" x2="-86.06" y2="245.32" gradientTransform="translate(-340.21 -1.81) rotate(-96.88)" xlink:href="#Degradado_sin_nombre_14"/>
  </defs>
  <g id="Capa_1-2" data-name="Capa 1">
    <g>
      <path class="cls-1" d="m121.6,159.1c-1.35-1.14-2.69-1.99-3.64-3.15-2.29-2.82-4.55-2.69-7.68-1.09-4.45,2.27-9.17,4.14-13.95,5.62-3.36,1.04-5.16,2.74-4.86,6.22.35,4.18-1.76,5.49-5.58,5.42-5.72-.1-11.45-.12-17.16.09-3.7.13-5.65-1.13-5.33-5.03.33-4.01-1.7-5.77-5.45-6.86-4.46-1.3-8.91-3.01-12.95-5.28-3.37-1.9-5.81-1.8-8.09,1.16-2.64,3.43-4.96,2.68-7.59-.11-4.16-4.41-8.41-8.74-12.82-12.9-2.6-2.45-2.93-4.56-.05-6.82,3.43-2.69,3.08-5.48,1.1-9.06-2.15-3.91-3.87-8.16-5.04-12.47-1.06-3.87-2.9-5.85-6.9-5.2-4.36.71-5.41-1.33-5.27-5.27.21-6.23.12-12.48-.02-18.71-.08-3.34,1.28-4.94,4.61-4.57,4.66.53,6.77-1.43,7.83-6.07.95-4.14,3.02-8.11,5.09-11.88,1.79-3.26,1.83-5.82-1.12-8.23-2.9-2.37-2.98-4.58-.08-7.26,4.44-4.12,8.65-8.5,12.82-12.9,2.53-2.67,4.8-3.22,7.26-.05,2.3,2.96,4.86,3.12,8.19,1.34,3.95-2.11,8.1-4.03,12.39-5.27,4.09-1.18,6.48-2.94,6.1-7.49-.29-3.42,1.66-4.51,4.82-4.46,6.07.1,12.14.08,18.2,0,3.38-.05,5.34,1.1,4.9,4.84-.48,4.11,1.92,5.76,5.46,6.92,4.59,1.51,9.15,3.21,13.46,5.37,3.15,1.58,5.54,1.7,7.72-1.2,2.52-3.36,4.75-3,7.49,0,4.08,4.48,8.41,8.74,12.84,12.87,2.73,2.54,3.32,4.66.11,7.15-3.19,2.47-3.03,5.22-1.16,8.66,2.13,3.93,4,8.13,5.13,12.43,1.04,3.98,2.99,5.66,6.91,5.2,3.94-.46,5.23,1.38,5.15,5.11-.15,6.41-.12,12.82.04,19.23.08,3.16-1.1,4.58-4.26,4.21-4.63-.55-6.75,1.56-8,6.04-1.29,4.6-4.12,8.77-5.52,13.35-.59,1.95.02,5.23,1.39,6.62,3.32,3.38,2.8,5.55-.48,8.45-4.54,4.01-8.69,8.46-13.04,12.68-.83.81-1.83,1.44-2.98,2.32ZM33.23,38.33c-1.36,1.03-2.53,1.74-3.5,2.67-2.25,2.16-4.32,4.51-6.63,6.6-2.58,2.33-3.04,4.57-.22,6.92,2.77,2.32,2.42,4.45.89,7.64-3.2,6.66-5.49,13.75-8.39,20.57-.55,1.29-2.3,3.13-3.29,3.01-6.31-.8-7.36,2.46-6.71,7.63.26,2.05.15,4.16,0,6.23-.29,3.85,1,5.71,5.24,5.73,1.6,0,3.96,1.66,4.66,3.17,3.17,6.88,6.02,13.92,8.64,21.03.63,1.72.74,4.87-.29,5.75-3.98,3.39-3.01,5.99.27,8.9,1.81,1.61,3.59,3.29,5.14,5.15,2.76,3.32,5.36,3.33,8.1.06,1.81-2.15,3.45-2.24,6.23-.86,6.6,3.29,13.64,5.7,20.37,8.77,1.58.72,3.78,2.69,3.71,3.99-.3,5.65,2.52,6.93,7.34,6.53,2.41-.2,4.85-.11,7.28-.03,3.4.12,5.31-1.24,5.16-4.84-.12-2.92.91-4.62,3.96-5.75,7.09-2.64,13.94-5.96,20.99-8.72,1.38-.54,4.04-.44,4.78.46,3.56,4.35,6.44,3.59,9.57-.35,1.5-1.89,3.28-3.58,5.08-5.19,2.76-2.48,3.15-4.99.11-7.35-2.91-2.26-1.94-4.3-.66-7.11,3.08-6.73,5.5-13.76,8.46-20.54.59-1.36,2.5-3.21,3.65-3.1,6.05.56,7.1-2.61,6.56-7.57-.21-1.88-.17-3.82.03-5.71.46-4.36-1.04-6.68-5.77-6.1-2.94.36-3.86-1.04-4.81-3.9-2.32-7.02-5.31-13.84-8.4-20.57-1.03-2.25-2.11-3.94.27-5.82,4.18-3.32,3.18-6.26-.54-9.23-1.74-1.39-3.24-3.13-4.69-4.84-2.49-2.96-5.06-3.6-7.72-.37-2.23,2.71-4.24,2.19-7.18.76-6.32-3.08-13.05-5.31-19.45-8.25-1.7-.78-3.97-2.89-3.97-4.38.01-5.29-2.61-6.62-7.19-6.32-2.42.16-4.85.01-7.28.02-3.49,0-5.78,1.32-5.31,5.25.42,3.56-1.65,4.71-4.58,5.78-6.29,2.3-12.59,4.69-18.6,7.63-3.17,1.55-5.5,2.59-7.95-.8-.74-1.02-2.08-1.61-3.34-2.53Z"/>
      <path class="cls-3" d="m77.58,128.05c7.63-.48,14.65-3.1,21.42-6.47.03-1.06.08-2.13.17-3.19-.22.29-.43.57-.66.87-4.07-10.96-10.15-16.86-20.52-16.98-10.52-.12-17.21,5.21-21.08,15.85-.81,2.61-1.09.75-1.25,1.53,0,.77-.12,1.44-.35,2.05-.02.15-.04.31-.07.46,7.44,3.74,13.81,6.43,22.33,5.89Zm-13.95-13.55c2.46-5.28,9.66-8.66,16.3-7.67,6.7,1,12.17,5.88,12.57,11.91.1,1.52-1.45,4.02-2.85,4.59-3.78,1.54-7.88,2.29-11.45,3.25-3.67-.73-6.74-1.2-9.74-1.97-6.47-1.66-7.61-4.15-4.83-10.11Z"/>
      <path class="cls-4" d="m66.31,80.23c-.39-4.84.78-9.36,5.53-12.18,5.74-3.4,13.86-.84,15.73,5.55,1.16,3.97,1.33,8.57.6,12.65-1.05,5.86-6.47,8.89-12.53,8.15-5.2-.64-8.96-4.96-9.32-10.76-.07-1.03,0-2.07,0-3.42Zm17.7.25c.17-7.39-4.39-11.71-9.36-8.46-2.03,1.33-3.44,4.69-3.76,7.29-.42,3.39-.86,7.36,3.29,9.57,5.64,3,9.64-.36,9.83-8.4Z"/>
      <path class="cls-5" d="m46.98,70.02l.05.02c1.11.49,2.42.2,3.21-.72,9.76-11.33,26.36-15.28,40.58-8.27,15.39,7.58,22.72,25.9,16.78,41.99-6.82,18.48-27.77,27.11-45.48,19.23-11.94-5.31-19.29-16.73-20.01-28.95-.09-1.56-1.51-2.69-3.06-2.5-.02,0-.04,0-.06,0-1.44.17-2.5,1.44-2.41,2.89.94,15.42,10.91,29.72,26.94,35.06,17.47,5.82,36.95-1.49,46.26-17.37,12.07-20.6,3.29-46.57-17.91-56-16.23-7.22-34.79-2.53-45.83,10.28-1.22,1.41-.76,3.59.94,4.35Z"/>
      <path class="cls-7" d="m156.35,31.64c.09.79-.23,1.6-.92,2.09-1,.71-2.39.47-3.1-.53C132.6,5.28,98.74,4.45,98.4,4.45c-1.23-.02-2.2-1.03-2.19-2.26.02-1.23,1.03-2.21,2.25-2.19,1.48.02,36.44.82,57.49,30.62.22.31.35.66.39,1.02Z"/>
      <path class="cls-8" d="m91.46,1.98s0,.08.01.13c.08,1.23-.85,2.28-2.08,2.36l-5.59.45c-1.23.08-2.28-.87-2.36-2.08-.08-1.23.85-2.28,2.08-2.36l5.59-.45c1.18-.08,2.21.79,2.35,1.95Z"/>
      <path class="cls-2" d="m44.18,75.32h0c1.12.5,1.62,1.82,1.12,2.94l-2.15,4.83c-.5,1.12-1.81,1.62-2.93,1.12h0c-1.12-.5-1.62-1.82-1.12-2.94l2.15-4.83c.5-1.12,1.81-1.62,2.93-1.12Z"/>
      <path class="cls-9" d="m70.54,178.26c0,.07.01.15.02.23.02,1.23-.95,2.24-2.18,2.27-36.48.68-57.83-27.01-58.72-28.19-.74-.98-.55-2.37.43-3.11.98-.74,2.37-.55,3.12.43.21.27,20.93,27.06,55.09,26.43,1.15-.02,2.11.84,2.25,1.95Z"/>
      <path class="cls-6" d="m8.22,143.54c.1.82-.27,1.66-1.01,2.14-1.03.66-2.41.36-3.07-.67l-3.79-4.46c-.66-1.03-.36-2.41.67-3.07,1.03-.66,2.41-.36,3.07.67l3.79,4.46c.19.29.3.61.34.93Z"/>
    </g>
  </g>
</svg>