<?xml version="1.0" encoding="UTF-8" standalone="no"?>
<!-- Created with Inkscape (http://www.inkscape.org/) -->

<svg
   xmlns:dc="http://purl.org/dc/elements/1.1/"
   xmlns:cc="http://creativecommons.org/ns#"
   xmlns:rdf="http://www.w3.org/1999/02/22-rdf-syntax-ns#"
   xmlns:svg="http://www.w3.org/2000/svg"
   xmlns="http://www.w3.org/2000/svg"
   xmlns:sodipodi="http://sodipodi.sourceforge.net/DTD/sodipodi-0.dtd"
   xmlns:inkscape="http://www.inkscape.org/namespaces/inkscape"
   width="28.343529mm"
   height="23.03013mm"
   viewBox="0 0 28.343529 23.03013"
   version="1.1"
   id="svg10610"
   inkscape:version="0.92.3 (2405546, 2018-03-11)"
   sodipodi:docname="plan_t_1.svg">
  <defs
     id="defs10604" />
  <sodipodi:namedview
     id="base"
     pagecolor="#ffffff"
     bordercolor="#666666"
     borderopacity="1.0"
     inkscape:pageopacity="0.0"
     inkscape:pageshadow="2"
     inkscape:zoom="0.35"
     inkscape:cx="-672.15623"
     inkscape:cy="137.80477"
     inkscape:document-units="mm"
     inkscape:current-layer="layer1"
     showgrid="false"
     fit-margin-top="0"
     fit-margin-left="0"
     fit-margin-right="0"
     fit-margin-bottom="0"
     inkscape:window-width="1366"
     inkscape:window-height="718"
     inkscape:window-x="0"
     inkscape:window-y="0"
     inkscape:window-maximized="1" />
  <metadata
     id="metadata10607">
    <rdf:RDF>
      <cc:Work
         rdf:about="">
        <dc:format>image/svg+xml</dc:format>
        <dc:type
           rdf:resource="http://purl.org/dc/dcmitype/StillImage" />
        <dc:title></dc:title>
      </cc:Work>
    </rdf:RDF>
  </metadata>
  <g
     inkscape:label="Layer 1"
     inkscape:groupmode="layer"
     id="layer1"
     transform="translate(-131.72824,-162.26405)">
    <g
       id="g11209">
      <path
         style="fill:#e64c14;fill-opacity:1;fill-rule:nonzero;stroke:none;stroke-width:0.35277775"
         d="m 156.33888,172.05592 c 0.0179,0.01 0.0358,0.0193 0.0537,0.0289 0.1695,-0.31557 0.33899,-0.63252 0.50849,-0.94809 -0.14883,-0.007 -0.24942,0.0124 -0.34313,0.0482 -0.04,0.0152 -0.0841,0.0648 -0.0923,0.10611 -0.0482,0.25356 -0.0854,0.50988 -0.12678,0.76481 m -7.65775,0.0317 c 0.0152,-0.008 0.0317,-0.0165 0.0482,-0.0248 -0.0427,-0.26734 -0.0827,-0.53468 -0.12954,-0.80064 -0.005,-0.0303 -0.0455,-0.0675 -0.0772,-0.0772 -0.10059,-0.0331 -0.20532,-0.0537 -0.30868,-0.0799 -0.0165,0.0124 -0.0317,0.0234 -0.0469,0.0345 0.17088,0.31695 0.34176,0.63252 0.51401,0.94809 m -0.11023,-2.96141 c -0.37208,0.21636 -0.23565,0.54157 -0.25632,0.81856 -0.0124,0.1695 0.0758,0.2949 0.25632,0.3762 z m 7.92371,1.21268 c 0.37621,-0.23151 0.24254,-0.56913 0.25632,-0.85577 0.007,-0.15571 -0.0772,-0.28111 -0.25632,-0.33899 z m -12.14878,-1.27056 c 0.35002,-0.16949 0.28801,-0.47404 0.29765,-0.75516 0.007,-0.24805 -0.022,-0.47542 -0.29765,-0.61047 z m -8.77397,0.005 v -1.37665 c -0.37621,0.20119 -0.30041,0.54019 -0.30592,0.84611 -0.003,0.226 0.0703,0.41342 0.30592,0.53055 m 15.0151,1.88515 c 0.23978,-0.0868 0.46165,-0.14883 0.66835,-0.24529 0.13643,-0.0634 0.13367,-0.17363 0.01,-0.2756 -0.30592,-0.25219 -1.06246,-0.24667 -1.36012,0.008 -0.113,0.0965 -0.11713,0.19981 0.011,0.25907 0.21222,0.0992 0.43821,0.16812 0.6711,0.25356 m 3.88745,-0.008 c 0.226,-0.0744 0.44649,-0.1254 0.6463,-0.22187 0.17914,-0.0868 0.1695,-0.19017 0.011,-0.30868 -0.30868,-0.22875 -1.00459,-0.22599 -1.31051,0.006 -0.14883,0.113 -0.15848,0.21635 0.01,0.29904 0.19706,0.0978 0.41754,0.1502 0.64354,0.22599 m -3.03301,-7.20851 c 0.38172,-0.0345 0.73725,-0.0896 1.09141,-0.0896 0.35967,0 0.71934,0.0565 1.0983,0.0896 -0.25632,-0.41479 -0.6215,-0.64079 -1.09279,-0.64079 -0.46991,-0.001 -0.83922,0.21635 -1.09692,0.64079 m -9.64626,12.68622 c 0.31832,-0.44786 0.62425,-0.87781 0.93155,-1.31051 -0.20946,-0.16399 -0.39549,-0.31971 -0.59256,-0.45751 -0.0482,-0.0345 -0.15847,-0.0482 -0.19568,-0.0165 -0.42168,0.35278 -0.83509,0.71658 -1.27192,1.09692 0.38171,0.23151 0.74413,0.45337 1.12861,0.68764 m -4.62883,-1.2995 c 0.30868,0.45338 0.60358,0.8847 0.90812,1.32843 0.39412,-0.24116 0.77722,-0.47404 1.17409,-0.71796 -0.4327,-0.3762 -0.83647,-0.73311 -1.2485,-1.07762 -0.0441,-0.0372 -0.16261,-0.04 -0.21084,-0.006 -0.21084,0.14332 -0.40652,0.30593 -0.62287,0.47267 m 2.7919,0.11713 c 0.36656,-0.31832 0.70556,-0.63527 1.06936,-0.92053 0.18466,-0.14607 0.23978,-0.30179 0.1819,-0.53468 -0.83096,0.28939 -1.66742,0.28939 -2.57142,-0.022 0.062,0.19569 0.062,0.36656 0.14745,0.44787 0.37621,0.35553 0.77584,0.68488 1.17271,1.02939 m 4.26917,-8.51076 c 0.20256,-0.14332 0.27422,-0.31419 0.26733,-0.6215 -0.0303,-1.15755 -0.79099,-2.19107 -1.89342,-2.56728 -0.0785,-0.0262 -0.1571,-0.0524 -0.23702,-0.073 -0.073,-0.0179 -0.14745,-0.0275 -0.27561,-0.0496 1.11483,0.88884 1.72944,2.03399 2.13872,3.31143 m -8.59345,0.011 c 0.0221,-0.01 0.0427,-0.0207 0.0648,-0.0317 0.39964,-1.27607 1.0294,-2.40882 2.08084,-3.27698 -0.86816,0.17088 -1.56407,0.58429 -1.98575,1.37804 -0.26183,0.49471 -0.44235,1.01561 -0.33486,1.5875 0.0234,0.12127 0.11575,0.22875 0.17501,0.34313 m 12.91635,9.22734 c 0.13643,0.0345 0.27147,0.0799 0.41065,0.1006 0.29353,0.0455 0.41755,0.19981 0.41342,0.49058 -0.003,0.0992 0.0248,0.2508 0.0896,0.28526 0.0785,0.0427 0.22461,0.0179 0.31694,-0.0289 0.39412,-0.19568 0.75931,-0.0386 0.8599,0.38722 0.0772,0.32384 0.33624,0.40377 0.58291,0.17915 0.3955,-0.35967 0.70142,-0.31557 0.98668,0.14331 0.17087,0.27699 0.50574,0.28664 0.63941,-0.008 0.18879,-0.41616 0.70969,-0.48369 1.00321,-0.1378 0.21359,0.2508 0.49747,0.14607 0.57326,-0.17915 0.0992,-0.42443 0.46991,-0.58842 0.8599,-0.37896 0.27423,0.14745 0.40376,0.0717 0.42306,-0.24942 0.0138,-0.23703 0.16811,-0.39688 0.40514,-0.41203 0.10335,-0.007 0.20946,0.01 0.31006,-0.007 0.1254,-0.0207 0.24529,-0.0634 0.36793,-0.0965 -0.69591,-0.33624 -0.81166,-0.32384 -1.4304,0.0786 -0.19017,0.12402 -0.38447,0.24253 -0.58705,0.34726 -0.77859,0.39963 -1.61781,0.48231 -2.47633,0.46027 -0.74414,-0.0207 -1.44832,-0.1888 -2.09875,-0.55535 -0.25907,-0.1447 -0.51126,-0.30042 -0.76757,-0.45062 -0.28525,-0.16812 -0.57464,-0.15986 -0.88194,0.0317 m -7.24159,1.1397 c -0.33762,-0.20533 -0.67662,-0.38034 -0.97703,-0.60496 -0.26734,-0.19844 -0.47542,-0.19706 -0.74276,-0.001 -0.32522,0.23702 -0.68489,0.42581 -1.0418,0.64354 0.452,0.66284 0.88883,1.30363 1.33946,1.96233 0.47817,-0.67248 0.94395,-1.32705 1.42213,-1.99953 m 8.92831,-1.69086 c 1.28295,1.01975 3.7083,0.83234 4.6247,0.011 -0.44511,-0.19981 -0.77446,-0.51952 -1.0046,-0.94809 -0.89296,0.35967 -1.77353,0.34589 -2.64858,0.004 -0.23014,0.42857 -0.55122,0.73036 -0.97152,0.93293 m 2.30408,-7.82036 c -0.82545,0.61736 -1.04042,0.73036 -1.80247,0.86127 -0.339,0.0579 -0.68903,0.051 -1.02802,0.10336 -0.0978,0.0165 -0.24805,0.13091 -0.25632,0.21221 -0.0303,0.31006 -0.0124,0.62425 -0.0124,0.92604 0.2825,-0.1061 0.55122,-0.20532 0.82683,-0.3073 0.0413,-0.27698 0.18465,-0.43408 0.41203,-0.44235 0.21911,-0.008 0.36242,0.13505 0.4327,0.41341 0.011,0.0482 0.0593,0.1006 0.10473,0.12265 0.15986,0.0772 0.3266,0.14331 0.49472,0.21497 0.62425,-0.44097 1.01699,-0.44097 1.65365,0.007 0.073,-0.0386 0.14607,-0.0772 0.22048,-0.11162 0.0758,-0.0344 0.16261,-0.0496 0.22738,-0.0965 0.062,-0.0441 0.12953,-0.113 0.14607,-0.1819 0.051,-0.20671 0.19292,-0.35416 0.38998,-0.36794 0.19155,-0.0138 0.37345,0.11989 0.42995,0.31971 0.0152,0.051 0.0193,0.10473 0.0221,0.12264 0.29214,0.10887 0.55811,0.20809 0.82269,0.3073 0.004,-0.0152 0.01,-0.0289 0.01,-0.0413 10e-4,-0.22186 0.003,-0.44235 10e-4,-0.66283 0,-0.34589 -0.10611,-0.452 -0.45751,-0.46165 -0.98116,-0.0275 -1.90583,-0.21497 -2.63756,-0.93706 m 3.03719,3.85713 c -0.63252,0.27836 -0.84336,0.31694 -1.41249,0.26182 -0.74689,-0.0744 -1.18787,-0.48369 -1.31327,-1.22094 -0.0289,-0.17501 -0.1378,-0.26458 -0.31143,-0.27423 -0.16674,-0.008 -0.28664,0.11162 -0.32935,0.27974 -0.0538,0.21084 -0.0951,0.43684 -0.20258,0.61736 -0.19154,0.31695 -0.52089,0.46578 -0.86954,0.5526 -0.57189,0.14194 -1.12172,0.0717 -1.64124,-0.22324 -0.0455,1.04317 1.56269,2.40467 2.90077,2.46806 1.41938,0.0661 3.12677,-1.24712 3.17913,-2.46117 m -9.84467,4.89619 v 8.09184 h 1.60955 c 0.006,-0.0565 0.0138,-0.10335 0.0138,-0.15021 10e-4,-1.94716 0.008,-3.89571 -0.003,-5.84288 -0.006,-0.98116 -0.67525,-1.83279 -1.62058,-2.09875 m -9.31968,-7.5365 h 0.0124 c 0,0.4768 -0.0193,0.95498 0.008,1.4304 0.0165,0.28388 0.073,0.5774 0.17226,0.84474 0.24391,0.65732 0.73312,1.11346 1.32981,1.45107 0.68626,0.38723 1.41662,0.68627 2.22001,0.61599 0.75242,-0.0648 1.44832,-0.34313 2.07257,-0.77308 0.74277,-0.51263 1.22922,-1.18649 1.24988,-2.12494 0.0152,-0.76618 -0.011,-1.53375 0.0275,-2.29856 0.0331,-0.63528 -0.12402,-1.21543 -0.37482,-1.78181 -0.3955,-0.89159 -0.92054,-1.6812 -1.75425,-2.22966 -0.95773,-0.63252 -1.91271,-0.62012 -2.86218,0.0138 -0.75379,0.5016 -1.25539,1.21267 -1.64125,2.01469 -0.31281,0.65457 -0.5333,1.32843 -0.46302,2.07119 0.0234,0.25356 0.003,0.51126 0.003,0.76619 m 21.29621,15.63935 c 0.42168,0 0.8158,0.001 1.20854,0 0.24253,-0.001 0.31694,-0.0772 0.31694,-0.32659 0,-1.92787 0.011,-3.85713 -0.005,-5.785 -0.008,-0.99632 -0.61736,-1.67432 -1.63986,-1.98025 -0.20119,0.39412 -0.56362,0.5402 -0.97014,0.61875 -0.0593,0.0124 -0.13367,0.0455 -0.15985,0.0923 -0.33762,0.5829 -0.63252,0.7276 -1.2926,0.62563 -0.54708,0.70693 -0.88608,0.7965 -1.72393,0.46164 -0.62287,0.54846 -1.08451,0.54708 -1.83968,-0.003 -0.53881,0.31419 -1.22783,0.29903 -1.70325,-0.45889 -0.73174,0.10748 -1.0542,-0.0785 -1.34497,-0.77308 -0.0179,-0.0413 -0.0524,-0.0923 -0.0896,-0.10335 -0.32797,-0.0965 -0.56775,-0.29904 -0.72898,-0.60772 -0.13367,0.0593 -0.24943,0.11162 -0.37069,0.16674 0.0262,0.04 0.0372,0.0648 0.0551,0.0854 0.54708,0.61048 0.77721,1.33395 0.77446,2.14561 -0.006,1.86586 -0.001,3.73172 -0.001,5.59759 v 0.22738 h 8.67888 v -1.28158 c 0,-0.93293 -0.001,-1.86586 0.001,-2.7988 0,-0.30316 0.17777,-0.48231 0.452,-0.46853 0.24253,0.0138 0.38309,0.18742 0.38309,0.49334 0.001,1.25815 0,2.5163 0,3.77307 z m -23.52311,-8.11113 c -1.05145,0.36243 -1.63022,1.16858 -1.63022,2.23242 v 5.4529 c 0,0.0482 0,0.0965 0,0.1447 -0.001,0.18741 0.091,0.28111 0.27974,0.28111 0.23427,0 0.46991,0 0.70418,0 h 0.6463 v -0.27836 c 0,-1.06384 0,-2.12769 0,-3.19153 0,-0.29766 -0.008,-0.59532 0.004,-0.8916 0.008,-0.24666 0.17776,-0.40789 0.40376,-0.41341 0.23151,-0.006 0.39825,0.13919 0.4327,0.38586 0.01,0.0675 0.007,0.1378 0.007,0.2067 0,1.305 0,2.61138 0,3.91776 v 0.24943 h 9.84195 v -8.49285 c -0.39963,-0.12678 -0.80064,-0.24667 -1.19751,-0.3831 -0.14883,-0.0524 -0.23151,-0.0248 -0.32246,0.10611 -0.58291,0.83096 -1.17271,1.6564 -1.76113,2.48323 -0.38034,0.53605 -0.75655,1.07349 -1.14378,1.60128 -0.30454,0.41616 -0.83371,0.40927 -1.13964,-0.003 -0.0524,-0.0731 -0.10335,-0.14748 -0.15434,-0.22189 -0.87505,-1.28295 -1.75286,-2.56453 -2.6224,-3.85162 -0.0896,-0.13229 -0.17088,-0.16398 -0.31971,-0.11024 -0.32384,0.11575 -0.65181,0.22462 -0.98254,0.31833 -0.16261,0.0469 -0.20533,0.12815 -0.20257,0.29352 0.011,0.62838 0.005,1.25815 0.003,1.88653 -0.001,0.30042 -0.14608,0.48094 -0.38585,0.49747 -0.27837,0.0207 -0.45751,-0.16398 -0.45889,-0.48231 -0.004,-0.57326 -0.001,-1.14515 -0.001,-1.7377 m 18.03576,-14.08217 h 0.62287 c 0.0372,0.0138 0.073,0.0331 0.11162,0.0427 0.84061,0.2012 1.3808,0.7221 1.60955,1.55168 0.04,0.14882 0.10749,0.21083 0.23289,0.27285 0.34038,0.16812 0.67662,0.34313 1.00321,0.5333 0.25494,0.14883 0.31971,0.40514 0.18328,0.61323 -0.13367,0.20256 -0.37758,0.24115 -0.62149,0.0951 -0.04,-0.0248 -0.0813,-0.0524 -0.12265,-0.0772 -1.29398,-0.77997 -2.6665,-1.03215 -4.1286,-0.58153 -1.37942,0.42443 -2.44051,1.2361 -3.02204,2.59622 -0.17363,0.40514 -0.2508,0.83509 -0.26734,1.32154 0.27699,-0.24391 0.56913,-0.35002 0.89022,-0.38723 0.0455,-0.006 0.0951,-0.051 0.12815,-0.091 0.26734,-0.3197 0.61598,-0.44235 1.02388,-0.45613 0.2825,-0.008 0.56776,-0.0262 0.84336,-0.0827 0.63528,-0.12678 1.20441,-0.35691 1.46348,-1.03353 0.0606,-0.1571 0.22462,-0.25218 0.39136,-0.20119 0.13092,0.04 0.30041,0.13229 0.34451,0.24529 0.15434,0.38171 0.43408,0.61736 0.78686,0.78272 0.46302,0.22049 0.9605,0.2949 1.46899,0.29214 0.42444,-0.003 0.78824,0.12265 1.06522,0.45751 0.0289,0.0345 0.0689,0.0813 0.10887,0.0854 0.32935,0.0331 0.62563,0.1447 0.90123,0.37896 0,-0.0675 0.003,-0.10059 0,-0.13229 -0.0427,-0.65319 -0.24391,-1.25401 -0.58152,-1.8135 -0.14194,-0.2384 -0.0882,-0.46577 0.11988,-0.59669 0.19982,-0.12816 0.44511,-0.0661 0.58705,0.16123 0.30041,0.47818 0.51952,0.98943 0.62149,1.54616 0.17226,0.94533 0.1006,1.88791 -0.0923,2.81809 -0.34864,1.68809 -1.28157,2.87459 -2.99034,3.36517 -0.1006,0.0289 -0.19017,0.0951 -0.28939,0.14469 0.19569,0.35829 0.47818,0.55122 0.83923,0.63114 1.06246,0.23565 2.08083,0.59807 3.04822,1.09279 0.97703,0.50022 1.53789,1.31051 1.55305,2.41294 0.0276,1.99678 0.01,3.99494 0.007,5.99309 0,0.46302 -0.28939,0.86265 -0.73587,0.99081 -0.17502,0.051 -0.36794,0.0565 -0.5526,0.0565 -8.58104,0.001 -17.16209,0.001 -25.74313,0.001 -0.11024,0 -0.22186,-0.003 -0.3321,-0.0124 -0.42446,-0.0344 -0.7166,-0.25768 -0.89024,-0.64078 -0.0289,-0.062 -0.0551,-0.12402 -0.0813,-0.18741 v -6.3872 c 0.0124,-0.022 0.0331,-0.0455 0.0372,-0.0689 0.17088,-0.99357 0.6904,-1.76527 1.59715,-2.18419 0.89159,-0.41203 1.83555,-0.71107 2.75332,-1.06798 0.18328,-0.0703 0.35829,-0.16674 0.52503,-0.27285 0.3955,-0.25356 0.69867,-0.65594 1.1989,-0.72898 0.0331,-0.27561 0.0331,-0.27423 -0.18742,-0.39687 -0.90399,-0.50574 -1.61919,-1.1865 -1.91547,-2.209 -0.11024,-0.37896 -0.13229,-0.78273 -0.19568,-1.18925 -1.20165,-0.33624 -1.53651,-1.68258 -0.66973,-2.80293 -0.25218,-0.45888 -0.32797,-0.8282 -0.27009,-1.30913 0.23013,-1.93063 1.76389,-3.29076 3.7083,-3.29351 0.6463,0 1.28157,0.17914 1.93201,0.12402 0.10197,-0.01 0.20533,0.006 0.3073,-0.007 0.25907,-0.0331 0.51676,-0.0978 0.77721,-0.10886 1.49793,-0.0579 2.71612,0.47404 3.48506,1.79558 0.50987,0.87919 0.76619,1.82039 0.23702,2.8236 0.48232,0.43408 0.49059,1.01424 0.41893,1.5999 -0.0813,0.66146 -0.50023,1.03215 -1.10106,1.18373 -0.0469,0.35141 -0.062,0.69178 -0.14056,1.017 -0.26458,1.10381 -0.99494,1.8383 -1.95681,2.36609 -0.18604,0.10197 -0.25356,0.20946 -0.20533,0.36518 0.20258,0.0978 0.39274,0.16536 0.55535,0.27285 0.21222,0.13918 0.39688,0.32384 0.6091,0.4644 0.17914,0.11989 0.37482,0.22738 0.57739,0.30317 0.75517,0.27974 1.53238,0.5085 2.26825,0.83233 0.38448,0.16812 0.678,0.20257 1.06385,0.008 0.78411,-0.39274 1.62471,-0.64492 2.48185,-0.83784 0.3638,-0.0813 0.65319,-0.27285 0.82682,-0.62287 -0.0579,-0.04 -0.1006,-0.0799 -0.14883,-0.1006 -0.0882,-0.0386 -0.18052,-0.0703 -0.27285,-0.0978 -1.23886,-0.38728 -2.09875,-1.18378 -2.57417,-2.39094 -0.36519,-0.92742 -0.45752,-1.89756 -0.45476,-2.88424 0.003,-0.9412 0.27974,-1.79283 0.80891,-2.56315 0.62425,-0.90813 1.46761,-1.54616 2.48185,-1.96508 0.10473,-0.0441 0.17914,-0.0854 0.2067,-0.22186 0.0909,-0.43684 0.31833,-0.8034 0.64906,-1.10519 0.31006,-0.28388 0.68902,-0.41892 1.08176,-0.52917"
         id="path6387"
         inkscape:connector-curvature="0" />
      <path
         style="fill:#e64c14;fill-opacity:1;fill-rule:nonzero;stroke:none;stroke-width:0.35277775"
         d="m 152.5286,173.14182 c 0.50161,0.004 0.95636,-0.2508 1.12861,-0.63114 0.10611,-0.23289 0.0427,-0.46165 -0.15847,-0.57327 -0.20671,-0.11575 -0.42306,-0.0524 -0.57051,0.16537 -0.19155,0.28663 -0.59118,0.27561 -0.7965,-0.005 -0.0634,-0.0868 -0.1695,-0.16674 -0.27286,-0.19844 -0.1502,-0.0455 -0.30179,0.001 -0.40652,0.13643 -0.10059,0.12953 -0.12264,0.26872 -0.062,0.42581 0.15848,0.40514 0.6091,0.678 1.13826,0.68075"
         id="path6389"
         inkscape:connector-curvature="0" />
      <path
         style="fill:#e64c14;fill-opacity:1;fill-rule:nonzero;stroke:none;stroke-width:0.35277775"
         d="m 139.95951,165.18365 c 0.50437,0 1.00873,-0.003 1.51309,0.001 0.21222,0.001 0.37896,0.0937 0.44373,0.30592 0.0565,0.18466 -0.003,0.3514 -0.16537,0.45062 -0.0882,0.0551 -0.2067,0.0841 -0.31143,0.0854 -0.98806,0.006 -1.97749,0.006 -2.96554,0.001 -0.30179,0 -0.48645,-0.16675 -0.48921,-0.41755 -0.001,-0.25907 0.18604,-0.42443 0.50299,-0.42719 0.4892,-0.003 0.98116,0 1.47174,0"
         id="path6391"
         inkscape:connector-curvature="0" />
      <path
         style="fill:#e64c14;fill-opacity:1;fill-rule:nonzero;stroke:none;stroke-width:0.35277775"
         d="m 139.9416,172.17857 c -0.6339,-0.0276 -1.19614,-0.22462 -1.59715,-0.75654 -0.17914,-0.23703 -0.15985,-0.48921 0.0372,-0.64217 0.20257,-0.1571 0.42719,-0.11024 0.62563,0.13091 0.4644,0.56362 1.42076,0.56638 1.8948,0.006 0.20809,-0.24529 0.4203,-0.29352 0.62563,-0.14056 0.20119,0.14883 0.22187,0.41754 0.0331,0.66008 -0.40652,0.52503 -0.97014,0.72071 -1.6192,0.74276"
         id="path6393"
         inkscape:connector-curvature="0" />
      <path
         style="fill:#e64c14;fill-opacity:1;fill-rule:nonzero;stroke:none;stroke-width:0.35277775"
         d="m 139.94987,167.20109 c -0.27699,0 -0.55397,0.003 -0.82958,0 -0.2577,-0.003 -0.452,-0.18189 -0.45475,-0.41065 -0.001,-0.23013 0.19154,-0.41479 0.44786,-0.41617 0.56775,-0.003 1.13413,-0.003 1.7005,0 0.25218,0.003 0.42581,0.17639 0.42719,0.41066 0.003,0.23427 -0.17226,0.41065 -0.4203,0.41479 -0.29077,0.005 -0.58153,10e-4 -0.87092,10e-4"
         id="path6395"
         inkscape:connector-curvature="0" />
      <path
         style="fill:#e64c14;fill-opacity:1;fill-rule:nonzero;stroke:none;stroke-width:0.35277775"
         d="m 140.30402,169.62093 c 0.0799,0.0303 0.16537,0.0345 0.2012,0.0799 0.0854,0.1061 0.2067,0.23289 0.20533,0.35002 -0.003,0.12678 -0.0992,0.29903 -0.20671,0.36656 -0.46578,0.28525 -1.04317,-0.0496 -1.04731,-0.59118 -0.003,-0.24116 -0.004,-0.48369 0,-0.72485 0.006,-0.29077 0.1819,-0.48783 0.42857,-0.48369 0.2384,0.004 0.4079,0.1943 0.41755,0.47404 0.003,0.0896 0.001,0.17915 0.001,0.26872 z m 0,0"
         id="path6397"
         inkscape:connector-curvature="0" />
      <path
         style="fill:#e64c14;fill-opacity:1;fill-rule:nonzero;stroke:none;stroke-width:0.35277775"
         d="m 137.5259,168.42479 c 0,-0.0758 -0.004,-0.15158 0,-0.22737 0.0138,-0.21773 0.16674,-0.37621 0.37758,-0.39688 0.18466,-0.0193 0.38585,0.0978 0.41892,0.2949 0.0345,0.20671 0.0386,0.4272 0.007,0.6339 -0.0331,0.21635 -0.23289,0.32522 -0.45337,0.29903 -0.19982,-0.0248 -0.339,-0.17914 -0.35003,-0.39549 -0.004,-0.0689 0,-0.13781 0,-0.20809"
         id="path6399"
         inkscape:connector-curvature="0" />
      <path
         style="fill:#e64c14;fill-opacity:1;fill-rule:nonzero;stroke:none;stroke-width:0.35277775"
         d="m 142.389,168.4179 c 0,0.0703 10e-4,0.13918 0,0.20809 -0.008,0.23013 -0.16399,0.39411 -0.38586,0.40376 -0.23151,0.011 -0.4203,-0.14331 -0.43683,-0.37482 -0.0124,-0.15848 -0.0124,-0.31833 0,-0.4768 0.0165,-0.21773 0.21083,-0.38723 0.41892,-0.38172 0.22049,0.004 0.3955,0.18465 0.40377,0.41479 10e-4,0.0689 0,0.1378 0,0.2067"
         id="path6401"
         inkscape:connector-curvature="0" />
      <path
         style="fill:#e64c14;fill-opacity:1;fill-rule:nonzero;stroke:none;stroke-width:0.35277775"
         d="m 152.5286,173.14182 c -0.52917,-0.003 -0.97979,-0.27561 -1.13826,-0.68075 -0.0606,-0.1571 -0.0386,-0.29628 0.062,-0.42582 0.10473,-0.13504 0.25632,-0.1819 0.40652,-0.13642 0.10336,0.0317 0.20946,0.11162 0.27285,0.19844 0.20533,0.28112 0.60496,0.29214 0.79651,0.005 0.14745,-0.21774 0.3638,-0.28113 0.57051,-0.16537 0.20119,0.11162 0.26458,0.34038 0.15847,0.57326 -0.17225,0.38034 -0.62701,0.63528 -1.12861,0.63115"
         id="path6403"
         inkscape:connector-curvature="0" />
    </g>
  </g>
</svg>
